<?xml version="1.0" encoding="UTF-8" standalone="no"?><svg xmlns="http://www.w3.org/2000/svg" xmlns:xlink="http://www.w3.org/1999/xlink" clip-rule="evenodd" stroke-miterlimit="4.00" viewBox="0 0 795 81"><desc>SVG generated by Keynote</desc><defs></defs><g transform="matrix(1.00, 0.00, -0.00, -1.00, 0.0, 81.0)"><text xml:space="preserve" font-family="GillSans" font-size="112.0" fill="#000000" transform="matrix(1.00, 0.00, -0.00, -1.00, 2.0, 3.0)">A</text><text xml:space="preserve" font-family="GillSans" font-size="112.0" fill="#000000" transform="matrix(1.00, 0.00, -0.00, -1.00, 76.7, 3.0)">t</text><text xml:space="preserve" font-family="GillSans" font-size="112.0" fill="#000000" transform="matrix(1.00, 0.00, -0.00, -1.00, 114.0, 3.0)">t</text><text xml:space="preserve" font-family="GillSans" font-size="112.0" fill="#000000" transform="matrix(1.00, 0.00, -0.00, -1.00, 151.3, 3.0)">e</text><text xml:space="preserve" font-family="GillSans" font-size="112.0" fill="#000000" transform="matrix(1.00, 0.00, -0.00, -1.00, 204.9, 3.0)">n</text><text xml:space="preserve" font-family="GillSans" font-size="112.0" fill="#000000" transform="matrix(1.00, 0.00, -0.00, -1.00, 260.9, 3.0)">t</text><text xml:space="preserve" font-family="GillSans" font-size="112.0" fill="#000000" transform="matrix(1.00, 0.00, -0.00, -1.00, 298.2, 3.0)">i</text><text xml:space="preserve" font-family="GillSans" font-size="112.0" fill="#000000" transform="matrix(1.00, 0.00, -0.00, -1.00, 322.8, 3.0)">o</text><text xml:space="preserve" font-family="GillSans" font-size="112.0" fill="#000000" transform="matrix(1.00, 0.00, -0.00, -1.00, 384.6, 3.0)">n</text><text xml:space="preserve" font-family="GillSans" font-size="112.0" fill="#000000" transform="matrix(1.00, 0.00, -0.00, -1.00, 440.6, 3.0)"> </text><text xml:space="preserve" font-family="GillSans" font-size="112.0" fill="#000000" transform="matrix(1.00, 0.00, -0.00, -1.00, 471.7, 3.0)">m</text><text xml:space="preserve" font-family="GillSans" font-size="112.0" fill="#000000" transform="matrix(1.00, 0.00, -0.00, -1.00, 558.0, 3.0)">o</text><text xml:space="preserve" font-family="GillSans" font-size="112.0" fill="#000000" transform="matrix(1.00, 0.00, -0.00, -1.00, 619.8, 3.0)">d</text><text xml:space="preserve" font-family="GillSans" font-size="112.0" fill="#000000" transform="matrix(1.00, 0.00, -0.00, -1.00, 676.9, 3.0)">e</text><text xml:space="preserve" font-family="GillSans" font-size="112.0" fill="#000000" transform="matrix(1.00, 0.00, -0.00, -1.00, 730.5, 3.0)">l</text><text xml:space="preserve" font-family="GillSans" font-size="112.0" fill="#000000" transform="matrix(1.00, 0.00, -0.00, -1.00, 755.1, 3.0)">s</text></g></svg>