<?xml version="1.0" encoding="UTF-8" standalone="no"?><svg xmlns="http://www.w3.org/2000/svg" xmlns:xlink="http://www.w3.org/1999/xlink" clip-rule="evenodd" stroke-miterlimit="4.00" viewBox="0 0 1656 142"><desc>SVG generated by Keynote</desc><defs></defs><g transform="matrix(1.00, 0.00, -0.00, -1.00, 0.0, 142.0)"><path d="M 14.3 140.2 L 1641.7 140.2 C 1645.5 140.2 1647.5 140.2 1649.5 139.6 C 1651.8 138.8 1653.5 137.0 1654.3 134.7 C 1655.0 132.7 1655.0 130.8 1655.0 126.9 L 1655.0 15.0 C 1655.0 11.2 1655.0 9.3 1654.3 7.3 C 1653.5 5.0 1651.8 3.2 1649.5 2.4 C 1647.5 1.8 1645.5 1.8 1641.7 1.8 L 14.3 1.8 C 10.5 1.8 8.5 1.8 6.5 2.4 C 4.2 3.2 2.5 5.0 1.7 7.3 C 1.0 9.3 1.0 11.2 1.0 15.1 L 1.0 127.0 C 1.0 130.8 1.0 132.7 1.7 134.7 C 2.5 137.0 4.2 138.8 6.5 139.6 C 8.5 140.2 10.5 140.2 14.3 140.2 Z M 14.3 140.2 " fill="#FEFFFF"></path><g><clipPath id="clip-10938"><path d="M -1.9 1.8 L 1657.9 1.8 L 1657.9 140.2 L -1.9 140.2 Z M -1.9 1.8 "></path></clipPath><g clip-path="url(#clip-10938)"><text xml:space="preserve" font-family="GillSans" font-size="33.8" fill="#000000" transform="matrix(1.00, 0.00, -0.00, -1.00, 51.0, 59.8)">•</text><text xml:space="preserve" font-family="GillSans" font-size="45.0" fill="#000000" transform="matrix(1.00, 0.00, -0.00, -1.00, 94.0, 56.0)">R</text><text xml:space="preserve" font-family="GillSans" font-size="45.0" fill="#000000" transform="matrix(1.00, 0.00, -0.00, -1.00, 121.2, 56.0)">N</text><text xml:space="preserve" font-family="GillSans" font-size="45.0" fill="#000000" transform="matrix(1.00, 0.00, -0.00, -1.00, 156.3, 56.0)">N</text><text xml:space="preserve" font-family="GillSans" font-size="45.0" fill="#000000" transform="matrix(1.00, 0.00, -0.00, -1.00, 191.4, 56.0)">s</text><text xml:space="preserve" font-family="GillSans" font-size="45.0" fill="#000000" transform="matrix(1.00, 0.00, -0.00, -1.00, 208.7, 56.0)">e</text><text xml:space="preserve" font-family="GillSans" font-size="45.0" fill="#000000" transform="matrix(1.00, 0.00, -0.00, -1.00, 230.3, 56.0)">a</text><text xml:space="preserve" font-family="GillSans" font-size="45.0" fill="#000000" transform="matrix(1.00, 0.00, -0.00, -1.00, 249.5, 56.0)">r</text><text xml:space="preserve" font-family="GillSans" font-size="45.0" fill="#000000" transform="matrix(1.00, 0.00, -0.00, -1.00, 266.2, 56.0)">c</text><text xml:space="preserve" font-family="GillSans" font-size="45.0" fill="#000000" transform="matrix(1.00, 0.00, -0.00, -1.00, 285.9, 56.0)">h</text><text xml:space="preserve" font-family="GillSans" font-size="45.0" fill="#000000" transform="matrix(1.00, 0.00, -0.00, -1.00, 308.4, 56.0)">:</text><text xml:space="preserve" font-family="GillSans" font-size="45.0" fill="#000000" transform="matrix(1.00, 0.00, -0.00, -1.00, 313.8, 56.0)"> </text><text xml:space="preserve" font-family="GillSans" font-size="45.0" fill="#000000" transform="matrix(1.00, 0.00, -0.00, -1.00, 321.8, 56.0)">A</text><text xml:space="preserve" font-family="GillSans" font-size="45.0" fill="#000000" transform="matrix(1.00, 0.00, -0.00, -1.00, 351.8, 56.0)">t</text><text xml:space="preserve" font-family="GillSans" font-size="45.0" fill="#000000" transform="matrix(1.00, 0.00, -0.00, -1.00, 366.8, 56.0)">t</text><text xml:space="preserve" font-family="GillSans" font-size="45.0" fill="#000000" transform="matrix(1.00, 0.00, -0.00, -1.00, 381.7, 56.0)">e</text><text xml:space="preserve" font-family="GillSans" font-size="45.0" fill="#000000" transform="matrix(1.00, 0.00, -0.00, -1.00, 403.3, 56.0)">n</text><text xml:space="preserve" font-family="GillSans" font-size="45.0" fill="#000000" transform="matrix(1.00, 0.00, -0.00, -1.00, 425.8, 56.0)">t</text><text xml:space="preserve" font-family="GillSans" font-size="45.0" fill="#000000" transform="matrix(1.00, 0.00, -0.00, -1.00, 440.8, 56.0)">i</text><text xml:space="preserve" font-family="GillSans" font-size="45.0" fill="#000000" transform="matrix(1.00, 0.00, -0.00, -1.00, 450.7, 56.0)">o</text><text xml:space="preserve" font-family="GillSans" font-size="45.0" fill="#000000" transform="matrix(1.00, 0.00, -0.00, -1.00, 475.5, 56.0)">n</text><text xml:space="preserve" font-family="GillSans" font-size="45.0" fill="#000000" transform="matrix(1.00, 0.00, -0.00, -1.00, 498.0, 56.0)"> </text><text xml:space="preserve" font-family="GillSans" font-size="45.0" fill="#000000" transform="matrix(1.00, 0.00, -0.00, -1.00, 510.5, 56.0)">i</text><text xml:space="preserve" font-family="GillSans" font-size="45.0" fill="#000000" transform="matrix(1.00, 0.00, -0.00, -1.00, 520.3, 56.0)">n</text><text xml:space="preserve" font-family="GillSans" font-size="45.0" fill="#000000" transform="matrix(1.00, 0.00, -0.00, -1.00, 542.8, 56.0)"> </text><text xml:space="preserve" font-family="GillSans" font-size="45.0" fill="#000000" transform="matrix(1.00, 0.00, -0.00, -1.00, 555.3, 56.0)">M</text><text xml:space="preserve" font-family="GillSans" font-size="45.0" fill="#000000" transform="matrix(1.00, 0.00, -0.00, -1.00, 590.5, 56.0)">a</text><text xml:space="preserve" font-family="GillSans" font-size="45.0" fill="#000000" transform="matrix(1.00, 0.00, -0.00, -1.00, 609.7, 56.0)">c</text><text xml:space="preserve" font-family="GillSans" font-size="45.0" fill="#000000" transform="matrix(1.00, 0.00, -0.00, -1.00, 629.4, 56.0)">h</text><text xml:space="preserve" font-family="GillSans" font-size="45.0" fill="#000000" transform="matrix(1.00, 0.00, -0.00, -1.00, 651.9, 56.0)">i</text><text xml:space="preserve" font-family="GillSans" font-size="45.0" fill="#000000" transform="matrix(1.00, 0.00, -0.00, -1.00, 661.7, 56.0)">n</text><text xml:space="preserve" font-family="GillSans" font-size="45.0" fill="#000000" transform="matrix(1.00, 0.00, -0.00, -1.00, 684.2, 56.0)">e</text><text xml:space="preserve" font-family="GillSans" font-size="45.0" fill="#000000" transform="matrix(1.00, 0.00, -0.00, -1.00, 705.8, 56.0)">T</text><text xml:space="preserve" font-family="GillSans" font-size="45.0" fill="#000000" transform="matrix(1.00, 0.00, -0.00, -1.00, 727.4, 56.0)">r</text><text xml:space="preserve" font-family="GillSans" font-size="45.0" fill="#000000" transform="matrix(1.00, 0.00, -0.00, -1.00, 745.2, 56.0)">a</text><text xml:space="preserve" font-family="GillSans" font-size="45.0" fill="#000000" transform="matrix(1.00, 0.00, -0.00, -1.00, 764.4, 56.0)">n</text><text xml:space="preserve" font-family="GillSans" font-size="45.0" fill="#000000" transform="matrix(1.00, 0.00, -0.00, -1.00, 786.9, 56.0)">s</text><text xml:space="preserve" font-family="GillSans" font-size="45.0" fill="#000000" transform="matrix(1.00, 0.00, -0.00, -1.00, 804.2, 56.0)">l</text><text xml:space="preserve" font-family="GillSans" font-size="45.0" fill="#000000" transform="matrix(1.00, 0.00, -0.00, -1.00, 814.0, 56.0)">a</text><text xml:space="preserve" font-family="GillSans" font-size="45.0" fill="#000000" transform="matrix(1.00, 0.00, -0.00, -1.00, 833.2, 56.0)">t</text><text xml:space="preserve" font-family="GillSans" font-size="45.0" fill="#000000" transform="matrix(1.00, 0.00, -0.00, -1.00, 848.2, 56.0)">i</text><text xml:space="preserve" font-family="GillSans" font-size="45.0" fill="#000000" transform="matrix(1.00, 0.00, -0.00, -1.00, 858.1, 56.0)">o</text><text xml:space="preserve" font-family="GillSans" font-size="45.0" fill="#000000" transform="matrix(1.00, 0.00, -0.00, -1.00, 882.9, 56.0)">n</text><text xml:space="preserve" font-family="GillSans" font-size="45.0" fill="#000000" transform="matrix(1.00, 0.00, -0.00, -1.00, 905.4, 56.0)"> </text><text xml:space="preserve" font-family="GillSans" font-size="35.0" fill="#000000" transform="matrix(1.00, 0.00, -0.00, -1.00, 918.0, 56.0)">[</text><text xml:space="preserve" font-family="GillSans" font-size="35.0" fill="#000000" transform="matrix(1.00, 0.00, -0.00, -1.00, 929.7, 56.0)">B</text><text xml:space="preserve" font-family="GillSans" font-size="35.0" fill="#000000" transform="matrix(1.00, 0.00, -0.00, -1.00, 949.4, 56.0)">a</text><text xml:space="preserve" font-family="GillSans" font-size="35.0" fill="#000000" transform="matrix(1.00, 0.00, -0.00, -1.00, 964.3, 56.0)">h</text><text xml:space="preserve" font-family="GillSans" font-size="35.0" fill="#000000" transform="matrix(1.00, 0.00, -0.00, -1.00, 981.8, 56.0)">d</text><text xml:space="preserve" font-family="GillSans" font-size="35.0" fill="#000000" transform="matrix(1.00, 0.00, -0.00, -1.00, 999.6, 56.0)">a</text><text xml:space="preserve" font-family="GillSans" font-size="35.0" fill="#000000" transform="matrix(1.00, 0.00, -0.00, -1.00, 1014.6, 56.0)">n</text><text xml:space="preserve" font-family="GillSans" font-size="35.0" fill="#000000" transform="matrix(1.00, 0.00, -0.00, -1.00, 1032.1, 56.0)">a</text><text xml:space="preserve" font-family="GillSans" font-size="35.0" fill="#000000" transform="matrix(1.00, 0.00, -0.00, -1.00, 1047.0, 56.0)">u</text><text xml:space="preserve" font-family="GillSans" font-size="35.0" fill="#000000" transform="matrix(1.00, 0.00, -0.00, -1.00, 1064.5, 56.0)"> </text><text xml:space="preserve" font-family="GillSans" font-size="35.0" fill="#000000" transform="matrix(1.00, 0.00, -0.00, -1.00, 1074.2, 56.0)">2</text><text xml:space="preserve" font-family="GillSans" font-size="35.0" fill="#000000" transform="matrix(1.00, 0.00, -0.00, -1.00, 1091.7, 56.0)">0</text><text xml:space="preserve" font-family="GillSans" font-size="35.0" fill="#000000" transform="matrix(1.00, 0.00, -0.00, -1.00, 1109.2, 56.0)">1</text><text xml:space="preserve" font-family="GillSans" font-size="35.0" fill="#000000" transform="matrix(1.00, 0.00, -0.00, -1.00, 1126.7, 56.0)">5</text><text xml:space="preserve" font-family="GillSans" font-size="35.0" fill="#000000" transform="matrix(1.00, 0.00, -0.00, -1.00, 1144.2, 56.0)">]</text></g></g></g></svg>