<?xml version="1.0" encoding="UTF-8" standalone="no"?><svg xmlns="http://www.w3.org/2000/svg" xmlns:xlink="http://www.w3.org/1999/xlink" clip-rule="evenodd" stroke-miterlimit="4.00" viewBox="0 0 1656 142"><desc>SVG generated by Keynote</desc><defs></defs><g transform="matrix(1.00, 0.00, -0.00, -1.00, 0.0, 142.0)"><path d="M 14.3 140.2 L 1641.7 140.2 C 1645.5 140.2 1647.5 140.2 1649.5 139.6 C 1651.8 138.8 1653.5 137.0 1654.3 134.7 C 1655.0 132.7 1655.0 130.8 1655.0 126.9 L 1655.0 15.0 C 1655.0 11.2 1655.0 9.3 1654.3 7.3 C 1653.5 5.0 1651.8 3.2 1649.5 2.4 C 1647.5 1.8 1645.5 1.8 1641.7 1.8 L 14.3 1.8 C 10.5 1.8 8.5 1.8 6.5 2.4 C 4.2 3.2 2.5 5.0 1.7 7.3 C 1.0 9.3 1.0 11.2 1.0 15.1 L 1.0 127.0 C 1.0 130.8 1.0 132.7 1.7 134.7 C 2.5 137.0 4.2 138.8 6.5 139.6 C 8.5 140.2 10.5 140.2 14.3 140.2 Z M 14.3 140.2 " fill="#FEFFFF"></path><g><clipPath id="clip-10940"><path d="M -1.9 1.8 L 1657.9 1.8 L 1657.9 140.2 L -1.9 140.2 Z M -1.9 1.8 "></path></clipPath><g clip-path="url(#clip-10940)"><text xml:space="preserve" font-family="GillSans" font-size="33.8" fill="#000000" transform="matrix(1.00, 0.00, -0.00, -1.00, 51.0, 59.8)">•</text><text xml:space="preserve" font-family="GillSans" font-size="45.0" fill="#000000" transform="matrix(1.00, 0.00, -0.00, -1.00, 94.0, 56.0)">V</text><text xml:space="preserve" font-family="GillSans" font-size="45.0" fill="#000000" transform="matrix(1.00, 0.00, -0.00, -1.00, 121.2, 56.0)">i</text><text xml:space="preserve" font-family="GillSans" font-size="45.0" fill="#000000" transform="matrix(1.00, 0.00, -0.00, -1.00, 131.1, 56.0)">d</text><text xml:space="preserve" font-family="GillSans" font-size="45.0" fill="#000000" transform="matrix(1.00, 0.00, -0.00, -1.00, 154.0, 56.0)">e</text><text xml:space="preserve" font-family="GillSans" font-size="45.0" fill="#000000" transform="matrix(1.00, 0.00, -0.00, -1.00, 175.5, 56.0)">o</text><text xml:space="preserve" font-family="GillSans" font-size="45.0" fill="#000000" transform="matrix(1.00, 0.00, -0.00, -1.00, 200.4, 56.0)"> </text><text xml:space="preserve" font-family="GillSans" font-size="45.0" fill="#000000" transform="matrix(1.00, 0.00, -0.00, -1.00, 212.9, 56.0)">d</text><text xml:space="preserve" font-family="GillSans" font-size="45.0" fill="#000000" transform="matrix(1.00, 0.00, -0.00, -1.00, 235.8, 56.0)">e</text><text xml:space="preserve" font-family="GillSans" font-size="45.0" fill="#000000" transform="matrix(1.00, 0.00, -0.00, -1.00, 257.3, 56.0)">s</text><text xml:space="preserve" font-family="GillSans" font-size="45.0" fill="#000000" transform="matrix(1.00, 0.00, -0.00, -1.00, 274.6, 56.0)">c</text><text xml:space="preserve" font-family="GillSans" font-size="45.0" fill="#000000" transform="matrix(1.00, 0.00, -0.00, -1.00, 294.4, 56.0)">r</text><text xml:space="preserve" font-family="GillSans" font-size="45.0" fill="#000000" transform="matrix(1.00, 0.00, -0.00, -1.00, 312.2, 56.0)">i</text><text xml:space="preserve" font-family="GillSans" font-size="45.0" fill="#000000" transform="matrix(1.00, 0.00, -0.00, -1.00, 322.0, 56.0)">p</text><text xml:space="preserve" font-family="GillSans" font-size="45.0" fill="#000000" transform="matrix(1.00, 0.00, -0.00, -1.00, 344.5, 56.0)">t</text><text xml:space="preserve" font-family="GillSans" font-size="45.0" fill="#000000" transform="matrix(1.00, 0.00, -0.00, -1.00, 359.5, 56.0)">i</text><text xml:space="preserve" font-family="GillSans" font-size="45.0" fill="#000000" transform="matrix(1.00, 0.00, -0.00, -1.00, 369.4, 56.0)">o</text><text xml:space="preserve" font-family="GillSans" font-size="45.0" fill="#000000" transform="matrix(1.00, 0.00, -0.00, -1.00, 394.2, 56.0)">n</text><text xml:space="preserve" font-family="GillSans" font-size="45.0" fill="#000000" transform="matrix(1.00, 0.00, -0.00, -1.00, 416.7, 56.0)"> </text><text xml:space="preserve" font-family="GillSans" font-size="45.0" fill="#000000" transform="matrix(1.00, 0.00, -0.00, -1.00, 429.2, 56.0)">g</text><text xml:space="preserve" font-family="GillSans" font-size="45.0" fill="#000000" transform="matrix(1.00, 0.00, -0.00, -1.00, 448.4, 56.0)">e</text><text xml:space="preserve" font-family="GillSans" font-size="45.0" fill="#000000" transform="matrix(1.00, 0.00, -0.00, -1.00, 470.0, 56.0)">n</text><text xml:space="preserve" font-family="GillSans" font-size="45.0" fill="#000000" transform="matrix(1.00, 0.00, -0.00, -1.00, 492.5, 56.0)">e</text><text xml:space="preserve" font-family="GillSans" font-size="45.0" fill="#000000" transform="matrix(1.00, 0.00, -0.00, -1.00, 514.0, 56.0)">r</text><text xml:space="preserve" font-family="GillSans" font-size="45.0" fill="#000000" transform="matrix(1.00, 0.00, -0.00, -1.00, 531.8, 56.0)">a</text><text xml:space="preserve" font-family="GillSans" font-size="45.0" fill="#000000" transform="matrix(1.00, 0.00, -0.00, -1.00, 551.0, 56.0)">t</text><text xml:space="preserve" font-family="GillSans" font-size="45.0" fill="#000000" transform="matrix(1.00, 0.00, -0.00, -1.00, 566.0, 56.0)">i</text><text xml:space="preserve" font-family="GillSans" font-size="45.0" fill="#000000" transform="matrix(1.00, 0.00, -0.00, -1.00, 575.9, 56.0)">o</text><text xml:space="preserve" font-family="GillSans" font-size="45.0" fill="#000000" transform="matrix(1.00, 0.00, -0.00, -1.00, 600.7, 56.0)">n</text><text xml:space="preserve" font-family="GillSans" font-size="45.0" fill="#000000" transform="matrix(1.00, 0.00, -0.00, -1.00, 623.2, 56.0)"> </text><text xml:space="preserve" font-family="GillSans" font-size="35.0" fill="#000000" transform="matrix(1.00, 0.00, -0.00, -1.00, 635.8, 56.0)">[</text><text xml:space="preserve" font-family="GillSans" font-size="35.0" fill="#000000" transform="matrix(1.00, 0.00, -0.00, -1.00, 647.4, 56.0)">Y</text><text xml:space="preserve" font-family="GillSans" font-size="35.0" fill="#000000" transform="matrix(1.00, 0.00, -0.00, -1.00, 664.4, 56.0)">a</text><text xml:space="preserve" font-family="GillSans" font-size="35.0" fill="#000000" transform="matrix(1.00, 0.00, -0.00, -1.00, 679.3, 56.0)">o</text><text xml:space="preserve" font-family="GillSans" font-size="35.0" fill="#000000" transform="matrix(1.00, 0.00, -0.00, -1.00, 698.6, 56.0)"> </text><text xml:space="preserve" font-family="GillSans" font-size="35.0" fill="#000000" transform="matrix(1.00, 0.00, -0.00, -1.00, 708.3, 56.0)">2</text><text xml:space="preserve" font-family="GillSans" font-size="35.0" fill="#000000" transform="matrix(1.00, 0.00, -0.00, -1.00, 725.8, 56.0)">0</text><text xml:space="preserve" font-family="GillSans" font-size="35.0" fill="#000000" transform="matrix(1.00, 0.00, -0.00, -1.00, 743.3, 56.0)">1</text><text xml:space="preserve" font-family="GillSans" font-size="35.0" fill="#000000" transform="matrix(1.00, 0.00, -0.00, -1.00, 760.8, 56.0)">5</text><text xml:space="preserve" font-family="GillSans" font-size="35.0" fill="#000000" transform="matrix(1.00, 0.00, -0.00, -1.00, 778.3, 56.0)">]</text></g></g></g></svg>