<?xml version="1.0" encoding="UTF-8" standalone="no"?><svg xmlns="http://www.w3.org/2000/svg" xmlns:xlink="http://www.w3.org/1999/xlink" clip-rule="evenodd" stroke-miterlimit="4.00" viewBox="0 0 1656 142"><desc>SVG generated by Keynote</desc><defs></defs><g transform="matrix(1.00, 0.00, -0.00, -1.00, 0.0, 142.0)"><path d="M 14.3 140.2 L 1641.7 140.2 C 1645.5 140.2 1647.5 140.2 1649.5 139.6 C 1651.8 138.8 1653.5 137.0 1654.3 134.7 C 1655.0 132.7 1655.0 130.8 1655.0 126.9 L 1655.0 15.0 C 1655.0 11.2 1655.0 9.3 1654.3 7.3 C 1653.5 5.0 1651.8 3.2 1649.5 2.4 C 1647.5 1.8 1645.5 1.8 1641.7 1.8 L 14.3 1.8 C 10.5 1.8 8.5 1.8 6.5 2.4 C 4.2 3.2 2.5 5.0 1.7 7.3 C 1.0 9.3 1.0 11.2 1.0 15.1 L 1.0 127.0 C 1.0 130.8 1.0 132.7 1.7 134.7 C 2.5 137.0 4.2 138.8 6.5 139.6 C 8.5 140.2 10.5 140.2 14.3 140.2 Z M 14.3 140.2 " fill="#FEFFFF"></path><g><clipPath id="clip-10942"><path d="M -1.9 1.8 L 1657.9 1.8 L 1657.9 140.2 L -1.9 140.2 Z M -1.9 1.8 "></path></clipPath><g clip-path="url(#clip-10942)"><text xml:space="preserve" font-family="GillSans" font-size="33.8" fill="#000000" transform="matrix(1.00, 0.00, -0.00, -1.00, 51.0, 59.8)">•</text><text xml:space="preserve" font-family="GillSans" font-size="45.0" fill="#000000" transform="matrix(1.00, 0.00, -0.00, -1.00, 94.0, 56.0)">P</text><text xml:space="preserve" font-family="GillSans" font-size="45.0" fill="#000000" transform="matrix(1.00, 0.00, -0.00, -1.00, 115.8, 56.0)">o</text><text xml:space="preserve" font-family="GillSans" font-size="45.0" fill="#000000" transform="matrix(1.00, 0.00, -0.00, -1.00, 140.6, 56.0)">i</text><text xml:space="preserve" font-family="GillSans" font-size="45.0" fill="#000000" transform="matrix(1.00, 0.00, -0.00, -1.00, 150.5, 56.0)">n</text><text xml:space="preserve" font-family="GillSans" font-size="45.0" fill="#000000" transform="matrix(1.00, 0.00, -0.00, -1.00, 173.0, 56.0)">t</text><text xml:space="preserve" font-family="GillSans" font-size="45.0" fill="#000000" transform="matrix(1.00, 0.00, -0.00, -1.00, 188.0, 56.0)">e</text><text xml:space="preserve" font-family="GillSans" font-size="45.0" fill="#000000" transform="matrix(1.00, 0.00, -0.00, -1.00, 209.5, 56.0)">r</text><text xml:space="preserve" font-family="GillSans" font-size="45.0" fill="#000000" transform="matrix(1.00, 0.00, -0.00, -1.00, 227.4, 56.0)"> </text><text xml:space="preserve" font-family="GillSans" font-size="45.0" fill="#000000" transform="matrix(1.00, 0.00, -0.00, -1.00, 239.9, 56.0)">N</text><text xml:space="preserve" font-family="GillSans" font-size="45.0" fill="#000000" transform="matrix(1.00, 0.00, -0.00, -1.00, 275.0, 56.0)">e</text><text xml:space="preserve" font-family="GillSans" font-size="45.0" fill="#000000" transform="matrix(1.00, 0.00, -0.00, -1.00, 296.5, 56.0)">t</text><text xml:space="preserve" font-family="GillSans" font-size="45.0" fill="#000000" transform="matrix(1.00, 0.00, -0.00, -1.00, 311.5, 56.0)">w</text><text xml:space="preserve" font-family="GillSans" font-size="45.0" fill="#000000" transform="matrix(1.00, 0.00, -0.00, -1.00, 343.0, 56.0)">o</text><text xml:space="preserve" font-family="GillSans" font-size="45.0" fill="#000000" transform="matrix(1.00, 0.00, -0.00, -1.00, 367.8, 56.0)">r</text><text xml:space="preserve" font-family="GillSans" font-size="45.0" fill="#000000" transform="matrix(1.00, 0.00, -0.00, -1.00, 385.6, 56.0)">k</text><text xml:space="preserve" font-family="GillSans" font-size="45.0" fill="#000000" transform="matrix(1.00, 0.00, -0.00, -1.00, 407.2, 56.0)">:</text><text xml:space="preserve" font-family="GillSans" font-size="45.0" fill="#000000" transform="matrix(1.00, 0.00, -0.00, -1.00, 412.6, 56.0)"> </text><text xml:space="preserve" font-family="GillSans" font-size="45.0" fill="#000000" transform="matrix(1.00, 0.00, -0.00, -1.00, 425.1, 56.0)">a</text><text xml:space="preserve" font-family="GillSans" font-size="45.0" fill="#000000" transform="matrix(1.00, 0.00, -0.00, -1.00, 444.3, 56.0)">t</text><text xml:space="preserve" font-family="GillSans" font-size="45.0" fill="#000000" transform="matrix(1.00, 0.00, -0.00, -1.00, 459.2, 56.0)">t</text><text xml:space="preserve" font-family="GillSans" font-size="45.0" fill="#000000" transform="matrix(1.00, 0.00, -0.00, -1.00, 474.2, 56.0)">e</text><text xml:space="preserve" font-family="GillSans" font-size="45.0" fill="#000000" transform="matrix(1.00, 0.00, -0.00, -1.00, 495.8, 56.0)">n</text><text xml:space="preserve" font-family="GillSans" font-size="45.0" fill="#000000" transform="matrix(1.00, 0.00, -0.00, -1.00, 518.3, 56.0)">t</text><text xml:space="preserve" font-family="GillSans" font-size="45.0" fill="#000000" transform="matrix(1.00, 0.00, -0.00, -1.00, 533.3, 56.0)">i</text><text xml:space="preserve" font-family="GillSans" font-size="45.0" fill="#000000" transform="matrix(1.00, 0.00, -0.00, -1.00, 543.1, 56.0)">o</text><text xml:space="preserve" font-family="GillSans" font-size="45.0" fill="#000000" transform="matrix(1.00, 0.00, -0.00, -1.00, 568.0, 56.0)">n</text><text xml:space="preserve" font-family="GillSans" font-size="45.0" fill="#000000" transform="matrix(1.00, 0.00, -0.00, -1.00, 590.5, 56.0)"> </text><text xml:space="preserve" font-family="GillSans" font-size="45.0" fill="#000000" transform="matrix(1.00, 0.00, -0.00, -1.00, 603.0, 56.0)">a</text><text xml:space="preserve" font-family="GillSans" font-size="45.0" fill="#000000" transform="matrix(1.00, 0.00, -0.00, -1.00, 622.1, 56.0)">s</text><text xml:space="preserve" font-family="GillSans" font-size="45.0" fill="#000000" transform="matrix(1.00, 0.00, -0.00, -1.00, 639.5, 56.0)"> </text><text xml:space="preserve" font-family="GillSans" font-size="45.0" fill="#000000" transform="matrix(1.00, 0.00, -0.00, -1.00, 651.9, 56.0)">a</text><text xml:space="preserve" font-family="GillSans" font-size="45.0" fill="#000000" transform="matrix(1.00, 0.00, -0.00, -1.00, 671.1, 56.0)">n</text><text xml:space="preserve" font-family="GillSans" font-size="45.0" fill="#000000" transform="matrix(1.00, 0.00, -0.00, -1.00, 693.6, 56.0)"> </text><text xml:space="preserve" font-family="GillSans" font-size="45.0" fill="#000000" transform="matrix(1.00, 0.00, -0.00, -1.00, 706.1, 56.0)">o</text><text xml:space="preserve" font-family="GillSans" font-size="45.0" fill="#000000" transform="matrix(1.00, 0.00, -0.00, -1.00, 731.0, 56.0)">u</text><text xml:space="preserve" font-family="GillSans" font-size="45.0" fill="#000000" transform="matrix(1.00, 0.00, -0.00, -1.00, 753.5, 56.0)">t</text><text xml:space="preserve" font-family="GillSans" font-size="45.0" fill="#000000" transform="matrix(1.00, 0.00, -0.00, -1.00, 768.4, 56.0)">p</text><text xml:space="preserve" font-family="GillSans" font-size="45.0" fill="#000000" transform="matrix(1.00, 0.00, -0.00, -1.00, 790.9, 56.0)">u</text><text xml:space="preserve" font-family="GillSans" font-size="45.0" fill="#000000" transform="matrix(1.00, 0.00, -0.00, -1.00, 813.4, 56.0)">t</text><text xml:space="preserve" font-family="GillSans" font-size="45.0" fill="#000000" transform="matrix(1.00, 0.00, -0.00, -1.00, 828.4, 56.0)"> </text><text xml:space="preserve" font-family="GillSans" font-size="35.0" fill="#000000" transform="matrix(1.00, 0.00, -0.00, -1.00, 841.0, 56.0)">[</text><text xml:space="preserve" font-family="GillSans" font-size="35.0" fill="#000000" transform="matrix(1.00, 0.00, -0.00, -1.00, 852.7, 56.0)">V</text><text xml:space="preserve" font-family="GillSans" font-size="35.0" fill="#000000" transform="matrix(1.00, 0.00, -0.00, -1.00, 873.8, 56.0)">i</text><text xml:space="preserve" font-family="GillSans" font-size="35.0" fill="#000000" transform="matrix(1.00, 0.00, -0.00, -1.00, 881.5, 56.0)">n</text><text xml:space="preserve" font-family="GillSans" font-size="35.0" fill="#000000" transform="matrix(1.00, 0.00, -0.00, -1.00, 898.3, 56.0)">y</text><text xml:space="preserve" font-family="GillSans" font-size="35.0" fill="#000000" transform="matrix(1.00, 0.00, -0.00, -1.00, 913.6, 56.0)">a</text><text xml:space="preserve" font-family="GillSans" font-size="35.0" fill="#000000" transform="matrix(1.00, 0.00, -0.00, -1.00, 928.6, 56.0)">l</text><text xml:space="preserve" font-family="GillSans" font-size="35.0" fill="#000000" transform="matrix(1.00, 0.00, -0.00, -1.00, 936.2, 56.0)">s</text><text xml:space="preserve" font-family="GillSans" font-size="35.0" fill="#000000" transform="matrix(1.00, 0.00, -0.00, -1.00, 949.7, 56.0)"> </text><text xml:space="preserve" font-family="GillSans" font-size="35.0" fill="#000000" transform="matrix(1.00, 0.00, -0.00, -1.00, 959.4, 56.0)">2</text><text xml:space="preserve" font-family="GillSans" font-size="35.0" fill="#000000" transform="matrix(1.00, 0.00, -0.00, -1.00, 976.9, 56.0)">0</text><text xml:space="preserve" font-family="GillSans" font-size="35.0" fill="#000000" transform="matrix(1.00, 0.00, -0.00, -1.00, 994.4, 56.0)">1</text><text xml:space="preserve" font-family="GillSans" font-size="35.0" fill="#000000" transform="matrix(1.00, 0.00, -0.00, -1.00, 1011.9, 56.0)">5</text><text xml:space="preserve" font-family="GillSans" font-size="35.0" fill="#000000" transform="matrix(1.00, 0.00, -0.00, -1.00, 1029.4, 56.0)">]</text></g></g></g></svg>