<?xml version="1.0" encoding="UTF-8" standalone="no"?><svg xmlns="http://www.w3.org/2000/svg" xmlns:xlink="http://www.w3.org/1999/xlink" clip-rule="evenodd" stroke-miterlimit="4.00" viewBox="0 0 1656 142"><desc>SVG generated by Keynote</desc><defs></defs><g transform="matrix(1.00, 0.00, -0.00, -1.00, 0.0, 142.0)"><path d="M 14.3 140.1 L 1641.7 140.1 C 1645.5 140.1 1647.5 140.1 1649.5 139.5 C 1651.8 138.7 1653.5 136.9 1654.3 134.7 C 1655.0 132.6 1655.0 130.7 1655.0 126.8 L 1655.0 15.0 C 1655.0 11.2 1655.0 9.2 1654.3 7.2 C 1653.5 4.9 1651.8 3.2 1649.5 2.3 C 1647.5 1.7 1645.5 1.7 1641.7 1.7 L 14.3 1.7 C 10.5 1.7 8.5 1.7 6.5 2.3 C 4.2 3.2 2.5 4.9 1.7 7.2 C 1.0 9.2 1.0 11.2 1.0 15.0 L 1.0 126.9 C 1.0 130.7 1.0 132.6 1.7 134.7 C 2.5 136.9 4.2 138.7 6.5 139.5 C 8.5 140.1 10.5 140.1 14.3 140.1 Z M 14.3 140.1 " fill="#FEFFFF"></path><g><clipPath id="clip-10790"><path d="M -1.9 1.7 L 1657.9 1.7 L 1657.9 140.1 L -1.9 140.1 Z M -1.9 1.7 "></path></clipPath><g clip-path="url(#clip-10790)"><text xml:space="preserve" font-family="GillSans" font-size="33.8" fill="#000000" transform="matrix(1.00, 0.00, -0.00, -1.00, 51.0, 84.6)">•</text><text xml:space="preserve" font-family="GillSans" font-size="45.0" fill="#000000" transform="matrix(1.00, 0.00, -0.00, -1.00, 94.0, 81.0)">I</text><text xml:space="preserve" font-family="GillSans" font-size="45.0" fill="#000000" transform="matrix(1.00, 0.00, -0.00, -1.00, 105.2, 81.0)">m</text><text xml:space="preserve" font-family="GillSans" font-size="45.0" fill="#000000" transform="matrix(1.00, 0.00, -0.00, -1.00, 139.9, 81.0)">p</text><text xml:space="preserve" font-family="GillSans" font-size="45.0" fill="#000000" transform="matrix(1.00, 0.00, -0.00, -1.00, 162.4, 81.0)">l</text><text xml:space="preserve" font-family="GillSans" font-size="45.0" fill="#000000" transform="matrix(1.00, 0.00, -0.00, -1.00, 172.3, 81.0)">i</text><text xml:space="preserve" font-family="GillSans" font-size="45.0" fill="#000000" transform="matrix(1.00, 0.00, -0.00, -1.00, 182.2, 81.0)">c</text><text xml:space="preserve" font-family="GillSans" font-size="45.0" fill="#000000" transform="matrix(1.00, 0.00, -0.00, -1.00, 201.9, 81.0)">i</text><text xml:space="preserve" font-family="GillSans" font-size="45.0" fill="#000000" transform="matrix(1.00, 0.00, -0.00, -1.00, 211.8, 81.0)">t</text><text xml:space="preserve" font-family="GillSans" font-size="45.0" fill="#000000" transform="matrix(1.00, 0.00, -0.00, -1.00, 226.8, 81.0)"> </text><text xml:space="preserve" font-family="GillSans" font-size="45.0" fill="#000000" transform="matrix(1.00, 0.00, -0.00, -1.00, 239.3, 81.0)">I</text><text xml:space="preserve" font-family="GillSans" font-size="45.0" fill="#000000" transform="matrix(1.00, 0.00, -0.00, -1.00, 250.5, 81.0)">n</text><text xml:space="preserve" font-family="GillSans" font-size="45.0" fill="#000000" transform="matrix(1.00, 0.00, -0.00, -1.00, 273.0, 81.0)">t</text><text xml:space="preserve" font-family="GillSans" font-size="45.0" fill="#000000" transform="matrix(1.00, 0.00, -0.00, -1.00, 288.0, 81.0)">e</text><text xml:space="preserve" font-family="GillSans" font-size="45.0" fill="#000000" transform="matrix(1.00, 0.00, -0.00, -1.00, 309.5, 81.0)">r</text><text xml:space="preserve" font-family="GillSans" font-size="45.0" fill="#000000" transform="matrix(1.00, 0.00, -0.00, -1.00, 327.4, 81.0)">n</text><text xml:space="preserve" font-family="GillSans" font-size="45.0" fill="#000000" transform="matrix(1.00, 0.00, -0.00, -1.00, 349.9, 81.0)">a</text><text xml:space="preserve" font-family="GillSans" font-size="45.0" fill="#000000" transform="matrix(1.00, 0.00, -0.00, -1.00, 369.1, 81.0)">l</text><text xml:space="preserve" font-family="GillSans" font-size="45.0" fill="#000000" transform="matrix(1.00, 0.00, -0.00, -1.00, 378.9, 81.0)"> </text><text xml:space="preserve" font-family="GillSans" font-size="45.0" fill="#000000" transform="matrix(1.00, 0.00, -0.00, -1.00, 391.4, 81.0)">m</text><text xml:space="preserve" font-family="GillSans" font-size="45.0" fill="#000000" transform="matrix(1.00, 0.00, -0.00, -1.00, 426.1, 81.0)">e</text><text xml:space="preserve" font-family="GillSans" font-size="45.0" fill="#000000" transform="matrix(1.00, 0.00, -0.00, -1.00, 447.7, 81.0)">m</text><text xml:space="preserve" font-family="GillSans" font-size="45.0" fill="#000000" transform="matrix(1.00, 0.00, -0.00, -1.00, 482.4, 81.0)">o</text><text xml:space="preserve" font-family="GillSans" font-size="45.0" fill="#000000" transform="matrix(1.00, 0.00, -0.00, -1.00, 507.2, 81.0)">r</text><text xml:space="preserve" font-family="GillSans" font-size="45.0" fill="#000000" transform="matrix(1.00, 0.00, -0.00, -1.00, 526.4, 81.0)">y</text><text xml:space="preserve" font-family="GillSans" font-size="26.2" fill="#000000" transform="matrix(1.00, 0.00, -0.00, -1.00, 101.0, 31.9)">-</text><text xml:space="preserve" font-family="GillSans" font-size="35.0" fill="#000000" transform="matrix(1.00, 0.00, -0.00, -1.00, 144.0, 29.0)">R</text><text xml:space="preserve" font-family="GillSans" font-size="35.0" fill="#000000" transform="matrix(1.00, 0.00, -0.00, -1.00, 165.1, 29.0)">N</text><text xml:space="preserve" font-family="GillSans" font-size="35.0" fill="#000000" transform="matrix(1.00, 0.00, -0.00, -1.00, 192.5, 29.0)">N</text><text xml:space="preserve" font-family="GillSans" font-size="35.0" fill="#000000" transform="matrix(1.00, 0.00, -0.00, -1.00, 219.8, 29.0)">,</text><text xml:space="preserve" font-family="GillSans" font-size="35.0" fill="#000000" transform="matrix(1.00, 0.00, -0.00, -1.00, 224.0, 29.0)"> </text><text xml:space="preserve" font-family="GillSans" font-size="35.0" fill="#000000" transform="matrix(1.00, 0.00, -0.00, -1.00, 233.7, 29.0)">L</text><text xml:space="preserve" font-family="GillSans" font-size="35.0" fill="#000000" transform="matrix(1.00, 0.00, -0.00, -1.00, 250.8, 29.0)">S</text><text xml:space="preserve" font-family="GillSans" font-size="35.0" fill="#000000" transform="matrix(1.00, 0.00, -0.00, -1.00, 266.9, 29.0)">T</text><text xml:space="preserve" font-family="GillSans" font-size="35.0" fill="#000000" transform="matrix(1.00, 0.00, -0.00, -1.00, 288.0, 29.0)">M</text><text xml:space="preserve" font-family="GillSans" font-size="35.0" fill="#000000" transform="matrix(1.00, 0.00, -0.00, -1.00, 315.3, 29.0)"> </text></g></g></g></svg>