<?xml version="1.0" encoding="UTF-8" standalone="no"?><svg xmlns="http://www.w3.org/2000/svg" xmlns:xlink="http://www.w3.org/1999/xlink" clip-rule="evenodd" stroke-miterlimit="4.00" viewBox="0 0 1920 1080"><desc>SVG generated by Keynote</desc><defs></defs><g transform="matrix(1.00, 0.00, -0.00, -1.00, 0.0, 1080.0)"><path d="M 0.0 1080.0 L 1920.0 1080.0 L 1920.0 0.0 L 0.0 0.0 Z M 0.0 1080.0 " fill="#FEFFFF"></path><text xml:space="preserve" font-family="GillSans" font-size="112.0" fill="#000000" transform="matrix(1.00, 0.00, -0.00, -1.00, 748.0, 876.0)">S</text><text xml:space="preserve" font-family="GillSans" font-size="112.0" fill="#000000" transform="matrix(1.00, 0.00, -0.00, -1.00, 799.3, 876.0)">u</text><text xml:space="preserve" font-family="GillSans" font-size="112.0" fill="#000000" transform="matrix(1.00, 0.00, -0.00, -1.00, 855.3, 876.0)">m</text><text xml:space="preserve" font-family="GillSans" font-size="112.0" fill="#000000" transform="matrix(1.00, 0.00, -0.00, -1.00, 941.6, 876.0)">m</text><text xml:space="preserve" font-family="GillSans" font-size="112.0" fill="#000000" transform="matrix(1.00, 0.00, -0.00, -1.00, 1028.0, 876.0)">a</text><text xml:space="preserve" font-family="GillSans" font-size="112.0" fill="#000000" transform="matrix(1.00, 0.00, -0.00, -1.00, 1075.8, 876.0)">r</text><text xml:space="preserve" font-family="GillSans" font-size="112.0" fill="#000000" transform="matrix(1.00, 0.00, -0.00, -1.00, 1123.5, 876.0)">y</text><g><clipPath id="clip-4664"><path d="M 112.0 707.1 L 618.4 707.1 L 618.4 774.4 L 112.0 774.4 Z M 112.0 707.1 "></path></clipPath><g clip-path="url(#clip-4664)"><image xlink:href="42FB3DA71C466B711BE82E1070565B83.png" width="504.00" height="65.00" transform="matrix(1.00, 0.00, -0.00, -1.00, 113.0, 773.4)" opacity="0.50"></image><path d="M 125.8 772.4 L 604.6 772.4 C 607.4 772.4 608.9 772.4 610.4 771.9 C 612.0 771.3 613.4 770.0 614.0 768.3 C 614.4 766.8 614.4 765.4 614.4 762.5 L 614.4 723.0 C 614.4 720.1 614.4 718.7 614.0 717.2 C 613.4 715.5 612.0 714.2 610.4 713.6 C 608.9 713.1 607.4 713.1 604.6 713.1 L 125.8 713.1 C 123.0 713.1 121.5 713.1 120.0 713.6 C 118.4 714.2 117.1 715.5 116.4 717.2 C 116.0 718.7 116.0 720.1 116.0 723.0 L 116.0 762.6 C 116.0 765.4 116.0 766.8 116.4 768.3 C 117.1 770.0 118.4 771.3 120.0 771.9 C 121.5 772.4 123.0 772.4 125.8 772.4 Z M 125.8 772.4 " fill="#DCDDE0"></path></g></g><g><clipPath id="clip-4665"><path d="M 367.8 716.1 L 486.4 716.1 L 486.4 765.4 L 367.8 765.4 Z M 367.8 716.1 "></path></clipPath><g clip-path="url(#clip-4665)"><image xlink:href="C56A550AA0F9FF78F3C51480D8339971.png" width="117.00" height="47.00" transform="matrix(1.00, 0.00, -0.00, -1.01, 368.8, 764.4)" opacity="0.50"></image></g></g><g><clipPath id="clip-4666"><path d="M 381.3 763.4 L 473.0 763.4 C 475.7 763.4 477.0 763.4 478.5 763.0 C 480.1 762.4 481.4 761.1 482.0 759.5 C 482.4 758.0 482.4 756.7 482.4 753.9 L 482.4 731.6 C 482.4 728.9 482.4 727.5 482.0 726.0 C 481.4 724.4 480.1 723.1 478.5 722.6 C 477.0 722.1 475.7 722.1 472.9 722.1 L 381.3 722.1 C 378.6 722.1 377.2 722.1 375.8 722.6 C 374.2 723.1 372.9 724.4 372.3 726.0 C 371.8 727.5 371.8 728.9 371.8 731.6 L 371.8 753.9 C 371.8 756.7 371.8 758.0 372.3 759.5 C 372.9 761.1 374.2 762.4 375.8 763.0 C 377.2 763.4 378.6 763.4 381.4 763.4 Z M 381.3 763.4 "></path></clipPath><g clip-path="url(#clip-4666)"><g><clipPath id="clip-4667"><path d="M 367.8 716.1 L 486.4 716.1 L 486.4 765.4 L 367.8 765.4 Z M 367.8 716.1 "></path></clipPath><g clip-path="url(#clip-4667)"><image xlink:href="D5BAA0E7A80E113D25EB92D00157B4C8.jpeg" width="300.00" height="300.00" transform="matrix(1.00, 0.00, -0.00, -1.00, 371.8, 763.4)"></image><path d="M 371.8 763.4 L 482.4 763.4 L 482.4 722.1 L 371.8 722.1 Z M 371.8 763.4 " fill="#00D026" fill-opacity="0.50"></path></g></g></g></g><g><clipPath id="clip-4668"><path d="M 369.9 722.1 L 484.4 722.1 L 484.4 763.4 L 369.9 763.4 Z M 369.9 722.1 "></path></clipPath><g clip-path="url(#clip-4668)"><text xml:space="preserve" font-family="GillSans-SemiBold" font-weight="bold" font-size="20.0" fill="#FEFFFE" transform="matrix(1.00, 0.00, -0.00, -1.00, 398.0, 736.0)">A</text><text xml:space="preserve" font-family="GillSans-SemiBold" font-weight="bold" font-size="20.0" fill="#FEFFFE" transform="matrix(1.00, 0.00, -0.00, -1.00, 412.5, 736.0)">c</text><text xml:space="preserve" font-family="GillSans-SemiBold" font-weight="bold" font-size="20.0" fill="#FEFFFE" transform="matrix(1.00, 0.00, -0.00, -1.00, 421.8, 736.0)">t</text><text xml:space="preserve" font-family="GillSans-SemiBold" font-weight="bold" font-size="20.0" fill="#FEFFFE" transform="matrix(1.00, 0.00, -0.00, -1.00, 429.1, 736.0)">i</text><text xml:space="preserve" font-family="GillSans-SemiBold" font-weight="bold" font-size="20.0" fill="#FEFFFE" transform="matrix(1.00, 0.00, -0.00, -1.00, 434.1, 736.0)">o</text><text xml:space="preserve" font-family="GillSans-SemiBold" font-weight="bold" font-size="20.0" fill="#FEFFFE" transform="matrix(1.00, 0.00, -0.00, -1.00, 445.6, 736.0)">n</text></g></g><g><clipPath id="clip-4669"><path d="M 120.3 716.1 L 238.9 716.1 L 238.9 765.4 L 120.3 765.4 Z M 120.3 716.1 "></path></clipPath><g clip-path="url(#clip-4669)"><image xlink:href="../../FDFB80FF-6364-4B8F-8831-ED6B4240AA11/assets/C56A550AA0F9FF78F3C51480D8339971.png" width="117.00" height="47.00" transform="matrix(1.00, 0.00, -0.00, -1.01, 121.3, 764.4)" opacity="0.50"></image></g></g><g><clipPath id="clip-4670"><path d="M 133.8 763.4 L 225.4 763.4 C 228.1 763.4 229.5 763.4 231.0 763.0 C 232.6 762.4 233.9 761.1 234.4 759.5 C 234.9 758.0 234.9 756.7 234.9 753.9 L 234.9 731.6 C 234.9 728.9 234.9 727.5 234.4 726.0 C 233.9 724.4 232.6 723.1 231.0 722.6 C 229.5 722.1 228.1 722.1 225.4 722.1 L 133.8 722.1 C 131.1 722.1 129.7 722.1 128.2 722.6 C 126.6 723.1 125.4 724.4 124.8 726.0 C 124.3 727.5 124.3 728.9 124.3 731.6 L 124.3 753.9 C 124.3 756.7 124.3 758.0 124.8 759.5 C 125.4 761.1 126.6 762.4 128.2 763.0 C 129.7 763.4 131.1 763.4 133.8 763.4 Z M 133.8 763.4 "></path></clipPath><g clip-path="url(#clip-4670)"><g><clipPath id="clip-4671"><path d="M 120.3 716.1 L 238.9 716.1 L 238.9 765.4 L 120.3 765.4 Z M 120.3 716.1 "></path></clipPath><g clip-path="url(#clip-4671)"><image xlink:href="../../FDFB80FF-6364-4B8F-8831-ED6B4240AA11/assets/D5BAA0E7A80E113D25EB92D00157B4C8.jpeg" width="300.00" height="300.00" transform="matrix(1.00, 0.00, -0.00, -1.00, 124.3, 763.4)"></image><path d="M 124.3 763.4 L 234.9 763.4 L 234.9 722.1 L 124.3 722.1 Z M 124.3 763.4 " fill="#009BFC" fill-opacity="0.50"></path></g></g></g></g><g><clipPath id="clip-4672"><path d="M 122.4 722.1 L 236.8 722.1 L 236.8 763.4 L 122.4 763.4 Z M 122.4 722.1 "></path></clipPath><g clip-path="url(#clip-4672)"><text xml:space="preserve" font-family="GillSans-SemiBold" font-weight="bold" font-size="20.0" fill="#FEFFFE" transform="matrix(1.00, 0.00, -0.00, -1.00, 157.0, 736.0)">I</text><text xml:space="preserve" font-family="GillSans-SemiBold" font-weight="bold" font-size="20.0" fill="#FEFFFE" transform="matrix(1.00, 0.00, -0.00, -1.00, 162.8, 736.0)">n</text><text xml:space="preserve" font-family="GillSans-SemiBold" font-weight="bold" font-size="20.0" fill="#FEFFFE" transform="matrix(1.00, 0.00, -0.00, -1.00, 173.6, 736.0)">p</text><text xml:space="preserve" font-family="GillSans-SemiBold" font-weight="bold" font-size="20.0" fill="#FEFFFE" transform="matrix(1.00, 0.00, -0.00, -1.00, 184.5, 736.0)">u</text><text xml:space="preserve" font-family="GillSans-SemiBold" font-weight="bold" font-size="20.0" fill="#FEFFFE" transform="matrix(1.00, 0.00, -0.00, -1.00, 195.3, 736.0)">t</text></g></g><g><clipPath id="clip-4673"><path d="M 491.6 716.1 L 610.2 716.1 L 610.2 765.4 L 491.6 765.4 Z M 491.6 716.1 "></path></clipPath><g clip-path="url(#clip-4673)"><image xlink:href="../../FDFB80FF-6364-4B8F-8831-ED6B4240AA11/assets/C56A550AA0F9FF78F3C51480D8339971.png" width="117.00" height="47.00" transform="matrix(1.00, 0.00, -0.00, -1.01, 492.6, 764.4)" opacity="0.50"></image></g></g><g><clipPath id="clip-4674"><path d="M 505.1 763.4 L 596.7 763.4 C 599.4 763.4 600.8 763.4 602.3 763.0 C 603.9 762.4 605.1 761.1 605.7 759.5 C 606.2 758.0 606.2 756.7 606.2 753.9 L 606.2 731.6 C 606.2 728.9 606.2 727.5 605.7 726.0 C 605.1 724.4 603.9 723.1 602.3 722.6 C 600.8 722.1 599.4 722.1 596.7 722.1 L 505.1 722.1 C 502.4 722.1 501.0 722.1 499.5 722.6 C 497.9 723.1 496.7 724.4 496.1 726.0 C 495.6 727.5 495.6 728.9 495.6 731.6 L 495.6 753.9 C 495.6 756.7 495.6 758.0 496.1 759.5 C 496.7 761.1 497.9 762.4 499.5 763.0 C 501.0 763.4 502.4 763.4 505.1 763.4 Z M 505.1 763.4 "></path></clipPath><g clip-path="url(#clip-4674)"><g><clipPath id="clip-4675"><path d="M 491.6 716.1 L 610.2 716.1 L 610.2 765.4 L 491.6 765.4 Z M 491.6 716.1 "></path></clipPath><g clip-path="url(#clip-4675)"><image xlink:href="../../FDFB80FF-6364-4B8F-8831-ED6B4240AA11/assets/D5BAA0E7A80E113D25EB92D00157B4C8.jpeg" width="300.00" height="300.00" transform="matrix(1.00, 0.00, -0.00, -1.00, 495.6, 763.4)"></image><path d="M 495.6 763.4 L 606.2 763.4 L 606.2 722.1 L 495.6 722.1 Z M 495.6 763.4 " fill="#FF2A05" fill-opacity="0.50"></path></g></g></g></g><g><clipPath id="clip-4676"><path d="M 493.7 722.1 L 608.1 722.1 L 608.1 763.4 L 493.7 763.4 Z M 493.7 722.1 "></path></clipPath><g clip-path="url(#clip-4676)"><text xml:space="preserve" font-family="GillSans-SemiBold" font-weight="bold" font-size="20.0" fill="#FEFFFE" transform="matrix(1.00, 0.00, -0.00, -1.00, 519.0, 736.0)">O</text><text xml:space="preserve" font-family="GillSans-SemiBold" font-weight="bold" font-size="20.0" fill="#FEFFFE" transform="matrix(1.00, 0.00, -0.00, -1.00, 536.0, 736.0)">u</text><text xml:space="preserve" font-family="GillSans-SemiBold" font-weight="bold" font-size="20.0" fill="#FEFFFE" transform="matrix(1.00, 0.00, -0.00, -1.00, 546.8, 736.0)">t</text><text xml:space="preserve" font-family="GillSans-SemiBold" font-weight="bold" font-size="20.0" fill="#FEFFFE" transform="matrix(1.00, 0.00, -0.00, -1.00, 554.2, 736.0)">p</text><text xml:space="preserve" font-family="GillSans-SemiBold" font-weight="bold" font-size="20.0" fill="#FEFFFE" transform="matrix(1.00, 0.00, -0.00, -1.00, 565.1, 736.0)">u</text><text xml:space="preserve" font-family="GillSans-SemiBold" font-weight="bold" font-size="20.0" fill="#FEFFFE" transform="matrix(1.00, 0.00, -0.00, -1.00, 575.9, 736.0)">t</text></g></g><g><clipPath id="clip-4677"><path d="M 244.1 716.1 L 362.7 716.1 L 362.7 765.4 L 244.1 765.4 Z M 244.1 716.1 "></path></clipPath><g clip-path="url(#clip-4677)"><image xlink:href="../../FDFB80FF-6364-4B8F-8831-ED6B4240AA11/assets/C56A550AA0F9FF78F3C51480D8339971.png" width="117.00" height="47.00" transform="matrix(1.00, 0.00, -0.00, -1.01, 245.1, 764.4)" opacity="0.50"></image></g></g><g><clipPath id="clip-4678"><path d="M 257.6 763.4 L 349.2 763.4 C 351.9 763.4 353.3 763.4 354.7 763.0 C 356.4 762.4 357.6 761.1 358.2 759.5 C 358.7 758.0 358.7 756.7 358.7 753.9 L 358.7 731.6 C 358.7 728.9 358.7 727.5 358.2 726.0 C 357.6 724.4 356.4 723.1 354.7 722.6 C 353.3 722.1 351.9 722.1 349.1 722.1 L 257.6 722.1 C 254.8 722.1 253.5 722.1 252.0 722.6 C 250.4 723.1 249.1 724.4 248.5 726.0 C 248.1 727.5 248.1 728.9 248.1 731.6 L 248.1 753.9 C 248.1 756.7 248.1 758.0 248.5 759.5 C 249.1 761.1 250.4 762.4 252.0 763.0 C 253.5 763.4 254.8 763.4 257.6 763.4 Z M 257.6 763.4 "></path></clipPath><g clip-path="url(#clip-4678)"><g><clipPath id="clip-4679"><path d="M 244.1 716.1 L 362.7 716.1 L 362.7 765.4 L 244.1 765.4 Z M 244.1 716.1 "></path></clipPath><g clip-path="url(#clip-4679)"><image xlink:href="82235AF7F54A50D3E98B46DAE150A7DA.jpeg" width="300.00" height="300.00" transform="matrix(1.00, 0.00, -0.00, -1.00, 248.1, 763.4)"></image><path d="M 248.1 763.4 L 358.7 763.4 L 358.7 722.1 L 248.1 722.1 Z M 248.1 763.4 " fill="#FFE02A" fill-opacity="0.52"></path></g></g></g></g><g><clipPath id="clip-4680"><path d="M 246.1 722.1 L 360.6 722.1 L 360.6 763.4 L 246.1 763.4 Z M 246.1 722.1 "></path></clipPath><g clip-path="url(#clip-4680)"><text xml:space="preserve" font-family="GillSans-SemiBold" font-weight="bold" font-size="20.0" fill="#FEFFFE" transform="matrix(1.00, 0.00, -0.00, -1.00, 270.0, 736.0)">E</text><text xml:space="preserve" font-family="GillSans-SemiBold" font-weight="bold" font-size="20.0" fill="#FEFFFE" transform="matrix(1.00, 0.00, -0.00, -1.00, 281.4, 736.0)">n</text><text xml:space="preserve" font-family="GillSans-SemiBold" font-weight="bold" font-size="20.0" fill="#FEFFFE" transform="matrix(1.00, 0.00, -0.00, -1.00, 292.2, 736.0)">a</text><text xml:space="preserve" font-family="GillSans-SemiBold" font-weight="bold" font-size="20.0" fill="#FEFFFE" transform="matrix(1.00, 0.00, -0.00, -1.00, 301.9, 736.0)">b</text><text xml:space="preserve" font-family="GillSans-SemiBold" font-weight="bold" font-size="20.0" fill="#FEFFFE" transform="matrix(1.00, 0.00, -0.00, -1.00, 312.9, 736.0)">l</text><text xml:space="preserve" font-family="GillSans-SemiBold" font-weight="bold" font-size="20.0" fill="#FEFFFE" transform="matrix(1.00, 0.00, -0.00, -1.00, 317.8, 736.0)">e</text><text xml:space="preserve" font-family="GillSans-SemiBold" font-weight="bold" font-size="20.0" fill="#FEFFFE" transform="matrix(1.00, 0.00, -0.00, -1.00, 328.1, 736.0)">r</text></g></g><text xml:space="preserve" font-family="GillSans" font-size="40.0" fill="#000000" transform="matrix(1.00, 0.00, -0.00, -1.00, 192.0, 811.0)">D</text><text xml:space="preserve" font-family="GillSans" font-size="40.0" fill="#000000" transform="matrix(1.00, 0.00, -0.00, -1.00, 222.0, 811.0)">e</text><text xml:space="preserve" font-family="GillSans" font-size="40.0" fill="#000000" transform="matrix(1.00, 0.00, -0.00, -1.00, 241.2, 811.0)">ï¬</text><text xml:space="preserve" font-family="GillSans" font-size="40.0" fill="#000000" transform="matrix(1.00, 0.00, -0.00, -1.00, 261.2, 811.0)">n</text><text xml:space="preserve" font-family="GillSans" font-size="40.0" fill="#000000" transform="matrix(1.00, 0.00, -0.00, -1.00, 281.2, 811.0)">e</text><text xml:space="preserve" font-family="GillSans" font-size="40.0" fill="#000000" transform="matrix(1.00, 0.00, -0.00, -1.00, 300.3, 811.0)"> </text><text xml:space="preserve" font-family="GillSans" font-size="40.0" fill="#000000" transform="matrix(1.00, 0.00, -0.00, -1.00, 311.4, 811.0)">S</text><text xml:space="preserve" font-family="GillSans" font-size="40.0" fill="#000000" transform="matrix(1.00, 0.00, -0.00, -1.00, 329.7, 811.0)">e</text><text xml:space="preserve" font-family="GillSans" font-size="40.0" fill="#000000" transform="matrix(1.00, 0.00, -0.00, -1.00, 348.9, 811.0)">m</text><text xml:space="preserve" font-family="GillSans" font-size="40.0" fill="#000000" transform="matrix(1.00, 0.00, -0.00, -1.00, 379.7, 811.0)">a</text><text xml:space="preserve" font-family="GillSans" font-size="40.0" fill="#000000" transform="matrix(1.00, 0.00, -0.00, -1.00, 396.8, 811.0)">n</text><text xml:space="preserve" font-family="GillSans" font-size="40.0" fill="#000000" transform="matrix(1.00, 0.00, -0.00, -1.00, 416.8, 811.0)">t</text><text xml:space="preserve" font-family="GillSans" font-size="40.0" fill="#000000" transform="matrix(1.00, 0.00, -0.00, -1.00, 430.1, 811.0)">i</text><text xml:space="preserve" font-family="GillSans" font-size="40.0" fill="#000000" transform="matrix(1.00, 0.00, -0.00, -1.00, 438.9, 811.0)">c</text><text xml:space="preserve" font-family="GillSans" font-size="40.0" fill="#000000" transform="matrix(1.00, 0.00, -0.00, -1.00, 456.4, 811.0)"> </text><text xml:space="preserve" font-family="GillSans" font-size="40.0" fill="#000000" transform="matrix(1.00, 0.00, -0.00, -1.00, 467.5, 811.0)">R</text><text xml:space="preserve" font-family="GillSans" font-size="40.0" fill="#000000" transform="matrix(1.00, 0.00, -0.00, -1.00, 491.7, 811.0)">o</text><text xml:space="preserve" font-family="GillSans" font-size="40.0" fill="#000000" transform="matrix(1.00, 0.00, -0.00, -1.00, 513.8, 811.0)">l</text><text xml:space="preserve" font-family="GillSans" font-size="40.0" fill="#000000" transform="matrix(1.00, 0.00, -0.00, -1.00, 522.5, 811.0)">e</text><text xml:space="preserve" font-family="GillSans" font-size="40.0" fill="#000000" transform="matrix(1.00, 0.00, -0.00, -1.00, 541.7, 811.0)">s</text></g></svg>