<?xml version="1.0" encoding="UTF-8" standalone="no"?><svg xmlns="http://www.w3.org/2000/svg" xmlns:xlink="http://www.w3.org/1999/xlink" clip-rule="evenodd" stroke-miterlimit="4.00" viewBox="0 0 1920 1080"><desc>SVG generated by Keynote</desc><defs></defs><g transform="matrix(1.00, 0.00, -0.00, -1.00, 0.0, 1080.0)"><path d="M 0.0 1080.0 L 1920.0 1080.0 L 1920.0 0.0 L 0.0 0.0 Z M 0.0 1080.0 " fill="#FEFFFF"></path><image xlink:href="../../B7865AF0-3195-481A-B948-1B8E5FD57431/assets/275C37E9A338A9CC5ACD79BBD8715250.png" width="1406.00" height="149.00" transform="matrix(1.00, 0.00, -0.00, -1.00, 257.0, 612.7)" opacity="0.50"></image><path d="M 283.7 611.7 L 1636.3 611.7 C 1643.1 611.7 1646.5 611.7 1650.2 610.5 C 1654.2 609.1 1657.4 605.9 1658.8 601.9 C 1660.0 598.2 1660.0 594.7 1660.0 587.8 L 1660.0 492.1 C 1660.0 485.3 1660.0 481.8 1658.8 478.1 C 1657.4 474.1 1654.2 470.9 1650.2 469.5 C 1646.5 468.3 1643.1 468.3 1636.1 468.3 L 283.7 468.3 C 276.9 468.3 273.5 468.3 269.8 469.5 C 265.8 470.9 262.6 474.1 261.2 478.1 C 260.0 481.8 260.0 485.3 260.0 492.2 L 260.0 587.9 C 260.0 594.7 260.0 598.2 261.2 601.9 C 262.6 605.9 265.8 609.1 269.8 610.5 C 273.5 611.7 276.9 611.7 283.9 611.7 Z M 283.7 611.7 " fill="#DCDDE0"></path><text xml:space="preserve" font-family="GillSans" font-size="112.0" fill="#000000" transform="matrix(1.00, 0.00, -0.00, -1.00, 616.0, 876.0)">S</text><text xml:space="preserve" font-family="GillSans" font-size="112.0" fill="#000000" transform="matrix(1.00, 0.00, -0.00, -1.00, 667.3, 876.0)">e</text><text xml:space="preserve" font-family="GillSans" font-size="112.0" fill="#000000" transform="matrix(1.00, 0.00, -0.00, -1.00, 720.9, 876.0)">m</text><text xml:space="preserve" font-family="GillSans" font-size="112.0" fill="#000000" transform="matrix(1.00, 0.00, -0.00, -1.00, 807.3, 876.0)">a</text><text xml:space="preserve" font-family="GillSans" font-size="112.0" fill="#000000" transform="matrix(1.00, 0.00, -0.00, -1.00, 855.1, 876.0)">n</text><text xml:space="preserve" font-family="GillSans" font-size="112.0" fill="#000000" transform="matrix(1.00, 0.00, -0.00, -1.00, 911.1, 876.0)">t</text><text xml:space="preserve" font-family="GillSans" font-size="112.0" fill="#000000" transform="matrix(1.00, 0.00, -0.00, -1.00, 948.4, 876.0)">i</text><text xml:space="preserve" font-family="GillSans" font-size="112.0" fill="#000000" transform="matrix(1.00, 0.00, -0.00, -1.00, 972.9, 876.0)">c</text><text xml:space="preserve" font-family="GillSans" font-size="112.0" fill="#000000" transform="matrix(1.00, 0.00, -0.00, -1.00, 1022.0, 876.0)"> </text><text xml:space="preserve" font-family="GillSans" font-size="112.0" fill="#000000" transform="matrix(1.00, 0.00, -0.00, -1.00, 1053.1, 876.0)">R</text><text xml:space="preserve" font-family="GillSans" font-size="112.0" fill="#000000" transform="matrix(1.00, 0.00, -0.00, -1.00, 1120.7, 876.0)">o</text><text xml:space="preserve" font-family="GillSans" font-size="112.0" fill="#000000" transform="matrix(1.00, 0.00, -0.00, -1.00, 1182.5, 876.0)">l</text><text xml:space="preserve" font-family="GillSans" font-size="112.0" fill="#000000" transform="matrix(1.00, 0.00, -0.00, -1.00, 1207.1, 876.0)">e</text><text xml:space="preserve" font-family="GillSans" font-size="112.0" fill="#000000" transform="matrix(1.00, 0.00, -0.00, -1.00, 1260.7, 876.0)">s</text><image xlink:href="../../B7865AF0-3195-481A-B948-1B8E5FD57431/assets/A99A758F4B311F444AED83A3600A95C9.png" width="274.00" height="106.00" transform="matrix(1.00, 0.00, -0.00, -1.00, 1005.2, 591.0)" opacity="0.50"></image><g><clipPath id="clip-5097"><path d="M 1031.1 590.0 L 1252.9 590.0 C 1259.4 590.0 1262.8 590.0 1266.3 588.9 C 1270.2 587.5 1273.3 584.4 1274.7 580.5 C 1275.8 577.0 1275.8 573.6 1275.8 567.0 L 1275.8 512.9 C 1275.8 506.4 1275.8 503.0 1274.7 499.5 C 1273.3 495.6 1270.2 492.5 1266.3 491.1 C 1262.8 490.0 1259.4 490.0 1252.8 490.0 L 1031.1 490.0 C 1024.6 490.0 1021.2 490.0 1017.7 491.1 C 1013.8 492.5 1010.7 495.6 1009.3 499.5 C 1008.2 503.0 1008.2 506.4 1008.2 513.0 L 1008.2 567.1 C 1008.2 573.6 1008.2 577.0 1009.3 580.5 C 1010.7 584.4 1013.8 587.5 1017.7 588.9 C 1021.2 590.0 1024.6 590.0 1031.2 590.0 Z M 1031.1 590.0 "></path></clipPath><g clip-path="url(#clip-5097)"><image xlink:href="../../FDFB80FF-6364-4B8F-8831-ED6B4240AA11/assets/D5BAA0E7A80E113D25EB92D00157B4C8.jpeg" width="300.00" height="300.00" transform="matrix(1.00, 0.00, -0.00, -1.00, 1008.2, 590.0)"></image><path d="M 1008.2 590.0 L 1275.8 590.0 L 1275.8 490.0 L 1008.2 490.0 Z M 1008.2 590.0 " fill="#00D026" fill-opacity="0.50"></path></g></g><g><clipPath id="clip-5098"><path d="M 995.9 490.0 L 1288.1 490.0 L 1288.1 590.0 L 995.9 590.0 Z M 995.9 490.0 "></path></clipPath><g clip-path="url(#clip-5098)"><text xml:space="preserve" font-family="GillSans-SemiBold" font-weight="bold" font-size="55.0" fill="#FEFFFE" transform="matrix(1.00, 0.00, -0.00, -1.00, 1062.0, 521.0)">A</text><text xml:space="preserve" font-family="GillSans-SemiBold" font-weight="bold" font-size="55.0" fill="#FEFFFE" transform="matrix(1.00, 0.00, -0.00, -1.00, 1102.0, 521.0)">c</text><text xml:space="preserve" font-family="GillSans-SemiBold" font-weight="bold" font-size="55.0" fill="#FEFFFE" transform="matrix(1.00, 0.00, -0.00, -1.00, 1127.3, 521.0)">t</text><text xml:space="preserve" font-family="GillSans-SemiBold" font-weight="bold" font-size="55.0" fill="#FEFFFE" transform="matrix(1.00, 0.00, -0.00, -1.00, 1147.6, 521.0)">i</text><text xml:space="preserve" font-family="GillSans-SemiBold" font-weight="bold" font-size="55.0" fill="#FEFFFE" transform="matrix(1.00, 0.00, -0.00, -1.00, 1161.3, 521.0)">o</text><text xml:space="preserve" font-family="GillSans-SemiBold" font-weight="bold" font-size="55.0" fill="#FEFFFE" transform="matrix(1.00, 0.00, -0.00, -1.00, 1192.8, 521.0)">n</text></g></g><image xlink:href="../../B7865AF0-3195-481A-B948-1B8E5FD57431/assets/A99A758F4B311F444AED83A3600A95C9.png" width="274.00" height="106.00" transform="matrix(1.00, 0.00, -0.00, -1.00, 277.2, 591.0)" opacity="0.50"></image><g><clipPath id="clip-5099"><path d="M 303.1 590.0 L 524.9 590.0 C 531.4 590.0 534.8 590.0 538.3 588.9 C 542.2 587.5 545.3 584.4 546.7 580.5 C 547.8 577.0 547.8 573.6 547.8 567.0 L 547.8 512.9 C 547.8 506.4 547.8 503.0 546.7 499.5 C 545.3 495.6 542.2 492.5 538.3 491.1 C 534.8 490.0 531.4 490.0 524.8 490.0 L 303.1 490.0 C 296.6 490.0 293.2 490.0 289.7 491.1 C 285.8 492.5 282.7 495.6 281.3 499.5 C 280.2 503.0 280.2 506.4 280.2 513.0 L 280.2 567.1 C 280.2 573.6 280.2 577.0 281.3 580.5 C 282.7 584.4 285.8 587.5 289.7 588.9 C 293.2 590.0 296.6 590.0 303.2 590.0 Z M 303.1 590.0 "></path></clipPath><g clip-path="url(#clip-5099)"><image xlink:href="../../FDFB80FF-6364-4B8F-8831-ED6B4240AA11/assets/D5BAA0E7A80E113D25EB92D00157B4C8.jpeg" width="300.00" height="300.00" transform="matrix(1.00, 0.00, -0.00, -1.00, 280.2, 590.0)"></image><path d="M 280.2 590.0 L 547.8 590.0 L 547.8 490.0 L 280.2 490.0 Z M 280.2 590.0 " fill="#009BFC" fill-opacity="0.50"></path></g></g><g><clipPath id="clip-5100"><path d="M 267.9 490.0 L 560.1 490.0 L 560.1 590.0 L 267.9 590.0 Z M 267.9 490.0 "></path></clipPath><g clip-path="url(#clip-5100)"><text xml:space="preserve" font-family="GillSans-SemiBold" font-weight="bold" font-size="55.0" fill="#FEFFFE" transform="matrix(1.00, 0.00, -0.00, -1.00, 351.0, 521.0)">I</text><text xml:space="preserve" font-family="GillSans-SemiBold" font-weight="bold" font-size="55.0" fill="#FEFFFE" transform="matrix(1.00, 0.00, -0.00, -1.00, 366.9, 521.0)">n</text><text xml:space="preserve" font-family="GillSans-SemiBold" font-weight="bold" font-size="55.0" fill="#FEFFFE" transform="matrix(1.00, 0.00, -0.00, -1.00, 396.6, 521.0)">p</text><text xml:space="preserve" font-family="GillSans-SemiBold" font-weight="bold" font-size="55.0" fill="#FEFFFE" transform="matrix(1.00, 0.00, -0.00, -1.00, 426.7, 521.0)">u</text><text xml:space="preserve" font-family="GillSans-SemiBold" font-weight="bold" font-size="55.0" fill="#FEFFFE" transform="matrix(1.00, 0.00, -0.00, -1.00, 456.4, 521.0)">t</text></g></g><image xlink:href="../../B7865AF0-3195-481A-B948-1B8E5FD57431/assets/A99A758F4B311F444AED83A3600A95C9.png" width="274.00" height="106.00" transform="matrix(1.00, 0.00, -0.00, -1.00, 1369.2, 591.0)" opacity="0.50"></image><g><clipPath id="clip-5101"><path d="M 1395.1 590.0 L 1616.9 590.0 C 1623.4 590.0 1626.8 590.0 1630.3 588.9 C 1634.2 587.5 1637.3 584.4 1638.7 580.5 C 1639.8 577.0 1639.8 573.6 1639.8 567.0 L 1639.8 512.9 C 1639.8 506.4 1639.8 503.0 1638.7 499.5 C 1637.3 495.6 1634.2 492.5 1630.3 491.1 C 1626.8 490.0 1623.4 490.0 1616.8 490.0 L 1395.1 490.0 C 1388.6 490.0 1385.2 490.0 1381.7 491.1 C 1377.8 492.5 1374.7 495.6 1373.3 499.5 C 1372.2 503.0 1372.2 506.4 1372.2 513.0 L 1372.2 567.1 C 1372.2 573.6 1372.2 577.0 1373.3 580.5 C 1374.7 584.4 1377.8 587.5 1381.7 588.9 C 1385.2 590.0 1388.6 590.0 1395.2 590.0 Z M 1395.1 590.0 "></path></clipPath><g clip-path="url(#clip-5101)"><image xlink:href="../../FDFB80FF-6364-4B8F-8831-ED6B4240AA11/assets/D5BAA0E7A80E113D25EB92D00157B4C8.jpeg" width="300.00" height="300.00" transform="matrix(1.00, 0.00, -0.00, -1.00, 1372.2, 590.0)"></image><path d="M 1372.2 590.0 L 1639.8 590.0 L 1639.8 490.0 L 1372.2 490.0 Z M 1372.2 590.0 " fill="#FF2A05" fill-opacity="0.50"></path></g></g><g><clipPath id="clip-5102"><path d="M 1359.9 490.0 L 1652.1 490.0 L 1652.1 590.0 L 1359.9 590.0 Z M 1359.9 490.0 "></path></clipPath><g clip-path="url(#clip-5102)"><text xml:space="preserve" font-family="GillSans-SemiBold" font-weight="bold" font-size="55.0" fill="#FEFFFE" transform="matrix(1.00, 0.00, -0.00, -1.00, 1418.0, 521.0)">O</text><text xml:space="preserve" font-family="GillSans-SemiBold" font-weight="bold" font-size="55.0" fill="#FEFFFE" transform="matrix(1.00, 0.00, -0.00, -1.00, 1464.7, 521.0)">u</text><text xml:space="preserve" font-family="GillSans-SemiBold" font-weight="bold" font-size="55.0" fill="#FEFFFE" transform="matrix(1.00, 0.00, -0.00, -1.00, 1494.4, 521.0)">t</text><text xml:space="preserve" font-family="GillSans-SemiBold" font-weight="bold" font-size="55.0" fill="#FEFFFE" transform="matrix(1.00, 0.00, -0.00, -1.00, 1514.7, 521.0)">p</text><text xml:space="preserve" font-family="GillSans-SemiBold" font-weight="bold" font-size="55.0" fill="#FEFFFE" transform="matrix(1.00, 0.00, -0.00, -1.00, 1544.8, 521.0)">u</text><text xml:space="preserve" font-family="GillSans-SemiBold" font-weight="bold" font-size="55.0" fill="#FEFFFE" transform="matrix(1.00, 0.00, -0.00, -1.00, 1574.5, 521.0)">t</text></g></g><image xlink:href="../../B7865AF0-3195-481A-B948-1B8E5FD57431/assets/A99A758F4B311F444AED83A3600A95C9.png" width="274.00" height="106.00" transform="matrix(1.00, 0.00, -0.00, -1.00, 641.2, 591.0)" opacity="0.50"></image><g><clipPath id="clip-5103"><path d="M 667.1 590.0 L 888.9 590.0 C 895.4 590.0 898.8 590.0 902.3 588.9 C 906.2 587.5 909.3 584.4 910.7 580.5 C 911.8 577.0 911.8 573.6 911.8 567.0 L 911.8 512.9 C 911.8 506.4 911.8 503.0 910.7 499.5 C 909.3 495.6 906.2 492.5 902.3 491.1 C 898.8 490.0 895.4 490.0 888.8 490.0 L 667.1 490.0 C 660.6 490.0 657.2 490.0 653.7 491.1 C 649.8 492.5 646.7 495.6 645.3 499.5 C 644.2 503.0 644.2 506.4 644.2 513.0 L 644.2 567.1 C 644.2 573.6 644.2 577.0 645.3 580.5 C 646.7 584.4 649.8 587.5 653.7 588.9 C 657.2 590.0 660.6 590.0 667.2 590.0 Z M 667.1 590.0 "></path></clipPath><g clip-path="url(#clip-5103)"><image xlink:href="../../FDFB80FF-6364-4B8F-8831-ED6B4240AA11/assets/82235AF7F54A50D3E98B46DAE150A7DA.jpeg" width="300.00" height="300.00" transform="matrix(1.00, 0.00, -0.00, -1.00, 644.2, 590.0)"></image><path d="M 644.2 590.0 L 911.8 590.0 L 911.8 490.0 L 644.2 490.0 Z M 644.2 590.0 " fill="#FFE02A" fill-opacity="0.52"></path></g></g><g><clipPath id="clip-5104"><path d="M 631.9 490.0 L 924.1 490.0 L 924.1 590.0 L 631.9 590.0 Z M 631.9 490.0 "></path></clipPath><g clip-path="url(#clip-5104)"><text xml:space="preserve" font-family="GillSans-SemiBold" font-weight="bold" font-size="55.0" fill="#FEFFFE" transform="matrix(1.00, 0.00, -0.00, -1.00, 687.0, 521.0)">E</text><text xml:space="preserve" font-family="GillSans-SemiBold" font-weight="bold" font-size="55.0" fill="#FEFFFE" transform="matrix(1.00, 0.00, -0.00, -1.00, 718.4, 521.0)">n</text><text xml:space="preserve" font-family="GillSans-SemiBold" font-weight="bold" font-size="55.0" fill="#FEFFFE" transform="matrix(1.00, 0.00, -0.00, -1.00, 748.1, 521.0)">a</text><text xml:space="preserve" font-family="GillSans-SemiBold" font-weight="bold" font-size="55.0" fill="#FEFFFE" transform="matrix(1.00, 0.00, -0.00, -1.00, 774.7, 521.0)">b</text><text xml:space="preserve" font-family="GillSans-SemiBold" font-weight="bold" font-size="55.0" fill="#FEFFFE" transform="matrix(1.00, 0.00, -0.00, -1.00, 804.9, 521.0)">l</text><text xml:space="preserve" font-family="GillSans-SemiBold" font-weight="bold" font-size="55.0" fill="#FEFFFE" transform="matrix(1.00, 0.00, -0.00, -1.00, 818.5, 521.0)">e</text><text xml:space="preserve" font-family="GillSans-SemiBold" font-weight="bold" font-size="55.0" fill="#FEFFFE" transform="matrix(1.00, 0.00, -0.00, -1.00, 846.9, 521.0)">r</text></g></g></g></svg>