<?xml version="1.0" encoding="UTF-8" standalone="no"?><svg xmlns="http://www.w3.org/2000/svg" xmlns:xlink="http://www.w3.org/1999/xlink" clip-rule="evenodd" stroke-miterlimit="4.00" viewBox="0 0 1920 1080"><desc>SVG generated by Keynote</desc><defs></defs><g transform="matrix(1.00, 0.00, -0.00, -1.00, 0.0, 1080.0)"><path d="M 0.0 1080.0 L 1920.0 1080.0 L 1920.0 0.0 L 0.0 0.0 Z M 0.0 1080.0 " fill="#FEFFFF"></path><image xlink:href="66B44FF6C86D5EA9305986B8B167251C.png" width="1451.00" height="260.00" transform="matrix(1.00, 0.00, -0.00, -1.00, 355.3, 412.4)" opacity="0.20"></image><path d="M 404.5 387.9 L 1757.0 387.9 C 1763.9 387.9 1767.3 387.9 1771.0 386.8 C 1775.0 385.3 1778.2 382.1 1779.6 378.1 C 1780.8 374.5 1780.8 371.0 1780.8 364.1 L 1780.8 202.6 C 1780.8 195.8 1780.8 192.3 1779.6 188.6 C 1778.2 184.6 1775.0 181.5 1771.0 180.0 C 1767.3 178.8 1763.9 178.8 1756.9 178.8 L 404.5 178.8 C 397.7 178.8 394.3 178.8 390.6 180.0 C 386.6 181.5 383.4 184.6 382.0 188.6 C 380.8 192.3 380.8 195.8 380.8 202.7 L 380.8 364.2 C 380.8 371.0 380.8 374.5 382.0 378.1 C 383.4 382.1 386.6 385.3 390.6 386.8 C 394.3 387.9 397.7 387.9 404.6 387.9 Z M 404.5 387.9 " fill="#FEFFFF"></path><path d="M 23.8 0.0 L 1376.3 0.0 C 1383.1 0.0 1386.5 0.0 1390.2 1.2 C 1394.2 2.6 1397.4 5.8 1398.8 9.8 C 1400.0 13.5 1400.0 16.9 1400.0 23.9 L 1400.0 185.4 C 1400.0 192.2 1400.0 195.6 1398.8 199.3 C 1397.4 203.3 1394.2 206.5 1390.2 207.9 C 1386.5 209.1 1383.1 209.1 1376.2 209.1 L 23.8 209.1 C 16.9 209.1 13.5 209.1 9.8 207.9 C 5.8 206.5 2.6 203.3 1.2 199.3 C 0.0 195.6 0.0 192.2 0.0 185.3 L 0.0 23.8 C 0.0 16.9 0.0 13.5 1.2 9.8 C 2.6 5.8 5.8 2.6 9.8 1.2 C 13.5 0.0 16.9 0.0 23.9 0.0 Z M 23.8 0.0 " fill="none" stroke="#52575F" stroke-width="1.10" transform="matrix(1.00, 0.00, 0.00, -1.00, 380.8, 387.9)"></path><image xlink:href="C2BBD59AE13E23F6257E5369E87CD7F5.png" width="1451.00" height="440.00" transform="matrix(1.00, 0.00, -0.00, -1.00, 355.3, 852.4)" opacity="0.20"></image><path d="M 404.5 827.9 L 1757.0 827.9 C 1763.9 827.9 1767.3 827.9 1771.0 826.8 C 1775.0 825.3 1778.2 822.1 1779.6 818.1 C 1780.8 814.5 1780.8 811.0 1780.8 804.1 L 1780.8 463.1 C 1780.8 456.2 1780.8 452.8 1779.6 449.1 C 1778.2 445.1 1775.0 441.9 1771.0 440.5 C 1767.3 439.3 1763.9 439.3 1756.9 439.3 L 404.5 439.3 C 397.7 439.3 394.3 439.3 390.6 440.5 C 386.6 441.9 383.4 445.1 382.0 449.1 C 380.8 452.8 380.8 456.2 380.8 463.2 L 380.8 804.2 C 380.8 811.0 380.8 814.5 382.0 818.1 C 383.4 822.1 386.6 825.3 390.6 826.8 C 394.3 827.9 397.7 827.9 404.6 827.9 Z M 404.5 827.9 " fill="#FEFFFF"></path><path d="M 23.8 0.0 L 1376.3 0.0 C 1383.1 0.0 1386.5 0.0 1390.2 1.2 C 1394.2 2.6 1397.4 5.8 1398.8 9.8 C 1400.0 13.5 1400.0 16.9 1400.0 23.9 L 1400.0 364.9 C 1400.0 371.7 1400.0 375.1 1398.8 378.8 C 1397.4 382.8 1394.2 386.0 1390.2 387.5 C 1386.5 388.6 1383.1 388.6 1376.2 388.6 L 23.8 388.6 C 16.9 388.6 13.5 388.6 9.8 387.5 C 5.8 386.0 2.6 382.8 1.2 378.8 C 0.0 375.1 0.0 371.7 0.0 364.8 L 0.0 23.8 C 0.0 16.9 0.0 13.5 1.2 9.8 C 2.6 5.8 5.8 2.6 9.8 1.2 C 13.5 0.0 16.9 0.0 23.9 0.0 Z M 23.8 0.0 " fill="none" stroke="#52575F" stroke-width="1.10" transform="matrix(1.00, 0.00, 0.00, -1.00, 380.8, 827.9)"></path><image xlink:href="../../B7865AF0-3195-481A-B948-1B8E5FD57431/assets/275C37E9A338A9CC5ACD79BBD8715250.png" width="1406.00" height="149.00" transform="matrix(1.00, 0.00, -0.00, -1.00, 377.8, 1030.9)" opacity="0.50"></image><path d="M 404.5 1029.9 L 1757.0 1029.9 C 1763.9 1029.9 1767.3 1029.9 1771.0 1028.8 C 1775.0 1027.3 1778.2 1024.1 1779.6 1020.1 C 1780.8 1016.5 1780.8 1013.0 1780.8 1006.1 L 1780.8 910.3 C 1780.8 903.5 1780.8 900.1 1779.6 896.4 C 1778.2 892.4 1775.0 889.2 1771.0 887.7 C 1767.3 886.6 1763.9 886.6 1756.9 886.6 L 404.5 886.6 C 397.7 886.6 394.3 886.6 390.6 887.7 C 386.6 889.2 383.4 892.4 382.0 896.4 C 380.8 900.1 380.8 903.5 380.8 910.4 L 380.8 1006.2 C 380.8 1013.0 380.8 1016.5 382.0 1020.1 C 383.4 1024.1 386.6 1027.3 390.6 1028.8 C 394.3 1029.9 397.7 1029.9 404.6 1029.9 Z M 404.5 1029.9 " fill="#DCDDE0"></path><image xlink:href="../../B7865AF0-3195-481A-B948-1B8E5FD57431/assets/A99A758F4B311F444AED83A3600A95C9.png" width="274.00" height="106.00" transform="matrix(1.00, 0.00, -0.00, -1.00, 1126.0, 1009.3)" opacity="0.50"></image><g><clipPath id="clip-5105"><path d="M 1151.9 1008.3 L 1373.7 1008.3 C 1380.2 1008.3 1383.6 1008.3 1387.1 1007.1 C 1391.0 1005.7 1394.0 1002.7 1395.5 998.8 C 1396.6 995.2 1396.6 991.9 1396.6 985.2 L 1396.6 931.2 C 1396.6 924.6 1396.6 921.3 1395.5 917.7 C 1394.0 913.8 1391.0 910.8 1387.1 909.4 C 1383.6 908.3 1380.2 908.3 1373.6 908.3 L 1151.9 908.3 C 1145.4 908.3 1142.0 908.3 1138.5 909.4 C 1134.6 910.8 1131.5 913.8 1130.1 917.7 C 1129.0 921.3 1129.0 924.6 1129.0 931.3 L 1129.0 985.3 C 1129.0 991.9 1129.0 995.2 1130.1 998.8 C 1131.5 1002.7 1134.6 1005.7 1138.5 1007.1 C 1142.0 1008.3 1145.4 1008.3 1152.0 1008.3 Z M 1151.9 1008.3 "></path></clipPath><g clip-path="url(#clip-5105)"><image xlink:href="../../FDFB80FF-6364-4B8F-8831-ED6B4240AA11/assets/D5BAA0E7A80E113D25EB92D00157B4C8.jpeg" width="300.00" height="300.00" transform="matrix(1.00, 0.00, -0.00, -1.00, 1129.0, 1008.3)"></image><path d="M 1129.0 1008.3 L 1396.6 1008.3 L 1396.6 908.3 L 1129.0 908.3 Z M 1129.0 1008.3 " fill="#00D026" fill-opacity="0.50"></path></g></g><g><clipPath id="clip-5106"><path d="M 1116.7 908.3 L 1408.9 908.3 L 1408.9 1008.3 L 1116.7 1008.3 Z M 1116.7 908.3 "></path></clipPath><g clip-path="url(#clip-5106)"><text xml:space="preserve" font-family="GillSans-SemiBold" font-weight="bold" font-size="55.0" fill="#FEFFFE" transform="matrix(1.00, 0.00, -0.00, -1.00, 1183.0, 939.0)">A</text><text xml:space="preserve" font-family="GillSans-SemiBold" font-weight="bold" font-size="55.0" fill="#FEFFFE" transform="matrix(1.00, 0.00, -0.00, -1.00, 1223.0, 939.0)">c</text><text xml:space="preserve" font-family="GillSans-SemiBold" font-weight="bold" font-size="55.0" fill="#FEFFFE" transform="matrix(1.00, 0.00, -0.00, -1.00, 1248.3, 939.0)">t</text><text xml:space="preserve" font-family="GillSans-SemiBold" font-weight="bold" font-size="55.0" fill="#FEFFFE" transform="matrix(1.00, 0.00, -0.00, -1.00, 1268.6, 939.0)">i</text><text xml:space="preserve" font-family="GillSans-SemiBold" font-weight="bold" font-size="55.0" fill="#FEFFFE" transform="matrix(1.00, 0.00, -0.00, -1.00, 1282.3, 939.0)">o</text><text xml:space="preserve" font-family="GillSans-SemiBold" font-weight="bold" font-size="55.0" fill="#FEFFFE" transform="matrix(1.00, 0.00, -0.00, -1.00, 1313.8, 939.0)">n</text></g></g><image xlink:href="../../B7865AF0-3195-481A-B948-1B8E5FD57431/assets/A99A758F4B311F444AED83A3600A95C9.png" width="274.00" height="106.00" transform="matrix(1.00, 0.00, -0.00, -1.00, 398.0, 1009.3)" opacity="0.50"></image><g><clipPath id="clip-5107"><path d="M 423.9 1008.3 L 645.7 1008.3 C 652.2 1008.3 655.6 1008.3 659.1 1007.1 C 663.0 1005.7 666.1 1002.7 667.5 998.8 C 668.6 995.2 668.6 991.9 668.6 985.2 L 668.6 931.2 C 668.6 924.6 668.6 921.3 667.5 917.7 C 666.1 913.8 663.0 910.8 659.1 909.4 C 655.6 908.3 652.2 908.3 645.6 908.3 L 423.9 908.3 C 417.4 908.3 414.0 908.3 410.5 909.4 C 406.6 910.8 403.5 913.8 402.1 917.7 C 401.0 921.3 401.0 924.6 401.0 931.3 L 401.0 985.3 C 401.0 991.9 401.0 995.2 402.1 998.8 C 403.5 1002.7 406.6 1005.7 410.5 1007.1 C 414.0 1008.3 417.4 1008.3 424.0 1008.3 Z M 423.9 1008.3 "></path></clipPath><g clip-path="url(#clip-5107)"><image xlink:href="../../FDFB80FF-6364-4B8F-8831-ED6B4240AA11/assets/D5BAA0E7A80E113D25EB92D00157B4C8.jpeg" width="300.00" height="300.00" transform="matrix(1.00, 0.00, -0.00, -1.00, 401.0, 1008.3)"></image><path d="M 401.0 1008.3 L 668.6 1008.3 L 668.6 908.3 L 401.0 908.3 Z M 401.0 1008.3 " fill="#009BFC" fill-opacity="0.50"></path></g></g><g><clipPath id="clip-5108"><path d="M 388.7 908.3 L 680.9 908.3 L 680.9 1008.3 L 388.7 1008.3 Z M 388.7 908.3 "></path></clipPath><g clip-path="url(#clip-5108)"><text xml:space="preserve" font-family="GillSans-SemiBold" font-weight="bold" font-size="55.0" fill="#FEFFFE" transform="matrix(1.00, 0.00, -0.00, -1.00, 472.0, 939.0)">I</text><text xml:space="preserve" font-family="GillSans-SemiBold" font-weight="bold" font-size="55.0" fill="#FEFFFE" transform="matrix(1.00, 0.00, -0.00, -1.00, 487.9, 939.0)">n</text><text xml:space="preserve" font-family="GillSans-SemiBold" font-weight="bold" font-size="55.0" fill="#FEFFFE" transform="matrix(1.00, 0.00, -0.00, -1.00, 517.6, 939.0)">p</text><text xml:space="preserve" font-family="GillSans-SemiBold" font-weight="bold" font-size="55.0" fill="#FEFFFE" transform="matrix(1.00, 0.00, -0.00, -1.00, 547.7, 939.0)">u</text><text xml:space="preserve" font-family="GillSans-SemiBold" font-weight="bold" font-size="55.0" fill="#FEFFFE" transform="matrix(1.00, 0.00, -0.00, -1.00, 577.4, 939.0)">t</text></g></g><image xlink:href="../../B7865AF0-3195-481A-B948-1B8E5FD57431/assets/A99A758F4B311F444AED83A3600A95C9.png" width="274.00" height="106.00" transform="matrix(1.00, 0.00, -0.00, -1.00, 1490.0, 1009.3)" opacity="0.50"></image><g><clipPath id="clip-5109"><path d="M 1515.9 1008.3 L 1737.7 1008.3 C 1744.2 1008.3 1747.6 1008.3 1751.1 1007.1 C 1755.0 1005.7 1758.0 1002.7 1759.5 998.8 C 1760.6 995.2 1760.6 991.9 1760.6 985.2 L 1760.6 931.2 C 1760.6 924.6 1760.6 921.3 1759.5 917.7 C 1758.0 913.8 1755.0 910.8 1751.1 909.4 C 1747.6 908.3 1744.2 908.3 1737.6 908.3 L 1515.9 908.3 C 1509.4 908.3 1506.0 908.3 1502.5 909.4 C 1498.6 910.8 1495.5 913.8 1494.1 917.7 C 1493.0 921.3 1493.0 924.6 1493.0 931.3 L 1493.0 985.3 C 1493.0 991.9 1493.0 995.2 1494.1 998.8 C 1495.5 1002.7 1498.6 1005.7 1502.5 1007.1 C 1506.0 1008.3 1509.4 1008.3 1516.0 1008.3 Z M 1515.9 1008.3 "></path></clipPath><g clip-path="url(#clip-5109)"><image xlink:href="../../FDFB80FF-6364-4B8F-8831-ED6B4240AA11/assets/D5BAA0E7A80E113D25EB92D00157B4C8.jpeg" width="300.00" height="300.00" transform="matrix(1.00, 0.00, -0.00, -1.00, 1493.0, 1008.3)"></image><path d="M 1493.0 1008.3 L 1760.6 1008.3 L 1760.6 908.3 L 1493.0 908.3 Z M 1493.0 1008.3 " fill="#FF2A05" fill-opacity="0.50"></path></g></g><g><clipPath id="clip-5110"><path d="M 1480.7 908.3 L 1772.9 908.3 L 1772.9 1008.3 L 1480.7 1008.3 Z M 1480.7 908.3 "></path></clipPath><g clip-path="url(#clip-5110)"><text xml:space="preserve" font-family="GillSans-SemiBold" font-weight="bold" font-size="55.0" fill="#FEFFFE" transform="matrix(1.00, 0.00, -0.00, -1.00, 1538.0, 939.0)">O</text><text xml:space="preserve" font-family="GillSans-SemiBold" font-weight="bold" font-size="55.0" fill="#FEFFFE" transform="matrix(1.00, 0.00, -0.00, -1.00, 1584.7, 939.0)">u</text><text xml:space="preserve" font-family="GillSans-SemiBold" font-weight="bold" font-size="55.0" fill="#FEFFFE" transform="matrix(1.00, 0.00, -0.00, -1.00, 1614.4, 939.0)">t</text><text xml:space="preserve" font-family="GillSans-SemiBold" font-weight="bold" font-size="55.0" fill="#FEFFFE" transform="matrix(1.00, 0.00, -0.00, -1.00, 1634.7, 939.0)">p</text><text xml:space="preserve" font-family="GillSans-SemiBold" font-weight="bold" font-size="55.0" fill="#FEFFFE" transform="matrix(1.00, 0.00, -0.00, -1.00, 1664.8, 939.0)">u</text><text xml:space="preserve" font-family="GillSans-SemiBold" font-weight="bold" font-size="55.0" fill="#FEFFFE" transform="matrix(1.00, 0.00, -0.00, -1.00, 1694.5, 939.0)">t</text></g></g><image xlink:href="../../B7865AF0-3195-481A-B948-1B8E5FD57431/assets/A99A758F4B311F444AED83A3600A95C9.png" width="274.00" height="106.00" transform="matrix(1.00, 0.00, -0.00, -1.00, 762.0, 1009.3)" opacity="0.50"></image><g><clipPath id="clip-5111"><path d="M 787.9 1008.3 L 1009.7 1008.3 C 1016.2 1008.3 1019.6 1008.3 1023.1 1007.1 C 1027.0 1005.7 1030.0 1002.7 1031.5 998.8 C 1032.6 995.2 1032.6 991.9 1032.6 985.2 L 1032.6 931.2 C 1032.6 924.6 1032.6 921.3 1031.5 917.7 C 1030.0 913.8 1027.0 910.8 1023.1 909.4 C 1019.6 908.3 1016.2 908.3 1009.6 908.3 L 787.9 908.3 C 781.4 908.3 778.0 908.3 774.5 909.4 C 770.6 910.8 767.5 913.8 766.1 917.7 C 765.0 921.3 765.0 924.6 765.0 931.3 L 765.0 985.3 C 765.0 991.9 765.0 995.2 766.1 998.8 C 767.5 1002.7 770.6 1005.7 774.5 1007.1 C 778.0 1008.3 781.4 1008.3 788.0 1008.3 Z M 787.9 1008.3 "></path></clipPath><g clip-path="url(#clip-5111)"><image xlink:href="../../FDFB80FF-6364-4B8F-8831-ED6B4240AA11/assets/82235AF7F54A50D3E98B46DAE150A7DA.jpeg" width="300.00" height="300.00" transform="matrix(1.00, 0.00, -0.00, -1.00, 765.0, 1008.3)"></image><path d="M 765.0 1008.3 L 1032.6 1008.3 L 1032.6 908.3 L 765.0 908.3 Z M 765.0 1008.3 " fill="#FFE02A" fill-opacity="0.52"></path></g></g><g><clipPath id="clip-5112"><path d="M 752.7 908.3 L 1044.9 908.3 L 1044.9 1008.3 L 752.7 1008.3 Z M 752.7 908.3 "></path></clipPath><g clip-path="url(#clip-5112)"><text xml:space="preserve" font-family="GillSans-SemiBold" font-weight="bold" font-size="55.0" fill="#FEFFFE" transform="matrix(1.00, 0.00, -0.00, -1.00, 807.0, 939.0)">E</text><text xml:space="preserve" font-family="GillSans-SemiBold" font-weight="bold" font-size="55.0" fill="#FEFFFE" transform="matrix(1.00, 0.00, -0.00, -1.00, 838.4, 939.0)">n</text><text xml:space="preserve" font-family="GillSans-SemiBold" font-weight="bold" font-size="55.0" fill="#FEFFFE" transform="matrix(1.00, 0.00, -0.00, -1.00, 868.1, 939.0)">a</text><text xml:space="preserve" font-family="GillSans-SemiBold" font-weight="bold" font-size="55.0" fill="#FEFFFE" transform="matrix(1.00, 0.00, -0.00, -1.00, 894.7, 939.0)">b</text><text xml:space="preserve" font-family="GillSans-SemiBold" font-weight="bold" font-size="55.0" fill="#FEFFFE" transform="matrix(1.00, 0.00, -0.00, -1.00, 924.9, 939.0)">l</text><text xml:space="preserve" font-family="GillSans-SemiBold" font-weight="bold" font-size="55.0" fill="#FEFFFE" transform="matrix(1.00, 0.00, -0.00, -1.00, 938.5, 939.0)">e</text><text xml:space="preserve" font-family="GillSans-SemiBold" font-weight="bold" font-size="55.0" fill="#FEFFFE" transform="matrix(1.00, 0.00, -0.00, -1.00, 966.9, 939.0)">r</text></g></g><path d="M 423.9 804.2 L 645.7 804.2 C 652.2 804.2 655.6 804.2 659.1 803.1 C 663.0 801.6 666.1 798.6 667.5 794.7 C 668.6 791.2 668.6 787.8 668.6 781.2 L 668.6 754.0 C 668.6 747.4 668.6 744.1 667.5 740.5 C 666.1 736.7 663.0 733.6 659.1 732.2 C 655.6 731.1 652.2 731.1 645.6 731.1 L 423.9 731.1 C 417.4 731.1 414.0 731.1 410.5 732.2 C 406.6 733.6 403.5 736.7 402.1 740.5 C 401.0 744.1 401.0 747.4 401.0 754.1 L 401.0 781.3 C 401.0 787.8 401.0 791.2 402.1 794.7 C 403.5 798.6 406.6 801.6 410.5 803.1 C 414.0 804.2 417.4 804.2 424.0 804.2 Z M 423.9 804.2 " fill="#FEFFFF"></path><path d="M 22.9 0.0 L 244.6 0.0 C 251.2 0.0 254.6 0.0 258.1 1.1 C 262.0 2.5 265.0 5.6 266.5 9.5 C 267.6 13.0 267.6 16.4 267.6 23.0 L 267.6 50.2 C 267.6 56.8 267.6 60.1 266.5 63.6 C 265.0 67.5 262.0 70.6 258.1 72.0 C 254.6 73.1 251.2 73.1 244.5 73.1 L 22.9 73.1 C 16.4 73.1 13.0 73.1 9.5 72.0 C 5.6 70.6 2.5 67.5 1.1 63.6 C 0.0 60.1 0.0 56.8 0.0 50.1 L 0.0 22.9 C 0.0 16.4 0.0 13.0 1.1 9.5 C 2.5 5.6 5.6 2.5 9.5 1.1 C 13.0 0.0 16.4 0.0 23.0 0.0 Z M 22.9 0.0 " fill="none" stroke="#0264C0" stroke-width="2.00" transform="matrix(1.00, 0.00, 0.00, -1.00, 401.0, 804.2)"></path><g><clipPath id="clip-5113"><path d="M 395.1 731.1 L 674.7 731.1 L 674.7 804.2 L 395.1 804.2 Z M 395.1 731.1 "></path></clipPath><g clip-path="url(#clip-5113)"><text xml:space="preserve" font-family="GillSans" font-size="40.0" fill="#000000" transform="matrix(1.00, 0.00, -0.00, -1.00, 488.0, 754.0)">w</text><text xml:space="preserve" font-family="GillSans" font-size="40.0" fill="#000000" transform="matrix(1.00, 0.00, -0.00, -1.00, 516.8, 754.0)">a</text><text xml:space="preserve" font-family="GillSans" font-size="40.0" fill="#000000" transform="matrix(1.00, 0.00, -0.00, -1.00, 533.8, 754.0)">t</text><text xml:space="preserve" font-family="GillSans" font-size="40.0" fill="#000000" transform="matrix(1.00, 0.00, -0.00, -1.00, 547.2, 754.0)">e</text><text xml:space="preserve" font-family="GillSans" font-size="40.0" fill="#000000" transform="matrix(1.00, 0.00, -0.00, -1.00, 566.3, 754.0)">r</text></g></g><path d="M 787.9 804.2 L 1009.7 804.2 C 1016.2 804.2 1019.6 804.2 1023.1 803.1 C 1027.0 801.6 1030.0 798.6 1031.5 794.7 C 1032.6 791.2 1032.6 787.8 1032.6 781.2 L 1032.6 754.0 C 1032.6 747.4 1032.6 744.1 1031.5 740.5 C 1030.0 736.7 1027.0 733.6 1023.1 732.2 C 1019.6 731.1 1016.2 731.1 1009.6 731.1 L 787.9 731.1 C 781.4 731.1 778.0 731.1 774.5 732.2 C 770.6 733.6 767.5 736.7 766.1 740.5 C 765.0 744.1 765.0 747.4 765.0 754.1 L 765.0 781.3 C 765.0 787.8 765.0 791.2 766.1 794.7 C 767.5 798.6 770.6 801.6 774.5 803.1 C 778.0 804.2 781.4 804.2 788.0 804.2 Z M 787.9 804.2 " fill="#FEFFFF"></path><path d="M 22.9 0.0 L 244.6 0.0 C 251.2 0.0 254.6 0.0 258.1 1.1 C 262.0 2.5 265.0 5.6 266.5 9.5 C 267.6 13.0 267.6 16.4 267.6 23.0 L 267.6 50.2 C 267.6 56.8 267.6 60.1 266.5 63.6 C 265.0 67.5 262.0 70.6 258.1 72.0 C 254.6 73.1 251.2 73.1 244.5 73.1 L 22.9 73.1 C 16.4 73.1 13.0 73.1 9.5 72.0 C 5.6 70.6 2.5 67.5 1.1 63.6 C 0.0 60.1 0.0 56.8 0.0 50.1 L 0.0 22.9 C 0.0 16.4 0.0 13.0 1.1 9.5 C 2.5 5.6 5.6 2.5 9.5 1.1 C 13.0 0.0 16.4 0.0 23.0 0.0 Z M 22.9 0.0 " fill="none" stroke="#C39719" stroke-width="2.00" transform="matrix(1.00, 0.00, 0.00, -1.00, 765.0, 804.2)"></path><g><clipPath id="clip-5114"><path d="M 759.1 731.1 L 1038.7 731.1 L 1038.7 804.2 L 759.1 804.2 Z M 759.1 731.1 "></path></clipPath><g clip-path="url(#clip-5114)"><text xml:space="preserve" font-family="GillSans" font-size="40.0" fill="#000000" transform="matrix(1.00, 0.00, -0.00, -1.00, 871.0, 754.0)">s</text><text xml:space="preserve" font-family="GillSans" font-size="40.0" fill="#000000" transform="matrix(1.00, 0.00, -0.00, -1.00, 886.4, 754.0)">u</text><text xml:space="preserve" font-family="GillSans" font-size="40.0" fill="#000000" transform="matrix(1.00, 0.00, -0.00, -1.00, 906.4, 754.0)">n</text></g></g><path d="M 1151.9 804.2 L 1373.7 804.2 C 1380.2 804.2 1383.6 804.2 1387.1 803.1 C 1391.0 801.6 1394.0 798.6 1395.5 794.7 C 1396.6 791.2 1396.6 787.8 1396.6 781.2 L 1396.6 754.0 C 1396.6 747.4 1396.6 744.1 1395.5 740.5 C 1394.0 736.7 1391.0 733.6 1387.1 732.2 C 1383.6 731.1 1380.2 731.1 1373.6 731.1 L 1151.9 731.1 C 1145.4 731.1 1142.0 731.1 1138.5 732.2 C 1134.6 733.6 1131.5 736.7 1130.1 740.5 C 1129.0 744.1 1129.0 747.4 1129.0 754.1 L 1129.0 781.3 C 1129.0 787.8 1129.0 791.2 1130.1 794.7 C 1131.5 798.6 1134.6 801.6 1138.5 803.1 C 1142.0 804.2 1145.4 804.2 1152.0 804.2 Z M 1151.9 804.2 " fill="#FEFFFF"></path><path d="M 22.9 0.0 L 244.6 0.0 C 251.2 0.0 254.6 0.0 258.1 1.1 C 262.0 2.5 265.0 5.6 266.5 9.5 C 267.6 13.0 267.6 16.4 267.6 23.0 L 267.6 50.2 C 267.6 56.8 267.6 60.1 266.5 63.6 C 265.0 67.5 262.0 70.6 258.1 72.0 C 254.6 73.1 251.2 73.1 244.5 73.1 L 22.9 73.1 C 16.4 73.1 13.0 73.1 9.5 72.0 C 5.6 70.6 2.5 67.5 1.1 63.6 C 0.0 60.1 0.0 56.8 0.0 50.1 L 0.0 22.9 C 0.0 16.4 0.0 13.0 1.1 9.5 C 2.5 5.6 5.6 2.5 9.5 1.1 C 13.0 0.0 16.4 0.0 23.0 0.0 Z M 22.9 0.0 " fill="none" stroke="#00872A" stroke-width="2.00" transform="matrix(1.00, 0.00, 0.00, -1.00, 1129.0, 804.2)"></path><g><clipPath id="clip-5115"><path d="M 1123.1 731.1 L 1402.7 731.1 L 1402.7 804.2 L 1123.1 804.2 Z M 1123.1 731.1 "></path></clipPath><g clip-path="url(#clip-5115)"><text xml:space="preserve" font-family="GillSans" font-size="40.0" fill="#000000" transform="matrix(1.00, 0.00, -0.00, -1.00, 1200.0, 754.0)">c</text><text xml:space="preserve" font-family="GillSans" font-size="40.0" fill="#000000" transform="matrix(1.00, 0.00, -0.00, -1.00, 1217.5, 754.0)">o</text><text xml:space="preserve" font-family="GillSans" font-size="40.0" fill="#000000" transform="matrix(1.00, 0.00, -0.00, -1.00, 1239.6, 754.0)">n</text><text xml:space="preserve" font-family="GillSans" font-size="40.0" fill="#000000" transform="matrix(1.00, 0.00, -0.00, -1.00, 1259.0, 754.0)">v</text><text xml:space="preserve" font-family="GillSans" font-size="40.0" fill="#000000" transform="matrix(1.00, 0.00, -0.00, -1.00, 1275.7, 754.0)">e</text><text xml:space="preserve" font-family="GillSans" font-size="40.0" fill="#000000" transform="matrix(1.00, 0.00, -0.00, -1.00, 1294.9, 754.0)">r</text><text xml:space="preserve" font-family="GillSans" font-size="40.0" fill="#000000" transform="matrix(1.00, 0.00, -0.00, -1.00, 1311.5, 754.0)">t</text></g></g><path d="M 1515.9 804.2 L 1737.7 804.2 C 1744.2 804.2 1747.6 804.2 1751.1 803.1 C 1755.0 801.6 1758.0 798.6 1759.5 794.7 C 1760.6 791.2 1760.6 787.8 1760.6 781.2 L 1760.6 754.0 C 1760.6 747.4 1760.6 744.1 1759.5 740.5 C 1758.0 736.7 1755.0 733.6 1751.1 732.2 C 1747.6 731.1 1744.2 731.1 1737.6 731.1 L 1515.9 731.1 C 1509.4 731.1 1506.0 731.1 1502.5 732.2 C 1498.6 733.6 1495.5 736.7 1494.1 740.5 C 1493.0 744.1 1493.0 747.4 1493.0 754.1 L 1493.0 781.3 C 1493.0 787.8 1493.0 791.2 1494.1 794.7 C 1495.5 798.6 1498.6 801.6 1502.5 803.1 C 1506.0 804.2 1509.4 804.2 1516.0 804.2 Z M 1515.9 804.2 " fill="#FEFFFF"></path><path d="M 22.9 0.0 L 244.6 0.0 C 251.2 0.0 254.6 0.0 258.1 1.1 C 262.0 2.5 265.0 5.6 266.5 9.5 C 267.6 13.0 267.6 16.4 267.6 23.0 L 267.6 50.2 C 267.6 56.8 267.6 60.1 266.5 63.6 C 265.0 67.5 262.0 70.6 258.1 72.0 C 254.6 73.1 251.2 73.1 244.5 73.1 L 22.9 73.1 C 16.4 73.1 13.0 73.1 9.5 72.0 C 5.6 70.6 2.5 67.5 1.1 63.6 C 0.0 60.1 0.0 56.8 0.0 50.1 L 0.0 22.9 C 0.0 16.4 0.0 13.0 1.1 9.5 C 2.5 5.6 5.6 2.5 9.5 1.1 C 13.0 0.0 16.4 0.0 23.0 0.0 Z M 22.9 0.0 " fill="none" stroke="#C82505" stroke-width="2.00" transform="matrix(1.00, 0.00, 0.00, -1.00, 1493.0, 804.2)"></path><g><clipPath id="clip-5116"><path d="M 1487.1 731.1 L 1766.7 731.1 L 1766.7 804.2 L 1487.1 804.2 Z M 1487.1 731.1 "></path></clipPath><g clip-path="url(#clip-5116)"><text xml:space="preserve" font-family="GillSans" font-size="40.0" fill="#000000" transform="matrix(1.00, 0.00, -0.00, -1.00, 1528.0, 754.0)">w</text><text xml:space="preserve" font-family="GillSans" font-size="40.0" fill="#000000" transform="matrix(1.00, 0.00, -0.00, -1.00, 1556.8, 754.0)">a</text><text xml:space="preserve" font-family="GillSans" font-size="40.0" fill="#000000" transform="matrix(1.00, 0.00, -0.00, -1.00, 1573.8, 754.0)">t</text><text xml:space="preserve" font-family="GillSans" font-size="40.0" fill="#000000" transform="matrix(1.00, 0.00, -0.00, -1.00, 1587.2, 754.0)">e</text><text xml:space="preserve" font-family="GillSans" font-size="40.0" fill="#000000" transform="matrix(1.00, 0.00, -0.00, -1.00, 1606.3, 754.0)">r</text><text xml:space="preserve" font-family="GillSans" font-size="40.0" fill="#000000" transform="matrix(1.00, 0.00, -0.00, -1.00, 1622.2, 754.0)"> </text><text xml:space="preserve" font-family="GillSans" font-size="40.0" fill="#000000" transform="matrix(1.00, 0.00, -0.00, -1.00, 1633.3, 754.0)">v</text><text xml:space="preserve" font-family="GillSans" font-size="40.0" fill="#000000" transform="matrix(1.00, 0.00, -0.00, -1.00, 1650.8, 754.0)">a</text><text xml:space="preserve" font-family="GillSans" font-size="40.0" fill="#000000" transform="matrix(1.00, 0.00, -0.00, -1.00, 1667.5, 754.0)">p</text><text xml:space="preserve" font-family="GillSans" font-size="40.0" fill="#000000" transform="matrix(1.00, 0.00, -0.00, -1.00, 1687.5, 754.0)">o</text><text xml:space="preserve" font-family="GillSans" font-size="40.0" fill="#000000" transform="matrix(1.00, 0.00, -0.00, -1.00, 1709.5, 754.0)">r</text></g></g><path d="M 423.9 714.2 L 645.7 714.2 C 652.2 714.2 655.6 714.2 659.1 713.1 C 663.0 711.6 666.1 708.6 667.5 704.7 C 668.6 701.2 668.6 697.8 668.6 691.2 L 668.6 664.0 C 668.6 657.4 668.6 654.1 667.5 650.5 C 666.1 646.7 663.0 643.6 659.1 642.2 C 655.6 641.1 652.2 641.1 645.6 641.1 L 423.9 641.1 C 417.4 641.1 414.0 641.1 410.5 642.2 C 406.6 643.6 403.5 646.7 402.1 650.5 C 401.0 654.1 401.0 657.4 401.0 664.1 L 401.0 691.3 C 401.0 697.8 401.0 701.2 402.1 704.7 C 403.5 708.6 406.6 711.6 410.5 713.1 C 414.0 714.2 417.4 714.2 424.0 714.2 Z M 423.9 714.2 " fill="#FEFFFF"></path><path d="M 22.9 0.0 L 244.6 0.0 C 251.2 0.0 254.6 0.0 258.1 1.1 C 262.0 2.5 265.0 5.6 266.5 9.5 C 267.6 13.0 267.6 16.4 267.6 23.0 L 267.6 50.2 C 267.6 56.8 267.6 60.1 266.5 63.6 C 265.0 67.5 262.0 70.6 258.1 72.0 C 254.6 73.1 251.2 73.1 244.5 73.1 L 22.9 73.1 C 16.4 73.1 13.0 73.1 9.5 72.0 C 5.6 70.6 2.5 67.5 1.1 63.6 C 0.0 60.1 0.0 56.8 0.0 50.1 L 0.0 22.9 C 0.0 16.4 0.0 13.0 1.1 9.5 C 2.5 5.6 5.6 2.5 9.5 1.1 C 13.0 0.0 16.4 0.0 23.0 0.0 Z M 22.9 0.0 " fill="none" stroke="#0264C0" stroke-width="2.00" transform="matrix(1.00, 0.00, 0.00, -1.00, 401.0, 714.2)"></path><g><clipPath id="clip-5117"><path d="M 395.1 641.1 L 674.7 641.1 L 674.7 714.2 L 395.1 714.2 Z M 395.1 641.1 "></path></clipPath><g clip-path="url(#clip-5117)"><text xml:space="preserve" font-family="GillSans" font-size="40.0" fill="#000000" transform="matrix(1.00, 0.00, -0.00, -1.00, 492.0, 664.0)">l</text><text xml:space="preserve" font-family="GillSans" font-size="40.0" fill="#000000" transform="matrix(1.00, 0.00, -0.00, -1.00, 500.8, 664.0)">i</text><text xml:space="preserve" font-family="GillSans" font-size="40.0" fill="#000000" transform="matrix(1.00, 0.00, -0.00, -1.00, 509.6, 664.0)">q</text><text xml:space="preserve" font-family="GillSans" font-size="40.0" fill="#000000" transform="matrix(1.00, 0.00, -0.00, -1.00, 529.6, 664.0)">u</text><text xml:space="preserve" font-family="GillSans" font-size="40.0" fill="#000000" transform="matrix(1.00, 0.00, -0.00, -1.00, 549.6, 664.0)">i</text><text xml:space="preserve" font-family="GillSans" font-size="40.0" fill="#000000" transform="matrix(1.00, 0.00, -0.00, -1.00, 558.3, 664.0)">d</text></g></g><path d="M 787.9 714.2 L 1009.7 714.2 C 1016.2 714.2 1019.6 714.2 1023.1 713.1 C 1027.0 711.6 1030.0 708.6 1031.5 704.7 C 1032.6 701.2 1032.6 697.8 1032.6 691.2 L 1032.6 664.0 C 1032.6 657.4 1032.6 654.1 1031.5 650.5 C 1030.0 646.7 1027.0 643.6 1023.1 642.2 C 1019.6 641.1 1016.2 641.1 1009.6 641.1 L 787.9 641.1 C 781.4 641.1 778.0 641.1 774.5 642.2 C 770.6 643.6 767.5 646.7 766.1 650.5 C 765.0 654.1 765.0 657.4 765.0 664.1 L 765.0 691.3 C 765.0 697.8 765.0 701.2 766.1 704.7 C 767.5 708.6 770.6 711.6 774.5 713.1 C 778.0 714.2 781.4 714.2 788.0 714.2 Z M 787.9 714.2 " fill="#FEFFFF"></path><path d="M 22.9 0.0 L 244.6 0.0 C 251.2 0.0 254.6 0.0 258.1 1.1 C 262.0 2.5 265.0 5.6 266.5 9.5 C 267.6 13.0 267.6 16.4 267.6 23.0 L 267.6 50.2 C 267.6 56.8 267.6 60.1 266.5 63.6 C 265.0 67.5 262.0 70.6 258.1 72.0 C 254.6 73.1 251.2 73.1 244.5 73.1 L 22.9 73.1 C 16.4 73.1 13.0 73.1 9.5 72.0 C 5.6 70.6 2.5 67.5 1.1 63.6 C 0.0 60.1 0.0 56.8 0.0 50.1 L 0.0 22.9 C 0.0 16.4 0.0 13.0 1.1 9.5 C 2.5 5.6 5.6 2.5 9.5 1.1 C 13.0 0.0 16.4 0.0 23.0 0.0 Z M 22.9 0.0 " fill="none" stroke="#C39719" stroke-width="2.00" transform="matrix(1.00, 0.00, 0.00, -1.00, 765.0, 714.2)"></path><g><clipPath id="clip-5118"><path d="M 759.1 641.1 L 1038.7 641.1 L 1038.7 714.2 L 759.1 714.2 Z M 759.1 641.1 "></path></clipPath><g clip-path="url(#clip-5118)"><text xml:space="preserve" font-family="GillSans" font-size="40.0" fill="#000000" transform="matrix(1.00, 0.00, -0.00, -1.00, 864.0, 664.0)">h</text><text xml:space="preserve" font-family="GillSans" font-size="40.0" fill="#000000" transform="matrix(1.00, 0.00, -0.00, -1.00, 884.0, 664.0)">e</text><text xml:space="preserve" font-family="GillSans" font-size="40.0" fill="#000000" transform="matrix(1.00, 0.00, -0.00, -1.00, 903.2, 664.0)">a</text><text xml:space="preserve" font-family="GillSans" font-size="40.0" fill="#000000" transform="matrix(1.00, 0.00, -0.00, -1.00, 920.2, 664.0)">t</text></g></g><path d="M 1151.9 714.2 L 1373.7 714.2 C 1380.2 714.2 1383.6 714.2 1387.1 713.1 C 1391.0 711.6 1394.0 708.6 1395.5 704.7 C 1396.6 701.2 1396.6 697.8 1396.6 691.2 L 1396.6 664.0 C 1396.6 657.4 1396.6 654.1 1395.5 650.5 C 1394.0 646.7 1391.0 643.6 1387.1 642.2 C 1383.6 641.1 1380.2 641.1 1373.6 641.1 L 1151.9 641.1 C 1145.4 641.1 1142.0 641.1 1138.5 642.2 C 1134.6 643.6 1131.5 646.7 1130.1 650.5 C 1129.0 654.1 1129.0 657.4 1129.0 664.1 L 1129.0 691.3 C 1129.0 697.8 1129.0 701.2 1130.1 704.7 C 1131.5 708.6 1134.6 711.6 1138.5 713.1 C 1142.0 714.2 1145.4 714.2 1152.0 714.2 Z M 1151.9 714.2 " fill="#FEFFFF"></path><path d="M 22.9 0.0 L 244.6 0.0 C 251.2 0.0 254.6 0.0 258.1 1.1 C 262.0 2.5 265.0 5.6 266.5 9.5 C 267.6 13.0 267.6 16.4 267.6 23.0 L 267.6 50.2 C 267.6 56.8 267.6 60.1 266.5 63.6 C 265.0 67.5 262.0 70.6 258.1 72.0 C 254.6 73.1 251.2 73.1 244.5 73.1 L 22.9 73.1 C 16.4 73.1 13.0 73.1 9.5 72.0 C 5.6 70.6 2.5 67.5 1.1 63.6 C 0.0 60.1 0.0 56.8 0.0 50.1 L 0.0 22.9 C 0.0 16.4 0.0 13.0 1.1 9.5 C 2.5 5.6 5.6 2.5 9.5 1.1 C 13.0 0.0 16.4 0.0 23.0 0.0 Z M 22.9 0.0 " fill="none" stroke="#00872A" stroke-width="2.00" transform="matrix(1.00, 0.00, 0.00, -1.00, 1129.0, 714.2)"></path><g><clipPath id="clip-5119"><path d="M 1123.1 641.1 L 1402.7 641.1 L 1402.7 714.2 L 1123.1 714.2 Z M 1123.1 641.1 "></path></clipPath><g clip-path="url(#clip-5119)"><text xml:space="preserve" font-family="GillSans" font-size="40.0" fill="#000000" transform="matrix(1.00, 0.00, -0.00, -1.00, 1183.0, 664.0)">t</text><text xml:space="preserve" font-family="GillSans" font-size="40.0" fill="#000000" transform="matrix(1.00, 0.00, -0.00, -1.00, 1196.3, 664.0)">r</text><text xml:space="preserve" font-family="GillSans" font-size="40.0" fill="#000000" transform="matrix(1.00, 0.00, -0.00, -1.00, 1212.2, 664.0)">a</text><text xml:space="preserve" font-family="GillSans" font-size="40.0" fill="#000000" transform="matrix(1.00, 0.00, -0.00, -1.00, 1229.2, 664.0)">n</text><text xml:space="preserve" font-family="GillSans" font-size="40.0" fill="#000000" transform="matrix(1.00, 0.00, -0.00, -1.00, 1249.2, 664.0)">s</text><text xml:space="preserve" font-family="GillSans" font-size="40.0" fill="#000000" transform="matrix(1.00, 0.00, -0.00, -1.00, 1264.6, 664.0)">f</text><text xml:space="preserve" font-family="GillSans" font-size="40.0" fill="#000000" transform="matrix(1.00, 0.00, -0.00, -1.00, 1274.2, 664.0)">o</text><text xml:space="preserve" font-family="GillSans" font-size="40.0" fill="#000000" transform="matrix(1.00, 0.00, -0.00, -1.00, 1296.3, 664.0)">r</text><text xml:space="preserve" font-family="GillSans" font-size="40.0" fill="#000000" transform="matrix(1.00, 0.00, -0.00, -1.00, 1312.1, 664.0)">m</text></g></g><path d="M 1515.9 714.2 L 1737.7 714.2 C 1744.2 714.2 1747.6 714.2 1751.1 713.1 C 1755.0 711.6 1758.0 708.6 1759.5 704.7 C 1760.6 701.2 1760.6 697.8 1760.6 691.2 L 1760.6 664.0 C 1760.6 657.4 1760.6 654.1 1759.5 650.5 C 1758.0 646.7 1755.0 643.6 1751.1 642.2 C 1747.6 641.1 1744.2 641.1 1737.6 641.1 L 1515.9 641.1 C 1509.4 641.1 1506.0 641.1 1502.5 642.2 C 1498.6 643.6 1495.5 646.7 1494.1 650.5 C 1493.0 654.1 1493.0 657.4 1493.0 664.1 L 1493.0 691.3 C 1493.0 697.8 1493.0 701.2 1494.1 704.7 C 1495.5 708.6 1498.6 711.6 1502.5 713.1 C 1506.0 714.2 1509.4 714.2 1516.0 714.2 Z M 1515.9 714.2 " fill="#FEFFFF"></path><path d="M 22.9 0.0 L 244.6 0.0 C 251.2 0.0 254.6 0.0 258.1 1.1 C 262.0 2.5 265.0 5.6 266.5 9.5 C 267.6 13.0 267.6 16.4 267.6 23.0 L 267.6 50.2 C 267.6 56.8 267.6 60.1 266.5 63.6 C 265.0 67.5 262.0 70.6 258.1 72.0 C 254.6 73.1 251.2 73.1 244.5 73.1 L 22.9 73.1 C 16.4 73.1 13.0 73.1 9.5 72.0 C 5.6 70.6 2.5 67.5 1.1 63.6 C 0.0 60.1 0.0 56.8 0.0 50.1 L 0.0 22.9 C 0.0 16.4 0.0 13.0 1.1 9.5 C 2.5 5.6 5.6 2.5 9.5 1.1 C 13.0 0.0 16.4 0.0 23.0 0.0 Z M 22.9 0.0 " fill="none" stroke="#C82505" stroke-width="2.00" transform="matrix(1.00, 0.00, 0.00, -1.00, 1493.0, 714.2)"></path><g><clipPath id="clip-5120"><path d="M 1487.1 641.1 L 1766.7 641.1 L 1766.7 714.2 L 1487.1 714.2 Z M 1487.1 641.1 "></path></clipPath><g clip-path="url(#clip-5120)"><text xml:space="preserve" font-family="GillSans" font-size="40.0" fill="#000000" transform="matrix(1.00, 0.00, -0.00, -1.00, 1602.0, 664.0)">g</text><text xml:space="preserve" font-family="GillSans" font-size="40.0" fill="#000000" transform="matrix(1.00, 0.00, -0.00, -1.00, 1619.1, 664.0)">a</text><text xml:space="preserve" font-family="GillSans" font-size="40.0" fill="#000000" transform="matrix(1.00, 0.00, -0.00, -1.00, 1636.1, 664.0)">s</text></g></g><path d="M 423.9 624.2 L 645.7 624.2 C 652.2 624.2 655.6 624.2 659.1 623.1 C 663.0 621.6 666.1 618.6 667.5 614.7 C 668.6 611.2 668.6 607.8 668.6 601.2 L 668.6 574.0 C 668.6 567.4 668.6 564.1 667.5 560.5 C 666.1 556.7 663.0 553.6 659.1 552.2 C 655.6 551.1 652.2 551.1 645.6 551.1 L 423.9 551.1 C 417.4 551.1 414.0 551.1 410.5 552.2 C 406.6 553.6 403.5 556.7 402.1 560.5 C 401.0 564.1 401.0 567.4 401.0 574.1 L 401.0 601.3 C 401.0 607.8 401.0 611.2 402.1 614.7 C 403.5 618.6 406.6 621.6 410.5 623.1 C 414.0 624.2 417.4 624.2 424.0 624.2 Z M 423.9 624.2 " fill="#FEFFFF"></path><path d="M 22.9 0.0 L 244.6 0.0 C 251.2 0.0 254.6 0.0 258.1 1.1 C 262.0 2.5 265.0 5.6 266.5 9.5 C 267.6 13.0 267.6 16.4 267.6 23.0 L 267.6 50.2 C 267.6 56.8 267.6 60.1 266.5 63.6 C 265.0 67.5 262.0 70.6 258.1 72.0 C 254.6 73.1 251.2 73.1 244.5 73.1 L 22.9 73.1 C 16.4 73.1 13.0 73.1 9.5 72.0 C 5.6 70.6 2.5 67.5 1.1 63.6 C 0.0 60.1 0.0 56.8 0.0 50.1 L 0.0 22.9 C 0.0 16.4 0.0 13.0 1.1 9.5 C 2.5 5.6 5.6 2.5 9.5 1.1 C 13.0 0.0 16.4 0.0 23.0 0.0 Z M 22.9 0.0 " fill="none" stroke="#0264C0" stroke-width="2.00" transform="matrix(1.00, 0.00, 0.00, -1.00, 401.0, 624.2)"></path><g><clipPath id="clip-5121"><path d="M 395.1 551.1 L 674.7 551.1 L 674.7 624.2 L 395.1 624.2 Z M 395.1 551.1 "></path></clipPath><g clip-path="url(#clip-5121)"><text xml:space="preserve" font-family="GillSans" font-size="40.0" fill="#000000" transform="matrix(1.00, 0.00, -0.00, -1.00, 463.0, 574.0)">m</text><text xml:space="preserve" font-family="GillSans" font-size="40.0" fill="#000000" transform="matrix(1.00, 0.00, -0.00, -1.00, 493.8, 574.0)">o</text><text xml:space="preserve" font-family="GillSans" font-size="40.0" fill="#000000" transform="matrix(1.00, 0.00, -0.00, -1.00, 515.9, 574.0)">i</text><text xml:space="preserve" font-family="GillSans" font-size="40.0" fill="#000000" transform="matrix(1.00, 0.00, -0.00, -1.00, 524.7, 574.0)">s</text><text xml:space="preserve" font-family="GillSans" font-size="40.0" fill="#000000" transform="matrix(1.00, 0.00, -0.00, -1.00, 540.1, 574.0)">t</text><text xml:space="preserve" font-family="GillSans" font-size="40.0" fill="#000000" transform="matrix(1.00, 0.00, -0.00, -1.00, 553.4, 574.0)">u</text><text xml:space="preserve" font-family="GillSans" font-size="40.0" fill="#000000" transform="matrix(1.00, 0.00, -0.00, -1.00, 573.4, 574.0)">r</text><text xml:space="preserve" font-family="GillSans" font-size="40.0" fill="#000000" transform="matrix(1.00, 0.00, -0.00, -1.00, 588.4, 574.0)">e</text></g></g><path d="M 787.9 624.2 L 1009.7 624.2 C 1016.2 624.2 1019.6 624.2 1023.1 623.1 C 1027.0 621.6 1030.0 618.6 1031.5 614.7 C 1032.6 611.2 1032.6 607.8 1032.6 601.2 L 1032.6 574.0 C 1032.6 567.4 1032.6 564.1 1031.5 560.5 C 1030.0 556.7 1027.0 553.6 1023.1 552.2 C 1019.6 551.1 1016.2 551.1 1009.6 551.1 L 787.9 551.1 C 781.4 551.1 778.0 551.1 774.5 552.2 C 770.6 553.6 767.5 556.7 766.1 560.5 C 765.0 564.1 765.0 567.4 765.0 574.1 L 765.0 601.3 C 765.0 607.8 765.0 611.2 766.1 614.7 C 767.5 618.6 770.6 621.6 774.5 623.1 C 778.0 624.2 781.4 624.2 788.0 624.2 Z M 787.9 624.2 " fill="#FEFFFF"></path><path d="M 22.9 0.0 L 244.6 0.0 C 251.2 0.0 254.6 0.0 258.1 1.1 C 262.0 2.5 265.0 5.6 266.5 9.5 C 267.6 13.0 267.6 16.4 267.6 23.0 L 267.6 50.2 C 267.6 56.8 267.6 60.1 266.5 63.6 C 265.0 67.5 262.0 70.6 258.1 72.0 C 254.6 73.1 251.2 73.1 244.5 73.1 L 22.9 73.1 C 16.4 73.1 13.0 73.1 9.5 72.0 C 5.6 70.6 2.5 67.5 1.1 63.6 C 0.0 60.1 0.0 56.8 0.0 50.1 L 0.0 22.9 C 0.0 16.4 0.0 13.0 1.1 9.5 C 2.5 5.6 5.6 2.5 9.5 1.1 C 13.0 0.0 16.4 0.0 23.0 0.0 Z M 22.9 0.0 " fill="none" stroke="#C39719" stroke-width="2.00" transform="matrix(1.00, 0.00, 0.00, -1.00, 765.0, 624.2)"></path><g><clipPath id="clip-5122"><path d="M 759.1 551.1 L 1038.7 551.1 L 1038.7 624.2 L 759.1 624.2 Z M 759.1 551.1 "></path></clipPath><g clip-path="url(#clip-5122)"><text xml:space="preserve" font-family="GillSans" font-size="40.0" fill="#000000" transform="matrix(1.00, 0.00, -0.00, -1.00, 864.0, 574.0)">h</text><text xml:space="preserve" font-family="GillSans" font-size="40.0" fill="#000000" transform="matrix(1.00, 0.00, -0.00, -1.00, 884.0, 574.0)">e</text><text xml:space="preserve" font-family="GillSans" font-size="40.0" fill="#000000" transform="matrix(1.00, 0.00, -0.00, -1.00, 903.2, 574.0)">a</text><text xml:space="preserve" font-family="GillSans" font-size="40.0" fill="#000000" transform="matrix(1.00, 0.00, -0.00, -1.00, 920.2, 574.0)">t</text></g></g><path d="M 1151.9 622.4 L 1373.7 622.4 C 1380.2 622.4 1383.6 622.4 1387.1 621.3 C 1391.0 619.9 1394.0 616.8 1395.5 613.0 C 1396.6 609.4 1396.6 606.1 1396.6 599.4 L 1396.6 572.3 C 1396.6 565.7 1396.6 562.3 1395.5 558.8 C 1394.0 554.9 1391.0 551.9 1387.1 550.4 C 1383.6 549.3 1380.2 549.3 1373.6 549.3 L 1151.9 549.3 C 1145.4 549.3 1142.0 549.3 1138.5 550.4 C 1134.6 551.9 1131.5 554.9 1130.1 558.8 C 1129.0 562.3 1129.0 565.7 1129.0 572.4 L 1129.0 599.5 C 1129.0 606.1 1129.0 609.4 1130.1 613.0 C 1131.5 616.8 1134.6 619.9 1138.5 621.3 C 1142.0 622.4 1145.4 622.4 1152.0 622.4 Z M 1151.9 622.4 " fill="#FEFFFF"></path><path d="M 22.9 0.0 L 244.6 0.0 C 251.2 0.0 254.6 0.0 258.1 1.1 C 262.0 2.5 265.0 5.6 266.5 9.5 C 267.6 13.0 267.6 16.4 267.6 23.0 L 267.6 50.2 C 267.6 56.8 267.6 60.1 266.5 63.6 C 265.0 67.5 262.0 70.6 258.1 72.0 C 254.6 73.1 251.2 73.1 244.5 73.1 L 22.9 73.1 C 16.4 73.1 13.0 73.1 9.5 72.0 C 5.6 70.6 2.5 67.5 1.1 63.6 C 0.0 60.1 0.0 56.8 0.0 50.1 L 0.0 22.9 C 0.0 16.4 0.0 13.0 1.1 9.5 C 2.5 5.6 5.6 2.5 9.5 1.1 C 13.0 0.0 16.4 0.0 23.0 0.0 Z M 22.9 0.0 " fill="none" stroke="#00872A" stroke-width="2.00" transform="matrix(1.00, 0.00, 0.00, -1.00, 1129.0, 622.4)"></path><g><clipPath id="clip-5123"><path d="M 1123.1 549.3 L 1402.7 549.3 L 1402.7 622.4 L 1123.1 622.4 Z M 1123.1 549.3 "></path></clipPath><g clip-path="url(#clip-5123)"><text xml:space="preserve" font-family="GillSans" font-size="40.0" fill="#000000" transform="matrix(1.00, 0.00, -0.00, -1.00, 1163.0, 573.0)">s</text><text xml:space="preserve" font-family="GillSans" font-size="40.0" fill="#000000" transform="matrix(1.00, 0.00, -0.00, -1.00, 1178.4, 573.0)">t</text><text xml:space="preserve" font-family="GillSans" font-size="40.0" fill="#000000" transform="matrix(1.00, 0.00, -0.00, -1.00, 1191.7, 573.0)">a</text><text xml:space="preserve" font-family="GillSans" font-size="40.0" fill="#000000" transform="matrix(1.00, 0.00, -0.00, -1.00, 1208.8, 573.0)">t</text><text xml:space="preserve" font-family="GillSans" font-size="40.0" fill="#000000" transform="matrix(1.00, 0.00, -0.00, -1.00, 1222.1, 573.0)">e</text><text xml:space="preserve" font-family="GillSans" font-size="40.0" fill="#000000" transform="matrix(1.00, 0.00, -0.00, -1.00, 1241.2, 573.0)"> </text><text xml:space="preserve" font-family="GillSans" font-size="40.0" fill="#000000" transform="matrix(1.00, 0.00, -0.00, -1.00, 1252.4, 573.0)">c</text><text xml:space="preserve" font-family="GillSans" font-size="40.0" fill="#000000" transform="matrix(1.00, 0.00, -0.00, -1.00, 1269.9, 573.0)">h</text><text xml:space="preserve" font-family="GillSans" font-size="40.0" fill="#000000" transform="matrix(1.00, 0.00, -0.00, -1.00, 1289.9, 573.0)">a</text><text xml:space="preserve" font-family="GillSans" font-size="40.0" fill="#000000" transform="matrix(1.00, 0.00, -0.00, -1.00, 1306.9, 573.0)">n</text><text xml:space="preserve" font-family="GillSans" font-size="40.0" fill="#000000" transform="matrix(1.00, 0.00, -0.00, -1.00, 1326.9, 573.0)">g</text><text xml:space="preserve" font-family="GillSans" font-size="40.0" fill="#000000" transform="matrix(1.00, 0.00, -0.00, -1.00, 1344.0, 573.0)">e</text></g></g><path d="M 1515.9 624.2 L 1737.7 624.2 C 1744.2 624.2 1747.6 624.2 1751.1 623.1 C 1755.0 621.6 1758.0 618.6 1759.5 614.7 C 1760.6 611.2 1760.6 607.8 1760.6 601.2 L 1760.6 574.0 C 1760.6 567.4 1760.6 564.1 1759.5 560.5 C 1758.0 556.7 1755.0 553.6 1751.1 552.2 C 1747.6 551.1 1744.2 551.1 1737.6 551.1 L 1515.9 551.1 C 1509.4 551.1 1506.0 551.1 1502.5 552.2 C 1498.6 553.6 1495.5 556.7 1494.1 560.5 C 1493.0 564.1 1493.0 567.4 1493.0 574.1 L 1493.0 601.3 C 1493.0 607.8 1493.0 611.2 1494.1 614.7 C 1495.5 618.6 1498.6 621.6 1502.5 623.1 C 1506.0 624.2 1509.4 624.2 1516.0 624.2 Z M 1515.9 624.2 " fill="#FEFFFF"></path><path d="M 22.9 0.0 L 244.6 0.0 C 251.2 0.0 254.6 0.0 258.1 1.1 C 262.0 2.5 265.0 5.6 266.5 9.5 C 267.6 13.0 267.6 16.4 267.6 23.0 L 267.6 50.2 C 267.6 56.8 267.6 60.1 266.5 63.6 C 265.0 67.5 262.0 70.6 258.1 72.0 C 254.6 73.1 251.2 73.1 244.5 73.1 L 22.9 73.1 C 16.4 73.1 13.0 73.1 9.5 72.0 C 5.6 70.6 2.5 67.5 1.1 63.6 C 0.0 60.1 0.0 56.8 0.0 50.1 L 0.0 22.9 C 0.0 16.4 0.0 13.0 1.1 9.5 C 2.5 5.6 5.6 2.5 9.5 1.1 C 13.0 0.0 16.4 0.0 23.0 0.0 Z M 22.9 0.0 " fill="none" stroke="#C82505" stroke-width="2.00" transform="matrix(1.00, 0.00, 0.00, -1.00, 1493.0, 624.2)"></path><g><clipPath id="clip-5124"><path d="M 1487.1 551.1 L 1766.7 551.1 L 1766.7 624.2 L 1487.1 624.2 Z M 1487.1 551.1 "></path></clipPath><g clip-path="url(#clip-5124)"><text xml:space="preserve" font-family="GillSans" font-size="40.0" fill="#000000" transform="matrix(1.00, 0.00, -0.00, -1.00, 1581.0, 574.0)">v</text><text xml:space="preserve" font-family="GillSans" font-size="40.0" fill="#000000" transform="matrix(1.00, 0.00, -0.00, -1.00, 1598.5, 574.0)">a</text><text xml:space="preserve" font-family="GillSans" font-size="40.0" fill="#000000" transform="matrix(1.00, 0.00, -0.00, -1.00, 1615.2, 574.0)">p</text><text xml:space="preserve" font-family="GillSans" font-size="40.0" fill="#000000" transform="matrix(1.00, 0.00, -0.00, -1.00, 1635.2, 574.0)">o</text><text xml:space="preserve" font-family="GillSans" font-size="40.0" fill="#000000" transform="matrix(1.00, 0.00, -0.00, -1.00, 1657.3, 574.0)">r</text></g></g><path d="M 423.9 534.2 L 645.7 534.2 C 652.2 534.2 655.6 534.2 659.1 533.1 C 663.0 531.6 666.1 528.6 667.5 524.7 C 668.6 521.2 668.6 517.8 668.6 511.2 L 668.6 484.0 C 668.6 477.4 668.6 474.1 667.5 470.5 C 666.1 466.7 663.0 463.6 659.1 462.2 C 655.6 461.1 652.2 461.1 645.6 461.1 L 423.9 461.1 C 417.4 461.1 414.0 461.1 410.5 462.2 C 406.6 463.6 403.5 466.7 402.1 470.5 C 401.0 474.1 401.0 477.4 401.0 484.1 L 401.0 511.3 C 401.0 517.8 401.0 521.2 402.1 524.7 C 403.5 528.6 406.6 531.6 410.5 533.1 C 414.0 534.2 417.4 534.2 424.0 534.2 Z M 423.9 534.2 " fill="#FEFFFF"></path><path d="M 22.9 0.0 L 244.6 0.0 C 251.2 0.0 254.6 0.0 258.1 1.1 C 262.0 2.5 265.0 5.6 266.5 9.5 C 267.6 13.0 267.6 16.4 267.6 23.0 L 267.6 50.2 C 267.6 56.8 267.6 60.1 266.5 63.6 C 265.0 67.5 262.0 70.6 258.1 72.0 C 254.6 73.1 251.2 73.1 244.5 73.1 L 22.9 73.1 C 16.4 73.1 13.0 73.1 9.5 72.0 C 5.6 70.6 2.5 67.5 1.1 63.6 C 0.0 60.1 0.0 56.8 0.0 50.1 L 0.0 22.9 C 0.0 16.4 0.0 13.0 1.1 9.5 C 2.5 5.6 5.6 2.5 9.5 1.1 C 13.0 0.0 16.4 0.0 23.0 0.0 Z M 22.9 0.0 " fill="none" stroke="#0264C0" stroke-width="2.00" transform="matrix(1.00, 0.00, 0.00, -1.00, 401.0, 534.2)"></path><g><clipPath id="clip-5125"><path d="M 395.1 461.1 L 674.7 461.1 L 674.7 534.2 L 395.1 534.2 Z M 395.1 461.1 "></path></clipPath><g clip-path="url(#clip-5125)"><text xml:space="preserve" font-family="GillSans" font-size="40.0" fill="#000000" transform="matrix(1.00, 0.00, -0.00, -1.00, 515.0, 484.0)">·</text><text xml:space="preserve" font-family="GillSans" font-size="40.0" fill="#000000" transform="matrix(1.00, 0.00, -0.00, -1.00, 528.4, 484.0)">·</text><text xml:space="preserve" font-family="GillSans" font-size="40.0" fill="#000000" transform="matrix(1.00, 0.00, -0.00, -1.00, 541.7, 484.0)">·</text></g></g><path d="M 787.9 534.2 L 1009.7 534.2 C 1016.2 534.2 1019.6 534.2 1023.1 533.1 C 1027.0 531.6 1030.0 528.6 1031.5 524.7 C 1032.6 521.2 1032.6 517.8 1032.6 511.2 L 1032.6 484.0 C 1032.6 477.4 1032.6 474.1 1031.5 470.5 C 1030.0 466.7 1027.0 463.6 1023.1 462.2 C 1019.6 461.1 1016.2 461.1 1009.6 461.1 L 787.9 461.1 C 781.4 461.1 778.0 461.1 774.5 462.2 C 770.6 463.6 767.5 466.7 766.1 470.5 C 765.0 474.1 765.0 477.4 765.0 484.1 L 765.0 511.3 C 765.0 517.8 765.0 521.2 766.1 524.7 C 767.5 528.6 770.6 531.6 774.5 533.1 C 778.0 534.2 781.4 534.2 788.0 534.2 Z M 787.9 534.2 " fill="#FEFFFF"></path><path d="M 22.9 0.0 L 244.6 0.0 C 251.2 0.0 254.6 0.0 258.1 1.1 C 262.0 2.5 265.0 5.6 266.5 9.5 C 267.6 13.0 267.6 16.4 267.6 23.0 L 267.6 50.2 C 267.6 56.8 267.6 60.1 266.5 63.6 C 265.0 67.5 262.0 70.6 258.1 72.0 C 254.6 73.1 251.2 73.1 244.5 73.1 L 22.9 73.1 C 16.4 73.1 13.0 73.1 9.5 72.0 C 5.6 70.6 2.5 67.5 1.1 63.6 C 0.0 60.1 0.0 56.8 0.0 50.1 L 0.0 22.9 C 0.0 16.4 0.0 13.0 1.1 9.5 C 2.5 5.6 5.6 2.5 9.5 1.1 C 13.0 0.0 16.4 0.0 23.0 0.0 Z M 22.9 0.0 " fill="none" stroke="#C39719" stroke-width="2.00" transform="matrix(1.00, 0.00, 0.00, -1.00, 765.0, 534.2)"></path><g><clipPath id="clip-5126"><path d="M 759.1 461.1 L 1038.7 461.1 L 1038.7 534.2 L 759.1 534.2 Z M 759.1 461.1 "></path></clipPath><g clip-path="url(#clip-5126)"><text xml:space="preserve" font-family="GillSans" font-size="40.0" fill="#000000" transform="matrix(1.00, 0.00, -0.00, -1.00, 879.0, 484.0)">·</text><text xml:space="preserve" font-family="GillSans" font-size="40.0" fill="#000000" transform="matrix(1.00, 0.00, -0.00, -1.00, 892.4, 484.0)">·</text><text xml:space="preserve" font-family="GillSans" font-size="40.0" fill="#000000" transform="matrix(1.00, 0.00, -0.00, -1.00, 905.7, 484.0)">·</text></g></g><path d="M 1151.9 534.2 L 1373.7 534.2 C 1380.2 534.2 1383.6 534.2 1387.1 533.1 C 1391.0 531.6 1394.0 528.6 1395.5 524.7 C 1396.6 521.2 1396.6 517.8 1396.6 511.2 L 1396.6 484.0 C 1396.6 477.4 1396.6 474.1 1395.5 470.5 C 1394.0 466.7 1391.0 463.6 1387.1 462.2 C 1383.6 461.1 1380.2 461.1 1373.6 461.1 L 1151.9 461.1 C 1145.4 461.1 1142.0 461.1 1138.5 462.2 C 1134.6 463.6 1131.5 466.7 1130.1 470.5 C 1129.0 474.1 1129.0 477.4 1129.0 484.1 L 1129.0 511.3 C 1129.0 517.8 1129.0 521.2 1130.1 524.7 C 1131.5 528.6 1134.6 531.6 1138.5 533.1 C 1142.0 534.2 1145.4 534.2 1152.0 534.2 Z M 1151.9 534.2 " fill="#FEFFFF"></path><path d="M 22.9 0.0 L 244.6 0.0 C 251.2 0.0 254.6 0.0 258.1 1.1 C 262.0 2.5 265.0 5.6 266.5 9.5 C 267.6 13.0 267.6 16.4 267.6 23.0 L 267.6 50.2 C 267.6 56.8 267.6 60.1 266.5 63.6 C 265.0 67.5 262.0 70.6 258.1 72.0 C 254.6 73.1 251.2 73.1 244.5 73.1 L 22.9 73.1 C 16.4 73.1 13.0 73.1 9.5 72.0 C 5.6 70.6 2.5 67.5 1.1 63.6 C 0.0 60.1 0.0 56.8 0.0 50.1 L 0.0 22.9 C 0.0 16.4 0.0 13.0 1.1 9.5 C 2.5 5.6 5.6 2.5 9.5 1.1 C 13.0 0.0 16.4 0.0 23.0 0.0 Z M 22.9 0.0 " fill="none" stroke="#00872A" stroke-width="2.00" transform="matrix(1.00, 0.00, 0.00, -1.00, 1129.0, 534.2)"></path><g><clipPath id="clip-5127"><path d="M 1123.1 461.1 L 1402.7 461.1 L 1402.7 534.2 L 1123.1 534.2 Z M 1123.1 461.1 "></path></clipPath><g clip-path="url(#clip-5127)"><text xml:space="preserve" font-family="GillSans" font-size="40.0" fill="#000000" transform="matrix(1.00, 0.00, -0.00, -1.00, 1243.0, 484.0)">·</text><text xml:space="preserve" font-family="GillSans" font-size="40.0" fill="#000000" transform="matrix(1.00, 0.00, -0.00, -1.00, 1256.4, 484.0)">·</text><text xml:space="preserve" font-family="GillSans" font-size="40.0" fill="#000000" transform="matrix(1.00, 0.00, -0.00, -1.00, 1269.7, 484.0)">·</text></g></g><path d="M 1515.9 534.2 L 1737.7 534.2 C 1744.2 534.2 1747.6 534.2 1751.1 533.1 C 1755.0 531.6 1758.0 528.6 1759.5 524.7 C 1760.6 521.2 1760.6 517.8 1760.6 511.2 L 1760.6 484.0 C 1760.6 477.4 1760.6 474.1 1759.5 470.5 C 1758.0 466.7 1755.0 463.6 1751.1 462.2 C 1747.6 461.1 1744.2 461.1 1737.6 461.1 L 1515.9 461.1 C 1509.4 461.1 1506.0 461.1 1502.5 462.2 C 1498.6 463.6 1495.5 466.7 1494.1 470.5 C 1493.0 474.1 1493.0 477.4 1493.0 484.1 L 1493.0 511.3 C 1493.0 517.8 1493.0 521.2 1494.1 524.7 C 1495.5 528.6 1498.6 531.6 1502.5 533.1 C 1506.0 534.2 1509.4 534.2 1516.0 534.2 Z M 1515.9 534.2 " fill="#FEFFFF"></path><path d="M 22.9 0.0 L 244.6 0.0 C 251.2 0.0 254.6 0.0 258.1 1.1 C 262.0 2.5 265.0 5.6 266.5 9.5 C 267.6 13.0 267.6 16.4 267.6 23.0 L 267.6 50.2 C 267.6 56.8 267.6 60.1 266.5 63.6 C 265.0 67.5 262.0 70.6 258.1 72.0 C 254.6 73.1 251.2 73.1 244.5 73.1 L 22.9 73.1 C 16.4 73.1 13.0 73.1 9.5 72.0 C 5.6 70.6 2.5 67.5 1.1 63.6 C 0.0 60.1 0.0 56.8 0.0 50.1 L 0.0 22.9 C 0.0 16.4 0.0 13.0 1.1 9.5 C 2.5 5.6 5.6 2.5 9.5 1.1 C 13.0 0.0 16.4 0.0 23.0 0.0 Z M 22.9 0.0 " fill="none" stroke="#C82505" stroke-width="2.00" transform="matrix(1.00, 0.00, 0.00, -1.00, 1493.0, 534.2)"></path><g><clipPath id="clip-5128"><path d="M 1487.1 461.1 L 1766.7 461.1 L 1766.7 534.2 L 1487.1 534.2 Z M 1487.1 461.1 "></path></clipPath><g clip-path="url(#clip-5128)"><text xml:space="preserve" font-family="GillSans" font-size="40.0" fill="#000000" transform="matrix(1.00, 0.00, -0.00, -1.00, 1607.0, 484.0)">·</text><text xml:space="preserve" font-family="GillSans" font-size="40.0" fill="#000000" transform="matrix(1.00, 0.00, -0.00, -1.00, 1620.4, 484.0)">·</text><text xml:space="preserve" font-family="GillSans" font-size="40.0" fill="#000000" transform="matrix(1.00, 0.00, -0.00, -1.00, 1633.7, 484.0)">·</text></g></g><path d="M 423.9 364.2 L 645.7 364.2 C 652.2 364.2 655.6 364.2 659.1 363.1 C 663.0 361.6 666.1 358.6 667.5 354.7 C 668.6 351.2 668.6 347.8 668.6 341.2 L 668.6 314.0 C 668.6 307.4 668.6 304.1 667.5 300.5 C 666.1 296.7 663.0 293.6 659.1 292.2 C 655.6 291.1 652.2 291.1 645.6 291.1 L 423.9 291.1 C 417.4 291.1 414.0 291.1 410.5 292.2 C 406.6 293.6 403.5 296.7 402.1 300.5 C 401.0 304.1 401.0 307.4 401.0 314.1 L 401.0 341.3 C 401.0 347.8 401.0 351.2 402.1 354.7 C 403.5 358.6 406.6 361.6 410.5 363.1 C 414.0 364.2 417.4 364.2 424.0 364.2 Z M 423.9 364.2 " fill="#FEFFFF"></path><path d="M 22.9 0.0 L 244.6 0.0 C 251.2 0.0 254.6 0.0 258.1 1.1 C 262.0 2.5 265.0 5.6 266.5 9.5 C 267.6 13.0 267.6 16.4 267.6 23.0 L 267.6 50.2 C 267.6 56.8 267.6 60.1 266.5 63.6 C 265.0 67.5 262.0 70.6 258.1 72.0 C 254.6 73.1 251.2 73.1 244.5 73.1 L 22.9 73.1 C 16.4 73.1 13.0 73.1 9.5 72.0 C 5.6 70.6 2.5 67.5 1.1 63.6 C 0.0 60.1 0.0 56.8 0.0 50.1 L 0.0 22.9 C 0.0 16.4 0.0 13.0 1.1 9.5 C 2.5 5.6 5.6 2.5 9.5 1.1 C 13.0 0.0 16.4 0.0 23.0 0.0 Z M 22.9 0.0 " fill="none" stroke="#0264C0" stroke-width="2.00" transform="matrix(1.00, 0.00, 0.00, -1.00, 401.0, 364.2)"></path><g><clipPath id="clip-5129"><path d="M 395.1 291.1 L 674.7 291.1 L 674.7 364.2 L 395.1 364.2 Z M 395.1 291.1 "></path></clipPath><g clip-path="url(#clip-5129)"><text xml:space="preserve" font-family="GillSans" font-size="40.0" fill="#000000" transform="matrix(1.00, 0.00, -0.00, -1.00, 510.0, 314.0)">g</text><text xml:space="preserve" font-family="GillSans" font-size="40.0" fill="#000000" transform="matrix(1.00, 0.00, -0.00, -1.00, 527.1, 314.0)">a</text><text xml:space="preserve" font-family="GillSans" font-size="40.0" fill="#000000" transform="matrix(1.00, 0.00, -0.00, -1.00, 544.1, 314.0)">s</text></g></g><path d="M 787.9 364.2 L 1009.7 364.2 C 1016.2 364.2 1019.6 364.2 1023.1 363.1 C 1027.0 361.6 1030.0 358.6 1031.5 354.7 C 1032.6 351.2 1032.6 347.8 1032.6 341.2 L 1032.6 314.0 C 1032.6 307.4 1032.6 304.1 1031.5 300.5 C 1030.0 296.7 1027.0 293.6 1023.1 292.2 C 1019.6 291.1 1016.2 291.1 1009.6 291.1 L 787.9 291.1 C 781.4 291.1 778.0 291.1 774.5 292.2 C 770.6 293.6 767.5 296.7 766.1 300.5 C 765.0 304.1 765.0 307.4 765.0 314.1 L 765.0 341.3 C 765.0 347.8 765.0 351.2 766.1 354.7 C 767.5 358.6 770.6 361.6 774.5 363.1 C 778.0 364.2 781.4 364.2 788.0 364.2 Z M 787.9 364.2 " fill="#FEFFFF"></path><path d="M 22.9 0.0 L 244.6 0.0 C 251.2 0.0 254.6 0.0 258.1 1.1 C 262.0 2.5 265.0 5.6 266.5 9.5 C 267.6 13.0 267.6 16.4 267.6 23.0 L 267.6 50.2 C 267.6 56.8 267.6 60.1 266.5 63.6 C 265.0 67.5 262.0 70.6 258.1 72.0 C 254.6 73.1 251.2 73.1 244.5 73.1 L 22.9 73.1 C 16.4 73.1 13.0 73.1 9.5 72.0 C 5.6 70.6 2.5 67.5 1.1 63.6 C 0.0 60.1 0.0 56.8 0.0 50.1 L 0.0 22.9 C 0.0 16.4 0.0 13.0 1.1 9.5 C 2.5 5.6 5.6 2.5 9.5 1.1 C 13.0 0.0 16.4 0.0 23.0 0.0 Z M 22.9 0.0 " fill="none" stroke="#C39719" stroke-width="2.00" transform="matrix(1.00, 0.00, 0.00, -1.00, 765.0, 364.2)"></path><g><clipPath id="clip-5130"><path d="M 759.1 291.1 L 1038.7 291.1 L 1038.7 364.2 L 759.1 364.2 Z M 759.1 291.1 "></path></clipPath><g clip-path="url(#clip-5130)"><text xml:space="preserve" font-family="GillSans" font-size="40.0" fill="#000000" transform="matrix(1.00, 0.00, -0.00, -1.00, 892.0, 314.0)">-</text></g></g><path d="M 1151.9 364.2 L 1373.7 364.2 C 1380.2 364.2 1383.6 364.2 1387.1 363.1 C 1391.0 361.6 1394.0 358.6 1395.5 354.7 C 1396.6 351.2 1396.6 347.8 1396.6 341.2 L 1396.6 314.0 C 1396.6 307.4 1396.6 304.1 1395.5 300.5 C 1394.0 296.7 1391.0 293.6 1387.1 292.2 C 1383.6 291.1 1380.2 291.1 1373.6 291.1 L 1151.9 291.1 C 1145.4 291.1 1142.0 291.1 1138.5 292.2 C 1134.6 293.6 1131.5 296.7 1130.1 300.5 C 1129.0 304.1 1129.0 307.4 1129.0 314.1 L 1129.0 341.3 C 1129.0 347.8 1129.0 351.2 1130.1 354.7 C 1131.5 358.6 1134.6 361.6 1138.5 363.1 C 1142.0 364.2 1145.4 364.2 1152.0 364.2 Z M 1151.9 364.2 " fill="#FEFFFF"></path><path d="M 22.9 0.0 L 244.6 0.0 C 251.2 0.0 254.6 0.0 258.1 1.1 C 262.0 2.5 265.0 5.6 266.5 9.5 C 267.6 13.0 267.6 16.4 267.6 23.0 L 267.6 50.2 C 267.6 56.8 267.6 60.1 266.5 63.6 C 265.0 67.5 262.0 70.6 258.1 72.0 C 254.6 73.1 251.2 73.1 244.5 73.1 L 22.9 73.1 C 16.4 73.1 13.0 73.1 9.5 72.0 C 5.6 70.6 2.5 67.5 1.1 63.6 C 0.0 60.1 0.0 56.8 0.0 50.1 L 0.0 22.9 C 0.0 16.4 0.0 13.0 1.1 9.5 C 2.5 5.6 5.6 2.5 9.5 1.1 C 13.0 0.0 16.4 0.0 23.0 0.0 Z M 22.9 0.0 " fill="none" stroke="#00872A" stroke-width="2.00" transform="matrix(1.00, 0.00, 0.00, -1.00, 1129.0, 364.2)"></path><g><clipPath id="clip-5131"><path d="M 1123.1 291.1 L 1402.7 291.1 L 1402.7 364.2 L 1123.1 364.2 Z M 1123.1 291.1 "></path></clipPath><g clip-path="url(#clip-5131)"><text xml:space="preserve" font-family="GillSans" font-size="40.0" fill="#000000" transform="matrix(1.00, 0.00, -0.00, -1.00, 1156.0, 314.0)">p</text><text xml:space="preserve" font-family="GillSans" font-size="40.0" fill="#000000" transform="matrix(1.00, 0.00, -0.00, -1.00, 1176.0, 314.0)">h</text><text xml:space="preserve" font-family="GillSans" font-size="40.0" fill="#000000" transform="matrix(1.00, 0.00, -0.00, -1.00, 1196.0, 314.0)">a</text><text xml:space="preserve" font-family="GillSans" font-size="40.0" fill="#000000" transform="matrix(1.00, 0.00, -0.00, -1.00, 1213.1, 314.0)">s</text><text xml:space="preserve" font-family="GillSans" font-size="40.0" fill="#000000" transform="matrix(1.00, 0.00, -0.00, -1.00, 1228.4, 314.0)">e</text><text xml:space="preserve" font-family="GillSans" font-size="40.0" fill="#000000" transform="matrix(1.00, 0.00, -0.00, -1.00, 1247.6, 314.0)"> </text><text xml:space="preserve" font-family="GillSans" font-size="40.0" fill="#000000" transform="matrix(1.00, 0.00, -0.00, -1.00, 1258.7, 314.0)">c</text><text xml:space="preserve" font-family="GillSans" font-size="40.0" fill="#000000" transform="matrix(1.00, 0.00, -0.00, -1.00, 1276.2, 314.0)">h</text><text xml:space="preserve" font-family="GillSans" font-size="40.0" fill="#000000" transform="matrix(1.00, 0.00, -0.00, -1.00, 1296.2, 314.0)">a</text><text xml:space="preserve" font-family="GillSans" font-size="40.0" fill="#000000" transform="matrix(1.00, 0.00, -0.00, -1.00, 1313.3, 314.0)">n</text><text xml:space="preserve" font-family="GillSans" font-size="40.0" fill="#000000" transform="matrix(1.00, 0.00, -0.00, -1.00, 1333.3, 314.0)">g</text><text xml:space="preserve" font-family="GillSans" font-size="40.0" fill="#000000" transform="matrix(1.00, 0.00, -0.00, -1.00, 1350.4, 314.0)">e</text></g></g><path d="M 1515.9 364.2 L 1737.7 364.2 C 1744.2 364.2 1747.6 364.2 1751.1 363.1 C 1755.0 361.6 1758.0 358.6 1759.5 354.7 C 1760.6 351.2 1760.6 347.8 1760.6 341.2 L 1760.6 314.0 C 1760.6 307.4 1760.6 304.1 1759.5 300.5 C 1758.0 296.7 1755.0 293.6 1751.1 292.2 C 1747.6 291.1 1744.2 291.1 1737.6 291.1 L 1515.9 291.1 C 1509.4 291.1 1506.0 291.1 1502.5 292.2 C 1498.6 293.6 1495.5 296.7 1494.1 300.5 C 1493.0 304.1 1493.0 307.4 1493.0 314.1 L 1493.0 341.3 C 1493.0 347.8 1493.0 351.2 1494.1 354.7 C 1495.5 358.6 1498.6 361.6 1502.5 363.1 C 1506.0 364.2 1509.4 364.2 1516.0 364.2 Z M 1515.9 364.2 " fill="#FEFFFF"></path><path d="M 22.9 0.0 L 244.6 0.0 C 251.2 0.0 254.6 0.0 258.1 1.1 C 262.0 2.5 265.0 5.6 266.5 9.5 C 267.6 13.0 267.6 16.4 267.6 23.0 L 267.6 50.2 C 267.6 56.8 267.6 60.1 266.5 63.6 C 265.0 67.5 262.0 70.6 258.1 72.0 C 254.6 73.1 251.2 73.1 244.5 73.1 L 22.9 73.1 C 16.4 73.1 13.0 73.1 9.5 72.0 C 5.6 70.6 2.5 67.5 1.1 63.6 C 0.0 60.1 0.0 56.8 0.0 50.1 L 0.0 22.9 C 0.0 16.4 0.0 13.0 1.1 9.5 C 2.5 5.6 5.6 2.5 9.5 1.1 C 13.0 0.0 16.4 0.0 23.0 0.0 Z M 22.9 0.0 " fill="none" stroke="#C82505" stroke-width="2.00" transform="matrix(1.00, 0.00, 0.00, -1.00, 1493.0, 364.2)"></path><g><clipPath id="clip-5132"><path d="M 1487.1 291.1 L 1766.7 291.1 L 1766.7 364.2 L 1487.1 364.2 Z M 1487.1 291.1 "></path></clipPath><g clip-path="url(#clip-5132)"><text xml:space="preserve" font-family="GillSans" font-size="40.0" fill="#000000" transform="matrix(1.00, 0.00, -0.00, -1.00, 1584.0, 314.0)">l</text><text xml:space="preserve" font-family="GillSans" font-size="40.0" fill="#000000" transform="matrix(1.00, 0.00, -0.00, -1.00, 1592.8, 314.0)">i</text><text xml:space="preserve" font-family="GillSans" font-size="40.0" fill="#000000" transform="matrix(1.00, 0.00, -0.00, -1.00, 1601.6, 314.0)">q</text><text xml:space="preserve" font-family="GillSans" font-size="40.0" fill="#000000" transform="matrix(1.00, 0.00, -0.00, -1.00, 1621.6, 314.0)">u</text><text xml:space="preserve" font-family="GillSans" font-size="40.0" fill="#000000" transform="matrix(1.00, 0.00, -0.00, -1.00, 1641.6, 314.0)">i</text><text xml:space="preserve" font-family="GillSans" font-size="40.0" fill="#000000" transform="matrix(1.00, 0.00, -0.00, -1.00, 1650.3, 314.0)">d</text></g></g><path d="M 423.9 274.2 L 645.7 274.2 C 652.2 274.2 655.6 274.2 659.1 273.1 C 663.0 271.6 666.1 268.6 667.5 264.7 C 668.6 261.2 668.6 257.8 668.6 251.2 L 668.6 224.0 C 668.6 217.4 668.6 214.1 667.5 210.5 C 666.1 206.7 663.0 203.6 659.1 202.2 C 655.6 201.1 652.2 201.1 645.6 201.1 L 423.9 201.1 C 417.4 201.1 414.0 201.1 410.5 202.2 C 406.6 203.6 403.5 206.7 402.1 210.5 C 401.0 214.1 401.0 217.4 401.0 224.1 L 401.0 251.3 C 401.0 257.8 401.0 261.2 402.1 264.7 C 403.5 268.6 406.6 271.6 410.5 273.1 C 414.0 274.2 417.4 274.2 424.0 274.2 Z M 423.9 274.2 " fill="#FEFFFF"></path><path d="M 22.9 0.0 L 244.6 0.0 C 251.2 0.0 254.6 0.0 258.1 1.1 C 262.0 2.5 265.0 5.6 266.5 9.5 C 267.6 13.0 267.6 16.4 267.6 23.0 L 267.6 50.2 C 267.6 56.8 267.6 60.1 266.5 63.6 C 265.0 67.5 262.0 70.6 258.1 72.0 C 254.6 73.1 251.2 73.1 244.5 73.1 L 22.9 73.1 C 16.4 73.1 13.0 73.1 9.5 72.0 C 5.6 70.6 2.5 67.5 1.1 63.6 C 0.0 60.1 0.0 56.8 0.0 50.1 L 0.0 22.9 C 0.0 16.4 0.0 13.0 1.1 9.5 C 2.5 5.6 5.6 2.5 9.5 1.1 C 13.0 0.0 16.4 0.0 23.0 0.0 Z M 22.9 0.0 " fill="none" stroke="#0264C0" stroke-width="2.00" transform="matrix(1.00, 0.00, 0.00, -1.00, 401.0, 274.2)"></path><g><clipPath id="clip-5133"><path d="M 395.1 201.1 L 674.7 201.1 L 674.7 274.2 L 395.1 274.2 Z M 395.1 201.1 "></path></clipPath><g clip-path="url(#clip-5133)"><text xml:space="preserve" font-family="GillSans" font-size="40.0" fill="#000000" transform="matrix(1.00, 0.00, -0.00, -1.00, 515.0, 224.0)">·</text><text xml:space="preserve" font-family="GillSans" font-size="40.0" fill="#000000" transform="matrix(1.00, 0.00, -0.00, -1.00, 528.4, 224.0)">·</text><text xml:space="preserve" font-family="GillSans" font-size="40.0" fill="#000000" transform="matrix(1.00, 0.00, -0.00, -1.00, 541.7, 224.0)">·</text></g></g><path d="M 787.9 274.2 L 1009.7 274.2 C 1016.2 274.2 1019.6 274.2 1023.1 273.1 C 1027.0 271.6 1030.0 268.6 1031.5 264.7 C 1032.6 261.2 1032.6 257.8 1032.6 251.2 L 1032.6 224.0 C 1032.6 217.4 1032.6 214.1 1031.5 210.5 C 1030.0 206.7 1027.0 203.6 1023.1 202.2 C 1019.6 201.1 1016.2 201.1 1009.6 201.1 L 787.9 201.1 C 781.4 201.1 778.0 201.1 774.5 202.2 C 770.6 203.6 767.5 206.7 766.1 210.5 C 765.0 214.1 765.0 217.4 765.0 224.1 L 765.0 251.3 C 765.0 257.8 765.0 261.2 766.1 264.7 C 767.5 268.6 770.6 271.6 774.5 273.1 C 778.0 274.2 781.4 274.2 788.0 274.2 Z M 787.9 274.2 " fill="#FEFFFF"></path><path d="M 22.9 0.0 L 244.6 0.0 C 251.2 0.0 254.6 0.0 258.1 1.1 C 262.0 2.5 265.0 5.6 266.5 9.5 C 267.6 13.0 267.6 16.4 267.6 23.0 L 267.6 50.2 C 267.6 56.8 267.6 60.1 266.5 63.6 C 265.0 67.5 262.0 70.6 258.1 72.0 C 254.6 73.1 251.2 73.1 244.5 73.1 L 22.9 73.1 C 16.4 73.1 13.0 73.1 9.5 72.0 C 5.6 70.6 2.5 67.5 1.1 63.6 C 0.0 60.1 0.0 56.8 0.0 50.1 L 0.0 22.9 C 0.0 16.4 0.0 13.0 1.1 9.5 C 2.5 5.6 5.6 2.5 9.5 1.1 C 13.0 0.0 16.4 0.0 23.0 0.0 Z M 22.9 0.0 " fill="none" stroke="#C39719" stroke-width="2.00" transform="matrix(1.00, 0.00, 0.00, -1.00, 765.0, 274.2)"></path><g><clipPath id="clip-5134"><path d="M 759.1 201.1 L 1038.7 201.1 L 1038.7 274.2 L 759.1 274.2 Z M 759.1 201.1 "></path></clipPath><g clip-path="url(#clip-5134)"><text xml:space="preserve" font-family="GillSans" font-size="40.0" fill="#000000" transform="matrix(1.00, 0.00, -0.00, -1.00, 879.0, 224.0)">·</text><text xml:space="preserve" font-family="GillSans" font-size="40.0" fill="#000000" transform="matrix(1.00, 0.00, -0.00, -1.00, 892.4, 224.0)">·</text><text xml:space="preserve" font-family="GillSans" font-size="40.0" fill="#000000" transform="matrix(1.00, 0.00, -0.00, -1.00, 905.7, 224.0)">·</text></g></g><path d="M 1151.9 274.2 L 1373.7 274.2 C 1380.2 274.2 1383.6 274.2 1387.1 273.1 C 1391.0 271.6 1394.0 268.6 1395.5 264.7 C 1396.6 261.2 1396.6 257.8 1396.6 251.2 L 1396.6 224.0 C 1396.6 217.4 1396.6 214.1 1395.5 210.5 C 1394.0 206.7 1391.0 203.6 1387.1 202.2 C 1383.6 201.1 1380.2 201.1 1373.6 201.1 L 1151.9 201.1 C 1145.4 201.1 1142.0 201.1 1138.5 202.2 C 1134.6 203.6 1131.5 206.7 1130.1 210.5 C 1129.0 214.1 1129.0 217.4 1129.0 224.1 L 1129.0 251.3 C 1129.0 257.8 1129.0 261.2 1130.1 264.7 C 1131.5 268.6 1134.6 271.6 1138.5 273.1 C 1142.0 274.2 1145.4 274.2 1152.0 274.2 Z M 1151.9 274.2 " fill="#FEFFFF"></path><path d="M 22.9 0.0 L 244.6 0.0 C 251.2 0.0 254.6 0.0 258.1 1.1 C 262.0 2.5 265.0 5.6 266.5 9.5 C 267.6 13.0 267.6 16.4 267.6 23.0 L 267.6 50.2 C 267.6 56.8 267.6 60.1 266.5 63.6 C 265.0 67.5 262.0 70.6 258.1 72.0 C 254.6 73.1 251.2 73.1 244.5 73.1 L 22.9 73.1 C 16.4 73.1 13.0 73.1 9.5 72.0 C 5.6 70.6 2.5 67.5 1.1 63.6 C 0.0 60.1 0.0 56.8 0.0 50.1 L 0.0 22.9 C 0.0 16.4 0.0 13.0 1.1 9.5 C 2.5 5.6 5.6 2.5 9.5 1.1 C 13.0 0.0 16.4 0.0 23.0 0.0 Z M 22.9 0.0 " fill="none" stroke="#00872A" stroke-width="2.00" transform="matrix(1.00, 0.00, 0.00, -1.00, 1129.0, 274.2)"></path><g><clipPath id="clip-5135"><path d="M 1123.1 201.1 L 1402.7 201.1 L 1402.7 274.2 L 1123.1 274.2 Z M 1123.1 201.1 "></path></clipPath><g clip-path="url(#clip-5135)"><text xml:space="preserve" font-family="GillSans" font-size="40.0" fill="#000000" transform="matrix(1.00, 0.00, -0.00, -1.00, 1243.0, 224.0)">·</text><text xml:space="preserve" font-family="GillSans" font-size="40.0" fill="#000000" transform="matrix(1.00, 0.00, -0.00, -1.00, 1256.4, 224.0)">·</text><text xml:space="preserve" font-family="GillSans" font-size="40.0" fill="#000000" transform="matrix(1.00, 0.00, -0.00, -1.00, 1269.7, 224.0)">·</text></g></g><path d="M 1515.9 274.2 L 1737.7 274.2 C 1744.2 274.2 1747.6 274.2 1751.1 273.1 C 1755.0 271.6 1758.0 268.6 1759.5 264.7 C 1760.6 261.2 1760.6 257.8 1760.6 251.2 L 1760.6 224.0 C 1760.6 217.4 1760.6 214.1 1759.5 210.5 C 1758.0 206.7 1755.0 203.6 1751.1 202.2 C 1747.6 201.1 1744.2 201.1 1737.6 201.1 L 1515.9 201.1 C 1509.4 201.1 1506.0 201.1 1502.5 202.2 C 1498.6 203.6 1495.5 206.7 1494.1 210.5 C 1493.0 214.1 1493.0 217.4 1493.0 224.1 L 1493.0 251.3 C 1493.0 257.8 1493.0 261.2 1494.1 264.7 C 1495.5 268.6 1498.6 271.6 1502.5 273.1 C 1506.0 274.2 1509.4 274.2 1516.0 274.2 Z M 1515.9 274.2 " fill="#FEFFFF"></path><path d="M 22.9 0.0 L 244.6 0.0 C 251.2 0.0 254.6 0.0 258.1 1.1 C 262.0 2.5 265.0 5.6 266.5 9.5 C 267.6 13.0 267.6 16.4 267.6 23.0 L 267.6 50.2 C 267.6 56.8 267.6 60.1 266.5 63.6 C 265.0 67.5 262.0 70.6 258.1 72.0 C 254.6 73.1 251.2 73.1 244.5 73.1 L 22.9 73.1 C 16.4 73.1 13.0 73.1 9.5 72.0 C 5.6 70.6 2.5 67.5 1.1 63.6 C 0.0 60.1 0.0 56.8 0.0 50.1 L 0.0 22.9 C 0.0 16.4 0.0 13.0 1.1 9.5 C 2.5 5.6 5.6 2.5 9.5 1.1 C 13.0 0.0 16.4 0.0 23.0 0.0 Z M 22.9 0.0 " fill="none" stroke="#C82505" stroke-width="2.00" transform="matrix(1.00, 0.00, 0.00, -1.00, 1493.0, 274.2)"></path><g><clipPath id="clip-5136"><path d="M 1487.1 201.1 L 1766.7 201.1 L 1766.7 274.2 L 1487.1 274.2 Z M 1487.1 201.1 "></path></clipPath><g clip-path="url(#clip-5136)"><text xml:space="preserve" font-family="GillSans" font-size="40.0" fill="#000000" transform="matrix(1.00, 0.00, -0.00, -1.00, 1607.0, 224.0)">·</text><text xml:space="preserve" font-family="GillSans" font-size="40.0" fill="#000000" transform="matrix(1.00, 0.00, -0.00, -1.00, 1620.4, 224.0)">·</text><text xml:space="preserve" font-family="GillSans" font-size="40.0" fill="#000000" transform="matrix(1.00, 0.00, -0.00, -1.00, 1633.7, 224.0)">·</text></g></g><image xlink:href="D2CA3D7C81CCA86FD97A13D69CFEAC11.png" width="1451.00" height="123.00" transform="matrix(1.00, 0.00, -0.00, -1.00, 355.3, 148.2)" opacity="0.20"></image><path d="M 404.5 123.7 L 1757.0 123.7 C 1763.9 123.7 1767.3 123.7 1771.0 122.5 C 1775.0 121.1 1778.2 117.9 1779.6 113.9 C 1780.8 110.2 1780.8 106.7 1780.8 99.8 L 1780.8 75.3 C 1780.8 68.5 1780.8 65.0 1779.6 61.4 C 1778.2 57.4 1775.0 54.2 1771.0 52.7 C 1767.3 51.6 1763.9 51.6 1756.9 51.6 L 404.5 51.6 C 397.7 51.6 394.3 51.6 390.6 52.7 C 386.6 54.2 383.4 57.4 382.0 61.4 C 380.8 65.0 380.8 68.5 380.8 75.4 L 380.8 99.9 C 380.8 106.7 380.8 110.2 382.0 113.9 C 383.4 117.9 386.6 121.1 390.6 122.5 C 394.3 123.7 397.7 123.7 404.6 123.7 Z M 404.5 123.7 " fill="#FEFFFF"></path><path d="M 23.8 0.0 L 1376.3 0.0 C 1383.1 0.0 1386.5 0.0 1390.2 1.2 C 1394.2 2.6 1397.4 5.8 1398.8 9.8 C 1400.0 13.5 1400.0 16.9 1400.0 23.9 L 1400.0 48.4 C 1400.0 55.2 1400.0 58.6 1398.8 62.3 C 1397.4 66.3 1394.2 69.5 1390.2 71.0 C 1386.5 72.1 1383.1 72.1 1376.2 72.1 L 23.8 72.1 C 16.9 72.1 13.5 72.1 9.8 71.0 C 5.8 69.5 2.6 66.3 1.2 62.3 C 0.0 58.6 0.0 55.2 0.0 48.3 L 0.0 23.8 C 0.0 16.9 0.0 13.5 1.2 9.8 C 2.6 5.8 5.8 2.6 9.8 1.2 C 13.5 0.0 16.9 0.0 23.9 0.0 Z M 23.8 0.0 " fill="none" stroke="#52575F" stroke-width="1.10" transform="matrix(1.00, 0.00, 0.00, -1.00, 380.8, 123.7)"></path><g><clipPath id="clip-5137"><path d="M 374.5 51.6 L 1787.2 51.6 L 1787.2 123.7 L 374.5 123.7 Z M 374.5 51.6 "></path></clipPath><g clip-path="url(#clip-5137)"><text xml:space="preserve" font-family="GillSans" font-size="40.0" fill="#000000" transform="matrix(1.00, 0.00, -0.00, -1.00, 1061.0, 74.0)">·</text><text xml:space="preserve" font-family="GillSans" font-size="40.0" fill="#000000" transform="matrix(1.00, 0.00, -0.00, -1.00, 1074.4, 74.0)">·</text><text xml:space="preserve" font-family="GillSans" font-size="40.0" fill="#000000" transform="matrix(1.00, 0.00, -0.00, -1.00, 1087.7, 74.0)">·</text></g></g><text xml:space="preserve" font-family="GillSans" font-size="45.0" fill="#000000" transform="matrix(1.00, 0.00, -0.00, -1.00, 129.3, 618.5)">e</text><text xml:space="preserve" font-family="GillSans" font-size="45.0" fill="#000000" transform="matrix(1.00, 0.00, -0.00, -1.00, 150.1, 618.5)">v</text><text xml:space="preserve" font-family="GillSans" font-size="45.0" fill="#000000" transform="matrix(1.00, 0.00, -0.00, -1.00, 169.8, 618.5)">a</text><text xml:space="preserve" font-family="GillSans" font-size="45.0" fill="#000000" transform="matrix(1.00, 0.00, -0.00, -1.00, 188.6, 618.5)">p</text><text xml:space="preserve" font-family="GillSans" font-size="45.0" fill="#000000" transform="matrix(1.00, 0.00, -0.00, -1.00, 211.1, 618.5)">o</text><text xml:space="preserve" font-family="GillSans" font-size="45.0" fill="#000000" transform="matrix(1.00, 0.00, -0.00, -1.00, 235.9, 618.5)">r</text><text xml:space="preserve" font-family="GillSans" font-size="45.0" fill="#000000" transform="matrix(1.00, 0.00, -0.00, -1.00, 253.7, 618.5)">a</text><text xml:space="preserve" font-family="GillSans" font-size="45.0" fill="#000000" transform="matrix(1.00, 0.00, -0.00, -1.00, 272.9, 618.5)">t</text><text xml:space="preserve" font-family="GillSans" font-size="45.0" fill="#000000" transform="matrix(1.00, 0.00, -0.00, -1.00, 287.9, 618.5)">i</text><text xml:space="preserve" font-family="GillSans" font-size="45.0" fill="#000000" transform="matrix(1.00, 0.00, -0.00, -1.00, 297.8, 618.5)">o</text><text xml:space="preserve" font-family="GillSans" font-size="45.0" fill="#000000" transform="matrix(1.00, 0.00, -0.00, -1.00, 322.6, 618.5)">n</text><text xml:space="preserve" font-family="GillSans" font-size="45.0" fill="#000000" transform="matrix(1.00, 0.00, -0.00, -1.00, 102.7, 268.3)">c</text><text xml:space="preserve" font-family="GillSans" font-size="45.0" fill="#000000" transform="matrix(1.00, 0.00, -0.00, -1.00, 122.4, 268.3)">o</text><text xml:space="preserve" font-family="GillSans" font-size="45.0" fill="#000000" transform="matrix(1.00, 0.00, -0.00, -1.00, 147.2, 268.3)">n</text><text xml:space="preserve" font-family="GillSans" font-size="45.0" fill="#000000" transform="matrix(1.00, 0.00, -0.00, -1.00, 169.7, 268.3)">d</text><text xml:space="preserve" font-family="GillSans" font-size="45.0" fill="#000000" transform="matrix(1.00, 0.00, -0.00, -1.00, 192.7, 268.3)">e</text><text xml:space="preserve" font-family="GillSans" font-size="45.0" fill="#000000" transform="matrix(1.00, 0.00, -0.00, -1.00, 214.2, 268.3)">n</text><text xml:space="preserve" font-family="GillSans" font-size="45.0" fill="#000000" transform="matrix(1.00, 0.00, -0.00, -1.00, 236.7, 268.3)">s</text><text xml:space="preserve" font-family="GillSans" font-size="45.0" fill="#000000" transform="matrix(1.00, 0.00, -0.00, -1.00, 254.0, 268.3)">a</text><text xml:space="preserve" font-family="GillSans" font-size="45.0" fill="#000000" transform="matrix(1.00, 0.00, -0.00, -1.00, 273.2, 268.3)">t</text><text xml:space="preserve" font-family="GillSans" font-size="45.0" fill="#000000" transform="matrix(1.00, 0.00, -0.00, -1.00, 288.2, 268.3)">i</text><text xml:space="preserve" font-family="GillSans" font-size="45.0" fill="#000000" transform="matrix(1.00, 0.00, -0.00, -1.00, 298.1, 268.3)">o</text><text xml:space="preserve" font-family="GillSans" font-size="45.0" fill="#000000" transform="matrix(1.00, 0.00, -0.00, -1.00, 322.9, 268.3)">n</text></g></svg>