<?xml version="1.0" encoding="UTF-8" standalone="no"?><svg xmlns="http://www.w3.org/2000/svg" xmlns:xlink="http://www.w3.org/1999/xlink" clip-rule="evenodd" stroke-miterlimit="4.00" viewBox="0 0 1656 144"><desc>SVG generated by Keynote</desc><defs></defs><g transform="matrix(1.00, 0.00, -0.00, -1.00, 0.0, 144.0)"><path d="M 14.3 143.0 L 1641.7 143.0 C 1645.5 143.0 1647.5 143.0 1649.5 142.3 C 1651.8 141.5 1653.5 139.7 1654.3 137.5 C 1655.0 135.4 1655.0 133.5 1655.0 129.6 L 1655.0 14.3 C 1655.0 10.5 1655.0 8.6 1654.3 6.5 C 1653.5 4.3 1651.8 2.5 1649.5 1.7 C 1647.5 1.0 1645.5 1.0 1641.7 1.0 L 14.3 1.0 C 10.5 1.0 8.5 1.0 6.5 1.7 C 4.2 2.5 2.5 4.3 1.7 6.5 C 1.0 8.6 1.0 10.5 1.0 14.4 L 1.0 129.7 C 1.0 133.5 1.0 135.4 1.7 137.5 C 2.5 139.7 4.2 141.5 6.5 142.3 C 8.5 143.0 10.5 143.0 14.3 143.0 Z M 14.3 143.0 " fill="#FEFFFF"></path><g><clipPath id="clip-10886"><path d="M -1.1 1.0 L 1657.1 1.0 L 1657.1 143.0 L -1.1 143.0 Z M -1.1 1.0 "></path></clipPath><g clip-path="url(#clip-10886)"><text xml:space="preserve" font-family="GillSans" font-size="31.5" fill="#000000" transform="matrix(1.00, 0.00, -0.00, -1.00, 51.0, 92.0)">•</text><text xml:space="preserve" font-family="GillSans" font-size="42.0" fill="#000000" transform="matrix(1.00, 0.00, -0.00, -1.00, 94.0, 88.0)">G</text><text xml:space="preserve" font-family="GillSans" font-size="42.0" fill="#000000" transform="matrix(1.00, 0.00, -0.00, -1.00, 125.1, 88.0)">a</text><text xml:space="preserve" font-family="GillSans" font-size="42.0" fill="#000000" transform="matrix(1.00, 0.00, -0.00, -1.00, 143.0, 88.0)">t</text><text xml:space="preserve" font-family="GillSans" font-size="42.0" fill="#000000" transform="matrix(1.00, 0.00, -0.00, -1.00, 157.0, 88.0)">e</text><text xml:space="preserve" font-family="GillSans" font-size="42.0" fill="#000000" transform="matrix(1.00, 0.00, -0.00, -1.00, 177.1, 88.0)">d</text><text xml:space="preserve" font-family="GillSans" font-size="42.0" fill="#000000" transform="matrix(1.00, 0.00, -0.00, -1.00, 198.5, 88.0)"> </text><text xml:space="preserve" font-family="GillSans" font-size="42.0" fill="#000000" transform="matrix(1.00, 0.00, -0.00, -1.00, 210.2, 88.0)">u</text><text xml:space="preserve" font-family="GillSans" font-size="42.0" fill="#000000" transform="matrix(1.00, 0.00, -0.00, -1.00, 231.2, 88.0)">n</text><text xml:space="preserve" font-family="GillSans" font-size="42.0" fill="#000000" transform="matrix(1.00, 0.00, -0.00, -1.00, 252.2, 88.0)">i</text><text xml:space="preserve" font-family="GillSans" font-size="42.0" fill="#000000" transform="matrix(1.00, 0.00, -0.00, -1.00, 261.4, 88.0)">t</text><text xml:space="preserve" font-family="GillSans" font-size="42.0" fill="#000000" transform="matrix(1.00, 0.00, -0.00, -1.00, 275.4, 88.0)">s</text><text xml:space="preserve" font-family="GillSans" font-size="42.0" fill="#000000" transform="matrix(1.00, 0.00, -0.00, -1.00, 291.5, 88.0)"> </text><text xml:space="preserve" font-family="GillSans" font-size="42.0" fill="#000000" transform="matrix(1.00, 0.00, -0.00, -1.00, 303.2, 88.0)">f</text><text xml:space="preserve" font-family="GillSans" font-size="42.0" fill="#000000" transform="matrix(1.00, 0.00, -0.00, -1.00, 313.3, 88.0)">o</text><text xml:space="preserve" font-family="GillSans" font-size="42.0" fill="#000000" transform="matrix(1.00, 0.00, -0.00, -1.00, 336.4, 88.0)">r</text><text xml:space="preserve" font-family="GillSans" font-size="42.0" fill="#000000" transform="matrix(1.00, 0.00, -0.00, -1.00, 353.1, 88.0)"> </text><text xml:space="preserve" font-family="GillSans" font-size="42.0" fill="#000000" transform="matrix(1.00, 0.00, -0.00, -1.00, 364.7, 88.0)">i</text><text xml:space="preserve" font-family="GillSans" font-size="42.0" fill="#000000" transform="matrix(1.00, 0.00, -0.00, -1.00, 374.0, 88.0)">n</text><text xml:space="preserve" font-family="GillSans" font-size="42.0" fill="#000000" transform="matrix(1.00, 0.00, -0.00, -1.00, 395.0, 88.0)">t</text><text xml:space="preserve" font-family="GillSans" font-size="42.0" fill="#000000" transform="matrix(1.00, 0.00, -0.00, -1.00, 408.9, 88.0)">e</text><text xml:space="preserve" font-family="GillSans" font-size="42.0" fill="#000000" transform="matrix(1.00, 0.00, -0.00, -1.00, 429.1, 88.0)">r</text><text xml:space="preserve" font-family="GillSans" font-size="42.0" fill="#000000" transform="matrix(1.00, 0.00, -0.00, -1.00, 445.7, 88.0)">n</text><text xml:space="preserve" font-family="GillSans" font-size="42.0" fill="#000000" transform="matrix(1.00, 0.00, -0.00, -1.00, 466.7, 88.0)">a</text><text xml:space="preserve" font-family="GillSans" font-size="42.0" fill="#000000" transform="matrix(1.00, 0.00, -0.00, -1.00, 484.6, 88.0)">l</text><text xml:space="preserve" font-family="GillSans" font-size="42.0" fill="#000000" transform="matrix(1.00, 0.00, -0.00, -1.00, 493.8, 88.0)"> </text><text xml:space="preserve" font-family="GillSans" font-size="42.0" fill="#000000" transform="matrix(1.00, 0.00, -0.00, -1.00, 505.5, 88.0)">s</text><text xml:space="preserve" font-family="GillSans" font-size="42.0" fill="#000000" transform="matrix(1.00, 0.00, -0.00, -1.00, 521.6, 88.0)">t</text><text xml:space="preserve" font-family="GillSans" font-size="42.0" fill="#000000" transform="matrix(1.00, 0.00, -0.00, -1.00, 535.6, 88.0)">a</text><text xml:space="preserve" font-family="GillSans" font-size="42.0" fill="#000000" transform="matrix(1.00, 0.00, -0.00, -1.00, 553.5, 88.0)">t</text><text xml:space="preserve" font-family="GillSans" font-size="42.0" fill="#000000" transform="matrix(1.00, 0.00, -0.00, -1.00, 567.5, 88.0)">e</text><text xml:space="preserve" font-family="GillSans" font-size="30.0" fill="#000000" transform="matrix(1.00, 0.00, -0.00, -1.00, 101.0, 29.7)">-</text><text xml:space="preserve" font-family="GillSans" font-size="40.0" fill="#000000" transform="matrix(1.00, 0.00, -0.00, -1.00, 144.0, 26.0)">C</text><text xml:space="preserve" font-family="GillSans" font-size="40.0" fill="#000000" transform="matrix(1.00, 0.00, -0.00, -1.00, 172.3, 26.0)">o</text><text xml:space="preserve" font-family="GillSans" font-size="40.0" fill="#000000" transform="matrix(1.00, 0.00, -0.00, -1.00, 194.4, 26.0)">n</text><text xml:space="preserve" font-family="GillSans" font-size="40.0" fill="#000000" transform="matrix(1.00, 0.00, -0.00, -1.00, 214.4, 26.0)">t</text><text xml:space="preserve" font-family="GillSans" font-size="40.0" fill="#000000" transform="matrix(1.00, 0.00, -0.00, -1.00, 227.7, 26.0)">r</text><text xml:space="preserve" font-family="GillSans" font-size="40.0" fill="#000000" transform="matrix(1.00, 0.00, -0.00, -1.00, 242.5, 26.0)">o</text><text xml:space="preserve" font-family="GillSans" font-size="40.0" fill="#000000" transform="matrix(1.00, 0.00, -0.00, -1.00, 264.6, 26.0)">l</text><text xml:space="preserve" font-family="GillSans" font-size="40.0" fill="#000000" transform="matrix(1.00, 0.00, -0.00, -1.00, 273.4, 26.0)"> </text><text xml:space="preserve" font-family="GillSans" font-size="40.0" fill="#000000" transform="matrix(1.00, 0.00, -0.00, -1.00, 284.5, 26.0)">w</text><text xml:space="preserve" font-family="GillSans" font-size="40.0" fill="#000000" transform="matrix(1.00, 0.00, -0.00, -1.00, 313.3, 26.0)">h</text><text xml:space="preserve" font-family="GillSans" font-size="40.0" fill="#000000" transform="matrix(1.00, 0.00, -0.00, -1.00, 333.3, 26.0)">e</text><text xml:space="preserve" font-family="GillSans" font-size="40.0" fill="#000000" transform="matrix(1.00, 0.00, -0.00, -1.00, 352.4, 26.0)">n</text><text xml:space="preserve" font-family="GillSans" font-size="40.0" fill="#000000" transform="matrix(1.00, 0.00, -0.00, -1.00, 372.4, 26.0)"> </text><text xml:space="preserve" font-family="GillSans" font-size="40.0" fill="#000000" transform="matrix(1.00, 0.00, -0.00, -1.00, 383.5, 26.0)">t</text><text xml:space="preserve" font-family="GillSans" font-size="40.0" fill="#000000" transform="matrix(1.00, 0.00, -0.00, -1.00, 396.9, 26.0)">o</text><text xml:space="preserve" font-family="GillSans" font-size="40.0" fill="#000000" transform="matrix(1.00, 0.00, -0.00, -1.00, 418.9, 26.0)"> </text><text xml:space="preserve" font-family="GillSans" font-size="40.0" fill="#000000" transform="matrix(1.00, 0.00, -0.00, -1.00, 430.0, 26.0)">f</text><text xml:space="preserve" font-family="GillSans" font-size="40.0" fill="#000000" transform="matrix(1.00, 0.00, -0.00, -1.00, 439.6, 26.0)">o</text><text xml:space="preserve" font-family="GillSans" font-size="40.0" fill="#000000" transform="matrix(1.00, 0.00, -0.00, -1.00, 461.7, 26.0)">r</text><text xml:space="preserve" font-family="GillSans" font-size="40.0" fill="#000000" transform="matrix(1.00, 0.00, -0.00, -1.00, 477.5, 26.0)">g</text><text xml:space="preserve" font-family="GillSans" font-size="40.0" fill="#000000" transform="matrix(1.00, 0.00, -0.00, -1.00, 494.6, 26.0)">e</text><text xml:space="preserve" font-family="GillSans" font-size="40.0" fill="#000000" transform="matrix(1.00, 0.00, -0.00, -1.00, 513.8, 26.0)">t</text><text xml:space="preserve" font-family="GillSans" font-size="40.0" fill="#000000" transform="matrix(1.00, 0.00, -0.00, -1.00, 527.1, 26.0)">/</text><text xml:space="preserve" font-family="GillSans" font-size="40.0" fill="#000000" transform="matrix(1.00, 0.00, -0.00, -1.00, 538.3, 26.0)">w</text><text xml:space="preserve" font-family="GillSans" font-size="40.0" fill="#000000" transform="matrix(1.00, 0.00, -0.00, -1.00, 567.1, 26.0)">r</text><text xml:space="preserve" font-family="GillSans" font-size="40.0" fill="#000000" transform="matrix(1.00, 0.00, -0.00, -1.00, 582.9, 26.0)">i</text><text xml:space="preserve" font-family="GillSans" font-size="40.0" fill="#000000" transform="matrix(1.00, 0.00, -0.00, -1.00, 591.7, 26.0)">t</text><text xml:space="preserve" font-family="GillSans" font-size="40.0" fill="#000000" transform="matrix(1.00, 0.00, -0.00, -1.00, 605.0, 26.0)">e</text><text xml:space="preserve" font-family="GillSans" font-size="40.0" fill="#000000" transform="matrix(1.00, 0.00, -0.00, -1.00, 624.2, 26.0)"> </text><text xml:space="preserve" font-family="GillSans" font-size="40.0" fill="#000000" transform="matrix(1.00, 0.00, -0.00, -1.00, 635.3, 26.0)">u</text><text xml:space="preserve" font-family="GillSans" font-size="40.0" fill="#000000" transform="matrix(1.00, 0.00, -0.00, -1.00, 655.3, 26.0)">s</text><text xml:space="preserve" font-family="GillSans" font-size="40.0" fill="#000000" transform="matrix(1.00, 0.00, -0.00, -1.00, 670.7, 26.0)">i</text><text xml:space="preserve" font-family="GillSans" font-size="40.0" fill="#000000" transform="matrix(1.00, 0.00, -0.00, -1.00, 679.4, 26.0)">n</text><text xml:space="preserve" font-family="GillSans" font-size="40.0" fill="#000000" transform="matrix(1.00, 0.00, -0.00, -1.00, 699.4, 26.0)">g</text><text xml:space="preserve" font-family="GillSans" font-size="40.0" fill="#000000" transform="matrix(1.00, 0.00, -0.00, -1.00, 716.5, 26.0)"> </text><text xml:space="preserve" font-family="GillSans" font-size="40.0" fill="#000000" transform="matrix(1.00, 0.00, -0.00, -1.00, 727.6, 26.0)">g</text><text xml:space="preserve" font-family="GillSans" font-size="40.0" fill="#000000" transform="matrix(1.00, 0.00, -0.00, -1.00, 744.7, 26.0)">a</text><text xml:space="preserve" font-family="GillSans" font-size="40.0" fill="#000000" transform="matrix(1.00, 0.00, -0.00, -1.00, 761.7, 26.0)">t</text><text xml:space="preserve" font-family="GillSans" font-size="40.0" fill="#000000" transform="matrix(1.00, 0.00, -0.00, -1.00, 775.1, 26.0)">e</text><text xml:space="preserve" font-family="GillSans" font-size="40.0" fill="#000000" transform="matrix(1.00, 0.00, -0.00, -1.00, 794.2, 26.0)">s</text></g></g></g></svg>