<?xml version="1.0" encoding="UTF-8" standalone="no"?><svg xmlns="http://www.w3.org/2000/svg" xmlns:xlink="http://www.w3.org/1999/xlink" clip-rule="evenodd" stroke-miterlimit="4.00" viewBox="0 0 1642 103"><desc>SVG generated by Keynote</desc><defs></defs><g transform="matrix(1.00, 0.00, -0.00, -1.00, 0.0, 103.0)"><text xml:space="preserve" font-family="GillSans" font-size="109.8" fill="#000000" transform="matrix(1.00, 0.00, -0.00, -1.00, 1.0, 26.0)">W</text><text xml:space="preserve" font-family="GillSans" font-size="109.8" fill="#000000" transform="matrix(1.00, 0.00, -0.00, -1.00, 108.8, 26.0)">a</text><text xml:space="preserve" font-family="GillSans" font-size="109.8" fill="#000000" transform="matrix(1.00, 0.00, -0.00, -1.00, 151.2, 26.0)">y</text><text xml:space="preserve" font-family="GillSans" font-size="109.8" fill="#000000" transform="matrix(1.00, 0.00, -0.00, -1.00, 199.3, 26.0)">s</text><text xml:space="preserve" font-family="GillSans" font-size="109.8" fill="#000000" transform="matrix(1.00, 0.00, -0.00, -1.00, 241.5, 26.0)"> </text><text xml:space="preserve" font-family="GillSans" font-size="109.8" fill="#000000" transform="matrix(1.00, 0.00, -0.00, -1.00, 271.9, 26.0)">t</text><text xml:space="preserve" font-family="GillSans" font-size="109.8" fill="#000000" transform="matrix(1.00, 0.00, -0.00, -1.00, 308.5, 26.0)">o</text><text xml:space="preserve" font-family="GillSans" font-size="109.8" fill="#000000" transform="matrix(1.00, 0.00, -0.00, -1.00, 369.0, 26.0)"> </text><text xml:space="preserve" font-family="GillSans" font-size="109.8" fill="#000000" transform="matrix(1.00, 0.00, -0.00, -1.00, 399.5, 26.0)">P</text><text xml:space="preserve" font-family="GillSans" font-size="109.8" fill="#000000" transform="matrix(1.00, 0.00, -0.00, -1.00, 455.4, 26.0)">r</text><text xml:space="preserve" font-family="GillSans" font-size="109.8" fill="#000000" transform="matrix(1.00, 0.00, -0.00, -1.00, 496.7, 26.0)">e</text><text xml:space="preserve" font-family="GillSans" font-size="109.8" fill="#000000" transform="matrix(1.00, 0.00, -0.00, -1.00, 547.6, 26.0)">v</text><text xml:space="preserve" font-family="GillSans" font-size="109.8" fill="#000000" transform="matrix(1.00, 0.00, -0.00, -1.00, 593.5, 26.0)">e</text><text xml:space="preserve" font-family="GillSans" font-size="109.8" fill="#000000" transform="matrix(1.00, 0.00, -0.00, -1.00, 646.1, 26.0)">n</text><text xml:space="preserve" font-family="GillSans" font-size="109.8" fill="#000000" transform="matrix(1.00, 0.00, -0.00, -1.00, 701.0, 26.0)">t</text><text xml:space="preserve" font-family="GillSans" font-size="109.8" fill="#000000" transform="matrix(1.00, 0.00, -0.00, -1.00, 737.5, 26.0)"> </text><text xml:space="preserve" font-family="GillSans" font-size="109.8" fill="#000000" transform="matrix(1.00, 0.00, -0.00, -1.00, 768.0, 26.0)">F</text><text xml:space="preserve" font-family="GillSans" font-size="109.8" fill="#000000" transform="matrix(1.00, 0.00, -0.00, -1.00, 817.9, 26.0)">o</text><text xml:space="preserve" font-family="GillSans" font-size="109.8" fill="#000000" transform="matrix(1.00, 0.00, -0.00, -1.00, 878.4, 26.0)">r</text><text xml:space="preserve" font-family="GillSans" font-size="109.8" fill="#000000" transform="matrix(1.00, 0.00, -0.00, -1.00, 921.9, 26.0)">g</text><text xml:space="preserve" font-family="GillSans" font-size="109.8" fill="#000000" transform="matrix(1.00, 0.00, -0.00, -1.00, 968.7, 26.0)">e</text><text xml:space="preserve" font-family="GillSans" font-size="109.8" fill="#000000" transform="matrix(1.00, 0.00, -0.00, -1.00, 1021.3, 26.0)">t</text><text xml:space="preserve" font-family="GillSans" font-size="109.8" fill="#000000" transform="matrix(1.00, 0.00, -0.00, -1.00, 1057.8, 26.0)">t</text><text xml:space="preserve" font-family="GillSans" font-size="109.8" fill="#000000" transform="matrix(1.00, 0.00, -0.00, -1.00, 1094.4, 26.0)">i</text><text xml:space="preserve" font-family="GillSans" font-size="109.8" fill="#000000" transform="matrix(1.00, 0.00, -0.00, -1.00, 1118.4, 26.0)">n</text><text xml:space="preserve" font-family="GillSans" font-size="109.8" fill="#000000" transform="matrix(1.00, 0.00, -0.00, -1.00, 1173.3, 26.0)">g</text><text xml:space="preserve" font-family="GillSans" font-size="109.8" fill="#000000" transform="matrix(1.00, 0.00, -0.00, -1.00, 1220.1, 26.0)"> </text><text xml:space="preserve" font-family="GillSans" font-size="109.8" fill="#000000" transform="matrix(1.00, 0.00, -0.00, -1.00, 1250.6, 26.0)">i</text><text xml:space="preserve" font-family="GillSans" font-size="109.8" fill="#000000" transform="matrix(1.00, 0.00, -0.00, -1.00, 1274.7, 26.0)">n</text><text xml:space="preserve" font-family="GillSans" font-size="109.8" fill="#000000" transform="matrix(1.00, 0.00, -0.00, -1.00, 1329.6, 26.0)"> </text><text xml:space="preserve" font-family="GillSans" font-size="109.8" fill="#000000" transform="matrix(1.00, 0.00, -0.00, -1.00, 1360.0, 26.0)">R</text><text xml:space="preserve" font-family="GillSans" font-size="109.8" fill="#000000" transform="matrix(1.00, 0.00, -0.00, -1.00, 1426.3, 26.0)">N</text><text xml:space="preserve" font-family="GillSans" font-size="109.8" fill="#000000" transform="matrix(1.00, 0.00, -0.00, -1.00, 1512.0, 26.0)">N</text><text xml:space="preserve" font-family="GillSans" font-size="109.8" fill="#000000" transform="matrix(1.00, 0.00, -0.00, -1.00, 1597.7, 26.0)">s</text><text xml:space="preserve" font-family="GillSans" font-size="109.8" fill="#000000" transform="matrix(1.00, 0.00, -0.00, -1.00, 1639.9, 26.0)"> </text></g></svg>