<?xml version="1.0" encoding="UTF-8" standalone="no"?><svg xmlns="http://www.w3.org/2000/svg" xmlns:xlink="http://www.w3.org/1999/xlink" clip-rule="evenodd" stroke-miterlimit="4.00" viewBox="0 0 52 50"><desc>SVG generated by Keynote</desc><defs></defs><g transform="matrix(1.00, 0.00, -0.00, -1.00, 0.0, 50.0)"><path d="M 15.4 47.1 L 37.0 47.1 C 40.7 47.1 42.5 47.1 44.5 46.5 C 46.6 45.7 48.3 44.0 49.1 41.9 C 49.7 39.9 49.7 38.1 49.7 34.4 L 49.7 15.5 C 49.7 11.8 49.7 10.0 49.1 8.0 C 48.3 5.9 46.6 4.2 44.5 3.4 C 42.5 2.8 40.7 2.8 37.0 2.8 L 15.4 2.8 C 11.7 2.8 9.9 2.8 7.9 3.4 C 5.8 4.2 4.1 5.9 3.3 8.0 C 2.7 10.0 2.7 11.8 2.7 15.5 L 2.7 34.4 C 2.7 38.1 2.7 39.9 3.3 41.9 C 4.1 44.0 5.8 45.7 7.9 46.5 C 9.9 47.1 11.7 47.1 15.4 47.1 Z M 15.4 47.1 " fill="#042BE1" fill-opacity="0.25"></path><path d="M 12.7 0.0 L 34.3 0.0 C 38.0 0.0 39.8 0.0 41.8 0.6 C 43.9 1.4 45.6 3.1 46.4 5.2 C 47.0 7.2 47.0 9.0 47.0 12.7 L 47.0 31.6 C 47.0 35.2 47.0 37.1 46.4 39.1 C 45.6 41.2 43.9 42.9 41.8 43.7 C 39.8 44.3 38.0 44.3 34.3 44.3 L 12.7 44.3 C 9.0 44.3 7.2 44.3 5.2 43.7 C 3.1 42.9 1.4 41.2 0.6 39.1 C 0.0 37.1 0.0 35.2 0.0 31.6 L 0.0 12.7 C 0.0 9.0 0.0 7.2 0.6 5.2 C 1.4 3.1 3.1 1.4 5.2 0.6 C 7.2 0.0 9.0 0.0 12.7 0.0 Z M 12.7 0.0 " fill="none" stroke="#000000" stroke-width="2.00" transform="matrix(1.00, 0.00, 0.00, -1.00, 2.7, 47.1)"></path><g><clipPath id="clip-11523"><path d="M -3.7 -1.8 L 56.1 -1.8 L 56.1 52.6 L -3.7 52.6 Z M -3.7 -1.8 "></path></clipPath><g clip-path="url(#clip-11523)"><text xml:space="preserve" font-family="GillSans" font-size="32.0" fill="#000000" transform="matrix(1.00, 0.00, -0.00, -1.00, 17.0, 15.0)">+</text></g></g></g></svg>