<?xml version="1.0" encoding="UTF-8" standalone="no"?><svg xmlns="http://www.w3.org/2000/svg" xmlns:xlink="http://www.w3.org/1999/xlink" clip-rule="evenodd" stroke-miterlimit="4.00" viewBox="0 0 124 33"><desc>SVG generated by Keynote</desc><defs></defs><g transform="matrix(1.00, 0.00, -0.00, -1.00, 0.0, 33.0)"><g><clipPath id="clip-11647"><path d="M 78.5 0.4 L 78.5 32.7 L 60.5 32.7 L 60.5 0.4 Z M 78.5 0.4 "></path></clipPath><g clip-path="url(#clip-11647)"><path d="M 77.1 6.0 L 77.1 27.1 C 77.1 28.3 77.1 28.9 76.9 29.6 C 76.7 30.3 76.1 30.9 75.4 31.1 C 74.7 31.3 74.1 31.3 72.9 31.3 L 66.0 31.3 C 64.8 31.3 64.2 31.3 63.6 31.1 C 62.9 30.9 62.3 30.3 62.0 29.6 C 61.8 28.9 61.8 28.3 61.8 27.1 L 61.8 6.0 C 61.8 4.8 61.8 4.2 62.0 3.6 C 62.3 2.8 62.9 2.3 63.6 2.0 C 64.2 1.8 64.8 1.8 66.1 1.8 L 72.9 1.8 C 74.1 1.8 74.7 1.8 75.4 2.0 C 76.1 2.3 76.7 2.8 76.9 3.6 C 77.1 4.2 77.1 4.8 77.1 6.0 Z M 77.1 6.0 " fill="#000000" fill-opacity="0.14"></path><path d="M 4.2 0.0 L 25.3 0.0 C 26.5 0.0 27.1 0.0 27.8 0.2 C 28.5 0.5 29.0 1.0 29.3 1.7 C 29.5 2.4 29.5 3.0 29.5 4.2 L 29.5 11.1 C 29.5 12.3 29.5 12.9 29.3 13.5 C 29.0 14.2 28.5 14.8 27.8 15.1 C 27.1 15.3 26.5 15.3 25.3 15.3 L 4.2 15.3 C 3.0 15.3 2.4 15.3 1.7 15.1 C 1.0 14.8 0.5 14.2 0.2 13.5 C 0.0 12.9 0.0 12.3 0.0 11.1 L 0.0 4.2 C 0.0 3.0 0.0 2.4 0.2 1.7 C 0.5 1.0 1.0 0.5 1.7 0.2 C 2.4 0.0 3.0 0.0 4.2 0.0 Z M 4.2 0.0 " fill="none" stroke="#000000" stroke-width="0.85" stroke-dasharray="0.9, 0.9" transform="matrix(-0.00, 1.00, -1.00, -0.00, 77.1, 1.8)"></path></g></g><g><clipPath id="clip-11648"><path d="M 48.7 0.4 L 48.7 32.7 L 30.6 32.7 L 30.6 0.4 Z M 48.7 0.4 "></path></clipPath><g clip-path="url(#clip-11648)"><path d="M 47.3 6.0 L 47.3 27.1 C 47.3 28.3 47.3 28.9 47.1 29.6 C 46.8 30.3 46.3 30.9 45.6 31.1 C 44.9 31.3 44.3 31.3 43.1 31.3 L 36.2 31.3 C 35.0 31.3 34.4 31.3 33.8 31.1 C 33.0 30.9 32.5 30.3 32.2 29.6 C 32.0 28.9 32.0 28.3 32.0 27.1 L 32.0 6.0 C 32.0 4.8 32.0 4.2 32.2 3.6 C 32.5 2.8 33.0 2.3 33.8 2.0 C 34.4 1.8 35.0 1.8 36.2 1.8 L 43.1 1.8 C 44.3 1.8 44.9 1.8 45.6 2.0 C 46.3 2.3 46.8 2.8 47.1 3.6 C 47.3 4.2 47.3 4.8 47.3 6.0 Z M 47.3 6.0 " fill="#000000" fill-opacity="0.03"></path><path d="M 4.2 0.0 L 25.3 0.0 C 26.5 0.0 27.1 0.0 27.8 0.2 C 28.5 0.5 29.0 1.0 29.3 1.7 C 29.5 2.4 29.5 3.0 29.5 4.2 L 29.5 11.1 C 29.5 12.3 29.5 12.9 29.3 13.5 C 29.0 14.2 28.5 14.8 27.8 15.1 C 27.1 15.3 26.5 15.3 25.3 15.3 L 4.2 15.3 C 3.0 15.3 2.4 15.3 1.7 15.1 C 1.0 14.8 0.5 14.2 0.2 13.5 C 0.0 12.9 0.0 12.3 0.0 11.1 L 0.0 4.2 C 0.0 3.0 0.0 2.4 0.2 1.7 C 0.5 1.0 1.0 0.5 1.7 0.2 C 2.4 0.0 3.0 0.0 4.2 0.0 Z M 4.2 0.0 " fill="none" stroke="#000000" stroke-width="0.85" stroke-dasharray="0.9, 0.9" transform="matrix(-0.00, 1.00, -1.00, -0.00, 47.3, 1.8)"></path></g></g><g><clipPath id="clip-11649"><path d="M 18.8 0.4 L 18.8 32.7 L 0.8 32.7 L 0.8 0.4 Z M 18.8 0.4 "></path></clipPath><g clip-path="url(#clip-11649)"><path d="M 17.5 6.0 L 17.5 27.1 C 17.5 28.3 17.5 28.9 17.3 29.6 C 17.0 30.3 16.4 30.9 15.7 31.1 C 15.1 31.3 14.5 31.3 13.2 31.3 L 6.4 31.3 C 5.2 31.3 4.6 31.3 3.9 31.1 C 3.2 30.9 2.7 30.3 2.4 29.6 C 2.2 28.9 2.2 28.3 2.2 27.1 L 2.2 6.0 C 2.2 4.8 2.2 4.2 2.4 3.6 C 2.7 2.8 3.2 2.3 3.9 2.0 C 4.6 1.8 5.2 1.8 6.4 1.8 L 13.3 1.8 C 14.5 1.8 15.1 1.8 15.7 2.0 C 16.4 2.3 17.0 2.8 17.3 3.6 C 17.5 4.2 17.5 4.8 17.5 6.0 Z M 17.5 6.0 " fill="#000000" fill-opacity="0.19"></path><path d="M 4.2 0.0 L 25.3 0.0 C 26.5 0.0 27.1 0.0 27.8 0.2 C 28.5 0.5 29.0 1.0 29.3 1.7 C 29.5 2.4 29.5 3.0 29.5 4.2 L 29.5 11.1 C 29.5 12.3 29.5 12.9 29.3 13.5 C 29.0 14.2 28.5 14.8 27.8 15.1 C 27.1 15.3 26.5 15.3 25.3 15.3 L 4.2 15.3 C 3.0 15.3 2.4 15.3 1.7 15.1 C 1.0 14.8 0.5 14.2 0.2 13.5 C 0.0 12.9 0.0 12.3 0.0 11.1 L 0.0 4.2 C 0.0 3.0 0.0 2.4 0.2 1.7 C 0.5 1.0 1.0 0.5 1.7 0.2 C 2.4 0.0 3.0 0.0 4.2 0.0 Z M 4.2 0.0 " fill="none" stroke="#000000" stroke-width="0.85" stroke-dasharray="0.9, 0.9" transform="matrix(-0.00, 1.00, -1.00, -0.00, 17.5, 1.8)"></path></g></g><g><clipPath id="clip-11650"><path d="M 33.8 0.4 L 33.8 32.7 L 15.7 32.7 L 15.7 0.4 Z M 33.8 0.4 "></path></clipPath><g clip-path="url(#clip-11650)"><path d="M 32.4 6.0 L 32.4 27.1 C 32.4 28.3 32.4 28.9 32.2 29.6 C 31.9 30.3 31.4 30.9 30.6 31.1 C 30.0 31.3 29.4 31.3 28.2 31.3 L 21.3 31.3 C 20.1 31.3 19.5 31.3 18.8 31.1 C 18.1 30.9 17.6 30.3 17.3 29.6 C 17.1 28.9 17.1 28.3 17.1 27.1 L 17.1 6.0 C 17.1 4.8 17.1 4.2 17.3 3.6 C 17.6 2.8 18.1 2.3 18.8 2.0 C 19.5 1.8 20.1 1.8 21.3 1.8 L 28.2 1.8 C 29.4 1.8 30.0 1.8 30.6 2.0 C 31.4 2.3 31.9 2.8 32.2 3.6 C 32.4 4.2 32.4 4.8 32.4 6.0 Z M 32.4 6.0 " fill="#000000" fill-opacity="0.17"></path><path d="M 4.2 0.0 L 25.3 0.0 C 26.5 0.0 27.1 0.0 27.8 0.2 C 28.5 0.5 29.0 1.0 29.3 1.7 C 29.5 2.4 29.5 3.0 29.5 4.2 L 29.5 11.1 C 29.5 12.3 29.5 12.9 29.3 13.5 C 29.0 14.2 28.5 14.8 27.8 15.1 C 27.1 15.3 26.5 15.3 25.3 15.3 L 4.2 15.3 C 3.0 15.3 2.4 15.3 1.7 15.1 C 1.0 14.8 0.5 14.2 0.2 13.5 C 0.0 12.9 0.0 12.3 0.0 11.1 L 0.0 4.2 C 0.0 3.0 0.0 2.4 0.2 1.7 C 0.5 1.0 1.0 0.5 1.7 0.2 C 2.4 0.0 3.0 0.0 4.2 0.0 Z M 4.2 0.0 " fill="none" stroke="#000000" stroke-width="0.85" stroke-dasharray="0.9, 0.9" transform="matrix(-0.00, 1.00, -1.00, -0.00, 32.4, 1.8)"></path></g></g><g><clipPath id="clip-11651"><path d="M 93.4 0.4 L 93.4 32.7 L 75.4 32.7 L 75.4 0.4 Z M 93.4 0.4 "></path></clipPath><g clip-path="url(#clip-11651)"><path d="M 92.0 6.0 L 92.0 27.1 C 92.0 28.3 92.0 28.9 91.8 29.6 C 91.6 30.3 91.0 30.9 90.3 31.1 C 89.6 31.3 89.0 31.3 87.8 31.3 L 81.0 31.3 C 79.8 31.3 79.1 31.3 78.5 31.1 C 77.8 30.9 77.2 30.3 77.0 29.6 C 76.8 28.9 76.8 28.3 76.8 27.1 L 76.8 6.0 C 76.8 4.8 76.8 4.2 77.0 3.6 C 77.2 2.8 77.8 2.3 78.5 2.0 C 79.1 1.8 79.8 1.8 81.0 1.8 L 87.8 1.8 C 89.0 1.8 89.6 1.8 90.3 2.0 C 91.0 2.3 91.6 2.8 91.8 3.6 C 92.0 4.2 92.0 4.8 92.0 6.0 Z M 92.0 6.0 " fill="#000000" fill-opacity="0.48"></path><path d="M 4.2 0.0 L 25.3 0.0 C 26.5 0.0 27.1 0.0 27.8 0.2 C 28.5 0.5 29.0 1.0 29.3 1.7 C 29.5 2.4 29.5 3.0 29.5 4.2 L 29.5 11.1 C 29.5 12.3 29.5 12.9 29.3 13.5 C 29.0 14.2 28.5 14.8 27.8 15.1 C 27.1 15.3 26.5 15.3 25.3 15.3 L 4.2 15.3 C 3.0 15.3 2.4 15.3 1.7 15.1 C 1.0 14.8 0.5 14.2 0.2 13.5 C 0.0 12.9 0.0 12.3 0.0 11.1 L 0.0 4.2 C 0.0 3.0 0.0 2.4 0.2 1.7 C 0.5 1.0 1.0 0.5 1.7 0.2 C 2.4 0.0 3.0 0.0 4.2 0.0 Z M 4.2 0.0 " fill="none" stroke="#000000" stroke-width="0.85" stroke-dasharray="0.9, 0.9" transform="matrix(-0.00, 1.00, -1.00, -0.00, 92.0, 1.8)"></path></g></g><g><clipPath id="clip-11652"><path d="M 123.2 0.4 L 123.2 32.7 L 105.2 32.7 L 105.2 0.4 Z M 123.2 0.4 "></path></clipPath><g clip-path="url(#clip-11652)"><path d="M 121.9 6.0 L 121.9 27.1 C 121.9 28.3 121.9 28.9 121.6 29.6 C 121.4 30.3 120.8 30.9 120.1 31.1 C 119.5 31.3 118.9 31.3 117.6 31.3 L 110.8 31.3 C 109.6 31.3 109.0 31.3 108.3 31.1 C 107.6 30.9 107.0 30.3 106.8 29.6 C 106.6 28.9 106.6 28.3 106.6 27.1 L 106.6 6.0 C 106.6 4.8 106.6 4.2 106.8 3.6 C 107.0 2.8 107.6 2.3 108.3 2.0 C 109.0 1.8 109.6 1.8 110.8 1.8 L 117.7 1.8 C 118.9 1.8 119.5 1.8 120.1 2.0 C 120.8 2.3 121.4 2.8 121.6 3.6 C 121.9 4.2 121.9 4.8 121.9 6.0 Z M 121.9 6.0 " fill="#000000" fill-opacity="0.03"></path><path d="M 4.2 0.0 L 25.3 0.0 C 26.5 0.0 27.1 0.0 27.8 0.2 C 28.5 0.5 29.0 1.0 29.3 1.7 C 29.5 2.4 29.5 3.0 29.5 4.2 L 29.5 11.1 C 29.5 12.3 29.5 12.9 29.3 13.5 C 29.0 14.2 28.5 14.8 27.8 15.1 C 27.1 15.3 26.5 15.3 25.3 15.3 L 4.2 15.3 C 3.0 15.3 2.4 15.3 1.7 15.1 C 1.0 14.8 0.5 14.2 0.2 13.5 C 0.0 12.9 0.0 12.3 0.0 11.1 L 0.0 4.2 C 0.0 3.0 0.0 2.4 0.2 1.7 C 0.5 1.0 1.0 0.5 1.7 0.2 C 2.4 0.0 3.0 0.0 4.2 0.0 Z M 4.2 0.0 " fill="none" stroke="#000000" stroke-width="0.85" stroke-dasharray="0.9, 0.9" transform="matrix(-0.00, 1.00, -1.00, -0.00, 121.9, 1.8)"></path></g></g><g><clipPath id="clip-11653"><path d="M 108.3 0.4 L 108.3 32.7 L 90.3 32.7 L 90.3 0.4 Z M 108.3 0.4 "></path></clipPath><g clip-path="url(#clip-11653)"><path d="M 106.9 6.0 L 106.9 27.1 C 106.9 28.3 106.9 28.9 106.7 29.6 C 106.5 30.3 105.9 30.9 105.2 31.1 C 104.6 31.3 103.9 31.3 102.7 31.3 L 95.9 31.3 C 94.7 31.3 94.1 31.3 93.4 31.1 C 92.7 30.9 92.1 30.3 91.9 29.6 C 91.7 28.9 91.7 28.3 91.7 27.1 L 91.7 6.0 C 91.7 4.8 91.7 4.2 91.9 3.6 C 92.1 2.8 92.7 2.3 93.4 2.0 C 94.1 1.8 94.7 1.8 95.9 1.8 L 102.7 1.8 C 103.9 1.8 104.6 1.8 105.2 2.0 C 105.9 2.3 106.5 2.8 106.7 3.6 C 106.9 4.2 106.9 4.8 106.9 6.0 Z M 106.9 6.0 " fill="#000000" fill-opacity="0.14"></path><path d="M 4.2 0.0 L 25.3 0.0 C 26.5 0.0 27.1 0.0 27.8 0.2 C 28.5 0.5 29.0 1.0 29.3 1.7 C 29.5 2.4 29.5 3.0 29.5 4.2 L 29.5 11.1 C 29.5 12.3 29.5 12.9 29.3 13.5 C 29.0 14.2 28.5 14.8 27.8 15.1 C 27.1 15.3 26.5 15.3 25.3 15.3 L 4.2 15.3 C 3.0 15.3 2.4 15.3 1.7 15.1 C 1.0 14.8 0.5 14.2 0.2 13.5 C 0.0 12.9 0.0 12.3 0.0 11.1 L 0.0 4.2 C 0.0 3.0 0.0 2.4 0.2 1.7 C 0.5 1.0 1.0 0.5 1.7 0.2 C 2.4 0.0 3.0 0.0 4.2 0.0 Z M 4.2 0.0 " fill="none" stroke="#000000" stroke-width="0.85" stroke-dasharray="0.9, 0.9" transform="matrix(-0.00, 1.00, -1.00, -0.00, 106.9, 1.8)"></path></g></g><g><clipPath id="clip-11654"><path d="M 63.6 0.4 L 63.6 32.7 L 45.6 32.7 L 45.6 0.4 Z M 63.6 0.4 "></path></clipPath><g clip-path="url(#clip-11654)"><path d="M 62.2 6.0 L 62.2 27.1 C 62.2 28.3 62.2 28.9 62.0 29.6 C 61.7 30.3 61.2 30.9 60.5 31.1 C 59.8 31.3 59.2 31.3 58.0 31.3 L 51.1 31.3 C 49.9 31.3 49.3 31.3 48.7 31.1 C 48.0 30.9 47.4 30.3 47.1 29.6 C 46.9 28.9 46.9 28.3 46.9 27.1 L 46.9 6.0 C 46.9 4.8 46.9 4.2 47.1 3.6 C 47.4 2.8 48.0 2.3 48.7 2.0 C 49.3 1.8 49.9 1.8 51.1 1.8 L 58.0 1.8 C 59.2 1.8 59.8 1.8 60.5 2.0 C 61.2 2.3 61.7 2.8 62.0 3.6 C 62.2 4.2 62.2 4.8 62.2 6.0 Z M 62.2 6.0 " fill="#000000" fill-opacity="0.35"></path><path d="M 4.2 0.0 L 25.3 0.0 C 26.5 0.0 27.1 0.0 27.8 0.2 C 28.5 0.5 29.0 1.0 29.3 1.7 C 29.5 2.4 29.5 3.0 29.5 4.2 L 29.5 11.1 C 29.5 12.3 29.5 12.9 29.3 13.5 C 29.0 14.2 28.5 14.8 27.8 15.1 C 27.1 15.3 26.5 15.3 25.3 15.3 L 4.2 15.3 C 3.0 15.3 2.4 15.3 1.7 15.1 C 1.0 14.8 0.5 14.2 0.2 13.5 C 0.0 12.9 0.0 12.3 0.0 11.1 L 0.0 4.2 C 0.0 3.0 0.0 2.4 0.2 1.7 C 0.5 1.0 1.0 0.5 1.7 0.2 C 2.4 0.0 3.0 0.0 4.2 0.0 Z M 4.2 0.0 " fill="none" stroke="#000000" stroke-width="0.85" stroke-dasharray="0.9, 0.9" transform="matrix(-0.00, 1.00, -1.00, -0.00, 62.2, 1.8)"></path></g></g><g><clipPath id="clip-11655"><path d="M 123.7 0.3 L 123.7 32.8 L 0.7 32.8 L 0.7 0.3 Z M 123.7 0.3 "></path></clipPath><g clip-path="url(#clip-11655)"><path d="M 122.2 6.0 L 122.2 27.1 C 122.2 28.3 122.2 28.9 122.0 29.6 C 121.7 30.3 121.2 30.9 120.5 31.1 C 119.8 31.3 119.2 31.3 118.0 31.3 L 6.4 31.3 C 5.2 31.3 4.6 31.3 3.9 31.1 C 3.2 30.9 2.7 30.3 2.4 29.6 C 2.2 28.9 2.2 28.3 2.2 27.1 L 2.2 6.0 C 2.2 4.8 2.2 4.2 2.4 3.6 C 2.7 2.8 3.2 2.3 3.9 2.0 C 4.6 1.8 5.2 1.8 6.4 1.8 L 118.0 1.8 C 119.2 1.8 119.8 1.8 120.5 2.0 C 121.2 2.3 121.7 2.8 122.0 3.6 C 122.2 4.2 122.2 4.8 122.2 6.0 Z M 122.2 6.0 " fill="#000000" fill-opacity="0.10"></path><path d="M 4.2 0.0 L 25.3 0.0 C 26.5 0.0 27.1 0.0 27.8 0.2 C 28.5 0.5 29.0 1.0 29.3 1.7 C 29.5 2.4 29.5 3.0 29.5 4.2 L 29.5 115.8 C 29.5 117.0 29.5 117.6 29.3 118.3 C 29.0 119.0 28.5 119.5 27.8 119.8 C 27.1 120.0 26.5 120.0 25.3 120.0 L 4.2 120.0 C 3.0 120.0 2.4 120.0 1.7 119.8 C 1.0 119.5 0.5 119.0 0.2 118.3 C 0.0 117.6 0.0 117.0 0.0 115.8 L 0.0 4.2 C 0.0 3.0 0.0 2.4 0.2 1.7 C 0.5 1.0 1.0 0.5 1.7 0.2 C 2.4 0.0 3.0 0.0 4.2 0.0 Z M 4.2 0.0 " fill="none" stroke="#000000" stroke-width="1.10" transform="matrix(-0.00, 1.00, -1.00, -0.00, 122.2, 1.8)"></path></g></g></g></svg>