<?xml version="1.0" encoding="UTF-8" standalone="no"?><svg xmlns="http://www.w3.org/2000/svg" xmlns:xlink="http://www.w3.org/1999/xlink" clip-rule="evenodd" stroke-miterlimit="4.00" viewBox="0 0 33 124"><desc>SVG generated by Keynote</desc><defs></defs><g transform="matrix(1.00, 0.00, -0.00, -1.00, 0.0, 124.0)"><g><clipPath id="clip-11430"><path d="M 0.3 0.8 L 32.8 0.8 L 32.8 123.8 L 0.3 123.8 Z M 0.3 0.8 "></path></clipPath><g clip-path="url(#clip-11430)"><path d="M 6.0 122.3 L 27.1 122.3 C 28.3 122.3 28.9 122.3 29.6 122.1 C 30.3 121.8 30.8 121.3 31.1 120.6 C 31.3 119.9 31.3 119.3 31.3 118.1 L 31.3 6.5 C 31.3 5.3 31.3 4.7 31.1 4.0 C 30.8 3.3 30.3 2.8 29.6 2.5 C 28.9 2.3 28.3 2.3 27.1 2.3 L 6.0 2.3 C 4.8 2.3 4.2 2.3 3.5 2.5 C 2.8 2.8 2.3 3.3 2.0 4.0 C 1.8 4.7 1.8 5.3 1.8 6.5 L 1.8 118.1 C 1.8 119.3 1.8 119.9 2.0 120.6 C 2.3 121.3 2.8 121.8 3.5 122.1 C 4.2 122.3 4.8 122.3 6.0 122.3 Z M 6.0 122.3 " fill="#000000" fill-opacity="0.41"></path><path d="M 4.2 0.0 L 25.3 0.0 C 26.5 0.0 27.1 0.0 27.8 0.2 C 28.5 0.5 29.0 1.0 29.3 1.7 C 29.5 2.4 29.5 3.0 29.5 4.2 L 29.5 115.8 C 29.5 117.0 29.5 117.6 29.3 118.3 C 29.0 119.0 28.5 119.5 27.8 119.8 C 27.1 120.0 26.5 120.0 25.3 120.0 L 4.2 120.0 C 3.0 120.0 2.4 120.0 1.7 119.8 C 1.0 119.5 0.5 119.0 0.2 118.3 C 0.0 117.6 0.0 117.0 0.0 115.8 L 0.0 4.2 C 0.0 3.0 0.0 2.4 0.2 1.7 C 0.5 1.0 1.0 0.5 1.7 0.2 C 2.4 0.0 3.0 0.0 4.2 0.0 Z M 4.2 0.0 " fill="none" stroke="#000000" stroke-width="1.10" transform="matrix(1.00, 0.00, 0.00, -1.00, 1.8, 122.3)"></path></g></g><g><clipPath id="clip-11431"><path d="M 0.4 90.7 L 32.7 90.7 L 32.7 108.8 L 0.4 108.8 Z M 0.4 90.7 "></path></clipPath><g clip-path="url(#clip-11431)"><path d="M 6.0 107.4 L 27.1 107.4 C 28.3 107.4 28.9 107.4 29.6 107.2 C 30.3 106.9 30.8 106.4 31.1 105.6 C 31.3 105.0 31.3 104.4 31.3 103.2 L 31.3 96.3 C 31.3 95.1 31.3 94.5 31.1 93.8 C 30.8 93.1 30.3 92.6 29.6 92.3 C 28.9 92.1 28.3 92.1 27.1 92.1 L 6.0 92.1 C 4.8 92.1 4.2 92.1 3.5 92.3 C 2.8 92.6 2.3 93.1 2.0 93.8 C 1.8 94.5 1.8 95.1 1.8 96.3 L 1.8 103.2 C 1.8 104.4 1.8 105.0 2.0 105.6 C 2.3 106.4 2.8 106.9 3.5 107.2 C 4.2 107.4 4.8 107.4 6.0 107.4 Z M 6.0 107.4 " fill="#000000" fill-opacity="0.14"></path><path d="M 4.2 0.0 L 25.3 0.0 C 26.5 0.0 27.1 0.0 27.8 0.2 C 28.5 0.5 29.0 1.0 29.3 1.7 C 29.5 2.4 29.5 3.0 29.5 4.2 L 29.5 11.1 C 29.5 12.3 29.5 12.9 29.3 13.5 C 29.0 14.2 28.5 14.8 27.8 15.1 C 27.1 15.3 26.5 15.3 25.3 15.3 L 4.2 15.3 C 3.0 15.3 2.4 15.3 1.7 15.1 C 1.0 14.8 0.5 14.2 0.2 13.5 C 0.0 12.9 0.0 12.3 0.0 11.1 L 0.0 4.2 C 0.0 3.0 0.0 2.4 0.2 1.7 C 0.5 1.0 1.0 0.5 1.7 0.2 C 2.4 0.0 3.0 0.0 4.2 0.0 Z M 4.2 0.0 " fill="none" stroke="#000000" stroke-width="0.85" stroke-dasharray="0.9, 0.9" transform="matrix(1.00, 0.00, 0.00, -1.00, 1.8, 107.4)"></path></g></g><g><clipPath id="clip-11432"><path d="M 0.4 105.7 L 32.7 105.7 L 32.7 123.7 L 0.4 123.7 Z M 0.4 105.7 "></path></clipPath><g clip-path="url(#clip-11432)"><path d="M 6.0 122.3 L 27.1 122.3 C 28.3 122.3 28.9 122.3 29.6 122.1 C 30.3 121.8 30.8 121.3 31.1 120.6 C 31.3 119.9 31.3 119.3 31.3 118.1 L 31.3 111.2 C 31.3 110.0 31.3 109.4 31.1 108.8 C 30.8 108.0 30.3 107.5 29.6 107.2 C 28.9 107.0 28.3 107.0 27.1 107.0 L 6.0 107.0 C 4.8 107.0 4.2 107.0 3.5 107.2 C 2.8 107.5 2.3 108.0 2.0 108.8 C 1.8 109.4 1.8 110.0 1.8 111.2 L 1.8 118.1 C 1.8 119.3 1.8 119.9 2.0 120.6 C 2.3 121.3 2.8 121.8 3.5 122.1 C 4.2 122.3 4.8 122.3 6.0 122.3 Z M 6.0 122.3 " fill="#000000" fill-opacity="0.03"></path><path d="M 4.2 0.0 L 25.3 0.0 C 26.5 0.0 27.1 0.0 27.8 0.2 C 28.5 0.5 29.0 1.0 29.3 1.7 C 29.5 2.4 29.5 3.0 29.5 4.2 L 29.5 11.1 C 29.5 12.3 29.5 12.9 29.3 13.5 C 29.0 14.2 28.5 14.8 27.8 15.1 C 27.1 15.3 26.5 15.3 25.3 15.3 L 4.2 15.3 C 3.0 15.3 2.4 15.3 1.7 15.1 C 1.0 14.8 0.5 14.2 0.2 13.5 C 0.0 12.9 0.0 12.3 0.0 11.1 L 0.0 4.2 C 0.0 3.0 0.0 2.4 0.2 1.7 C 0.5 1.0 1.0 0.5 1.7 0.2 C 2.4 0.0 3.0 0.0 4.2 0.0 Z M 4.2 0.0 " fill="none" stroke="#000000" stroke-width="0.85" stroke-dasharray="0.9, 0.9" transform="matrix(1.00, 0.00, 0.00, -1.00, 1.8, 122.3)"></path></g></g><g><clipPath id="clip-11433"><path d="M 0.4 60.9 L 32.7 60.9 L 32.7 78.9 L 0.4 78.9 Z M 0.4 60.9 "></path></clipPath><g clip-path="url(#clip-11433)"><path d="M 6.0 77.6 L 27.1 77.6 C 28.3 77.6 28.9 77.6 29.6 77.4 C 30.3 77.1 30.8 76.5 31.1 75.8 C 31.3 75.2 31.3 74.6 31.3 73.3 L 31.3 66.5 C 31.3 65.3 31.3 64.7 31.1 64.0 C 30.8 63.3 30.3 62.8 29.6 62.5 C 28.9 62.3 28.3 62.3 27.1 62.3 L 6.0 62.3 C 4.8 62.3 4.2 62.3 3.5 62.5 C 2.8 62.8 2.3 63.3 2.0 64.0 C 1.8 64.7 1.8 65.3 1.8 66.5 L 1.8 73.4 C 1.8 74.6 1.8 75.2 2.0 75.8 C 2.3 76.5 2.8 77.1 3.5 77.4 C 4.2 77.6 4.8 77.6 6.0 77.6 Z M 6.0 77.6 " fill="#000000" fill-opacity="0.19"></path><path d="M 4.2 0.0 L 25.3 0.0 C 26.5 0.0 27.1 0.0 27.8 0.2 C 28.5 0.5 29.0 1.0 29.3 1.7 C 29.5 2.4 29.5 3.0 29.5 4.2 L 29.5 11.1 C 29.5 12.3 29.5 12.9 29.3 13.5 C 29.0 14.2 28.5 14.8 27.8 15.1 C 27.1 15.3 26.5 15.3 25.3 15.3 L 4.2 15.3 C 3.0 15.3 2.4 15.3 1.7 15.1 C 1.0 14.8 0.5 14.2 0.2 13.5 C 0.0 12.9 0.0 12.3 0.0 11.1 L 0.0 4.2 C 0.0 3.0 0.0 2.4 0.2 1.7 C 0.5 1.0 1.0 0.5 1.7 0.2 C 2.4 0.0 3.0 0.0 4.2 0.0 Z M 4.2 0.0 " fill="none" stroke="#000000" stroke-width="0.85" stroke-dasharray="0.9, 0.9" transform="matrix(1.00, 0.00, 0.00, -1.00, 1.8, 77.6)"></path></g></g><g><clipPath id="clip-11434"><path d="M 0.4 75.8 L 32.7 75.8 L 32.7 93.8 L 0.4 93.8 Z M 0.4 75.8 "></path></clipPath><g clip-path="url(#clip-11434)"><path d="M 6.0 92.5 L 27.1 92.5 C 28.3 92.5 28.9 92.5 29.6 92.3 C 30.3 92.0 30.8 91.4 31.1 90.7 C 31.3 90.1 31.3 89.5 31.3 88.3 L 31.3 81.4 C 31.3 80.2 31.3 79.6 31.1 78.9 C 30.8 78.2 30.3 77.7 29.6 77.4 C 28.9 77.2 28.3 77.2 27.1 77.2 L 6.0 77.2 C 4.8 77.2 4.2 77.2 3.5 77.4 C 2.8 77.7 2.3 78.2 2.0 78.9 C 1.8 79.6 1.8 80.2 1.8 81.4 L 1.8 88.3 C 1.8 89.5 1.8 90.1 2.0 90.7 C 2.3 91.4 2.8 92.0 3.5 92.3 C 4.2 92.5 4.8 92.5 6.0 92.5 Z M 6.0 92.5 " fill="#000000" fill-opacity="0.17"></path><path d="M 4.2 0.0 L 25.3 0.0 C 26.5 0.0 27.1 0.0 27.8 0.2 C 28.5 0.5 29.0 1.0 29.3 1.7 C 29.5 2.4 29.5 3.0 29.5 4.2 L 29.5 11.1 C 29.5 12.3 29.5 12.9 29.3 13.5 C 29.0 14.2 28.5 14.8 27.8 15.1 C 27.1 15.3 26.5 15.3 25.3 15.3 L 4.2 15.3 C 3.0 15.3 2.4 15.3 1.7 15.1 C 1.0 14.8 0.5 14.2 0.2 13.5 C 0.0 12.9 0.0 12.3 0.0 11.1 L 0.0 4.2 C 0.0 3.0 0.0 2.4 0.2 1.7 C 0.5 1.0 1.0 0.5 1.7 0.2 C 2.4 0.0 3.0 0.0 4.2 0.0 Z M 4.2 0.0 " fill="none" stroke="#000000" stroke-width="0.85" stroke-dasharray="0.9, 0.9" transform="matrix(1.00, 0.00, 0.00, -1.00, 1.8, 92.5)"></path></g></g><g><clipPath id="clip-11435"><path d="M 0.4 1.3 L 32.7 1.3 L 32.7 19.3 L 0.4 19.3 Z M 0.4 1.3 "></path></clipPath><g clip-path="url(#clip-11435)"><path d="M 6.0 17.9 L 27.1 17.9 C 28.3 17.9 28.9 17.9 29.6 17.7 C 30.3 17.4 30.8 16.9 31.1 16.2 C 31.3 15.5 31.3 14.9 31.3 13.7 L 31.3 6.8 C 31.3 5.6 31.3 5.0 31.1 4.4 C 30.8 3.7 30.3 3.1 29.6 2.8 C 28.9 2.6 28.3 2.6 27.1 2.6 L 6.0 2.6 C 4.8 2.6 4.2 2.6 3.5 2.8 C 2.8 3.1 2.3 3.7 2.0 4.4 C 1.8 5.0 1.8 5.6 1.8 6.9 L 1.8 13.7 C 1.8 14.9 1.8 15.5 2.0 16.2 C 2.3 16.9 2.8 17.4 3.5 17.7 C 4.2 17.9 4.8 17.9 6.0 17.9 Z M 6.0 17.9 " fill="#000000" fill-opacity="0.48"></path><path d="M 4.2 0.0 L 25.3 0.0 C 26.5 0.0 27.1 0.0 27.8 0.2 C 28.5 0.5 29.0 1.0 29.3 1.7 C 29.5 2.4 29.5 3.0 29.5 4.2 L 29.5 11.1 C 29.5 12.3 29.5 12.9 29.3 13.5 C 29.0 14.2 28.5 14.8 27.8 15.1 C 27.1 15.3 26.5 15.3 25.3 15.3 L 4.2 15.3 C 3.0 15.3 2.4 15.3 1.7 15.1 C 1.0 14.8 0.5 14.2 0.2 13.5 C 0.0 12.9 0.0 12.3 0.0 11.1 L 0.0 4.2 C 0.0 3.0 0.0 2.4 0.2 1.7 C 0.5 1.0 1.0 0.5 1.7 0.2 C 2.4 0.0 3.0 0.0 4.2 0.0 Z M 4.2 0.0 " fill="none" stroke="#000000" stroke-width="0.85" stroke-dasharray="0.9, 0.9" transform="matrix(1.00, 0.00, 0.00, -1.00, 1.8, 17.9)"></path></g></g><g><clipPath id="clip-11436"><path d="M 0.4 75.8 L 32.7 75.8 L 32.7 93.8 L 0.4 93.8 Z M 0.4 75.8 "></path></clipPath><g clip-path="url(#clip-11436)"><path d="M 6.0 92.5 L 27.1 92.5 C 28.3 92.5 28.9 92.5 29.6 92.3 C 30.3 92.0 30.8 91.4 31.1 90.7 C 31.3 90.1 31.3 89.5 31.3 88.3 L 31.3 81.4 C 31.3 80.2 31.3 79.6 31.1 78.9 C 30.8 78.2 30.3 77.7 29.6 77.4 C 28.9 77.2 28.3 77.2 27.1 77.2 L 6.0 77.2 C 4.8 77.2 4.2 77.2 3.5 77.4 C 2.8 77.7 2.3 78.2 2.0 78.9 C 1.8 79.6 1.8 80.2 1.8 81.4 L 1.8 88.3 C 1.8 89.5 1.8 90.1 2.0 90.7 C 2.3 91.4 2.8 92.0 3.5 92.3 C 4.2 92.5 4.8 92.5 6.0 92.5 Z M 6.0 92.5 " fill="#000000" fill-opacity="0.03"></path><path d="M 4.2 0.0 L 25.3 0.0 C 26.5 0.0 27.1 0.0 27.8 0.2 C 28.5 0.5 29.0 1.0 29.3 1.7 C 29.5 2.4 29.5 3.0 29.5 4.2 L 29.5 11.1 C 29.5 12.3 29.5 12.9 29.3 13.5 C 29.0 14.2 28.5 14.8 27.8 15.1 C 27.1 15.3 26.5 15.3 25.3 15.3 L 4.2 15.3 C 3.0 15.3 2.4 15.3 1.7 15.1 C 1.0 14.8 0.5 14.2 0.2 13.5 C 0.0 12.9 0.0 12.3 0.0 11.1 L 0.0 4.2 C 0.0 3.0 0.0 2.4 0.2 1.7 C 0.5 1.0 1.0 0.5 1.7 0.2 C 2.4 0.0 3.0 0.0 4.2 0.0 Z M 4.2 0.0 " fill="none" stroke="#000000" stroke-width="0.85" stroke-dasharray="0.9, 0.9" transform="matrix(1.00, 0.00, 0.00, -1.00, 1.8, 92.5)"></path></g></g><g><clipPath id="clip-11437"><path d="M 0.4 46.0 L 32.7 46.0 L 32.7 64.0 L 0.4 64.0 Z M 0.4 46.0 "></path></clipPath><g clip-path="url(#clip-11437)"><path d="M 6.0 62.6 L 27.1 62.6 C 28.3 62.6 28.9 62.6 29.6 62.4 C 30.3 62.2 30.8 61.6 31.1 60.9 C 31.3 60.3 31.3 59.6 31.3 58.4 L 31.3 51.6 C 31.3 50.4 31.3 49.8 31.1 49.1 C 30.8 48.4 30.3 47.8 29.6 47.6 C 28.9 47.4 28.3 47.4 27.1 47.4 L 6.0 47.4 C 4.8 47.4 4.2 47.4 3.5 47.6 C 2.8 47.8 2.3 48.4 2.0 49.1 C 1.8 49.8 1.8 50.4 1.8 51.6 L 1.8 58.4 C 1.8 59.6 1.8 60.3 2.0 60.9 C 2.3 61.6 2.8 62.2 3.5 62.4 C 4.2 62.6 4.8 62.6 6.0 62.6 Z M 6.0 62.6 " fill="#000000" fill-opacity="0.14"></path><path d="M 4.2 0.0 L 25.3 0.0 C 26.5 0.0 27.1 0.0 27.8 0.2 C 28.5 0.5 29.0 1.0 29.3 1.7 C 29.5 2.4 29.5 3.0 29.5 4.2 L 29.5 11.1 C 29.5 12.3 29.5 12.9 29.3 13.5 C 29.0 14.2 28.5 14.8 27.8 15.1 C 27.1 15.3 26.5 15.3 25.3 15.3 L 4.2 15.3 C 3.0 15.3 2.4 15.3 1.7 15.1 C 1.0 14.8 0.5 14.2 0.2 13.5 C 0.0 12.9 0.0 12.3 0.0 11.1 L 0.0 4.2 C 0.0 3.0 0.0 2.4 0.2 1.7 C 0.5 1.0 1.0 0.5 1.7 0.2 C 2.4 0.0 3.0 0.0 4.2 0.0 Z M 4.2 0.0 " fill="none" stroke="#000000" stroke-width="0.85" stroke-dasharray="0.9, 0.9" transform="matrix(1.00, 0.00, 0.00, -1.00, 1.8, 62.6)"></path></g></g><g><clipPath id="clip-11438"><path d="M 0.4 16.2 L 32.7 16.2 L 32.7 34.2 L 0.4 34.2 Z M 0.4 16.2 "></path></clipPath><g clip-path="url(#clip-11438)"><path d="M 6.0 32.8 L 27.1 32.8 C 28.3 32.8 28.9 32.8 29.6 32.6 C 30.3 32.4 30.8 31.8 31.1 31.1 C 31.3 30.4 31.3 29.8 31.3 28.6 L 31.3 21.7 C 31.3 20.5 31.3 19.9 31.1 19.3 C 30.8 18.6 30.3 18.0 29.6 17.8 C 28.9 17.5 28.3 17.5 27.1 17.5 L 6.0 17.5 C 4.8 17.5 4.2 17.5 3.5 17.8 C 2.8 18.0 2.3 18.6 2.0 19.3 C 1.8 19.9 1.8 20.5 1.8 21.8 L 1.8 28.6 C 1.8 29.8 1.8 30.4 2.0 31.1 C 2.3 31.8 2.8 32.4 3.5 32.6 C 4.2 32.8 4.8 32.8 6.0 32.8 Z M 6.0 32.8 " fill="#000000" fill-opacity="0.35"></path><path d="M 4.2 0.0 L 25.3 0.0 C 26.5 0.0 27.1 0.0 27.8 0.2 C 28.5 0.5 29.0 1.0 29.3 1.7 C 29.5 2.4 29.5 3.0 29.5 4.2 L 29.5 11.1 C 29.5 12.3 29.5 12.9 29.3 13.5 C 29.0 14.2 28.5 14.8 27.8 15.1 C 27.1 15.3 26.5 15.3 25.3 15.3 L 4.2 15.3 C 3.0 15.3 2.4 15.3 1.7 15.1 C 1.0 14.8 0.5 14.2 0.2 13.5 C 0.0 12.9 0.0 12.3 0.0 11.1 L 0.0 4.2 C 0.0 3.0 0.0 2.4 0.2 1.7 C 0.5 1.0 1.0 0.5 1.7 0.2 C 2.4 0.0 3.0 0.0 4.2 0.0 Z M 4.2 0.0 " fill="none" stroke="#000000" stroke-width="0.85" stroke-dasharray="0.9, 0.9" transform="matrix(1.00, 0.00, 0.00, -1.00, 1.8, 32.8)"></path></g></g></g></svg>