<?xml version="1.0" encoding="UTF-8" standalone="no"?><svg xmlns="http://www.w3.org/2000/svg" xmlns:xlink="http://www.w3.org/1999/xlink" clip-rule="evenodd" stroke-miterlimit="4.00" viewBox="0 0 34 124"><desc>SVG generated by Keynote</desc><defs></defs><g transform="matrix(1.00, 0.00, -0.00, -1.00, 0.0, 124.0)"><g><clipPath id="clip-11448"><path d="M 1.1 105.7 L 33.3 105.7 L 33.3 123.7 L 1.1 123.7 Z M 1.1 105.7 "></path></clipPath><g clip-path="url(#clip-11448)"><path d="M 6.6 122.3 L 27.7 122.3 C 28.9 122.3 29.6 122.3 30.2 122.1 C 30.9 121.8 31.5 121.3 31.7 120.6 C 31.9 119.9 31.9 119.3 31.9 118.1 L 31.9 111.2 C 31.9 110.0 31.9 109.4 31.7 108.8 C 31.5 108.0 30.9 107.5 30.2 107.2 C 29.6 107.0 28.9 107.0 27.7 107.0 L 6.6 107.0 C 5.4 107.0 4.8 107.0 4.2 107.2 C 3.5 107.5 2.9 108.0 2.7 108.8 C 2.4 109.4 2.4 110.0 2.4 111.2 L 2.4 118.1 C 2.4 119.3 2.4 119.9 2.7 120.6 C 2.9 121.3 3.5 121.8 4.2 122.1 C 4.8 122.3 5.4 122.3 6.7 122.3 Z M 6.6 122.3 " fill="#000000" fill-opacity="0.14"></path><path d="M 4.2 0.0 L 25.3 0.0 C 26.5 0.0 27.1 0.0 27.8 0.2 C 28.5 0.5 29.0 1.0 29.3 1.7 C 29.5 2.4 29.5 3.0 29.5 4.2 L 29.5 11.1 C 29.5 12.3 29.5 12.9 29.3 13.5 C 29.0 14.2 28.5 14.8 27.8 15.1 C 27.1 15.3 26.5 15.3 25.3 15.3 L 4.2 15.3 C 3.0 15.3 2.4 15.3 1.7 15.1 C 1.0 14.8 0.5 14.2 0.2 13.5 C 0.0 12.9 0.0 12.3 0.0 11.1 L 0.0 4.2 C 0.0 3.0 0.0 2.4 0.2 1.7 C 0.5 1.0 1.0 0.5 1.7 0.2 C 2.4 0.0 3.0 0.0 4.2 0.0 Z M 4.2 0.0 " fill="none" stroke="#000000" stroke-width="0.85" stroke-dasharray="0.9, 0.9" transform="matrix(1.00, 0.00, 0.00, -1.00, 2.4, 122.3)"></path></g></g><g><clipPath id="clip-11449"><path d="M 1.1 90.7 L 33.3 90.7 L 33.3 108.8 L 1.1 108.8 Z M 1.1 90.7 "></path></clipPath><g clip-path="url(#clip-11449)"><path d="M 6.6 107.4 L 27.7 107.4 C 28.9 107.4 29.6 107.4 30.2 107.2 C 30.9 106.9 31.5 106.4 31.7 105.6 C 31.9 105.0 31.9 104.4 31.9 103.2 L 31.9 96.3 C 31.9 95.1 31.9 94.5 31.7 93.8 C 31.5 93.1 30.9 92.6 30.2 92.3 C 29.6 92.1 28.9 92.1 27.7 92.1 L 6.6 92.1 C 5.4 92.1 4.8 92.1 4.2 92.3 C 3.5 92.6 2.9 93.1 2.7 93.8 C 2.4 94.5 2.4 95.1 2.4 96.3 L 2.4 103.2 C 2.4 104.4 2.4 105.0 2.7 105.6 C 2.9 106.4 3.5 106.9 4.2 107.2 C 4.8 107.4 5.4 107.4 6.7 107.4 Z M 6.6 107.4 " fill="#000000" fill-opacity="0.03"></path><path d="M 4.2 0.0 L 25.3 0.0 C 26.5 0.0 27.1 0.0 27.8 0.2 C 28.5 0.5 29.0 1.0 29.3 1.7 C 29.5 2.4 29.5 3.0 29.5 4.2 L 29.5 11.1 C 29.5 12.3 29.5 12.9 29.3 13.5 C 29.0 14.2 28.5 14.8 27.8 15.1 C 27.1 15.3 26.5 15.3 25.3 15.3 L 4.2 15.3 C 3.0 15.3 2.4 15.3 1.7 15.1 C 1.0 14.8 0.5 14.2 0.2 13.5 C 0.0 12.9 0.0 12.3 0.0 11.1 L 0.0 4.2 C 0.0 3.0 0.0 2.4 0.2 1.7 C 0.5 1.0 1.0 0.5 1.7 0.2 C 2.4 0.0 3.0 0.0 4.2 0.0 Z M 4.2 0.0 " fill="none" stroke="#000000" stroke-width="0.85" stroke-dasharray="0.9, 0.9" transform="matrix(1.00, 0.00, 0.00, -1.00, 2.4, 107.4)"></path></g></g><g><clipPath id="clip-11450"><path d="M 1.1 75.8 L 33.3 75.8 L 33.3 93.8 L 1.1 93.8 Z M 1.1 75.8 "></path></clipPath><g clip-path="url(#clip-11450)"><path d="M 6.6 92.5 L 27.7 92.5 C 28.9 92.5 29.6 92.5 30.2 92.3 C 30.9 92.0 31.5 91.4 31.7 90.7 C 31.9 90.1 31.9 89.5 31.9 88.3 L 31.9 81.4 C 31.9 80.2 31.9 79.6 31.7 78.9 C 31.5 78.2 30.9 77.7 30.2 77.4 C 29.6 77.2 28.9 77.2 27.7 77.2 L 6.6 77.2 C 5.4 77.2 4.8 77.2 4.2 77.4 C 3.5 77.7 2.9 78.2 2.7 78.9 C 2.4 79.6 2.4 80.2 2.4 81.4 L 2.4 88.3 C 2.4 89.5 2.4 90.1 2.7 90.7 C 2.9 91.4 3.5 92.0 4.2 92.3 C 4.8 92.5 5.4 92.5 6.7 92.5 Z M 6.6 92.5 " fill="#000000" fill-opacity="0.19"></path><path d="M 4.2 0.0 L 25.3 0.0 C 26.5 0.0 27.1 0.0 27.8 0.2 C 28.5 0.5 29.0 1.0 29.3 1.7 C 29.5 2.4 29.5 3.0 29.5 4.2 L 29.5 11.1 C 29.5 12.3 29.5 12.9 29.3 13.5 C 29.0 14.2 28.5 14.8 27.8 15.1 C 27.1 15.3 26.5 15.3 25.3 15.3 L 4.2 15.3 C 3.0 15.3 2.4 15.3 1.7 15.1 C 1.0 14.8 0.5 14.2 0.2 13.5 C 0.0 12.9 0.0 12.3 0.0 11.1 L 0.0 4.2 C 0.0 3.0 0.0 2.4 0.2 1.7 C 0.5 1.0 1.0 0.5 1.7 0.2 C 2.4 0.0 3.0 0.0 4.2 0.0 Z M 4.2 0.0 " fill="none" stroke="#000000" stroke-width="0.85" stroke-dasharray="0.9, 0.9" transform="matrix(1.00, 0.00, 0.00, -1.00, 2.4, 92.5)"></path></g></g><g><clipPath id="clip-11451"><path d="M 1.1 60.9 L 33.3 60.9 L 33.3 78.9 L 1.1 78.9 Z M 1.1 60.9 "></path></clipPath><g clip-path="url(#clip-11451)"><path d="M 6.6 77.6 L 27.7 77.6 C 28.9 77.6 29.6 77.6 30.2 77.4 C 30.9 77.1 31.5 76.5 31.7 75.8 C 31.9 75.2 31.9 74.6 31.9 73.3 L 31.9 66.5 C 31.9 65.3 31.9 64.7 31.7 64.0 C 31.5 63.3 30.9 62.8 30.2 62.5 C 29.6 62.3 28.9 62.3 27.7 62.3 L 6.6 62.3 C 5.4 62.3 4.8 62.3 4.2 62.5 C 3.5 62.8 2.9 63.3 2.7 64.0 C 2.4 64.7 2.4 65.3 2.4 66.5 L 2.4 73.4 C 2.4 74.6 2.4 75.2 2.7 75.8 C 2.9 76.5 3.5 77.1 4.2 77.4 C 4.8 77.6 5.4 77.6 6.7 77.6 Z M 6.6 77.6 " fill="#000000" fill-opacity="0.17"></path><path d="M 4.2 0.0 L 25.3 0.0 C 26.5 0.0 27.1 0.0 27.8 0.2 C 28.5 0.5 29.0 1.0 29.3 1.7 C 29.5 2.4 29.5 3.0 29.5 4.2 L 29.5 11.1 C 29.5 12.3 29.5 12.9 29.3 13.5 C 29.0 14.2 28.5 14.8 27.8 15.1 C 27.1 15.3 26.5 15.3 25.3 15.3 L 4.2 15.3 C 3.0 15.3 2.4 15.3 1.7 15.1 C 1.0 14.8 0.5 14.2 0.2 13.5 C 0.0 12.9 0.0 12.3 0.0 11.1 L 0.0 4.2 C 0.0 3.0 0.0 2.4 0.2 1.7 C 0.5 1.0 1.0 0.5 1.7 0.2 C 2.4 0.0 3.0 0.0 4.2 0.0 Z M 4.2 0.0 " fill="none" stroke="#000000" stroke-width="0.85" stroke-dasharray="0.9, 0.9" transform="matrix(1.00, 0.00, 0.00, -1.00, 2.4, 77.6)"></path></g></g><g><clipPath id="clip-11452"><path d="M 1.1 46.0 L 33.3 46.0 L 33.3 64.0 L 1.1 64.0 Z M 1.1 46.0 "></path></clipPath><g clip-path="url(#clip-11452)"><path d="M 6.6 62.6 L 27.7 62.6 C 28.9 62.6 29.6 62.6 30.2 62.4 C 30.9 62.2 31.5 61.6 31.7 60.9 C 31.9 60.3 31.9 59.6 31.9 58.4 L 31.9 51.6 C 31.9 50.4 31.9 49.8 31.7 49.1 C 31.5 48.4 30.9 47.8 30.2 47.6 C 29.6 47.4 28.9 47.4 27.7 47.4 L 6.6 47.4 C 5.4 47.4 4.8 47.4 4.2 47.6 C 3.5 47.8 2.9 48.4 2.7 49.1 C 2.4 49.8 2.4 50.4 2.4 51.6 L 2.4 58.4 C 2.4 59.6 2.4 60.3 2.7 60.9 C 2.9 61.6 3.5 62.2 4.2 62.4 C 4.8 62.6 5.4 62.6 6.7 62.6 Z M 6.6 62.6 " fill="#000000" fill-opacity="0.48"></path><path d="M 4.2 0.0 L 25.3 0.0 C 26.5 0.0 27.1 0.0 27.8 0.2 C 28.5 0.5 29.0 1.0 29.3 1.7 C 29.5 2.4 29.5 3.0 29.5 4.2 L 29.5 11.1 C 29.5 12.3 29.5 12.9 29.3 13.5 C 29.0 14.2 28.5 14.8 27.8 15.1 C 27.1 15.3 26.5 15.3 25.3 15.3 L 4.2 15.3 C 3.0 15.3 2.4 15.3 1.7 15.1 C 1.0 14.8 0.5 14.2 0.2 13.5 C 0.0 12.9 0.0 12.3 0.0 11.1 L 0.0 4.2 C 0.0 3.0 0.0 2.4 0.2 1.7 C 0.5 1.0 1.0 0.5 1.7 0.2 C 2.4 0.0 3.0 0.0 4.2 0.0 Z M 4.2 0.0 " fill="none" stroke="#000000" stroke-width="0.85" stroke-dasharray="0.9, 0.9" transform="matrix(1.00, 0.00, 0.00, -1.00, 2.4, 62.6)"></path></g></g><g><clipPath id="clip-11453"><path d="M 1.1 31.1 L 33.3 31.1 L 33.3 49.1 L 1.1 49.1 Z M 1.1 31.1 "></path></clipPath><g clip-path="url(#clip-11453)"><path d="M 6.6 47.7 L 27.7 47.7 C 28.9 47.7 29.6 47.7 30.2 47.5 C 30.9 47.3 31.5 46.7 31.7 46.0 C 31.9 45.3 31.9 44.7 31.9 43.5 L 31.9 36.7 C 31.9 35.5 31.9 34.8 31.7 34.2 C 31.5 33.5 30.9 32.9 30.2 32.7 C 29.6 32.5 28.9 32.5 27.7 32.5 L 6.6 32.5 C 5.4 32.5 4.8 32.5 4.2 32.7 C 3.5 32.9 2.9 33.5 2.7 34.2 C 2.4 34.8 2.4 35.5 2.4 36.7 L 2.4 43.5 C 2.4 44.7 2.4 45.3 2.7 46.0 C 2.9 46.7 3.5 47.3 4.2 47.5 C 4.8 47.7 5.4 47.7 6.7 47.7 Z M 6.6 47.7 " fill="#000000" fill-opacity="0.03"></path><path d="M 4.2 0.0 L 25.3 0.0 C 26.5 0.0 27.1 0.0 27.8 0.2 C 28.5 0.5 29.0 1.0 29.3 1.7 C 29.5 2.4 29.5 3.0 29.5 4.2 L 29.5 11.1 C 29.5 12.3 29.5 12.9 29.3 13.5 C 29.0 14.2 28.5 14.8 27.8 15.1 C 27.1 15.3 26.5 15.3 25.3 15.3 L 4.2 15.3 C 3.0 15.3 2.4 15.3 1.7 15.1 C 1.0 14.8 0.5 14.2 0.2 13.5 C 0.0 12.9 0.0 12.3 0.0 11.1 L 0.0 4.2 C 0.0 3.0 0.0 2.4 0.2 1.7 C 0.5 1.0 1.0 0.5 1.7 0.2 C 2.4 0.0 3.0 0.0 4.2 0.0 Z M 4.2 0.0 " fill="none" stroke="#000000" stroke-width="0.85" stroke-dasharray="0.9, 0.9" transform="matrix(1.00, 0.00, 0.00, -1.00, 2.4, 47.7)"></path></g></g><g><clipPath id="clip-11454"><path d="M 1.1 16.2 L 33.3 16.2 L 33.3 34.2 L 1.1 34.2 Z M 1.1 16.2 "></path></clipPath><g clip-path="url(#clip-11454)"><path d="M 6.6 32.8 L 27.7 32.8 C 28.9 32.8 29.6 32.8 30.2 32.6 C 30.9 32.4 31.5 31.8 31.7 31.1 C 31.9 30.4 31.9 29.8 31.9 28.6 L 31.9 21.7 C 31.9 20.5 31.9 19.9 31.7 19.3 C 31.5 18.6 30.9 18.0 30.2 17.8 C 29.6 17.5 28.9 17.5 27.7 17.5 L 6.6 17.5 C 5.4 17.5 4.8 17.5 4.2 17.8 C 3.5 18.0 2.9 18.6 2.7 19.3 C 2.4 19.9 2.4 20.5 2.4 21.8 L 2.4 28.6 C 2.4 29.8 2.4 30.4 2.7 31.1 C 2.9 31.8 3.5 32.4 4.2 32.6 C 4.8 32.8 5.4 32.8 6.7 32.8 Z M 6.6 32.8 " fill="#000000" fill-opacity="0.14"></path><path d="M 4.2 0.0 L 25.3 0.0 C 26.5 0.0 27.1 0.0 27.8 0.2 C 28.5 0.5 29.0 1.0 29.3 1.7 C 29.5 2.4 29.5 3.0 29.5 4.2 L 29.5 11.1 C 29.5 12.3 29.5 12.9 29.3 13.5 C 29.0 14.2 28.5 14.8 27.8 15.1 C 27.1 15.3 26.5 15.3 25.3 15.3 L 4.2 15.3 C 3.0 15.3 2.4 15.3 1.7 15.1 C 1.0 14.8 0.5 14.2 0.2 13.5 C 0.0 12.9 0.0 12.3 0.0 11.1 L 0.0 4.2 C 0.0 3.0 0.0 2.4 0.2 1.7 C 0.5 1.0 1.0 0.5 1.7 0.2 C 2.4 0.0 3.0 0.0 4.2 0.0 Z M 4.2 0.0 " fill="none" stroke="#000000" stroke-width="0.85" stroke-dasharray="0.9, 0.9" transform="matrix(1.00, 0.00, 0.00, -1.00, 2.4, 32.8)"></path></g></g><g><clipPath id="clip-11455"><path d="M 1.1 1.3 L 33.3 1.3 L 33.3 19.3 L 1.1 19.3 Z M 1.1 1.3 "></path></clipPath><g clip-path="url(#clip-11455)"><path d="M 6.6 17.9 L 27.7 17.9 C 28.9 17.9 29.6 17.9 30.2 17.7 C 30.9 17.4 31.5 16.9 31.7 16.2 C 31.9 15.5 31.9 14.9 31.9 13.7 L 31.9 6.8 C 31.9 5.6 31.9 5.0 31.7 4.4 C 31.5 3.7 30.9 3.1 30.2 2.8 C 29.6 2.6 28.9 2.6 27.7 2.6 L 6.6 2.6 C 5.4 2.6 4.8 2.6 4.2 2.8 C 3.5 3.1 2.9 3.7 2.7 4.4 C 2.4 5.0 2.4 5.6 2.4 6.9 L 2.4 13.7 C 2.4 14.9 2.4 15.5 2.7 16.2 C 2.9 16.9 3.5 17.4 4.2 17.7 C 4.8 17.9 5.4 17.9 6.7 17.9 Z M 6.6 17.9 " fill="#000000" fill-opacity="0.35"></path><path d="M 4.2 0.0 L 25.3 0.0 C 26.5 0.0 27.1 0.0 27.8 0.2 C 28.5 0.5 29.0 1.0 29.3 1.7 C 29.5 2.4 29.5 3.0 29.5 4.2 L 29.5 11.1 C 29.5 12.3 29.5 12.9 29.3 13.5 C 29.0 14.2 28.5 14.8 27.8 15.1 C 27.1 15.3 26.5 15.3 25.3 15.3 L 4.2 15.3 C 3.0 15.3 2.4 15.3 1.7 15.1 C 1.0 14.8 0.5 14.2 0.2 13.5 C 0.0 12.9 0.0 12.3 0.0 11.1 L 0.0 4.2 C 0.0 3.0 0.0 2.4 0.2 1.7 C 0.5 1.0 1.0 0.5 1.7 0.2 C 2.4 0.0 3.0 0.0 4.2 0.0 Z M 4.2 0.0 " fill="none" stroke="#000000" stroke-width="0.85" stroke-dasharray="0.9, 0.9" transform="matrix(1.00, 0.00, 0.00, -1.00, 2.4, 17.9)"></path></g></g><g><clipPath id="clip-11456"><path d="M 0.9 0.8 L 33.4 0.8 L 33.4 123.8 L 0.9 123.8 Z M 0.9 0.8 "></path></clipPath><g clip-path="url(#clip-11456)"><path d="M 6.6 122.3 L 27.7 122.3 C 28.9 122.3 29.6 122.3 30.2 122.1 C 30.9 121.8 31.5 121.3 31.7 120.6 C 31.9 119.9 31.9 119.3 31.9 118.1 L 31.9 6.5 C 31.9 5.3 31.9 4.7 31.7 4.0 C 31.5 3.3 30.9 2.8 30.2 2.5 C 29.6 2.3 28.9 2.3 27.7 2.3 L 6.6 2.3 C 5.4 2.3 4.8 2.3 4.2 2.5 C 3.5 2.8 2.9 3.3 2.7 4.0 C 2.4 4.7 2.4 5.3 2.4 6.5 L 2.4 118.1 C 2.4 119.3 2.4 119.9 2.7 120.6 C 2.9 121.3 3.5 121.8 4.2 122.1 C 4.8 122.3 5.4 122.3 6.7 122.3 Z M 6.6 122.3 " fill="#000000" fill-opacity="0.15"></path><path d="M 4.2 0.0 L 25.3 0.0 C 26.5 0.0 27.1 0.0 27.8 0.2 C 28.5 0.5 29.0 1.0 29.3 1.7 C 29.5 2.4 29.5 3.0 29.5 4.2 L 29.5 115.8 C 29.5 117.0 29.5 117.6 29.3 118.3 C 29.0 119.0 28.5 119.5 27.8 119.8 C 27.1 120.0 26.5 120.0 25.3 120.0 L 4.2 120.0 C 3.0 120.0 2.4 120.0 1.7 119.8 C 1.0 119.5 0.5 119.0 0.2 118.3 C 0.0 117.6 0.0 117.0 0.0 115.8 L 0.0 4.2 C 0.0 3.0 0.0 2.4 0.2 1.7 C 0.5 1.0 1.0 0.5 1.7 0.2 C 2.4 0.0 3.0 0.0 4.2 0.0 Z M 4.2 0.0 " fill="none" stroke="#000000" stroke-width="1.10" transform="matrix(1.00, 0.00, 0.00, -1.00, 2.4, 122.3)"></path></g></g></g></svg>