<?xml version="1.0" encoding="UTF-8" standalone="no"?><svg xmlns="http://www.w3.org/2000/svg" xmlns:xlink="http://www.w3.org/1999/xlink" clip-rule="evenodd" stroke-miterlimit="4.00" viewBox="0 0 228 534"><desc>SVG generated by Keynote</desc><defs></defs><g transform="matrix(1.00, 0.00, -0.00, -1.00, 0.0, 534.0)"><path d="M 20.3 531.7 L 208.1 531.7 C 213.1 531.7 215.6 531.7 218.3 530.8 C 221.3 529.7 223.6 527.4 224.7 524.5 C 225.5 521.8 225.5 519.2 225.5 514.1 L 225.5 20.2 C 225.5 15.2 225.5 12.7 224.7 10.0 C 223.6 7.0 221.3 4.7 218.3 3.6 C 215.6 2.8 213.1 2.8 208.0 2.8 L 20.3 2.8 C 15.3 2.8 12.8 2.8 10.1 3.6 C 7.1 4.7 4.8 7.0 3.7 10.0 C 2.9 12.7 2.9 15.2 2.9 20.3 L 2.9 514.2 C 2.9 519.2 2.9 521.8 3.7 524.5 C 4.8 527.4 7.1 529.7 10.1 530.8 C 12.8 531.7 15.3 531.7 20.4 531.7 Z M 20.3 531.7 " fill="#D68A00" fill-opacity="0.05"></path><path d="M 17.5 0.0 L 205.2 0.0 C 210.2 0.0 212.8 0.0 215.5 0.9 C 218.4 1.9 220.7 4.3 221.8 7.2 C 222.7 9.9 222.7 12.4 222.7 17.5 L 222.7 511.4 C 222.7 516.4 222.7 519.0 221.8 521.7 C 220.7 524.6 218.4 527.0 215.5 528.0 C 212.8 528.9 210.2 528.9 205.1 528.9 L 17.5 528.9 C 12.4 528.9 9.9 528.9 7.2 528.0 C 4.3 527.0 1.9 524.6 0.9 521.7 C 0.0 519.0 0.0 516.4 0.0 511.4 L 0.0 17.5 C 0.0 12.4 0.0 9.9 0.9 7.2 C 1.9 4.3 4.3 1.9 7.2 0.9 C 9.9 0.0 12.4 0.0 17.5 0.0 Z M 17.5 0.0 " fill="none" stroke="#000000" stroke-width="2.00" stroke-dasharray="4.0, 4.0" transform="matrix(1.00, 0.00, 0.00, -1.00, 2.9, 531.7)"></path></g></svg>