<?xml version="1.0" encoding="UTF-8" standalone="no"?><svg xmlns="http://www.w3.org/2000/svg" xmlns:xlink="http://www.w3.org/1999/xlink" clip-rule="evenodd" stroke-miterlimit="4.00" viewBox="0 0 1601 154"><desc>SVG generated by Keynote</desc><defs></defs><g transform="matrix(1.00, 0.00, -0.00, -1.00, 0.0, 154.0)"><text xml:space="preserve" font-family="GillSans" font-size="93.0" fill="#000000" transform="matrix(1.00, 0.00, -0.00, -1.00, -6.0, 88.0)">E</text><text xml:space="preserve" font-family="GillSans" font-size="93.0" fill="#000000" transform="matrix(1.00, 0.00, -0.00, -1.00, 40.5, 88.0)">n</text><text xml:space="preserve" font-family="GillSans" font-size="93.0" fill="#000000" transform="matrix(1.00, 0.00, -0.00, -1.00, 87.0, 88.0)">d</text><text xml:space="preserve" font-family="GillSans" font-size="93.0" fill="#000000" transform="matrix(1.00, 0.00, -0.00, -1.00, 134.3, 88.0)">-</text><text xml:space="preserve" font-family="GillSans" font-size="93.0" fill="#000000" transform="matrix(1.00, 0.00, -0.00, -1.00, 164.4, 88.0)">t</text><text xml:space="preserve" font-family="GillSans" font-size="93.0" fill="#000000" transform="matrix(1.00, 0.00, -0.00, -1.00, 195.4, 88.0)">o</text><text xml:space="preserve" font-family="GillSans" font-size="93.0" fill="#000000" transform="matrix(1.00, 0.00, -0.00, -1.00, 246.6, 88.0)">-</text><text xml:space="preserve" font-family="GillSans" font-size="93.0" fill="#000000" transform="matrix(1.00, 0.00, -0.00, -1.00, 276.7, 88.0)">e</text><text xml:space="preserve" font-family="GillSans" font-size="93.0" fill="#000000" transform="matrix(1.00, 0.00, -0.00, -1.00, 321.2, 88.0)">n</text><text xml:space="preserve" font-family="GillSans" font-size="93.0" fill="#000000" transform="matrix(1.00, 0.00, -0.00, -1.00, 367.7, 88.0)">d</text><text xml:space="preserve" font-family="GillSans" font-size="93.0" fill="#000000" transform="matrix(1.00, 0.00, -0.00, -1.00, 415.1, 88.0)"> </text><text xml:space="preserve" font-family="GillSans" font-size="93.0" fill="#000000" transform="matrix(1.00, 0.00, -0.00, -1.00, 440.9, 88.0)">M</text><text xml:space="preserve" font-family="GillSans" font-size="93.0" fill="#000000" transform="matrix(1.00, 0.00, -0.00, -1.00, 513.4, 88.0)">e</text><text xml:space="preserve" font-family="GillSans" font-size="93.0" fill="#000000" transform="matrix(1.00, 0.00, -0.00, -1.00, 558.0, 88.0)">m</text><text xml:space="preserve" font-family="GillSans" font-size="93.0" fill="#000000" transform="matrix(1.00, 0.00, -0.00, -1.00, 629.6, 88.0)">o</text><text xml:space="preserve" font-family="GillSans" font-size="93.0" fill="#000000" transform="matrix(1.00, 0.00, -0.00, -1.00, 680.9, 88.0)">r</text><text xml:space="preserve" font-family="GillSans" font-size="93.0" fill="#000000" transform="matrix(1.00, 0.00, -0.00, -1.00, 720.5, 88.0)">y</text><text xml:space="preserve" font-family="GillSans" font-size="93.0" fill="#000000" transform="matrix(1.00, 0.00, -0.00, -1.00, 761.2, 88.0)"> </text><text xml:space="preserve" font-family="GillSans" font-size="93.0" fill="#000000" transform="matrix(1.00, 0.00, -0.00, -1.00, 787.0, 88.0)">N</text><text xml:space="preserve" font-family="GillSans" font-size="93.0" fill="#000000" transform="matrix(1.00, 0.00, -0.00, -1.00, 859.6, 88.0)">e</text><text xml:space="preserve" font-family="GillSans" font-size="93.0" fill="#000000" transform="matrix(1.00, 0.00, -0.00, -1.00, 904.1, 88.0)">t</text><text xml:space="preserve" font-family="GillSans" font-size="93.0" fill="#000000" transform="matrix(1.00, 0.00, -0.00, -1.00, 935.1, 88.0)">w</text><text xml:space="preserve" font-family="GillSans" font-size="93.0" fill="#000000" transform="matrix(1.00, 0.00, -0.00, -1.00, 1000.1, 88.0)">o</text><text xml:space="preserve" font-family="GillSans" font-size="93.0" fill="#000000" transform="matrix(1.00, 0.00, -0.00, -1.00, 1051.4, 88.0)">r</text><text xml:space="preserve" font-family="GillSans" font-size="93.0" fill="#000000" transform="matrix(1.00, 0.00, -0.00, -1.00, 1088.2, 88.0)">k</text><text xml:space="preserve" font-family="GillSans" font-size="93.0" fill="#000000" transform="matrix(1.00, 0.00, -0.00, -1.00, 1132.7, 88.0)"> </text><text xml:space="preserve" font-family="GillSans" font-size="93.0" fill="#000000" transform="matrix(1.00, 0.00, -0.00, -1.00, 1158.5, 88.0)">(</text><text xml:space="preserve" font-family="GillSans" font-size="93.0" fill="#000000" transform="matrix(1.00, 0.00, -0.00, -1.00, 1188.6, 88.0)">M</text><text xml:space="preserve" font-family="GillSans" font-size="93.0" fill="#000000" transform="matrix(1.00, 0.00, -0.00, -1.00, 1261.1, 88.0)">e</text><text xml:space="preserve" font-family="GillSans" font-size="93.0" fill="#000000" transform="matrix(1.00, 0.00, -0.00, -1.00, 1305.7, 88.0)">m</text><text xml:space="preserve" font-family="GillSans" font-size="93.0" fill="#000000" transform="matrix(1.00, 0.00, -0.00, -1.00, 1377.3, 88.0)">N</text><text xml:space="preserve" font-family="GillSans" font-size="93.0" fill="#000000" transform="matrix(1.00, 0.00, -0.00, -1.00, 1449.9, 88.0)">2</text><text xml:space="preserve" font-family="GillSans" font-size="93.0" fill="#000000" transform="matrix(1.00, 0.00, -0.00, -1.00, 1496.4, 88.0)">N</text><text xml:space="preserve" font-family="GillSans" font-size="93.0" fill="#000000" transform="matrix(1.00, 0.00, -0.00, -1.00, 1568.9, 88.0)">)</text><text xml:space="preserve" font-family="GillSans" font-size="58.1" fill="#000000" transform="matrix(1.00, 0.00, -0.00, -1.00, 582.0, 14.0)">[</text><text xml:space="preserve" font-family="GillSans" font-size="58.1" fill="#000000" transform="matrix(1.00, 0.00, -0.00, -1.00, 601.3, 14.0)">S</text><text xml:space="preserve" font-family="GillSans" font-size="58.1" fill="#000000" transform="matrix(1.00, 0.00, -0.00, -1.00, 628.0, 14.0)">u</text><text xml:space="preserve" font-family="GillSans" font-size="58.1" fill="#000000" transform="matrix(1.00, 0.00, -0.00, -1.00, 657.0, 14.0)">k</text><text xml:space="preserve" font-family="GillSans" font-size="58.1" fill="#000000" transform="matrix(1.00, 0.00, -0.00, -1.00, 684.8, 14.0)">h</text><text xml:space="preserve" font-family="GillSans" font-size="58.1" fill="#000000" transform="matrix(1.00, 0.00, -0.00, -1.00, 713.9, 14.0)">b</text><text xml:space="preserve" font-family="GillSans" font-size="58.1" fill="#000000" transform="matrix(1.00, 0.00, -0.00, -1.00, 742.9, 14.0)">a</text><text xml:space="preserve" font-family="GillSans" font-size="58.1" fill="#000000" transform="matrix(1.00, 0.00, -0.00, -1.00, 767.7, 14.0)">a</text><text xml:space="preserve" font-family="GillSans" font-size="58.1" fill="#000000" transform="matrix(1.00, 0.00, -0.00, -1.00, 792.5, 14.0)">t</text><text xml:space="preserve" font-family="GillSans" font-size="58.1" fill="#000000" transform="matrix(1.00, 0.00, -0.00, -1.00, 811.9, 14.0)">a</text><text xml:space="preserve" font-family="GillSans" font-size="58.1" fill="#000000" transform="matrix(1.00, 0.00, -0.00, -1.00, 836.6, 14.0)">r</text><text xml:space="preserve" font-family="GillSans" font-size="58.1" fill="#000000" transform="matrix(1.00, 0.00, -0.00, -1.00, 859.6, 14.0)"> </text><text xml:space="preserve" font-family="GillSans" font-size="58.1" fill="#000000" transform="matrix(1.00, 0.00, -0.00, -1.00, 875.8, 14.0)">2</text><text xml:space="preserve" font-family="GillSans" font-size="58.1" fill="#000000" transform="matrix(1.00, 0.00, -0.00, -1.00, 904.8, 14.0)">0</text><text xml:space="preserve" font-family="GillSans" font-size="58.1" fill="#000000" transform="matrix(1.00, 0.00, -0.00, -1.00, 933.9, 14.0)">1</text><text xml:space="preserve" font-family="GillSans" font-size="58.1" fill="#000000" transform="matrix(1.00, 0.00, -0.00, -1.00, 963.0, 14.0)">5</text><text xml:space="preserve" font-family="GillSans" font-size="58.1" fill="#000000" transform="matrix(1.00, 0.00, -0.00, -1.00, 992.0, 14.0)">]</text></g></svg>