<?xml version="1.0" encoding="UTF-8" standalone="no"?><svg xmlns="http://www.w3.org/2000/svg" xmlns:xlink="http://www.w3.org/1999/xlink" clip-rule="evenodd" stroke-miterlimit="4.00" viewBox="0 0 33 124"><desc>SVG generated by Keynote</desc><defs></defs><g transform="matrix(1.00, 0.00, -0.00, -1.00, 0.0, 124.0)"><g><clipPath id="clip-11475"><path d="M 32.9 0.8 L 0.4 0.8 L 0.4 123.8 L 32.9 123.8 Z M 32.9 0.8 "></path></clipPath><g clip-path="url(#clip-11475)"><path d="M 27.2 2.3 L 6.1 2.3 C 4.9 2.3 4.3 2.3 3.7 2.5 C 2.9 2.8 2.4 3.3 2.1 4.0 C 1.9 4.7 1.9 5.3 1.9 6.5 L 1.9 118.1 C 1.9 119.3 1.9 119.9 2.1 120.6 C 2.4 121.3 2.9 121.8 3.7 122.1 C 4.3 122.3 4.9 122.3 6.1 122.3 L 27.2 122.3 C 28.4 122.3 29.0 122.3 29.7 122.1 C 30.4 121.8 31.0 121.3 31.2 120.6 C 31.4 119.9 31.4 119.3 31.4 118.1 L 31.4 6.5 C 31.4 5.3 31.4 4.7 31.2 4.0 C 31.0 3.3 30.4 2.8 29.7 2.5 C 29.0 2.3 28.4 2.3 27.2 2.3 Z M 27.2 2.3 " fill="#000000" fill-opacity="0.41"></path><path d="M 4.2 0.0 L 25.3 0.0 C 26.5 0.0 27.1 0.0 27.8 0.2 C 28.5 0.5 29.0 1.0 29.3 1.7 C 29.5 2.4 29.5 3.0 29.5 4.2 L 29.5 115.8 C 29.5 117.0 29.5 117.6 29.3 118.3 C 29.0 119.0 28.5 119.5 27.8 119.8 C 27.1 120.0 26.5 120.0 25.3 120.0 L 4.2 120.0 C 3.0 120.0 2.4 120.0 1.7 119.8 C 1.0 119.5 0.5 119.0 0.2 118.3 C 0.0 117.6 0.0 117.0 0.0 115.8 L 0.0 4.2 C 0.0 3.0 0.0 2.4 0.2 1.7 C 0.5 1.0 1.0 0.5 1.7 0.2 C 2.4 0.0 3.0 0.0 4.2 0.0 Z M 4.2 0.0 " fill="none" stroke="#000000" stroke-width="1.10" transform="matrix(-1.00, 0.00, 0.00, 1.00, 31.4, 2.3)"></path></g></g><g><clipPath id="clip-11476"><path d="M 32.8 90.7 L 0.5 90.7 L 0.5 108.8 L 32.8 108.8 Z M 32.8 90.7 "></path></clipPath><g clip-path="url(#clip-11476)"><path d="M 27.2 92.1 L 6.1 92.1 C 4.9 92.1 4.3 92.1 3.7 92.3 C 2.9 92.6 2.4 93.1 2.1 93.8 C 1.9 94.5 1.9 95.1 1.9 96.3 L 1.9 103.2 C 1.9 104.4 1.9 105.0 2.1 105.6 C 2.4 106.4 2.9 106.9 3.7 107.2 C 4.3 107.4 4.9 107.4 6.1 107.4 L 27.2 107.4 C 28.4 107.4 29.0 107.4 29.7 107.2 C 30.4 106.9 31.0 106.4 31.2 105.6 C 31.4 105.0 31.4 104.4 31.4 103.2 L 31.4 96.3 C 31.4 95.1 31.4 94.5 31.2 93.8 C 31.0 93.1 30.4 92.6 29.7 92.3 C 29.0 92.1 28.4 92.1 27.2 92.1 Z M 27.2 92.1 " fill="#000000" fill-opacity="0.14"></path><path d="M 4.2 0.0 L 25.3 0.0 C 26.5 0.0 27.1 0.0 27.8 0.2 C 28.5 0.5 29.0 1.0 29.3 1.7 C 29.5 2.4 29.5 3.0 29.5 4.2 L 29.5 11.1 C 29.5 12.3 29.5 12.9 29.3 13.5 C 29.0 14.2 28.5 14.8 27.8 15.1 C 27.1 15.3 26.5 15.3 25.3 15.3 L 4.2 15.3 C 3.0 15.3 2.4 15.3 1.7 15.1 C 1.0 14.8 0.5 14.2 0.2 13.5 C 0.0 12.9 0.0 12.3 0.0 11.1 L 0.0 4.2 C 0.0 3.0 0.0 2.4 0.2 1.7 C 0.5 1.0 1.0 0.5 1.7 0.2 C 2.4 0.0 3.0 0.0 4.2 0.0 Z M 4.2 0.0 " fill="none" stroke="#000000" stroke-width="0.85" stroke-dasharray="0.9, 0.9" transform="matrix(-1.00, 0.00, 0.00, 1.00, 31.4, 92.1)"></path></g></g><g><clipPath id="clip-11477"><path d="M 32.8 105.7 L 0.5 105.7 L 0.5 123.7 L 32.8 123.7 Z M 32.8 105.7 "></path></clipPath><g clip-path="url(#clip-11477)"><path d="M 27.2 107.0 L 6.1 107.0 C 4.9 107.0 4.3 107.0 3.7 107.2 C 2.9 107.5 2.4 108.0 2.1 108.8 C 1.9 109.4 1.9 110.0 1.9 111.2 L 1.9 118.1 C 1.9 119.3 1.9 119.9 2.1 120.6 C 2.4 121.3 2.9 121.8 3.7 122.1 C 4.3 122.3 4.9 122.3 6.1 122.3 L 27.2 122.3 C 28.4 122.3 29.0 122.3 29.7 122.1 C 30.4 121.8 31.0 121.3 31.2 120.6 C 31.4 119.9 31.4 119.3 31.4 118.1 L 31.4 111.2 C 31.4 110.0 31.4 109.4 31.2 108.8 C 31.0 108.0 30.4 107.5 29.7 107.2 C 29.0 107.0 28.4 107.0 27.2 107.0 Z M 27.2 107.0 " fill="#000000" fill-opacity="0.03"></path><path d="M 4.2 0.0 L 25.3 0.0 C 26.5 0.0 27.1 0.0 27.8 0.2 C 28.5 0.5 29.0 1.0 29.3 1.7 C 29.5 2.4 29.5 3.0 29.5 4.2 L 29.5 11.1 C 29.5 12.3 29.5 12.9 29.3 13.5 C 29.0 14.2 28.5 14.8 27.8 15.1 C 27.1 15.3 26.5 15.3 25.3 15.3 L 4.2 15.3 C 3.0 15.3 2.4 15.3 1.7 15.1 C 1.0 14.8 0.5 14.2 0.2 13.5 C 0.0 12.9 0.0 12.3 0.0 11.1 L 0.0 4.2 C 0.0 3.0 0.0 2.4 0.2 1.7 C 0.5 1.0 1.0 0.5 1.7 0.2 C 2.4 0.0 3.0 0.0 4.2 0.0 Z M 4.2 0.0 " fill="none" stroke="#000000" stroke-width="0.85" stroke-dasharray="0.9, 0.9" transform="matrix(-1.00, 0.00, 0.00, 1.00, 31.4, 107.0)"></path></g></g><g><clipPath id="clip-11478"><path d="M 32.8 60.9 L 0.5 60.9 L 0.5 78.9 L 32.8 78.9 Z M 32.8 60.9 "></path></clipPath><g clip-path="url(#clip-11478)"><path d="M 27.2 62.3 L 6.1 62.3 C 4.9 62.3 4.3 62.3 3.7 62.5 C 2.9 62.8 2.4 63.3 2.1 64.0 C 1.9 64.7 1.9 65.3 1.9 66.5 L 1.9 73.4 C 1.9 74.6 1.9 75.2 2.1 75.8 C 2.4 76.5 2.9 77.1 3.7 77.4 C 4.3 77.6 4.9 77.6 6.1 77.6 L 27.2 77.6 C 28.4 77.6 29.0 77.6 29.7 77.4 C 30.4 77.1 31.0 76.5 31.2 75.8 C 31.4 75.2 31.4 74.6 31.4 73.3 L 31.4 66.5 C 31.4 65.3 31.4 64.7 31.2 64.0 C 31.0 63.3 30.4 62.8 29.7 62.5 C 29.0 62.3 28.4 62.3 27.2 62.3 Z M 27.2 62.3 " fill="#000000" fill-opacity="0.19"></path><path d="M 4.2 0.0 L 25.3 0.0 C 26.5 0.0 27.1 0.0 27.8 0.2 C 28.5 0.5 29.0 1.0 29.3 1.7 C 29.5 2.4 29.5 3.0 29.5 4.2 L 29.5 11.1 C 29.5 12.3 29.5 12.9 29.3 13.5 C 29.0 14.2 28.5 14.8 27.8 15.1 C 27.1 15.3 26.5 15.3 25.3 15.3 L 4.2 15.3 C 3.0 15.3 2.4 15.3 1.7 15.1 C 1.0 14.8 0.5 14.2 0.2 13.5 C 0.0 12.9 0.0 12.3 0.0 11.1 L 0.0 4.2 C 0.0 3.0 0.0 2.4 0.2 1.7 C 0.5 1.0 1.0 0.5 1.7 0.2 C 2.4 0.0 3.0 0.0 4.2 0.0 Z M 4.2 0.0 " fill="none" stroke="#000000" stroke-width="0.85" stroke-dasharray="0.9, 0.9" transform="matrix(-1.00, 0.00, 0.00, 1.00, 31.4, 62.3)"></path></g></g><g><clipPath id="clip-11479"><path d="M 32.8 75.8 L 0.5 75.8 L 0.5 93.8 L 32.8 93.8 Z M 32.8 75.8 "></path></clipPath><g clip-path="url(#clip-11479)"><path d="M 27.2 77.2 L 6.1 77.2 C 4.9 77.2 4.3 77.2 3.7 77.4 C 2.9 77.7 2.4 78.2 2.1 78.9 C 1.9 79.6 1.9 80.2 1.9 81.4 L 1.9 88.3 C 1.9 89.5 1.9 90.1 2.1 90.7 C 2.4 91.4 2.9 92.0 3.7 92.3 C 4.3 92.5 4.9 92.5 6.1 92.5 L 27.2 92.5 C 28.4 92.5 29.0 92.5 29.7 92.3 C 30.4 92.0 31.0 91.4 31.2 90.7 C 31.4 90.1 31.4 89.5 31.4 88.3 L 31.4 81.4 C 31.4 80.2 31.4 79.6 31.2 78.9 C 31.0 78.2 30.4 77.7 29.7 77.4 C 29.0 77.2 28.4 77.2 27.2 77.2 Z M 27.2 77.2 " fill="#000000" fill-opacity="0.17"></path><path d="M 4.2 0.0 L 25.3 0.0 C 26.5 0.0 27.1 0.0 27.8 0.2 C 28.5 0.5 29.0 1.0 29.3 1.7 C 29.5 2.4 29.5 3.0 29.5 4.2 L 29.5 11.1 C 29.5 12.3 29.5 12.9 29.3 13.5 C 29.0 14.2 28.5 14.8 27.8 15.1 C 27.1 15.3 26.5 15.3 25.3 15.3 L 4.2 15.3 C 3.0 15.3 2.4 15.3 1.7 15.1 C 1.0 14.8 0.5 14.2 0.2 13.5 C 0.0 12.9 0.0 12.3 0.0 11.1 L 0.0 4.2 C 0.0 3.0 0.0 2.4 0.2 1.7 C 0.5 1.0 1.0 0.5 1.7 0.2 C 2.4 0.0 3.0 0.0 4.2 0.0 Z M 4.2 0.0 " fill="none" stroke="#000000" stroke-width="0.85" stroke-dasharray="0.9, 0.9" transform="matrix(-1.00, 0.00, 0.00, 1.00, 31.4, 77.2)"></path></g></g><g><clipPath id="clip-11480"><path d="M 32.8 1.3 L 0.5 1.3 L 0.5 19.3 L 32.8 19.3 Z M 32.8 1.3 "></path></clipPath><g clip-path="url(#clip-11480)"><path d="M 27.2 2.6 L 6.1 2.6 C 4.9 2.6 4.3 2.6 3.7 2.8 C 2.9 3.1 2.4 3.7 2.1 4.4 C 1.9 5.0 1.9 5.6 1.9 6.9 L 1.9 13.7 C 1.9 14.9 1.9 15.5 2.1 16.2 C 2.4 16.9 2.9 17.4 3.7 17.7 C 4.3 17.9 4.9 17.9 6.1 17.9 L 27.2 17.9 C 28.4 17.9 29.0 17.9 29.7 17.7 C 30.4 17.4 31.0 16.9 31.2 16.2 C 31.4 15.5 31.4 14.9 31.4 13.7 L 31.4 6.8 C 31.4 5.6 31.4 5.0 31.2 4.4 C 31.0 3.7 30.4 3.1 29.7 2.8 C 29.0 2.6 28.4 2.6 27.2 2.6 Z M 27.2 2.6 " fill="#000000" fill-opacity="0.48"></path><path d="M 4.2 0.0 L 25.3 0.0 C 26.5 0.0 27.1 0.0 27.8 0.2 C 28.5 0.5 29.0 1.0 29.3 1.7 C 29.5 2.4 29.5 3.0 29.5 4.2 L 29.5 11.1 C 29.5 12.3 29.5 12.9 29.3 13.5 C 29.0 14.2 28.5 14.8 27.8 15.1 C 27.1 15.3 26.5 15.3 25.3 15.3 L 4.2 15.3 C 3.0 15.3 2.4 15.3 1.7 15.1 C 1.0 14.8 0.5 14.2 0.2 13.5 C 0.0 12.9 0.0 12.3 0.0 11.1 L 0.0 4.2 C 0.0 3.0 0.0 2.4 0.2 1.7 C 0.5 1.0 1.0 0.5 1.7 0.2 C 2.4 0.0 3.0 0.0 4.2 0.0 Z M 4.2 0.0 " fill="none" stroke="#000000" stroke-width="0.85" stroke-dasharray="0.9, 0.9" transform="matrix(-1.00, 0.00, 0.00, 1.00, 31.4, 2.6)"></path></g></g><g><clipPath id="clip-11481"><path d="M 32.8 75.8 L 0.5 75.8 L 0.5 93.8 L 32.8 93.8 Z M 32.8 75.8 "></path></clipPath><g clip-path="url(#clip-11481)"><path d="M 27.2 77.2 L 6.1 77.2 C 4.9 77.2 4.3 77.2 3.7 77.4 C 2.9 77.7 2.4 78.2 2.1 78.9 C 1.9 79.6 1.9 80.2 1.9 81.4 L 1.9 88.3 C 1.9 89.5 1.9 90.1 2.1 90.7 C 2.4 91.4 2.9 92.0 3.7 92.3 C 4.3 92.5 4.9 92.5 6.1 92.5 L 27.2 92.5 C 28.4 92.5 29.0 92.5 29.7 92.3 C 30.4 92.0 31.0 91.4 31.2 90.7 C 31.4 90.1 31.4 89.5 31.4 88.3 L 31.4 81.4 C 31.4 80.2 31.4 79.6 31.2 78.9 C 31.0 78.2 30.4 77.7 29.7 77.4 C 29.0 77.2 28.4 77.2 27.2 77.2 Z M 27.2 77.2 " fill="#000000" fill-opacity="0.03"></path><path d="M 4.2 0.0 L 25.3 0.0 C 26.5 0.0 27.1 0.0 27.8 0.2 C 28.5 0.5 29.0 1.0 29.3 1.7 C 29.5 2.4 29.5 3.0 29.5 4.2 L 29.5 11.1 C 29.5 12.3 29.5 12.9 29.3 13.5 C 29.0 14.2 28.5 14.8 27.8 15.1 C 27.1 15.3 26.5 15.3 25.3 15.3 L 4.2 15.3 C 3.0 15.3 2.4 15.3 1.7 15.1 C 1.0 14.8 0.5 14.2 0.2 13.5 C 0.0 12.9 0.0 12.3 0.0 11.1 L 0.0 4.2 C 0.0 3.0 0.0 2.4 0.2 1.7 C 0.5 1.0 1.0 0.5 1.7 0.2 C 2.4 0.0 3.0 0.0 4.2 0.0 Z M 4.2 0.0 " fill="none" stroke="#000000" stroke-width="0.85" stroke-dasharray="0.9, 0.9" transform="matrix(-1.00, 0.00, 0.00, 1.00, 31.4, 77.2)"></path></g></g><g><clipPath id="clip-11482"><path d="M 32.8 46.0 L 0.5 46.0 L 0.5 64.0 L 32.8 64.0 Z M 32.8 46.0 "></path></clipPath><g clip-path="url(#clip-11482)"><path d="M 27.2 47.4 L 6.1 47.4 C 4.9 47.4 4.3 47.4 3.7 47.6 C 2.9 47.8 2.4 48.4 2.1 49.1 C 1.9 49.8 1.9 50.4 1.9 51.6 L 1.9 58.4 C 1.9 59.6 1.9 60.3 2.1 60.9 C 2.4 61.6 2.9 62.2 3.7 62.4 C 4.3 62.6 4.9 62.6 6.1 62.6 L 27.2 62.6 C 28.4 62.6 29.0 62.6 29.7 62.4 C 30.4 62.2 31.0 61.6 31.2 60.9 C 31.4 60.3 31.4 59.6 31.4 58.4 L 31.4 51.6 C 31.4 50.4 31.4 49.8 31.2 49.1 C 31.0 48.4 30.4 47.8 29.7 47.6 C 29.0 47.4 28.4 47.4 27.2 47.4 Z M 27.2 47.4 " fill="#000000" fill-opacity="0.14"></path><path d="M 4.2 0.0 L 25.3 0.0 C 26.5 0.0 27.1 0.0 27.8 0.2 C 28.5 0.5 29.0 1.0 29.3 1.7 C 29.5 2.4 29.5 3.0 29.5 4.2 L 29.5 11.1 C 29.5 12.3 29.5 12.9 29.3 13.5 C 29.0 14.2 28.5 14.8 27.8 15.1 C 27.1 15.3 26.5 15.3 25.3 15.3 L 4.2 15.3 C 3.0 15.3 2.4 15.3 1.7 15.1 C 1.0 14.8 0.5 14.2 0.2 13.5 C 0.0 12.9 0.0 12.3 0.0 11.1 L 0.0 4.2 C 0.0 3.0 0.0 2.4 0.2 1.7 C 0.5 1.0 1.0 0.5 1.7 0.2 C 2.4 0.0 3.0 0.0 4.2 0.0 Z M 4.2 0.0 " fill="none" stroke="#000000" stroke-width="0.85" stroke-dasharray="0.9, 0.9" transform="matrix(-1.00, 0.00, 0.00, 1.00, 31.4, 47.4)"></path></g></g><g><clipPath id="clip-11483"><path d="M 32.8 16.2 L 0.5 16.2 L 0.5 34.2 L 32.8 34.2 Z M 32.8 16.2 "></path></clipPath><g clip-path="url(#clip-11483)"><path d="M 27.2 17.5 L 6.1 17.5 C 4.9 17.5 4.3 17.5 3.7 17.8 C 2.9 18.0 2.4 18.6 2.1 19.3 C 1.9 19.9 1.9 20.5 1.9 21.8 L 1.9 28.6 C 1.9 29.8 1.9 30.4 2.1 31.1 C 2.4 31.8 2.9 32.4 3.7 32.6 C 4.3 32.8 4.9 32.8 6.1 32.8 L 27.2 32.8 C 28.4 32.8 29.0 32.8 29.7 32.6 C 30.4 32.4 31.0 31.8 31.2 31.1 C 31.4 30.4 31.4 29.8 31.4 28.6 L 31.4 21.7 C 31.4 20.5 31.4 19.9 31.2 19.3 C 31.0 18.6 30.4 18.0 29.7 17.8 C 29.0 17.5 28.4 17.5 27.2 17.5 Z M 27.2 17.5 " fill="#000000" fill-opacity="0.35"></path><path d="M 4.2 0.0 L 25.3 0.0 C 26.5 0.0 27.1 0.0 27.8 0.2 C 28.5 0.5 29.0 1.0 29.3 1.7 C 29.5 2.4 29.5 3.0 29.5 4.2 L 29.5 11.1 C 29.5 12.3 29.5 12.9 29.3 13.5 C 29.0 14.2 28.5 14.8 27.8 15.1 C 27.1 15.3 26.5 15.3 25.3 15.3 L 4.2 15.3 C 3.0 15.3 2.4 15.3 1.7 15.1 C 1.0 14.8 0.5 14.2 0.2 13.5 C 0.0 12.9 0.0 12.3 0.0 11.1 L 0.0 4.2 C 0.0 3.0 0.0 2.4 0.2 1.7 C 0.5 1.0 1.0 0.5 1.7 0.2 C 2.4 0.0 3.0 0.0 4.2 0.0 Z M 4.2 0.0 " fill="none" stroke="#000000" stroke-width="0.85" stroke-dasharray="0.9, 0.9" transform="matrix(-1.00, 0.00, 0.00, 1.00, 31.4, 17.5)"></path></g></g></g></svg>