<?xml version="1.0" encoding="UTF-8" standalone="no"?><svg xmlns="http://www.w3.org/2000/svg" xmlns:xlink="http://www.w3.org/1999/xlink" clip-rule="evenodd" stroke-miterlimit="4.00" viewBox="0 0 212 49"><desc>SVG generated by Keynote</desc><defs></defs><g transform="matrix(1.00, 0.00, -0.00, -1.00, 0.0, 49.0)"><path d="M 15.6 46.7 L 196.7 46.7 C 200.4 46.7 202.2 46.7 204.2 46.1 C 206.3 45.3 208.0 43.6 208.8 41.5 C 209.4 39.5 209.4 37.7 209.4 34.0 L 209.4 15.1 C 209.4 11.5 209.4 9.6 208.8 7.7 C 208.0 5.5 206.3 3.8 204.2 3.0 C 202.2 2.4 200.4 2.4 196.7 2.4 L 15.6 2.4 C 12.0 2.4 10.2 2.4 8.2 3.0 C 6.1 3.8 4.4 5.5 3.6 7.7 C 3.0 9.6 3.0 11.5 3.0 15.2 L 3.0 34.0 C 3.0 37.7 3.0 39.5 3.6 41.5 C 4.4 43.6 6.1 45.3 8.2 46.1 C 10.2 46.7 12.0 46.7 15.7 46.7 Z M 15.6 46.7 " fill="#E2AE00" fill-opacity="0.25"></path><path d="M 12.7 0.0 L 193.8 0.0 C 197.4 0.0 199.3 0.0 201.2 0.6 C 203.4 1.4 205.0 3.1 205.8 5.2 C 206.4 7.2 206.4 9.0 206.4 12.7 L 206.4 31.6 C 206.4 35.2 206.4 37.1 205.8 39.1 C 205.0 41.2 203.4 42.9 201.2 43.7 C 199.3 44.3 197.4 44.3 193.7 44.3 L 12.7 44.3 C 9.0 44.3 7.2 44.3 5.2 43.7 C 3.1 42.9 1.4 41.2 0.6 39.1 C 0.0 37.1 0.0 35.2 0.0 31.6 L 0.0 12.7 C 0.0 9.0 0.0 7.2 0.6 5.2 C 1.4 3.1 3.1 1.4 5.2 0.6 C 7.2 0.0 9.0 0.0 12.7 0.0 Z M 12.7 0.0 " fill="none" stroke="#000000" stroke-width="2.00" transform="matrix(1.00, 0.00, 0.00, -1.00, 3.0, 46.7)"></path><g><clipPath id="clip-11554"><path d="M -3.5 -2.2 L 215.8 -2.2 L 215.8 52.2 L -3.5 52.2 Z M -3.5 -2.2 "></path></clipPath><g clip-path="url(#clip-11554)"><text xml:space="preserve" font-family="GillSans" font-size="32.0" fill="#000000" transform="matrix(1.00, 0.00, -0.00, -1.00, 17.0, 14.0)">w</text><text xml:space="preserve" font-family="GillSans" font-size="32.0" fill="#000000" transform="matrix(1.00, 0.00, -0.00, -1.00, 39.4, 14.0)">e</text><text xml:space="preserve" font-family="GillSans" font-size="32.0" fill="#000000" transform="matrix(1.00, 0.00, -0.00, -1.00, 54.7, 14.0)">i</text><text xml:space="preserve" font-family="GillSans" font-size="32.0" fill="#000000" transform="matrix(1.00, 0.00, -0.00, -1.00, 61.7, 14.0)">g</text><text xml:space="preserve" font-family="GillSans" font-size="32.0" fill="#000000" transform="matrix(1.00, 0.00, -0.00, -1.00, 75.4, 14.0)">h</text><text xml:space="preserve" font-family="GillSans" font-size="32.0" fill="#000000" transform="matrix(1.00, 0.00, -0.00, -1.00, 91.4, 14.0)">t</text><text xml:space="preserve" font-family="GillSans" font-size="32.0" fill="#000000" transform="matrix(1.00, 0.00, -0.00, -1.00, 102.0, 14.0)">e</text><text xml:space="preserve" font-family="GillSans" font-size="32.0" fill="#000000" transform="matrix(1.00, 0.00, -0.00, -1.00, 117.4, 14.0)">d</text><text xml:space="preserve" font-family="GillSans" font-size="32.0" fill="#000000" transform="matrix(1.00, 0.00, -0.00, -1.00, 133.7, 14.0)"> </text><text xml:space="preserve" font-family="GillSans" font-size="32.0" fill="#000000" transform="matrix(1.00, 0.00, -0.00, -1.00, 142.6, 14.0)">s</text><text xml:space="preserve" font-family="GillSans" font-size="32.0" fill="#000000" transform="matrix(1.00, 0.00, -0.00, -1.00, 154.9, 14.0)">u</text><text xml:space="preserve" font-family="GillSans" font-size="32.0" fill="#000000" transform="matrix(1.00, 0.00, -0.00, -1.00, 170.9, 14.0)">m</text></g></g></g></svg>