<?xml version="1.0" encoding="UTF-8" standalone="no"?><svg xmlns="http://www.w3.org/2000/svg" xmlns:xlink="http://www.w3.org/1999/xlink" clip-rule="evenodd" stroke-miterlimit="4.00" viewBox="0 0 33 124"><desc>SVG generated by Keynote</desc><defs></defs><g transform="matrix(1.00, 0.00, -0.00, -1.00, 0.0, 124.0)"><g><clipPath id="clip-11421"><path d="M 0.5 0.8 L 33.0 0.8 L 33.0 123.8 L 0.5 123.8 Z M 0.5 0.8 "></path></clipPath><g clip-path="url(#clip-11421)"><path d="M 6.2 122.3 L 27.3 122.3 C 28.5 122.3 29.1 122.3 29.7 122.1 C 30.4 121.8 31.0 121.3 31.3 120.6 C 31.5 119.9 31.5 119.3 31.5 118.1 L 31.5 6.5 C 31.5 5.3 31.5 4.7 31.3 4.0 C 31.0 3.3 30.4 2.8 29.7 2.5 C 29.1 2.3 28.5 2.3 27.2 2.3 L 6.2 2.3 C 5.0 2.3 4.4 2.3 3.7 2.5 C 3.0 2.8 2.4 3.3 2.2 4.0 C 2.0 4.7 2.0 5.3 2.0 6.5 L 2.0 118.1 C 2.0 119.3 2.0 119.9 2.2 120.6 C 2.4 121.3 3.0 121.8 3.7 122.1 C 4.4 122.3 5.0 122.3 6.2 122.3 Z M 6.2 122.3 " fill="#000000" fill-opacity="0.33"></path><path d="M 4.2 0.0 L 25.3 0.0 C 26.5 0.0 27.1 0.0 27.8 0.2 C 28.5 0.5 29.0 1.0 29.3 1.7 C 29.5 2.4 29.5 3.0 29.5 4.2 L 29.5 115.8 C 29.5 117.0 29.5 117.6 29.3 118.3 C 29.0 119.0 28.5 119.5 27.8 119.8 C 27.1 120.0 26.5 120.0 25.3 120.0 L 4.2 120.0 C 3.0 120.0 2.4 120.0 1.7 119.8 C 1.0 119.5 0.5 119.0 0.2 118.3 C 0.0 117.6 0.0 117.0 0.0 115.8 L 0.0 4.2 C 0.0 3.0 0.0 2.4 0.2 1.7 C 0.5 1.0 1.0 0.5 1.7 0.2 C 2.4 0.0 3.0 0.0 4.2 0.0 Z M 4.2 0.0 " fill="none" stroke="#000000" stroke-width="1.10" transform="matrix(1.00, 0.00, 0.00, -1.00, 2.0, 122.3)"></path></g></g><g><clipPath id="clip-11422"><path d="M 0.6 46.0 L 32.8 46.0 L 32.8 64.0 L 0.6 64.0 Z M 0.6 46.0 "></path></clipPath><g clip-path="url(#clip-11422)"><path d="M 6.2 62.6 L 27.3 62.6 C 28.5 62.6 29.1 62.6 29.7 62.4 C 30.4 62.2 31.0 61.6 31.3 60.9 C 31.5 60.3 31.5 59.6 31.5 58.4 L 31.5 51.6 C 31.5 50.4 31.5 49.8 31.3 49.1 C 31.0 48.4 30.4 47.8 29.7 47.6 C 29.1 47.4 28.5 47.4 27.2 47.4 L 6.2 47.4 C 5.0 47.4 4.4 47.4 3.7 47.6 C 3.0 47.8 2.4 48.4 2.2 49.1 C 2.0 49.8 2.0 50.4 2.0 51.6 L 2.0 58.4 C 2.0 59.6 2.0 60.3 2.2 60.9 C 2.4 61.6 3.0 62.2 3.7 62.4 C 4.4 62.6 5.0 62.6 6.2 62.6 Z M 6.2 62.6 " fill="#000000" fill-opacity="0.14"></path><path d="M 4.2 0.0 L 25.3 0.0 C 26.5 0.0 27.1 0.0 27.8 0.2 C 28.5 0.5 29.0 1.0 29.3 1.7 C 29.5 2.4 29.5 3.0 29.5 4.2 L 29.5 11.1 C 29.5 12.3 29.5 12.9 29.3 13.5 C 29.0 14.2 28.5 14.8 27.8 15.1 C 27.1 15.3 26.5 15.3 25.3 15.3 L 4.2 15.3 C 3.0 15.3 2.4 15.3 1.7 15.1 C 1.0 14.8 0.5 14.2 0.2 13.5 C 0.0 12.9 0.0 12.3 0.0 11.1 L 0.0 4.2 C 0.0 3.0 0.0 2.4 0.2 1.7 C 0.5 1.0 1.0 0.5 1.7 0.2 C 2.4 0.0 3.0 0.0 4.2 0.0 Z M 4.2 0.0 " fill="none" stroke="#000000" stroke-width="0.85" stroke-dasharray="0.9, 0.9" transform="matrix(1.00, 0.00, 0.00, -1.00, 2.0, 62.6)"></path></g></g><g><clipPath id="clip-11423"><path d="M 0.6 46.0 L 32.8 46.0 L 32.8 64.0 L 0.6 64.0 Z M 0.6 46.0 "></path></clipPath><g clip-path="url(#clip-11423)"><path d="M 6.2 62.6 L 27.3 62.6 C 28.5 62.6 29.1 62.6 29.7 62.4 C 30.4 62.2 31.0 61.6 31.3 60.9 C 31.5 60.3 31.5 59.6 31.5 58.4 L 31.5 51.6 C 31.5 50.4 31.5 49.8 31.3 49.1 C 31.0 48.4 30.4 47.8 29.7 47.6 C 29.1 47.4 28.5 47.4 27.2 47.4 L 6.2 47.4 C 5.0 47.4 4.4 47.4 3.7 47.6 C 3.0 47.8 2.4 48.4 2.2 49.1 C 2.0 49.8 2.0 50.4 2.0 51.6 L 2.0 58.4 C 2.0 59.6 2.0 60.3 2.2 60.9 C 2.4 61.6 3.0 62.2 3.7 62.4 C 4.4 62.6 5.0 62.6 6.2 62.6 Z M 6.2 62.6 " fill="#000000" fill-opacity="0.03"></path><path d="M 4.2 0.0 L 25.3 0.0 C 26.5 0.0 27.1 0.0 27.8 0.2 C 28.5 0.5 29.0 1.0 29.3 1.7 C 29.5 2.4 29.5 3.0 29.5 4.2 L 29.5 11.1 C 29.5 12.3 29.5 12.9 29.3 13.5 C 29.0 14.2 28.5 14.8 27.8 15.1 C 27.1 15.3 26.5 15.3 25.3 15.3 L 4.2 15.3 C 3.0 15.3 2.4 15.3 1.7 15.1 C 1.0 14.8 0.5 14.2 0.2 13.5 C 0.0 12.9 0.0 12.3 0.0 11.1 L 0.0 4.2 C 0.0 3.0 0.0 2.4 0.2 1.7 C 0.5 1.0 1.0 0.5 1.7 0.2 C 2.4 0.0 3.0 0.0 4.2 0.0 Z M 4.2 0.0 " fill="none" stroke="#000000" stroke-width="0.85" stroke-dasharray="0.9, 0.9" transform="matrix(1.00, 0.00, 0.00, -1.00, 2.0, 62.6)"></path></g></g><g><clipPath id="clip-11424"><path d="M 0.6 90.7 L 32.8 90.7 L 32.8 108.8 L 0.6 108.8 Z M 0.6 90.7 "></path></clipPath><g clip-path="url(#clip-11424)"><path d="M 6.2 107.4 L 27.3 107.4 C 28.5 107.4 29.1 107.4 29.7 107.2 C 30.4 106.9 31.0 106.4 31.3 105.6 C 31.5 105.0 31.5 104.4 31.5 103.2 L 31.5 96.3 C 31.5 95.1 31.5 94.5 31.3 93.8 C 31.0 93.1 30.4 92.6 29.7 92.3 C 29.1 92.1 28.5 92.1 27.2 92.1 L 6.2 92.1 C 5.0 92.1 4.4 92.1 3.7 92.3 C 3.0 92.6 2.4 93.1 2.2 93.8 C 2.0 94.5 2.0 95.1 2.0 96.3 L 2.0 103.2 C 2.0 104.4 2.0 105.0 2.2 105.6 C 2.4 106.4 3.0 106.9 3.7 107.2 C 4.4 107.4 5.0 107.4 6.2 107.4 Z M 6.2 107.4 " fill="#000000" fill-opacity="0.19"></path><path d="M 4.2 0.0 L 25.3 0.0 C 26.5 0.0 27.1 0.0 27.8 0.2 C 28.5 0.5 29.0 1.0 29.3 1.7 C 29.5 2.4 29.5 3.0 29.5 4.2 L 29.5 11.1 C 29.5 12.3 29.5 12.9 29.3 13.5 C 29.0 14.2 28.5 14.8 27.8 15.1 C 27.1 15.3 26.5 15.3 25.3 15.3 L 4.2 15.3 C 3.0 15.3 2.4 15.3 1.7 15.1 C 1.0 14.8 0.5 14.2 0.2 13.5 C 0.0 12.9 0.0 12.3 0.0 11.1 L 0.0 4.2 C 0.0 3.0 0.0 2.4 0.2 1.7 C 0.5 1.0 1.0 0.5 1.7 0.2 C 2.4 0.0 3.0 0.0 4.2 0.0 Z M 4.2 0.0 " fill="none" stroke="#000000" stroke-width="0.85" stroke-dasharray="0.9, 0.9" transform="matrix(1.00, 0.00, 0.00, -1.00, 2.0, 107.4)"></path></g></g><g><clipPath id="clip-11425"><path d="M 0.6 75.8 L 32.8 75.8 L 32.8 93.8 L 0.6 93.8 Z M 0.6 75.8 "></path></clipPath><g clip-path="url(#clip-11425)"><path d="M 6.2 92.5 L 27.3 92.5 C 28.5 92.5 29.1 92.5 29.7 92.3 C 30.4 92.0 31.0 91.4 31.3 90.7 C 31.5 90.1 31.5 89.5 31.5 88.3 L 31.5 81.4 C 31.5 80.2 31.5 79.6 31.3 78.9 C 31.0 78.2 30.4 77.7 29.7 77.4 C 29.1 77.2 28.5 77.2 27.2 77.2 L 6.2 77.2 C 5.0 77.2 4.4 77.2 3.7 77.4 C 3.0 77.7 2.4 78.2 2.2 78.9 C 2.0 79.6 2.0 80.2 2.0 81.4 L 2.0 88.3 C 2.0 89.5 2.0 90.1 2.2 90.7 C 2.4 91.4 3.0 92.0 3.7 92.3 C 4.4 92.5 5.0 92.5 6.2 92.5 Z M 6.2 92.5 " fill="#000000" fill-opacity="0.17"></path><path d="M 4.2 0.0 L 25.3 0.0 C 26.5 0.0 27.1 0.0 27.8 0.2 C 28.5 0.5 29.0 1.0 29.3 1.7 C 29.5 2.4 29.5 3.0 29.5 4.2 L 29.5 11.1 C 29.5 12.3 29.5 12.9 29.3 13.5 C 29.0 14.2 28.5 14.8 27.8 15.1 C 27.1 15.3 26.5 15.3 25.3 15.3 L 4.2 15.3 C 3.0 15.3 2.4 15.3 1.7 15.1 C 1.0 14.8 0.5 14.2 0.2 13.5 C 0.0 12.9 0.0 12.3 0.0 11.1 L 0.0 4.2 C 0.0 3.0 0.0 2.4 0.2 1.7 C 0.5 1.0 1.0 0.5 1.7 0.2 C 2.4 0.0 3.0 0.0 4.2 0.0 Z M 4.2 0.0 " fill="none" stroke="#000000" stroke-width="0.85" stroke-dasharray="0.9, 0.9" transform="matrix(1.00, 0.00, 0.00, -1.00, 2.0, 92.5)"></path></g></g><g><clipPath id="clip-11426"><path d="M 0.6 105.7 L 32.8 105.7 L 32.8 123.7 L 0.6 123.7 Z M 0.6 105.7 "></path></clipPath><g clip-path="url(#clip-11426)"><path d="M 6.2 122.3 L 27.3 122.3 C 28.5 122.3 29.1 122.3 29.7 122.1 C 30.4 121.8 31.0 121.3 31.3 120.6 C 31.5 119.9 31.5 119.3 31.5 118.1 L 31.5 111.2 C 31.5 110.0 31.5 109.4 31.3 108.8 C 31.0 108.0 30.4 107.5 29.7 107.2 C 29.1 107.0 28.5 107.0 27.2 107.0 L 6.2 107.0 C 5.0 107.0 4.4 107.0 3.7 107.2 C 3.0 107.5 2.4 108.0 2.2 108.8 C 2.0 109.4 2.0 110.0 2.0 111.2 L 2.0 118.1 C 2.0 119.3 2.0 119.9 2.2 120.6 C 2.4 121.3 3.0 121.8 3.7 122.1 C 4.4 122.3 5.0 122.3 6.2 122.3 Z M 6.2 122.3 " fill="#000000" fill-opacity="0.48"></path><path d="M 4.2 0.0 L 25.3 0.0 C 26.5 0.0 27.1 0.0 27.8 0.2 C 28.5 0.5 29.0 1.0 29.3 1.7 C 29.5 2.4 29.5 3.0 29.5 4.2 L 29.5 11.1 C 29.5 12.3 29.5 12.9 29.3 13.5 C 29.0 14.2 28.5 14.8 27.8 15.1 C 27.1 15.3 26.5 15.3 25.3 15.3 L 4.2 15.3 C 3.0 15.3 2.4 15.3 1.7 15.1 C 1.0 14.8 0.5 14.2 0.2 13.5 C 0.0 12.9 0.0 12.3 0.0 11.1 L 0.0 4.2 C 0.0 3.0 0.0 2.4 0.2 1.7 C 0.5 1.0 1.0 0.5 1.7 0.2 C 2.4 0.0 3.0 0.0 4.2 0.0 Z M 4.2 0.0 " fill="none" stroke="#000000" stroke-width="0.85" stroke-dasharray="0.9, 0.9" transform="matrix(1.00, 0.00, 0.00, -1.00, 2.0, 122.3)"></path></g></g><g><clipPath id="clip-11427"><path d="M 0.6 16.2 L 32.8 16.2 L 32.8 34.2 L 0.6 34.2 Z M 0.6 16.2 "></path></clipPath><g clip-path="url(#clip-11427)"><path d="M 6.2 32.8 L 27.3 32.8 C 28.5 32.8 29.1 32.8 29.7 32.6 C 30.4 32.4 31.0 31.8 31.3 31.1 C 31.5 30.4 31.5 29.8 31.5 28.6 L 31.5 21.7 C 31.5 20.5 31.5 19.9 31.3 19.3 C 31.0 18.6 30.4 18.0 29.7 17.8 C 29.1 17.5 28.5 17.5 27.2 17.5 L 6.2 17.5 C 5.0 17.5 4.4 17.5 3.7 17.8 C 3.0 18.0 2.4 18.6 2.2 19.3 C 2.0 19.9 2.0 20.5 2.0 21.8 L 2.0 28.6 C 2.0 29.8 2.0 30.4 2.2 31.1 C 2.4 31.8 3.0 32.4 3.7 32.6 C 4.4 32.8 5.0 32.8 6.2 32.8 Z M 6.2 32.8 " fill="#000000" fill-opacity="0.03"></path><path d="M 4.2 0.0 L 25.3 0.0 C 26.5 0.0 27.1 0.0 27.8 0.2 C 28.5 0.5 29.0 1.0 29.3 1.7 C 29.5 2.4 29.5 3.0 29.5 4.2 L 29.5 11.1 C 29.5 12.3 29.5 12.9 29.3 13.5 C 29.0 14.2 28.5 14.8 27.8 15.1 C 27.1 15.3 26.5 15.3 25.3 15.3 L 4.2 15.3 C 3.0 15.3 2.4 15.3 1.7 15.1 C 1.0 14.8 0.5 14.2 0.2 13.5 C 0.0 12.9 0.0 12.3 0.0 11.1 L 0.0 4.2 C 0.0 3.0 0.0 2.4 0.2 1.7 C 0.5 1.0 1.0 0.5 1.7 0.2 C 2.4 0.0 3.0 0.0 4.2 0.0 Z M 4.2 0.0 " fill="none" stroke="#000000" stroke-width="0.85" stroke-dasharray="0.9, 0.9" transform="matrix(1.00, 0.00, 0.00, -1.00, 2.0, 32.8)"></path></g></g><g><clipPath id="clip-11428"><path d="M 0.6 1.3 L 32.8 1.3 L 32.8 19.3 L 0.6 19.3 Z M 0.6 1.3 "></path></clipPath><g clip-path="url(#clip-11428)"><path d="M 6.2 17.9 L 27.3 17.9 C 28.5 17.9 29.1 17.9 29.7 17.7 C 30.4 17.4 31.0 16.9 31.3 16.2 C 31.5 15.5 31.5 14.9 31.5 13.7 L 31.5 6.8 C 31.5 5.6 31.5 5.0 31.3 4.4 C 31.0 3.7 30.4 3.1 29.7 2.8 C 29.1 2.6 28.5 2.6 27.2 2.6 L 6.2 2.6 C 5.0 2.6 4.4 2.6 3.7 2.8 C 3.0 3.1 2.4 3.7 2.2 4.4 C 2.0 5.0 2.0 5.6 2.0 6.9 L 2.0 13.7 C 2.0 14.9 2.0 15.5 2.2 16.2 C 2.4 16.9 3.0 17.4 3.7 17.7 C 4.4 17.9 5.0 17.9 6.2 17.9 Z M 6.2 17.9 " fill="#000000" fill-opacity="0.14"></path><path d="M 4.2 0.0 L 25.3 0.0 C 26.5 0.0 27.1 0.0 27.8 0.2 C 28.5 0.5 29.0 1.0 29.3 1.7 C 29.5 2.4 29.5 3.0 29.5 4.2 L 29.5 11.1 C 29.5 12.3 29.5 12.9 29.3 13.5 C 29.0 14.2 28.5 14.8 27.8 15.1 C 27.1 15.3 26.5 15.3 25.3 15.3 L 4.2 15.3 C 3.0 15.3 2.4 15.3 1.7 15.1 C 1.0 14.8 0.5 14.2 0.2 13.5 C 0.0 12.9 0.0 12.3 0.0 11.1 L 0.0 4.2 C 0.0 3.0 0.0 2.4 0.2 1.7 C 0.5 1.0 1.0 0.5 1.7 0.2 C 2.4 0.0 3.0 0.0 4.2 0.0 Z M 4.2 0.0 " fill="none" stroke="#000000" stroke-width="0.85" stroke-dasharray="0.9, 0.9" transform="matrix(1.00, 0.00, 0.00, -1.00, 2.0, 17.9)"></path></g></g><g><clipPath id="clip-11429"><path d="M 0.6 60.9 L 32.8 60.9 L 32.8 78.9 L 0.6 78.9 Z M 0.6 60.9 "></path></clipPath><g clip-path="url(#clip-11429)"><path d="M 6.2 77.6 L 27.3 77.6 C 28.5 77.6 29.1 77.6 29.7 77.4 C 30.4 77.1 31.0 76.5 31.3 75.8 C 31.5 75.2 31.5 74.6 31.5 73.3 L 31.5 66.5 C 31.5 65.3 31.5 64.7 31.3 64.0 C 31.0 63.3 30.4 62.8 29.7 62.5 C 29.1 62.3 28.5 62.3 27.2 62.3 L 6.2 62.3 C 5.0 62.3 4.4 62.3 3.7 62.5 C 3.0 62.8 2.4 63.3 2.2 64.0 C 2.0 64.7 2.0 65.3 2.0 66.5 L 2.0 73.4 C 2.0 74.6 2.0 75.2 2.2 75.8 C 2.4 76.5 3.0 77.1 3.7 77.4 C 4.4 77.6 5.0 77.6 6.2 77.6 Z M 6.2 77.6 " fill="#000000" fill-opacity="0.35"></path><path d="M 4.2 0.0 L 25.3 0.0 C 26.5 0.0 27.1 0.0 27.8 0.2 C 28.5 0.5 29.0 1.0 29.3 1.7 C 29.5 2.4 29.5 3.0 29.5 4.2 L 29.5 11.1 C 29.5 12.3 29.5 12.9 29.3 13.5 C 29.0 14.2 28.5 14.8 27.8 15.1 C 27.1 15.3 26.5 15.3 25.3 15.3 L 4.2 15.3 C 3.0 15.3 2.4 15.3 1.7 15.1 C 1.0 14.8 0.5 14.2 0.2 13.5 C 0.0 12.9 0.0 12.3 0.0 11.1 L 0.0 4.2 C 0.0 3.0 0.0 2.4 0.2 1.7 C 0.5 1.0 1.0 0.5 1.7 0.2 C 2.4 0.0 3.0 0.0 4.2 0.0 Z M 4.2 0.0 " fill="none" stroke="#000000" stroke-width="0.85" stroke-dasharray="0.9, 0.9" transform="matrix(1.00, 0.00, 0.00, -1.00, 2.0, 77.6)"></path></g></g></g></svg>