<?xml version="1.0" encoding="UTF-8" standalone="no"?><svg xmlns="http://www.w3.org/2000/svg" xmlns:xlink="http://www.w3.org/1999/xlink" clip-rule="evenodd" stroke-miterlimit="4.00" viewBox="0 0 1920 1080"><desc>SVG generated by Keynote</desc><defs></defs><g transform="matrix(1.00, 0.00, -0.00, -1.00, 0.0, 1080.0)"><path d="M 0.0 1080.0 L 1920.0 1080.0 L 1920.0 0.0 L 0.0 0.0 Z M 0.0 1080.0 " fill="#FEFFFF"></path><text xml:space="preserve" font-family="GillSans" font-size="112.0" fill="#000000" transform="matrix(1.00, 0.00, -0.00, -1.00, 439.0, 876.0)">S</text><text xml:space="preserve" font-family="GillSans" font-size="112.0" fill="#000000" transform="matrix(1.00, 0.00, -0.00, -1.00, 490.3, 876.0)">e</text><text xml:space="preserve" font-family="GillSans" font-size="112.0" fill="#000000" transform="matrix(1.00, 0.00, -0.00, -1.00, 543.9, 876.0)">m</text><text xml:space="preserve" font-family="GillSans" font-size="112.0" fill="#000000" transform="matrix(1.00, 0.00, -0.00, -1.00, 630.3, 876.0)">a</text><text xml:space="preserve" font-family="GillSans" font-size="112.0" fill="#000000" transform="matrix(1.00, 0.00, -0.00, -1.00, 678.1, 876.0)">n</text><text xml:space="preserve" font-family="GillSans" font-size="112.0" fill="#000000" transform="matrix(1.00, 0.00, -0.00, -1.00, 734.1, 876.0)">t</text><text xml:space="preserve" font-family="GillSans" font-size="112.0" fill="#000000" transform="matrix(1.00, 0.00, -0.00, -1.00, 771.4, 876.0)">i</text><text xml:space="preserve" font-family="GillSans" font-size="112.0" fill="#000000" transform="matrix(1.00, 0.00, -0.00, -1.00, 795.9, 876.0)">c</text><text xml:space="preserve" font-family="GillSans" font-size="112.0" fill="#000000" transform="matrix(1.00, 0.00, -0.00, -1.00, 845.0, 876.0)"> </text><text xml:space="preserve" font-family="GillSans" font-size="112.0" fill="#000000" transform="matrix(1.00, 0.00, -0.00, -1.00, 876.1, 876.0)">R</text><text xml:space="preserve" font-family="GillSans" font-size="112.0" fill="#000000" transform="matrix(1.00, 0.00, -0.00, -1.00, 943.7, 876.0)">o</text><text xml:space="preserve" font-family="GillSans" font-size="112.0" fill="#000000" transform="matrix(1.00, 0.00, -0.00, -1.00, 1005.5, 876.0)">l</text><text xml:space="preserve" font-family="GillSans" font-size="112.0" fill="#000000" transform="matrix(1.00, 0.00, -0.00, -1.00, 1030.1, 876.0)">e</text><text xml:space="preserve" font-family="GillSans" font-size="112.0" fill="#000000" transform="matrix(1.00, 0.00, -0.00, -1.00, 1083.7, 876.0)"> </text><text xml:space="preserve" font-family="GillSans" font-size="112.0" fill="#000000" transform="matrix(1.00, 0.00, -0.00, -1.00, 1114.8, 876.0)">L</text><text xml:space="preserve" font-family="GillSans" font-size="112.0" fill="#000000" transform="matrix(1.00, 0.00, -0.00, -1.00, 1169.8, 876.0)">a</text><text xml:space="preserve" font-family="GillSans" font-size="112.0" fill="#000000" transform="matrix(1.00, 0.00, -0.00, -1.00, 1217.5, 876.0)">b</text><text xml:space="preserve" font-family="GillSans" font-size="112.0" fill="#000000" transform="matrix(1.00, 0.00, -0.00, -1.00, 1273.5, 876.0)">e</text><text xml:space="preserve" font-family="GillSans" font-size="112.0" fill="#000000" transform="matrix(1.00, 0.00, -0.00, -1.00, 1327.2, 876.0)">l</text><text xml:space="preserve" font-family="GillSans" font-size="112.0" fill="#000000" transform="matrix(1.00, 0.00, -0.00, -1.00, 1351.8, 876.0)">i</text><text xml:space="preserve" font-family="GillSans" font-size="112.0" fill="#000000" transform="matrix(1.00, 0.00, -0.00, -1.00, 1376.3, 876.0)">n</text><text xml:space="preserve" font-family="GillSans" font-size="112.0" fill="#000000" transform="matrix(1.00, 0.00, -0.00, -1.00, 1432.3, 876.0)">g</text><g><clipPath id="clip-7635"><path d="M 314.7 392.0 L 392.4 392.0 L 392.4 444.7 L 314.7 444.7 Z M 314.7 392.0 "></path></clipPath><g clip-path="url(#clip-7635)"><path d="M 327.0 442.7 L 380.1 442.7 C 383.1 442.7 384.6 442.7 386.2 442.2 C 387.9 441.5 389.3 440.2 389.9 438.4 C 390.4 436.8 390.4 435.3 390.4 432.3 L 390.4 404.3 C 390.4 401.4 390.4 399.9 389.9 398.3 C 389.3 396.5 387.9 395.2 386.2 394.5 C 384.6 394.0 383.1 394.0 380.1 394.0 L 327.0 394.0 C 324.1 394.0 322.6 394.0 321.0 394.5 C 319.2 395.2 317.9 396.5 317.2 398.3 C 316.7 399.9 316.7 401.4 316.7 404.4 L 316.7 432.4 C 316.7 435.3 316.7 436.8 317.2 438.4 C 317.9 440.2 319.2 441.5 321.0 442.2 C 322.6 442.7 324.1 442.7 327.1 442.7 Z M 327.0 442.7 " fill="#7F7E7E" fill-opacity="0.06"></path><path d="M 10.3 0.0 L 63.4 0.0 C 66.4 0.0 67.9 0.0 69.5 0.5 C 71.2 1.1 72.6 2.5 73.2 4.3 C 73.7 5.8 73.7 7.3 73.7 10.3 L 73.7 38.4 C 73.7 41.3 73.7 42.8 73.2 44.4 C 72.6 46.2 71.2 47.5 69.5 48.2 C 67.9 48.7 66.4 48.7 63.4 48.7 L 10.3 48.7 C 7.3 48.7 5.8 48.7 4.3 48.2 C 2.5 47.5 1.1 46.2 0.5 44.4 C 0.0 42.8 0.0 41.3 0.0 38.3 L 0.0 10.3 C 0.0 7.3 0.0 5.8 0.5 4.3 C 1.1 2.5 2.5 1.1 4.3 0.5 C 5.8 0.0 7.3 0.0 10.3 0.0 Z M 10.3 0.0 " fill="none" stroke="#52575F" stroke-width="2.00" transform="matrix(1.00, 0.00, 0.00, -1.00, 316.7, 442.7)"></path></g></g><g><clipPath id="clip-7636"><path d="M 112.0 386.4 L 294.1 386.4 L 294.1 454.2 L 112.0 454.2 Z M 112.0 386.4 "></path></clipPath><g clip-path="url(#clip-7636)"><text xml:space="preserve" font-family="GillSans-Italic" font-style="italic" font-size="40.0" fill="#C82505" transform="matrix(1.00, 0.00, -0.00, -1.00, 146.0, 407.0)">K</text><text xml:space="preserve" font-family="GillSans-Italic" font-style="italic" font-size="40.0" fill="#C82505" transform="matrix(1.00, 0.00, -0.00, -1.00, 168.5, 407.0)">r</text><text xml:space="preserve" font-family="GillSans-Italic" font-style="italic" font-size="40.0" fill="#C82505" transform="matrix(1.00, 0.00, -0.00, -1.00, 181.8, 407.0)">i</text><text xml:space="preserve" font-family="GillSans-Italic" font-style="italic" font-size="40.0" fill="#C82505" transform="matrix(1.00, 0.00, -0.00, -1.00, 189.4, 407.0)">s</text><text xml:space="preserve" font-family="GillSans-Italic" font-style="italic" font-size="40.0" fill="#C82505" transform="matrix(1.00, 0.00, -0.00, -1.00, 203.5, 407.0)">t</text><text xml:space="preserve" font-family="GillSans-Italic" font-style="italic" font-size="40.0" fill="#C82505" transform="matrix(1.00, 0.00, -0.00, -1.00, 214.7, 407.0)">i</text><text xml:space="preserve" font-family="GillSans-Italic" font-style="italic" font-size="40.0" fill="#C82505" transform="matrix(1.00, 0.00, -0.00, -1.00, 222.3, 407.0)">n</text><text xml:space="preserve" font-family="GillSans-Italic" font-style="italic" font-size="40.0" fill="#C82505" transform="matrix(1.00, 0.00, -0.00, -1.00, 241.0, 407.0)">a</text></g></g><g><clipPath id="clip-7637"><path d="M 291.9 386.4 L 415.2 386.4 L 415.2 454.2 L 291.9 454.2 Z M 291.9 386.4 "></path></clipPath><g clip-path="url(#clip-7637)"><text xml:space="preserve" font-family="GillSans-Italic" font-style="italic" font-size="40.0" fill="#000000" transform="matrix(1.00, 0.00, -0.00, -1.00, 335.0, 407.0)">h</text><text xml:space="preserve" font-family="GillSans-Italic" font-style="italic" font-size="40.0" fill="#000000" transform="matrix(1.00, 0.00, -0.00, -1.00, 353.8, 407.0)">i</text><text xml:space="preserve" font-family="GillSans-Italic" font-style="italic" font-size="40.0" fill="#000000" transform="matrix(1.00, 0.00, -0.00, -1.00, 361.3, 407.0)">t</text></g></g><g><clipPath id="clip-7638"><path d="M 413.1 386.4 L 563.9 386.4 L 563.9 454.2 L 413.1 454.2 Z M 413.1 386.4 "></path></clipPath><g clip-path="url(#clip-7638)"><text xml:space="preserve" font-family="GillSans-Italic" font-style="italic" font-size="40.0" fill="#DE6A10" transform="matrix(1.00, 0.00, -0.00, -1.00, 451.0, 407.0)">S</text><text xml:space="preserve" font-family="GillSans-Italic" font-style="italic" font-size="40.0" fill="#DE6A10" transform="matrix(1.00, 0.00, -0.00, -1.00, 469.3, 407.0)">c</text><text xml:space="preserve" font-family="GillSans-Italic" font-style="italic" font-size="40.0" fill="#DE6A10" transform="matrix(1.00, 0.00, -0.00, -1.00, 484.7, 407.0)">o</text><text xml:space="preserve" font-family="GillSans-Italic" font-style="italic" font-size="40.0" fill="#DE6A10" transform="matrix(1.00, 0.00, -0.00, -1.00, 502.6, 407.0)">t</text><text xml:space="preserve" font-family="GillSans-Italic" font-style="italic" font-size="40.0" fill="#DE6A10" transform="matrix(1.00, 0.00, -0.00, -1.00, 513.9, 407.0)">t</text></g></g><g><clipPath id="clip-7639"><path d="M 604.7 386.4 L 728.0 386.4 L 728.0 454.2 L 604.7 454.2 Z M 604.7 386.4 "></path></clipPath><g clip-path="url(#clip-7639)"><text xml:space="preserve" font-family="GillSans-Italic" font-style="italic" font-size="40.0" fill="#0264C0" transform="matrix(1.00, 0.00, -0.00, -1.00, 635.0, 407.0)">w</text><text xml:space="preserve" font-family="GillSans-Italic" font-style="italic" font-size="40.0" fill="#0264C0" transform="matrix(1.00, 0.00, -0.00, -1.00, 659.6, 407.0)">i</text><text xml:space="preserve" font-family="GillSans-Italic" font-style="italic" font-size="40.0" fill="#0264C0" transform="matrix(1.00, 0.00, -0.00, -1.00, 667.1, 407.0)">t</text><text xml:space="preserve" font-family="GillSans-Italic" font-style="italic" font-size="40.0" fill="#0264C0" transform="matrix(1.00, 0.00, -0.00, -1.00, 678.4, 407.0)">h</text></g></g><g><clipPath id="clip-7640"><path d="M 711.0 386.4 L 787.7 386.4 L 787.7 454.2 L 711.0 454.2 Z M 711.0 386.4 "></path></clipPath><g clip-path="url(#clip-7640)"><text xml:space="preserve" font-family="GillSans-Italic" font-style="italic" font-size="40.0" fill="#0264C0" transform="matrix(1.00, 0.00, -0.00, -1.00, 740.0, 407.0)">a</text></g></g><g><clipPath id="clip-7641"><path d="M 769.8 386.4 L 951.9 386.4 L 951.9 454.2 L 769.8 454.2 Z M 769.8 386.4 "></path></clipPath><g clip-path="url(#clip-7641)"><text xml:space="preserve" font-family="GillSans-Italic" font-style="italic" font-size="40.0" fill="#0264C0" transform="matrix(1.00, 0.00, -0.00, -1.00, 800.0, 407.0)">b</text><text xml:space="preserve" font-family="GillSans-Italic" font-style="italic" font-size="40.0" fill="#0264C0" transform="matrix(1.00, 0.00, -0.00, -1.00, 818.8, 407.0)">a</text><text xml:space="preserve" font-family="GillSans-Italic" font-style="italic" font-size="40.0" fill="#0264C0" transform="matrix(1.00, 0.00, -0.00, -1.00, 837.6, 407.0)">s</text><text xml:space="preserve" font-family="GillSans-Italic" font-style="italic" font-size="40.0" fill="#0264C0" transform="matrix(1.00, 0.00, -0.00, -1.00, 851.7, 407.0)">e</text><text xml:space="preserve" font-family="GillSans-Italic" font-style="italic" font-size="40.0" fill="#0264C0" transform="matrix(1.00, 0.00, -0.00, -1.00, 869.2, 407.0)">b</text><text xml:space="preserve" font-family="GillSans-Italic" font-style="italic" font-size="40.0" fill="#0264C0" transform="matrix(1.00, 0.00, -0.00, -1.00, 888.0, 407.0)">a</text><text xml:space="preserve" font-family="GillSans-Italic" font-style="italic" font-size="40.0" fill="#0264C0" transform="matrix(1.00, 0.00, -0.00, -1.00, 906.8, 407.0)">l</text><text xml:space="preserve" font-family="GillSans-Italic" font-style="italic" font-size="40.0" fill="#0264C0" transform="matrix(1.00, 0.00, -0.00, -1.00, 914.3, 407.0)">l</text></g></g><g><clipPath id="clip-7642"><path d="M 972.8 386.4 L 1208.0 386.4 L 1208.0 454.2 L 972.8 454.2 Z M 972.8 386.4 "></path></clipPath><g clip-path="url(#clip-7642)"><text xml:space="preserve" font-family="GillSans-Italic" font-style="italic" font-size="40.0" fill="#00872A" transform="matrix(1.00, 0.00, -0.00, -1.00, 1021.0, 407.0)">y</text><text xml:space="preserve" font-family="GillSans-Italic" font-style="italic" font-size="40.0" fill="#00872A" transform="matrix(1.00, 0.00, -0.00, -1.00, 1035.2, 407.0)">e</text><text xml:space="preserve" font-family="GillSans-Italic" font-style="italic" font-size="40.0" fill="#00872A" transform="matrix(1.00, 0.00, -0.00, -1.00, 1052.7, 407.0)">s</text><text xml:space="preserve" font-family="GillSans-Italic" font-style="italic" font-size="40.0" fill="#00872A" transform="matrix(1.00, 0.00, -0.00, -1.00, 1066.9, 407.0)">t</text><text xml:space="preserve" font-family="GillSans-Italic" font-style="italic" font-size="40.0" fill="#00872A" transform="matrix(1.00, 0.00, -0.00, -1.00, 1078.1, 407.0)">e</text><text xml:space="preserve" font-family="GillSans-Italic" font-style="italic" font-size="40.0" fill="#00872A" transform="matrix(1.00, 0.00, -0.00, -1.00, 1095.6, 407.0)">r</text><text xml:space="preserve" font-family="GillSans-Italic" font-style="italic" font-size="40.0" fill="#00872A" transform="matrix(1.00, 0.00, -0.00, -1.00, 1107.3, 407.0)">d</text><text xml:space="preserve" font-family="GillSans-Italic" font-style="italic" font-size="40.0" fill="#00872A" transform="matrix(1.00, 0.00, -0.00, -1.00, 1126.1, 407.0)">a</text><text xml:space="preserve" font-family="GillSans-Italic" font-style="italic" font-size="40.0" fill="#00872A" transform="matrix(1.00, 0.00, -0.00, -1.00, 1144.9, 407.0)">y</text></g></g><g><clipPath id="clip-7643"><path d="M 1157.7 386.3 L 1206.4 386.3 L 1206.4 455.2 L 1157.7 455.2 Z M 1157.7 386.3 "></path></clipPath><g clip-path="url(#clip-7643)"><text xml:space="preserve" font-family="GillSans" font-size="40.0" fill="#000000" transform="matrix(1.00, 0.00, -0.00, -1.00, 1178.0, 407.0)">.</text></g></g><g><clipPath id="clip-7644"><path d="M 338.3 449.7 L 338.3 495.4 L 345.3 495.4 L 345.3 449.7 Z M 338.3 449.7 "></path></clipPath><g clip-path="url(#clip-7644)"><path d="M 0.0 0.0 L 43.7 0.0 " fill="none" stroke="#C82505" stroke-width="5.00" transform="matrix(0.00, 1.00, 1.00, 0.00, 341.8, 450.7)"></path></g></g><g><clipPath id="clip-7645"><path d="M 200.5 488.4 L 342.2 488.4 L 342.2 495.4 L 200.5 495.4 Z M 200.5 488.4 "></path></clipPath><g clip-path="url(#clip-7645)"><path d="M 0.0 0.0 L 139.7 0.0 " fill="none" stroke="#C82505" stroke-width="5.00" transform="matrix(1.00, 0.00, 0.00, -1.00, 201.5, 491.9)"></path></g></g><g><clipPath id="clip-7646"><path d="M 214.2 495.4 L 214.2 449.7 L 191.8 449.7 L 191.8 495.4 Z M 214.2 495.4 "></path></clipPath><g clip-path="url(#clip-7646)"><path d="M 0.0 0.0 L 28.4 0.0 L 30.9 0.0 " fill="none" stroke="#C82505" stroke-width="5.00" transform="matrix(0.00, -1.00, -1.00, 0.00, 203.0, 494.4)"></path><path d="M 192.8 471.1 L 203.0 450.7 L 213.2 471.1 L 203.0 466.0 Z M 192.8 471.1 " fill="#C82505"></path></g></g><g><clipPath id="clip-7647"><path d="M 357.1 391.0 L 357.1 345.9 L 350.1 345.9 L 350.1 391.0 Z M 357.1 391.0 "></path></clipPath><g clip-path="url(#clip-7647)"><path d="M 0.0 0.0 L 43.1 0.0 " fill="none" stroke="#DE6A10" stroke-width="5.00" transform="matrix(0.00, -1.00, -1.00, 0.00, 353.6, 390.0)"></path></g></g><g><clipPath id="clip-7648"><path d="M 491.6 345.3 L 350.6 345.3 L 350.6 352.3 L 491.6 352.3 Z M 491.6 345.3 "></path></clipPath><g clip-path="url(#clip-7648)"><path d="M 0.0 0.0 L 139.0 0.0 " fill="none" stroke="#DE6A10" stroke-width="5.00" transform="matrix(-1.00, 0.00, 0.00, 1.00, 490.6, 348.8)"></path></g></g><g><clipPath id="clip-7649"><path d="M 477.3 345.9 L 477.3 391.0 L 499.7 391.0 L 499.7 345.9 Z M 477.3 345.9 "></path></clipPath><g clip-path="url(#clip-7649)"><path d="M 0.0 0.0 L 27.8 0.0 L 30.3 0.0 " fill="none" stroke="#DE6A10" stroke-width="5.00" transform="matrix(0.00, 1.00, 1.00, 0.00, 488.5, 346.9)"></path><path d="M 498.7 369.6 L 488.5 390.0 L 478.3 369.6 L 488.5 374.7 Z M 498.7 369.6 " fill="#DE6A10"></path></g></g><g><clipPath id="clip-7650"><path d="M 350.1 449.7 L 350.1 579.7 L 357.1 579.7 L 357.1 449.7 Z M 350.1 449.7 "></path></clipPath><g clip-path="url(#clip-7650)"><path d="M 0.0 0.0 L 128.0 0.0 " fill="none" stroke="#00872A" stroke-width="5.00" transform="matrix(0.00, 1.00, 1.00, 0.00, 353.6, 450.7)"></path></g></g><g><clipPath id="clip-7651"><path d="M 1092.7 572.8 L 350.3 572.8 L 350.3 579.8 L 1092.7 579.8 Z M 1092.7 572.8 "></path></clipPath><g clip-path="url(#clip-7651)"><path d="M 0.0 0.0 L 740.4 0.0 " fill="none" stroke="#00872A" stroke-width="5.00" transform="matrix(-1.00, 0.00, 0.00, 1.00, 1091.7, 576.3)"></path></g></g><g><clipPath id="clip-7652"><path d="M 1101.6 579.7 L 1101.6 449.7 L 1079.2 449.7 L 1079.2 579.7 Z M 1101.6 579.7 "></path></clipPath><g clip-path="url(#clip-7652)"><path d="M 0.0 0.0 L 112.7 0.0 L 115.2 0.0 " fill="none" stroke="#00872A" stroke-width="5.00" transform="matrix(0.00, -1.00, -1.00, 0.00, 1090.4, 578.7)"></path><path d="M 1080.2 471.1 L 1090.4 450.7 L 1100.6 471.1 L 1090.4 466.0 Z M 1080.2 471.1 " fill="#00872A"></path></g></g><g><clipPath id="clip-7653"><path d="M 751.0 488.4 L 362.6 488.4 L 362.6 495.4 L 751.0 495.4 Z M 751.0 488.4 "></path></clipPath><g clip-path="url(#clip-7653)"><path d="M 0.0 0.0 L 386.4 0.0 " fill="none" stroke="#0264C0" stroke-width="5.00" transform="matrix(-1.00, 0.00, 0.00, 1.00, 750.0, 491.9)"></path></g></g><g><clipPath id="clip-7654"><path d="M 361.9 449.7 L 361.9 495.4 L 368.9 495.4 L 368.9 449.7 Z M 361.9 449.7 "></path></clipPath><g clip-path="url(#clip-7654)"><path d="M 0.0 0.0 L 43.7 0.0 " fill="none" stroke="#0264C0" stroke-width="5.00" transform="matrix(0.00, 1.00, 1.00, 0.00, 365.4, 450.7)"></path></g></g><g><clipPath id="clip-7655"><path d="M 760.6 495.4 L 760.6 449.7 L 738.2 449.7 L 738.2 495.4 Z M 760.6 495.4 "></path></clipPath><g clip-path="url(#clip-7655)"><path d="M 0.0 0.0 L 28.4 0.0 L 30.9 0.0 " fill="none" stroke="#0264C0" stroke-width="5.00" transform="matrix(0.00, -1.00, -1.00, 0.00, 749.4, 494.4)"></path><path d="M 739.2 471.1 L 749.4 450.7 L 759.6 471.1 L 749.4 466.0 Z M 739.2 471.1 " fill="#0264C0"></path></g></g><g><clipPath id="clip-7656"><path d="M 217.5 492.3 L 322.3 492.3 L 322.3 546.2 L 217.5 546.2 Z M 217.5 492.3 "></path></clipPath><g clip-path="url(#clip-7656)"><text xml:space="preserve" font-family="GillSans-SemiBold" font-weight="bold" font-size="30.0" fill="#C82505" transform="matrix(1.00, 0.00, -0.00, -1.00, 234.0, 509.0)">W</text><text xml:space="preserve" font-family="GillSans-SemiBold" font-weight="bold" font-size="24.0" fill="#C82505" transform="matrix(1.00, 0.00, -0.00, -1.00, 266.6, 509.0)">H</text><text xml:space="preserve" font-family="GillSans-SemiBold" font-weight="bold" font-size="24.0" fill="#C82505" transform="matrix(1.00, 0.00, -0.00, -1.00, 285.1, 509.0)">O</text></g></g><g><clipPath id="clip-7657"><path d="M 489.5 492.3 L 607.5 492.3 L 607.5 546.2 L 489.5 546.2 Z M 489.5 492.3 "></path></clipPath><g clip-path="url(#clip-7657)"><text xml:space="preserve" font-family="GillSans-SemiBold" font-weight="bold" font-size="30.0" fill="#0264C0" transform="matrix(1.00, 0.00, -0.00, -1.00, 507.0, 509.0)">W</text><text xml:space="preserve" font-family="GillSans-SemiBold" font-weight="bold" font-size="24.0" fill="#0264C0" transform="matrix(1.00, 0.00, -0.00, -1.00, 539.6, 509.0)">H</text><text xml:space="preserve" font-family="GillSans-SemiBold" font-weight="bold" font-size="24.0" fill="#0264C0" transform="matrix(1.00, 0.00, -0.00, -1.00, 558.1, 509.0)">A</text><text xml:space="preserve" font-family="GillSans-SemiBold" font-weight="bold" font-size="24.0" fill="#0264C0" transform="matrix(1.00, 0.00, -0.00, -1.00, 573.6, 509.0)">T</text></g></g><g><clipPath id="clip-7658"><path d="M 361.3 294.3 L 489.8 294.3 L 489.8 348.2 L 361.3 348.2 Z M 361.3 294.3 "></path></clipPath><g clip-path="url(#clip-7658)"><text xml:space="preserve" font-family="GillSans-SemiBold" font-weight="bold" font-size="30.0" fill="#DE6A10" transform="matrix(1.00, 0.00, -0.00, -1.00, 380.0, 311.0)">W</text><text xml:space="preserve" font-family="GillSans-SemiBold" font-weight="bold" font-size="24.0" fill="#DE6A10" transform="matrix(1.00, 0.00, -0.00, -1.00, 412.6, 311.0)">H</text><text xml:space="preserve" font-family="GillSans-SemiBold" font-weight="bold" font-size="24.0" fill="#DE6A10" transform="matrix(1.00, 0.00, -0.00, -1.00, 431.1, 311.0)">O</text><text xml:space="preserve" font-family="GillSans-SemiBold" font-weight="bold" font-size="24.0" fill="#DE6A10" transform="matrix(1.00, 0.00, -0.00, -1.00, 451.5, 311.0)">M</text></g></g><g><clipPath id="clip-7659"><path d="M 640.8 575.7 L 760.4 575.7 L 760.4 629.6 L 640.8 629.6 Z M 640.8 575.7 "></path></clipPath><g clip-path="url(#clip-7659)"><text xml:space="preserve" font-family="GillSans-SemiBold" font-weight="bold" font-size="30.0" fill="#00872A" transform="matrix(1.00, 0.00, -0.00, -1.00, 659.0, 592.0)">W</text><text xml:space="preserve" font-family="GillSans-SemiBold" font-weight="bold" font-size="24.0" fill="#00872A" transform="matrix(1.00, 0.00, -0.00, -1.00, 691.6, 592.0)">H</text><text xml:space="preserve" font-family="GillSans-SemiBold" font-weight="bold" font-size="24.0" fill="#00872A" transform="matrix(1.00, 0.00, -0.00, -1.00, 710.1, 592.0)">E</text><text xml:space="preserve" font-family="GillSans-SemiBold" font-weight="bold" font-size="24.0" fill="#00872A" transform="matrix(1.00, 0.00, -0.00, -1.00, 723.8, 592.0)">N</text></g></g></g></svg>