<?xml version="1.0" encoding="UTF-8" standalone="no"?><svg xmlns="http://www.w3.org/2000/svg" xmlns:xlink="http://www.w3.org/1999/xlink" clip-rule="evenodd" stroke-miterlimit="4.00" viewBox="0 0 1214 141"><desc>SVG generated by Keynote</desc><defs></defs><g transform="matrix(1.00, 0.00, -0.00, -1.00, 0.0, 141.0)"><text xml:space="preserve" font-family="GillSans" font-size="75.0" fill="#000000" transform="matrix(1.00, 0.00, -0.00, -1.00, -5.0, 88.0)">H</text><text xml:space="preserve" font-family="GillSans" font-size="75.0" fill="#000000" transform="matrix(1.00, 0.00, -0.00, -1.00, 49.7, 88.0)">o</text><text xml:space="preserve" font-family="GillSans" font-size="75.0" fill="#000000" transform="matrix(1.00, 0.00, -0.00, -1.00, 90.4, 88.0)">w</text><text xml:space="preserve" font-family="GillSans" font-size="75.0" fill="#000000" transform="matrix(1.00, 0.00, -0.00, -1.00, 144.3, 88.0)"> </text><text xml:space="preserve" font-family="GillSans" font-size="75.0" fill="#000000" transform="matrix(1.00, 0.00, -0.00, -1.00, 165.2, 88.0)">a</text><text xml:space="preserve" font-family="GillSans" font-size="75.0" fill="#000000" transform="matrix(1.00, 0.00, -0.00, -1.00, 197.2, 88.0)">b</text><text xml:space="preserve" font-family="GillSans" font-size="75.0" fill="#000000" transform="matrix(1.00, 0.00, -0.00, -1.00, 234.7, 88.0)">o</text><text xml:space="preserve" font-family="GillSans" font-size="75.0" fill="#000000" transform="matrix(1.00, 0.00, -0.00, -1.00, 276.1, 88.0)">u</text><text xml:space="preserve" font-family="GillSans" font-size="75.0" fill="#000000" transform="matrix(1.00, 0.00, -0.00, -1.00, 313.6, 88.0)">t</text><text xml:space="preserve" font-family="GillSans" font-size="75.0" fill="#000000" transform="matrix(1.00, 0.00, -0.00, -1.00, 338.6, 88.0)"> </text><text xml:space="preserve" font-family="GillSans" font-size="75.0" fill="#000000" transform="matrix(1.00, 0.00, -0.00, -1.00, 359.4, 88.0)">a</text><text xml:space="preserve" font-family="GillSans" font-size="75.0" fill="#000000" transform="matrix(1.00, 0.00, -0.00, -1.00, 391.4, 88.0)">t</text><text xml:space="preserve" font-family="GillSans" font-size="75.0" fill="#000000" transform="matrix(1.00, 0.00, -0.00, -1.00, 416.4, 88.0)">t</text><text xml:space="preserve" font-family="GillSans" font-size="75.0" fill="#000000" transform="matrix(1.00, 0.00, -0.00, -1.00, 441.4, 88.0)">e</text><text xml:space="preserve" font-family="GillSans" font-size="75.0" fill="#000000" transform="matrix(1.00, 0.00, -0.00, -1.00, 477.4, 88.0)">n</text><text xml:space="preserve" font-family="GillSans" font-size="75.0" fill="#000000" transform="matrix(1.00, 0.00, -0.00, -1.00, 514.9, 88.0)">t</text><text xml:space="preserve" font-family="GillSans" font-size="75.0" fill="#000000" transform="matrix(1.00, 0.00, -0.00, -1.00, 539.9, 88.0)">i</text><text xml:space="preserve" font-family="GillSans" font-size="75.0" fill="#000000" transform="matrix(1.00, 0.00, -0.00, -1.00, 556.3, 88.0)">o</text><text xml:space="preserve" font-family="GillSans" font-size="75.0" fill="#000000" transform="matrix(1.00, 0.00, -0.00, -1.00, 597.7, 88.0)">n</text><text xml:space="preserve" font-family="GillSans" font-size="75.0" fill="#000000" transform="matrix(1.00, 0.00, -0.00, -1.00, 635.3, 88.0)"> </text><text xml:space="preserve" font-family="GillSans" font-size="75.0" fill="#000000" transform="matrix(1.00, 0.00, -0.00, -1.00, 656.1, 88.0)">m</text><text xml:space="preserve" font-family="GillSans" font-size="75.0" fill="#000000" transform="matrix(1.00, 0.00, -0.00, -1.00, 713.9, 88.0)">o</text><text xml:space="preserve" font-family="GillSans" font-size="75.0" fill="#000000" transform="matrix(1.00, 0.00, -0.00, -1.00, 755.3, 88.0)">d</text><text xml:space="preserve" font-family="GillSans" font-size="75.0" fill="#000000" transform="matrix(1.00, 0.00, -0.00, -1.00, 793.6, 88.0)">e</text><text xml:space="preserve" font-family="GillSans" font-size="75.0" fill="#000000" transform="matrix(1.00, 0.00, -0.00, -1.00, 829.5, 88.0)">l</text><text xml:space="preserve" font-family="GillSans" font-size="75.0" fill="#000000" transform="matrix(1.00, 0.00, -0.00, -1.00, 846.0, 88.0)">s</text><text xml:space="preserve" font-family="GillSans" font-size="75.0" fill="#000000" transform="matrix(1.00, 0.00, -0.00, -1.00, 874.8, 88.0)"> </text><text xml:space="preserve" font-family="GillSans" font-size="75.0" fill="#000000" transform="matrix(1.00, 0.00, -0.00, -1.00, 895.7, 88.0)">w</text><text xml:space="preserve" font-family="GillSans" font-size="75.0" fill="#000000" transform="matrix(1.00, 0.00, -0.00, -1.00, 949.7, 88.0)">i</text><text xml:space="preserve" font-family="GillSans" font-size="75.0" fill="#000000" transform="matrix(1.00, 0.00, -0.00, -1.00, 966.1, 88.0)">t</text><text xml:space="preserve" font-family="GillSans" font-size="75.0" fill="#000000" transform="matrix(1.00, 0.00, -0.00, -1.00, 991.1, 88.0)">h</text><text xml:space="preserve" font-family="GillSans" font-size="75.0" fill="#000000" transform="matrix(1.00, 0.00, -0.00, -1.00, 1028.6, 88.0)"> </text><text xml:space="preserve" font-family="GillSans" font-size="75.0" fill="#000000" transform="matrix(1.00, 0.00, -0.00, -1.00, 1049.5, 88.0)">R</text><text xml:space="preserve" font-family="GillSans" font-size="75.0" fill="#000000" transform="matrix(1.00, 0.00, -0.00, -1.00, 1094.8, 88.0)">N</text><text xml:space="preserve" font-family="GillSans" font-size="75.0" fill="#000000" transform="matrix(1.00, 0.00, -0.00, -1.00, 1153.4, 88.0)">N</text><text xml:space="preserve" font-family="GillSans" font-size="75.0" fill="#000000" transform="matrix(1.00, 0.00, -0.00, -1.00, 300.0, 2.0)">e</text><text xml:space="preserve" font-family="GillSans" font-size="75.0" fill="#000000" transform="matrix(1.00, 0.00, -0.00, -1.00, 335.9, 2.0)">n</text><text xml:space="preserve" font-family="GillSans" font-size="75.0" fill="#000000" transform="matrix(1.00, 0.00, -0.00, -1.00, 373.5, 2.0)">c</text><text xml:space="preserve" font-family="GillSans" font-size="75.0" fill="#000000" transform="matrix(1.00, 0.00, -0.00, -1.00, 406.3, 2.0)">o</text><text xml:space="preserve" font-family="GillSans" font-size="75.0" fill="#000000" transform="matrix(1.00, 0.00, -0.00, -1.00, 447.7, 2.0)">d</text><text xml:space="preserve" font-family="GillSans" font-size="75.0" fill="#000000" transform="matrix(1.00, 0.00, -0.00, -1.00, 486.0, 2.0)">e</text><text xml:space="preserve" font-family="GillSans" font-size="75.0" fill="#000000" transform="matrix(1.00, 0.00, -0.00, -1.00, 521.9, 2.0)">r</text><text xml:space="preserve" font-family="GillSans" font-size="75.0" fill="#000000" transform="matrix(1.00, 0.00, -0.00, -1.00, 551.6, 2.0)">s</text><text xml:space="preserve" font-family="GillSans" font-size="75.0" fill="#000000" transform="matrix(1.00, 0.00, -0.00, -1.00, 580.5, 2.0)">/</text><text xml:space="preserve" font-family="GillSans" font-size="75.0" fill="#000000" transform="matrix(1.00, 0.00, -0.00, -1.00, 601.5, 2.0)">d</text><text xml:space="preserve" font-family="GillSans" font-size="75.0" fill="#000000" transform="matrix(1.00, 0.00, -0.00, -1.00, 639.8, 2.0)">e</text><text xml:space="preserve" font-family="GillSans" font-size="75.0" fill="#000000" transform="matrix(1.00, 0.00, -0.00, -1.00, 675.7, 2.0)">c</text><text xml:space="preserve" font-family="GillSans" font-size="75.0" fill="#000000" transform="matrix(1.00, 0.00, -0.00, -1.00, 708.6, 2.0)">o</text><text xml:space="preserve" font-family="GillSans" font-size="75.0" fill="#000000" transform="matrix(1.00, 0.00, -0.00, -1.00, 750.0, 2.0)">d</text><text xml:space="preserve" font-family="GillSans" font-size="75.0" fill="#000000" transform="matrix(1.00, 0.00, -0.00, -1.00, 788.2, 2.0)">e</text><text xml:space="preserve" font-family="GillSans" font-size="75.0" fill="#000000" transform="matrix(1.00, 0.00, -0.00, -1.00, 824.1, 2.0)">r</text><text xml:space="preserve" font-family="GillSans" font-size="75.0" fill="#000000" transform="matrix(1.00, 0.00, -0.00, -1.00, 853.9, 2.0)">s</text><text xml:space="preserve" font-family="GillSans" font-size="75.0" fill="#000000" transform="matrix(1.00, 0.00, -0.00, -1.00, 882.7, 2.0)">?</text></g></svg>