<?xml version="1.0" encoding="UTF-8" standalone="no"?><svg xmlns="http://www.w3.org/2000/svg" xmlns:xlink="http://www.w3.org/1999/xlink" clip-rule="evenodd" stroke-miterlimit="4.00" viewBox="0 0 224 182"><desc>SVG generated by Keynote</desc><defs></defs><g transform="matrix(1.00, 0.00, -0.00, -1.00, 0.0, 182.0)"><g><clipPath id="clip-6755"><path d="M 0.3 0.9 L 223.7 0.9 L 223.7 180.5 L 0.3 180.5 Z M 0.3 0.9 "></path></clipPath><g clip-path="url(#clip-6755)"><path d="M 31.5 178.0 L 192.5 178.0 C 200.7 178.0 204.9 178.0 209.3 176.6 C 214.2 174.8 218.0 171.0 219.8 166.2 C 221.2 161.7 221.2 157.6 221.2 149.2 L 221.2 32.0 C 221.2 23.8 221.2 19.6 219.8 15.2 C 218.0 10.4 214.2 6.5 209.3 4.8 C 204.9 3.4 200.7 3.4 192.4 3.4 L 31.5 3.4 C 23.3 3.4 19.1 3.4 14.7 4.8 C 9.8 6.5 6.0 10.4 4.2 15.2 C 2.8 19.6 2.8 23.8 2.8 32.2 L 2.8 149.3 C 2.8 157.6 2.8 161.7 4.2 166.2 C 6.0 171.0 9.8 174.8 14.7 176.6 C 19.1 178.0 23.3 178.0 31.6 178.0 Z M 31.5 178.0 " fill="#AE3420"></path><path d="M 28.7 0.0 L 189.7 0.0 C 197.9 0.0 202.1 0.0 206.5 1.4 C 211.3 3.2 215.2 7.0 216.9 11.8 C 218.3 16.3 218.3 20.5 218.3 28.8 L 218.3 146.0 C 218.3 154.2 218.3 158.4 216.9 162.8 C 215.2 167.7 211.3 171.5 206.5 173.3 C 202.1 174.7 197.9 174.7 189.5 174.7 L 28.7 174.7 C 20.5 174.7 16.3 174.7 11.8 173.3 C 7.0 171.5 3.2 167.7 1.4 162.8 C 0.0 158.4 0.0 154.2 0.0 145.9 L 0.0 28.7 C 0.0 20.5 0.0 16.3 1.4 11.8 C 3.2 7.0 7.0 3.2 11.8 1.4 C 16.3 0.0 20.5 0.0 28.8 0.0 Z M 28.7 0.0 " fill="none" stroke="#AE3420" stroke-width="3.00" transform="matrix(1.00, 0.00, 0.00, -1.00, 2.8, 178.0)"></path></g></g><g><clipPath id="clip-6756"><path d="M 0.3 80.7 L 223.7 80.7 L 223.7 181.3 L 0.3 181.3 Z M 0.3 80.7 "></path></clipPath><g clip-path="url(#clip-6756)"><path d="M 31.5 178.8 L 192.5 178.8 C 200.7 178.8 204.9 178.8 209.3 177.4 C 214.2 175.6 218.0 171.8 219.7 166.9 C 221.2 162.5 221.2 158.3 221.2 149.9 L 221.2 111.9 C 221.2 103.6 221.2 99.4 219.7 95.0 C 218.0 90.2 214.2 86.3 209.3 84.6 C 204.9 83.2 200.7 83.2 192.3 83.2 L 31.5 83.2 C 23.3 83.2 19.1 83.2 14.7 84.6 C 9.8 86.3 6.0 90.2 4.2 95.0 C 2.8 99.4 2.8 103.6 2.8 112.0 L 2.8 150.1 C 2.8 158.3 2.8 162.5 4.2 166.9 C 6.0 171.8 9.8 175.6 14.7 177.4 C 19.1 178.8 23.3 178.8 31.6 178.8 Z M 31.5 178.8 " fill="#FEFFFF"></path><path d="M 28.7 0.0 L 189.6 0.0 C 197.9 0.0 202.0 0.0 206.5 1.4 C 211.3 3.2 215.2 7.0 216.9 11.9 C 218.3 16.3 218.3 20.5 218.3 28.8 L 218.3 66.9 C 218.3 75.1 218.3 79.3 216.9 83.8 C 215.2 88.6 211.3 92.4 206.5 94.2 C 202.0 95.6 197.9 95.6 189.5 95.6 L 28.7 95.6 C 20.5 95.6 16.3 95.6 11.9 94.2 C 7.0 92.4 3.2 88.6 1.4 83.8 C 0.0 79.3 0.0 75.1 0.0 66.8 L 0.0 28.7 C 0.0 20.5 0.0 16.3 1.4 11.9 C 3.2 7.0 7.0 3.2 11.9 1.4 C 16.3 0.0 20.5 0.0 28.8 0.0 Z M 28.7 0.0 " fill="none" stroke="#AE3420" stroke-width="3.00" transform="matrix(1.00, 0.00, 0.00, -1.00, 2.8, 178.8)"></path></g></g><g><clipPath id="clip-6757"><path d="M 14.4 -7.1 L 213.7 -7.1 L 213.7 92.8 L 14.4 92.8 Z M 14.4 -7.1 "></path></clipPath><g clip-path="url(#clip-6757)"><text xml:space="preserve" font-family="GillSans-Italic" font-style="italic" font-size="35.0" fill="#FEFFFF" transform="matrix(1.00, 0.00, -0.00, -1.00, 27.0, 51.0)">r</text><text xml:space="preserve" font-family="GillSans-Italic" font-style="italic" font-size="35.0" fill="#FEFFFF" transform="matrix(1.00, 0.00, -0.00, -1.00, 37.3, 51.0)">o</text><text xml:space="preserve" font-family="GillSans-Italic" font-style="italic" font-size="35.0" fill="#FEFFFF" transform="matrix(1.00, 0.00, -0.00, -1.00, 53.0, 51.0)">l</text><text xml:space="preserve" font-family="GillSans-Italic" font-style="italic" font-size="35.0" fill="#FEFFFF" transform="matrix(1.00, 0.00, -0.00, -1.00, 59.5, 51.0)">e</text><text xml:space="preserve" font-family="GillSans-Italic" font-style="italic" font-size="35.0" fill="#FEFFFF" transform="matrix(1.00, 0.00, -0.00, -1.00, 74.9, 51.0)"> </text><text xml:space="preserve" font-family="GillSans-Italic" font-style="italic" font-size="35.0" fill="#FEFFFF" transform="matrix(1.00, 0.00, -0.00, -1.00, 84.6, 51.0)">c</text><text xml:space="preserve" font-family="GillSans-Italic" font-style="italic" font-size="35.0" fill="#FEFFFF" transform="matrix(1.00, 0.00, -0.00, -1.00, 98.7, 51.0)">l</text><text xml:space="preserve" font-family="GillSans-Italic" font-style="italic" font-size="35.0" fill="#FEFFFF" transform="matrix(1.00, 0.00, -0.00, -1.00, 105.3, 51.0)">a</text><text xml:space="preserve" font-family="GillSans-Italic" font-style="italic" font-size="35.0" fill="#FEFFFF" transform="matrix(1.00, 0.00, -0.00, -1.00, 121.7, 51.0)">s</text><text xml:space="preserve" font-family="GillSans-Italic" font-style="italic" font-size="35.0" fill="#FEFFFF" transform="matrix(1.00, 0.00, -0.00, -1.00, 134.1, 51.0)">s</text><text xml:space="preserve" font-family="GillSans-Italic" font-style="italic" font-size="35.0" fill="#FEFFFF" transform="matrix(1.00, 0.00, -0.00, -1.00, 146.5, 51.0)">i</text><text xml:space="preserve" font-family="GillSans-Italic" font-style="italic" font-size="35.0" fill="#FEFFFF" transform="matrix(1.00, 0.00, -0.00, -1.00, 153.1, 51.0)">ï¬</text><text xml:space="preserve" font-family="GillSans-Italic" font-style="italic" font-size="35.0" fill="#FEFFFF" transform="matrix(1.00, 0.00, -0.00, -1.00, 169.9, 51.0)">e</text><text xml:space="preserve" font-family="GillSans-Italic" font-style="italic" font-size="35.0" fill="#FEFFFF" transform="matrix(1.00, 0.00, -0.00, -1.00, 185.2, 51.0)">r</text></g></g><g><clipPath id="clip-6758"><path d="M 14.4 4.9 L 213.7 4.9 L 213.7 82.9 L 14.4 82.9 Z M 14.4 4.9 "></path></clipPath><g clip-path="url(#clip-6758)"><text xml:space="preserve" font-family="GillSans-Italic" font-style="italic" font-size="35.0" fill="#FEFFFF" transform="matrix(1.00, 0.00, -0.00, -1.00, 78.0, 11.0)">s</text><text xml:space="preserve" font-family="GillSans-Italic" font-style="italic" font-size="35.0" fill="#FEFFFF" transform="matrix(1.00, 0.00, -0.00, -1.00, 90.4, 11.0)">c</text><text xml:space="preserve" font-family="GillSans-Italic" font-style="italic" font-size="35.0" fill="#FEFFFF" transform="matrix(1.00, 0.00, -0.00, -1.00, 103.8, 11.0)">o</text><text xml:space="preserve" font-family="GillSans-Italic" font-style="italic" font-size="35.0" fill="#FEFFFF" transform="matrix(1.00, 0.00, -0.00, -1.00, 119.5, 11.0)">r</text><text xml:space="preserve" font-family="GillSans-Italic" font-style="italic" font-size="35.0" fill="#FEFFFF" transform="matrix(1.00, 0.00, -0.00, -1.00, 130.2, 11.0)">e</text></g></g></g></svg>