<?xml version="1.0" encoding="UTF-8" standalone="no"?><svg xmlns="http://www.w3.org/2000/svg" xmlns:xlink="http://www.w3.org/1999/xlink" clip-rule="evenodd" stroke-miterlimit="4.00" viewBox="0 0 657 167"><desc>SVG generated by Keynote</desc><defs></defs><g transform="matrix(1.00, 0.00, -0.00, -1.00, 0.0, 167.0)"><g><clipPath id="clip-7127"><path d="M 24.8 8.8 L 632.9 8.8 L 632.9 166.8 L 24.8 166.8 Z M 24.8 8.8 "></path></clipPath><g clip-path="url(#clip-7127)"><path d="M 45.8 164.3 L 611.9 164.3 C 617.2 164.3 619.9 164.3 622.7 163.4 C 625.9 162.3 628.3 159.8 629.5 156.7 C 630.4 153.8 630.4 151.1 630.4 145.7 L 630.4 29.8 C 630.4 24.5 630.4 21.8 629.5 19.0 C 628.3 15.8 625.9 13.4 622.7 12.2 C 619.9 11.3 617.2 11.3 611.8 11.3 L 45.8 11.3 C 40.5 11.3 37.8 11.3 34.9 12.2 C 31.8 13.4 29.3 15.8 28.2 19.0 C 27.3 21.8 27.3 24.5 27.3 29.9 L 27.3 145.8 C 27.3 151.1 27.3 153.8 28.2 156.7 C 29.3 159.8 31.8 162.3 34.9 163.4 C 37.8 164.3 40.5 164.3 45.9 164.3 Z M 45.8 164.3 " fill="#207592"></path><path d="M 18.5 0.0 L 584.6 0.0 C 589.9 0.0 592.6 0.0 595.5 0.9 C 598.6 2.0 601.1 4.5 602.2 7.6 C 603.1 10.5 603.1 13.2 603.1 18.6 L 603.1 134.5 C 603.1 139.8 603.1 142.5 602.2 145.4 C 601.1 148.5 598.6 151.0 595.5 152.1 C 592.6 153.0 589.9 153.0 584.5 153.0 L 18.5 153.0 C 13.2 153.0 10.5 153.0 7.6 152.1 C 4.5 151.0 2.0 148.5 0.9 145.4 C 0.0 142.5 0.0 139.8 0.0 134.4 L 0.0 18.5 C 0.0 13.2 0.0 10.5 0.9 7.6 C 2.0 4.5 4.5 2.0 7.6 0.9 C 10.5 0.0 13.2 0.0 18.6 0.0 Z M 18.5 0.0 " fill="none" stroke="#207592" stroke-width="3.00" transform="matrix(1.00, 0.00, 0.00, -1.00, 27.3, 164.3)"></path></g></g><g><clipPath id="clip-7128"><path d="M 0.8 0.6 L 656.8 0.6 L 656.8 124.0 L 0.8 124.0 Z M 0.8 0.6 "></path></clipPath><g clip-path="url(#clip-7128)"><path d="M 22.3 121.5 L 635.3 121.5 C 640.8 121.5 643.5 121.5 646.5 120.5 C 649.7 119.4 652.2 116.8 653.4 113.6 C 654.3 110.7 654.3 107.9 654.3 102.3 L 654.3 22.2 C 654.3 16.7 654.3 13.9 653.4 11.0 C 652.2 7.8 649.7 5.2 646.5 4.1 C 643.5 3.1 640.8 3.1 635.2 3.1 L 22.3 3.1 C 16.9 3.1 14.1 3.1 11.2 4.1 C 7.9 5.2 5.4 7.8 4.2 11.0 C 3.3 13.9 3.3 16.7 3.3 22.3 L 3.3 102.4 C 3.3 107.9 3.3 110.7 4.2 113.6 C 5.4 116.8 7.9 119.4 11.2 120.5 C 14.1 121.5 16.9 121.5 22.4 121.5 Z M 22.3 121.5 " fill="#FEFFFF"></path><path d="M 19.0 0.0 L 632.0 0.0 C 637.5 0.0 640.2 0.0 643.2 0.9 C 646.4 2.1 648.9 4.6 650.1 7.9 C 651.0 10.8 651.0 13.6 651.0 19.1 L 651.0 99.3 C 651.0 104.7 651.0 107.5 650.1 110.5 C 648.9 113.7 646.4 116.2 643.2 117.4 C 640.2 118.3 637.5 118.3 631.9 118.3 L 19.0 118.3 C 13.6 118.3 10.8 118.3 7.9 117.4 C 4.6 116.2 2.1 113.7 0.9 110.5 C 0.0 107.5 0.0 104.7 0.0 99.2 L 0.0 19.0 C 0.0 13.6 0.0 10.8 0.9 7.9 C 2.1 4.6 4.6 2.1 7.9 0.9 C 10.8 0.0 13.6 0.0 19.1 0.0 Z M 19.0 0.0 " fill="none" stroke="#1F728F" stroke-width="3.00" transform="matrix(1.00, 0.00, 0.00, -1.00, 3.3, 121.5)"></path></g></g><g><clipPath id="clip-7129"><path d="M 28.6 118.7 L 629.1 118.7 L 629.1 169.8 L 28.6 169.8 Z M 28.6 118.7 "></path></clipPath><g clip-path="url(#clip-7129)"><text xml:space="preserve" font-family="GillSans-Italic" font-style="italic" font-size="30.0" fill="#FEFFFF" transform="matrix(1.00, 0.00, -0.00, -1.00, 38.0, 134.0)">a</text><text xml:space="preserve" font-family="GillSans-Italic" font-style="italic" font-size="30.0" fill="#FEFFFF" transform="matrix(1.00, 0.00, -0.00, -1.00, 52.1, 134.0)">v</text><text xml:space="preserve" font-family="GillSans-Italic" font-style="italic" font-size="30.0" fill="#FEFFFF" transform="matrix(1.00, 0.00, -0.00, -1.00, 63.3, 134.0)">e</text><text xml:space="preserve" font-family="GillSans-Italic" font-style="italic" font-size="30.0" fill="#FEFFFF" transform="matrix(1.00, 0.00, -0.00, -1.00, 76.5, 134.0)">r</text><text xml:space="preserve" font-family="GillSans-Italic" font-style="italic" font-size="30.0" fill="#FEFFFF" transform="matrix(1.00, 0.00, -0.00, -1.00, 85.3, 134.0)">a</text><text xml:space="preserve" font-family="GillSans-Italic" font-style="italic" font-size="30.0" fill="#FEFFFF" transform="matrix(1.00, 0.00, -0.00, -1.00, 99.3, 134.0)">g</text><text xml:space="preserve" font-family="GillSans-Italic" font-style="italic" font-size="30.0" fill="#FEFFFF" transform="matrix(1.00, 0.00, -0.00, -1.00, 111.7, 134.0)">e</text><text xml:space="preserve" font-family="GillSans-Italic" font-style="italic" font-size="30.0" fill="#FEFFFF" transform="matrix(1.00, 0.00, -0.00, -1.00, 124.8, 134.0)"> </text><text xml:space="preserve" font-family="GillSans-Italic" font-style="italic" font-size="30.0" fill="#FEFFFF" transform="matrix(1.00, 0.00, -0.00, -1.00, 133.2, 134.0)">s</text><text xml:space="preserve" font-family="GillSans-Italic" font-style="italic" font-size="30.0" fill="#FEFFFF" transform="matrix(1.00, 0.00, -0.00, -1.00, 143.8, 134.0)">i</text><text xml:space="preserve" font-family="GillSans-Italic" font-style="italic" font-size="30.0" fill="#FEFFFF" transform="matrix(1.00, 0.00, -0.00, -1.00, 149.4, 134.0)">m</text><text xml:space="preserve" font-family="GillSans-Italic" font-style="italic" font-size="30.0" fill="#FEFFFF" transform="matrix(1.00, 0.00, -0.00, -1.00, 171.6, 134.0)">i</text><text xml:space="preserve" font-family="GillSans-Italic" font-style="italic" font-size="30.0" fill="#FEFFFF" transform="matrix(1.00, 0.00, -0.00, -1.00, 177.3, 134.0)">l</text><text xml:space="preserve" font-family="GillSans-Italic" font-style="italic" font-size="30.0" fill="#FEFFFF" transform="matrix(1.00, 0.00, -0.00, -1.00, 182.9, 134.0)">a</text><text xml:space="preserve" font-family="GillSans-Italic" font-style="italic" font-size="30.0" fill="#FEFFFF" transform="matrix(1.00, 0.00, -0.00, -1.00, 197.0, 134.0)">r</text><text xml:space="preserve" font-family="GillSans-Italic" font-style="italic" font-size="30.0" fill="#FEFFFF" transform="matrix(1.00, 0.00, -0.00, -1.00, 207.0, 134.0)">i</text><text xml:space="preserve" font-family="GillSans-Italic" font-style="italic" font-size="30.0" fill="#FEFFFF" transform="matrix(1.00, 0.00, -0.00, -1.00, 212.6, 134.0)">t</text><text xml:space="preserve" font-family="GillSans-Italic" font-style="italic" font-size="30.0" fill="#FEFFFF" transform="matrix(1.00, 0.00, -0.00, -1.00, 221.0, 134.0)">y</text><text xml:space="preserve" font-family="GillSans-Italic" font-style="italic" font-size="30.0" fill="#FEFFFF" transform="matrix(1.00, 0.00, -0.00, -1.00, 232.3, 134.0)"> </text><text xml:space="preserve" font-family="GillSans-Italic" font-style="italic" font-size="30.0" fill="#FEFFFF" transform="matrix(1.00, 0.00, -0.00, -1.00, 240.6, 134.0)">o</text><text xml:space="preserve" font-family="GillSans-Italic" font-style="italic" font-size="30.0" fill="#FEFFFF" transform="matrix(1.00, 0.00, -0.00, -1.00, 254.1, 134.0)">f</text><text xml:space="preserve" font-family="GillSans-Italic" font-style="italic" font-size="30.0" fill="#FEFFFF" transform="matrix(1.00, 0.00, -0.00, -1.00, 262.2, 134.0)"> </text><text xml:space="preserve" font-family="GillSans-Italic" font-style="italic" font-size="30.0" fill="#FEFFFF" transform="matrix(1.00, 0.00, -0.00, -1.00, 270.5, 134.0)">o</text><text xml:space="preserve" font-family="GillSans-Italic" font-style="italic" font-size="30.0" fill="#FEFFFF" transform="matrix(1.00, 0.00, -0.00, -1.00, 284.0, 134.0)">t</text><text xml:space="preserve" font-family="GillSans-Italic" font-style="italic" font-size="30.0" fill="#FEFFFF" transform="matrix(1.00, 0.00, -0.00, -1.00, 292.4, 134.0)">h</text><text xml:space="preserve" font-family="GillSans-Italic" font-style="italic" font-size="30.0" fill="#FEFFFF" transform="matrix(1.00, 0.00, -0.00, -1.00, 306.5, 134.0)">e</text><text xml:space="preserve" font-family="GillSans-Italic" font-style="italic" font-size="30.0" fill="#FEFFFF" transform="matrix(1.00, 0.00, -0.00, -1.00, 319.6, 134.0)">r</text><text xml:space="preserve" font-family="GillSans-Italic" font-style="italic" font-size="30.0" fill="#FEFFFF" transform="matrix(1.00, 0.00, -0.00, -1.00, 329.0, 134.0)"> </text><text xml:space="preserve" font-family="GillSans-Italic" font-style="italic" font-size="30.0" fill="#FEFFFF" transform="matrix(1.00, 0.00, -0.00, -1.00, 337.3, 134.0)">s</text><text xml:space="preserve" font-family="GillSans-Italic" font-style="italic" font-size="30.0" fill="#FEFFFF" transform="matrix(1.00, 0.00, -0.00, -1.00, 348.0, 134.0)">p</text><text xml:space="preserve" font-family="GillSans-Italic" font-style="italic" font-size="30.0" fill="#FEFFFF" transform="matrix(1.00, 0.00, -0.00, -1.00, 362.7, 134.0)">a</text><text xml:space="preserve" font-family="GillSans-Italic" font-style="italic" font-size="30.0" fill="#FEFFFF" transform="matrix(1.00, 0.00, -0.00, -1.00, 376.8, 134.0)">n</text><text xml:space="preserve" font-family="GillSans-Italic" font-style="italic" font-size="30.0" fill="#FEFFFF" transform="matrix(1.00, 0.00, -0.00, -1.00, 390.8, 134.0)">s</text><text xml:space="preserve" font-family="GillSans-Italic" font-style="italic" font-size="30.0" fill="#FEFFFF" transform="matrix(1.00, 0.00, -0.00, -1.00, 401.5, 134.0)"> </text><text xml:space="preserve" font-family="GillSans-Italic" font-style="italic" font-size="30.0" fill="#FEFFFF" transform="matrix(1.00, 0.00, -0.00, -1.00, 409.8, 134.0)">w</text><text xml:space="preserve" font-family="GillSans-Italic" font-style="italic" font-size="30.0" fill="#FEFFFF" transform="matrix(1.00, 0.00, -0.00, -1.00, 428.3, 134.0)">/</text><text xml:space="preserve" font-family="GillSans-Italic" font-style="italic" font-size="30.0" fill="#FEFFFF" transform="matrix(1.00, 0.00, -0.00, -1.00, 436.7, 134.0)"> </text><text xml:space="preserve" font-family="GillSans-Italic" font-style="italic" font-size="30.0" fill="#FEFFFF" transform="matrix(1.00, 0.00, -0.00, -1.00, 445.0, 134.0)">t</text><text xml:space="preserve" font-family="GillSans-Italic" font-style="italic" font-size="30.0" fill="#FEFFFF" transform="matrix(1.00, 0.00, -0.00, -1.00, 453.4, 134.0)">h</text><text xml:space="preserve" font-family="GillSans-Italic" font-style="italic" font-size="30.0" fill="#FEFFFF" transform="matrix(1.00, 0.00, -0.00, -1.00, 467.5, 134.0)">e</text><text xml:space="preserve" font-family="GillSans-Italic" font-style="italic" font-size="30.0" fill="#FEFFFF" transform="matrix(1.00, 0.00, -0.00, -1.00, 480.6, 134.0)"> </text><text xml:space="preserve" font-family="GillSans-Italic" font-style="italic" font-size="30.0" fill="#FEFFFF" transform="matrix(1.00, 0.00, -0.00, -1.00, 489.0, 134.0)">s</text><text xml:space="preserve" font-family="GillSans-Italic" font-style="italic" font-size="30.0" fill="#FEFFFF" transform="matrix(1.00, 0.00, -0.00, -1.00, 499.6, 134.0)">a</text><text xml:space="preserve" font-family="GillSans-Italic" font-style="italic" font-size="30.0" fill="#FEFFFF" transform="matrix(1.00, 0.00, -0.00, -1.00, 513.7, 134.0)">m</text><text xml:space="preserve" font-family="GillSans-Italic" font-style="italic" font-size="30.0" fill="#FEFFFF" transform="matrix(1.00, 0.00, -0.00, -1.00, 535.9, 134.0)">e</text><text xml:space="preserve" font-family="GillSans-Italic" font-style="italic" font-size="30.0" fill="#FEFFFF" transform="matrix(1.00, 0.00, -0.00, -1.00, 549.0, 134.0)"> </text><text xml:space="preserve" font-family="GillSans-Italic" font-style="italic" font-size="30.0" fill="#FEFFFF" transform="matrix(1.00, 0.00, -0.00, -1.00, 557.3, 134.0)">r</text><text xml:space="preserve" font-family="GillSans-Italic" font-style="italic" font-size="30.0" fill="#FEFFFF" transform="matrix(1.00, 0.00, -0.00, -1.00, 566.1, 134.0)">o</text><text xml:space="preserve" font-family="GillSans-Italic" font-style="italic" font-size="30.0" fill="#FEFFFF" transform="matrix(1.00, 0.00, -0.00, -1.00, 579.6, 134.0)">l</text><text xml:space="preserve" font-family="GillSans-Italic" font-style="italic" font-size="30.0" fill="#FEFFFF" transform="matrix(1.00, 0.00, -0.00, -1.00, 585.2, 134.0)">e</text><text xml:space="preserve" font-family="GillSans-Italic" font-style="italic" font-size="30.0" fill="#FEFFFF" transform="matrix(1.00, 0.00, -0.00, -1.00, 598.4, 134.0)"> </text><text xml:space="preserve" font-family="GillSans-Italic" font-style="italic" font-size="30.0" fill="#FEFFFF" transform="matrix(1.00, 0.00, -0.00, -1.00, 606.7, 134.0)">k</text></g></g></g></svg>