<?xml version="1.0" encoding="UTF-8" standalone="no"?><svg xmlns="http://www.w3.org/2000/svg" xmlns:xlink="http://www.w3.org/1999/xlink" clip-rule="evenodd" stroke-miterlimit="4.00" viewBox="0 0 657 177"><desc>SVG generated by Keynote</desc><defs></defs><g transform="matrix(1.00, 0.00, -0.00, -1.00, 0.0, 177.0)"><g><clipPath id="clip-7133"><path d="M 32.1 0.1 L 625.5 0.1 L 625.5 158.1 L 32.1 158.1 Z M 32.1 0.1 "></path></clipPath><g clip-path="url(#clip-7133)"><path d="M 54.2 155.6 L 603.5 155.6 C 609.1 155.6 611.9 155.6 615.0 154.6 C 618.3 153.4 620.9 150.8 622.1 147.5 C 623.0 144.5 623.0 141.7 623.0 136.0 L 623.0 22.2 C 623.0 16.6 623.0 13.7 622.1 10.7 C 620.9 7.4 618.3 4.8 615.0 3.6 C 611.9 2.6 609.1 2.6 603.4 2.6 L 54.2 2.6 C 48.6 2.6 45.7 2.6 42.7 3.6 C 39.4 4.8 36.8 7.4 35.6 10.7 C 34.6 13.7 34.6 16.6 34.6 22.3 L 34.6 136.0 C 34.6 141.7 34.6 144.5 35.6 147.5 C 36.8 150.8 39.4 153.4 42.7 154.6 C 45.7 155.6 48.6 155.6 54.2 155.6 Z M 54.2 155.6 " fill="#207592"></path><path d="M 19.6 0.0 L 568.9 0.0 C 574.5 0.0 577.3 0.0 580.4 1.0 C 583.7 2.2 586.3 4.8 587.5 8.1 C 588.4 11.1 588.4 14.0 588.4 19.7 L 588.4 133.4 C 588.4 139.0 588.4 141.9 587.5 144.9 C 586.3 148.2 583.7 150.8 580.4 152.0 C 577.3 153.0 574.5 153.0 568.8 153.0 L 19.6 153.0 C 14.0 153.0 11.1 153.0 8.1 152.0 C 4.8 150.8 2.2 148.2 1.0 144.9 C 0.0 141.9 0.0 139.0 0.0 133.3 L 0.0 19.6 C 0.0 14.0 0.0 11.1 1.0 8.1 C 2.2 4.8 4.8 2.2 8.1 1.0 C 11.1 0.0 14.0 0.0 19.7 0.0 Z M 19.6 0.0 " fill="none" stroke="#207592" stroke-width="3.00" transform="matrix(1.00, 0.00, 0.00, -1.00, 34.6, 155.6)"></path></g></g><g><clipPath id="clip-7134"><path d="M 0.8 41.2 L 656.8 41.2 L 656.8 176.2 L 0.8 176.2 Z M 0.8 41.2 "></path></clipPath><g clip-path="url(#clip-7134)"><path d="M 19.9 173.7 L 637.7 173.7 C 642.5 173.7 644.9 173.7 647.5 172.9 C 650.3 171.9 652.5 169.7 653.5 166.9 C 654.3 164.3 654.3 161.9 654.3 157.0 L 654.3 60.4 C 654.3 55.6 654.3 53.2 653.5 50.6 C 652.5 47.8 650.3 45.6 647.5 44.5 C 644.9 43.7 642.5 43.7 637.6 43.7 L 19.9 43.7 C 15.2 43.7 12.7 43.7 10.2 44.5 C 7.4 45.6 5.1 47.8 4.1 50.6 C 3.3 53.2 3.3 55.6 3.3 60.4 L 3.3 157.1 C 3.3 161.9 3.3 164.3 4.1 166.9 C 5.1 169.7 7.4 171.9 10.2 172.9 C 12.7 173.7 15.2 173.7 20.0 173.7 Z M 19.9 173.7 " fill="#FEFFFF"></path><path d="M 16.6 0.0 L 634.4 0.0 C 639.2 0.0 641.6 0.0 644.2 0.8 C 647.0 1.8 649.2 4.1 650.2 6.9 C 651.0 9.4 651.0 11.9 651.0 16.7 L 651.0 113.4 C 651.0 118.2 651.0 120.6 650.2 123.1 C 649.2 126.0 647.0 128.2 644.2 129.2 C 641.6 130.0 639.2 130.0 634.3 130.0 L 16.6 130.0 C 11.9 130.0 9.4 130.0 6.9 129.2 C 4.1 128.2 1.8 126.0 0.8 123.1 C 0.0 120.6 0.0 118.2 0.0 113.3 L 0.0 16.6 C 0.0 11.9 0.0 9.4 0.8 6.9 C 1.8 4.1 4.1 1.8 6.9 0.8 C 9.4 0.0 11.9 0.0 16.7 0.0 Z M 16.6 0.0 " fill="none" stroke="#1F728F" stroke-width="3.00" transform="matrix(1.00, 0.00, 0.00, -1.00, 3.3, 173.7)"></path></g></g><g><clipPath id="clip-7135"><path d="M 68.2 -1.7 L 589.4 -1.7 L 589.4 51.9 L 68.2 51.9 Z M 68.2 -1.7 "></path></clipPath><g clip-path="url(#clip-7135)"><text xml:space="preserve" font-family="GillSans-Italic" font-style="italic" font-size="30.0" fill="#FEFFFF" transform="matrix(1.00, 0.00, -0.00, -1.00, 78.0, 14.0)">a</text><text xml:space="preserve" font-family="GillSans-Italic" font-style="italic" font-size="30.0" fill="#FEFFFF" transform="matrix(1.00, 0.00, -0.00, -1.00, 92.1, 14.0)">v</text><text xml:space="preserve" font-family="GillSans-Italic" font-style="italic" font-size="30.0" fill="#FEFFFF" transform="matrix(1.00, 0.00, -0.00, -1.00, 103.3, 14.0)">e</text><text xml:space="preserve" font-family="GillSans-Italic" font-style="italic" font-size="30.0" fill="#FEFFFF" transform="matrix(1.00, 0.00, -0.00, -1.00, 116.5, 14.0)">r</text><text xml:space="preserve" font-family="GillSans-Italic" font-style="italic" font-size="30.0" fill="#FEFFFF" transform="matrix(1.00, 0.00, -0.00, -1.00, 125.3, 14.0)">a</text><text xml:space="preserve" font-family="GillSans-Italic" font-style="italic" font-size="30.0" fill="#FEFFFF" transform="matrix(1.00, 0.00, -0.00, -1.00, 139.3, 14.0)">g</text><text xml:space="preserve" font-family="GillSans-Italic" font-style="italic" font-size="30.0" fill="#FEFFFF" transform="matrix(1.00, 0.00, -0.00, -1.00, 151.7, 14.0)">e</text><text xml:space="preserve" font-family="GillSans-Italic" font-style="italic" font-size="30.0" fill="#FEFFFF" transform="matrix(1.00, 0.00, -0.00, -1.00, 164.8, 14.0)"> </text><text xml:space="preserve" font-family="GillSans-Italic" font-style="italic" font-size="30.0" fill="#FEFFFF" transform="matrix(1.00, 0.00, -0.00, -1.00, 173.2, 14.0)">s</text><text xml:space="preserve" font-family="GillSans-Italic" font-style="italic" font-size="30.0" fill="#FEFFFF" transform="matrix(1.00, 0.00, -0.00, -1.00, 183.8, 14.0)">i</text><text xml:space="preserve" font-family="GillSans-Italic" font-style="italic" font-size="30.0" fill="#FEFFFF" transform="matrix(1.00, 0.00, -0.00, -1.00, 189.4, 14.0)">m</text><text xml:space="preserve" font-family="GillSans-Italic" font-style="italic" font-size="30.0" fill="#FEFFFF" transform="matrix(1.00, 0.00, -0.00, -1.00, 211.6, 14.0)">i</text><text xml:space="preserve" font-family="GillSans-Italic" font-style="italic" font-size="30.0" fill="#FEFFFF" transform="matrix(1.00, 0.00, -0.00, -1.00, 217.3, 14.0)">l</text><text xml:space="preserve" font-family="GillSans-Italic" font-style="italic" font-size="30.0" fill="#FEFFFF" transform="matrix(1.00, 0.00, -0.00, -1.00, 222.9, 14.0)">a</text><text xml:space="preserve" font-family="GillSans-Italic" font-style="italic" font-size="30.0" fill="#FEFFFF" transform="matrix(1.00, 0.00, -0.00, -1.00, 237.0, 14.0)">r</text><text xml:space="preserve" font-family="GillSans-Italic" font-style="italic" font-size="30.0" fill="#FEFFFF" transform="matrix(1.00, 0.00, -0.00, -1.00, 247.0, 14.0)">i</text><text xml:space="preserve" font-family="GillSans-Italic" font-style="italic" font-size="30.0" fill="#FEFFFF" transform="matrix(1.00, 0.00, -0.00, -1.00, 252.6, 14.0)">t</text><text xml:space="preserve" font-family="GillSans-Italic" font-style="italic" font-size="30.0" fill="#FEFFFF" transform="matrix(1.00, 0.00, -0.00, -1.00, 261.0, 14.0)">y</text><text xml:space="preserve" font-family="GillSans-Italic" font-style="italic" font-size="30.0" fill="#FEFFFF" transform="matrix(1.00, 0.00, -0.00, -1.00, 272.3, 14.0)"> </text><text xml:space="preserve" font-family="GillSans-Italic" font-style="italic" font-size="30.0" fill="#FEFFFF" transform="matrix(1.00, 0.00, -0.00, -1.00, 280.6, 14.0)">o</text><text xml:space="preserve" font-family="GillSans-Italic" font-style="italic" font-size="30.0" fill="#FEFFFF" transform="matrix(1.00, 0.00, -0.00, -1.00, 294.1, 14.0)">f</text><text xml:space="preserve" font-family="GillSans-Italic" font-style="italic" font-size="30.0" fill="#FEFFFF" transform="matrix(1.00, 0.00, -0.00, -1.00, 302.2, 14.0)"> </text><text xml:space="preserve" font-family="GillSans-Italic" font-style="italic" font-size="30.0" fill="#FEFFFF" transform="matrix(1.00, 0.00, -0.00, -1.00, 310.5, 14.0)">o</text><text xml:space="preserve" font-family="GillSans-Italic" font-style="italic" font-size="30.0" fill="#FEFFFF" transform="matrix(1.00, 0.00, -0.00, -1.00, 324.0, 14.0)">t</text><text xml:space="preserve" font-family="GillSans-Italic" font-style="italic" font-size="30.0" fill="#FEFFFF" transform="matrix(1.00, 0.00, -0.00, -1.00, 332.4, 14.0)">h</text><text xml:space="preserve" font-family="GillSans-Italic" font-style="italic" font-size="30.0" fill="#FEFFFF" transform="matrix(1.00, 0.00, -0.00, -1.00, 346.5, 14.0)">e</text><text xml:space="preserve" font-family="GillSans-Italic" font-style="italic" font-size="30.0" fill="#FEFFFF" transform="matrix(1.00, 0.00, -0.00, -1.00, 359.6, 14.0)">r</text><text xml:space="preserve" font-family="GillSans-Italic" font-style="italic" font-size="30.0" fill="#FEFFFF" transform="matrix(1.00, 0.00, -0.00, -1.00, 369.0, 14.0)"> </text><text xml:space="preserve" font-family="GillSans-Italic" font-style="italic" font-size="30.0" fill="#FEFFFF" transform="matrix(1.00, 0.00, -0.00, -1.00, 377.3, 14.0)">s</text><text xml:space="preserve" font-family="GillSans-Italic" font-style="italic" font-size="30.0" fill="#FEFFFF" transform="matrix(1.00, 0.00, -0.00, -1.00, 388.0, 14.0)">p</text><text xml:space="preserve" font-family="GillSans-Italic" font-style="italic" font-size="30.0" fill="#FEFFFF" transform="matrix(1.00, 0.00, -0.00, -1.00, 402.7, 14.0)">a</text><text xml:space="preserve" font-family="GillSans-Italic" font-style="italic" font-size="30.0" fill="#FEFFFF" transform="matrix(1.00, 0.00, -0.00, -1.00, 416.8, 14.0)">n</text><text xml:space="preserve" font-family="GillSans-Italic" font-style="italic" font-size="30.0" fill="#FEFFFF" transform="matrix(1.00, 0.00, -0.00, -1.00, 430.8, 14.0)">s</text><text xml:space="preserve" font-family="GillSans-Italic" font-style="italic" font-size="30.0" fill="#FEFFFF" transform="matrix(1.00, 0.00, -0.00, -1.00, 441.5, 14.0)"> </text><text xml:space="preserve" font-family="GillSans-Italic" font-style="italic" font-size="30.0" fill="#FEFFFF" transform="matrix(1.00, 0.00, -0.00, -1.00, 449.8, 14.0)">w</text><text xml:space="preserve" font-family="GillSans-Italic" font-style="italic" font-size="30.0" fill="#FEFFFF" transform="matrix(1.00, 0.00, -0.00, -1.00, 468.3, 14.0)">/</text><text xml:space="preserve" font-family="GillSans-Italic" font-style="italic" font-size="30.0" fill="#FEFFFF" transform="matrix(1.00, 0.00, -0.00, -1.00, 476.7, 14.0)"> </text><text xml:space="preserve" font-family="GillSans-Italic" font-style="italic" font-size="30.0" fill="#FEFFFF" transform="matrix(1.00, 0.00, -0.00, -1.00, 485.0, 14.0)">r</text><text xml:space="preserve" font-family="GillSans-Italic" font-style="italic" font-size="30.0" fill="#FEFFFF" transform="matrix(1.00, 0.00, -0.00, -1.00, 493.8, 14.0)">o</text><text xml:space="preserve" font-family="GillSans-Italic" font-style="italic" font-size="30.0" fill="#FEFFFF" transform="matrix(1.00, 0.00, -0.00, -1.00, 507.2, 14.0)">l</text><text xml:space="preserve" font-family="GillSans-Italic" font-style="italic" font-size="30.0" fill="#FEFFFF" transform="matrix(1.00, 0.00, -0.00, -1.00, 512.9, 14.0)">e</text><text xml:space="preserve" font-family="GillSans-Italic" font-style="italic" font-size="30.0" fill="#FEFFFF" transform="matrix(1.00, 0.00, -0.00, -1.00, 526.0, 14.0)"> </text><text xml:space="preserve" font-family="LucidaGrande-Bold" font-weight="bold" font-size="30.0" fill="#F38F18" transform="matrix(1.00, 0.00, -0.00, -1.00, 534.3, 14.0)">≠</text><text xml:space="preserve" font-family="GillSans-Italic" font-style="italic" font-size="30.0" fill="#FEFFFF" transform="matrix(1.00, 0.00, -0.00, -1.00, 558.2, 14.0)"> </text><text xml:space="preserve" font-family="GillSans-Italic" font-style="italic" font-size="30.0" fill="#FEFFFF" transform="matrix(1.00, 0.00, -0.00, -1.00, 566.5, 14.0)">k</text></g></g></g></svg>