<?xml version="1.0" encoding="UTF-8" standalone="no"?><svg xmlns="http://www.w3.org/2000/svg" xmlns:xlink="http://www.w3.org/1999/xlink" clip-rule="evenodd" stroke-miterlimit="4.00" viewBox="0 0 1920 1080"><desc>SVG generated by Keynote</desc><defs></defs><g transform="matrix(1.00, 0.00, -0.00, -1.00, 0.0, 1080.0)"><path d="M 0.0 1080.0 L 1920.0 1080.0 L 1920.0 0.0 L 0.0 0.0 Z M 0.0 1080.0 " fill="#FEFFFF"></path><text xml:space="preserve" font-family="GillSans" font-size="112.0" fill="#000000" transform="matrix(1.00, 0.00, -0.00, -1.00, 624.0, 876.0)">W</text><text xml:space="preserve" font-family="GillSans" font-size="112.0" fill="#000000" transform="matrix(1.00, 0.00, -0.00, -1.00, 740.7, 876.0)">h</text><text xml:space="preserve" font-family="GillSans" font-size="112.0" fill="#000000" transform="matrix(1.00, 0.00, -0.00, -1.00, 792.8, 876.0)">y</text><text xml:space="preserve" font-family="GillSans" font-size="112.0" fill="#000000" transform="matrix(1.00, 0.00, -0.00, -1.00, 841.8, 876.0)"> </text><text xml:space="preserve" font-family="GillSans" font-size="112.0" fill="#000000" transform="matrix(1.00, 0.00, -0.00, -1.00, 872.9, 876.0)">M</text><text xml:space="preserve" font-family="GillSans" font-size="112.0" fill="#000000" transform="matrix(1.00, 0.00, -0.00, -1.00, 960.3, 876.0)">e</text><text xml:space="preserve" font-family="GillSans" font-size="112.0" fill="#000000" transform="matrix(1.00, 0.00, -0.00, -1.00, 1014.0, 876.0)">m</text><text xml:space="preserve" font-family="GillSans" font-size="112.0" fill="#000000" transform="matrix(1.00, 0.00, -0.00, -1.00, 1100.3, 876.0)">o</text><text xml:space="preserve" font-family="GillSans" font-size="112.0" fill="#000000" transform="matrix(1.00, 0.00, -0.00, -1.00, 1162.1, 876.0)">r</text><text xml:space="preserve" font-family="GillSans" font-size="112.0" fill="#000000" transform="matrix(1.00, 0.00, -0.00, -1.00, 1209.8, 876.0)">y</text><text xml:space="preserve" font-family="GillSans" font-size="112.0" fill="#000000" transform="matrix(1.00, 0.00, -0.00, -1.00, 1258.9, 876.0)">?</text><path d="M 146.3 662.3 L 1773.7 662.3 C 1777.5 662.3 1779.5 662.3 1781.5 661.7 C 1783.8 660.8 1785.5 659.1 1786.3 656.8 C 1787.0 654.8 1787.0 652.8 1787.0 649.0 L 1787.0 479.3 C 1787.0 475.5 1787.0 473.6 1786.3 471.5 C 1785.5 469.3 1783.8 467.5 1781.5 466.7 C 1779.5 466.0 1777.5 466.0 1773.7 466.0 L 146.3 466.0 C 142.5 466.0 140.5 466.0 138.5 466.7 C 136.2 467.5 134.5 469.3 133.7 471.5 C 133.0 473.6 133.0 475.5 133.0 479.4 L 133.0 649.0 C 133.0 652.8 133.0 654.8 133.7 656.8 C 134.5 659.1 136.2 660.8 138.5 661.7 C 140.5 662.3 142.5 662.3 146.3 662.3 Z M 146.3 662.3 " fill="#DCDDE0" fill-opacity="0.09"></path><path d="M 13.3 0.0 L 1640.7 0.0 C 1644.5 0.0 1646.5 0.0 1648.5 0.7 C 1650.8 1.5 1652.5 3.2 1653.3 5.5 C 1654.0 7.5 1654.0 9.5 1654.0 13.3 L 1654.0 183.0 C 1654.0 186.8 1654.0 188.8 1653.3 190.8 C 1652.5 193.1 1650.8 194.8 1648.5 195.6 C 1646.5 196.3 1644.5 196.3 1640.7 196.3 L 13.3 196.3 C 9.5 196.3 7.5 196.3 5.5 195.6 C 3.2 194.8 1.5 193.1 0.7 190.8 C 0.0 188.8 0.0 186.8 0.0 183.0 L 0.0 13.3 C 0.0 9.5 0.0 7.5 0.7 5.5 C 1.5 3.2 3.2 1.5 5.5 0.7 C 7.5 0.0 9.5 0.0 13.3 0.0 Z M 13.3 0.0 " fill="none" stroke="#52575F" stroke-opacity="0.11" stroke-width="0.85" transform="matrix(1.00, 0.00, 0.00, -1.00, 133.0, 662.3)"></path><g><clipPath id="clip-10772"><path d="M 130.5 466.0 L 1789.5 466.0 L 1789.5 662.3 L 130.5 662.3 Z M 130.5 466.0 "></path></clipPath><g clip-path="url(#clip-10772)"><text xml:space="preserve" font-family="GillSans" font-size="45.0" fill="#000000" transform="matrix(1.00, 0.00, -0.00, -1.00, 183.0, 575.0)">H</text><text xml:space="preserve" font-family="GillSans" font-size="45.0" fill="#000000" transform="matrix(1.00, 0.00, -0.00, -1.00, 215.8, 575.0)">u</text><text xml:space="preserve" font-family="GillSans" font-size="45.0" fill="#000000" transform="matrix(1.00, 0.00, -0.00, -1.00, 238.3, 575.0)">m</text><text xml:space="preserve" font-family="GillSans" font-size="45.0" fill="#000000" transform="matrix(1.00, 0.00, -0.00, -1.00, 273.0, 575.0)">a</text><text xml:space="preserve" font-family="GillSans" font-size="45.0" fill="#000000" transform="matrix(1.00, 0.00, -0.00, -1.00, 292.2, 575.0)">n</text><text xml:space="preserve" font-family="GillSans" font-size="45.0" fill="#000000" transform="matrix(1.00, 0.00, -0.00, -1.00, 314.7, 575.0)">’</text><text xml:space="preserve" font-family="GillSans" font-size="45.0" fill="#000000" transform="matrix(1.00, 0.00, -0.00, -1.00, 321.0, 575.0)">s</text><text xml:space="preserve" font-family="GillSans" font-size="45.0" fill="#000000" transform="matrix(1.00, 0.00, -0.00, -1.00, 338.3, 575.0)"> </text><text xml:space="preserve" font-family="GillSans" font-size="45.0" fill="#000000" transform="matrix(1.00, 0.00, -0.00, -1.00, 350.8, 575.0)">w</text><text xml:space="preserve" font-family="GillSans" font-size="45.0" fill="#000000" transform="matrix(1.00, 0.00, -0.00, -1.00, 382.2, 575.0)">o</text><text xml:space="preserve" font-family="GillSans" font-size="45.0" fill="#000000" transform="matrix(1.00, 0.00, -0.00, -1.00, 407.1, 575.0)">r</text><text xml:space="preserve" font-family="GillSans" font-size="45.0" fill="#000000" transform="matrix(1.00, 0.00, -0.00, -1.00, 424.9, 575.0)">k</text><text xml:space="preserve" font-family="GillSans" font-size="45.0" fill="#000000" transform="matrix(1.00, 0.00, -0.00, -1.00, 446.4, 575.0)">i</text><text xml:space="preserve" font-family="GillSans" font-size="45.0" fill="#000000" transform="matrix(1.00, 0.00, -0.00, -1.00, 456.3, 575.0)">n</text><text xml:space="preserve" font-family="GillSans" font-size="45.0" fill="#000000" transform="matrix(1.00, 0.00, -0.00, -1.00, 478.8, 575.0)">g</text><text xml:space="preserve" font-family="GillSans" font-size="45.0" fill="#000000" transform="matrix(1.00, 0.00, -0.00, -1.00, 498.0, 575.0)"> </text><text xml:space="preserve" font-family="GillSans" font-size="45.0" fill="#000000" transform="matrix(1.00, 0.00, -0.00, -1.00, 510.5, 575.0)">m</text><text xml:space="preserve" font-family="GillSans" font-size="45.0" fill="#000000" transform="matrix(1.00, 0.00, -0.00, -1.00, 545.2, 575.0)">e</text><text xml:space="preserve" font-family="GillSans" font-size="45.0" fill="#000000" transform="matrix(1.00, 0.00, -0.00, -1.00, 566.8, 575.0)">m</text><text xml:space="preserve" font-family="GillSans" font-size="45.0" fill="#000000" transform="matrix(1.00, 0.00, -0.00, -1.00, 601.4, 575.0)">o</text><text xml:space="preserve" font-family="GillSans" font-size="45.0" fill="#000000" transform="matrix(1.00, 0.00, -0.00, -1.00, 626.3, 575.0)">r</text><text xml:space="preserve" font-family="GillSans" font-size="45.0" fill="#000000" transform="matrix(1.00, 0.00, -0.00, -1.00, 645.4, 575.0)">y</text><text xml:space="preserve" font-family="GillSans" font-size="45.0" fill="#000000" transform="matrix(1.00, 0.00, -0.00, -1.00, 665.1, 575.0)"> </text><text xml:space="preserve" font-family="GillSans" font-size="45.0" fill="#000000" transform="matrix(1.00, 0.00, -0.00, -1.00, 677.6, 575.0)">i</text><text xml:space="preserve" font-family="GillSans" font-size="45.0" fill="#000000" transform="matrix(1.00, 0.00, -0.00, -1.00, 687.5, 575.0)">s</text><text xml:space="preserve" font-family="GillSans" font-size="45.0" fill="#000000" transform="matrix(1.00, 0.00, -0.00, -1.00, 704.8, 575.0)"> </text><text xml:space="preserve" font-family="GillSans" font-size="45.0" fill="#000000" transform="matrix(1.00, 0.00, -0.00, -1.00, 717.3, 575.0)">a</text><text xml:space="preserve" font-family="GillSans" font-size="45.0" fill="#000000" transform="matrix(1.00, 0.00, -0.00, -1.00, 736.5, 575.0)"> </text><text xml:space="preserve" font-family="GillSans" font-size="45.0" fill="#000000" transform="matrix(1.00, 0.00, -0.00, -1.00, 749.0, 575.0)">c</text><text xml:space="preserve" font-family="GillSans" font-size="45.0" fill="#000000" transform="matrix(1.00, 0.00, -0.00, -1.00, 768.7, 575.0)">a</text><text xml:space="preserve" font-family="GillSans" font-size="45.0" fill="#000000" transform="matrix(1.00, 0.00, -0.00, -1.00, 787.5, 575.0)">p</text><text xml:space="preserve" font-family="GillSans" font-size="45.0" fill="#000000" transform="matrix(1.00, 0.00, -0.00, -1.00, 810.0, 575.0)">a</text><text xml:space="preserve" font-family="GillSans" font-size="45.0" fill="#000000" transform="matrix(1.00, 0.00, -0.00, -1.00, 829.2, 575.0)">c</text><text xml:space="preserve" font-family="GillSans" font-size="45.0" fill="#000000" transform="matrix(1.00, 0.00, -0.00, -1.00, 848.9, 575.0)">i</text><text xml:space="preserve" font-family="GillSans" font-size="45.0" fill="#000000" transform="matrix(1.00, 0.00, -0.00, -1.00, 858.7, 575.0)">t</text><text xml:space="preserve" font-family="GillSans" font-size="45.0" fill="#000000" transform="matrix(1.00, 0.00, -0.00, -1.00, 873.7, 575.0)">y</text><text xml:space="preserve" font-family="GillSans" font-size="45.0" fill="#000000" transform="matrix(1.00, 0.00, -0.00, -1.00, 893.4, 575.0)"> </text><text xml:space="preserve" font-family="GillSans" font-size="45.0" fill="#000000" transform="matrix(1.00, 0.00, -0.00, -1.00, 905.9, 575.0)">f</text><text xml:space="preserve" font-family="GillSans" font-size="45.0" fill="#000000" transform="matrix(1.00, 0.00, -0.00, -1.00, 916.7, 575.0)">o</text><text xml:space="preserve" font-family="GillSans" font-size="45.0" fill="#000000" transform="matrix(1.00, 0.00, -0.00, -1.00, 941.6, 575.0)">r</text><text xml:space="preserve" font-family="GillSans" font-size="45.0" fill="#000000" transform="matrix(1.00, 0.00, -0.00, -1.00, 959.4, 575.0)"> </text><text xml:space="preserve" font-family="GillSans" font-size="45.0" fill="#000000" transform="matrix(1.00, 0.00, -0.00, -1.00, 971.9, 575.0)">s</text><text xml:space="preserve" font-family="GillSans" font-size="45.0" fill="#000000" transform="matrix(1.00, 0.00, -0.00, -1.00, 989.2, 575.0)">h</text><text xml:space="preserve" font-family="GillSans" font-size="45.0" fill="#000000" transform="matrix(1.00, 0.00, -0.00, -1.00, 1011.7, 575.0)">o</text><text xml:space="preserve" font-family="GillSans" font-size="45.0" fill="#000000" transform="matrix(1.00, 0.00, -0.00, -1.00, 1036.5, 575.0)">r</text><text xml:space="preserve" font-family="GillSans" font-size="45.0" fill="#000000" transform="matrix(1.00, 0.00, -0.00, -1.00, 1055.2, 575.0)">t</text><text xml:space="preserve" font-family="GillSans" font-size="45.0" fill="#000000" transform="matrix(1.00, 0.00, -0.00, -1.00, 1070.2, 575.0)">-</text><text xml:space="preserve" font-family="GillSans" font-size="45.0" fill="#000000" transform="matrix(1.00, 0.00, -0.00, -1.00, 1084.8, 575.0)">t</text><text xml:space="preserve" font-family="GillSans" font-size="45.0" fill="#000000" transform="matrix(1.00, 0.00, -0.00, -1.00, 1099.7, 575.0)">e</text><text xml:space="preserve" font-family="GillSans" font-size="45.0" fill="#000000" transform="matrix(1.00, 0.00, -0.00, -1.00, 1121.3, 575.0)">r</text><text xml:space="preserve" font-family="GillSans" font-size="45.0" fill="#000000" transform="matrix(1.00, 0.00, -0.00, -1.00, 1139.1, 575.0)">m</text><text xml:space="preserve" font-family="GillSans" font-size="45.0" fill="#000000" transform="matrix(1.00, 0.00, -0.00, -1.00, 1173.8, 575.0)"> </text><text xml:space="preserve" font-family="GillSans" font-size="45.0" fill="#000000" transform="matrix(1.00, 0.00, -0.00, -1.00, 1186.3, 575.0)">s</text><text xml:space="preserve" font-family="GillSans" font-size="45.0" fill="#000000" transform="matrix(1.00, 0.00, -0.00, -1.00, 1203.6, 575.0)">t</text><text xml:space="preserve" font-family="GillSans" font-size="45.0" fill="#000000" transform="matrix(1.00, 0.00, -0.00, -1.00, 1218.6, 575.0)">o</text><text xml:space="preserve" font-family="GillSans" font-size="45.0" fill="#000000" transform="matrix(1.00, 0.00, -0.00, -1.00, 1243.4, 575.0)">r</text><text xml:space="preserve" font-family="GillSans" font-size="45.0" fill="#000000" transform="matrix(1.00, 0.00, -0.00, -1.00, 1261.2, 575.0)">a</text><text xml:space="preserve" font-family="GillSans" font-size="45.0" fill="#000000" transform="matrix(1.00, 0.00, -0.00, -1.00, 1280.4, 575.0)">g</text><text xml:space="preserve" font-family="GillSans" font-size="45.0" fill="#000000" transform="matrix(1.00, 0.00, -0.00, -1.00, 1299.6, 575.0)">e</text><text xml:space="preserve" font-family="GillSans" font-size="45.0" fill="#000000" transform="matrix(1.00, 0.00, -0.00, -1.00, 1321.2, 575.0)"> </text><text xml:space="preserve" font-family="GillSans" font-size="45.0" fill="#000000" transform="matrix(1.00, 0.00, -0.00, -1.00, 1333.7, 575.0)">o</text><text xml:space="preserve" font-family="GillSans" font-size="45.0" fill="#000000" transform="matrix(1.00, 0.00, -0.00, -1.00, 1358.5, 575.0)">f</text><text xml:space="preserve" font-family="GillSans" font-size="45.0" fill="#000000" transform="matrix(1.00, 0.00, -0.00, -1.00, 1369.7, 575.0)"> </text><text xml:space="preserve" font-family="GillSans" font-size="45.0" fill="#000000" transform="matrix(1.00, 0.00, -0.00, -1.00, 1382.2, 575.0)">i</text><text xml:space="preserve" font-family="GillSans" font-size="45.0" fill="#000000" transform="matrix(1.00, 0.00, -0.00, -1.00, 1392.1, 575.0)">n</text><text xml:space="preserve" font-family="GillSans" font-size="45.0" fill="#000000" transform="matrix(1.00, 0.00, -0.00, -1.00, 1414.6, 575.0)">f</text><text xml:space="preserve" font-family="GillSans" font-size="45.0" fill="#000000" transform="matrix(1.00, 0.00, -0.00, -1.00, 1425.4, 575.0)">o</text><text xml:space="preserve" font-family="GillSans" font-size="45.0" fill="#000000" transform="matrix(1.00, 0.00, -0.00, -1.00, 1450.2, 575.0)">r</text><text xml:space="preserve" font-family="GillSans" font-size="45.0" fill="#000000" transform="matrix(1.00, 0.00, -0.00, -1.00, 1468.1, 575.0)">m</text><text xml:space="preserve" font-family="GillSans" font-size="45.0" fill="#000000" transform="matrix(1.00, 0.00, -0.00, -1.00, 1502.8, 575.0)">a</text><text xml:space="preserve" font-family="GillSans" font-size="45.0" fill="#000000" transform="matrix(1.00, 0.00, -0.00, -1.00, 1521.9, 575.0)">t</text><text xml:space="preserve" font-family="GillSans" font-size="45.0" fill="#000000" transform="matrix(1.00, 0.00, -0.00, -1.00, 1536.9, 575.0)">i</text><text xml:space="preserve" font-family="GillSans" font-size="45.0" fill="#000000" transform="matrix(1.00, 0.00, -0.00, -1.00, 1546.8, 575.0)">o</text><text xml:space="preserve" font-family="GillSans" font-size="45.0" fill="#000000" transform="matrix(1.00, 0.00, -0.00, -1.00, 1571.6, 575.0)">n</text><text xml:space="preserve" font-family="GillSans" font-size="45.0" fill="#000000" transform="matrix(1.00, 0.00, -0.00, -1.00, 1594.1, 575.0)"> </text><text xml:space="preserve" font-family="GillSans" font-size="45.0" fill="#000000" transform="matrix(1.00, 0.00, -0.00, -1.00, 1606.6, 575.0)">a</text><text xml:space="preserve" font-family="GillSans" font-size="45.0" fill="#000000" transform="matrix(1.00, 0.00, -0.00, -1.00, 1625.8, 575.0)">n</text><text xml:space="preserve" font-family="GillSans" font-size="45.0" fill="#000000" transform="matrix(1.00, 0.00, -0.00, -1.00, 1648.3, 575.0)">d</text><text xml:space="preserve" font-family="GillSans" font-size="45.0" fill="#000000" transform="matrix(1.00, 0.00, -0.00, -1.00, 1671.2, 575.0)"> </text><text xml:space="preserve" font-family="GillSans" font-size="45.0" fill="#000000" transform="matrix(1.00, 0.00, -0.00, -1.00, 1683.7, 575.0)">i</text><text xml:space="preserve" font-family="GillSans" font-size="45.0" fill="#000000" transform="matrix(1.00, 0.00, -0.00, -1.00, 1693.6, 575.0)">t</text><text xml:space="preserve" font-family="GillSans" font-size="45.0" fill="#000000" transform="matrix(1.00, 0.00, -0.00, -1.00, 1708.6, 575.0)">s</text><text xml:space="preserve" font-family="GillSans" font-size="45.0" fill="#000000" transform="matrix(1.00, 0.00, -0.00, -1.00, 1725.9, 575.0)"> </text><text xml:space="preserve" font-family="GillSans" font-size="45.0" fill="#000000" transform="matrix(1.00, 0.00, -0.00, -1.00, 183.0, 524.0)">r</text><text xml:space="preserve" font-family="GillSans" font-size="45.0" fill="#000000" transform="matrix(1.00, 0.00, -0.00, -1.00, 200.8, 524.0)">u</text><text xml:space="preserve" font-family="GillSans" font-size="45.0" fill="#000000" transform="matrix(1.00, 0.00, -0.00, -1.00, 223.3, 524.0)">l</text><text xml:space="preserve" font-family="GillSans" font-size="45.0" fill="#000000" transform="matrix(1.00, 0.00, -0.00, -1.00, 233.2, 524.0)">e</text><text xml:space="preserve" font-family="GillSans" font-size="45.0" fill="#000000" transform="matrix(1.00, 0.00, -0.00, -1.00, 254.7, 524.0)">-</text><text xml:space="preserve" font-family="GillSans" font-size="45.0" fill="#000000" transform="matrix(1.00, 0.00, -0.00, -1.00, 269.3, 524.0)">b</text><text xml:space="preserve" font-family="GillSans" font-size="45.0" fill="#000000" transform="matrix(1.00, 0.00, -0.00, -1.00, 291.8, 524.0)">a</text><text xml:space="preserve" font-family="GillSans" font-size="45.0" fill="#000000" transform="matrix(1.00, 0.00, -0.00, -1.00, 311.0, 524.0)">s</text><text xml:space="preserve" font-family="GillSans" font-size="45.0" fill="#000000" transform="matrix(1.00, 0.00, -0.00, -1.00, 328.3, 524.0)">e</text><text xml:space="preserve" font-family="GillSans" font-size="45.0" fill="#000000" transform="matrix(1.00, 0.00, -0.00, -1.00, 349.9, 524.0)">d</text><text xml:space="preserve" font-family="GillSans" font-size="45.0" fill="#000000" transform="matrix(1.00, 0.00, -0.00, -1.00, 372.8, 524.0)"> </text><text xml:space="preserve" font-family="GillSans" font-size="45.0" fill="#000000" transform="matrix(1.00, 0.00, -0.00, -1.00, 385.3, 524.0)">m</text><text xml:space="preserve" font-family="GillSans" font-size="45.0" fill="#000000" transform="matrix(1.00, 0.00, -0.00, -1.00, 420.0, 524.0)">a</text><text xml:space="preserve" font-family="GillSans" font-size="45.0" fill="#000000" transform="matrix(1.00, 0.00, -0.00, -1.00, 439.2, 524.0)">n</text><text xml:space="preserve" font-family="GillSans" font-size="45.0" fill="#000000" transform="matrix(1.00, 0.00, -0.00, -1.00, 461.7, 524.0)">i</text><text xml:space="preserve" font-family="GillSans" font-size="45.0" fill="#000000" transform="matrix(1.00, 0.00, -0.00, -1.00, 471.5, 524.0)">p</text><text xml:space="preserve" font-family="GillSans" font-size="45.0" fill="#000000" transform="matrix(1.00, 0.00, -0.00, -1.00, 494.0, 524.0)">u</text><text xml:space="preserve" font-family="GillSans" font-size="45.0" fill="#000000" transform="matrix(1.00, 0.00, -0.00, -1.00, 516.5, 524.0)">l</text><text xml:space="preserve" font-family="GillSans" font-size="45.0" fill="#000000" transform="matrix(1.00, 0.00, -0.00, -1.00, 526.4, 524.0)">a</text><text xml:space="preserve" font-family="GillSans" font-size="45.0" fill="#000000" transform="matrix(1.00, 0.00, -0.00, -1.00, 545.6, 524.0)">t</text><text xml:space="preserve" font-family="GillSans" font-size="45.0" fill="#000000" transform="matrix(1.00, 0.00, -0.00, -1.00, 560.6, 524.0)">i</text><text xml:space="preserve" font-family="GillSans" font-size="45.0" fill="#000000" transform="matrix(1.00, 0.00, -0.00, -1.00, 570.5, 524.0)">o</text><text xml:space="preserve" font-family="GillSans" font-size="45.0" fill="#000000" transform="matrix(1.00, 0.00, -0.00, -1.00, 595.3, 524.0)">n</text><text xml:space="preserve" font-family="GillSans" font-size="45.0" fill="#000000" transform="matrix(1.00, 0.00, -0.00, -1.00, 617.8, 524.0)">.</text><text xml:space="preserve" font-family="GillSans" font-size="45.0" fill="#000000" transform="matrix(1.00, 0.00, -0.00, -1.00, 623.2, 524.0)"> </text><text xml:space="preserve" font-family="GillSans" font-size="45.0" fill="#000000" transform="matrix(1.00, 0.00, -0.00, -1.00, 635.7, 524.0)">.</text><text xml:space="preserve" font-family="GillSans" font-size="45.0" fill="#000000" transform="matrix(1.00, 0.00, -0.00, -1.00, 641.0, 524.0)"> </text><text xml:space="preserve" font-family="GillSans" font-size="45.0" fill="#000000" transform="matrix(1.00, 0.00, -0.00, -1.00, 653.5, 524.0)">.</text></g></g><path d="M 146.3 418.0 L 1773.7 418.0 C 1777.5 418.0 1779.5 418.0 1781.5 417.3 C 1783.8 416.5 1785.5 414.7 1786.3 412.5 C 1787.0 410.4 1787.0 408.5 1787.0 404.6 L 1787.0 235.0 C 1787.0 231.2 1787.0 229.2 1786.3 227.2 C 1785.5 224.9 1783.8 223.2 1781.5 222.3 C 1779.5 221.7 1777.5 221.7 1773.7 221.7 L 146.3 221.7 C 142.5 221.7 140.5 221.7 138.5 222.3 C 136.2 223.2 134.5 224.9 133.7 227.2 C 133.0 229.2 133.0 231.2 133.0 235.0 L 133.0 404.7 C 133.0 408.5 133.0 410.4 133.7 412.5 C 134.5 414.7 136.2 416.5 138.5 417.3 C 140.5 418.0 142.5 418.0 146.3 418.0 Z M 146.3 418.0 " fill="#DCDDE0" fill-opacity="0.10"></path><path d="M 13.3 0.0 L 1640.7 0.0 C 1644.5 0.0 1646.5 0.0 1648.5 0.7 C 1650.8 1.5 1652.5 3.2 1653.3 5.5 C 1654.0 7.5 1654.0 9.5 1654.0 13.3 L 1654.0 183.0 C 1654.0 186.8 1654.0 188.8 1653.3 190.8 C 1652.5 193.1 1650.8 194.8 1648.5 195.6 C 1646.5 196.3 1644.5 196.3 1640.7 196.3 L 13.3 196.3 C 9.5 196.3 7.5 196.3 5.5 195.6 C 3.2 194.8 1.5 193.1 0.7 190.8 C 0.0 188.8 0.0 186.8 0.0 183.0 L 0.0 13.3 C 0.0 9.5 0.0 7.5 0.7 5.5 C 1.5 3.2 3.2 1.5 5.5 0.7 C 7.5 0.0 9.5 0.0 13.3 0.0 Z M 13.3 0.0 " fill="none" stroke="#52575F" stroke-opacity="0.10" stroke-width="0.85" transform="matrix(1.00, 0.00, 0.00, -1.00, 133.0, 418.0)"></path><g><clipPath id="clip-10773"><path d="M 130.5 221.7 L 1789.5 221.7 L 1789.5 418.0 L 130.5 418.0 Z M 130.5 221.7 "></path></clipPath><g clip-path="url(#clip-10773)"><text xml:space="preserve" font-family="GillSans" font-size="45.0" fill="#000000" transform="matrix(1.00, 0.00, -0.00, -1.00, 183.0, 331.0)">T</text><text xml:space="preserve" font-family="GillSans" font-size="45.0" fill="#000000" transform="matrix(1.00, 0.00, -0.00, -1.00, 210.2, 331.0)">h</text><text xml:space="preserve" font-family="GillSans" font-size="45.0" fill="#000000" transform="matrix(1.00, 0.00, -0.00, -1.00, 232.7, 331.0)">e</text><text xml:space="preserve" font-family="GillSans" font-size="45.0" fill="#000000" transform="matrix(1.00, 0.00, -0.00, -1.00, 254.2, 331.0)">r</text><text xml:space="preserve" font-family="GillSans" font-size="45.0" fill="#000000" transform="matrix(1.00, 0.00, -0.00, -1.00, 271.2, 331.0)">e</text><text xml:space="preserve" font-family="GillSans" font-size="45.0" fill="#000000" transform="matrix(1.00, 0.00, -0.00, -1.00, 292.7, 331.0)">f</text><text xml:space="preserve" font-family="GillSans" font-size="45.0" fill="#000000" transform="matrix(1.00, 0.00, -0.00, -1.00, 303.5, 331.0)">o</text><text xml:space="preserve" font-family="GillSans" font-size="45.0" fill="#000000" transform="matrix(1.00, 0.00, -0.00, -1.00, 328.3, 331.0)">r</text><text xml:space="preserve" font-family="GillSans" font-size="45.0" fill="#000000" transform="matrix(1.00, 0.00, -0.00, -1.00, 345.3, 331.0)">e</text><text xml:space="preserve" font-family="GillSans" font-size="45.0" fill="#000000" transform="matrix(1.00, 0.00, -0.00, -1.00, 367.7, 331.0)">,</text><text xml:space="preserve" font-family="GillSans" font-size="45.0" fill="#000000" transform="matrix(1.00, 0.00, -0.00, -1.00, 373.1, 331.0)"> </text><text xml:space="preserve" font-family="GillSans" font-size="45.0" fill="#000000" transform="matrix(1.00, 0.00, -0.00, -1.00, 385.6, 331.0)">a</text><text xml:space="preserve" font-family="GillSans" font-size="45.0" fill="#000000" transform="matrix(1.00, 0.00, -0.00, -1.00, 404.8, 331.0)">n</text><text xml:space="preserve" font-family="GillSans" font-size="45.0" fill="#000000" transform="matrix(1.00, 0.00, -0.00, -1.00, 427.3, 331.0)"> </text><text xml:space="preserve" font-family="GillSans" font-size="45.0" fill="#000000" transform="matrix(1.00, 0.00, -0.00, -1.00, 439.8, 331.0)">N</text><text xml:space="preserve" font-family="GillSans" font-size="45.0" fill="#000000" transform="matrix(1.00, 0.00, -0.00, -1.00, 474.9, 331.0)">T</text><text xml:space="preserve" font-family="GillSans" font-size="45.0" fill="#000000" transform="matrix(1.00, 0.00, -0.00, -1.00, 502.1, 331.0)">M</text><text xml:space="preserve" font-family="GillSans" font-size="45.0" fill="#000000" transform="matrix(1.00, 0.00, -0.00, -1.00, 537.2, 331.0)"> </text><text xml:space="preserve" font-family="GillSans" font-size="45.0" fill="#000000" transform="matrix(1.00, 0.00, -0.00, -1.00, 549.7, 331.0)">r</text><text xml:space="preserve" font-family="GillSans" font-size="45.0" fill="#000000" transform="matrix(1.00, 0.00, -0.00, -1.00, 566.6, 331.0)">e</text><text xml:space="preserve" font-family="GillSans" font-size="45.0" fill="#000000" transform="matrix(1.00, 0.00, -0.00, -1.00, 588.2, 331.0)">s</text><text xml:space="preserve" font-family="GillSans" font-size="45.0" fill="#000000" transform="matrix(1.00, 0.00, -0.00, -1.00, 605.5, 331.0)">e</text><text xml:space="preserve" font-family="GillSans" font-size="45.0" fill="#000000" transform="matrix(1.00, 0.00, -0.00, -1.00, 627.0, 331.0)">m</text><text xml:space="preserve" font-family="GillSans" font-size="45.0" fill="#000000" transform="matrix(1.00, 0.00, -0.00, -1.00, 661.7, 331.0)">b</text><text xml:space="preserve" font-family="GillSans" font-size="45.0" fill="#000000" transform="matrix(1.00, 0.00, -0.00, -1.00, 684.2, 331.0)">l</text><text xml:space="preserve" font-family="GillSans" font-size="45.0" fill="#000000" transform="matrix(1.00, 0.00, -0.00, -1.00, 694.1, 331.0)">e</text><text xml:space="preserve" font-family="GillSans" font-size="45.0" fill="#000000" transform="matrix(1.00, 0.00, -0.00, -1.00, 715.7, 331.0)">s</text><text xml:space="preserve" font-family="GillSans" font-size="45.0" fill="#000000" transform="matrix(1.00, 0.00, -0.00, -1.00, 733.0, 331.0)"> </text><text xml:space="preserve" font-family="GillSans" font-size="45.0" fill="#000000" transform="matrix(1.00, 0.00, -0.00, -1.00, 745.5, 331.0)">a</text><text xml:space="preserve" font-family="GillSans" font-size="45.0" fill="#000000" transform="matrix(1.00, 0.00, -0.00, -1.00, 764.6, 331.0)"> </text><text xml:space="preserve" font-family="GillSans" font-size="45.0" fill="#000000" transform="matrix(1.00, 0.00, -0.00, -1.00, 777.1, 331.0)">w</text><text xml:space="preserve" font-family="GillSans" font-size="45.0" fill="#000000" transform="matrix(1.00, 0.00, -0.00, -1.00, 808.6, 331.0)">o</text><text xml:space="preserve" font-family="GillSans" font-size="45.0" fill="#000000" transform="matrix(1.00, 0.00, -0.00, -1.00, 833.4, 331.0)">r</text><text xml:space="preserve" font-family="GillSans" font-size="45.0" fill="#000000" transform="matrix(1.00, 0.00, -0.00, -1.00, 851.3, 331.0)">k</text><text xml:space="preserve" font-family="GillSans" font-size="45.0" fill="#000000" transform="matrix(1.00, 0.00, -0.00, -1.00, 872.8, 331.0)">i</text><text xml:space="preserve" font-family="GillSans" font-size="45.0" fill="#000000" transform="matrix(1.00, 0.00, -0.00, -1.00, 882.7, 331.0)">n</text><text xml:space="preserve" font-family="GillSans" font-size="45.0" fill="#000000" transform="matrix(1.00, 0.00, -0.00, -1.00, 905.2, 331.0)">g</text><text xml:space="preserve" font-family="GillSans" font-size="45.0" fill="#000000" transform="matrix(1.00, 0.00, -0.00, -1.00, 924.4, 331.0)"> </text><text xml:space="preserve" font-family="GillSans" font-size="45.0" fill="#000000" transform="matrix(1.00, 0.00, -0.00, -1.00, 936.9, 331.0)">m</text><text xml:space="preserve" font-family="GillSans" font-size="45.0" fill="#000000" transform="matrix(1.00, 0.00, -0.00, -1.00, 971.6, 331.0)">e</text><text xml:space="preserve" font-family="GillSans" font-size="45.0" fill="#000000" transform="matrix(1.00, 0.00, -0.00, -1.00, 993.1, 331.0)">m</text><text xml:space="preserve" font-family="GillSans" font-size="45.0" fill="#000000" transform="matrix(1.00, 0.00, -0.00, -1.00, 1027.8, 331.0)">o</text><text xml:space="preserve" font-family="GillSans" font-size="45.0" fill="#000000" transform="matrix(1.00, 0.00, -0.00, -1.00, 1052.6, 331.0)">r</text><text xml:space="preserve" font-family="GillSans" font-size="45.0" fill="#000000" transform="matrix(1.00, 0.00, -0.00, -1.00, 1071.8, 331.0)">y</text><text xml:space="preserve" font-family="GillSans" font-size="45.0" fill="#000000" transform="matrix(1.00, 0.00, -0.00, -1.00, 1091.5, 331.0)"> </text><text xml:space="preserve" font-family="GillSans" font-size="45.0" fill="#000000" transform="matrix(1.00, 0.00, -0.00, -1.00, 1104.0, 331.0)">s</text><text xml:space="preserve" font-family="GillSans" font-size="45.0" fill="#000000" transform="matrix(1.00, 0.00, -0.00, -1.00, 1121.3, 331.0)">y</text><text xml:space="preserve" font-family="GillSans" font-size="45.0" fill="#000000" transform="matrix(1.00, 0.00, -0.00, -1.00, 1141.0, 331.0)">s</text><text xml:space="preserve" font-family="GillSans" font-size="45.0" fill="#000000" transform="matrix(1.00, 0.00, -0.00, -1.00, 1158.3, 331.0)">t</text><text xml:space="preserve" font-family="GillSans" font-size="45.0" fill="#000000" transform="matrix(1.00, 0.00, -0.00, -1.00, 1173.3, 331.0)">e</text><text xml:space="preserve" font-family="GillSans" font-size="45.0" fill="#000000" transform="matrix(1.00, 0.00, -0.00, -1.00, 1194.9, 331.0)">m</text><text xml:space="preserve" font-family="GillSans" font-size="45.0" fill="#000000" transform="matrix(1.00, 0.00, -0.00, -1.00, 1229.6, 331.0)">,</text><text xml:space="preserve" font-family="GillSans" font-size="45.0" fill="#000000" transform="matrix(1.00, 0.00, -0.00, -1.00, 1234.9, 331.0)"> </text><text xml:space="preserve" font-family="GillSans" font-size="45.0" fill="#000000" transform="matrix(1.00, 0.00, -0.00, -1.00, 1247.4, 331.0)">a</text><text xml:space="preserve" font-family="GillSans" font-size="45.0" fill="#000000" transform="matrix(1.00, 0.00, -0.00, -1.00, 1266.6, 331.0)">s</text><text xml:space="preserve" font-family="GillSans" font-size="45.0" fill="#000000" transform="matrix(1.00, 0.00, -0.00, -1.00, 1283.9, 331.0)"> </text><text xml:space="preserve" font-family="GillSans" font-size="45.0" fill="#000000" transform="matrix(1.00, 0.00, -0.00, -1.00, 1296.4, 331.0)">i</text><text xml:space="preserve" font-family="GillSans" font-size="45.0" fill="#000000" transform="matrix(1.00, 0.00, -0.00, -1.00, 1306.3, 331.0)">t</text><text xml:space="preserve" font-family="GillSans" font-size="45.0" fill="#000000" transform="matrix(1.00, 0.00, -0.00, -1.00, 1321.3, 331.0)"> </text><text xml:space="preserve" font-family="GillSans" font-size="45.0" fill="#000000" transform="matrix(1.00, 0.00, -0.00, -1.00, 1333.8, 331.0)">i</text><text xml:space="preserve" font-family="GillSans" font-size="45.0" fill="#000000" transform="matrix(1.00, 0.00, -0.00, -1.00, 1343.6, 331.0)">s</text><text xml:space="preserve" font-family="GillSans" font-size="45.0" fill="#000000" transform="matrix(1.00, 0.00, -0.00, -1.00, 1360.9, 331.0)"> </text><text xml:space="preserve" font-family="GillSans" font-size="45.0" fill="#000000" transform="matrix(1.00, 0.00, -0.00, -1.00, 1373.4, 331.0)">d</text><text xml:space="preserve" font-family="GillSans" font-size="45.0" fill="#000000" transform="matrix(1.00, 0.00, -0.00, -1.00, 1396.4, 331.0)">e</text><text xml:space="preserve" font-family="GillSans" font-size="45.0" fill="#000000" transform="matrix(1.00, 0.00, -0.00, -1.00, 1417.9, 331.0)">s</text><text xml:space="preserve" font-family="GillSans" font-size="45.0" fill="#000000" transform="matrix(1.00, 0.00, -0.00, -1.00, 1435.2, 331.0)">i</text><text xml:space="preserve" font-family="GillSans" font-size="45.0" fill="#000000" transform="matrix(1.00, 0.00, -0.00, -1.00, 1445.1, 331.0)">g</text><text xml:space="preserve" font-family="GillSans" font-size="45.0" fill="#000000" transform="matrix(1.00, 0.00, -0.00, -1.00, 1464.3, 331.0)">n</text><text xml:space="preserve" font-family="GillSans" font-size="45.0" fill="#000000" transform="matrix(1.00, 0.00, -0.00, -1.00, 1486.8, 331.0)">e</text><text xml:space="preserve" font-family="GillSans" font-size="45.0" fill="#000000" transform="matrix(1.00, 0.00, -0.00, -1.00, 1508.4, 331.0)">d</text><text xml:space="preserve" font-family="GillSans" font-size="45.0" fill="#000000" transform="matrix(1.00, 0.00, -0.00, -1.00, 1531.3, 331.0)"> </text><text xml:space="preserve" font-family="GillSans" font-size="45.0" fill="#000000" transform="matrix(1.00, 0.00, -0.00, -1.00, 1543.8, 331.0)">t</text><text xml:space="preserve" font-family="GillSans" font-size="45.0" fill="#000000" transform="matrix(1.00, 0.00, -0.00, -1.00, 1558.8, 331.0)">o</text><text xml:space="preserve" font-family="GillSans" font-size="45.0" fill="#000000" transform="matrix(1.00, 0.00, -0.00, -1.00, 1583.6, 331.0)"> </text><text xml:space="preserve" font-family="GillSans" font-size="45.0" fill="#000000" transform="matrix(1.00, 0.00, -0.00, -1.00, 1596.1, 331.0)">s</text><text xml:space="preserve" font-family="GillSans" font-size="45.0" fill="#000000" transform="matrix(1.00, 0.00, -0.00, -1.00, 1613.4, 331.0)">o</text><text xml:space="preserve" font-family="GillSans" font-size="45.0" fill="#000000" transform="matrix(1.00, 0.00, -0.00, -1.00, 1638.2, 331.0)">l</text><text xml:space="preserve" font-family="GillSans" font-size="45.0" fill="#000000" transform="matrix(1.00, 0.00, -0.00, -1.00, 1648.1, 331.0)">v</text><text xml:space="preserve" font-family="GillSans" font-size="45.0" fill="#000000" transform="matrix(1.00, 0.00, -0.00, -1.00, 1666.9, 331.0)">e</text><text xml:space="preserve" font-family="GillSans" font-size="45.0" fill="#000000" transform="matrix(1.00, 0.00, -0.00, -1.00, 1688.4, 331.0)"> </text><text xml:space="preserve" font-family="GillSans" font-size="45.0" fill="#000000" transform="matrix(1.00, 0.00, -0.00, -1.00, 183.0, 280.0)">t</text><text xml:space="preserve" font-family="GillSans" font-size="45.0" fill="#000000" transform="matrix(1.00, 0.00, -0.00, -1.00, 198.0, 280.0)">a</text><text xml:space="preserve" font-family="GillSans" font-size="45.0" fill="#000000" transform="matrix(1.00, 0.00, -0.00, -1.00, 217.2, 280.0)">s</text><text xml:space="preserve" font-family="GillSans" font-size="45.0" fill="#000000" transform="matrix(1.00, 0.00, -0.00, -1.00, 234.5, 280.0)">k</text><text xml:space="preserve" font-family="GillSans" font-size="45.0" fill="#000000" transform="matrix(1.00, 0.00, -0.00, -1.00, 256.0, 280.0)">s</text><text xml:space="preserve" font-family="GillSans" font-size="45.0" fill="#000000" transform="matrix(1.00, 0.00, -0.00, -1.00, 273.3, 280.0)"> </text><text xml:space="preserve" font-family="GillSans" font-size="45.0" fill="#000000" transform="matrix(1.00, 0.00, -0.00, -1.00, 285.8, 280.0)">t</text><text xml:space="preserve" font-family="GillSans" font-size="45.0" fill="#000000" transform="matrix(1.00, 0.00, -0.00, -1.00, 300.8, 280.0)">h</text><text xml:space="preserve" font-family="GillSans" font-size="45.0" fill="#000000" transform="matrix(1.00, 0.00, -0.00, -1.00, 323.3, 280.0)">a</text><text xml:space="preserve" font-family="GillSans" font-size="45.0" fill="#000000" transform="matrix(1.00, 0.00, -0.00, -1.00, 342.5, 280.0)">t</text><text xml:space="preserve" font-family="GillSans" font-size="45.0" fill="#000000" transform="matrix(1.00, 0.00, -0.00, -1.00, 357.5, 280.0)"> </text><text xml:space="preserve" font-family="GillSans" font-size="45.0" fill="#000000" transform="matrix(1.00, 0.00, -0.00, -1.00, 370.0, 280.0)">r</text><text xml:space="preserve" font-family="GillSans" font-size="45.0" fill="#000000" transform="matrix(1.00, 0.00, -0.00, -1.00, 386.9, 280.0)">e</text><text xml:space="preserve" font-family="GillSans" font-size="45.0" fill="#000000" transform="matrix(1.00, 0.00, -0.00, -1.00, 408.5, 280.0)">q</text><text xml:space="preserve" font-family="GillSans" font-size="45.0" fill="#000000" transform="matrix(1.00, 0.00, -0.00, -1.00, 431.0, 280.0)">u</text><text xml:space="preserve" font-family="GillSans" font-size="45.0" fill="#000000" transform="matrix(1.00, 0.00, -0.00, -1.00, 453.5, 280.0)">i</text><text xml:space="preserve" font-family="GillSans" font-size="45.0" fill="#000000" transform="matrix(1.00, 0.00, -0.00, -1.00, 463.3, 280.0)">r</text><text xml:space="preserve" font-family="GillSans" font-size="45.0" fill="#000000" transform="matrix(1.00, 0.00, -0.00, -1.00, 480.3, 280.0)">e</text><text xml:space="preserve" font-family="GillSans" font-size="45.0" fill="#000000" transform="matrix(1.00, 0.00, -0.00, -1.00, 501.8, 280.0)"> </text><text xml:space="preserve" font-family="GillSans" font-size="45.0" fill="#000000" transform="matrix(1.00, 0.00, -0.00, -1.00, 514.3, 280.0)">t</text><text xml:space="preserve" font-family="GillSans" font-size="45.0" fill="#000000" transform="matrix(1.00, 0.00, -0.00, -1.00, 529.3, 280.0)">h</text><text xml:space="preserve" font-family="GillSans" font-size="45.0" fill="#000000" transform="matrix(1.00, 0.00, -0.00, -1.00, 551.8, 280.0)">e</text><text xml:space="preserve" font-family="GillSans" font-size="45.0" fill="#000000" transform="matrix(1.00, 0.00, -0.00, -1.00, 573.4, 280.0)"> </text><text xml:space="preserve" font-family="GillSans" font-size="45.0" fill="#000000" transform="matrix(1.00, 0.00, -0.00, -1.00, 585.9, 280.0)">a</text><text xml:space="preserve" font-family="GillSans" font-size="45.0" fill="#000000" transform="matrix(1.00, 0.00, -0.00, -1.00, 604.6, 280.0)">p</text><text xml:space="preserve" font-family="GillSans" font-size="45.0" fill="#000000" transform="matrix(1.00, 0.00, -0.00, -1.00, 627.1, 280.0)">p</text><text xml:space="preserve" font-family="GillSans" font-size="45.0" fill="#000000" transform="matrix(1.00, 0.00, -0.00, -1.00, 649.6, 280.0)">l</text><text xml:space="preserve" font-family="GillSans" font-size="45.0" fill="#000000" transform="matrix(1.00, 0.00, -0.00, -1.00, 659.5, 280.0)">i</text><text xml:space="preserve" font-family="GillSans" font-size="45.0" fill="#000000" transform="matrix(1.00, 0.00, -0.00, -1.00, 669.4, 280.0)">c</text><text xml:space="preserve" font-family="GillSans" font-size="45.0" fill="#000000" transform="matrix(1.00, 0.00, -0.00, -1.00, 689.1, 280.0)">a</text><text xml:space="preserve" font-family="GillSans" font-size="45.0" fill="#000000" transform="matrix(1.00, 0.00, -0.00, -1.00, 708.3, 280.0)">t</text><text xml:space="preserve" font-family="GillSans" font-size="45.0" fill="#000000" transform="matrix(1.00, 0.00, -0.00, -1.00, 723.2, 280.0)">i</text><text xml:space="preserve" font-family="GillSans" font-size="45.0" fill="#000000" transform="matrix(1.00, 0.00, -0.00, -1.00, 733.1, 280.0)">o</text><text xml:space="preserve" font-family="GillSans" font-size="45.0" fill="#000000" transform="matrix(1.00, 0.00, -0.00, -1.00, 757.9, 280.0)">n</text><text xml:space="preserve" font-family="GillSans" font-size="45.0" fill="#000000" transform="matrix(1.00, 0.00, -0.00, -1.00, 780.4, 280.0)"> </text><text xml:space="preserve" font-family="GillSans" font-size="45.0" fill="#000000" transform="matrix(1.00, 0.00, -0.00, -1.00, 792.9, 280.0)">o</text><text xml:space="preserve" font-family="GillSans" font-size="45.0" fill="#000000" transform="matrix(1.00, 0.00, -0.00, -1.00, 817.8, 280.0)">f</text><text xml:space="preserve" font-family="GillSans" font-size="45.0" fill="#000000" transform="matrix(1.00, 0.00, -0.00, -1.00, 829.0, 280.0)"> </text><text xml:space="preserve" font-family="GillSans" font-size="45.0" fill="#000000" transform="matrix(1.00, 0.00, -0.00, -1.00, 841.5, 280.0)">a</text><text xml:space="preserve" font-family="GillSans" font-size="45.0" fill="#000000" transform="matrix(1.00, 0.00, -0.00, -1.00, 860.3, 280.0)">p</text><text xml:space="preserve" font-family="GillSans" font-size="45.0" fill="#000000" transform="matrix(1.00, 0.00, -0.00, -1.00, 882.8, 280.0)">p</text><text xml:space="preserve" font-family="GillSans" font-size="45.0" fill="#000000" transform="matrix(1.00, 0.00, -0.00, -1.00, 905.3, 280.0)">r</text><text xml:space="preserve" font-family="GillSans" font-size="45.0" fill="#000000" transform="matrix(1.00, 0.00, -0.00, -1.00, 922.0, 280.0)">o</text><text xml:space="preserve" font-family="GillSans" font-size="45.0" fill="#000000" transform="matrix(1.00, 0.00, -0.00, -1.00, 946.1, 280.0)">x</text><text xml:space="preserve" font-family="GillSans" font-size="45.0" fill="#000000" transform="matrix(1.00, 0.00, -0.00, -1.00, 968.6, 280.0)">i</text><text xml:space="preserve" font-family="GillSans" font-size="45.0" fill="#000000" transform="matrix(1.00, 0.00, -0.00, -1.00, 978.5, 280.0)">m</text><text xml:space="preserve" font-family="GillSans" font-size="45.0" fill="#000000" transform="matrix(1.00, 0.00, -0.00, -1.00, 1013.2, 280.0)">a</text><text xml:space="preserve" font-family="GillSans" font-size="45.0" fill="#000000" transform="matrix(1.00, 0.00, -0.00, -1.00, 1032.4, 280.0)">t</text><text xml:space="preserve" font-family="GillSans" font-size="45.0" fill="#000000" transform="matrix(1.00, 0.00, -0.00, -1.00, 1047.3, 280.0)">e</text><text xml:space="preserve" font-family="GillSans" font-size="45.0" fill="#000000" transform="matrix(1.00, 0.00, -0.00, -1.00, 1068.9, 280.0)"> </text><text xml:space="preserve" font-family="GillSans" font-size="45.0" fill="#000000" transform="matrix(1.00, 0.00, -0.00, -1.00, 1081.4, 280.0)">r</text><text xml:space="preserve" font-family="GillSans" font-size="45.0" fill="#000000" transform="matrix(1.00, 0.00, -0.00, -1.00, 1099.2, 280.0)">u</text><text xml:space="preserve" font-family="GillSans" font-size="45.0" fill="#000000" transform="matrix(1.00, 0.00, -0.00, -1.00, 1121.7, 280.0)">l</text><text xml:space="preserve" font-family="GillSans" font-size="45.0" fill="#000000" transform="matrix(1.00, 0.00, -0.00, -1.00, 1131.6, 280.0)">e</text><text xml:space="preserve" font-family="GillSans" font-size="45.0" fill="#000000" transform="matrix(1.00, 0.00, -0.00, -1.00, 1153.1, 280.0)">s</text><text xml:space="preserve" font-family="GillSans" font-size="45.0" fill="#000000" transform="matrix(1.00, 0.00, -0.00, -1.00, 1170.4, 280.0)"> </text><text xml:space="preserve" font-family="GillSans" font-size="45.0" fill="#000000" transform="matrix(1.00, 0.00, -0.00, -1.00, 1182.9, 280.0)">t</text><text xml:space="preserve" font-family="GillSans" font-size="45.0" fill="#000000" transform="matrix(1.00, 0.00, -0.00, -1.00, 1197.9, 280.0)">o</text><text xml:space="preserve" font-family="GillSans" font-size="45.0" fill="#000000" transform="matrix(1.00, 0.00, -0.00, -1.00, 1222.7, 280.0)"> </text><text xml:space="preserve" font-family="GillSans" font-size="45.0" fill="#000000" transform="matrix(1.00, 0.00, -0.00, -1.00, 1230.7, 280.0)">“</text><text xml:space="preserve" font-family="GillSans" font-size="45.0" fill="#000000" transform="matrix(1.00, 0.00, -0.00, -1.00, 1249.9, 280.0)">r</text><text xml:space="preserve" font-family="GillSans" font-size="45.0" fill="#000000" transform="matrix(1.00, 0.00, -0.00, -1.00, 1267.7, 280.0)">a</text><text xml:space="preserve" font-family="GillSans" font-size="45.0" fill="#000000" transform="matrix(1.00, 0.00, -0.00, -1.00, 1286.5, 280.0)">p</text><text xml:space="preserve" font-family="GillSans" font-size="45.0" fill="#000000" transform="matrix(1.00, 0.00, -0.00, -1.00, 1309.0, 280.0)">i</text><text xml:space="preserve" font-family="GillSans" font-size="45.0" fill="#000000" transform="matrix(1.00, 0.00, -0.00, -1.00, 1318.9, 280.0)">d</text><text xml:space="preserve" font-family="GillSans" font-size="45.0" fill="#000000" transform="matrix(1.00, 0.00, -0.00, -1.00, 1341.8, 280.0)">l</text><text xml:space="preserve" font-family="GillSans" font-size="45.0" fill="#000000" transform="matrix(1.00, 0.00, -0.00, -1.00, 1351.2, 280.0)">y</text><text xml:space="preserve" font-family="GillSans" font-size="45.0" fill="#000000" transform="matrix(1.00, 0.00, -0.00, -1.00, 1370.9, 280.0)">-</text><text xml:space="preserve" font-family="GillSans" font-size="45.0" fill="#000000" transform="matrix(1.00, 0.00, -0.00, -1.00, 1385.5, 280.0)">c</text><text xml:space="preserve" font-family="GillSans" font-size="45.0" fill="#000000" transform="matrix(1.00, 0.00, -0.00, -1.00, 1405.2, 280.0)">r</text><text xml:space="preserve" font-family="GillSans" font-size="45.0" fill="#000000" transform="matrix(1.00, 0.00, -0.00, -1.00, 1422.1, 280.0)">e</text><text xml:space="preserve" font-family="GillSans" font-size="45.0" fill="#000000" transform="matrix(1.00, 0.00, -0.00, -1.00, 1443.7, 280.0)">a</text><text xml:space="preserve" font-family="GillSans" font-size="45.0" fill="#000000" transform="matrix(1.00, 0.00, -0.00, -1.00, 1462.9, 280.0)">t</text><text xml:space="preserve" font-family="GillSans" font-size="45.0" fill="#000000" transform="matrix(1.00, 0.00, -0.00, -1.00, 1477.9, 280.0)">e</text><text xml:space="preserve" font-family="GillSans" font-size="45.0" fill="#000000" transform="matrix(1.00, 0.00, -0.00, -1.00, 1499.4, 280.0)">d</text><text xml:space="preserve" font-family="GillSans" font-size="45.0" fill="#000000" transform="matrix(1.00, 0.00, -0.00, -1.00, 1522.4, 280.0)"> </text><text xml:space="preserve" font-family="GillSans" font-size="45.0" fill="#000000" transform="matrix(1.00, 0.00, -0.00, -1.00, 1534.8, 280.0)">v</text><text xml:space="preserve" font-family="GillSans" font-size="45.0" fill="#000000" transform="matrix(1.00, 0.00, -0.00, -1.00, 1554.6, 280.0)">a</text><text xml:space="preserve" font-family="GillSans" font-size="45.0" fill="#000000" transform="matrix(1.00, 0.00, -0.00, -1.00, 1573.8, 280.0)">r</text><text xml:space="preserve" font-family="GillSans" font-size="45.0" fill="#000000" transform="matrix(1.00, 0.00, -0.00, -1.00, 1591.6, 280.0)">i</text><text xml:space="preserve" font-family="GillSans" font-size="45.0" fill="#000000" transform="matrix(1.00, 0.00, -0.00, -1.00, 1601.4, 280.0)">a</text><text xml:space="preserve" font-family="GillSans" font-size="45.0" fill="#000000" transform="matrix(1.00, 0.00, -0.00, -1.00, 1620.6, 280.0)">b</text><text xml:space="preserve" font-family="GillSans" font-size="45.0" fill="#000000" transform="matrix(1.00, 0.00, -0.00, -1.00, 1643.1, 280.0)">l</text><text xml:space="preserve" font-family="GillSans" font-size="45.0" fill="#000000" transform="matrix(1.00, 0.00, -0.00, -1.00, 1653.0, 280.0)">e</text><text xml:space="preserve" font-family="GillSans" font-size="45.0" fill="#000000" transform="matrix(1.00, 0.00, -0.00, -1.00, 1674.6, 280.0)">s</text><text xml:space="preserve" font-family="GillSans" font-size="45.0" fill="#000000" transform="matrix(1.00, 0.00, -0.00, -1.00, 1691.9, 280.0)">”</text><text xml:space="preserve" font-family="GillSans" font-size="45.0" fill="#000000" transform="matrix(1.00, 0.00, -0.00, -1.00, 1711.1, 280.0)">.</text></g></g></g></svg>