<?xml version="1.0" encoding="UTF-8" standalone="no"?><svg xmlns="http://www.w3.org/2000/svg" xmlns:xlink="http://www.w3.org/1999/xlink" clip-rule="evenodd" stroke-miterlimit="4.00" viewBox="0 0 671 106"><desc>SVG generated by Keynote</desc><defs></defs><g transform="matrix(1.00, 0.00, -0.00, -1.00, 0.0, 106.0)"><text xml:space="preserve" font-family="GillSans" font-size="112.0" fill="#000000" transform="matrix(1.00, 0.00, -0.00, -1.00, 2.0, 27.0)">W</text><text xml:space="preserve" font-family="GillSans" font-size="112.0" fill="#000000" transform="matrix(1.00, 0.00, -0.00, -1.00, 118.7, 27.0)">h</text><text xml:space="preserve" font-family="GillSans" font-size="112.0" fill="#000000" transform="matrix(1.00, 0.00, -0.00, -1.00, 170.8, 27.0)">y</text><text xml:space="preserve" font-family="GillSans" font-size="112.0" fill="#000000" transform="matrix(1.00, 0.00, -0.00, -1.00, 219.8, 27.0)"> </text><text xml:space="preserve" font-family="GillSans" font-size="112.0" fill="#000000" transform="matrix(1.00, 0.00, -0.00, -1.00, 250.9, 27.0)">M</text><text xml:space="preserve" font-family="GillSans" font-size="112.0" fill="#000000" transform="matrix(1.00, 0.00, -0.00, -1.00, 338.3, 27.0)">e</text><text xml:space="preserve" font-family="GillSans" font-size="112.0" fill="#000000" transform="matrix(1.00, 0.00, -0.00, -1.00, 392.0, 27.0)">m</text><text xml:space="preserve" font-family="GillSans" font-size="112.0" fill="#000000" transform="matrix(1.00, 0.00, -0.00, -1.00, 478.3, 27.0)">o</text><text xml:space="preserve" font-family="GillSans" font-size="112.0" fill="#000000" transform="matrix(1.00, 0.00, -0.00, -1.00, 540.1, 27.0)">r</text><text xml:space="preserve" font-family="GillSans" font-size="112.0" fill="#000000" transform="matrix(1.00, 0.00, -0.00, -1.00, 587.8, 27.0)">y</text><text xml:space="preserve" font-family="GillSans" font-size="112.0" fill="#000000" transform="matrix(1.00, 0.00, -0.00, -1.00, 636.9, 27.0)">?</text></g></svg>