<?xml version="1.0" encoding="UTF-8" standalone="no"?><svg xmlns="http://www.w3.org/2000/svg" xmlns:xlink="http://www.w3.org/1999/xlink" clip-rule="evenodd" stroke-miterlimit="4.00" viewBox="0 0 1920 1080"><desc>SVG generated by Keynote</desc><defs></defs><g transform="matrix(1.00, 0.00, -0.00, -1.00, 0.0, 1080.0)"><path d="M 0.0 1080.0 L 1920.0 1080.0 L 1920.0 0.0 L 0.0 0.0 Z M 0.0 1080.0 " fill="#FEFFFF"></path><text xml:space="preserve" font-family="GillSans-SemiBold" font-weight="bold" font-size="112.0" fill="#000000" transform="matrix(1.00, 0.00, -0.00, -1.00, 480.0, 578.0)"> </text><text xml:space="preserve" font-family="GillSans-SemiBold" font-weight="bold" font-size="112.0" fill="#000000" transform="matrix(1.00, 0.00, -0.00, -1.00, 511.1, 578.0)">M</text><text xml:space="preserve" font-family="GillSans-SemiBold" font-weight="bold" font-size="112.0" fill="#000000" transform="matrix(1.00, 0.00, -0.00, -1.00, 604.6, 578.0)">e</text><text xml:space="preserve" font-family="GillSans-SemiBold" font-weight="bold" font-size="112.0" fill="#000000" transform="matrix(1.00, 0.00, -0.00, -1.00, 662.4, 578.0)">m</text><text xml:space="preserve" font-family="GillSans-SemiBold" font-weight="bold" font-size="112.0" fill="#000000" transform="matrix(1.00, 0.00, -0.00, -1.00, 757.2, 578.0)">o</text><text xml:space="preserve" font-family="GillSans-SemiBold" font-weight="bold" font-size="112.0" fill="#000000" transform="matrix(1.00, 0.00, -0.00, -1.00, 821.4, 578.0)">r</text><text xml:space="preserve" font-family="GillSans-SemiBold" font-weight="bold" font-size="112.0" fill="#000000" transform="matrix(1.00, 0.00, -0.00, -1.00, 868.3, 578.0)">y</text><text xml:space="preserve" font-family="GillSans-SemiBold" font-weight="bold" font-size="112.0" fill="#000000" transform="matrix(1.00, 0.00, -0.00, -1.00, 921.8, 578.0)"> </text><text xml:space="preserve" font-family="GillSans-SemiBold" font-weight="bold" font-size="112.0" fill="#000000" transform="matrix(1.00, 0.00, -0.00, -1.00, 952.9, 578.0)">N</text><text xml:space="preserve" font-family="GillSans-SemiBold" font-weight="bold" font-size="112.0" fill="#000000" transform="matrix(1.00, 0.00, -0.00, -1.00, 1042.4, 578.0)">e</text><text xml:space="preserve" font-family="GillSans-SemiBold" font-weight="bold" font-size="112.0" fill="#000000" transform="matrix(1.00, 0.00, -0.00, -1.00, 1100.3, 578.0)">t</text><text xml:space="preserve" font-family="GillSans-SemiBold" font-weight="bold" font-size="112.0" fill="#000000" transform="matrix(1.00, 0.00, -0.00, -1.00, 1141.6, 578.0)">w</text><text xml:space="preserve" font-family="GillSans-SemiBold" font-weight="bold" font-size="112.0" fill="#000000" transform="matrix(1.00, 0.00, -0.00, -1.00, 1226.2, 578.0)">o</text><text xml:space="preserve" font-family="GillSans-SemiBold" font-weight="bold" font-size="112.0" fill="#000000" transform="matrix(1.00, 0.00, -0.00, -1.00, 1290.4, 578.0)">r</text><text xml:space="preserve" font-family="GillSans-SemiBold" font-weight="bold" font-size="112.0" fill="#000000" transform="matrix(1.00, 0.00, -0.00, -1.00, 1337.2, 578.0)">k</text><text xml:space="preserve" font-family="GillSans-SemiBold" font-weight="bold" font-size="112.0" fill="#000000" transform="matrix(1.00, 0.00, -0.00, -1.00, 1395.2, 578.0)">s</text><text xml:space="preserve" font-family="GillSans" font-size="44.0" fill="#52575F" transform="matrix(1.00, 0.00, -0.00, -1.00, 847.0, 345.0)">C</text><text xml:space="preserve" font-family="GillSans" font-size="44.0" fill="#52575F" transform="matrix(1.00, 0.00, -0.00, -1.00, 878.2, 345.0)">h</text><text xml:space="preserve" font-family="GillSans" font-size="44.0" fill="#52575F" transform="matrix(1.00, 0.00, -0.00, -1.00, 900.2, 345.0)">e</text><text xml:space="preserve" font-family="GillSans" font-size="44.0" fill="#52575F" transform="matrix(1.00, 0.00, -0.00, -1.00, 921.2, 345.0)">t</text><text xml:space="preserve" font-family="GillSans" font-size="44.0" fill="#52575F" transform="matrix(1.00, 0.00, -0.00, -1.00, 935.9, 345.0)">a</text><text xml:space="preserve" font-family="GillSans" font-size="44.0" fill="#52575F" transform="matrix(1.00, 0.00, -0.00, -1.00, 954.6, 345.0)">n</text><text xml:space="preserve" font-family="GillSans" font-size="44.0" fill="#52575F" transform="matrix(1.00, 0.00, -0.00, -1.00, 976.6, 345.0)"> </text><text xml:space="preserve" font-family="GillSans" font-size="44.0" fill="#52575F" transform="matrix(1.00, 0.00, -0.00, -1.00, 988.9, 345.0)">N</text><text xml:space="preserve" font-family="GillSans" font-size="44.0" fill="#52575F" transform="matrix(1.00, 0.00, -0.00, -1.00, 1023.2, 345.0)">a</text><text xml:space="preserve" font-family="GillSans" font-size="44.0" fill="#52575F" transform="matrix(1.00, 0.00, -0.00, -1.00, 1042.0, 345.0)">i</text><text xml:space="preserve" font-family="GillSans" font-size="44.0" fill="#52575F" transform="matrix(1.00, 0.00, -0.00, -1.00, 1051.6, 345.0)">k</text><image xlink:href="FF49AE2CDAC071029A7347A1D23D795F.jpeg" width="253.00" height="92.00" transform="matrix(1.00, 0.00, -0.00, -1.00, 834.0, 306.0)"></image></g></svg>