<?xml version="1.0" encoding="UTF-8" standalone="no"?><svg xmlns="http://www.w3.org/2000/svg" xmlns:xlink="http://www.w3.org/1999/xlink" clip-rule="evenodd" stroke-miterlimit="4.00" viewBox="0 0 1029 39"><desc>SVG generated by Keynote</desc><defs></defs><g transform="matrix(1.00, 0.00, -0.00, -1.00, 0.0, 39.0)"><g><clipPath id="clip-6122"><path d="M 0.0 9.4 L 20.9 9.4 L 20.9 30.3 L 0.0 30.3 Z M 0.0 9.4 "></path></clipPath><g clip-path="url(#clip-6122)"><path d="M 20.9 19.9 L 10.5 9.4 L 0.0 19.9 L 10.5 30.3 L 20.9 19.9 Z M 20.9 19.9 " fill="#000000"></path></g></g><text xml:space="preserve" font-family="GillSans" font-size="52.0" fill="#000000" transform="matrix(1.00, 0.00, -0.00, -1.00, 40.0, 2.0)">A</text><text xml:space="preserve" font-family="GillSans" font-size="52.0" fill="#000000" transform="matrix(1.00, 0.00, -0.00, -1.00, 74.7, 2.0)">n</text><text xml:space="preserve" font-family="GillSans" font-size="52.0" fill="#000000" transform="matrix(1.00, 0.00, -0.00, -1.00, 100.7, 2.0)">n</text><text xml:space="preserve" font-family="GillSans" font-size="52.0" fill="#000000" transform="matrix(1.00, 0.00, -0.00, -1.00, 126.7, 2.0)">o</text><text xml:space="preserve" font-family="GillSans" font-size="52.0" fill="#000000" transform="matrix(1.00, 0.00, -0.00, -1.00, 155.4, 2.0)">t</text><text xml:space="preserve" font-family="GillSans" font-size="52.0" fill="#000000" transform="matrix(1.00, 0.00, -0.00, -1.00, 172.7, 2.0)">a</text><text xml:space="preserve" font-family="GillSans" font-size="52.0" fill="#000000" transform="matrix(1.00, 0.00, -0.00, -1.00, 194.9, 2.0)">t</text><text xml:space="preserve" font-family="GillSans" font-size="52.0" fill="#000000" transform="matrix(1.00, 0.00, -0.00, -1.00, 212.2, 2.0)">e</text><text xml:space="preserve" font-family="GillSans" font-size="52.0" fill="#000000" transform="matrix(1.00, 0.00, -0.00, -1.00, 237.1, 2.0)">d</text><text xml:space="preserve" font-family="GillSans" font-size="52.0" fill="#000000" transform="matrix(1.00, 0.00, -0.00, -1.00, 263.6, 2.0)"> </text><text xml:space="preserve" font-family="GillSans" font-size="52.0" fill="#000000" transform="matrix(1.00, 0.00, -0.00, -1.00, 278.0, 2.0)">7</text><text xml:space="preserve" font-family="GillSans" font-size="52.0" fill="#000000" transform="matrix(1.00, 0.00, -0.00, -1.00, 304.0, 2.0)">0</text><text xml:space="preserve" font-family="GillSans" font-size="52.0" fill="#000000" transform="matrix(1.00, 0.00, -0.00, -1.00, 330.0, 2.0)">8</text><text xml:space="preserve" font-family="GillSans" font-size="52.0" fill="#000000" transform="matrix(1.00, 0.00, -0.00, -1.00, 356.0, 2.0)"> </text><text xml:space="preserve" font-family="GillSans" font-size="52.0" fill="#000000" transform="matrix(1.00, 0.00, -0.00, -1.00, 370.5, 2.0)">s</text><text xml:space="preserve" font-family="GillSans" font-size="52.0" fill="#000000" transform="matrix(1.00, 0.00, -0.00, -1.00, 390.5, 2.0)">e</text><text xml:space="preserve" font-family="GillSans" font-size="52.0" fill="#000000" transform="matrix(1.00, 0.00, -0.00, -1.00, 415.4, 2.0)">n</text><text xml:space="preserve" font-family="GillSans" font-size="52.0" fill="#000000" transform="matrix(1.00, 0.00, -0.00, -1.00, 441.4, 2.0)">t</text><text xml:space="preserve" font-family="GillSans" font-size="52.0" fill="#000000" transform="matrix(1.00, 0.00, -0.00, -1.00, 458.7, 2.0)">e</text><text xml:space="preserve" font-family="GillSans" font-size="52.0" fill="#000000" transform="matrix(1.00, 0.00, -0.00, -1.00, 483.6, 2.0)">n</text><text xml:space="preserve" font-family="GillSans" font-size="52.0" fill="#000000" transform="matrix(1.00, 0.00, -0.00, -1.00, 509.6, 2.0)">c</text><text xml:space="preserve" font-family="GillSans" font-size="52.0" fill="#000000" transform="matrix(1.00, 0.00, -0.00, -1.00, 532.4, 2.0)">e</text><text xml:space="preserve" font-family="GillSans" font-size="52.0" fill="#000000" transform="matrix(1.00, 0.00, -0.00, -1.00, 557.3, 2.0)">s</text><text xml:space="preserve" font-family="GillSans" font-size="52.0" fill="#000000" transform="matrix(1.00, 0.00, -0.00, -1.00, 577.3, 2.0)"> </text><text xml:space="preserve" font-family="GillSans" font-size="52.0" fill="#000000" transform="matrix(1.00, 0.00, -0.00, -1.00, 591.7, 2.0)">w</text><text xml:space="preserve" font-family="GillSans" font-size="52.0" fill="#000000" transform="matrix(1.00, 0.00, -0.00, -1.00, 629.1, 2.0)">i</text><text xml:space="preserve" font-family="GillSans" font-size="52.0" fill="#000000" transform="matrix(1.00, 0.00, -0.00, -1.00, 640.5, 2.0)">t</text><text xml:space="preserve" font-family="GillSans" font-size="52.0" fill="#000000" transform="matrix(1.00, 0.00, -0.00, -1.00, 657.8, 2.0)">h</text><text xml:space="preserve" font-family="GillSans" font-size="52.0" fill="#000000" transform="matrix(1.00, 0.00, -0.00, -1.00, 683.8, 2.0)"> </text><text xml:space="preserve" font-family="GillSans" font-size="52.0" fill="#000000" transform="matrix(1.00, 0.00, -0.00, -1.00, 698.3, 2.0)">1</text><text xml:space="preserve" font-family="GillSans" font-size="52.0" fill="#000000" transform="matrix(1.00, 0.00, -0.00, -1.00, 724.3, 2.0)">2</text><text xml:space="preserve" font-family="GillSans" font-size="52.0" fill="#000000" transform="matrix(1.00, 0.00, -0.00, -1.00, 750.3, 2.0)">0</text><text xml:space="preserve" font-family="GillSans" font-size="52.0" fill="#000000" transform="matrix(1.00, 0.00, -0.00, -1.00, 776.3, 2.0)">5</text><text xml:space="preserve" font-family="GillSans" font-size="52.0" fill="#000000" transform="matrix(1.00, 0.00, -0.00, -1.00, 802.3, 2.0)"> </text><text xml:space="preserve" font-family="GillSans" font-size="52.0" fill="#000000" transform="matrix(1.00, 0.00, -0.00, -1.00, 816.7, 2.0)">r</text><text xml:space="preserve" font-family="GillSans" font-size="52.0" fill="#000000" transform="matrix(1.00, 0.00, -0.00, -1.00, 836.0, 2.0)">o</text><text xml:space="preserve" font-family="GillSans" font-size="52.0" fill="#000000" transform="matrix(1.00, 0.00, -0.00, -1.00, 864.7, 2.0)">l</text><text xml:space="preserve" font-family="GillSans" font-size="52.0" fill="#000000" transform="matrix(1.00, 0.00, -0.00, -1.00, 876.1, 2.0)">e</text><text xml:space="preserve" font-family="GillSans" font-size="52.0" fill="#000000" transform="matrix(1.00, 0.00, -0.00, -1.00, 901.0, 2.0)"> </text><text xml:space="preserve" font-family="GillSans" font-size="52.0" fill="#000000" transform="matrix(1.00, 0.00, -0.00, -1.00, 915.5, 2.0)">ï¬</text><text xml:space="preserve" font-family="GillSans" font-size="52.0" fill="#000000" transform="matrix(1.00, 0.00, -0.00, -1.00, 941.5, 2.0)">l</text><text xml:space="preserve" font-family="GillSans" font-size="52.0" fill="#000000" transform="matrix(1.00, 0.00, -0.00, -1.00, 952.9, 2.0)">l</text><text xml:space="preserve" font-family="GillSans" font-size="52.0" fill="#000000" transform="matrix(1.00, 0.00, -0.00, -1.00, 964.3, 2.0)">e</text><text xml:space="preserve" font-family="GillSans" font-size="52.0" fill="#000000" transform="matrix(1.00, 0.00, -0.00, -1.00, 989.2, 2.0)">r</text><text xml:space="preserve" font-family="GillSans" font-size="52.0" fill="#000000" transform="matrix(1.00, 0.00, -0.00, -1.00, 1009.8, 2.0)">s</text></g></svg>