<?xml version="1.0" encoding="UTF-8" standalone="no"?><svg xmlns="http://www.w3.org/2000/svg" xmlns:xlink="http://www.w3.org/1999/xlink" clip-rule="evenodd" stroke-miterlimit="4.00" viewBox="0 0 1051 111"><desc>SVG generated by Keynote</desc><defs></defs><g transform="matrix(1.00, 0.00, -0.00, -1.00, 0.0, 111.0)"><g><clipPath id="clip-6121"><path d="M 0.0 81.1 L 20.9 81.1 L 20.9 102.0 L 0.0 102.0 Z M 0.0 81.1 "></path></clipPath><g clip-path="url(#clip-6121)"><path d="M 20.9 91.6 L 10.5 81.1 L 0.0 91.6 L 10.5 102.0 L 20.9 91.6 Z M 20.9 91.6 " fill="#000000"></path></g></g><text xml:space="preserve" font-family="GillSans" font-size="52.0" fill="#000000" transform="matrix(1.00, 0.00, -0.00, -1.00, 40.0, 74.0)">I</text><text xml:space="preserve" font-family="GillSans" font-size="52.0" fill="#000000" transform="matrix(1.00, 0.00, -0.00, -1.00, 53.0, 74.0)">d</text><text xml:space="preserve" font-family="GillSans" font-size="52.0" fill="#000000" transform="matrix(1.00, 0.00, -0.00, -1.00, 79.5, 74.0)">e</text><text xml:space="preserve" font-family="GillSans" font-size="52.0" fill="#000000" transform="matrix(1.00, 0.00, -0.00, -1.00, 104.4, 74.0)">n</text><text xml:space="preserve" font-family="GillSans" font-size="52.0" fill="#000000" transform="matrix(1.00, 0.00, -0.00, -1.00, 130.4, 74.0)">t</text><text xml:space="preserve" font-family="GillSans" font-size="52.0" fill="#000000" transform="matrix(1.00, 0.00, -0.00, -1.00, 147.7, 74.0)">i</text><text xml:space="preserve" font-family="GillSans" font-size="52.0" fill="#000000" transform="matrix(1.00, 0.00, -0.00, -1.00, 159.1, 74.0)">ﬁ</text><text xml:space="preserve" font-family="GillSans" font-size="52.0" fill="#000000" transform="matrix(1.00, 0.00, -0.00, -1.00, 185.1, 74.0)">e</text><text xml:space="preserve" font-family="GillSans" font-size="52.0" fill="#000000" transform="matrix(1.00, 0.00, -0.00, -1.00, 210.0, 74.0)">d</text><text xml:space="preserve" font-family="GillSans" font-size="52.0" fill="#000000" transform="matrix(1.00, 0.00, -0.00, -1.00, 236.5, 74.0)"> </text><text xml:space="preserve" font-family="GillSans" font-size="52.0" fill="#000000" transform="matrix(1.00, 0.00, -0.00, -1.00, 251.0, 74.0)">1</text><text xml:space="preserve" font-family="GillSans" font-size="52.0" fill="#000000" transform="matrix(1.00, 0.00, -0.00, -1.00, 277.0, 74.0)">2</text><text xml:space="preserve" font-family="GillSans" font-size="52.0" fill="#000000" transform="matrix(1.00, 0.00, -0.00, -1.00, 303.0, 74.0)">0</text><text xml:space="preserve" font-family="GillSans" font-size="52.0" fill="#000000" transform="matrix(1.00, 0.00, -0.00, -1.00, 329.0, 74.0)"> </text><text xml:space="preserve" font-family="GillSans" font-size="52.0" fill="#000000" transform="matrix(1.00, 0.00, -0.00, -1.00, 343.4, 74.0)">p</text><text xml:space="preserve" font-family="GillSans" font-size="52.0" fill="#000000" transform="matrix(1.00, 0.00, -0.00, -1.00, 369.4, 74.0)">r</text><text xml:space="preserve" font-family="GillSans" font-size="52.0" fill="#000000" transform="matrix(1.00, 0.00, -0.00, -1.00, 388.7, 74.0)">o</text><text xml:space="preserve" font-family="GillSans" font-size="52.0" fill="#000000" transform="matrix(1.00, 0.00, -0.00, -1.00, 417.4, 74.0)">c</text><text xml:space="preserve" font-family="GillSans" font-size="52.0" fill="#000000" transform="matrix(1.00, 0.00, -0.00, -1.00, 440.2, 74.0)">e</text><text xml:space="preserve" font-family="GillSans" font-size="52.0" fill="#000000" transform="matrix(1.00, 0.00, -0.00, -1.00, 465.1, 74.0)">s</text><text xml:space="preserve" font-family="GillSans" font-size="52.0" fill="#000000" transform="matrix(1.00, 0.00, -0.00, -1.00, 485.1, 74.0)">s</text><text xml:space="preserve" font-family="GillSans" font-size="52.0" fill="#000000" transform="matrix(1.00, 0.00, -0.00, -1.00, 505.1, 74.0)"> </text><text xml:space="preserve" font-family="GillSans" font-size="52.0" fill="#000000" transform="matrix(1.00, 0.00, -0.00, -1.00, 519.5, 74.0)">q</text><text xml:space="preserve" font-family="GillSans" font-size="52.0" fill="#000000" transform="matrix(1.00, 0.00, -0.00, -1.00, 545.5, 74.0)">u</text><text xml:space="preserve" font-family="GillSans" font-size="52.0" fill="#000000" transform="matrix(1.00, 0.00, -0.00, -1.00, 571.5, 74.0)">e</text><text xml:space="preserve" font-family="GillSans" font-size="52.0" fill="#000000" transform="matrix(1.00, 0.00, -0.00, -1.00, 596.4, 74.0)">s</text><text xml:space="preserve" font-family="GillSans" font-size="52.0" fill="#000000" transform="matrix(1.00, 0.00, -0.00, -1.00, 616.4, 74.0)">t</text><text xml:space="preserve" font-family="GillSans" font-size="52.0" fill="#000000" transform="matrix(1.00, 0.00, -0.00, -1.00, 633.7, 74.0)">i</text><text xml:space="preserve" font-family="GillSans" font-size="52.0" fill="#000000" transform="matrix(1.00, 0.00, -0.00, -1.00, 645.1, 74.0)">o</text><text xml:space="preserve" font-family="GillSans" font-size="52.0" fill="#000000" transform="matrix(1.00, 0.00, -0.00, -1.00, 673.8, 74.0)">n</text><text xml:space="preserve" font-family="GillSans" font-size="52.0" fill="#000000" transform="matrix(1.00, 0.00, -0.00, -1.00, 699.8, 74.0)">s</text><text xml:space="preserve" font-family="GillSans" font-size="52.0" fill="#000000" transform="matrix(1.00, 0.00, -0.00, -1.00, 719.8, 74.0)"> </text><text xml:space="preserve" font-family="GillSans" font-size="52.0" fill="#000000" transform="matrix(1.00, 0.00, -0.00, -1.00, 734.3, 74.0)">f</text><text xml:space="preserve" font-family="GillSans" font-size="52.0" fill="#000000" transform="matrix(1.00, 0.00, -0.00, -1.00, 747.3, 74.0)">r</text><text xml:space="preserve" font-family="GillSans" font-size="52.0" fill="#000000" transform="matrix(1.00, 0.00, -0.00, -1.00, 766.6, 74.0)">o</text><text xml:space="preserve" font-family="GillSans" font-size="52.0" fill="#000000" transform="matrix(1.00, 0.00, -0.00, -1.00, 795.2, 74.0)">m</text><text xml:space="preserve" font-family="GillSans" font-size="52.0" fill="#000000" transform="matrix(1.00, 0.00, -0.00, -1.00, 835.3, 74.0)"> </text><text xml:space="preserve" font-family="GillSans" font-size="52.0" fill="#000000" transform="matrix(1.00, 0.00, -0.00, -1.00, 849.8, 74.0)">w</text><text xml:space="preserve" font-family="GillSans" font-size="52.0" fill="#000000" transform="matrix(1.00, 0.00, -0.00, -1.00, 887.2, 74.0)">h</text><text xml:space="preserve" font-family="GillSans" font-size="52.0" fill="#000000" transform="matrix(1.00, 0.00, -0.00, -1.00, 913.2, 74.0)">i</text><text xml:space="preserve" font-family="GillSans" font-size="52.0" fill="#000000" transform="matrix(1.00, 0.00, -0.00, -1.00, 924.6, 74.0)">c</text><text xml:space="preserve" font-family="GillSans" font-size="52.0" fill="#000000" transform="matrix(1.00, 0.00, -0.00, -1.00, 947.4, 74.0)">h</text><text xml:space="preserve" font-family="GillSans" font-size="52.0" fill="#000000" transform="matrix(1.00, 0.00, -0.00, -1.00, 973.4, 74.0)"> </text><text xml:space="preserve" font-family="GillSans" font-size="52.0" fill="#000000" transform="matrix(1.00, 0.00, -0.00, -1.00, 987.8, 74.0)">w</text><text xml:space="preserve" font-family="GillSans" font-size="52.0" fill="#000000" transform="matrix(1.00, 0.00, -0.00, -1.00, 1024.2, 74.0)">e</text><text xml:space="preserve" font-family="GillSans" font-size="52.0" fill="#000000" transform="matrix(1.00, 0.00, -0.00, -1.00, 1049.1, 74.0)"> </text><text xml:space="preserve" font-family="GillSans" font-size="52.0" fill="#000000" transform="matrix(1.00, 0.00, -0.00, -1.00, 40.0, 14.0)">o</text><text xml:space="preserve" font-family="GillSans" font-size="52.0" fill="#000000" transform="matrix(1.00, 0.00, -0.00, -1.00, 68.7, 14.0)">b</text><text xml:space="preserve" font-family="GillSans" font-size="52.0" fill="#000000" transform="matrix(1.00, 0.00, -0.00, -1.00, 94.7, 14.0)">t</text><text xml:space="preserve" font-family="GillSans" font-size="52.0" fill="#000000" transform="matrix(1.00, 0.00, -0.00, -1.00, 112.0, 14.0)">a</text><text xml:space="preserve" font-family="GillSans" font-size="52.0" fill="#000000" transform="matrix(1.00, 0.00, -0.00, -1.00, 134.2, 14.0)">i</text><text xml:space="preserve" font-family="GillSans" font-size="52.0" fill="#000000" transform="matrix(1.00, 0.00, -0.00, -1.00, 145.6, 14.0)">n</text><text xml:space="preserve" font-family="GillSans" font-size="52.0" fill="#000000" transform="matrix(1.00, 0.00, -0.00, -1.00, 171.6, 14.0)">e</text><text xml:space="preserve" font-family="GillSans" font-size="52.0" fill="#000000" transform="matrix(1.00, 0.00, -0.00, -1.00, 196.5, 14.0)">d</text><text xml:space="preserve" font-family="GillSans" font-size="52.0" fill="#000000" transform="matrix(1.00, 0.00, -0.00, -1.00, 223.0, 14.0)"> </text><text xml:space="preserve" font-family="GillSans" font-size="52.0" fill="#000000" transform="matrix(1.00, 0.00, -0.00, -1.00, 237.4, 14.0)">5</text><text xml:space="preserve" font-family="GillSans" font-size="52.0" fill="#000000" transform="matrix(1.00, 0.00, -0.00, -1.00, 263.4, 14.0)">4</text><text xml:space="preserve" font-family="GillSans" font-size="52.0" fill="#000000" transform="matrix(1.00, 0.00, -0.00, -1.00, 289.5, 14.0)"> </text><text xml:space="preserve" font-family="GillSans" font-size="52.0" fill="#000000" transform="matrix(1.00, 0.00, -0.00, -1.00, 303.9, 14.0)">u</text><text xml:space="preserve" font-family="GillSans" font-size="52.0" fill="#000000" transform="matrix(1.00, 0.00, -0.00, -1.00, 329.9, 14.0)">n</text><text xml:space="preserve" font-family="GillSans" font-size="52.0" fill="#000000" transform="matrix(1.00, 0.00, -0.00, -1.00, 355.9, 14.0)">i</text><text xml:space="preserve" font-family="GillSans" font-size="52.0" fill="#000000" transform="matrix(1.00, 0.00, -0.00, -1.00, 367.3, 14.0)">q</text><text xml:space="preserve" font-family="GillSans" font-size="52.0" fill="#000000" transform="matrix(1.00, 0.00, -0.00, -1.00, 393.3, 14.0)">u</text><text xml:space="preserve" font-family="GillSans" font-size="52.0" fill="#000000" transform="matrix(1.00, 0.00, -0.00, -1.00, 419.3, 14.0)">e</text><text xml:space="preserve" font-family="GillSans" font-size="52.0" fill="#000000" transform="matrix(1.00, 0.00, -0.00, -1.00, 444.2, 14.0)"> </text><text xml:space="preserve" font-family="GillSans" font-size="52.0" fill="#000000" transform="matrix(1.00, 0.00, -0.00, -1.00, 458.7, 14.0)">t</text><text xml:space="preserve" font-family="GillSans" font-size="52.0" fill="#000000" transform="matrix(1.00, 0.00, -0.00, -1.00, 476.0, 14.0)">a</text><text xml:space="preserve" font-family="GillSans" font-size="52.0" fill="#000000" transform="matrix(1.00, 0.00, -0.00, -1.00, 498.2, 14.0)">r</text><text xml:space="preserve" font-family="GillSans" font-size="52.0" fill="#000000" transform="matrix(1.00, 0.00, -0.00, -1.00, 518.7, 14.0)">g</text><text xml:space="preserve" font-family="GillSans" font-size="52.0" fill="#000000" transform="matrix(1.00, 0.00, -0.00, -1.00, 540.9, 14.0)">e</text><text xml:space="preserve" font-family="GillSans" font-size="52.0" fill="#000000" transform="matrix(1.00, 0.00, -0.00, -1.00, 565.8, 14.0)">t</text><text xml:space="preserve" font-family="GillSans" font-size="52.0" fill="#000000" transform="matrix(1.00, 0.00, -0.00, -1.00, 583.2, 14.0)"> </text><text xml:space="preserve" font-family="GillSans" font-size="52.0" fill="#000000" transform="matrix(1.00, 0.00, -0.00, -1.00, 597.6, 14.0)">p</text><text xml:space="preserve" font-family="GillSans" font-size="52.0" fill="#000000" transform="matrix(1.00, 0.00, -0.00, -1.00, 623.6, 14.0)">r</text><text xml:space="preserve" font-family="GillSans" font-size="52.0" fill="#000000" transform="matrix(1.00, 0.00, -0.00, -1.00, 642.9, 14.0)">o</text><text xml:space="preserve" font-family="GillSans" font-size="52.0" fill="#000000" transform="matrix(1.00, 0.00, -0.00, -1.00, 671.6, 14.0)">c</text><text xml:space="preserve" font-family="GillSans" font-size="52.0" fill="#000000" transform="matrix(1.00, 0.00, -0.00, -1.00, 694.3, 14.0)">e</text><text xml:space="preserve" font-family="GillSans" font-size="52.0" fill="#000000" transform="matrix(1.00, 0.00, -0.00, -1.00, 719.2, 14.0)">s</text><text xml:space="preserve" font-family="GillSans" font-size="52.0" fill="#000000" transform="matrix(1.00, 0.00, -0.00, -1.00, 739.2, 14.0)">s</text><text xml:space="preserve" font-family="GillSans" font-size="52.0" fill="#000000" transform="matrix(1.00, 0.00, -0.00, -1.00, 759.2, 14.0)">e</text><text xml:space="preserve" font-family="GillSans" font-size="52.0" fill="#000000" transform="matrix(1.00, 0.00, -0.00, -1.00, 784.2, 14.0)">s</text><text xml:space="preserve" font-family="GillSans" font-size="52.0" fill="#000000" transform="matrix(1.00, 0.00, -0.00, -1.00, 804.1, 14.0)">.</text></g></svg>