<?xml version="1.0" encoding="UTF-8" standalone="no"?><svg xmlns="http://www.w3.org/2000/svg" xmlns:xlink="http://www.w3.org/1999/xlink" clip-rule="evenodd" stroke-miterlimit="4.00" viewBox="0 0 1920 1080"><desc>SVG generated by Keynote</desc><defs></defs><g transform="matrix(1.00, 0.00, -0.00, -1.00, 0.0, 1080.0)"><path d="M 0.0 1080.0 L 1920.0 1080.0 L 1920.0 0.0 L 0.0 0.0 Z M 0.0 1080.0 " fill="#FEFFFF"></path><text xml:space="preserve" font-family="GillSans" font-size="112.0" fill="#000000" transform="matrix(1.00, 0.00, -0.00, -1.00, 425.0, 876.0)">R</text><text xml:space="preserve" font-family="GillSans" font-size="112.0" fill="#000000" transform="matrix(1.00, 0.00, -0.00, -1.00, 492.6, 876.0)">o</text><text xml:space="preserve" font-family="GillSans" font-size="112.0" fill="#000000" transform="matrix(1.00, 0.00, -0.00, -1.00, 554.4, 876.0)">l</text><text xml:space="preserve" font-family="GillSans" font-size="112.0" fill="#000000" transform="matrix(1.00, 0.00, -0.00, -1.00, 579.0, 876.0)">e</text><text xml:space="preserve" font-family="GillSans" font-size="112.0" fill="#000000" transform="matrix(1.00, 0.00, -0.00, -1.00, 632.6, 876.0)"> </text><text xml:space="preserve" font-family="GillSans" font-size="112.0" fill="#000000" transform="matrix(1.00, 0.00, -0.00, -1.00, 663.7, 876.0)">C</text><text xml:space="preserve" font-family="GillSans" font-size="112.0" fill="#000000" transform="matrix(1.00, 0.00, -0.00, -1.00, 743.0, 876.0)">l</text><text xml:space="preserve" font-family="GillSans" font-size="112.0" fill="#000000" transform="matrix(1.00, 0.00, -0.00, -1.00, 767.6, 876.0)">a</text><text xml:space="preserve" font-family="GillSans" font-size="112.0" fill="#000000" transform="matrix(1.00, 0.00, -0.00, -1.00, 815.4, 876.0)">s</text><text xml:space="preserve" font-family="GillSans" font-size="112.0" fill="#000000" transform="matrix(1.00, 0.00, -0.00, -1.00, 858.5, 876.0)">s</text><text xml:space="preserve" font-family="GillSans" font-size="112.0" fill="#000000" transform="matrix(1.00, 0.00, -0.00, -1.00, 901.5, 876.0)">i</text><text xml:space="preserve" font-family="GillSans" font-size="112.0" fill="#000000" transform="matrix(1.00, 0.00, -0.00, -1.00, 926.1, 876.0)">ï¬</text><text xml:space="preserve" font-family="GillSans" font-size="112.0" fill="#000000" transform="matrix(1.00, 0.00, -0.00, -1.00, 982.1, 876.0)">e</text><text xml:space="preserve" font-family="GillSans" font-size="112.0" fill="#000000" transform="matrix(1.00, 0.00, -0.00, -1.00, 1035.8, 876.0)">r</text><text xml:space="preserve" font-family="GillSans" font-size="112.0" fill="#000000" transform="matrix(1.00, 0.00, -0.00, -1.00, 1080.1, 876.0)"> </text><text xml:space="preserve" font-family="GillSans" font-size="112.0" fill="#000000" transform="matrix(1.00, 0.00, -0.00, -1.00, 1111.2, 876.0)">F</text><text xml:space="preserve" font-family="GillSans" font-size="112.0" fill="#000000" transform="matrix(1.00, 0.00, -0.00, -1.00, 1162.1, 876.0)">e</text><text xml:space="preserve" font-family="GillSans" font-size="112.0" fill="#000000" transform="matrix(1.00, 0.00, -0.00, -1.00, 1215.7, 876.0)">a</text><text xml:space="preserve" font-family="GillSans" font-size="112.0" fill="#000000" transform="matrix(1.00, 0.00, -0.00, -1.00, 1263.5, 876.0)">t</text><text xml:space="preserve" font-family="GillSans" font-size="112.0" fill="#000000" transform="matrix(1.00, 0.00, -0.00, -1.00, 1300.8, 876.0)">u</text><text xml:space="preserve" font-family="GillSans" font-size="112.0" fill="#000000" transform="matrix(1.00, 0.00, -0.00, -1.00, 1356.8, 876.0)">r</text><text xml:space="preserve" font-family="GillSans" font-size="112.0" fill="#000000" transform="matrix(1.00, 0.00, -0.00, -1.00, 1398.9, 876.0)">e</text><text xml:space="preserve" font-family="GillSans" font-size="112.0" fill="#000000" transform="matrix(1.00, 0.00, -0.00, -1.00, 1452.6, 876.0)">s</text><g><clipPath id="clip-6152"><path d="M 237.0 749.2 L 258.7 749.2 L 258.7 770.9 L 237.0 770.9 Z M 237.0 749.2 "></path></clipPath><g clip-path="url(#clip-6152)"><path d="M 258.7 760.0 L 247.9 749.2 L 237.0 760.0 L 247.9 770.9 L 258.7 760.0 Z M 258.7 760.0 " fill="#000000"></path></g></g><text xml:space="preserve" font-family="GillSans-SemiBold" font-weight="bold" font-size="52.0" fill="#000000" transform="matrix(1.00, 0.00, -0.00, -1.00, 277.0, 742.0)">L</text><text xml:space="preserve" font-family="GillSans-SemiBold" font-weight="bold" font-size="52.0" fill="#000000" transform="matrix(1.00, 0.00, -0.00, -1.00, 305.8, 742.0)">e</text><text xml:space="preserve" font-family="GillSans-SemiBold" font-weight="bold" font-size="52.0" fill="#000000" transform="matrix(1.00, 0.00, -0.00, -1.00, 332.6, 742.0)">x</text><text xml:space="preserve" font-family="GillSans-SemiBold" font-weight="bold" font-size="52.0" fill="#000000" transform="matrix(1.00, 0.00, -0.00, -1.00, 360.1, 742.0)">i</text><text xml:space="preserve" font-family="GillSans-SemiBold" font-weight="bold" font-size="52.0" fill="#000000" transform="matrix(1.00, 0.00, -0.00, -1.00, 373.0, 742.0)">c</text><text xml:space="preserve" font-family="GillSans-SemiBold" font-weight="bold" font-size="52.0" fill="#000000" transform="matrix(1.00, 0.00, -0.00, -1.00, 397.0, 742.0)">a</text><text xml:space="preserve" font-family="GillSans-SemiBold" font-weight="bold" font-size="52.0" fill="#000000" transform="matrix(1.00, 0.00, -0.00, -1.00, 422.1, 742.0)">l</text><text xml:space="preserve" font-family="GillSans-SemiBold" font-weight="bold" font-size="52.0" fill="#000000" transform="matrix(1.00, 0.00, -0.00, -1.00, 435.0, 742.0)"> </text><text xml:space="preserve" font-family="GillSans-SemiBold" font-weight="bold" font-size="52.0" fill="#000000" transform="matrix(1.00, 0.00, -0.00, -1.00, 449.4, 742.0)">a</text><text xml:space="preserve" font-family="GillSans-SemiBold" font-weight="bold" font-size="52.0" fill="#000000" transform="matrix(1.00, 0.00, -0.00, -1.00, 474.5, 742.0)">n</text><text xml:space="preserve" font-family="GillSans-SemiBold" font-weight="bold" font-size="52.0" fill="#000000" transform="matrix(1.00, 0.00, -0.00, -1.00, 502.7, 742.0)">d</text><text xml:space="preserve" font-family="GillSans-SemiBold" font-weight="bold" font-size="52.0" fill="#000000" transform="matrix(1.00, 0.00, -0.00, -1.00, 531.1, 742.0)"> </text><text xml:space="preserve" font-family="GillSans-SemiBold" font-weight="bold" font-size="52.0" fill="#000000" transform="matrix(1.00, 0.00, -0.00, -1.00, 545.6, 742.0)">S</text><text xml:space="preserve" font-family="GillSans-SemiBold" font-weight="bold" font-size="52.0" fill="#000000" transform="matrix(1.00, 0.00, -0.00, -1.00, 572.8, 742.0)">y</text><text xml:space="preserve" font-family="GillSans-SemiBold" font-weight="bold" font-size="52.0" fill="#000000" transform="matrix(1.00, 0.00, -0.00, -1.00, 597.7, 742.0)">n</text><text xml:space="preserve" font-family="GillSans-SemiBold" font-weight="bold" font-size="52.0" fill="#000000" transform="matrix(1.00, 0.00, -0.00, -1.00, 625.8, 742.0)">t</text><text xml:space="preserve" font-family="GillSans-SemiBold" font-weight="bold" font-size="52.0" fill="#000000" transform="matrix(1.00, 0.00, -0.00, -1.00, 645.0, 742.0)">a</text><text xml:space="preserve" font-family="GillSans-SemiBold" font-weight="bold" font-size="52.0" fill="#000000" transform="matrix(1.00, 0.00, -0.00, -1.00, 670.1, 742.0)">c</text><text xml:space="preserve" font-family="GillSans-SemiBold" font-weight="bold" font-size="52.0" fill="#000000" transform="matrix(1.00, 0.00, -0.00, -1.00, 694.1, 742.0)">t</text><text xml:space="preserve" font-family="GillSans-SemiBold" font-weight="bold" font-size="52.0" fill="#000000" transform="matrix(1.00, 0.00, -0.00, -1.00, 713.3, 742.0)">i</text><text xml:space="preserve" font-family="GillSans-SemiBold" font-weight="bold" font-size="52.0" fill="#000000" transform="matrix(1.00, 0.00, -0.00, -1.00, 726.2, 742.0)">c</text><text xml:space="preserve" font-family="GillSans-SemiBold" font-weight="bold" font-size="52.0" fill="#000000" transform="matrix(1.00, 0.00, -0.00, -1.00, 750.2, 742.0)"> </text><text xml:space="preserve" font-family="GillSans-SemiBold" font-weight="bold" font-size="52.0" fill="#000000" transform="matrix(1.00, 0.00, -0.00, -1.00, 764.6, 742.0)">f</text><text xml:space="preserve" font-family="GillSans-SemiBold" font-weight="bold" font-size="52.0" fill="#000000" transform="matrix(1.00, 0.00, -0.00, -1.00, 778.8, 742.0)">e</text><text xml:space="preserve" font-family="GillSans-SemiBold" font-weight="bold" font-size="52.0" fill="#000000" transform="matrix(1.00, 0.00, -0.00, -1.00, 805.6, 742.0)">a</text><text xml:space="preserve" font-family="GillSans-SemiBold" font-weight="bold" font-size="52.0" fill="#000000" transform="matrix(1.00, 0.00, -0.00, -1.00, 830.7, 742.0)">t</text><text xml:space="preserve" font-family="GillSans-SemiBold" font-weight="bold" font-size="52.0" fill="#000000" transform="matrix(1.00, 0.00, -0.00, -1.00, 849.9, 742.0)">u</text><text xml:space="preserve" font-family="GillSans-SemiBold" font-weight="bold" font-size="52.0" fill="#000000" transform="matrix(1.00, 0.00, -0.00, -1.00, 878.0, 742.0)">r</text><text xml:space="preserve" font-family="GillSans-SemiBold" font-weight="bold" font-size="52.0" fill="#000000" transform="matrix(1.00, 0.00, -0.00, -1.00, 898.7, 742.0)">e</text><text xml:space="preserve" font-family="GillSans-SemiBold" font-weight="bold" font-size="52.0" fill="#000000" transform="matrix(1.00, 0.00, -0.00, -1.00, 925.6, 742.0)">s</text><text xml:space="preserve" font-family="GillSans-SemiBold" font-weight="bold" font-size="52.0" fill="#000000" transform="matrix(1.00, 0.00, -0.00, -1.00, 946.5, 742.0)">:</text><text xml:space="preserve" font-family="GillSans-SemiBold" font-weight="bold" font-size="52.0" fill="#000000" transform="matrix(1.00, 0.00, -0.00, -1.00, 959.4, 742.0)"> </text><text xml:space="preserve" font-family="GillSans-SemiBoldItalic" font-style="italic" font-weight="bold" font-size="49.0" fill="#000000" transform="matrix(1.00, 0.00, -0.00, -1.00, 277.0, 664.3)">(</text><text xml:space="preserve" font-family="GillSans-SemiBoldItalic" font-style="italic" font-weight="bold" font-size="49.0" fill="#000000" transform="matrix(1.00, 0.00, -0.00, -1.00, 291.3, 664.3)">i</text><text xml:space="preserve" font-family="GillSans-SemiBoldItalic" font-style="italic" font-weight="bold" font-size="49.0" fill="#000000" transform="matrix(1.00, 0.00, -0.00, -1.00, 302.5, 664.3)">)</text><text xml:space="preserve" font-family="GillSans-Italic" font-style="italic" font-size="49.0" fill="#000000" transform="matrix(1.00, 0.00, -0.00, -1.00, 360.0, 664.0)">L</text><text xml:space="preserve" font-family="GillSans-Italic" font-style="italic" font-size="49.0" fill="#000000" transform="matrix(1.00, 0.00, -0.00, -1.00, 380.4, 664.0)">e</text><text xml:space="preserve" font-family="GillSans-Italic" font-style="italic" font-size="49.0" fill="#000000" transform="matrix(1.00, 0.00, -0.00, -1.00, 401.9, 664.0)">x</text><text xml:space="preserve" font-family="GillSans-Italic" font-style="italic" font-size="49.0" fill="#000000" transform="matrix(1.00, 0.00, -0.00, -1.00, 422.8, 664.0)">i</text><text xml:space="preserve" font-family="GillSans-Italic" font-style="italic" font-size="49.0" fill="#000000" transform="matrix(1.00, 0.00, -0.00, -1.00, 432.0, 664.0)">c</text><text xml:space="preserve" font-family="GillSans-Italic" font-style="italic" font-size="49.0" fill="#000000" transform="matrix(1.00, 0.00, -0.00, -1.00, 450.9, 664.0)">a</text><text xml:space="preserve" font-family="GillSans-Italic" font-style="italic" font-size="49.0" fill="#000000" transform="matrix(1.00, 0.00, -0.00, -1.00, 473.9, 664.0)">l</text><text xml:space="preserve" font-family="GillSans-Italic" font-style="italic" font-size="49.0" fill="#000000" transform="matrix(1.00, 0.00, -0.00, -1.00, 483.1, 664.0)"> </text><text xml:space="preserve" font-family="GillSans-Italic" font-style="italic" font-size="49.0" fill="#000000" transform="matrix(1.00, 0.00, -0.00, -1.00, 496.7, 664.0)">a</text><text xml:space="preserve" font-family="GillSans-Italic" font-style="italic" font-size="49.0" fill="#000000" transform="matrix(1.00, 0.00, -0.00, -1.00, 519.7, 664.0)">n</text><text xml:space="preserve" font-family="GillSans-Italic" font-style="italic" font-size="49.0" fill="#000000" transform="matrix(1.00, 0.00, -0.00, -1.00, 542.7, 664.0)">d</text><text xml:space="preserve" font-family="GillSans-Italic" font-style="italic" font-size="49.0" fill="#000000" transform="matrix(1.00, 0.00, -0.00, -1.00, 565.7, 664.0)"> </text><text xml:space="preserve" font-family="GillSans-Italic" font-style="italic" font-size="49.0" fill="#000000" transform="matrix(1.00, 0.00, -0.00, -1.00, 579.3, 664.0)">s</text><text xml:space="preserve" font-family="GillSans-Italic" font-style="italic" font-size="49.0" fill="#000000" transform="matrix(1.00, 0.00, -0.00, -1.00, 596.6, 664.0)">y</text><text xml:space="preserve" font-family="GillSans-Italic" font-style="italic" font-size="49.0" fill="#000000" transform="matrix(1.00, 0.00, -0.00, -1.00, 615.0, 664.0)">n</text><text xml:space="preserve" font-family="GillSans-Italic" font-style="italic" font-size="49.0" fill="#000000" transform="matrix(1.00, 0.00, -0.00, -1.00, 638.0, 664.0)">t</text><text xml:space="preserve" font-family="GillSans-Italic" font-style="italic" font-size="49.0" fill="#000000" transform="matrix(1.00, 0.00, -0.00, -1.00, 651.8, 664.0)">a</text><text xml:space="preserve" font-family="GillSans-Italic" font-style="italic" font-size="49.0" fill="#000000" transform="matrix(1.00, 0.00, -0.00, -1.00, 674.8, 664.0)">c</text><text xml:space="preserve" font-family="GillSans-Italic" font-style="italic" font-size="49.0" fill="#000000" transform="matrix(1.00, 0.00, -0.00, -1.00, 693.6, 664.0)">t</text><text xml:space="preserve" font-family="GillSans-Italic" font-style="italic" font-size="49.0" fill="#000000" transform="matrix(1.00, 0.00, -0.00, -1.00, 707.3, 664.0)">i</text><text xml:space="preserve" font-family="GillSans-Italic" font-style="italic" font-size="49.0" fill="#000000" transform="matrix(1.00, 0.00, -0.00, -1.00, 716.6, 664.0)">c</text><text xml:space="preserve" font-family="GillSans-Italic" font-style="italic" font-size="49.0" fill="#000000" transform="matrix(1.00, 0.00, -0.00, -1.00, 735.4, 664.0)"> </text><text xml:space="preserve" font-family="GillSans-Italic" font-style="italic" font-size="49.0" fill="#000000" transform="matrix(1.00, 0.00, -0.00, -1.00, 749.0, 664.0)">c</text><text xml:space="preserve" font-family="GillSans-Italic" font-style="italic" font-size="49.0" fill="#000000" transform="matrix(1.00, 0.00, -0.00, -1.00, 767.8, 664.0)">o</text><text xml:space="preserve" font-family="GillSans-Italic" font-style="italic" font-size="49.0" fill="#000000" transform="matrix(1.00, 0.00, -0.00, -1.00, 789.8, 664.0)">n</text><text xml:space="preserve" font-family="GillSans-Italic" font-style="italic" font-size="49.0" fill="#000000" transform="matrix(1.00, 0.00, -0.00, -1.00, 812.8, 664.0)">t</text><text xml:space="preserve" font-family="GillSans-Italic" font-style="italic" font-size="49.0" fill="#000000" transform="matrix(1.00, 0.00, -0.00, -1.00, 826.6, 664.0)">e</text><text xml:space="preserve" font-family="GillSans-Italic" font-style="italic" font-size="49.0" fill="#000000" transform="matrix(1.00, 0.00, -0.00, -1.00, 848.0, 664.0)">x</text><text xml:space="preserve" font-family="GillSans-Italic" font-style="italic" font-size="49.0" fill="#000000" transform="matrix(1.00, 0.00, -0.00, -1.00, 868.9, 664.0)">t</text><text xml:space="preserve" font-family="GillSans-Italic" font-style="italic" font-size="49.0" fill="#000000" transform="matrix(1.00, 0.00, -0.00, -1.00, 882.7, 664.0)">s</text><text xml:space="preserve" font-family="GillSans-Italic" font-style="italic" font-size="49.0" fill="#000000" transform="matrix(1.00, 0.00, -0.00, -1.00, 900.0, 664.0)"> </text><text xml:space="preserve" font-family="GillSans-Italic" font-style="italic" font-size="49.0" fill="#000000" transform="matrix(1.00, 0.00, -0.00, -1.00, 913.6, 664.0)">o</text><text xml:space="preserve" font-family="GillSans-Italic" font-style="italic" font-size="49.0" fill="#000000" transform="matrix(1.00, 0.00, -0.00, -1.00, 935.6, 664.0)">f</text><text xml:space="preserve" font-family="GillSans-Italic" font-style="italic" font-size="49.0" fill="#000000" transform="matrix(1.00, 0.00, -0.00, -1.00, 948.9, 664.0)"> </text><text xml:space="preserve" font-family="GillSans-Italic" font-style="italic" font-size="49.0" fill="#000000" transform="matrix(1.00, 0.00, -0.00, -1.00, 962.5, 664.0)">a</text><text xml:space="preserve" font-family="GillSans-Italic" font-style="italic" font-size="49.0" fill="#000000" transform="matrix(1.00, 0.00, -0.00, -1.00, 985.5, 664.0)">r</text><text xml:space="preserve" font-family="GillSans-Italic" font-style="italic" font-size="49.0" fill="#000000" transform="matrix(1.00, 0.00, -0.00, -1.00, 1000.8, 664.0)">g</text><text xml:space="preserve" font-family="GillSans-Italic" font-style="italic" font-size="49.0" fill="#000000" transform="matrix(1.00, 0.00, -0.00, -1.00, 1021.7, 664.0)">u</text><text xml:space="preserve" font-family="GillSans-Italic" font-style="italic" font-size="49.0" fill="#000000" transform="matrix(1.00, 0.00, -0.00, -1.00, 1044.7, 664.0)">m</text><text xml:space="preserve" font-family="GillSans-Italic" font-style="italic" font-size="49.0" fill="#000000" transform="matrix(1.00, 0.00, -0.00, -1.00, 1081.0, 664.0)">e</text><text xml:space="preserve" font-family="GillSans-Italic" font-style="italic" font-size="49.0" fill="#000000" transform="matrix(1.00, 0.00, -0.00, -1.00, 1102.5, 664.0)">n</text><text xml:space="preserve" font-family="GillSans-Italic" font-style="italic" font-size="49.0" fill="#000000" transform="matrix(1.00, 0.00, -0.00, -1.00, 1125.5, 664.0)">t</text><text xml:space="preserve" font-family="GillSans-Italic" font-style="italic" font-size="49.0" fill="#000000" transform="matrix(1.00, 0.00, -0.00, -1.00, 1139.2, 664.0)">s</text><text xml:space="preserve" font-family="GillSans-Italic" font-style="italic" font-size="49.0" fill="#000000" transform="matrix(1.00, 0.00, -0.00, -1.00, 1156.6, 664.0)"> </text><text xml:space="preserve" font-family="GillSans-Italic" font-style="italic" font-size="49.0" fill="#000000" transform="matrix(1.00, 0.00, -0.00, -1.00, 1170.2, 664.0)">(</text><text xml:space="preserve" font-family="GillSans-Italic" font-style="italic" font-size="49.0" fill="#000000" transform="matrix(1.00, 0.00, -0.00, -1.00, 1184.5, 664.0)">e</text><text xml:space="preserve" font-family="GillSans-Italic" font-style="italic" font-size="49.0" fill="#000000" transform="matrix(1.00, 0.00, -0.00, -1.00, 1207.4, 664.0)">.</text><text xml:space="preserve" font-family="GillSans-Italic" font-style="italic" font-size="49.0" fill="#000000" transform="matrix(1.00, 0.00, -0.00, -1.00, 1217.1, 664.0)">g</text><text xml:space="preserve" font-family="GillSans-Italic" font-style="italic" font-size="49.0" fill="#000000" transform="matrix(1.00, 0.00, -0.00, -1.00, 1238.0, 664.0)">.</text><text xml:space="preserve" font-family="GillSans-Italic" font-style="italic" font-size="49.0" fill="#000000" transform="matrix(1.00, 0.00, -0.00, -1.00, 1247.8, 664.0)">,</text><text xml:space="preserve" font-family="GillSans-Italic" font-style="italic" font-size="49.0" fill="#000000" transform="matrix(1.00, 0.00, -0.00, -1.00, 1252.6, 664.0)"> </text><text xml:space="preserve" font-family="GillSans-Italic" font-style="italic" font-size="49.0" fill="#000000" transform="matrix(1.00, 0.00, -0.00, -1.00, 1266.2, 664.0)">h</text><text xml:space="preserve" font-family="GillSans-Italic" font-style="italic" font-size="49.0" fill="#000000" transform="matrix(1.00, 0.00, -0.00, -1.00, 1289.2, 664.0)">e</text><text xml:space="preserve" font-family="GillSans-Italic" font-style="italic" font-size="49.0" fill="#000000" transform="matrix(1.00, 0.00, -0.00, -1.00, 1310.6, 664.0)">a</text><text xml:space="preserve" font-family="GillSans-Italic" font-style="italic" font-size="49.0" fill="#000000" transform="matrix(1.00, 0.00, -0.00, -1.00, 1333.6, 664.0)">d</text><text xml:space="preserve" font-family="GillSans-Italic" font-style="italic" font-size="49.0" fill="#000000" transform="matrix(1.00, 0.00, -0.00, -1.00, 1356.6, 664.0)"> </text><text xml:space="preserve" font-family="GillSans-Italic" font-style="italic" font-size="49.0" fill="#000000" transform="matrix(1.00, 0.00, -0.00, -1.00, 1370.2, 664.0)">w</text><text xml:space="preserve" font-family="GillSans-Italic" font-style="italic" font-size="49.0" fill="#000000" transform="matrix(1.00, 0.00, -0.00, -1.00, 1400.4, 664.0)">o</text><text xml:space="preserve" font-family="GillSans-Italic" font-style="italic" font-size="49.0" fill="#000000" transform="matrix(1.00, 0.00, -0.00, -1.00, 1422.4, 664.0)">r</text><text xml:space="preserve" font-family="GillSans-Italic" font-style="italic" font-size="49.0" fill="#000000" transform="matrix(1.00, 0.00, -0.00, -1.00, 1436.7, 664.0)">d</text><text xml:space="preserve" font-family="GillSans-Italic" font-style="italic" font-size="49.0" fill="#000000" transform="matrix(1.00, 0.00, -0.00, -1.00, 1459.7, 664.0)">,</text><text xml:space="preserve" font-family="GillSans-Italic" font-style="italic" font-size="49.0" fill="#000000" transform="matrix(1.00, 0.00, -0.00, -1.00, 1464.6, 664.0)"> </text><text xml:space="preserve" font-family="GillSans-Italic" font-style="italic" font-size="49.0" fill="#000000" transform="matrix(1.00, 0.00, -0.00, -1.00, 1478.2, 664.0)">i</text><text xml:space="preserve" font-family="GillSans-Italic" font-style="italic" font-size="49.0" fill="#000000" transform="matrix(1.00, 0.00, -0.00, -1.00, 1487.4, 664.0)">t</text><text xml:space="preserve" font-family="GillSans-Italic" font-style="italic" font-size="49.0" fill="#000000" transform="matrix(1.00, 0.00, -0.00, -1.00, 1501.1, 664.0)">s</text><text xml:space="preserve" font-family="GillSans-Italic" font-style="italic" font-size="49.0" fill="#000000" transform="matrix(1.00, 0.00, -0.00, -1.00, 1518.5, 664.0)"> </text><text xml:space="preserve" font-family="GillSans-Italic" font-style="italic" font-size="49.0" fill="#000000" transform="matrix(1.00, 0.00, -0.00, -1.00, 1532.1, 664.0)">P</text><text xml:space="preserve" font-family="GillSans-Italic" font-style="italic" font-size="49.0" fill="#000000" transform="matrix(1.00, 0.00, -0.00, -1.00, 1554.0, 664.0)">O</text><text xml:space="preserve" font-family="GillSans-Italic" font-style="italic" font-size="49.0" fill="#000000" transform="matrix(1.00, 0.00, -0.00, -1.00, 1586.2, 664.0)">S</text><text xml:space="preserve" font-family="GillSans-Italic" font-style="italic" font-size="49.0" fill="#000000" transform="matrix(1.00, 0.00, -0.00, -1.00, 1608.6, 664.0)"> </text><text xml:space="preserve" font-family="GillSans-Italic" font-style="italic" font-size="49.0" fill="#000000" transform="matrix(1.00, 0.00, -0.00, -1.00, 1622.2, 664.0)">t</text><text xml:space="preserve" font-family="GillSans-Italic" font-style="italic" font-size="49.0" fill="#000000" transform="matrix(1.00, 0.00, -0.00, -1.00, 1636.0, 664.0)">a</text><text xml:space="preserve" font-family="GillSans-Italic" font-style="italic" font-size="49.0" fill="#000000" transform="matrix(1.00, 0.00, -0.00, -1.00, 1659.0, 664.0)">g</text><text xml:space="preserve" font-family="GillSans-Italic" font-style="italic" font-size="49.0" fill="#000000" transform="matrix(1.00, 0.00, -0.00, -1.00, 1679.9, 664.0)"> </text><text xml:space="preserve" font-family="GillSans-Italic" font-style="italic" font-size="49.0" fill="#000000" transform="matrix(1.00, 0.00, -0.00, -1.00, 1693.5, 664.0)">e</text><text xml:space="preserve" font-family="GillSans-Italic" font-style="italic" font-size="49.0" fill="#000000" transform="matrix(1.00, 0.00, -0.00, -1.00, 1714.9, 664.0)">t</text><text xml:space="preserve" font-family="GillSans-Italic" font-style="italic" font-size="49.0" fill="#000000" transform="matrix(1.00, 0.00, -0.00, -1.00, 1728.7, 664.0)">c</text><text xml:space="preserve" font-family="GillSans-Italic" font-style="italic" font-size="49.0" fill="#000000" transform="matrix(1.00, 0.00, -0.00, -1.00, 1750.5, 664.0)">.</text><text xml:space="preserve" font-family="GillSans-Italic" font-style="italic" font-size="49.0" fill="#000000" transform="matrix(1.00, 0.00, -0.00, -1.00, 1760.2, 664.0)">)</text><text xml:space="preserve" font-family="GillSans-SemiBoldItalic" font-style="italic" font-weight="bold" font-size="49.0" fill="#000000" transform="matrix(1.00, 0.00, -0.00, -1.00, 277.0, 588.3)">(</text><text xml:space="preserve" font-family="GillSans-SemiBoldItalic" font-style="italic" font-weight="bold" font-size="49.0" fill="#000000" transform="matrix(1.00, 0.00, -0.00, -1.00, 291.3, 588.3)">i</text><text xml:space="preserve" font-family="GillSans-SemiBoldItalic" font-style="italic" font-weight="bold" font-size="49.0" fill="#000000" transform="matrix(1.00, 0.00, -0.00, -1.00, 302.5, 588.3)">i</text><text xml:space="preserve" font-family="GillSans-SemiBoldItalic" font-style="italic" font-weight="bold" font-size="49.0" fill="#000000" transform="matrix(1.00, 0.00, -0.00, -1.00, 313.8, 588.3)">)</text><text xml:space="preserve" font-family="GillSans-Italic" font-style="italic" font-size="49.0" fill="#000000" transform="matrix(1.00, 0.00, -0.00, -1.00, 360.0, 588.0)">P</text><text xml:space="preserve" font-family="GillSans-Italic" font-style="italic" font-size="49.0" fill="#000000" transform="matrix(1.00, 0.00, -0.00, -1.00, 382.0, 588.0)">r</text><text xml:space="preserve" font-family="GillSans-Italic" font-style="italic" font-size="49.0" fill="#000000" transform="matrix(1.00, 0.00, -0.00, -1.00, 396.8, 588.0)">e</text><text xml:space="preserve" font-family="GillSans-Italic" font-style="italic" font-size="49.0" fill="#000000" transform="matrix(1.00, 0.00, -0.00, -1.00, 418.3, 588.0)">d</text><text xml:space="preserve" font-family="GillSans-Italic" font-style="italic" font-size="49.0" fill="#000000" transform="matrix(1.00, 0.00, -0.00, -1.00, 441.3, 588.0)">i</text><text xml:space="preserve" font-family="GillSans-Italic" font-style="italic" font-size="49.0" fill="#000000" transform="matrix(1.00, 0.00, -0.00, -1.00, 450.5, 588.0)">c</text><text xml:space="preserve" font-family="GillSans-Italic" font-style="italic" font-size="49.0" fill="#000000" transform="matrix(1.00, 0.00, -0.00, -1.00, 469.3, 588.0)">a</text><text xml:space="preserve" font-family="GillSans-Italic" font-style="italic" font-size="49.0" fill="#000000" transform="matrix(1.00, 0.00, -0.00, -1.00, 492.4, 588.0)">t</text><text xml:space="preserve" font-family="GillSans-Italic" font-style="italic" font-size="49.0" fill="#000000" transform="matrix(1.00, 0.00, -0.00, -1.00, 506.1, 588.0)">e</text><text xml:space="preserve" font-family="GillSans-Italic" font-style="italic" font-size="49.0" fill="#000000" transform="matrix(1.00, 0.00, -0.00, -1.00, 527.6, 588.0)">-</text><text xml:space="preserve" font-family="GillSans-Italic" font-style="italic" font-size="49.0" fill="#000000" transform="matrix(1.00, 0.00, -0.00, -1.00, 539.8, 588.0)">a</text><text xml:space="preserve" font-family="GillSans-Italic" font-style="italic" font-size="49.0" fill="#000000" transform="matrix(1.00, 0.00, -0.00, -1.00, 562.8, 588.0)">r</text><text xml:space="preserve" font-family="GillSans-Italic" font-style="italic" font-size="49.0" fill="#000000" transform="matrix(1.00, 0.00, -0.00, -1.00, 578.1, 588.0)">g</text><text xml:space="preserve" font-family="GillSans-Italic" font-style="italic" font-size="49.0" fill="#000000" transform="matrix(1.00, 0.00, -0.00, -1.00, 599.1, 588.0)">u</text><text xml:space="preserve" font-family="GillSans-Italic" font-style="italic" font-size="49.0" fill="#000000" transform="matrix(1.00, 0.00, -0.00, -1.00, 622.1, 588.0)">m</text><text xml:space="preserve" font-family="GillSans-Italic" font-style="italic" font-size="49.0" fill="#000000" transform="matrix(1.00, 0.00, -0.00, -1.00, 658.3, 588.0)">e</text><text xml:space="preserve" font-family="GillSans-Italic" font-style="italic" font-size="49.0" fill="#000000" transform="matrix(1.00, 0.00, -0.00, -1.00, 679.8, 588.0)">n</text><text xml:space="preserve" font-family="GillSans-Italic" font-style="italic" font-size="49.0" fill="#000000" transform="matrix(1.00, 0.00, -0.00, -1.00, 702.8, 588.0)">t</text><text xml:space="preserve" font-family="GillSans-Italic" font-style="italic" font-size="49.0" fill="#000000" transform="matrix(1.00, 0.00, -0.00, -1.00, 716.5, 588.0)"> </text><text xml:space="preserve" font-family="GillSans-Italic" font-style="italic" font-size="49.0" fill="#000000" transform="matrix(1.00, 0.00, -0.00, -1.00, 730.1, 588.0)">p</text><text xml:space="preserve" font-family="GillSans-Italic" font-style="italic" font-size="49.0" fill="#000000" transform="matrix(1.00, 0.00, -0.00, -1.00, 754.2, 588.0)">a</text><text xml:space="preserve" font-family="GillSans-Italic" font-style="italic" font-size="49.0" fill="#000000" transform="matrix(1.00, 0.00, -0.00, -1.00, 777.2, 588.0)">t</text><text xml:space="preserve" font-family="GillSans-Italic" font-style="italic" font-size="49.0" fill="#000000" transform="matrix(1.00, 0.00, -0.00, -1.00, 790.9, 588.0)">h</text><text xml:space="preserve" font-family="GillSans-Italic" font-style="italic" font-size="49.0" fill="#000000" transform="matrix(1.00, 0.00, -0.00, -1.00, 813.9, 588.0)">s</text><text xml:space="preserve" font-family="GillSans-Italic" font-style="italic" font-size="49.0" fill="#000000" transform="matrix(1.00, 0.00, -0.00, -1.00, 831.3, 588.0)"> </text><text xml:space="preserve" font-family="GillSans-Italic" font-style="italic" font-size="49.0" fill="#000000" transform="matrix(1.00, 0.00, -0.00, -1.00, 844.9, 588.0)">(</text><text xml:space="preserve" font-family="GillSans-Italic" font-style="italic" font-size="49.0" fill="#000000" transform="matrix(1.00, 0.00, -0.00, -1.00, 859.2, 588.0)">e</text><text xml:space="preserve" font-family="GillSans-Italic" font-style="italic" font-size="49.0" fill="#000000" transform="matrix(1.00, 0.00, -0.00, -1.00, 882.1, 588.0)">.</text><text xml:space="preserve" font-family="GillSans-Italic" font-style="italic" font-size="49.0" fill="#000000" transform="matrix(1.00, 0.00, -0.00, -1.00, 891.8, 588.0)">g</text><text xml:space="preserve" font-family="GillSans-Italic" font-style="italic" font-size="49.0" fill="#000000" transform="matrix(1.00, 0.00, -0.00, -1.00, 912.7, 588.0)">,</text><text xml:space="preserve" font-family="GillSans-Italic" font-style="italic" font-size="49.0" fill="#000000" transform="matrix(1.00, 0.00, -0.00, -1.00, 917.6, 588.0)"> </text><text xml:space="preserve" font-family="GillSans-Italic" font-style="italic" font-size="49.0" fill="#000000" transform="matrix(1.00, 0.00, -0.00, -1.00, 931.2, 588.0)">d</text><text xml:space="preserve" font-family="GillSans-Italic" font-style="italic" font-size="49.0" fill="#000000" transform="matrix(1.00, 0.00, -0.00, -1.00, 954.2, 588.0)">e</text><text xml:space="preserve" font-family="GillSans-Italic" font-style="italic" font-size="49.0" fill="#000000" transform="matrix(1.00, 0.00, -0.00, -1.00, 975.6, 588.0)">p</text><text xml:space="preserve" font-family="GillSans-Italic" font-style="italic" font-size="49.0" fill="#000000" transform="matrix(1.00, 0.00, -0.00, -1.00, 999.7, 588.0)">e</text><text xml:space="preserve" font-family="GillSans-Italic" font-style="italic" font-size="49.0" fill="#000000" transform="matrix(1.00, 0.00, -0.00, -1.00, 1021.1, 588.0)">n</text><text xml:space="preserve" font-family="GillSans-Italic" font-style="italic" font-size="49.0" fill="#000000" transform="matrix(1.00, 0.00, -0.00, -1.00, 1044.1, 588.0)">d</text><text xml:space="preserve" font-family="GillSans-Italic" font-style="italic" font-size="49.0" fill="#000000" transform="matrix(1.00, 0.00, -0.00, -1.00, 1067.1, 588.0)">e</text><text xml:space="preserve" font-family="GillSans-Italic" font-style="italic" font-size="49.0" fill="#000000" transform="matrix(1.00, 0.00, -0.00, -1.00, 1088.6, 588.0)">n</text><text xml:space="preserve" font-family="GillSans-Italic" font-style="italic" font-size="49.0" fill="#000000" transform="matrix(1.00, 0.00, -0.00, -1.00, 1111.6, 588.0)">c</text><text xml:space="preserve" font-family="GillSans-Italic" font-style="italic" font-size="49.0" fill="#000000" transform="matrix(1.00, 0.00, -0.00, -1.00, 1131.6, 588.0)">y</text><text xml:space="preserve" font-family="GillSans-Italic" font-style="italic" font-size="49.0" fill="#000000" transform="matrix(1.00, 0.00, -0.00, -1.00, 1150.0, 588.0)"> </text><text xml:space="preserve" font-family="GillSans-Italic" font-style="italic" font-size="49.0" fill="#000000" transform="matrix(1.00, 0.00, -0.00, -1.00, 1163.6, 588.0)">p</text><text xml:space="preserve" font-family="GillSans-Italic" font-style="italic" font-size="49.0" fill="#000000" transform="matrix(1.00, 0.00, -0.00, -1.00, 1187.7, 588.0)">a</text><text xml:space="preserve" font-family="GillSans-Italic" font-style="italic" font-size="49.0" fill="#000000" transform="matrix(1.00, 0.00, -0.00, -1.00, 1210.7, 588.0)">t</text><text xml:space="preserve" font-family="GillSans-Italic" font-style="italic" font-size="49.0" fill="#000000" transform="matrix(1.00, 0.00, -0.00, -1.00, 1224.4, 588.0)">h</text><text xml:space="preserve" font-family="GillSans-Italic" font-style="italic" font-size="49.0" fill="#000000" transform="matrix(1.00, 0.00, -0.00, -1.00, 1247.4, 588.0)">s</text><text xml:space="preserve" font-family="GillSans-Italic" font-style="italic" font-size="49.0" fill="#000000" transform="matrix(1.00, 0.00, -0.00, -1.00, 1264.8, 588.0)">)</text><text xml:space="preserve" font-family="GillSans-Italic" font-style="italic" font-size="49.0" fill="#000000" transform="matrix(1.00, 0.00, -0.00, -1.00, 1279.1, 588.0)"> </text><text xml:space="preserve" font-family="GillSans-SemiBoldItalic" font-style="italic" font-weight="bold" font-size="49.0" fill="#000000" transform="matrix(1.00, 0.00, -0.00, -1.00, 277.0, 512.3)">(</text><text xml:space="preserve" font-family="GillSans-SemiBoldItalic" font-style="italic" font-weight="bold" font-size="49.0" fill="#000000" transform="matrix(1.00, 0.00, -0.00, -1.00, 291.3, 512.3)">i</text><text xml:space="preserve" font-family="GillSans-SemiBoldItalic" font-style="italic" font-weight="bold" font-size="49.0" fill="#000000" transform="matrix(1.00, 0.00, -0.00, -1.00, 302.5, 512.3)">i</text><text xml:space="preserve" font-family="GillSans-SemiBoldItalic" font-style="italic" font-weight="bold" font-size="49.0" fill="#000000" transform="matrix(1.00, 0.00, -0.00, -1.00, 313.8, 512.3)">i</text><text xml:space="preserve" font-family="GillSans-SemiBoldItalic" font-style="italic" font-weight="bold" font-size="49.0" fill="#000000" transform="matrix(1.00, 0.00, -0.00, -1.00, 325.0, 512.3)">)</text><text xml:space="preserve" font-family="GillSans-Italic" font-style="italic" font-size="49.0" fill="#000000" transform="matrix(1.00, 0.00, -0.00, -1.00, 360.0, 512.0)">S</text><text xml:space="preserve" font-family="GillSans-Italic" font-style="italic" font-size="49.0" fill="#000000" transform="matrix(1.00, 0.00, -0.00, -1.00, 382.4, 512.0)">y</text><text xml:space="preserve" font-family="GillSans-Italic" font-style="italic" font-size="49.0" fill="#000000" transform="matrix(1.00, 0.00, -0.00, -1.00, 400.8, 512.0)">n</text><text xml:space="preserve" font-family="GillSans-Italic" font-style="italic" font-size="49.0" fill="#000000" transform="matrix(1.00, 0.00, -0.00, -1.00, 423.8, 512.0)">t</text><text xml:space="preserve" font-family="GillSans-Italic" font-style="italic" font-size="49.0" fill="#000000" transform="matrix(1.00, 0.00, -0.00, -1.00, 437.6, 512.0)">a</text><text xml:space="preserve" font-family="GillSans-Italic" font-style="italic" font-size="49.0" fill="#000000" transform="matrix(1.00, 0.00, -0.00, -1.00, 460.6, 512.0)">c</text><text xml:space="preserve" font-family="GillSans-Italic" font-style="italic" font-size="49.0" fill="#000000" transform="matrix(1.00, 0.00, -0.00, -1.00, 479.4, 512.0)">t</text><text xml:space="preserve" font-family="GillSans-Italic" font-style="italic" font-size="49.0" fill="#000000" transform="matrix(1.00, 0.00, -0.00, -1.00, 493.2, 512.0)">i</text><text xml:space="preserve" font-family="GillSans-Italic" font-style="italic" font-size="49.0" fill="#000000" transform="matrix(1.00, 0.00, -0.00, -1.00, 502.4, 512.0)">c</text><text xml:space="preserve" font-family="GillSans-Italic" font-style="italic" font-size="49.0" fill="#000000" transform="matrix(1.00, 0.00, -0.00, -1.00, 521.2, 512.0)"> </text><text xml:space="preserve" font-family="GillSans-Italic" font-style="italic" font-size="49.0" fill="#000000" transform="matrix(1.00, 0.00, -0.00, -1.00, 534.8, 512.0)">r</text><text xml:space="preserve" font-family="GillSans-Italic" font-style="italic" font-size="49.0" fill="#000000" transform="matrix(1.00, 0.00, -0.00, -1.00, 549.7, 512.0)">e</text><text xml:space="preserve" font-family="GillSans-Italic" font-style="italic" font-size="49.0" fill="#000000" transform="matrix(1.00, 0.00, -0.00, -1.00, 571.1, 512.0)">l</text><text xml:space="preserve" font-family="GillSans-Italic" font-style="italic" font-size="49.0" fill="#000000" transform="matrix(1.00, 0.00, -0.00, -1.00, 580.3, 512.0)">a</text><text xml:space="preserve" font-family="GillSans-Italic" font-style="italic" font-size="49.0" fill="#000000" transform="matrix(1.00, 0.00, -0.00, -1.00, 603.4, 512.0)">t</text><text xml:space="preserve" font-family="GillSans-Italic" font-style="italic" font-size="49.0" fill="#000000" transform="matrix(1.00, 0.00, -0.00, -1.00, 617.1, 512.0)">i</text><text xml:space="preserve" font-family="GillSans-Italic" font-style="italic" font-size="49.0" fill="#000000" transform="matrix(1.00, 0.00, -0.00, -1.00, 626.3, 512.0)">o</text><text xml:space="preserve" font-family="GillSans-Italic" font-style="italic" font-size="49.0" fill="#000000" transform="matrix(1.00, 0.00, -0.00, -1.00, 648.3, 512.0)">n</text><text xml:space="preserve" font-family="GillSans-Italic" font-style="italic" font-size="49.0" fill="#000000" transform="matrix(1.00, 0.00, -0.00, -1.00, 671.3, 512.0)">s</text><text xml:space="preserve" font-family="GillSans-Italic" font-style="italic" font-size="49.0" fill="#000000" transform="matrix(1.00, 0.00, -0.00, -1.00, 688.6, 512.0)">h</text><text xml:space="preserve" font-family="GillSans-Italic" font-style="italic" font-size="49.0" fill="#000000" transform="matrix(1.00, 0.00, -0.00, -1.00, 711.6, 512.0)">i</text><text xml:space="preserve" font-family="GillSans-Italic" font-style="italic" font-size="49.0" fill="#000000" transform="matrix(1.00, 0.00, -0.00, -1.00, 720.8, 512.0)">p</text><text xml:space="preserve" font-family="GillSans-Italic" font-style="italic" font-size="49.0" fill="#000000" transform="matrix(1.00, 0.00, -0.00, -1.00, 744.9, 512.0)">s</text><text xml:space="preserve" font-family="GillSans-Italic" font-style="italic" font-size="49.0" fill="#000000" transform="matrix(1.00, 0.00, -0.00, -1.00, 762.2, 512.0)"> </text><text xml:space="preserve" font-family="GillSans-Italic" font-style="italic" font-size="49.0" fill="#000000" transform="matrix(1.00, 0.00, -0.00, -1.00, 775.8, 512.0)">o</text><text xml:space="preserve" font-family="GillSans-Italic" font-style="italic" font-size="49.0" fill="#000000" transform="matrix(1.00, 0.00, -0.00, -1.00, 797.8, 512.0)">f</text><text xml:space="preserve" font-family="GillSans-Italic" font-style="italic" font-size="49.0" fill="#000000" transform="matrix(1.00, 0.00, -0.00, -1.00, 811.1, 512.0)"> </text><text xml:space="preserve" font-family="GillSans-Italic" font-style="italic" font-size="49.0" fill="#000000" transform="matrix(1.00, 0.00, -0.00, -1.00, 824.7, 512.0)">a</text><text xml:space="preserve" font-family="GillSans-Italic" font-style="italic" font-size="49.0" fill="#000000" transform="matrix(1.00, 0.00, -0.00, -1.00, 847.7, 512.0)">r</text><text xml:space="preserve" font-family="GillSans-Italic" font-style="italic" font-size="49.0" fill="#000000" transform="matrix(1.00, 0.00, -0.00, -1.00, 863.0, 512.0)">g</text><text xml:space="preserve" font-family="GillSans-Italic" font-style="italic" font-size="49.0" fill="#000000" transform="matrix(1.00, 0.00, -0.00, -1.00, 883.9, 512.0)">u</text><text xml:space="preserve" font-family="GillSans-Italic" font-style="italic" font-size="49.0" fill="#000000" transform="matrix(1.00, 0.00, -0.00, -1.00, 906.9, 512.0)">m</text><text xml:space="preserve" font-family="GillSans-Italic" font-style="italic" font-size="49.0" fill="#000000" transform="matrix(1.00, 0.00, -0.00, -1.00, 943.2, 512.0)">e</text><text xml:space="preserve" font-family="GillSans-Italic" font-style="italic" font-size="49.0" fill="#000000" transform="matrix(1.00, 0.00, -0.00, -1.00, 964.7, 512.0)">n</text><text xml:space="preserve" font-family="GillSans-Italic" font-style="italic" font-size="49.0" fill="#000000" transform="matrix(1.00, 0.00, -0.00, -1.00, 987.7, 512.0)">t</text><text xml:space="preserve" font-family="GillSans-Italic" font-style="italic" font-size="49.0" fill="#000000" transform="matrix(1.00, 0.00, -0.00, -1.00, 1001.4, 512.0)"> </text><text xml:space="preserve" font-family="GillSans-Italic" font-style="italic" font-size="49.0" fill="#000000" transform="matrix(1.00, 0.00, -0.00, -1.00, 1015.0, 512.0)">s</text><text xml:space="preserve" font-family="GillSans-Italic" font-style="italic" font-size="49.0" fill="#000000" transform="matrix(1.00, 0.00, -0.00, -1.00, 1032.4, 512.0)">p</text><text xml:space="preserve" font-family="GillSans-Italic" font-style="italic" font-size="49.0" fill="#000000" transform="matrix(1.00, 0.00, -0.00, -1.00, 1056.4, 512.0)">a</text><text xml:space="preserve" font-family="GillSans-Italic" font-style="italic" font-size="49.0" fill="#000000" transform="matrix(1.00, 0.00, -0.00, -1.00, 1079.4, 512.0)">n</text><text xml:space="preserve" font-family="GillSans-Italic" font-style="italic" font-size="49.0" fill="#000000" transform="matrix(1.00, 0.00, -0.00, -1.00, 1102.4, 512.0)">s</text><text xml:space="preserve" font-family="GillSans-Italic" font-style="italic" font-size="49.0" fill="#000000" transform="matrix(1.00, 0.00, -0.00, -1.00, 1119.8, 512.0)"> </text><text xml:space="preserve" font-family="GillSans-Italic" font-style="italic" font-size="49.0" fill="#000000" transform="matrix(1.00, 0.00, -0.00, -1.00, 1133.4, 512.0)">w</text><text xml:space="preserve" font-family="GillSans-Italic" font-style="italic" font-size="49.0" fill="#000000" transform="matrix(1.00, 0.00, -0.00, -1.00, 1163.5, 512.0)">i</text><text xml:space="preserve" font-family="GillSans-Italic" font-style="italic" font-size="49.0" fill="#000000" transform="matrix(1.00, 0.00, -0.00, -1.00, 1172.7, 512.0)">t</text><text xml:space="preserve" font-family="GillSans-Italic" font-style="italic" font-size="49.0" fill="#000000" transform="matrix(1.00, 0.00, -0.00, -1.00, 1186.5, 512.0)">h</text><text xml:space="preserve" font-family="GillSans-Italic" font-style="italic" font-size="49.0" fill="#000000" transform="matrix(1.00, 0.00, -0.00, -1.00, 1209.5, 512.0)"> </text><text xml:space="preserve" font-family="GillSans-Italic" font-style="italic" font-size="49.0" fill="#000000" transform="matrix(1.00, 0.00, -0.00, -1.00, 1223.1, 512.0)">r</text><text xml:space="preserve" font-family="GillSans-Italic" font-style="italic" font-size="49.0" fill="#000000" transform="matrix(1.00, 0.00, -0.00, -1.00, 1237.9, 512.0)">e</text><text xml:space="preserve" font-family="GillSans-Italic" font-style="italic" font-size="49.0" fill="#000000" transform="matrix(1.00, 0.00, -0.00, -1.00, 1259.4, 512.0)">s</text><text xml:space="preserve" font-family="GillSans-Italic" font-style="italic" font-size="49.0" fill="#000000" transform="matrix(1.00, 0.00, -0.00, -1.00, 1276.7, 512.0)">p</text><text xml:space="preserve" font-family="GillSans-Italic" font-style="italic" font-size="49.0" fill="#000000" transform="matrix(1.00, 0.00, -0.00, -1.00, 1300.8, 512.0)">e</text><text xml:space="preserve" font-family="GillSans-Italic" font-style="italic" font-size="49.0" fill="#000000" transform="matrix(1.00, 0.00, -0.00, -1.00, 1322.2, 512.0)">c</text><text xml:space="preserve" font-family="GillSans-Italic" font-style="italic" font-size="49.0" fill="#000000" transform="matrix(1.00, 0.00, -0.00, -1.00, 1341.1, 512.0)">t</text><text xml:space="preserve" font-family="GillSans-Italic" font-style="italic" font-size="49.0" fill="#000000" transform="matrix(1.00, 0.00, -0.00, -1.00, 1354.8, 512.0)"> </text><text xml:space="preserve" font-family="GillSans-Italic" font-style="italic" font-size="49.0" fill="#000000" transform="matrix(1.00, 0.00, -0.00, -1.00, 1368.4, 512.0)">t</text><text xml:space="preserve" font-family="GillSans-Italic" font-style="italic" font-size="49.0" fill="#000000" transform="matrix(1.00, 0.00, -0.00, -1.00, 1382.2, 512.0)">o</text><text xml:space="preserve" font-family="GillSans-Italic" font-style="italic" font-size="49.0" fill="#000000" transform="matrix(1.00, 0.00, -0.00, -1.00, 1404.2, 512.0)"> </text><text xml:space="preserve" font-family="GillSans-Italic" font-style="italic" font-size="49.0" fill="#000000" transform="matrix(1.00, 0.00, -0.00, -1.00, 1417.8, 512.0)">t</text><text xml:space="preserve" font-family="GillSans-Italic" font-style="italic" font-size="49.0" fill="#000000" transform="matrix(1.00, 0.00, -0.00, -1.00, 1431.5, 512.0)">h</text><text xml:space="preserve" font-family="GillSans-Italic" font-style="italic" font-size="49.0" fill="#000000" transform="matrix(1.00, 0.00, -0.00, -1.00, 1454.5, 512.0)">e</text><text xml:space="preserve" font-family="GillSans-Italic" font-style="italic" font-size="49.0" fill="#000000" transform="matrix(1.00, 0.00, -0.00, -1.00, 1476.0, 512.0)"> </text><text xml:space="preserve" font-family="GillSans-Italic" font-style="italic" font-size="49.0" fill="#000000" transform="matrix(1.00, 0.00, -0.00, -1.00, 1489.6, 512.0)">p</text><text xml:space="preserve" font-family="GillSans-Italic" font-style="italic" font-size="49.0" fill="#000000" transform="matrix(1.00, 0.00, -0.00, -1.00, 1513.6, 512.0)">r</text><text xml:space="preserve" font-family="GillSans-Italic" font-style="italic" font-size="49.0" fill="#000000" transform="matrix(1.00, 0.00, -0.00, -1.00, 1528.0, 512.0)">o</text><text xml:space="preserve" font-family="GillSans-Italic" font-style="italic" font-size="49.0" fill="#000000" transform="matrix(1.00, 0.00, -0.00, -1.00, 1549.9, 512.0)">c</text><text xml:space="preserve" font-family="GillSans-Italic" font-style="italic" font-size="49.0" fill="#000000" transform="matrix(1.00, 0.00, -0.00, -1.00, 1568.8, 512.0)">e</text><text xml:space="preserve" font-family="GillSans-Italic" font-style="italic" font-size="49.0" fill="#000000" transform="matrix(1.00, 0.00, -0.00, -1.00, 1590.2, 512.0)">s</text><text xml:space="preserve" font-family="GillSans-Italic" font-style="italic" font-size="49.0" fill="#000000" transform="matrix(1.00, 0.00, -0.00, -1.00, 1607.6, 512.0)">s</text><text xml:space="preserve" font-family="GillSans-Italic" font-style="italic" font-size="49.0" fill="#000000" transform="matrix(1.00, 0.00, -0.00, -1.00, 1624.9, 512.0)"> </text><text xml:space="preserve" font-family="GillSans-Italic" font-style="italic" font-size="49.0" fill="#000000" transform="matrix(1.00, 0.00, -0.00, -1.00, 1638.5, 512.0)">n</text><text xml:space="preserve" font-family="GillSans-Italic" font-style="italic" font-size="49.0" fill="#000000" transform="matrix(1.00, 0.00, -0.00, -1.00, 1661.5, 512.0)">a</text><text xml:space="preserve" font-family="GillSans-Italic" font-style="italic" font-size="49.0" fill="#000000" transform="matrix(1.00, 0.00, -0.00, -1.00, 1684.5, 512.0)">m</text><text xml:space="preserve" font-family="GillSans-Italic" font-style="italic" font-size="49.0" fill="#000000" transform="matrix(1.00, 0.00, -0.00, -1.00, 1720.8, 512.0)">e</text><text xml:space="preserve" font-family="GillSans-Italic" font-style="italic" font-size="49.0" fill="#000000" transform="matrix(1.00, 0.00, -0.00, -1.00, 1742.3, 512.0)"> </text><text xml:space="preserve" font-family="GillSans-Italic" font-style="italic" font-size="49.0" fill="#000000" transform="matrix(1.00, 0.00, -0.00, -1.00, 360.0, 456.0)">m</text><text xml:space="preserve" font-family="GillSans-Italic" font-style="italic" font-size="49.0" fill="#000000" transform="matrix(1.00, 0.00, -0.00, -1.00, 396.3, 456.0)">e</text><text xml:space="preserve" font-family="GillSans-Italic" font-style="italic" font-size="49.0" fill="#000000" transform="matrix(1.00, 0.00, -0.00, -1.00, 417.7, 456.0)">n</text><text xml:space="preserve" font-family="GillSans-Italic" font-style="italic" font-size="49.0" fill="#000000" transform="matrix(1.00, 0.00, -0.00, -1.00, 440.7, 456.0)">t</text><text xml:space="preserve" font-family="GillSans-Italic" font-style="italic" font-size="49.0" fill="#000000" transform="matrix(1.00, 0.00, -0.00, -1.00, 454.5, 456.0)">i</text><text xml:space="preserve" font-family="GillSans-Italic" font-style="italic" font-size="49.0" fill="#000000" transform="matrix(1.00, 0.00, -0.00, -1.00, 463.7, 456.0)">o</text><text xml:space="preserve" font-family="GillSans-Italic" font-style="italic" font-size="49.0" fill="#000000" transform="matrix(1.00, 0.00, -0.00, -1.00, 485.7, 456.0)">n</text><text xml:space="preserve" font-family="GillSans-Italic" font-style="italic" font-size="49.0" fill="#000000" transform="matrix(1.00, 0.00, -0.00, -1.00, 508.7, 456.0)">.</text></g></svg>