<?xml version="1.0" encoding="UTF-8" standalone="no"?><svg xmlns="http://www.w3.org/2000/svg" xmlns:xlink="http://www.w3.org/1999/xlink" clip-rule="evenodd" stroke-miterlimit="4.00" viewBox="0 0 518 108"><desc>SVG generated by Keynote</desc><defs></defs><g transform="matrix(1.00, 0.00, -0.00, -1.00, 0.0, 108.0)"><text xml:space="preserve" font-family="GillSans" font-size="50.0" fill="#000000" transform="matrix(1.00, 0.00, -0.00, -1.00, 0.0, 71.0)">C</text><text xml:space="preserve" font-family="GillSans" font-size="50.0" fill="#000000" transform="matrix(1.00, 0.00, -0.00, -1.00, 35.4, 71.0)">o</text><text xml:space="preserve" font-family="GillSans" font-size="50.0" fill="#000000" transform="matrix(1.00, 0.00, -0.00, -1.00, 63.0, 71.0)">u</text><text xml:space="preserve" font-family="GillSans" font-size="50.0" fill="#000000" transform="matrix(1.00, 0.00, -0.00, -1.00, 88.0, 71.0)">l</text><text xml:space="preserve" font-family="GillSans" font-size="50.0" fill="#000000" transform="matrix(1.00, 0.00, -0.00, -1.00, 99.0, 71.0)">d</text><text xml:space="preserve" font-family="GillSans" font-size="50.0" fill="#000000" transform="matrix(1.00, 0.00, -0.00, -1.00, 124.4, 71.0)"> </text><text xml:space="preserve" font-family="GillSans" font-size="50.0" fill="#000000" transform="matrix(1.00, 0.00, -0.00, -1.00, 138.3, 71.0)">n</text><text xml:space="preserve" font-family="GillSans" font-size="50.0" fill="#000000" transform="matrix(1.00, 0.00, -0.00, -1.00, 163.3, 71.0)">o</text><text xml:space="preserve" font-family="GillSans" font-size="50.0" fill="#000000" transform="matrix(1.00, 0.00, -0.00, -1.00, 190.9, 71.0)">t</text><text xml:space="preserve" font-family="GillSans" font-size="50.0" fill="#000000" transform="matrix(1.00, 0.00, -0.00, -1.00, 207.5, 71.0)"> </text><text xml:space="preserve" font-family="GillSans" font-size="50.0" fill="#000000" transform="matrix(1.00, 0.00, -0.00, -1.00, 221.4, 71.0)">ﬁ</text><text xml:space="preserve" font-family="GillSans" font-size="50.0" fill="#000000" transform="matrix(1.00, 0.00, -0.00, -1.00, 246.4, 71.0)">n</text><text xml:space="preserve" font-family="GillSans" font-size="50.0" fill="#000000" transform="matrix(1.00, 0.00, -0.00, -1.00, 271.4, 71.0)">d</text><text xml:space="preserve" font-family="GillSans" font-size="50.0" fill="#000000" transform="matrix(1.00, 0.00, -0.00, -1.00, 296.9, 71.0)"> </text><text xml:space="preserve" font-family="GillSans" font-size="50.0" fill="#000000" transform="matrix(1.00, 0.00, -0.00, -1.00, 305.8, 71.0)">‘</text><text xml:space="preserve" font-family="GillSans-Italic" font-style="italic" font-size="50.0" fill="#000000" transform="matrix(1.00, 0.00, -0.00, -1.00, 316.8, 71.0)">g</text><text xml:space="preserve" font-family="GillSans-Italic" font-style="italic" font-size="50.0" fill="#000000" transform="matrix(1.00, 0.00, -0.00, -1.00, 337.6, 71.0)">o</text><text xml:space="preserve" font-family="GillSans-Italic" font-style="italic" font-size="50.0" fill="#000000" transform="matrix(1.00, 0.00, -0.00, -1.00, 360.1, 71.0)">o</text><text xml:space="preserve" font-family="GillSans-Italic" font-style="italic" font-size="50.0" fill="#000000" transform="matrix(1.00, 0.00, -0.00, -1.00, 382.5, 71.0)">d</text><text xml:space="preserve" font-family="GillSans-Italic" font-style="italic" font-size="50.0" fill="#000000" transform="matrix(1.00, 0.00, -0.00, -1.00, 406.0, 71.0)"> </text><text xml:space="preserve" font-family="GillSans-Italic" font-style="italic" font-size="50.0" fill="#000000" transform="matrix(1.00, 0.00, -0.00, -1.00, 419.8, 71.0)">s</text><text xml:space="preserve" font-family="GillSans-Italic" font-style="italic" font-size="50.0" fill="#000000" transform="matrix(1.00, 0.00, -0.00, -1.00, 437.5, 71.0)">o</text><text xml:space="preserve" font-family="GillSans-Italic" font-style="italic" font-size="50.0" fill="#000000" transform="matrix(1.00, 0.00, -0.00, -1.00, 460.0, 71.0)">n</text><text xml:space="preserve" font-family="GillSans-Italic" font-style="italic" font-size="50.0" fill="#000000" transform="matrix(1.00, 0.00, -0.00, -1.00, 483.4, 71.0)">g</text><text xml:space="preserve" font-family="GillSans" font-size="50.0" fill="#000000" transform="matrix(1.00, 0.00, -0.00, -1.00, 504.7, 71.0)">’</text><text xml:space="preserve" font-family="GillSans" font-size="50.0" fill="#000000" transform="matrix(1.00, 0.00, -0.00, -1.00, 114.0, 13.0)">i</text><text xml:space="preserve" font-family="GillSans" font-size="50.0" fill="#000000" transform="matrix(1.00, 0.00, -0.00, -1.00, 125.0, 13.0)">n</text><text xml:space="preserve" font-family="GillSans" font-size="50.0" fill="#000000" transform="matrix(1.00, 0.00, -0.00, -1.00, 150.0, 13.0)"> </text><text xml:space="preserve" font-family="GillSans" font-size="50.0" fill="#000000" transform="matrix(1.00, 0.00, -0.00, -1.00, 163.9, 13.0)">y</text><text xml:space="preserve" font-family="GillSans" font-size="50.0" fill="#000000" transform="matrix(1.00, 0.00, -0.00, -1.00, 184.8, 13.0)">o</text><text xml:space="preserve" font-family="GillSans" font-size="50.0" fill="#000000" transform="matrix(1.00, 0.00, -0.00, -1.00, 212.3, 13.0)">u</text><text xml:space="preserve" font-family="GillSans" font-size="50.0" fill="#000000" transform="matrix(1.00, 0.00, -0.00, -1.00, 237.3, 13.0)">r</text><text xml:space="preserve" font-family="GillSans" font-size="50.0" fill="#000000" transform="matrix(1.00, 0.00, -0.00, -1.00, 257.1, 13.0)"> </text><text xml:space="preserve" font-family="GillSans" font-size="50.0" fill="#000000" transform="matrix(1.00, 0.00, -0.00, -1.00, 271.0, 13.0)">l</text><text xml:space="preserve" font-family="GillSans" font-size="50.0" fill="#000000" transform="matrix(1.00, 0.00, -0.00, -1.00, 282.0, 13.0)">i</text><text xml:space="preserve" font-family="GillSans" font-size="50.0" fill="#000000" transform="matrix(1.00, 0.00, -0.00, -1.00, 293.0, 13.0)">b</text><text xml:space="preserve" font-family="GillSans" font-size="50.0" fill="#000000" transform="matrix(1.00, 0.00, -0.00, -1.00, 318.0, 13.0)">r</text><text xml:space="preserve" font-family="GillSans" font-size="50.0" fill="#000000" transform="matrix(1.00, 0.00, -0.00, -1.00, 337.8, 13.0)">a</text><text xml:space="preserve" font-family="GillSans" font-size="50.0" fill="#000000" transform="matrix(1.00, 0.00, -0.00, -1.00, 359.1, 13.0)">r</text><text xml:space="preserve" font-family="GillSans" font-size="50.0" fill="#000000" transform="matrix(1.00, 0.00, -0.00, -1.00, 380.4, 13.0)">y</text></g></svg>