<?xml version="1.0" encoding="UTF-8" standalone="no"?><svg xmlns="http://www.w3.org/2000/svg" xmlns:xlink="http://www.w3.org/1999/xlink" clip-rule="evenodd" stroke-miterlimit="4.00" viewBox="0 0 1920 1080"><desc>SVG generated by Keynote</desc><defs></defs><g transform="matrix(1.00, 0.00, -0.00, -1.00, 0.0, 1080.0)"><path d="M 0.0 1080.0 L 1920.0 1080.0 L 1920.0 0.0 L 0.0 0.0 Z M 0.0 1080.0 " fill="#FEFFFF"></path><text xml:space="preserve" font-family="GillSans" font-size="112.0" fill="#000000" transform="matrix(1.00, 0.00, -0.00, -1.00, 215.0, 876.0)">I</text><text xml:space="preserve" font-family="GillSans" font-size="112.0" fill="#000000" transform="matrix(1.00, 0.00, -0.00, -1.00, 243.0, 876.0)">n</text><text xml:space="preserve" font-family="GillSans" font-size="112.0" fill="#000000" transform="matrix(1.00, 0.00, -0.00, -1.00, 299.0, 876.0)">t</text><text xml:space="preserve" font-family="GillSans" font-size="112.0" fill="#000000" transform="matrix(1.00, 0.00, -0.00, -1.00, 336.3, 876.0)">e</text><text xml:space="preserve" font-family="GillSans" font-size="112.0" fill="#000000" transform="matrix(1.00, 0.00, -0.00, -1.00, 389.9, 876.0)">l</text><text xml:space="preserve" font-family="GillSans" font-size="112.0" fill="#000000" transform="matrix(1.00, 0.00, -0.00, -1.00, 414.5, 876.0)">l</text><text xml:space="preserve" font-family="GillSans" font-size="112.0" fill="#000000" transform="matrix(1.00, 0.00, -0.00, -1.00, 439.1, 876.0)">i</text><text xml:space="preserve" font-family="GillSans" font-size="112.0" fill="#000000" transform="matrix(1.00, 0.00, -0.00, -1.00, 463.7, 876.0)">g</text><text xml:space="preserve" font-family="GillSans" font-size="112.0" fill="#000000" transform="matrix(1.00, 0.00, -0.00, -1.00, 511.5, 876.0)">e</text><text xml:space="preserve" font-family="GillSans" font-size="112.0" fill="#000000" transform="matrix(1.00, 0.00, -0.00, -1.00, 565.1, 876.0)">n</text><text xml:space="preserve" font-family="GillSans" font-size="112.0" fill="#000000" transform="matrix(1.00, 0.00, -0.00, -1.00, 621.1, 876.0)">t</text><text xml:space="preserve" font-family="GillSans" font-size="112.0" fill="#000000" transform="matrix(1.00, 0.00, -0.00, -1.00, 658.4, 876.0)"> </text><text xml:space="preserve" font-family="GillSans" font-size="112.0" fill="#000000" transform="matrix(1.00, 0.00, -0.00, -1.00, 689.5, 876.0)">C</text><text xml:space="preserve" font-family="GillSans" font-size="112.0" fill="#000000" transform="matrix(1.00, 0.00, -0.00, -1.00, 768.8, 876.0)">o</text><text xml:space="preserve" font-family="GillSans" font-size="112.0" fill="#000000" transform="matrix(1.00, 0.00, -0.00, -1.00, 830.6, 876.0)">n</text><text xml:space="preserve" font-family="GillSans" font-size="112.0" fill="#000000" transform="matrix(1.00, 0.00, -0.00, -1.00, 884.9, 876.0)">v</text><text xml:space="preserve" font-family="GillSans" font-size="112.0" fill="#000000" transform="matrix(1.00, 0.00, -0.00, -1.00, 931.7, 876.0)">e</text><text xml:space="preserve" font-family="GillSans" font-size="112.0" fill="#000000" transform="matrix(1.00, 0.00, -0.00, -1.00, 985.3, 876.0)">r</text><text xml:space="preserve" font-family="GillSans" font-size="112.0" fill="#000000" transform="matrix(1.00, 0.00, -0.00, -1.00, 1029.7, 876.0)">s</text><text xml:space="preserve" font-family="GillSans" font-size="112.0" fill="#000000" transform="matrix(1.00, 0.00, -0.00, -1.00, 1072.8, 876.0)">a</text><text xml:space="preserve" font-family="GillSans" font-size="112.0" fill="#000000" transform="matrix(1.00, 0.00, -0.00, -1.00, 1120.5, 876.0)">t</text><text xml:space="preserve" font-family="GillSans" font-size="112.0" fill="#000000" transform="matrix(1.00, 0.00, -0.00, -1.00, 1157.8, 876.0)">i</text><text xml:space="preserve" font-family="GillSans" font-size="112.0" fill="#000000" transform="matrix(1.00, 0.00, -0.00, -1.00, 1182.4, 876.0)">o</text><text xml:space="preserve" font-family="GillSans" font-size="112.0" fill="#000000" transform="matrix(1.00, 0.00, -0.00, -1.00, 1244.2, 876.0)">n</text><text xml:space="preserve" font-family="GillSans" font-size="112.0" fill="#000000" transform="matrix(1.00, 0.00, -0.00, -1.00, 1300.2, 876.0)">a</text><text xml:space="preserve" font-family="GillSans" font-size="112.0" fill="#000000" transform="matrix(1.00, 0.00, -0.00, -1.00, 1348.0, 876.0)">l</text><text xml:space="preserve" font-family="GillSans" font-size="112.0" fill="#000000" transform="matrix(1.00, 0.00, -0.00, -1.00, 1372.5, 876.0)"> </text><text xml:space="preserve" font-family="GillSans" font-size="112.0" fill="#000000" transform="matrix(1.00, 0.00, -0.00, -1.00, 1392.4, 876.0)">A</text><text xml:space="preserve" font-family="GillSans" font-size="112.0" fill="#000000" transform="matrix(1.00, 0.00, -0.00, -1.00, 1467.1, 876.0)">g</text><text xml:space="preserve" font-family="GillSans" font-size="112.0" fill="#000000" transform="matrix(1.00, 0.00, -0.00, -1.00, 1514.9, 876.0)">e</text><text xml:space="preserve" font-family="GillSans" font-size="112.0" fill="#000000" transform="matrix(1.00, 0.00, -0.00, -1.00, 1568.5, 876.0)">n</text><text xml:space="preserve" font-family="GillSans" font-size="112.0" fill="#000000" transform="matrix(1.00, 0.00, -0.00, -1.00, 1624.5, 876.0)">t</text><text xml:space="preserve" font-family="GillSans" font-size="112.0" fill="#000000" transform="matrix(1.00, 0.00, -0.00, -1.00, 1661.8, 876.0)">s</text><g opacity="0.00"><g><clipPath id="clip-10751"><path d="M 543.4 223.6 L 1379.4 223.6 L 1379.4 696.6 L 543.4 696.6 Z M 543.4 223.6 "></path></clipPath><g clip-path="url(#clip-10751)"><image xlink:href="../../FDFB80FF-6364-4B8F-8831-ED6B4240AA11/assets/FA5F47147983CC41D5DADC1D657826F4.png" width="834.00" height="471.00" transform="matrix(1.00, 0.00, -0.00, -1.00, 544.4, 695.6)" opacity="0.17"></image><path d="M 559.4 694.0 L 1360.6 694.0 C 1364.3 694.0 1366.2 694.0 1368.2 693.3 C 1370.3 692.6 1372.1 690.8 1372.9 688.7 C 1373.5 686.7 1373.5 684.8 1373.5 681.0 L 1373.5 242.9 C 1373.5 239.2 1373.5 237.3 1372.9 235.3 C 1372.1 233.2 1370.3 231.4 1368.2 230.7 C 1366.2 230.0 1364.3 230.0 1360.6 230.0 L 559.4 230.0 C 555.7 230.0 553.8 230.0 551.8 230.7 C 549.7 231.4 547.9 233.2 547.1 235.3 C 546.5 237.3 546.5 239.2 546.5 243.0 L 546.5 681.1 C 546.5 684.8 546.5 686.7 547.1 688.7 C 547.9 690.8 549.7 692.6 551.8 693.3 C 553.8 694.0 555.7 694.0 559.4 694.0 Z M 559.4 694.0 " fill="#F4F5F7" fill-opacity="0.06"></path><path d="M 12.9 0.0 L 814.1 0.0 C 817.8 0.0 819.7 0.0 821.6 0.6 C 823.8 1.4 825.5 3.1 826.3 5.3 C 827.0 7.3 827.0 9.2 827.0 12.9 L 827.0 451.1 C 827.0 454.8 827.0 456.6 826.3 458.6 C 825.5 460.8 823.8 462.5 821.6 463.3 C 819.7 463.9 817.8 463.9 814.0 463.9 L 12.9 463.9 C 9.2 463.9 7.3 463.9 5.3 463.3 C 3.1 462.5 1.4 460.8 0.6 458.6 C 0.0 456.6 0.0 454.8 0.0 451.0 L 0.0 12.9 C 0.0 9.2 0.0 7.3 0.6 5.3 C 1.4 3.1 3.1 1.4 5.3 0.6 C 7.3 0.0 9.2 0.0 12.9 0.0 Z M 12.9 0.0 " fill="none" stroke="#A6AAA8" stroke-width="1.10" transform="matrix(1.00, 0.00, 0.00, -1.00, 546.5, 694.0)"></path></g></g><g><clipPath id="clip-10752"><path d="M 777.5 496.6 L 1142.5 496.6 L 1142.5 583.4 L 777.5 583.4 Z M 777.5 496.6 "></path></clipPath><g clip-path="url(#clip-10752)"><text xml:space="preserve" font-family="GillSans" font-size="50.0" fill="#000000" transform="matrix(1.00, 0.00, -0.00, -1.00, 792.0, 523.0)">P</text><text xml:space="preserve" font-family="GillSans" font-size="50.0" fill="#000000" transform="matrix(1.00, 0.00, -0.00, -1.00, 817.5, 523.0)">l</text><text xml:space="preserve" font-family="GillSans" font-size="50.0" fill="#000000" transform="matrix(1.00, 0.00, -0.00, -1.00, 828.5, 523.0)">a</text><text xml:space="preserve" font-family="GillSans" font-size="50.0" fill="#000000" transform="matrix(1.00, 0.00, -0.00, -1.00, 847.8, 523.0)">y</text><text xml:space="preserve" font-family="GillSans" font-size="50.0" fill="#000000" transform="matrix(1.00, 0.00, -0.00, -1.00, 869.7, 523.0)"> </text><text xml:space="preserve" font-family="GillSans" font-size="50.0" fill="#000000" transform="matrix(1.00, 0.00, -0.00, -1.00, 883.6, 523.0)">a</text><text xml:space="preserve" font-family="GillSans" font-size="50.0" fill="#000000" transform="matrix(1.00, 0.00, -0.00, -1.00, 904.9, 523.0)"> </text><text xml:space="preserve" font-family="GillSans" font-size="50.0" fill="#000000" transform="matrix(1.00, 0.00, -0.00, -1.00, 918.8, 523.0)">g</text><text xml:space="preserve" font-family="GillSans" font-size="50.0" fill="#000000" transform="matrix(1.00, 0.00, -0.00, -1.00, 939.6, 523.0)">o</text><text xml:space="preserve" font-family="GillSans" font-size="50.0" fill="#000000" transform="matrix(1.00, 0.00, -0.00, -1.00, 967.2, 523.0)">o</text><text xml:space="preserve" font-family="GillSans" font-size="50.0" fill="#000000" transform="matrix(1.00, 0.00, -0.00, -1.00, 994.8, 523.0)">d</text><text xml:space="preserve" font-family="GillSans" font-size="50.0" fill="#000000" transform="matrix(1.00, 0.00, -0.00, -1.00, 1020.2, 523.0)"> </text><text xml:space="preserve" font-family="GillSans" font-size="50.0" fill="#000000" transform="matrix(1.00, 0.00, -0.00, -1.00, 1034.1, 523.0)">s</text><text xml:space="preserve" font-family="GillSans" font-size="50.0" fill="#000000" transform="matrix(1.00, 0.00, -0.00, -1.00, 1053.3, 523.0)">o</text><text xml:space="preserve" font-family="GillSans" font-size="50.0" fill="#000000" transform="matrix(1.00, 0.00, -0.00, -1.00, 1080.9, 523.0)">n</text><text xml:space="preserve" font-family="GillSans" font-size="50.0" fill="#000000" transform="matrix(1.00, 0.00, -0.00, -1.00, 1105.9, 523.0)">g</text></g></g><g><clipPath id="clip-10753"><path d="M 895.4 286.2 L 1024.6 286.2 L 1024.6 415.4 L 895.4 415.4 Z M 895.4 286.2 "></path></clipPath><g clip-path="url(#clip-10753)"><path d="M 1005.0 395.8 C 1029.8 370.9 1029.8 330.6 1005.0 305.8 C 980.1 280.9 939.9 280.9 915.0 305.8 C 890.2 330.6 890.2 370.9 915.0 395.8 C 939.9 420.6 980.1 420.6 1005.0 395.8 Z M 1005.0 395.8 " fill="#000000" fill-opacity="0.56"></path></g></g><g><clipPath id="clip-10754"><path d="M 946.5 339.5 L 973.5 339.5 L 973.5 390.5 L 946.5 390.5 Z M 946.5 339.5 "></path></clipPath><g clip-path="url(#clip-10754)"><path d="M 960.0 389.5 C 960.0 389.5 960.0 389.5 960.0 389.5 C 966.9 389.5 972.5 383.9 972.5 377.0 C 972.5 377.0 972.5 377.0 972.5 377.0 L 972.5 353.0 C 972.5 353.0 972.5 353.0 972.5 353.0 C 972.5 346.1 966.9 340.5 960.0 340.5 C 960.0 340.5 960.0 340.5 960.0 340.5 C 960.0 340.5 960.0 340.5 960.0 340.5 C 953.1 340.5 947.5 346.1 947.5 353.0 C 947.5 353.0 947.5 353.0 947.5 353.0 L 947.5 377.0 C 947.5 377.0 947.5 377.0 947.5 377.0 C 947.5 383.9 953.1 389.5 960.0 389.5 C 960.0 389.5 960.0 389.5 960.0 389.5 Z M 960.0 389.5 " fill="#FEFFFF"></path></g></g><g><clipPath id="clip-10755"><path d="M 937.6 330.2 L 982.4 330.2 L 982.4 354.7 L 937.6 354.7 Z M 937.6 330.2 "></path></clipPath><g clip-path="url(#clip-10755)"><path d="M 0.0 0.0 C 0.9 11.8 9.8 20.3 20.0 19.8 C 29.6 19.3 37.3 10.9 37.9 0.0 " fill="none" stroke="#FEFFFF" stroke-width="5.00" transform="matrix(1.00, 0.00, 0.00, -1.00, 941.1, 353.5)"></path></g></g><g><clipPath id="clip-10756"><path d="M 963.5 335.3 L 963.5 311.0 L 956.5 311.0 L 956.5 335.3 Z M 963.5 335.3 "></path></clipPath><g clip-path="url(#clip-10756)"><g><clipPath id="clip-10757"><path d="M 543.0 223.0 L 1380.0 223.0 L 1380.0 697.0 L 543.0 697.0 Z M 543.0 223.0 "></path></clipPath><g clip-path="url(#clip-10757)"><path d="M 0.0 0.0 L 22.3 0.0 " fill="none" stroke="#FEFFFF" stroke-width="5.00" transform="matrix(0.00, -1.00, -1.00, 0.00, 960.0, 334.3)"></path></g></g></g></g></g><image xlink:href="../../FDFB80FF-6364-4B8F-8831-ED6B4240AA11/assets/FA5F47147983CC41D5DADC1D657826F4.png" width="834.00" height="471.00" transform="matrix(1.00, 0.00, -0.00, -1.00, 544.4, 695.6)" opacity="0.17"></image><path d="M 559.4 694.0 L 1360.6 694.0 C 1364.3 694.0 1366.2 694.0 1368.2 693.3 C 1370.3 692.6 1372.1 690.8 1372.9 688.7 C 1373.5 686.7 1373.5 684.8 1373.5 681.0 L 1373.5 242.9 C 1373.5 239.2 1373.5 237.3 1372.9 235.3 C 1372.1 233.2 1370.3 231.4 1368.2 230.7 C 1366.2 230.0 1364.3 230.0 1360.6 230.0 L 559.4 230.0 C 555.7 230.0 553.8 230.0 551.8 230.7 C 549.7 231.4 547.9 233.2 547.1 235.3 C 546.5 237.3 546.5 239.2 546.5 243.0 L 546.5 681.1 C 546.5 684.8 546.5 686.7 547.1 688.7 C 547.9 690.8 549.7 692.6 551.8 693.3 C 553.8 694.0 555.7 694.0 559.4 694.0 Z M 559.4 694.0 " fill="#F4F5F7" fill-opacity="0.06"></path><path d="M 12.9 0.0 L 814.1 0.0 C 817.8 0.0 819.7 0.0 821.6 0.6 C 823.8 1.4 825.5 3.1 826.3 5.3 C 827.0 7.3 827.0 9.2 827.0 12.9 L 827.0 451.1 C 827.0 454.8 827.0 456.6 826.3 458.6 C 825.5 460.8 823.8 462.5 821.6 463.3 C 819.7 463.9 817.8 463.9 814.0 463.9 L 12.9 463.9 C 9.2 463.9 7.3 463.9 5.3 463.3 C 3.1 462.5 1.4 460.8 0.6 458.6 C 0.0 456.6 0.0 454.8 0.0 451.0 L 0.0 12.9 C 0.0 9.2 0.0 7.3 0.6 5.3 C 1.4 3.1 3.1 1.4 5.3 0.6 C 7.3 0.0 9.2 0.0 12.9 0.0 Z M 12.9 0.0 " fill="none" stroke="#A6AAA8" stroke-width="1.10" transform="matrix(1.00, 0.00, 0.00, -1.00, 546.5, 694.0)"></path><text xml:space="preserve" font-family="GillSans" font-size="50.0" fill="#000000" transform="matrix(1.00, 0.00, -0.00, -1.00, 702.0, 552.0)">C</text><text xml:space="preserve" font-family="GillSans" font-size="50.0" fill="#000000" transform="matrix(1.00, 0.00, -0.00, -1.00, 737.4, 552.0)">o</text><text xml:space="preserve" font-family="GillSans" font-size="50.0" fill="#000000" transform="matrix(1.00, 0.00, -0.00, -1.00, 765.0, 552.0)">u</text><text xml:space="preserve" font-family="GillSans" font-size="50.0" fill="#000000" transform="matrix(1.00, 0.00, -0.00, -1.00, 790.0, 552.0)">l</text><text xml:space="preserve" font-family="GillSans" font-size="50.0" fill="#000000" transform="matrix(1.00, 0.00, -0.00, -1.00, 801.0, 552.0)">d</text><text xml:space="preserve" font-family="GillSans" font-size="50.0" fill="#000000" transform="matrix(1.00, 0.00, -0.00, -1.00, 826.4, 552.0)"> </text><text xml:space="preserve" font-family="GillSans" font-size="50.0" fill="#000000" transform="matrix(1.00, 0.00, -0.00, -1.00, 840.3, 552.0)">n</text><text xml:space="preserve" font-family="GillSans" font-size="50.0" fill="#000000" transform="matrix(1.00, 0.00, -0.00, -1.00, 865.3, 552.0)">o</text><text xml:space="preserve" font-family="GillSans" font-size="50.0" fill="#000000" transform="matrix(1.00, 0.00, -0.00, -1.00, 892.9, 552.0)">t</text><text xml:space="preserve" font-family="GillSans" font-size="50.0" fill="#000000" transform="matrix(1.00, 0.00, -0.00, -1.00, 909.5, 552.0)"> </text><text xml:space="preserve" font-family="GillSans" font-size="50.0" fill="#000000" transform="matrix(1.00, 0.00, -0.00, -1.00, 923.4, 552.0)">ﬁ</text><text xml:space="preserve" font-family="GillSans" font-size="50.0" fill="#000000" transform="matrix(1.00, 0.00, -0.00, -1.00, 948.4, 552.0)">n</text><text xml:space="preserve" font-family="GillSans" font-size="50.0" fill="#000000" transform="matrix(1.00, 0.00, -0.00, -1.00, 973.4, 552.0)">d</text><text xml:space="preserve" font-family="GillSans" font-size="50.0" fill="#000000" transform="matrix(1.00, 0.00, -0.00, -1.00, 998.9, 552.0)"> </text><text xml:space="preserve" font-family="GillSans" font-size="50.0" fill="#000000" transform="matrix(1.00, 0.00, -0.00, -1.00, 1007.8, 552.0)">‘</text><text xml:space="preserve" font-family="GillSans-Italic" font-style="italic" font-size="50.0" fill="#000000" transform="matrix(1.00, 0.00, -0.00, -1.00, 1018.8, 552.0)">g</text><text xml:space="preserve" font-family="GillSans-Italic" font-style="italic" font-size="50.0" fill="#000000" transform="matrix(1.00, 0.00, -0.00, -1.00, 1039.6, 552.0)">o</text><text xml:space="preserve" font-family="GillSans-Italic" font-style="italic" font-size="50.0" fill="#000000" transform="matrix(1.00, 0.00, -0.00, -1.00, 1062.1, 552.0)">o</text><text xml:space="preserve" font-family="GillSans-Italic" font-style="italic" font-size="50.0" fill="#000000" transform="matrix(1.00, 0.00, -0.00, -1.00, 1084.5, 552.0)">d</text><text xml:space="preserve" font-family="GillSans-Italic" font-style="italic" font-size="50.0" fill="#000000" transform="matrix(1.00, 0.00, -0.00, -1.00, 1108.0, 552.0)"> </text><text xml:space="preserve" font-family="GillSans-Italic" font-style="italic" font-size="50.0" fill="#000000" transform="matrix(1.00, 0.00, -0.00, -1.00, 1121.8, 552.0)">s</text><text xml:space="preserve" font-family="GillSans-Italic" font-style="italic" font-size="50.0" fill="#000000" transform="matrix(1.00, 0.00, -0.00, -1.00, 1139.5, 552.0)">o</text><text xml:space="preserve" font-family="GillSans-Italic" font-style="italic" font-size="50.0" fill="#000000" transform="matrix(1.00, 0.00, -0.00, -1.00, 1162.0, 552.0)">n</text><text xml:space="preserve" font-family="GillSans-Italic" font-style="italic" font-size="50.0" fill="#000000" transform="matrix(1.00, 0.00, -0.00, -1.00, 1185.4, 552.0)">g</text><text xml:space="preserve" font-family="GillSans" font-size="50.0" fill="#000000" transform="matrix(1.00, 0.00, -0.00, -1.00, 1206.7, 552.0)">’</text><text xml:space="preserve" font-family="GillSans" font-size="50.0" fill="#000000" transform="matrix(1.00, 0.00, -0.00, -1.00, 816.0, 494.0)">i</text><text xml:space="preserve" font-family="GillSans" font-size="50.0" fill="#000000" transform="matrix(1.00, 0.00, -0.00, -1.00, 827.0, 494.0)">n</text><text xml:space="preserve" font-family="GillSans" font-size="50.0" fill="#000000" transform="matrix(1.00, 0.00, -0.00, -1.00, 852.0, 494.0)"> </text><text xml:space="preserve" font-family="GillSans" font-size="50.0" fill="#000000" transform="matrix(1.00, 0.00, -0.00, -1.00, 865.9, 494.0)">y</text><text xml:space="preserve" font-family="GillSans" font-size="50.0" fill="#000000" transform="matrix(1.00, 0.00, -0.00, -1.00, 886.8, 494.0)">o</text><text xml:space="preserve" font-family="GillSans" font-size="50.0" fill="#000000" transform="matrix(1.00, 0.00, -0.00, -1.00, 914.3, 494.0)">u</text><text xml:space="preserve" font-family="GillSans" font-size="50.0" fill="#000000" transform="matrix(1.00, 0.00, -0.00, -1.00, 939.3, 494.0)">r</text><text xml:space="preserve" font-family="GillSans" font-size="50.0" fill="#000000" transform="matrix(1.00, 0.00, -0.00, -1.00, 959.1, 494.0)"> </text><text xml:space="preserve" font-family="GillSans" font-size="50.0" fill="#000000" transform="matrix(1.00, 0.00, -0.00, -1.00, 973.0, 494.0)">l</text><text xml:space="preserve" font-family="GillSans" font-size="50.0" fill="#000000" transform="matrix(1.00, 0.00, -0.00, -1.00, 984.0, 494.0)">i</text><text xml:space="preserve" font-family="GillSans" font-size="50.0" fill="#000000" transform="matrix(1.00, 0.00, -0.00, -1.00, 995.0, 494.0)">b</text><text xml:space="preserve" font-family="GillSans" font-size="50.0" fill="#000000" transform="matrix(1.00, 0.00, -0.00, -1.00, 1020.0, 494.0)">r</text><text xml:space="preserve" font-family="GillSans" font-size="50.0" fill="#000000" transform="matrix(1.00, 0.00, -0.00, -1.00, 1039.8, 494.0)">a</text><text xml:space="preserve" font-family="GillSans" font-size="50.0" fill="#000000" transform="matrix(1.00, 0.00, -0.00, -1.00, 1061.1, 494.0)">r</text><text xml:space="preserve" font-family="GillSans" font-size="50.0" fill="#000000" transform="matrix(1.00, 0.00, -0.00, -1.00, 1082.4, 494.0)">y</text><path d="M 965.1 355.9 C 967.9 353.0 967.9 348.5 965.1 345.7 C 962.3 342.9 957.7 342.9 954.9 345.7 C 952.1 348.5 952.1 353.0 954.9 355.9 C 957.7 358.7 962.3 358.7 965.1 355.9 Z M 965.1 355.9 " fill="#C82505"></path><path d="M 1005.1 355.9 C 1007.9 353.0 1007.9 348.5 1005.1 345.7 C 1002.3 342.9 997.7 342.9 994.9 345.7 C 992.1 348.5 992.1 353.0 994.9 355.9 C 997.7 358.7 1002.3 358.7 1005.1 355.9 Z M 1005.1 355.9 " fill="#C82505"></path><path d="M 925.1 354.9 C 927.9 352.0 927.9 347.5 925.1 344.7 C 922.3 341.9 917.7 341.9 914.9 344.7 C 912.1 347.5 912.1 352.0 914.9 354.9 C 917.7 357.7 922.3 357.7 925.1 354.9 Z M 925.1 354.9 " fill="#C82505"></path></g></svg>