<?xml version="1.0" encoding="UTF-8" standalone="no"?><svg xmlns="http://www.w3.org/2000/svg" xmlns:xlink="http://www.w3.org/1999/xlink" clip-rule="evenodd" stroke-miterlimit="4.00" viewBox="0 0 840 478"><desc>SVG generated by Keynote</desc><defs></defs><g transform="matrix(1.00, 0.00, -0.00, -1.00, 0.0, 478.0)"><image xlink:href="../../FDFB80FF-6364-4B8F-8831-ED6B4240AA11/assets/FA5F47147983CC41D5DADC1D657826F4.png" width="834.00" height="471.00" transform="matrix(1.00, 0.00, -0.00, -1.00, 4.4, 472.6)" opacity="0.17"></image><path d="M 19.4 471.0 L 820.6 471.0 C 824.3 471.0 826.2 471.0 828.2 470.3 C 830.3 469.6 832.1 467.8 832.9 465.7 C 833.5 463.7 833.5 461.8 833.5 458.0 L 833.5 19.9 C 833.5 16.2 833.5 14.3 832.9 12.3 C 832.1 10.2 830.3 8.4 828.2 7.7 C 826.2 7.0 824.3 7.0 820.6 7.0 L 19.4 7.0 C 15.7 7.0 13.8 7.0 11.8 7.7 C 9.7 8.4 7.9 10.2 7.1 12.3 C 6.5 14.3 6.5 16.2 6.5 20.0 L 6.5 458.1 C 6.5 461.8 6.5 463.7 7.1 465.7 C 7.9 467.8 9.7 469.6 11.8 470.3 C 13.8 471.0 15.7 471.0 19.4 471.0 Z M 19.4 471.0 " fill="#F4F5F7" fill-opacity="0.06"></path><path d="M 12.9 0.0 L 814.1 0.0 C 817.8 0.0 819.7 0.0 821.6 0.6 C 823.8 1.4 825.5 3.1 826.3 5.3 C 827.0 7.3 827.0 9.2 827.0 12.9 L 827.0 451.1 C 827.0 454.8 827.0 456.6 826.3 458.6 C 825.5 460.8 823.8 462.5 821.6 463.3 C 819.7 463.9 817.8 463.9 814.0 463.9 L 12.9 463.9 C 9.2 463.9 7.3 463.9 5.3 463.3 C 3.1 462.5 1.4 460.8 0.6 458.6 C 0.0 456.6 0.0 454.8 0.0 451.0 L 0.0 12.9 C 0.0 9.2 0.0 7.3 0.6 5.3 C 1.4 3.1 3.1 1.4 5.3 0.6 C 7.3 0.0 9.2 0.0 12.9 0.0 Z M 12.9 0.0 " fill="none" stroke="#A6AAA8" stroke-width="1.10" transform="matrix(1.00, 0.00, 0.00, -1.00, 6.5, 471.0)"></path></g></svg>