<?xml version="1.0" encoding="UTF-8" standalone="no"?><svg xmlns="http://www.w3.org/2000/svg" xmlns:xlink="http://www.w3.org/1999/xlink" clip-rule="evenodd" stroke-miterlimit="4.00" viewBox="0 0 1920 1080"><desc>SVG generated by Keynote</desc><defs></defs><g transform="matrix(1.00, 0.00, -0.00, -1.00, 0.0, 1080.0)"><path d="M 0.0 1080.0 L 1920.0 1080.0 L 1920.0 0.0 L 0.0 0.0 Z M 0.0 1080.0 " fill="#FEFFFF"></path><text xml:space="preserve" font-family="GillSans" font-size="112.0" fill="#000000" transform="matrix(1.00, 0.00, -0.00, -1.00, 796.0, 876.0)">T</text><text xml:space="preserve" font-family="GillSans" font-size="112.0" fill="#000000" transform="matrix(1.00, 0.00, -0.00, -1.00, 856.4, 876.0)">O</text><text xml:space="preserve" font-family="GillSans" font-size="112.0" fill="#000000" transform="matrix(1.00, 0.00, -0.00, -1.00, 948.6, 876.0)">D</text><text xml:space="preserve" font-family="GillSans" font-size="112.0" fill="#000000" transform="matrix(1.00, 0.00, -0.00, -1.00, 1032.6, 876.0)">O</text><path d="M 146.3 771.2 L 1773.7 771.2 C 1777.5 771.2 1779.5 771.2 1781.5 770.6 C 1783.8 769.8 1785.5 768.0 1786.3 765.7 C 1787.0 763.7 1787.0 761.8 1787.0 757.9 L 1787.0 69.2 C 1787.0 65.4 1787.0 63.5 1786.3 61.4 C 1785.5 59.2 1783.8 57.4 1781.5 56.6 C 1779.5 55.9 1777.5 55.9 1773.7 55.9 L 146.3 55.9 C 142.5 55.9 140.5 55.9 138.5 56.6 C 136.2 57.4 134.5 59.2 133.7 61.4 C 133.0 63.5 133.0 65.4 133.0 69.3 L 133.0 758.0 C 133.0 761.8 133.0 763.7 133.7 765.7 C 134.5 768.0 136.2 769.8 138.5 770.6 C 140.5 771.2 142.5 771.2 146.3 771.2 Z M 146.3 771.2 " fill="#FEFFFF"></path><g><clipPath id="clip-12149"><path d="M 130.1 55.9 L 1789.9 55.9 L 1789.9 771.2 L 130.1 771.2 Z M 130.1 55.9 "></path></clipPath><g clip-path="url(#clip-12149)"><text xml:space="preserve" font-family="GillSans" font-size="45.0" fill="#C82505" transform="matrix(1.00, 0.00, -0.00, -1.00, 617.0, 399.0)">a</text><text xml:space="preserve" font-family="GillSans" font-size="45.0" fill="#C82505" transform="matrix(1.00, 0.00, -0.00, -1.00, 636.2, 399.0)">d</text><text xml:space="preserve" font-family="GillSans" font-size="45.0" fill="#C82505" transform="matrix(1.00, 0.00, -0.00, -1.00, 658.7, 399.0)">d</text><text xml:space="preserve" font-family="GillSans" font-size="45.0" fill="#C82505" transform="matrix(1.00, 0.00, -0.00, -1.00, 681.6, 399.0)"> </text><text xml:space="preserve" font-family="GillSans" font-size="45.0" fill="#C82505" transform="matrix(1.00, 0.00, -0.00, -1.00, 694.1, 399.0)">r</text><text xml:space="preserve" font-family="GillSans" font-size="45.0" fill="#C82505" transform="matrix(1.00, 0.00, -0.00, -1.00, 711.0, 399.0)">e</text><text xml:space="preserve" font-family="GillSans" font-size="45.0" fill="#C82505" transform="matrix(1.00, 0.00, -0.00, -1.00, 732.6, 399.0)">s</text><text xml:space="preserve" font-family="GillSans" font-size="45.0" fill="#C82505" transform="matrix(1.00, 0.00, -0.00, -1.00, 749.9, 399.0)">t</text><text xml:space="preserve" font-family="GillSans" font-size="45.0" fill="#C82505" transform="matrix(1.00, 0.00, -0.00, -1.00, 764.9, 399.0)"> </text><text xml:space="preserve" font-family="GillSans" font-size="45.0" fill="#C82505" transform="matrix(1.00, 0.00, -0.00, -1.00, 777.4, 399.0)">o</text><text xml:space="preserve" font-family="GillSans" font-size="45.0" fill="#C82505" transform="matrix(1.00, 0.00, -0.00, -1.00, 802.2, 399.0)">f</text><text xml:space="preserve" font-family="GillSans" font-size="45.0" fill="#C82505" transform="matrix(1.00, 0.00, -0.00, -1.00, 813.4, 399.0)"> </text><text xml:space="preserve" font-family="GillSans" font-size="45.0" fill="#C82505" transform="matrix(1.00, 0.00, -0.00, -1.00, 825.9, 399.0)">t</text><text xml:space="preserve" font-family="GillSans" font-size="45.0" fill="#C82505" transform="matrix(1.00, 0.00, -0.00, -1.00, 840.9, 399.0)">h</text><text xml:space="preserve" font-family="GillSans" font-size="45.0" fill="#C82505" transform="matrix(1.00, 0.00, -0.00, -1.00, 863.4, 399.0)">e</text><text xml:space="preserve" font-family="GillSans" font-size="45.0" fill="#C82505" transform="matrix(1.00, 0.00, -0.00, -1.00, 885.0, 399.0)"> </text><text xml:space="preserve" font-family="GillSans" font-size="45.0" fill="#C82505" transform="matrix(1.00, 0.00, -0.00, -1.00, 897.5, 399.0)">c</text><text xml:space="preserve" font-family="GillSans" font-size="45.0" fill="#C82505" transform="matrix(1.00, 0.00, -0.00, -1.00, 917.2, 399.0)">o</text><text xml:space="preserve" font-family="GillSans" font-size="45.0" fill="#C82505" transform="matrix(1.00, 0.00, -0.00, -1.00, 942.0, 399.0)">n</text><text xml:space="preserve" font-family="GillSans" font-size="45.0" fill="#C82505" transform="matrix(1.00, 0.00, -0.00, -1.00, 964.5, 399.0)">t</text><text xml:space="preserve" font-family="GillSans" font-size="45.0" fill="#C82505" transform="matrix(1.00, 0.00, -0.00, -1.00, 979.5, 399.0)">e</text><text xml:space="preserve" font-family="GillSans" font-size="45.0" fill="#C82505" transform="matrix(1.00, 0.00, -0.00, -1.00, 1001.0, 399.0)">n</text><text xml:space="preserve" font-family="GillSans" font-size="45.0" fill="#C82505" transform="matrix(1.00, 0.00, -0.00, -1.00, 1023.5, 399.0)">t</text><text xml:space="preserve" font-family="GillSans" font-size="45.0" fill="#C82505" transform="matrix(1.00, 0.00, -0.00, -1.00, 1038.5, 399.0)">s</text><text xml:space="preserve" font-family="GillSans" font-size="45.0" fill="#C82505" transform="matrix(1.00, 0.00, -0.00, -1.00, 1055.8, 399.0)"> </text><text xml:space="preserve" font-family="GillSans" font-size="45.0" fill="#C82505" transform="matrix(1.00, 0.00, -0.00, -1.00, 1068.3, 399.0)">a</text><text xml:space="preserve" font-family="GillSans" font-size="45.0" fill="#C82505" transform="matrix(1.00, 0.00, -0.00, -1.00, 1087.5, 399.0)">s</text><text xml:space="preserve" font-family="GillSans" font-size="45.0" fill="#C82505" transform="matrix(1.00, 0.00, -0.00, -1.00, 1104.8, 399.0)"> </text><text xml:space="preserve" font-family="GillSans" font-size="45.0" fill="#C82505" transform="matrix(1.00, 0.00, -0.00, -1.00, 1117.3, 399.0)">p</text><text xml:space="preserve" font-family="GillSans" font-size="45.0" fill="#C82505" transform="matrix(1.00, 0.00, -0.00, -1.00, 1139.8, 399.0)">l</text><text xml:space="preserve" font-family="GillSans" font-size="45.0" fill="#C82505" transform="matrix(1.00, 0.00, -0.00, -1.00, 1149.7, 399.0)">a</text><text xml:space="preserve" font-family="GillSans" font-size="45.0" fill="#C82505" transform="matrix(1.00, 0.00, -0.00, -1.00, 1168.9, 399.0)">n</text><text xml:space="preserve" font-family="GillSans" font-size="45.0" fill="#C82505" transform="matrix(1.00, 0.00, -0.00, -1.00, 1191.4, 399.0)">n</text><text xml:space="preserve" font-family="GillSans" font-size="45.0" fill="#C82505" transform="matrix(1.00, 0.00, -0.00, -1.00, 1213.9, 399.0)">e</text><text xml:space="preserve" font-family="GillSans" font-size="45.0" fill="#C82505" transform="matrix(1.00, 0.00, -0.00, -1.00, 1235.4, 399.0)">d</text><text xml:space="preserve" font-family="GillSans" font-size="45.0" fill="#C82505" transform="matrix(1.00, 0.00, -0.00, -1.00, 1258.4, 399.0)">…</text></g></g></g></svg>