<?xml version="1.0" encoding="UTF-8" standalone="no"?><svg xmlns="http://www.w3.org/2000/svg" xmlns:xlink="http://www.w3.org/1999/xlink" clip-rule="evenodd" stroke-miterlimit="4.00" viewBox="0 0 1656 719"><desc>SVG generated by Keynote</desc><defs></defs><g transform="matrix(1.00, 0.00, -0.00, -1.00, 0.0, 719.0)"><path d="M 14.3 717.2 L 1641.7 717.2 C 1645.5 717.2 1647.5 717.2 1649.5 716.6 C 1651.8 715.8 1653.5 714.0 1654.3 711.7 C 1655.0 709.7 1655.0 707.8 1655.0 703.9 L 1655.0 15.2 C 1655.0 11.4 1655.0 9.5 1654.3 7.4 C 1653.5 5.2 1651.8 3.4 1649.5 2.6 C 1647.5 1.9 1645.5 1.9 1641.7 1.9 L 14.3 1.9 C 10.5 1.9 8.5 1.9 6.5 2.6 C 4.2 3.4 2.5 5.2 1.7 7.4 C 1.0 9.5 1.0 11.4 1.0 15.3 L 1.0 704.0 C 1.0 707.8 1.0 709.7 1.7 711.7 C 2.5 714.0 4.2 715.8 6.5 716.6 C 8.5 717.2 10.5 717.2 14.3 717.2 Z M 14.3 717.2 " fill="#FEFFFF"></path><g><clipPath id="clip-12148"><path d="M -1.9 1.9 L 1657.9 1.9 L 1657.9 717.2 L -1.9 717.2 Z M -1.9 1.9 "></path></clipPath><g clip-path="url(#clip-12148)"><text xml:space="preserve" font-family="GillSans" font-size="45.0" fill="#C82505" transform="matrix(1.00, 0.00, -0.00, -1.00, 485.0, 345.0)">a</text><text xml:space="preserve" font-family="GillSans" font-size="45.0" fill="#C82505" transform="matrix(1.00, 0.00, -0.00, -1.00, 504.2, 345.0)">d</text><text xml:space="preserve" font-family="GillSans" font-size="45.0" fill="#C82505" transform="matrix(1.00, 0.00, -0.00, -1.00, 526.7, 345.0)">d</text><text xml:space="preserve" font-family="GillSans" font-size="45.0" fill="#C82505" transform="matrix(1.00, 0.00, -0.00, -1.00, 549.6, 345.0)"> </text><text xml:space="preserve" font-family="GillSans" font-size="45.0" fill="#C82505" transform="matrix(1.00, 0.00, -0.00, -1.00, 562.1, 345.0)">r</text><text xml:space="preserve" font-family="GillSans" font-size="45.0" fill="#C82505" transform="matrix(1.00, 0.00, -0.00, -1.00, 579.0, 345.0)">e</text><text xml:space="preserve" font-family="GillSans" font-size="45.0" fill="#C82505" transform="matrix(1.00, 0.00, -0.00, -1.00, 600.6, 345.0)">s</text><text xml:space="preserve" font-family="GillSans" font-size="45.0" fill="#C82505" transform="matrix(1.00, 0.00, -0.00, -1.00, 617.9, 345.0)">t</text><text xml:space="preserve" font-family="GillSans" font-size="45.0" fill="#C82505" transform="matrix(1.00, 0.00, -0.00, -1.00, 632.9, 345.0)"> </text><text xml:space="preserve" font-family="GillSans" font-size="45.0" fill="#C82505" transform="matrix(1.00, 0.00, -0.00, -1.00, 645.4, 345.0)">o</text><text xml:space="preserve" font-family="GillSans" font-size="45.0" fill="#C82505" transform="matrix(1.00, 0.00, -0.00, -1.00, 670.2, 345.0)">f</text><text xml:space="preserve" font-family="GillSans" font-size="45.0" fill="#C82505" transform="matrix(1.00, 0.00, -0.00, -1.00, 681.4, 345.0)"> </text><text xml:space="preserve" font-family="GillSans" font-size="45.0" fill="#C82505" transform="matrix(1.00, 0.00, -0.00, -1.00, 693.9, 345.0)">t</text><text xml:space="preserve" font-family="GillSans" font-size="45.0" fill="#C82505" transform="matrix(1.00, 0.00, -0.00, -1.00, 708.9, 345.0)">h</text><text xml:space="preserve" font-family="GillSans" font-size="45.0" fill="#C82505" transform="matrix(1.00, 0.00, -0.00, -1.00, 731.4, 345.0)">e</text><text xml:space="preserve" font-family="GillSans" font-size="45.0" fill="#C82505" transform="matrix(1.00, 0.00, -0.00, -1.00, 753.0, 345.0)"> </text><text xml:space="preserve" font-family="GillSans" font-size="45.0" fill="#C82505" transform="matrix(1.00, 0.00, -0.00, -1.00, 765.5, 345.0)">c</text><text xml:space="preserve" font-family="GillSans" font-size="45.0" fill="#C82505" transform="matrix(1.00, 0.00, -0.00, -1.00, 785.2, 345.0)">o</text><text xml:space="preserve" font-family="GillSans" font-size="45.0" fill="#C82505" transform="matrix(1.00, 0.00, -0.00, -1.00, 810.0, 345.0)">n</text><text xml:space="preserve" font-family="GillSans" font-size="45.0" fill="#C82505" transform="matrix(1.00, 0.00, -0.00, -1.00, 832.5, 345.0)">t</text><text xml:space="preserve" font-family="GillSans" font-size="45.0" fill="#C82505" transform="matrix(1.00, 0.00, -0.00, -1.00, 847.5, 345.0)">e</text><text xml:space="preserve" font-family="GillSans" font-size="45.0" fill="#C82505" transform="matrix(1.00, 0.00, -0.00, -1.00, 869.0, 345.0)">n</text><text xml:space="preserve" font-family="GillSans" font-size="45.0" fill="#C82505" transform="matrix(1.00, 0.00, -0.00, -1.00, 891.5, 345.0)">t</text><text xml:space="preserve" font-family="GillSans" font-size="45.0" fill="#C82505" transform="matrix(1.00, 0.00, -0.00, -1.00, 906.5, 345.0)">s</text><text xml:space="preserve" font-family="GillSans" font-size="45.0" fill="#C82505" transform="matrix(1.00, 0.00, -0.00, -1.00, 923.8, 345.0)"> </text><text xml:space="preserve" font-family="GillSans" font-size="45.0" fill="#C82505" transform="matrix(1.00, 0.00, -0.00, -1.00, 936.3, 345.0)">a</text><text xml:space="preserve" font-family="GillSans" font-size="45.0" fill="#C82505" transform="matrix(1.00, 0.00, -0.00, -1.00, 955.5, 345.0)">s</text><text xml:space="preserve" font-family="GillSans" font-size="45.0" fill="#C82505" transform="matrix(1.00, 0.00, -0.00, -1.00, 972.8, 345.0)"> </text><text xml:space="preserve" font-family="GillSans" font-size="45.0" fill="#C82505" transform="matrix(1.00, 0.00, -0.00, -1.00, 985.3, 345.0)">p</text><text xml:space="preserve" font-family="GillSans" font-size="45.0" fill="#C82505" transform="matrix(1.00, 0.00, -0.00, -1.00, 1007.8, 345.0)">l</text><text xml:space="preserve" font-family="GillSans" font-size="45.0" fill="#C82505" transform="matrix(1.00, 0.00, -0.00, -1.00, 1017.7, 345.0)">a</text><text xml:space="preserve" font-family="GillSans" font-size="45.0" fill="#C82505" transform="matrix(1.00, 0.00, -0.00, -1.00, 1036.9, 345.0)">n</text><text xml:space="preserve" font-family="GillSans" font-size="45.0" fill="#C82505" transform="matrix(1.00, 0.00, -0.00, -1.00, 1059.4, 345.0)">n</text><text xml:space="preserve" font-family="GillSans" font-size="45.0" fill="#C82505" transform="matrix(1.00, 0.00, -0.00, -1.00, 1081.9, 345.0)">e</text><text xml:space="preserve" font-family="GillSans" font-size="45.0" fill="#C82505" transform="matrix(1.00, 0.00, -0.00, -1.00, 1103.4, 345.0)">d</text><text xml:space="preserve" font-family="GillSans" font-size="45.0" fill="#C82505" transform="matrix(1.00, 0.00, -0.00, -1.00, 1126.4, 345.0)">…</text></g></g></g></svg>