<?xml version="1.0" encoding="UTF-8" standalone="no"?><svg xmlns="http://www.w3.org/2000/svg" xmlns:xlink="http://www.w3.org/1999/xlink" clip-rule="evenodd" stroke-miterlimit="4.00" viewBox="0 0 508 68"><desc>SVG generated by Keynote</desc><defs></defs><g transform="matrix(1.00, 0.00, -0.00, -1.00, 0.0, 68.0)"><g><clipPath id="clip-4681"><path d="M 1.0 0.1 L 507.4 0.1 L 507.4 67.4 L 1.0 67.4 Z M 1.0 0.1 "></path></clipPath><g clip-path="url(#clip-4681)"><image xlink:href="../../FDFB80FF-6364-4B8F-8831-ED6B4240AA11/assets/42FB3DA71C466B711BE82E1070565B83.png" width="504.00" height="65.00" transform="matrix(1.00, 0.00, -0.00, -1.00, 2.0, 66.4)" opacity="0.50"></image><path d="M 14.8 65.4 L 493.6 65.4 C 496.4 65.4 497.9 65.4 499.4 64.9 C 501.0 64.3 502.4 63.0 503.0 61.3 C 503.4 59.8 503.4 58.4 503.4 55.5 L 503.4 16.0 C 503.4 13.1 503.4 11.7 503.0 10.2 C 502.4 8.5 501.0 7.2 499.4 6.6 C 497.9 6.1 496.4 6.1 493.6 6.1 L 14.8 6.1 C 12.0 6.1 10.5 6.1 9.0 6.6 C 7.4 7.2 6.1 8.5 5.4 10.2 C 5.0 11.7 5.0 13.1 5.0 16.0 L 5.0 55.6 C 5.0 58.4 5.0 59.8 5.4 61.3 C 6.1 63.0 7.4 64.3 9.0 64.9 C 10.5 65.4 12.0 65.4 14.8 65.4 Z M 14.8 65.4 " fill="#DCDDE0"></path></g></g><g><clipPath id="clip-4682"><path d="M 256.8 9.1 L 375.4 9.1 L 375.4 58.4 L 256.8 58.4 Z M 256.8 9.1 "></path></clipPath><g clip-path="url(#clip-4682)"><image xlink:href="../../FDFB80FF-6364-4B8F-8831-ED6B4240AA11/assets/C56A550AA0F9FF78F3C51480D8339971.png" width="117.00" height="47.00" transform="matrix(1.00, 0.00, -0.00, -1.01, 257.8, 57.4)" opacity="0.50"></image></g></g><g><clipPath id="clip-4683"><path d="M 270.3 56.4 L 362.0 56.4 C 364.7 56.4 366.0 56.4 367.5 56.0 C 369.1 55.4 370.4 54.1 371.0 52.5 C 371.4 51.0 371.4 49.7 371.4 46.9 L 371.4 24.6 C 371.4 21.9 371.4 20.5 371.0 19.0 C 370.4 17.4 369.1 16.1 367.5 15.6 C 366.0 15.1 364.7 15.1 361.9 15.1 L 270.3 15.1 C 267.6 15.1 266.2 15.1 264.8 15.6 C 263.2 16.1 261.9 17.4 261.3 19.0 C 260.8 20.5 260.8 21.9 260.8 24.6 L 260.8 46.9 C 260.8 49.7 260.8 51.0 261.3 52.5 C 261.9 54.1 263.2 55.4 264.8 56.0 C 266.2 56.4 267.6 56.4 270.4 56.4 Z M 270.3 56.4 "></path></clipPath><g clip-path="url(#clip-4683)"><g><clipPath id="clip-4684"><path d="M 256.8 9.1 L 375.4 9.1 L 375.4 58.4 L 256.8 58.4 Z M 256.8 9.1 "></path></clipPath><g clip-path="url(#clip-4684)"><image xlink:href="../../FDFB80FF-6364-4B8F-8831-ED6B4240AA11/assets/D5BAA0E7A80E113D25EB92D00157B4C8.jpeg" width="300.00" height="300.00" transform="matrix(1.00, 0.00, -0.00, -1.00, 260.8, 56.4)"></image><path d="M 260.8 56.4 L 371.4 56.4 L 371.4 15.1 L 260.8 15.1 Z M 260.8 56.4 " fill="#00D026" fill-opacity="0.50"></path></g></g></g></g><g><clipPath id="clip-4685"><path d="M 258.9 15.1 L 373.4 15.1 L 373.4 56.4 L 258.9 56.4 Z M 258.9 15.1 "></path></clipPath><g clip-path="url(#clip-4685)"><text xml:space="preserve" font-family="GillSans-SemiBold" font-weight="bold" font-size="20.0" fill="#FEFFFE" transform="matrix(1.00, 0.00, -0.00, -1.00, 287.0, 29.0)">A</text><text xml:space="preserve" font-family="GillSans-SemiBold" font-weight="bold" font-size="20.0" fill="#FEFFFE" transform="matrix(1.00, 0.00, -0.00, -1.00, 301.5, 29.0)">c</text><text xml:space="preserve" font-family="GillSans-SemiBold" font-weight="bold" font-size="20.0" fill="#FEFFFE" transform="matrix(1.00, 0.00, -0.00, -1.00, 310.8, 29.0)">t</text><text xml:space="preserve" font-family="GillSans-SemiBold" font-weight="bold" font-size="20.0" fill="#FEFFFE" transform="matrix(1.00, 0.00, -0.00, -1.00, 318.1, 29.0)">i</text><text xml:space="preserve" font-family="GillSans-SemiBold" font-weight="bold" font-size="20.0" fill="#FEFFFE" transform="matrix(1.00, 0.00, -0.00, -1.00, 323.1, 29.0)">o</text><text xml:space="preserve" font-family="GillSans-SemiBold" font-weight="bold" font-size="20.0" fill="#FEFFFE" transform="matrix(1.00, 0.00, -0.00, -1.00, 334.6, 29.0)">n</text></g></g><g><clipPath id="clip-4686"><path d="M 9.3 9.1 L 127.9 9.1 L 127.9 58.4 L 9.3 58.4 Z M 9.3 9.1 "></path></clipPath><g clip-path="url(#clip-4686)"><image xlink:href="../../FDFB80FF-6364-4B8F-8831-ED6B4240AA11/assets/C56A550AA0F9FF78F3C51480D8339971.png" width="117.00" height="47.00" transform="matrix(1.00, 0.00, -0.00, -1.01, 10.3, 57.4)" opacity="0.50"></image></g></g><g><clipPath id="clip-4687"><path d="M 22.8 56.4 L 114.4 56.4 C 117.1 56.4 118.5 56.4 120.0 56.0 C 121.6 55.4 122.9 54.1 123.4 52.5 C 123.9 51.0 123.9 49.7 123.9 46.9 L 123.9 24.6 C 123.9 21.9 123.9 20.5 123.4 19.0 C 122.9 17.4 121.6 16.1 120.0 15.6 C 118.5 15.1 117.1 15.1 114.4 15.1 L 22.8 15.1 C 20.1 15.1 18.7 15.1 17.2 15.6 C 15.6 16.1 14.4 17.4 13.8 19.0 C 13.3 20.5 13.3 21.9 13.3 24.6 L 13.3 46.9 C 13.3 49.7 13.3 51.0 13.8 52.5 C 14.4 54.1 15.6 55.4 17.2 56.0 C 18.7 56.4 20.1 56.4 22.8 56.4 Z M 22.8 56.4 "></path></clipPath><g clip-path="url(#clip-4687)"><g><clipPath id="clip-4688"><path d="M 9.3 9.1 L 127.9 9.1 L 127.9 58.4 L 9.3 58.4 Z M 9.3 9.1 "></path></clipPath><g clip-path="url(#clip-4688)"><image xlink:href="../../FDFB80FF-6364-4B8F-8831-ED6B4240AA11/assets/D5BAA0E7A80E113D25EB92D00157B4C8.jpeg" width="300.00" height="300.00" transform="matrix(1.00, 0.00, -0.00, -1.00, 13.3, 56.4)"></image><path d="M 13.3 56.4 L 123.9 56.4 L 123.9 15.1 L 13.3 15.1 Z M 13.3 56.4 " fill="#009BFC" fill-opacity="0.50"></path></g></g></g></g><g><clipPath id="clip-4689"><path d="M 11.4 15.1 L 125.8 15.1 L 125.8 56.4 L 11.4 56.4 Z M 11.4 15.1 "></path></clipPath><g clip-path="url(#clip-4689)"><text xml:space="preserve" font-family="GillSans-SemiBold" font-weight="bold" font-size="20.0" fill="#FEFFFE" transform="matrix(1.00, 0.00, -0.00, -1.00, 46.0, 29.0)">I</text><text xml:space="preserve" font-family="GillSans-SemiBold" font-weight="bold" font-size="20.0" fill="#FEFFFE" transform="matrix(1.00, 0.00, -0.00, -1.00, 51.8, 29.0)">n</text><text xml:space="preserve" font-family="GillSans-SemiBold" font-weight="bold" font-size="20.0" fill="#FEFFFE" transform="matrix(1.00, 0.00, -0.00, -1.00, 62.6, 29.0)">p</text><text xml:space="preserve" font-family="GillSans-SemiBold" font-weight="bold" font-size="20.0" fill="#FEFFFE" transform="matrix(1.00, 0.00, -0.00, -1.00, 73.5, 29.0)">u</text><text xml:space="preserve" font-family="GillSans-SemiBold" font-weight="bold" font-size="20.0" fill="#FEFFFE" transform="matrix(1.00, 0.00, -0.00, -1.00, 84.3, 29.0)">t</text></g></g><g><clipPath id="clip-4690"><path d="M 380.6 9.1 L 499.2 9.1 L 499.2 58.4 L 380.6 58.4 Z M 380.6 9.1 "></path></clipPath><g clip-path="url(#clip-4690)"><image xlink:href="../../FDFB80FF-6364-4B8F-8831-ED6B4240AA11/assets/C56A550AA0F9FF78F3C51480D8339971.png" width="117.00" height="47.00" transform="matrix(1.00, 0.00, -0.00, -1.01, 381.6, 57.4)" opacity="0.50"></image></g></g><g><clipPath id="clip-4691"><path d="M 394.1 56.4 L 485.7 56.4 C 488.4 56.4 489.8 56.4 491.3 56.0 C 492.9 55.4 494.1 54.1 494.7 52.5 C 495.2 51.0 495.2 49.7 495.2 46.9 L 495.2 24.6 C 495.2 21.9 495.2 20.5 494.7 19.0 C 494.1 17.4 492.9 16.1 491.3 15.6 C 489.8 15.1 488.4 15.1 485.7 15.1 L 394.1 15.1 C 391.4 15.1 390.0 15.1 388.5 15.6 C 386.9 16.1 385.7 17.4 385.1 19.0 C 384.6 20.5 384.6 21.9 384.6 24.6 L 384.6 46.9 C 384.6 49.7 384.6 51.0 385.1 52.5 C 385.7 54.1 386.9 55.4 388.5 56.0 C 390.0 56.4 391.4 56.4 394.1 56.4 Z M 394.1 56.4 "></path></clipPath><g clip-path="url(#clip-4691)"><g><clipPath id="clip-4692"><path d="M 380.6 9.1 L 499.2 9.1 L 499.2 58.4 L 380.6 58.4 Z M 380.6 9.1 "></path></clipPath><g clip-path="url(#clip-4692)"><image xlink:href="../../FDFB80FF-6364-4B8F-8831-ED6B4240AA11/assets/D5BAA0E7A80E113D25EB92D00157B4C8.jpeg" width="300.00" height="300.00" transform="matrix(1.00, 0.00, -0.00, -1.00, 384.6, 56.4)"></image><path d="M 384.6 56.4 L 495.2 56.4 L 495.2 15.1 L 384.6 15.1 Z M 384.6 56.4 " fill="#FF2A05" fill-opacity="0.50"></path></g></g></g></g><g><clipPath id="clip-4693"><path d="M 382.7 15.1 L 497.1 15.1 L 497.1 56.4 L 382.7 56.4 Z M 382.7 15.1 "></path></clipPath><g clip-path="url(#clip-4693)"><text xml:space="preserve" font-family="GillSans-SemiBold" font-weight="bold" font-size="20.0" fill="#FEFFFE" transform="matrix(1.00, 0.00, -0.00, -1.00, 408.0, 29.0)">O</text><text xml:space="preserve" font-family="GillSans-SemiBold" font-weight="bold" font-size="20.0" fill="#FEFFFE" transform="matrix(1.00, 0.00, -0.00, -1.00, 425.0, 29.0)">u</text><text xml:space="preserve" font-family="GillSans-SemiBold" font-weight="bold" font-size="20.0" fill="#FEFFFE" transform="matrix(1.00, 0.00, -0.00, -1.00, 435.8, 29.0)">t</text><text xml:space="preserve" font-family="GillSans-SemiBold" font-weight="bold" font-size="20.0" fill="#FEFFFE" transform="matrix(1.00, 0.00, -0.00, -1.00, 443.2, 29.0)">p</text><text xml:space="preserve" font-family="GillSans-SemiBold" font-weight="bold" font-size="20.0" fill="#FEFFFE" transform="matrix(1.00, 0.00, -0.00, -1.00, 454.1, 29.0)">u</text><text xml:space="preserve" font-family="GillSans-SemiBold" font-weight="bold" font-size="20.0" fill="#FEFFFE" transform="matrix(1.00, 0.00, -0.00, -1.00, 464.9, 29.0)">t</text></g></g><g><clipPath id="clip-4694"><path d="M 133.1 9.1 L 251.7 9.1 L 251.7 58.4 L 133.1 58.4 Z M 133.1 9.1 "></path></clipPath><g clip-path="url(#clip-4694)"><image xlink:href="../../FDFB80FF-6364-4B8F-8831-ED6B4240AA11/assets/C56A550AA0F9FF78F3C51480D8339971.png" width="117.00" height="47.00" transform="matrix(1.00, 0.00, -0.00, -1.01, 134.1, 57.4)" opacity="0.50"></image></g></g><g><clipPath id="clip-4695"><path d="M 146.6 56.4 L 238.2 56.4 C 240.9 56.4 242.3 56.4 243.7 56.0 C 245.4 55.4 246.6 54.1 247.2 52.5 C 247.7 51.0 247.7 49.7 247.7 46.9 L 247.7 24.6 C 247.7 21.9 247.7 20.5 247.2 19.0 C 246.6 17.4 245.4 16.1 243.7 15.6 C 242.3 15.1 240.9 15.1 238.1 15.1 L 146.6 15.1 C 143.8 15.1 142.5 15.1 141.0 15.6 C 139.4 16.1 138.1 17.4 137.5 19.0 C 137.1 20.5 137.1 21.9 137.1 24.6 L 137.1 46.9 C 137.1 49.7 137.1 51.0 137.5 52.5 C 138.1 54.1 139.4 55.4 141.0 56.0 C 142.5 56.4 143.8 56.4 146.6 56.4 Z M 146.6 56.4 "></path></clipPath><g clip-path="url(#clip-4695)"><g><clipPath id="clip-4696"><path d="M 133.1 9.1 L 251.7 9.1 L 251.7 58.4 L 133.1 58.4 Z M 133.1 9.1 "></path></clipPath><g clip-path="url(#clip-4696)"><image xlink:href="../../FDFB80FF-6364-4B8F-8831-ED6B4240AA11/assets/82235AF7F54A50D3E98B46DAE150A7DA.jpeg" width="300.00" height="300.00" transform="matrix(1.00, 0.00, -0.00, -1.00, 137.1, 56.4)"></image><path d="M 137.1 56.4 L 247.7 56.4 L 247.7 15.1 L 137.1 15.1 Z M 137.1 56.4 " fill="#FFE02A" fill-opacity="0.52"></path></g></g></g></g><g><clipPath id="clip-4697"><path d="M 135.1 15.1 L 249.6 15.1 L 249.6 56.4 L 135.1 56.4 Z M 135.1 15.1 "></path></clipPath><g clip-path="url(#clip-4697)"><text xml:space="preserve" font-family="GillSans-SemiBold" font-weight="bold" font-size="20.0" fill="#FEFFFE" transform="matrix(1.00, 0.00, -0.00, -1.00, 159.0, 29.0)">E</text><text xml:space="preserve" font-family="GillSans-SemiBold" font-weight="bold" font-size="20.0" fill="#FEFFFE" transform="matrix(1.00, 0.00, -0.00, -1.00, 170.4, 29.0)">n</text><text xml:space="preserve" font-family="GillSans-SemiBold" font-weight="bold" font-size="20.0" fill="#FEFFFE" transform="matrix(1.00, 0.00, -0.00, -1.00, 181.2, 29.0)">a</text><text xml:space="preserve" font-family="GillSans-SemiBold" font-weight="bold" font-size="20.0" fill="#FEFFFE" transform="matrix(1.00, 0.00, -0.00, -1.00, 190.9, 29.0)">b</text><text xml:space="preserve" font-family="GillSans-SemiBold" font-weight="bold" font-size="20.0" fill="#FEFFFE" transform="matrix(1.00, 0.00, -0.00, -1.00, 201.9, 29.0)">l</text><text xml:space="preserve" font-family="GillSans-SemiBold" font-weight="bold" font-size="20.0" fill="#FEFFFE" transform="matrix(1.00, 0.00, -0.00, -1.00, 206.8, 29.0)">e</text><text xml:space="preserve" font-family="GillSans-SemiBold" font-weight="bold" font-size="20.0" fill="#FEFFFE" transform="matrix(1.00, 0.00, -0.00, -1.00, 217.1, 29.0)">r</text></g></g></g></svg>