<?xml version="1.0" encoding="UTF-8" standalone="no"?><svg xmlns="http://www.w3.org/2000/svg" xmlns:xlink="http://www.w3.org/1999/xlink" clip-rule="evenodd" stroke-miterlimit="4.00" viewBox="0 0 418 406"><desc>SVG generated by Keynote</desc><defs></defs><g transform="matrix(1.00, 0.00, -0.00, -1.00, 0.0, 406.0)"><g><clipPath id="clip-4698"><path d="M 1.0 172.2 L 417.4 172.2 L 417.4 298.8 L 1.0 298.8 Z M 1.0 172.2 "></path></clipPath><g clip-path="url(#clip-4698)"><image xlink:href="C97692C7C9ADAE38F23F0FC85CC1E915.png" width="414.00" height="125.00" transform="matrix(1.00, 0.00, -0.00, -1.00, 2.0, 297.8)" opacity="0.15"></image><path d="M 11.0 0.0 L 317.5 0.0 C 320.6 0.0 322.2 0.0 323.9 0.5 C 325.8 1.2 327.3 2.7 327.9 4.5 C 328.5 6.2 328.5 7.8 328.5 11.0 L 328.5 27.6 C 328.5 30.7 328.5 32.3 327.9 34.0 C 327.3 35.9 325.8 37.3 323.9 38.0 C 322.2 38.5 320.6 38.5 317.5 38.5 L 11.0 38.5 C 7.8 38.5 6.2 38.5 4.5 38.0 C 2.7 37.3 1.2 35.9 0.5 34.0 C 0.0 32.3 0.0 30.7 0.0 27.5 L 0.0 11.0 C 0.0 7.8 0.0 6.2 0.5 4.5 C 1.2 2.7 2.7 1.2 4.5 0.5 C 6.2 0.0 7.8 0.0 11.0 0.0 Z M 11.0 0.0 " fill="none" stroke="#000000" stroke-width="2.00" transform="matrix(1.00, 0.00, 0.00, -1.00, 45.0, 256.7)"></path></g></g><g><clipPath id="clip-4699"><path d="M 44.2 218.1 L 374.2 218.1 L 374.2 256.7 L 44.2 256.7 Z M 44.2 218.1 "></path></clipPath><g clip-path="url(#clip-4699)"><text xml:space="preserve" font-family="GillSans-SemiBold" font-weight="bold" font-size="20.0" fill="#000000" transform="matrix(1.00, 0.00, -0.00, -1.00, 50.0, 230.0)">I</text><text xml:space="preserve" font-family="GillSans-SemiBold" font-weight="bold" font-size="20.0" fill="#000000" transform="matrix(1.00, 0.00, -0.00, -1.00, 55.8, 230.0)">n</text><text xml:space="preserve" font-family="GillSans-SemiBold" font-weight="bold" font-size="20.0" fill="#000000" transform="matrix(1.00, 0.00, -0.00, -1.00, 66.6, 230.0)">p</text><text xml:space="preserve" font-family="GillSans-SemiBold" font-weight="bold" font-size="20.0" fill="#000000" transform="matrix(1.00, 0.00, -0.00, -1.00, 77.5, 230.0)">u</text><text xml:space="preserve" font-family="GillSans-SemiBold" font-weight="bold" font-size="20.0" fill="#000000" transform="matrix(1.00, 0.00, -0.00, -1.00, 88.3, 230.0)">t</text></g></g><g><clipPath id="clip-4700"><path d="M 89.7 180.5 L 248.1 180.5 L 248.1 290.5 L 89.7 290.5 Z M 89.7 180.5 "></path></clipPath><g clip-path="url(#clip-4700)"><image xlink:href="825C2B53CD1183AB9FA0C6C46056A9F1.png" width="156.00" height="108.00" transform="matrix(1.00, 0.00, -0.00, -1.00, 90.7, 289.5)" opacity="0.15"></image><path d="M 140.1 248.4 L 197.7 248.4 C 199.5 248.4 200.5 248.4 201.4 248.1 C 202.5 247.7 203.4 246.8 203.8 245.8 C 204.1 244.8 204.1 243.8 204.1 242.0 L 204.1 232.8 C 204.1 231.0 204.1 230.1 203.8 229.1 C 203.4 228.0 202.5 227.1 201.4 226.7 C 200.5 226.4 199.5 226.4 197.7 226.4 L 140.1 226.4 C 138.3 226.4 137.4 226.4 136.4 226.7 C 135.3 227.1 134.5 228.0 134.1 229.1 C 133.7 230.1 133.7 231.0 133.7 232.8 L 133.7 242.0 C 133.7 243.8 133.7 244.8 134.1 245.8 C 134.5 246.8 135.3 247.7 136.4 248.1 C 137.4 248.4 138.3 248.4 140.2 248.4 Z M 140.1 248.4 " fill="#FEFFFF"></path><path d="M 6.4 0.0 L 63.9 0.0 C 65.8 0.0 66.7 0.0 67.7 0.3 C 68.8 0.7 69.6 1.6 70.0 2.6 C 70.3 3.6 70.3 4.6 70.3 6.4 L 70.3 15.6 C 70.3 17.4 70.3 18.4 70.0 19.3 C 69.6 20.4 68.8 21.3 67.7 21.7 C 66.7 22.0 65.8 22.0 63.9 22.0 L 6.4 22.0 C 4.6 22.0 3.6 22.0 2.6 21.7 C 1.6 21.3 0.7 20.4 0.3 19.3 C 0.0 18.4 0.0 17.4 0.0 15.6 L 0.0 6.4 C 0.0 4.6 0.0 3.6 0.3 2.6 C 0.7 1.6 1.6 0.7 2.6 0.3 C 3.6 0.0 4.6 0.0 6.4 0.0 Z M 6.4 0.0 " fill="none" stroke="#000000" stroke-width="2.00" transform="matrix(1.00, 0.00, 0.00, -1.00, 133.7, 248.4)"></path></g></g><g><clipPath id="clip-4701"><path d="M 169.7 180.5 L 328.1 180.5 L 328.1 290.5 L 169.7 290.5 Z M 169.7 180.5 "></path></clipPath><g clip-path="url(#clip-4701)"><image xlink:href="../../32393822-F149-4F37-B7BB-778531308D90/assets/825C2B53CD1183AB9FA0C6C46056A9F1.png" width="156.00" height="108.00" transform="matrix(1.00, 0.00, -0.00, -1.00, 170.7, 289.5)" opacity="0.15"></image><path d="M 220.1 248.4 L 277.7 248.4 C 279.5 248.4 280.5 248.4 281.4 248.1 C 282.5 247.7 283.4 246.8 283.8 245.8 C 284.1 244.8 284.1 243.8 284.1 242.0 L 284.1 232.8 C 284.1 231.0 284.1 230.1 283.8 229.1 C 283.4 228.0 282.5 227.1 281.4 226.7 C 280.5 226.4 279.5 226.4 277.7 226.4 L 220.1 226.4 C 218.3 226.4 217.4 226.4 216.4 226.7 C 215.3 227.1 214.5 228.0 214.1 229.1 C 213.7 230.1 213.7 231.0 213.7 232.8 L 213.7 242.0 C 213.7 243.8 213.7 244.8 214.1 245.8 C 214.5 246.8 215.3 247.7 216.4 248.1 C 217.4 248.4 218.3 248.4 220.2 248.4 Z M 220.1 248.4 " fill="#FEFFFF"></path><path d="M 6.4 0.0 L 63.9 0.0 C 65.8 0.0 66.7 0.0 67.7 0.3 C 68.8 0.7 69.6 1.6 70.0 2.6 C 70.3 3.6 70.3 4.6 70.3 6.4 L 70.3 15.6 C 70.3 17.4 70.3 18.4 70.0 19.3 C 69.6 20.4 68.8 21.3 67.7 21.7 C 66.7 22.0 65.8 22.0 63.9 22.0 L 6.4 22.0 C 4.6 22.0 3.6 22.0 2.6 21.7 C 1.6 21.3 0.7 20.4 0.3 19.3 C 0.0 18.4 0.0 17.4 0.0 15.6 L 0.0 6.4 C 0.0 4.6 0.0 3.6 0.3 2.6 C 0.7 1.6 1.6 0.7 2.6 0.3 C 3.6 0.0 4.6 0.0 6.4 0.0 Z M 6.4 0.0 " fill="none" stroke="#000000" stroke-width="2.00" transform="matrix(1.00, 0.00, 0.00, -1.00, 213.7, 248.4)"></path></g></g><g><clipPath id="clip-4702"><path d="M 249.7 180.5 L 408.1 180.5 L 408.1 290.5 L 249.7 290.5 Z M 249.7 180.5 "></path></clipPath><g clip-path="url(#clip-4702)"><image xlink:href="../../32393822-F149-4F37-B7BB-778531308D90/assets/825C2B53CD1183AB9FA0C6C46056A9F1.png" width="156.00" height="108.00" transform="matrix(1.00, 0.00, -0.00, -1.00, 250.7, 289.5)" opacity="0.15"></image><path d="M 300.1 248.4 L 357.7 248.4 C 359.5 248.4 360.5 248.4 361.4 248.1 C 362.5 247.7 363.4 246.8 363.8 245.8 C 364.1 244.8 364.1 243.8 364.1 242.0 L 364.1 232.8 C 364.1 231.0 364.1 230.1 363.8 229.1 C 363.4 228.0 362.5 227.1 361.4 226.7 C 360.5 226.4 359.5 226.4 357.7 226.4 L 300.1 226.4 C 298.3 226.4 297.4 226.4 296.4 226.7 C 295.3 227.1 294.5 228.0 294.1 229.1 C 293.7 230.1 293.7 231.0 293.7 232.8 L 293.7 242.0 C 293.7 243.8 293.7 244.8 294.1 245.8 C 294.5 246.8 295.3 247.7 296.4 248.1 C 297.4 248.4 298.3 248.4 300.2 248.4 Z M 300.1 248.4 " fill="#FEFFFF"></path><path d="M 6.4 0.0 L 63.9 0.0 C 65.8 0.0 66.7 0.0 67.7 0.3 C 68.8 0.7 69.6 1.6 70.0 2.6 C 70.3 3.6 70.3 4.6 70.3 6.4 L 70.3 15.6 C 70.3 17.4 70.3 18.4 70.0 19.3 C 69.6 20.4 68.8 21.3 67.7 21.7 C 66.7 22.0 65.8 22.0 63.9 22.0 L 6.4 22.0 C 4.6 22.0 3.6 22.0 2.6 21.7 C 1.6 21.3 0.7 20.4 0.3 19.3 C 0.0 18.4 0.0 17.4 0.0 15.6 L 0.0 6.4 C 0.0 4.6 0.0 3.6 0.3 2.6 C 0.7 1.6 1.6 0.7 2.6 0.3 C 3.6 0.0 4.6 0.0 6.4 0.0 Z M 6.4 0.0 " fill="none" stroke="#000000" stroke-width="2.00" transform="matrix(1.00, 0.00, 0.00, -1.00, 293.7, 248.4)"></path></g></g><g><clipPath id="clip-4703"><path d="M 1.0 122.2 L 417.4 122.2 L 417.4 248.8 L 1.0 248.8 Z M 1.0 122.2 "></path></clipPath><g clip-path="url(#clip-4703)"><image xlink:href="68B94131D269DD64355714C6B074488E.png" width="414.00" height="125.00" transform="matrix(1.00, 0.00, -0.00, -1.00, 2.0, 247.8)" opacity="0.15"></image><path d="M 11.0 0.0 L 317.5 0.0 C 320.6 0.0 322.2 0.0 323.9 0.5 C 325.8 1.2 327.3 2.7 327.9 4.5 C 328.5 6.2 328.5 7.8 328.5 11.0 L 328.5 27.6 C 328.5 30.7 328.5 32.3 327.9 34.0 C 327.3 35.9 325.8 37.3 323.9 38.0 C 322.2 38.5 320.6 38.5 317.5 38.5 L 11.0 38.5 C 7.8 38.5 6.2 38.5 4.5 38.0 C 2.7 37.3 1.2 35.9 0.5 34.0 C 0.0 32.3 0.0 30.7 0.0 27.5 L 0.0 11.0 C 0.0 7.8 0.0 6.2 0.5 4.5 C 1.2 2.7 2.7 1.2 4.5 0.5 C 6.2 0.0 7.8 0.0 11.0 0.0 Z M 11.0 0.0 " fill="none" stroke="#000000" stroke-width="2.00" transform="matrix(1.00, 0.00, 0.00, -1.00, 45.0, 206.7)"></path></g></g><g><clipPath id="clip-4704"><path d="M 44.2 168.1 L 374.2 168.1 L 374.2 206.7 L 44.2 206.7 Z M 44.2 168.1 "></path></clipPath><g clip-path="url(#clip-4704)"><text xml:space="preserve" font-family="GillSans-SemiBold" font-weight="bold" font-size="20.0" fill="#000000" transform="matrix(1.00, 0.00, -0.00, -1.00, 50.0, 180.0)">F</text><text xml:space="preserve" font-family="GillSans-SemiBold" font-weight="bold" font-size="20.0" fill="#000000" transform="matrix(1.00, 0.00, -0.00, -1.00, 60.7, 180.0)">e</text><text xml:space="preserve" font-family="GillSans-SemiBold" font-weight="bold" font-size="20.0" fill="#000000" transform="matrix(1.00, 0.00, -0.00, -1.00, 71.0, 180.0)">a</text><text xml:space="preserve" font-family="GillSans-SemiBold" font-weight="bold" font-size="20.0" fill="#000000" transform="matrix(1.00, 0.00, -0.00, -1.00, 80.7, 180.0)">t</text><text xml:space="preserve" font-family="GillSans-SemiBold" font-weight="bold" font-size="20.0" fill="#000000" transform="matrix(1.00, 0.00, -0.00, -1.00, 88.1, 180.0)">u</text><text xml:space="preserve" font-family="GillSans-SemiBold" font-weight="bold" font-size="20.0" fill="#000000" transform="matrix(1.00, 0.00, -0.00, -1.00, 98.9, 180.0)">r</text><text xml:space="preserve" font-family="GillSans-SemiBold" font-weight="bold" font-size="20.0" fill="#000000" transform="matrix(1.00, 0.00, -0.00, -1.00, 106.8, 180.0)">e</text><text xml:space="preserve" font-family="GillSans-SemiBold" font-weight="bold" font-size="20.0" fill="#000000" transform="matrix(1.00, 0.00, -0.00, -1.00, 117.2, 180.0)">s</text></g></g><g><clipPath id="clip-4705"><path d="M 249.7 130.5 L 408.1 130.5 L 408.1 240.5 L 249.7 240.5 Z M 249.7 130.5 "></path></clipPath><g clip-path="url(#clip-4705)"><image xlink:href="../../32393822-F149-4F37-B7BB-778531308D90/assets/825C2B53CD1183AB9FA0C6C46056A9F1.png" width="156.00" height="108.00" transform="matrix(1.00, 0.00, -0.00, -1.00, 250.7, 239.5)" opacity="0.15"></image><path d="M 300.1 198.4 L 357.7 198.4 C 359.5 198.4 360.5 198.4 361.4 198.1 C 362.5 197.7 363.4 196.8 363.8 195.8 C 364.1 194.8 364.1 193.8 364.1 192.0 L 364.1 182.8 C 364.1 181.0 364.1 180.1 363.8 179.1 C 363.4 178.0 362.5 177.1 361.4 176.7 C 360.5 176.4 359.5 176.4 357.7 176.4 L 300.1 176.4 C 298.3 176.4 297.4 176.4 296.4 176.7 C 295.3 177.1 294.5 178.0 294.1 179.1 C 293.7 180.1 293.7 181.0 293.7 182.8 L 293.7 192.0 C 293.7 193.8 293.7 194.8 294.1 195.8 C 294.5 196.8 295.3 197.7 296.4 198.1 C 297.4 198.4 298.3 198.4 300.2 198.4 Z M 300.1 198.4 " fill="#51A7F9"></path><path d="M 6.4 0.0 L 63.9 0.0 C 65.8 0.0 66.7 0.0 67.7 0.3 C 68.8 0.7 69.6 1.6 70.0 2.6 C 70.3 3.6 70.3 4.6 70.3 6.4 L 70.3 15.6 C 70.3 17.4 70.3 18.4 70.0 19.3 C 69.6 20.4 68.8 21.3 67.7 21.7 C 66.7 22.0 65.8 22.0 63.9 22.0 L 6.4 22.0 C 4.6 22.0 3.6 22.0 2.6 21.7 C 1.6 21.3 0.7 20.4 0.3 19.3 C 0.0 18.4 0.0 17.4 0.0 15.6 L 0.0 6.4 C 0.0 4.6 0.0 3.6 0.3 2.6 C 0.7 1.6 1.6 0.7 2.6 0.3 C 3.6 0.0 4.6 0.0 6.4 0.0 Z M 6.4 0.0 " fill="none" stroke="#000000" stroke-width="2.00" transform="matrix(1.00, 0.00, 0.00, -1.00, 293.7, 198.4)"></path></g></g><g><clipPath id="clip-4706"><path d="M 1.0 71.6 L 417.4 71.6 L 417.4 198.1 L 1.0 198.1 Z M 1.0 71.6 "></path></clipPath><g clip-path="url(#clip-4706)"><image xlink:href="EB8309D11FC617741521CD44552087E5.png" width="414.00" height="125.00" transform="matrix(1.00, 0.00, -0.00, -1.00, 2.0, 197.1)" opacity="0.15"></image><path d="M 11.0 0.0 L 317.5 0.0 C 320.6 0.0 322.2 0.0 323.9 0.5 C 325.8 1.2 327.3 2.7 327.9 4.5 C 328.5 6.2 328.5 7.8 328.5 11.0 L 328.5 27.6 C 328.5 30.7 328.5 32.3 327.9 34.0 C 327.3 35.9 325.8 37.3 323.9 38.0 C 322.2 38.5 320.6 38.5 317.5 38.5 L 11.0 38.5 C 7.8 38.5 6.2 38.5 4.5 38.0 C 2.7 37.3 1.2 35.9 0.5 34.0 C 0.0 32.3 0.0 30.7 0.0 27.5 L 0.0 11.0 C 0.0 7.8 0.0 6.2 0.5 4.5 C 1.2 2.7 2.7 1.2 4.5 0.5 C 6.2 0.0 7.8 0.0 11.0 0.0 Z M 11.0 0.0 " fill="none" stroke="#000000" stroke-width="2.00" transform="matrix(1.00, 0.00, 0.00, -1.00, 45.0, 156.0)"></path></g></g><g><clipPath id="clip-4707"><path d="M 44.2 117.5 L 374.2 117.5 L 374.2 156.0 L 44.2 156.0 Z M 44.2 117.5 "></path></clipPath><g clip-path="url(#clip-4707)"><text xml:space="preserve" font-family="GillSans-SemiBold" font-weight="bold" font-size="20.0" fill="#000000" transform="matrix(1.00, 0.00, -0.00, -1.00, 169.0, 129.0)">C</text><text xml:space="preserve" font-family="GillSans-SemiBold" font-weight="bold" font-size="20.0" fill="#000000" transform="matrix(1.00, 0.00, -0.00, -1.00, 183.5, 129.0)">l</text><text xml:space="preserve" font-family="GillSans-SemiBold" font-weight="bold" font-size="20.0" fill="#000000" transform="matrix(1.00, 0.00, -0.00, -1.00, 188.5, 129.0)">a</text><text xml:space="preserve" font-family="GillSans-SemiBold" font-weight="bold" font-size="20.0" fill="#000000" transform="matrix(1.00, 0.00, -0.00, -1.00, 198.1, 129.0)">s</text><text xml:space="preserve" font-family="GillSans-SemiBold" font-weight="bold" font-size="20.0" fill="#000000" transform="matrix(1.00, 0.00, -0.00, -1.00, 206.2, 129.0)">s</text><text xml:space="preserve" font-family="GillSans-SemiBold" font-weight="bold" font-size="20.0" fill="#000000" transform="matrix(1.00, 0.00, -0.00, -1.00, 214.3, 129.0)">i</text><text xml:space="preserve" font-family="GillSans-SemiBold" font-weight="bold" font-size="20.0" fill="#000000" transform="matrix(1.00, 0.00, -0.00, -1.00, 219.2, 129.0)">ﬁ</text><text xml:space="preserve" font-family="GillSans-SemiBold" font-weight="bold" font-size="20.0" fill="#000000" transform="matrix(1.00, 0.00, -0.00, -1.00, 229.8, 129.0)">e</text><text xml:space="preserve" font-family="GillSans-SemiBold" font-weight="bold" font-size="20.0" fill="#000000" transform="matrix(1.00, 0.00, -0.00, -1.00, 240.2, 129.0)">r</text></g></g><g><clipPath id="clip-4708"><path d="M 169.7 130.5 L 328.1 130.5 L 328.1 240.5 L 169.7 240.5 Z M 169.7 130.5 "></path></clipPath><g clip-path="url(#clip-4708)"><image xlink:href="../../32393822-F149-4F37-B7BB-778531308D90/assets/825C2B53CD1183AB9FA0C6C46056A9F1.png" width="156.00" height="108.00" transform="matrix(1.00, 0.00, -0.00, -1.00, 170.7, 239.5)" opacity="0.15"></image><path d="M 220.1 198.4 L 277.7 198.4 C 279.5 198.4 280.5 198.4 281.4 198.1 C 282.5 197.7 283.4 196.8 283.8 195.8 C 284.1 194.8 284.1 193.8 284.1 192.0 L 284.1 182.8 C 284.1 181.0 284.1 180.1 283.8 179.1 C 283.4 178.0 282.5 177.1 281.4 176.7 C 280.5 176.4 279.5 176.4 277.7 176.4 L 220.1 176.4 C 218.3 176.4 217.4 176.4 216.4 176.7 C 215.3 177.1 214.5 178.0 214.1 179.1 C 213.7 180.1 213.7 181.0 213.7 182.8 L 213.7 192.0 C 213.7 193.8 213.7 194.8 214.1 195.8 C 214.5 196.8 215.3 197.7 216.4 198.1 C 217.4 198.4 218.3 198.4 220.2 198.4 Z M 220.1 198.4 " fill="#A6AAA8"></path><path d="M 6.4 0.0 L 63.9 0.0 C 65.8 0.0 66.7 0.0 67.7 0.3 C 68.8 0.7 69.6 1.6 70.0 2.6 C 70.3 3.6 70.3 4.6 70.3 6.4 L 70.3 15.6 C 70.3 17.4 70.3 18.4 70.0 19.3 C 69.6 20.4 68.8 21.3 67.7 21.7 C 66.7 22.0 65.8 22.0 63.9 22.0 L 6.4 22.0 C 4.6 22.0 3.6 22.0 2.6 21.7 C 1.6 21.3 0.7 20.4 0.3 19.3 C 0.0 18.4 0.0 17.4 0.0 15.6 L 0.0 6.4 C 0.0 4.6 0.0 3.6 0.3 2.6 C 0.7 1.6 1.6 0.7 2.6 0.3 C 3.6 0.0 4.6 0.0 6.4 0.0 Z M 6.4 0.0 " fill="none" stroke="#000000" stroke-width="2.00" transform="matrix(1.00, 0.00, 0.00, -1.00, 213.7, 198.4)"></path></g></g><g><clipPath id="clip-4709"><path d="M 89.7 130.5 L 248.1 130.5 L 248.1 240.5 L 89.7 240.5 Z M 89.7 130.5 "></path></clipPath><g clip-path="url(#clip-4709)"><image xlink:href="../../32393822-F149-4F37-B7BB-778531308D90/assets/825C2B53CD1183AB9FA0C6C46056A9F1.png" width="156.00" height="108.00" transform="matrix(1.00, 0.00, -0.00, -1.00, 90.7, 239.5)" opacity="0.15"></image><path d="M 140.1 198.4 L 197.7 198.4 C 199.5 198.4 200.5 198.4 201.4 198.1 C 202.5 197.7 203.4 196.8 203.8 195.8 C 204.1 194.8 204.1 193.8 204.1 192.0 L 204.1 182.8 C 204.1 181.0 204.1 180.1 203.8 179.1 C 203.4 178.0 202.5 177.1 201.4 176.7 C 200.5 176.4 199.5 176.4 197.7 176.4 L 140.1 176.4 C 138.3 176.4 137.4 176.4 136.4 176.7 C 135.3 177.1 134.5 178.0 134.1 179.1 C 133.7 180.1 133.7 181.0 133.7 182.8 L 133.7 192.0 C 133.7 193.8 133.7 194.8 134.1 195.8 C 134.5 196.8 135.3 197.7 136.4 198.1 C 137.4 198.4 138.3 198.4 140.2 198.4 Z M 140.1 198.4 " fill="#F5D327"></path><path d="M 6.4 0.0 L 63.9 0.0 C 65.8 0.0 66.7 0.0 67.7 0.3 C 68.8 0.7 69.6 1.6 70.0 2.6 C 70.3 3.6 70.3 4.6 70.3 6.4 L 70.3 15.6 C 70.3 17.4 70.3 18.4 70.0 19.3 C 69.6 20.4 68.8 21.3 67.7 21.7 C 66.7 22.0 65.8 22.0 63.9 22.0 L 6.4 22.0 C 4.6 22.0 3.6 22.0 2.6 21.7 C 1.6 21.3 0.7 20.4 0.3 19.3 C 0.0 18.4 0.0 17.4 0.0 15.6 L 0.0 6.4 C 0.0 4.6 0.0 3.6 0.3 2.6 C 0.7 1.6 1.6 0.7 2.6 0.3 C 3.6 0.0 4.6 0.0 6.4 0.0 Z M 6.4 0.0 " fill="none" stroke="#000000" stroke-width="2.00" transform="matrix(1.00, 0.00, 0.00, -1.00, 133.7, 198.4)"></path></g></g><g><clipPath id="clip-4710"><path d="M 226.3 405.6 L 226.3 281.3 L 211.1 281.3 L 211.1 405.6 Z M 226.3 405.6 "></path></clipPath><g clip-path="url(#clip-4710)"><path d="M 0.0 0.0 L 112.4 0.0 L 113.9 0.0 " fill="none" stroke="#000000" stroke-width="3.00" transform="matrix(0.00, -1.00, -1.00, 0.00, 218.7, 404.6)"></path><path d="M 212.1 295.5 L 218.7 282.3 L 225.3 295.5 L 218.7 292.2 Z M 212.1 295.5 " fill="#000000"></path></g></g><g><clipPath id="clip-4711"><path d="M 40.8 -5.7 L 292.8 -5.7 L 292.8 109.2 L 40.8 109.2 Z M 40.8 -5.7 "></path></clipPath><g clip-path="url(#clip-4711)"><text xml:space="preserve" font-family="GillSans" font-size="40.0" fill="#000000" transform="matrix(1.00, 0.00, -0.00, -1.00, 90.0, 61.0)">R</text><text xml:space="preserve" font-family="GillSans" font-size="40.0" fill="#000000" transform="matrix(1.00, 0.00, -0.00, -1.00, 114.2, 61.0)">o</text><text xml:space="preserve" font-family="GillSans" font-size="40.0" fill="#000000" transform="matrix(1.00, 0.00, -0.00, -1.00, 136.2, 61.0)">l</text><text xml:space="preserve" font-family="GillSans" font-size="40.0" fill="#000000" transform="matrix(1.00, 0.00, -0.00, -1.00, 145.0, 61.0)">e</text><text xml:space="preserve" font-family="GillSans" font-size="40.0" fill="#000000" transform="matrix(1.00, 0.00, -0.00, -1.00, 53.0, 15.0)">C</text><text xml:space="preserve" font-family="GillSans" font-size="40.0" fill="#000000" transform="matrix(1.00, 0.00, -0.00, -1.00, 81.3, 15.0)">l</text><text xml:space="preserve" font-family="GillSans" font-size="40.0" fill="#000000" transform="matrix(1.00, 0.00, -0.00, -1.00, 90.1, 15.0)">a</text><text xml:space="preserve" font-family="GillSans" font-size="40.0" fill="#000000" transform="matrix(1.00, 0.00, -0.00, -1.00, 107.2, 15.0)">s</text><text xml:space="preserve" font-family="GillSans" font-size="40.0" fill="#000000" transform="matrix(1.00, 0.00, -0.00, -1.00, 122.5, 15.0)">s</text><text xml:space="preserve" font-family="GillSans" font-size="40.0" fill="#000000" transform="matrix(1.00, 0.00, -0.00, -1.00, 137.9, 15.0)">i</text><text xml:space="preserve" font-family="GillSans" font-size="40.0" fill="#000000" transform="matrix(1.00, 0.00, -0.00, -1.00, 146.7, 15.0)">ﬁ</text><text xml:space="preserve" font-family="GillSans" font-size="40.0" fill="#000000" transform="matrix(1.00, 0.00, -0.00, -1.00, 166.7, 15.0)">e</text><text xml:space="preserve" font-family="GillSans" font-size="40.0" fill="#000000" transform="matrix(1.00, 0.00, -0.00, -1.00, 185.9, 15.0)">r</text></g></g></g></svg>