<?xml version="1.0" encoding="UTF-8" standalone="no"?><svg xmlns="http://www.w3.org/2000/svg" xmlns:xlink="http://www.w3.org/1999/xlink" clip-rule="evenodd" stroke-miterlimit="4.00" viewBox="0 0 365 32"><desc>SVG generated by Keynote</desc><defs></defs><g transform="matrix(1.00, 0.00, -0.00, -1.00, 0.0, 32.0)"><text xml:space="preserve" font-family="GillSans" font-size="40.0" fill="#000000" transform="matrix(1.00, 0.00, -0.00, -1.00, -1.0, 3.0)">D</text><text xml:space="preserve" font-family="GillSans" font-size="40.0" fill="#000000" transform="matrix(1.00, 0.00, -0.00, -1.00, 29.0, 3.0)">e</text><text xml:space="preserve" font-family="GillSans" font-size="40.0" fill="#000000" transform="matrix(1.00, 0.00, -0.00, -1.00, 48.2, 3.0)">ï¬</text><text xml:space="preserve" font-family="GillSans" font-size="40.0" fill="#000000" transform="matrix(1.00, 0.00, -0.00, -1.00, 68.2, 3.0)">n</text><text xml:space="preserve" font-family="GillSans" font-size="40.0" fill="#000000" transform="matrix(1.00, 0.00, -0.00, -1.00, 88.2, 3.0)">e</text><text xml:space="preserve" font-family="GillSans" font-size="40.0" fill="#000000" transform="matrix(1.00, 0.00, -0.00, -1.00, 107.3, 3.0)"> </text><text xml:space="preserve" font-family="GillSans" font-size="40.0" fill="#000000" transform="matrix(1.00, 0.00, -0.00, -1.00, 118.4, 3.0)">S</text><text xml:space="preserve" font-family="GillSans" font-size="40.0" fill="#000000" transform="matrix(1.00, 0.00, -0.00, -1.00, 136.7, 3.0)">e</text><text xml:space="preserve" font-family="GillSans" font-size="40.0" fill="#000000" transform="matrix(1.00, 0.00, -0.00, -1.00, 155.9, 3.0)">m</text><text xml:space="preserve" font-family="GillSans" font-size="40.0" fill="#000000" transform="matrix(1.00, 0.00, -0.00, -1.00, 186.7, 3.0)">a</text><text xml:space="preserve" font-family="GillSans" font-size="40.0" fill="#000000" transform="matrix(1.00, 0.00, -0.00, -1.00, 203.8, 3.0)">n</text><text xml:space="preserve" font-family="GillSans" font-size="40.0" fill="#000000" transform="matrix(1.00, 0.00, -0.00, -1.00, 223.8, 3.0)">t</text><text xml:space="preserve" font-family="GillSans" font-size="40.0" fill="#000000" transform="matrix(1.00, 0.00, -0.00, -1.00, 237.1, 3.0)">i</text><text xml:space="preserve" font-family="GillSans" font-size="40.0" fill="#000000" transform="matrix(1.00, 0.00, -0.00, -1.00, 245.9, 3.0)">c</text><text xml:space="preserve" font-family="GillSans" font-size="40.0" fill="#000000" transform="matrix(1.00, 0.00, -0.00, -1.00, 263.4, 3.0)"> </text><text xml:space="preserve" font-family="GillSans" font-size="40.0" fill="#000000" transform="matrix(1.00, 0.00, -0.00, -1.00, 274.5, 3.0)">R</text><text xml:space="preserve" font-family="GillSans" font-size="40.0" fill="#000000" transform="matrix(1.00, 0.00, -0.00, -1.00, 298.7, 3.0)">o</text><text xml:space="preserve" font-family="GillSans" font-size="40.0" fill="#000000" transform="matrix(1.00, 0.00, -0.00, -1.00, 320.8, 3.0)">l</text><text xml:space="preserve" font-family="GillSans" font-size="40.0" fill="#000000" transform="matrix(1.00, 0.00, -0.00, -1.00, 329.5, 3.0)">e</text><text xml:space="preserve" font-family="GillSans" font-size="40.0" fill="#000000" transform="matrix(1.00, 0.00, -0.00, -1.00, 348.7, 3.0)">s</text></g></svg>