<?xml version="1.0" standalone="yes"?>

<svg version="1.1" viewBox="0.0 0.0 493.68503937007875 317.34383202099735" fill="none" stroke="none" stroke-linecap="square" stroke-miterlimit="10" xmlns="http://www.w3.org/2000/svg" xmlns:xlink="http://www.w3.org/1999/xlink"><clipPath id="p.0"><path d="m0 0l493.68503 0l0 317.34384l-493.68503 0l0 -317.34384z" clip-rule="nonzero"></path></clipPath><g clip-path="url(#p.0)"><path fill="#000000" fill-opacity="0.0" d="m0 0l493.68503 0l0 317.34384l-493.68503 0z" fill-rule="nonzero"></path><path fill="#ffffff" d="m0 0l493.44882 0l0 317.35434l-493.44882 0z" fill-rule="nonzero"></path><path fill="#efefef" d="m32.04987 162.22836l156.56693 0l0 112.91339l-156.56693 0z" fill-rule="nonzero"></path><path stroke="#999999" stroke-width="1.0" stroke-linejoin="round" stroke-linecap="butt" d="m32.04987 162.22836l156.56693 0l0 112.91339l-156.56693 0z" fill-rule="nonzero"></path><path fill="#d9d9d9" d="m45.36964 131.5135l125.10895 -0.020050049l35.73471 57.191574l-196.56693 0.03149414z" fill-rule="nonzero"></path><path stroke="#999999" stroke-width="1.0" stroke-linejoin="round" stroke-linecap="butt" d="m45.36964 131.5135l125.10895 -0.020050049l35.73471 57.191574l-196.56693 0.03149414z" fill-rule="nonzero"></path><path fill="#000000" fill-opacity="0.0" d="m43.296074 136.48761l134.07874 0l0 47.653534l-134.07874 0z" fill-rule="nonzero"></path><path fill="#666666" d="m71.49951 154.83125q0 0.234375 -0.0625 0.421875q-0.0625 0.1875 -0.125 0.296875q-0.140625 0.390625 -0.3125 0.78125q-0.171875 0.375 -0.296875 0.75q-0.546875 1.703125 -0.84375 3.84375q-0.296875 2.140625 -0.359375 3.859375q-0.265625 -0.03125 0.0625 0q0.328125 0.015625 0.671875 0.015625q0.6875 0 1.5 -0.0625q0.8125 -0.0625 1.578125 -0.15625q0.78125 -0.09375 1.4375 -0.234375q0.671875 -0.140625 1.484375 -0.40625l1.078125 1.0625q-2.203125 1.375 -4.1875 1.859375q-1.984375 0.46875 -3.671875 0.609375q-0.03125 1.953125 0.140625 4.4375q0.171875 2.46875 0.5625 5.140625l-1.3125 0.609375q-0.75 -1.6875 -1.09375 -2.90625q-0.328125 -1.21875 -0.578125 -2.515625q-0.25 -1.296875 -0.40625 -2.625q-0.140625 -1.328125 -0.1875 -1.984375q0.3125 -0.015625 -0.015625 -0.015625q-0.328125 0 -0.65625 0q-0.296875 0 -0.71875 -0.03125q-0.421875 -0.03125 -0.875 -0.15625q-0.4375038 -0.140625 -0.8125038 -0.515625q-0.359375 -0.390625 -0.359375 -1.0625q0 -0.484375 0.234375 -0.796875q0.234375 -0.328125 0.53125 -0.5q0.2968788 -0.1875 0.6250038 -0.25q0.328125 -0.078125 0.640625 -0.078125q0.171875 0 0.328125 0.03125q0.15625 0.015625 0.28125 0.046875q0.328125 0.03125 0.6875 0.09375q0.359375 0.046875 -0.078125 0q0.015625 0.171875 0.015625 -0.421875q0 -0.59375 0 -1.140625q0 -0.53125 0.015625 -1.25q0.015625 -0.734375 0.078125 -1.546875q0.078125 -0.828125 0.21875 -1.671875q0.140625 -0.84375 0.390625 -1.625q0.265625 -0.78125 0.6875 -1.4375q0.421875 -0.671875 1.078125 -1.078125q0.3125 -0.15625 0.6875 -0.3125q0.375 -0.171875 0.796875 -0.171875q1.140625 0 1.140625 1.09375zm11.5 -4.40625q-1.609375 1.234375 -3.1875 1.90625q-1.578125 0.65625 -3.28125 1.09375q-1.6875 0.421875 -3.390625 0.640625q-1.6875 0.203125 -3.15625 0.203125q-0.453125 0 -1.15625 -0.046875q-0.6875 -0.046875 -1.484375 -0.140625q-0.796875 -0.109375 -1.640625 -0.265625q-0.828125 -0.171875 -1.609375 -0.40625q-0.7812538 -0.25 -1.4375038 -0.609375q-0.65625 -0.375 -1.03125 -0.890625q-0.1875 -0.296875 -0.421875 -0.71875q-0.234375 -0.421875 -0.234375 -0.9375q0 -1.09375 1.140625 -1.09375q0.171875 0 0.3125 0.03125q0.140625 0.015625 0.296875 0.0625q0.640625 0.1875 1.171875 0.390625q0.5312538 0.203125 1.0781288 0.359375q1.828125 0.4375 3.703125 0.640625q1.875 0.203125 3.796875 0.203125q2.328125 0 4.765625 -0.34375q2.453125 -0.359375 5.1875 -1.40625l0.578125 1.328125zm5.59375 16.34375q0 1.21875 -0.40625 2.28125q-0.40625 1.046875 -1.15625 1.828125q-0.734375 0.78125 -1.78125 1.21875q-1.03125 0.453125 -2.28125 0.453125q-1.125 0 -2.046875 -0.421875q-0.921875 -0.421875 -1.578125 -1.140625q-0.640625 -0.734375 -0.984375 -1.6875q-0.328125 -0.953125 -0.328125 -2.015625q0 -0.890625 0.25 -1.703125q0.265625 -0.8125 0.71875 -1.5q0.453125 -0.6875 1.0625 -1.25q0.609375 -0.578125 1.703125 -1.28125l1.109375 0.828125q-1.03125 1.21875 -1.375 2.03125q-0.328125 0.8125 -0.328125 1.71875q0 0.65625 0.203125 1.34375q0.203125 0.671875 0.5625 1.21875q0.375 0.53125 0.890625 0.859375q0.515625 0.3125 1.171875 0.3125q0.390625 0 0.734375 -0.15625q0.34375 -0.171875 0.609375 -0.453125q0.265625 -0.296875 0.421875 -0.65625q0.171875 -0.359375 0.171875 -0.734375q0 -0.40625 -0.125 -0.78125q-0.109375 -0.390625 -0.328125 -0.734375q-0.21875 -0.34375 -0.53125 -0.609375q-0.3125 -0.28125 -0.671875 -0.453125q-0.1875 -0.109375 -0.390625 -0.15625q-0.203125 -0.0625 -0.421875 -0.125q-0.109375 -0.015625 -0.296875 -0.0625q-0.171875 -0.0625 -0.375 -0.15625q-0.1875 -0.09375 -0.390625 -0.328125q-0.1875 -0.25 -0.1875 -0.625q0 -0.53125 0.3125 -0.890625q0.328125 -0.359375 0.671875 -0.578125q0.359375 -0.234375 0.75 -0.359375q0.40625 -0.140625 0.75 -0.140625q1.0 0 1.75 0.5q0.75 0.5 1.21875 1.21875q0.46875 0.71875 0.6875 1.5625q0.234375 0.84375 0.234375 1.625zm10.34375 0q0 1.21875 -0.40625 2.28125q-0.40625 1.046875 -1.15625 1.828125q-0.734375 0.78125 -1.78125 1.21875q-1.03125 0.453125 -2.28125 0.453125q-1.125 0 -2.046875 -0.421875q-0.921875 -0.421875 -1.578125 -1.140625q-0.640625 -0.734375 -0.984375 -1.6875q-0.328125 -0.953125 -0.328125 -2.015625q0 -0.890625 0.25 -1.703125q0.265625 -0.8125 0.71875 -1.5q0.453125 -0.6875 1.0625 -1.25q0.609375 -0.578125 1.703125 -1.28125l1.109375 0.828125q-1.03125 1.21875 -1.375 2.03125q-0.328125 0.8125 -0.328125 1.71875q0 0.65625 0.203125 1.34375q0.203125 0.671875 0.5625 1.21875q0.375 0.53125 0.890625 0.859375q0.515625 0.3125 1.171875 0.3125q0.390625 0 0.734375 -0.15625q0.34375 -0.171875 0.609375 -0.453125q0.265625 -0.296875 0.421875 -0.65625q0.171875 -0.359375 0.171875 -0.734375q0 -0.40625 -0.125 -0.78125q-0.109375 -0.390625 -0.328125 -0.734375q-0.21875 -0.34375 -0.53125 -0.609375q-0.3125 -0.28125 -0.671875 -0.453125q-0.1875 -0.109375 -0.390625 -0.15625q-0.203125 -0.0625 -0.421875 -0.125q-0.109375 -0.015625 -0.296875 -0.0625q-0.171875 -0.0625 -0.375 -0.15625q-0.1875 -0.09375 -0.390625 -0.328125q-0.1875 -0.25 -0.1875 -0.625q0 -0.53125 0.3125 -0.890625q0.328125 -0.359375 0.671875 -0.578125q0.359375 -0.234375 0.75 -0.359375q0.40625 -0.140625 0.75 -0.140625q1.0 0 1.75 0.5q0.75 0.5 1.21875 1.21875q0.46875 0.71875 0.6875 1.5625q0.234375 0.84375 0.234375 1.625zm15.984367 2.140625q-0.546875 1.109375 -0.984375 1.59375q-0.4375 0.484375 -0.984375 0.828125q-0.546875 0.328125 -1.171875 0.515625q-0.609375 0.1875 -1.28125 0.1875q-1.421875 0 -2.421875 -0.6875q-0.9843674 -0.703125 -1.1874924 -1.015625q0.15625 -0.15625 -0.390625 0.34375q-0.546875 0.484375 -1.171875 0.875q-0.625 0.375 -1.328125 0.625q-0.6875 0.25 -1.40625 0.25q-0.890625 0 -1.609375 -0.359375q-0.703125 -0.359375 -1.1875 -0.953125q-0.484375 -0.59375 -0.75 -1.328125q-0.25 -0.75 -0.25 -1.546875q0 -1.171875 0.5 -2.328125q0.515625 -1.15625 1.34375 -2.09375q0.828125 -0.9375 1.9375 -1.53125q1.109375 -0.59375 2.34375 -0.59375q0.390625 0 -0.109375 -0.140625l0 0.203125q0 -0.46875 0.03125 -1.234375q0.03125 -0.765625 0.125 -1.6875q0.09375 -0.9375 0.25 -1.96875q0.15625 -1.03125 0.40625 -2.046875q0.25 -1.03125 0.59375 -1.984375q0.34375 -0.953125 0.828125 -1.71875q0.49999237 -0.765625 1.1874924 -1.265625q0.703125 -0.5 1.625 -0.5q1.09375 0 1.75 0.625q0.65625 0.625 1.0 1.4375q0.34375 0.8125 0.453125 1.671875q0.109375 0.859375 0.109375 1.53125q0 0.859375 -0.171875 1.96875q-0.15625 1.109375 -0.4375 2.328125q-0.28125 1.21875 -0.6875 2.5q-0.390625 1.265625 -0.859375 2.453125q-0.46875 1.171875 -1.015625 2.21875q-0.546875 1.03125 -0.890625 1.484375q0.0625 0.21875 0.3125 0.671875q0.25 0.4375 0.5625 0.734375q0.328125 0.296875 0.703125 0.46875q0.390625 0.15625 0.890625 0.15625q1.15625 0 2.265625 -1.390625l1.078125 0.703125zm-6.59375 -8.46875q0 0.5625 0 1.296875q0 0.734375 0.03125 1.546875q0.046875 0.8125 0.140625 1.640625q0.09375 0.828125 -0.125 -0.078125q-0.15625 0.3125 0.375 -1.15625q0.53125 -1.46875 0.921875 -3.015625q0.390625 -1.5625 0.59375 -3.09375q0.21875 -1.546875 0.21875 -2.90625q0 -0.28125 -0.03125 -0.796875q-0.03125 -0.53125 -0.15625 -0.984375q-0.109375 -0.46875 -0.265625 -0.6875q-0.140625 -0.234375 -0.28125 -0.234375q-0.078125 0 -0.234375 0.203125q-0.15625 0.1875 -0.359375 0.6875q-0.1875 0.5 -0.328125 1.21875q-0.140625 0.71875 -0.234375 1.515625q-0.09375 0.78125 -0.15625 1.5625q-0.046875 0.78125 -0.078125 1.453125q-0.015625 0.671875 -0.03125 1.15625q0 0.484375 0 0.671875zm-4.5937424 8.96875q0.75 0 1.390625 -0.28125q0.65625 -0.296875 0.828125 -0.46875q-0.09375 -0.171875 -0.328125 -0.875q-0.21875 -0.703125 -0.375 -1.40625q-0.140625 -0.71875 -0.234375 -1.421875q-0.09375 -0.71875 -0.109375 -1.140625q0.046875 0.0625 -0.109375 -0.015625q-0.15625 -0.078125 -0.421875 -0.078125q-0.53125 0 -0.96875 0.3125q-0.421875 0.296875 -0.765625 0.796875q-0.328125 0.5 -0.5 1.125q-0.171875 0.625 -0.171875 1.171875q0 0.515625 0.109375 0.953125q0.109375 0.4375 0.3125 0.71875q0.21875 0.28125 0.53125 0.453125q0.328125 0.15625 0.8125 0.15625zm23.984367 -19.015625q0 0.265625 -0.0625 0.4375q-0.0625 0.171875 -0.109375 0.296875q-0.25 0.734375 -0.515625 1.40625q-0.265625 0.65625 -0.46875 1.328125q-0.34375 1.1875 -0.5625 2.8125q-0.203125 1.625 -0.328125 3.5q-0.125 1.859375 -0.15625 3.84375q-0.03125 1.96875 0 3.328125q0.734375 0.140625 2.09375 0.3125q1.3750076 0.171875 2.6718826 0.296875q1.296875 0.125 2.4375 0.203125q1.15625 0.0625 1.984375 0.0625l-0.125 0q-0.21875 -1.65625 -0.328125 -4.015625q-0.109375 -2.375 -0.109375 -4.4375q0 -0.59375 0.015625 -1.4375q0.015625 -0.84375 0.09375 -1.796875q0.078125 -0.953125 0.234375 -1.9375q0.15625 -1.0 0.4375 -1.90625q0.296875 -0.921875 0.734375 -1.703125q0.453125 -0.78125 1.171875 -1.234375q0.3125 -0.1875 0.71875 -0.375q0.421875 -0.1875 0.90625 -0.1875q1.15625 0 1.15625 1.15625q0 0.25 -0.0625 0.4375q-0.046875 0.1875 -0.09375 0.34375q-0.25 0.71875 -0.515625 1.375q-0.25 0.65625 -0.46875 1.328125q-0.328125 1.078125 -0.546875 2.484375q-0.21875 1.390625 -0.359375 2.984375q-0.125 1.578125 -0.171875 3.28125q-0.046875 1.703125 -0.03125 3.390625q0.015625 1.6875 0.078125 3.28125q0.078125 1.59375 0.1875 2.96875q0.109375 1.390625 0.234375 2.46875q0.125 1.078125 0.375 2.28125l-1.421875 0.5625q-0.90625 -2.203125 -1.34375 -4.078125q-0.4375 -1.859375 -0.609375 -3.109375q-0.28125 0.078125 -1.578125 0.265625q-1.296875 0.1875 -2.625 0.296875q-1.328125 0.09375 -2.546875 0.140625q-1.2187576 0.03125 -2.0781326 0.03125l-0.375 0q0.0625 1.328125 0.203125 2.90625q0.15625 1.578125 0.484375 3.015625l-1.4375 0.5625q-0.828125 -2.03125 -1.25 -3.671875q-0.40625 -1.640625 -0.609375 -2.875q0.03125 0 -0.421875 -0.0625q-0.453125 -0.078125 -0.859375 -0.1875q-0.546875 -0.109375 -1.0 -0.46875q-0.4375 -0.375 -0.75 -0.8125q-0.296875 -0.453125 -0.484375 -0.96875q-0.171875 -0.53125 -0.171875 -1.046875q0 -0.34375 0.203125 -0.828125q0.203125 -0.5 0.9375 -0.5q0.375 0 0.671875 0.15625q0.40625 0.15625 0.96875 0.3125q0.5625 0.15625 0.359375 0.109375q-0.125 -1.15625 -0.21875 -3.15625q-0.078125 -2.0 -0.078125 -3.765625q0 -0.625 0.015625 -1.453125q0.03125 -0.84375 0.09375 -1.796875q0.078125 -0.953125 0.234375 -1.953125q0.171875 -1.0 0.453125 -1.890625q0.296875 -0.90625 0.75 -1.6875q0.453125 -0.78125 1.171875 -1.21875q0.28125 -0.203125 0.703125 -0.40625q0.421875 -0.203125 0.921875 -0.203125q0.5 0 0.828125 0.34375q0.34375 0.328125 0.34375 0.859375zm25.703133 18.515625q-0.5625 1.15625 -1.078125 1.71875q-0.5 0.546875 -1.125 1.0q-0.625 0.4375 -1.34375 0.703125q-0.71875 0.28125 -1.453125 0.28125q-1.09375 0 -1.8125 -0.640625q-0.703125 -0.65625 -0.671875 -0.5625q0.046875 -0.046875 -0.796875 0.421875q-0.84375 0.453125 -1.90625 0.453125q-0.9375 0 -1.6875 -0.34375q-0.75 -0.359375 -1.25 -0.96875q-0.5 -0.609375 -0.75 -1.359375q-0.234375 -0.765625 -0.234375 -1.625q0 -0.9375 0.25 -1.828125q0.265625 -0.890625 0.71875 -1.671875q0.46875 -0.796875 1.09375 -1.46875q0.625 -0.671875 1.734375 -1.484375l1.078125 0.8125q-0.96875 1.375 -1.328125 2.421875q-0.34375 1.03125 -0.34375 2.09375q0 0.4375 0.09375 0.921875q0.09375 0.484375 0.28125 0.859375q0.203125 0.375 0.46875 0.59375q0.265625 0.203125 0.671875 0.203125q0.40625 0 0.796875 -0.140625q0.40625 -0.140625 0.4375 -0.1875q0.03125 0.203125 0.015625 0q-0.015625 -0.203125 -0.015625 -0.421875q0 -0.828125 0.234375 -1.765625q0.234375 -0.9375 0.609375 -1.84375q0.375 -0.921875 0.859375 -1.75q0.5 -0.828125 1.421875 -1.90625l1.03125 0.78125q-0.46875 1.609375 -0.703125 2.84375q-0.21875 1.234375 -0.21875 2.421875q0 0.515625 0.0625 0.96875q0.0625 0.4375 0.21875 0.71875q0.15625 0.265625 0.40625 0.421875q0.25 0.15625 0.734375 0.15625q0.578125 0 1.109375 -0.3125q0.546875 -0.3125 1.34375 -1.203125l1.046875 0.6875zm9.453125 0.03125q-0.703125 1.171875 -1.21875 1.734375q-0.515625 0.546875 -1.140625 0.96875q-0.609375 0.421875 -1.34375 0.65625q-0.734375 0.25 -1.53125 0.25q-1.15625 0 -2.0625 -0.40625q-0.890625 -0.390625 -1.53125 -1.046875q-0.640625 -0.671875 -1.046875 -1.53125q-0.40625 -0.875 -0.640625 -1.78125q-0.234375 -0.90625 -0.34375 -1.828125q-0.09375 -0.9375 -0.09375 -1.78125q0 -0.78125 0.0625 -1.59375q0.0625 -0.8125 0.078125 -0.875q0.296875 -0.015625 -0.171875 -0.015625q-0.46875 0 -0.921875 0q-0.3125 0 -0.75 -0.015625q-0.421875 -0.03125 -0.859375 -0.171875q-0.453125 -0.140625 -0.8125 -0.515625q-0.375 -0.375 -0.375 -1.0625q0 -0.421875 0.1875 -0.71875q0.1875 -0.3125 0.46875 -0.4375q0.28125 -0.140625 0.546875 -0.171875q0.265625 -0.03125 0.515625 -0.03125q0.265625 0 1.140625 0.078125q0.890625 0.078125 1.546875 0.125q0.296875 -1.3125 0.921875 -3.140625q0.640625 -1.828125 1.625 -3.6875l1.484375 0q-0.734375 2.515625 -1.125 4.234375q-0.375 1.703125 -0.46875 2.765625q0.4375 0.03125 1.640625 0.09375q1.203125 0.046875 2.34375 0.046875q1.6875 0 2.734375 -0.03125q1.0625 -0.03125 1.65625 -0.078125q0.6875 -0.0625 1.625 -0.21875l0.34375 1.5q-1.59375 0.375 -2.8125 0.578125q-1.21875 0.203125 -2.59375 0.359375q-1.375 0.140625 -2.84375 0.25q-1.46875 0.109375 -2.34375 0.15625q0.03125 -0.296875 0.03125 0.015625q0 0.296875 0 0.609375q0 0.71875 0.0625 1.59375q0.078125 0.875 0.25 1.75q0.171875 0.859375 0.46875 1.65625q0.3125 0.796875 0.75 1.375q0.453125 0.5625 1.046875 0.90625q0.609375 0.328125 1.4375 0.328125q0.75 0 1.390625 -0.34375q0.640625 -0.34375 1.625 -1.234375l1.046875 0.6875z" fill-rule="nonzero"></path><path fill="#cccccc" d="m96.049866 225.8819l28.566933 0l0 49.259827l-28.566933 0z" fill-rule="nonzero"></path><path stroke="#999999" stroke-width="1.0" stroke-linejoin="round" stroke-linecap="butt" d="m96.049866 225.8819l28.566933 0l0 49.259827l-28.566933 0z" fill-rule="nonzero"></path><path fill="#d9d9d9" d="m0.22309712 0l493.44882 0l0 68.18898l-493.44882 0z" fill-rule="nonzero"></path><path fill="#efefef" d="m221.573 128.16011l266.83466 0l0 146.96062l-266.83466 0z" fill-rule="nonzero"></path><path stroke="#999999" stroke-width="1.0" stroke-linejoin="round" stroke-linecap="butt" d="m221.573 128.16011l266.83466 0l0 146.96062l-266.83466 0z" fill-rule="nonzero"></path><path fill="#b7b7b7" d="m229.03757 136.48819l251.90552 0l0 16.314957l-251.90552 0z" fill-rule="nonzero"></path><path stroke="#b7b7b7" stroke-width="2.0" stroke-linejoin="round" stroke-linecap="butt" d="m229.03757 136.48819l251.90552 0l0 16.314957l-251.90552 0z" fill-rule="nonzero"></path><path fill="#d9d9d9" d="m229.38846 161.03937l225.48032 0l0 5.0078735l-225.48032 0z" fill-rule="nonzero"></path><path stroke="#d9d9d9" stroke-width="2.0" stroke-linejoin="round" stroke-linecap="butt" d="m229.38846 161.03937l225.48032 0l0 5.0078735l-225.48032 0z" fill-rule="nonzero"></path><path fill="#d9d9d9" d="m229.38846 175.48557l202.17322 0l0 5.0078735l-202.17322 0z" fill-rule="nonzero"></path><path stroke="#d9d9d9" stroke-width="2.0" stroke-linejoin="round" stroke-linecap="butt" d="m229.38846 175.48557l202.17322 0l0 5.0078735l-202.17322 0z" fill-rule="nonzero"></path><path fill="#d9d9d9" d="m229.38846 189.93141l214.4567 0l0 5.0078735l-214.4567 0z" fill-rule="nonzero"></path><path stroke="#d9d9d9" stroke-width="2.0" stroke-linejoin="round" stroke-linecap="butt" d="m229.38846 189.93141l214.4567 0l0 5.0078735l-214.4567 0z" fill-rule="nonzero"></path><path fill="#d9d9d9" d="m229.38846 204.37534l211.68503 0l0 5.0078735l-211.68503 0z" fill-rule="nonzero"></path><path stroke="#d9d9d9" stroke-width="2.0" stroke-linejoin="round" stroke-linecap="butt" d="m229.38846 204.37534l211.68503 0l0 5.0078735l-211.68503 0z" fill-rule="nonzero"></path><path fill="#d9d9d9" d="m229.38846 218.81897l225.48032 0l0 5.0078735l-225.48032 0z" fill-rule="nonzero"></path><path stroke="#d9d9d9" stroke-width="2.0" stroke-linejoin="round" stroke-linecap="butt" d="m229.38846 218.81897l225.48032 0l0 5.0078735l-225.48032 0z" fill-rule="nonzero"></path><path fill="#f6b26b" d="m260.28168 248.21426l11.23645 7.6293945E-5l3.4721985 -10.671036l3.472168 10.671036l11.23645 -7.6293945E-5l-9.090515 6.594986l3.4723206 10.671005l-9.090424 -6.5951233l-9.090454 6.5951233l3.472351 -10.671005z" fill-rule="nonzero"></path><path stroke="#f6b26b" stroke-width="1.0" stroke-linejoin="round" stroke-linecap="butt" d="m260.28168 248.21426l11.23645 7.6293945E-5l3.4721985 -10.671036l3.472168 10.671036l11.23645 -7.6293945E-5l-9.090515 6.594986l3.4723206 10.671005l-9.090424 -6.5951233l-9.090454 6.5951233l3.472351 -10.671005z" fill-rule="nonzero"></path><path fill="#f6b26b" d="m300.28168 248.21426l11.23645 7.6293945E-5l3.4721985 -10.671036l3.472168 10.671036l11.23645 -7.6293945E-5l-9.090515 6.594986l3.4723206 10.671005l-9.090424 -6.5951233l-9.090454 6.5951233l3.472351 -10.671005z" fill-rule="nonzero"></path><path stroke="#f6b26b" stroke-width="1.0" stroke-linejoin="round" stroke-linecap="butt" d="m300.28168 248.21426l11.23645 7.6293945E-5l3.4721985 -10.671036l3.472168 10.671036l11.23645 -7.6293945E-5l-9.090515 6.594986l3.4723206 10.671005l-9.090424 -6.5951233l-9.090454 6.5951233l3.472351 -10.671005z" fill-rule="nonzero"></path><path fill="#f6b26b" d="m340.28168 248.21426l11.23645 7.6293945E-5l3.4721985 -10.671036l3.472168 10.671036l11.23645 -7.6293945E-5l-9.090515 6.594986l3.4723206 10.671005l-9.090424 -6.5951233l-9.090454 6.5951233l3.472351 -10.671005z" fill-rule="nonzero"></path><path stroke="#f6b26b" stroke-width="1.0" stroke-linejoin="round" stroke-linecap="butt" d="m340.28168 248.21426l11.23645 7.6293945E-5l3.4721985 -10.671036l3.472168 10.671036l11.23645 -7.6293945E-5l-9.090515 6.594986l3.4723206 10.671005l-9.090424 -6.5951233l-9.090454 6.5951233l3.472351 -10.671005z" fill-rule="nonzero"></path><path fill="#f6b26b" d="m380.28168 248.21426l11.23645 7.6293945E-5l3.4721985 -10.671036l3.472168 10.671036l11.23645 -7.6293945E-5l-9.090515 6.594986l3.4723206 10.671005l-9.090424 -6.5951233l-9.090454 6.5951233l3.472351 -10.671005z" fill-rule="nonzero"></path><path stroke="#f6b26b" stroke-width="1.0" stroke-linejoin="round" stroke-linecap="butt" d="m380.28168 248.21426l11.23645 7.6293945E-5l3.4721985 -10.671036l3.472168 10.671036l11.23645 -7.6293945E-5l-9.090515 6.594986l3.4723206 10.671005l-9.090424 -6.5951233l-9.090454 6.5951233l3.472351 -10.671005z" fill-rule="nonzero"></path><path fill="#000000" fill-opacity="0.0" d="m420.28168 248.21426l11.23645 7.6293945E-5l3.4721985 -10.671036l3.472168 10.671036l11.23645 -7.6293945E-5l-9.090515 6.594986l3.4723206 10.671005l-9.090424 -6.5951233l-9.090454 6.5951233l3.472351 -10.671005z" fill-rule="nonzero"></path><path stroke="#f6b26b" stroke-width="1.0" stroke-linejoin="round" stroke-linecap="butt" d="m420.28168 248.21426l11.23645 7.6293945E-5l3.4721985 -10.671036l3.472168 10.671036l11.23645 -7.6293945E-5l-9.090515 6.594986l3.4723206 10.671005l-9.090424 -6.5951233l-9.090454 6.5951233l3.472351 -10.671005z" fill-rule="nonzero"></path><path fill="#000000" fill-opacity="0.0" d="m-0.0131233595 0l493.44882 0l0 51.74803l-493.44882 0z" fill-rule="nonzero"></path><path fill="#666666" d="m234.89456 23.433388q-0.09375 0.140625 -0.546875 0.890625q-0.453125 0.734375 -1.15625 1.859375q-0.6875 1.125 -1.578125 2.5625q-0.890625 1.4375 -1.84375 2.984375q-0.9375 1.53125 -1.875 3.0625q-0.921875 1.515625 -1.734375 2.84375q-0.8125 1.328125 -1.40625 2.34375q-0.578125 1.015625 -0.859375 1.546875q-0.28125 0.5 -0.796875 1.578125q-0.5 1.0625 -1.171875 2.453125q-0.671875 1.40625 -1.4375 3.03125q-0.765625 1.640625 -1.53125 3.28125q-0.75 1.640625 -1.46875 3.171875q-0.71875 1.546875 -1.265625 2.75q-0.546875 1.21875 -0.90625 1.96875q-0.34375 0.765625 -0.375 0.890625q-0.375 0.9375 -0.796875 1.25q-0.40625 0.3125 -1.03125 0.4375q-0.875 0.140625 -1.21875 -0.3125q-0.34375 -0.453125 -0.4375 -0.671875q-0.09375 -0.21875 -0.046875 -0.140625q0.046875 0.09375 0.453125 0.203125q-0.859375 -0.109375 -1.015625 -0.46875q-0.15625 -0.359375 -0.234375 -0.53125q0.265625 0.375 0.453125 0.390625q0.203125 0.03125 -0.046875 0.03125q-0.234375 0 -0.640625 -0.328125q-0.390625 -0.3125 -0.390625 -1.03125q0.046875 -0.484375 0.09375 -0.953125q0.046875 -0.453125 0.140625 -0.9375q0.125 -0.40625 0.59375 -1.375q0.484375 -0.953125 1.15625 -2.265625q0.671875 -1.3125 1.515625 -2.90625q0.84375 -1.59375 1.703125 -3.234375q0.875 -1.640625 1.703125 -3.234375q0.84375 -1.59375 1.265625 -2.453125q-0.09375 -0.21875 -0.671875 -1.359375q-0.5625 -1.15625 -1.234375 -2.5625q-0.671875 -1.40625 -1.4375 -2.984375q-0.765625 -1.578125 -1.5 -3.140625q-0.71875 -1.5625 -1.40625 -3.015625q-0.671875 -1.46875 -1.1875 -2.625q-0.5 -1.171875 -0.828125 -2.046875q-0.328125 -0.875 -0.328125 -1.3125q0.078125 -0.703125 0.46875 -1.140625q0.375 -0.453125 0.90625 -0.453125q0.53125 0 0.8125 0.125q0.28125 0.109375 0.484375 0.1875q0.34375 0.125 0.1875 0.0625q-0.15625 -0.0625 -0.578125 0.640625q0.296875 -0.796875 1.171875 -0.828125q0.890625 -0.046875 1.546875 0.296875q-0.3125 -0.296875 -0.734375 -0.140625q-0.40625 0.140625 -0.421875 0.171875q-0.015625 0.015625 0.171875 -0.1875q0.203125 -0.203125 0.671875 -0.375q0.8125 -0.125 1.375 0.25q0.5625 0.375 0.890625 1.21875q0.140625 0.359375 0.53125 1.3125q0.390625 0.9375 0.9375 2.203125q0.5625 1.25 1.21875 2.71875q0.671875 1.453125 1.34375 2.859375q0.671875 1.390625 1.265625 2.625q0.609375 1.21875 0.078125 0.265625q-0.25 0.46875 0.5625 -1.0q0.8125 -1.46875 1.65625 -2.9375q0.859375 -1.46875 1.6875 -2.875q0.828125 -1.40625 1.5625 -2.59375q0.75 -1.203125 1.328125 -2.125q0.59375 -0.921875 0.984375 -1.421875q-0.03125 0.046875 -0.03125 -0.234375q0 -0.28125 0.984375 -0.625q0.109375 -0.03125 0.34375 -0.140625q0.25 -0.125 0.890625 0q0.125 0.03125 0.53125 0.03125q0.40625 0 0.765625 0.734375q-0.421875 -0.703125 -0.765625 -0.59375q-0.34375 0.109375 -0.234375 0.0625q0.125 -0.0625 0.421875 -0.171875q0.296875 -0.125 0.75 -0.078125q0.25 0.03125 0.5625 0.09375q0.3125 0.0625 0.734375 0.375q0.421875 0.3125 0.5 0.890625q0.09375 0.5625 -0.234375 1.15625zm17.544785 11.34375q0 -0.015625 0.03125 0.375q0.03125 0.375 0.03125 0.921875q0 0.734375 -0.203125 1.75q-0.203125 1.015625 -0.65625 2.125q-0.4375 1.109375 -1.1875 2.25q-0.75 1.125 -1.875 2.03125q-1.109375 0.90625 -2.625 1.484375q-1.5 0.578125 -3.421875 0.578125q-1.71875 0 -3.515625 -0.671875q-1.78125 -0.65625 -3.25 -2.03125q-1.46875 -1.375 -2.40625 -3.484375q-0.9375 -2.125 -0.9375 -4.984375q0 -1.796875 0.46875 -3.53125q0.46875 -1.734375 1.21875 -3.25q0.765625 -1.53125 1.8125 -2.828125q1.046875 -1.296875 2.21875 -2.25q1.171875 -0.96875 2.5 -1.53125q1.34375 -0.5625 2.640625 -0.5625q2.140625 0 3.59375 0.703125q1.46875 0.703125 2.328125 1.765625q0.875 1.0625 1.21875 2.25q0.359375 1.171875 0.359375 2.140625q0 0.96875 -0.453125 2.171875q-0.453125 1.1875 -1.46875 2.25q-1.0 1.046875 -2.578125 1.75q-1.5625 0.703125 -3.796875 0.703125q-1.25 0 -2.265625 -0.34375q-1.0 -0.359375 -1.765625 -0.890625q-0.765625 -0.546875 -1.28125 -1.15625q-0.515625 -0.609375 0.453125 0.84375q0.25 -0.828125 0.25 1.15625q0 1.28125 0.359375 2.28125q0.359375 0.984375 0.953125 1.640625q0.59375 0.65625 1.40625 1.0q0.8125 0.34375 1.84375 0.34375q1.296875 0 2.265625 -0.4375q0.984375 -0.453125 1.734375 -1.140625q0.765625 -0.703125 1.34375 -1.578125q0.59375 -0.890625 1.0625 -1.671875q0.46875 -0.796875 1.015625 -1.59375q0.546875 -0.796875 1.46875 -0.71875q1.21875 0 1.21875 1.359375q0 0.25 -0.046875 0.5q-0.046875 0.25 -0.0625 0.28125zm-8.890625 -8.78125q-0.328125 0 -0.921875 0.15625q-0.578125 0.15625 -1.265625 0.578125q-0.6875 0.40625 -1.375 1.125q-0.671875 0.71875 0.15625 -1.09375q-2.5 1.3125 -2.109375 1.125q0.40625 -0.203125 0.75 -0.203125q0.578125 0 1.0625 0.578125q0.46875 0.796875 1.09375 1.09375q0.640625 0.296875 1.5 0.296875q0.625 0 1.046875 -0.1875q0.421875 -0.203125 0.671875 -0.484375q0.265625 -0.296875 0.375 -0.65625q0.125 -0.375 0.125 -0.734375q0 -0.796875 -0.3125 -1.1875q-0.3125 -0.40625 -0.796875 -0.40625zm17.643845 -16.578125q0 0.390625 -0.0625 1.46875q-0.046875 1.078125 -0.125 2.5625q-0.078125 1.484375 -0.171875 3.265625q-0.078125 1.765625 -0.1875 3.546875q-0.109375 1.765625 -0.1875 3.40625q-0.0625 1.640625 -0.09375 2.90625q-0.046875 0.75 -0.0625 1.640625q-0.015625 0.890625 -0.015625 1.90625q0 1.375 0.015625 2.859375q0.015625 1.46875 0.03125 2.921875q0.03125 1.4375 0.0625 2.765625q0.046875 1.328125 0.0625 2.390625q0.03125 1.0625 0.046875 1.78125q0.015625 0.71875 0.015625 0.921875q0 0.671875 -0.296875 1.171875q-0.296875 0.484375 -0.8125 0.671875q-0.5 0.1875 -0.9375 0.09375q-0.421875 -0.09375 -0.671875 -0.25q-0.28125 -0.140625 -0.453125 -0.328125q-0.171875 -0.1875 0.125 0.15625q0.296875 0.359375 0.828125 -0.078125q0.546875 -0.4375 0.59375 -0.71875q-0.09375 0.90625 -0.46875 1.484375q-0.375 0.578125 -0.9375 0.828125q-0.546875 0.265625 -1.265625 0.109375q-0.70314026 -0.140625 -0.92189026 -0.8125q0.21875 0.421875 0.390625 0.453125q0.171875 0.046875 -0.046875 0.015625q-0.203125 -0.015625 -0.65625 -0.265625q-0.4375 -0.234375 -0.5625 -0.953125q-0.203125 -0.953125 -0.265625 -2.375q-0.046875 -1.421875 -0.046875 -3.140625q0 -1.46875 0.015625 -3.171875q0.03125 -1.71875 0.03125 -3.5q0 -1.046875 0 -2.046875q0 -1.0 -0.046875 -2.0625l0 -1.671875q0 -2.125 0.09375 -4.25q0.109375 -2.140625 0.265625 -4.09375q0.15625 -1.953125 0.328125 -3.65625q0.1875 -1.71875 0.3125 -3.03125q0.125 -1.328125 0.203125 -2.109375q0.078125 -0.78125 0.078125 -0.828125q-0.109375 -0.640625 0.25 -1.09375q0.37501526 -0.46875 0.71876526 -0.484375q0.34375 -0.03125 0.359375 -0.03125q0.03125 0 -0.078125 0.0625q0.59375 -0.359375 1.0625 -0.1875q0.484375 0.15625 0.6875 0.375q0.21875 0.203125 0.140625 0.09375q-0.0625 -0.109375 -0.640625 -0.109375q-0.171875 0.03125 -0.234375 0.078125q-0.046875 0.03125 0 -0.015625q0.0625 -0.0625 0.34375 -0.28125q0.296875 -0.234375 0.953125 -0.125q0.140625 0.03125 -0.3125 0.015625q-0.453125 -0.015625 -0.453125 0.890625q0.390625 -1.28125 1.109375 -1.15625q0.71875 0.109375 1.109375 0.421875q0.296875 0.21875 0.53125 0.578125q0.25 0.359375 0.25 0.984375zm9.5407715 13.046875q-0.046875 0.15625 -0.078125 0.625q-0.015625 0.46875 0.015625 -0.28125q-0.3125 0.09375 0.921875 -0.09375q1.25 -0.203125 2.546875 -0.203125q1.46875 0 2.953125 0.328125q1.5 0.328125 2.828125 1.15625q1.15625 0.6875 1.890625 2.078125q0.734375 1.375 1.171875 2.859375q0.25 0.828125 0.5 1.875q0.25 1.03125 0.25 2.34375q0 1.109375 -0.28125 2.3125q-0.265625 1.1875 -0.96875 2.4375q-0.6875 1.25 -1.84375 2.515625q-1.140625 1.265625 -2.875 2.515625q-1.671875 1.234375 -3.03125 1.890625q-1.34375 0.65625 -2.359375 0.921875q-1.015625 0.28125 -1.71875 0.25q-0.703125 -0.03125 -1.046875 -0.234375q-0.484375 -0.328125 -0.765625 -0.828125q-0.265625 -0.5 -0.609375 -0.90625q-0.171875 -0.21875 -0.3125 -0.421875q-0.125 -0.21875 1.671875 3.171875q0.0625 -1.671875 0.015625 0.703125q-0.03125 2.375 -0.03125 4.421875q0 1.28125 0.015625 2.390625q0.03125 1.109375 0.09375 2.03125q0 0.3125 0.03125 0.640625q0.046875 0.34375 0.015625 0.796875q-0.03125 0.453125 -0.375 0.984375q-0.328125 0.53125 -1.21875 0.53125q-0.09375 0 -0.15625 0.046875q-0.0625 0.0625 -0.40625 0.5625q-0.40625 0.4375 -0.96875 0.71875q-0.5625 0.28125 -1.203125 -0.03125q-0.625 -0.296875 -1.0 -0.875q-0.359375 -0.5625 -0.640625 -1.484375q-0.09375 -0.40625 -0.171875 -0.96875q-0.0625 -0.5625 -0.109375 -1.359375q-0.03125 -0.78125 -0.046875 -1.875q-0.015625 -1.078125 -0.015625 -2.5625l0.109375 -8.96875q0.046875 -3.421875 0.25 -6.65625q0.21875 -3.234375 0.328125 -4.234375q0.984375 -0.40625 0.15625 -0.21875q-0.8125 0.1875 -1.21875 -0.078125q-0.53125 -0.171875 -0.765625 -0.5625q-0.21875 -0.390625 -0.25 -0.53125q-0.03125 -0.15625 0.078125 0.078125q0.109375 0.234375 0.5 0.3125q-0.5 -0.09375 -0.875 -0.421875q-0.359375 -0.34375 -0.515625 -0.859375q-0.140625 -0.515625 0.203125 -1.078125q0.34375 -0.578125 1.0625 -0.625q-2.0625 0.359375 -1.4375 0.953125q0.625 0.578125 0.359375 0.140625q-0.265625 -0.4375 -0.125 -1.171875q0.140625 -0.75 1.078125 -1.359375q0.359375 -0.296875 1.1875 -0.71875q0.84375 -0.4375 1.390625 -0.6875q0.21875 -1.46875 0.546875 -2.890625q0.34375 -1.4375 0.75 -1.9375q0.0625 -0.0625 0.078125 -0.109375q0.03125 -0.0625 0.15625 -0.265625q0.125 -0.21875 0.375 -0.375q0.265625 -0.15625 0.71875 -0.28125q0.71875 -0.0625 1.09375 0.234375q0.390625 0.28125 0.53125 0.5q0.140625 0.203125 0.109375 0.1875q-0.015625 -0.03125 -0.25 -0.0625q0.84375 0.109375 1.296875 0.8125q0.46875 0.6875 0.390625 1.890625zm3.875 5.921875q-1.0625 0 -2.296875 0.234375q-1.21875 0.234375 -2.03125 0.546875l-0.40625 9.65625q-0.703125 -0.234375 -0.515625 -0.21875q0.1875 0 0.53125 0q0.75 0 1.765625 -0.203125q1.015625 -0.203125 2.09375 -0.640625q1.078125 -0.453125 2.125 -1.09375q1.046875 -0.640625 1.8125 -1.421875q0.78125 -0.78125 1.234375 -1.703125q0.453125 -0.921875 0.46875 -2.0q0.03125 -0.515625 -0.25 -1.046875q-0.265625 -0.53125 -0.828125 -1.0q-0.546875 -0.484375 -1.484375 -0.796875q-0.9375 -0.3125 -2.21875 -0.3125z" fill-rule="nonzero"></path></g></svg>

