<?xml version="1.0" encoding="UTF-8" standalone="no"?><svg xmlns="http://www.w3.org/2000/svg" xmlns:xlink="http://www.w3.org/1999/xlink" clip-rule="evenodd" stroke-miterlimit="4.00" viewBox="0 0 1920 1080"><desc>SVG generated by Keynote</desc><defs></defs><g transform="matrix(1.00, 0.00, -0.00, -1.00, 0.0, 1080.0)"><path d="M 0.0 1080.0 L 1920.0 1080.0 L 1920.0 0.0 L 0.0 0.0 Z M 0.0 1080.0 " fill="#FEFFFF"></path><text xml:space="preserve" font-family="GillSans" font-size="112.0" fill="#000000" transform="matrix(1.00, 0.00, -0.00, -1.00, 785.0, 876.0)">D</text><text xml:space="preserve" font-family="GillSans" font-size="112.0" fill="#000000" transform="matrix(1.00, 0.00, -0.00, -1.00, 869.0, 876.0)">a</text><text xml:space="preserve" font-family="GillSans" font-size="112.0" fill="#000000" transform="matrix(1.00, 0.00, -0.00, -1.00, 916.8, 876.0)">t</text><text xml:space="preserve" font-family="GillSans" font-size="112.0" fill="#000000" transform="matrix(1.00, 0.00, -0.00, -1.00, 954.1, 876.0)">a</text><text xml:space="preserve" font-family="GillSans" font-size="112.0" fill="#000000" transform="matrix(1.00, 0.00, -0.00, -1.00, 1001.8, 876.0)">s</text><text xml:space="preserve" font-family="GillSans" font-size="112.0" fill="#000000" transform="matrix(1.00, 0.00, -0.00, -1.00, 1044.9, 876.0)">e</text><text xml:space="preserve" font-family="GillSans" font-size="112.0" fill="#000000" transform="matrix(1.00, 0.00, -0.00, -1.00, 1098.6, 876.0)">t</text><g><clipPath id="clip-6104"><path d="M 137.0 768.1 L 157.9 768.1 L 157.9 789.0 L 137.0 789.0 Z M 137.0 768.1 "></path></clipPath><g clip-path="url(#clip-6104)"><path d="M 157.9 778.6 L 147.5 768.1 L 137.0 778.6 L 147.5 789.0 L 157.9 778.6 Z M 157.9 778.6 " fill="#000000"></path></g></g><text xml:space="preserve" font-family="GillSans" font-size="52.0" fill="#000000" transform="matrix(1.00, 0.00, -0.00, -1.00, 177.0, 761.0)">C</text><text xml:space="preserve" font-family="GillSans" font-size="52.0" fill="#000000" transform="matrix(1.00, 0.00, -0.00, -1.00, 213.8, 761.0)">o</text><text xml:space="preserve" font-family="GillSans" font-size="52.0" fill="#000000" transform="matrix(1.00, 0.00, -0.00, -1.00, 242.5, 761.0)">m</text><text xml:space="preserve" font-family="GillSans" font-size="52.0" fill="#000000" transform="matrix(1.00, 0.00, -0.00, -1.00, 282.6, 761.0)">p</text><text xml:space="preserve" font-family="GillSans" font-size="52.0" fill="#000000" transform="matrix(1.00, 0.00, -0.00, -1.00, 308.6, 761.0)">i</text><text xml:space="preserve" font-family="GillSans" font-size="52.0" fill="#000000" transform="matrix(1.00, 0.00, -0.00, -1.00, 320.0, 761.0)">l</text><text xml:space="preserve" font-family="GillSans" font-size="52.0" fill="#000000" transform="matrix(1.00, 0.00, -0.00, -1.00, 331.4, 761.0)">e</text><text xml:space="preserve" font-family="GillSans" font-size="52.0" fill="#000000" transform="matrix(1.00, 0.00, -0.00, -1.00, 356.3, 761.0)">d</text><text xml:space="preserve" font-family="GillSans" font-size="52.0" fill="#000000" transform="matrix(1.00, 0.00, -0.00, -1.00, 382.8, 761.0)"> </text><text xml:space="preserve" font-family="GillSans" font-size="52.0" fill="#000000" transform="matrix(1.00, 0.00, -0.00, -1.00, 397.3, 761.0)">t</text><text xml:space="preserve" font-family="GillSans" font-size="52.0" fill="#000000" transform="matrix(1.00, 0.00, -0.00, -1.00, 414.6, 761.0)">a</text><text xml:space="preserve" font-family="GillSans" font-size="52.0" fill="#000000" transform="matrix(1.00, 0.00, -0.00, -1.00, 436.8, 761.0)">r</text><text xml:space="preserve" font-family="GillSans" font-size="52.0" fill="#000000" transform="matrix(1.00, 0.00, -0.00, -1.00, 457.3, 761.0)">g</text><text xml:space="preserve" font-family="GillSans" font-size="52.0" fill="#000000" transform="matrix(1.00, 0.00, -0.00, -1.00, 479.5, 761.0)">e</text><text xml:space="preserve" font-family="GillSans" font-size="52.0" fill="#000000" transform="matrix(1.00, 0.00, -0.00, -1.00, 504.4, 761.0)">t</text><text xml:space="preserve" font-family="GillSans" font-size="52.0" fill="#000000" transform="matrix(1.00, 0.00, -0.00, -1.00, 521.7, 761.0)"> </text><text xml:space="preserve" font-family="GillSans" font-size="52.0" fill="#000000" transform="matrix(1.00, 0.00, -0.00, -1.00, 536.2, 761.0)">p</text><text xml:space="preserve" font-family="GillSans" font-size="52.0" fill="#000000" transform="matrix(1.00, 0.00, -0.00, -1.00, 562.2, 761.0)">r</text><text xml:space="preserve" font-family="GillSans" font-size="52.0" fill="#000000" transform="matrix(1.00, 0.00, -0.00, -1.00, 581.5, 761.0)">o</text><text xml:space="preserve" font-family="GillSans" font-size="52.0" fill="#000000" transform="matrix(1.00, 0.00, -0.00, -1.00, 610.2, 761.0)">c</text><text xml:space="preserve" font-family="GillSans" font-size="52.0" fill="#000000" transform="matrix(1.00, 0.00, -0.00, -1.00, 632.9, 761.0)">e</text><text xml:space="preserve" font-family="GillSans" font-size="52.0" fill="#000000" transform="matrix(1.00, 0.00, -0.00, -1.00, 657.8, 761.0)">s</text><text xml:space="preserve" font-family="GillSans" font-size="52.0" fill="#000000" transform="matrix(1.00, 0.00, -0.00, -1.00, 677.8, 761.0)">s</text><text xml:space="preserve" font-family="GillSans" font-size="52.0" fill="#000000" transform="matrix(1.00, 0.00, -0.00, -1.00, 697.8, 761.0)">e</text><text xml:space="preserve" font-family="GillSans" font-size="52.0" fill="#000000" transform="matrix(1.00, 0.00, -0.00, -1.00, 722.7, 761.0)">s</text><text xml:space="preserve" font-family="GillSans" font-size="52.0" fill="#000000" transform="matrix(1.00, 0.00, -0.00, -1.00, 742.7, 761.0)"> </text><text xml:space="preserve" font-family="GillSans" font-size="52.0" fill="#000000" transform="matrix(1.00, 0.00, -0.00, -1.00, 757.2, 761.0)">f</text><text xml:space="preserve" font-family="GillSans" font-size="52.0" fill="#000000" transform="matrix(1.00, 0.00, -0.00, -1.00, 770.2, 761.0)">r</text><text xml:space="preserve" font-family="GillSans" font-size="52.0" fill="#000000" transform="matrix(1.00, 0.00, -0.00, -1.00, 789.5, 761.0)">o</text><text xml:space="preserve" font-family="GillSans" font-size="52.0" fill="#000000" transform="matrix(1.00, 0.00, -0.00, -1.00, 818.2, 761.0)">m</text><text xml:space="preserve" font-family="GillSans" font-size="52.0" fill="#000000" transform="matrix(1.00, 0.00, -0.00, -1.00, 858.3, 761.0)"> </text><text xml:space="preserve" font-family="GillSans" font-size="52.0" fill="#000000" transform="matrix(1.00, 0.00, -0.00, -1.00, 872.7, 761.0)">t</text><text xml:space="preserve" font-family="GillSans" font-size="52.0" fill="#000000" transform="matrix(1.00, 0.00, -0.00, -1.00, 890.0, 761.0)">w</text><text xml:space="preserve" font-family="GillSans" font-size="52.0" fill="#000000" transform="matrix(1.00, 0.00, -0.00, -1.00, 926.4, 761.0)">o</text><text xml:space="preserve" font-family="GillSans" font-size="52.0" fill="#000000" transform="matrix(1.00, 0.00, -0.00, -1.00, 955.1, 761.0)"> </text><text xml:space="preserve" font-family="GillSans" font-size="52.0" fill="#000000" transform="matrix(1.00, 0.00, -0.00, -1.00, 969.5, 761.0)">c</text><text xml:space="preserve" font-family="GillSans" font-size="52.0" fill="#000000" transform="matrix(1.00, 0.00, -0.00, -1.00, 992.3, 761.0)">o</text><text xml:space="preserve" font-family="GillSans" font-size="52.0" fill="#000000" transform="matrix(1.00, 0.00, -0.00, -1.00, 1021.0, 761.0)">l</text><text xml:space="preserve" font-family="GillSans" font-size="52.0" fill="#000000" transform="matrix(1.00, 0.00, -0.00, -1.00, 1032.4, 761.0)">l</text><text xml:space="preserve" font-family="GillSans" font-size="52.0" fill="#000000" transform="matrix(1.00, 0.00, -0.00, -1.00, 1043.8, 761.0)">e</text><text xml:space="preserve" font-family="GillSans" font-size="52.0" fill="#000000" transform="matrix(1.00, 0.00, -0.00, -1.00, 1068.7, 761.0)">c</text><text xml:space="preserve" font-family="GillSans" font-size="52.0" fill="#000000" transform="matrix(1.00, 0.00, -0.00, -1.00, 1091.5, 761.0)">t</text><text xml:space="preserve" font-family="GillSans" font-size="52.0" fill="#000000" transform="matrix(1.00, 0.00, -0.00, -1.00, 1108.8, 761.0)">i</text><text xml:space="preserve" font-family="GillSans" font-size="52.0" fill="#000000" transform="matrix(1.00, 0.00, -0.00, -1.00, 1120.2, 761.0)">o</text><text xml:space="preserve" font-family="GillSans" font-size="52.0" fill="#000000" transform="matrix(1.00, 0.00, -0.00, -1.00, 1148.9, 761.0)">n</text><text xml:space="preserve" font-family="GillSans" font-size="52.0" fill="#000000" transform="matrix(1.00, 0.00, -0.00, -1.00, 1174.9, 761.0)">s</text><text xml:space="preserve" font-family="GillSans" font-size="52.0" fill="#000000" transform="matrix(1.00, 0.00, -0.00, -1.00, 1194.9, 761.0)">:</text><text xml:space="preserve" font-family="GillSans-Italic" font-style="italic" font-size="52.0" fill="#000000" transform="matrix(1.00, 0.00, -0.00, -1.00, 207.0, 661.7)">(</text><text xml:space="preserve" font-family="GillSans-Italic" font-style="italic" font-size="52.0" fill="#000000" transform="matrix(1.00, 0.00, -0.00, -1.00, 222.2, 661.7)">i</text><text xml:space="preserve" font-family="GillSans-Italic" font-style="italic" font-size="52.0" fill="#000000" transform="matrix(1.00, 0.00, -0.00, -1.00, 232.0, 661.7)">)</text><text xml:space="preserve" font-family="GillSans-Italic" font-style="italic" font-size="52.0" fill="#000000" transform="matrix(1.00, 0.00, -0.00, -1.00, 277.0, 662.0)">N</text><text xml:space="preserve" font-family="GillSans-Italic" font-style="italic" font-size="52.0" fill="#000000" transform="matrix(1.00, 0.00, -0.00, -1.00, 312.8, 662.0)">e</text><text xml:space="preserve" font-family="GillSans-Italic" font-style="italic" font-size="52.0" fill="#000000" transform="matrix(1.00, 0.00, -0.00, -1.00, 335.0, 662.0)">w</text><text xml:space="preserve" font-family="GillSans-Italic" font-style="italic" font-size="52.0" fill="#000000" transform="matrix(1.00, 0.00, -0.00, -1.00, 367.0, 662.0)"> </text><text xml:space="preserve" font-family="GillSans-Italic" font-style="italic" font-size="52.0" fill="#000000" transform="matrix(1.00, 0.00, -0.00, -1.00, 372.4, 662.0)">Y</text><text xml:space="preserve" font-family="GillSans-Italic" font-style="italic" font-size="52.0" fill="#000000" transform="matrix(1.00, 0.00, -0.00, -1.00, 393.7, 662.0)">o</text><text xml:space="preserve" font-family="GillSans-Italic" font-style="italic" font-size="52.0" fill="#000000" transform="matrix(1.00, 0.00, -0.00, -1.00, 417.1, 662.0)">r</text><text xml:space="preserve" font-family="GillSans-Italic" font-style="italic" font-size="52.0" fill="#000000" transform="matrix(1.00, 0.00, -0.00, -1.00, 433.3, 662.0)">k</text><text xml:space="preserve" font-family="GillSans-Italic" font-style="italic" font-size="52.0" fill="#000000" transform="matrix(1.00, 0.00, -0.00, -1.00, 457.1, 662.0)"> </text><text xml:space="preserve" font-family="GillSans-Italic" font-style="italic" font-size="52.0" fill="#000000" transform="matrix(1.00, 0.00, -0.00, -1.00, 471.6, 662.0)">R</text><text xml:space="preserve" font-family="GillSans-Italic" font-style="italic" font-size="52.0" fill="#000000" transform="matrix(1.00, 0.00, -0.00, -1.00, 499.2, 662.0)">e</text><text xml:space="preserve" font-family="GillSans-Italic" font-style="italic" font-size="52.0" fill="#000000" transform="matrix(1.00, 0.00, -0.00, -1.00, 521.9, 662.0)">g</text><text xml:space="preserve" font-family="GillSans-Italic" font-style="italic" font-size="52.0" fill="#000000" transform="matrix(1.00, 0.00, -0.00, -1.00, 543.3, 662.0)">e</text><text xml:space="preserve" font-family="GillSans-Italic" font-style="italic" font-size="52.0" fill="#000000" transform="matrix(1.00, 0.00, -0.00, -1.00, 566.1, 662.0)">n</text><text xml:space="preserve" font-family="GillSans-Italic" font-style="italic" font-size="52.0" fill="#000000" transform="matrix(1.00, 0.00, -0.00, -1.00, 590.5, 662.0)">t</text><text xml:space="preserve" font-family="GillSans-Italic" font-style="italic" font-size="52.0" fill="#000000" transform="matrix(1.00, 0.00, -0.00, -1.00, 605.1, 662.0)">s</text><text xml:space="preserve" font-family="GillSans-Italic" font-style="italic" font-size="52.0" fill="#000000" transform="matrix(1.00, 0.00, -0.00, -1.00, 623.5, 662.0)"> </text><text xml:space="preserve" font-family="GillSans-Italic" font-style="italic" font-size="52.0" fill="#000000" transform="matrix(1.00, 0.00, -0.00, -1.00, 638.0, 662.0)">s</text><text xml:space="preserve" font-family="GillSans-Italic" font-style="italic" font-size="52.0" fill="#000000" transform="matrix(1.00, 0.00, -0.00, -1.00, 656.4, 662.0)">c</text><text xml:space="preserve" font-family="GillSans-Italic" font-style="italic" font-size="52.0" fill="#000000" transform="matrix(1.00, 0.00, -0.00, -1.00, 676.4, 662.0)">i</text><text xml:space="preserve" font-family="GillSans-Italic" font-style="italic" font-size="52.0" fill="#000000" transform="matrix(1.00, 0.00, -0.00, -1.00, 686.1, 662.0)">e</text><text xml:space="preserve" font-family="GillSans-Italic" font-style="italic" font-size="52.0" fill="#000000" transform="matrix(1.00, 0.00, -0.00, -1.00, 708.9, 662.0)">n</text><text xml:space="preserve" font-family="GillSans-Italic" font-style="italic" font-size="52.0" fill="#000000" transform="matrix(1.00, 0.00, -0.00, -1.00, 733.3, 662.0)">c</text><text xml:space="preserve" font-family="GillSans-Italic" font-style="italic" font-size="52.0" fill="#000000" transform="matrix(1.00, 0.00, -0.00, -1.00, 753.3, 662.0)">e</text><text xml:space="preserve" font-family="GillSans-Italic" font-style="italic" font-size="52.0" fill="#000000" transform="matrix(1.00, 0.00, -0.00, -1.00, 776.1, 662.0)"> </text><text xml:space="preserve" font-family="GillSans-Italic" font-style="italic" font-size="52.0" fill="#000000" transform="matrix(1.00, 0.00, -0.00, -1.00, 790.5, 662.0)">e</text><text xml:space="preserve" font-family="GillSans-Italic" font-style="italic" font-size="52.0" fill="#000000" transform="matrix(1.00, 0.00, -0.00, -1.00, 813.3, 662.0)">x</text><text xml:space="preserve" font-family="GillSans-Italic" font-style="italic" font-size="52.0" fill="#000000" transform="matrix(1.00, 0.00, -0.00, -1.00, 835.5, 662.0)">a</text><text xml:space="preserve" font-family="GillSans-Italic" font-style="italic" font-size="52.0" fill="#000000" transform="matrix(1.00, 0.00, -0.00, -1.00, 859.9, 662.0)">m</text><text xml:space="preserve" font-family="GillSans-Italic" font-style="italic" font-size="52.0" fill="#000000" transform="matrix(1.00, 0.00, -0.00, -1.00, 898.4, 662.0)">s</text><text xml:space="preserve" font-family="GillSans-Italic" font-style="italic" font-size="52.0" fill="#000000" transform="matrix(1.00, 0.00, -0.00, -1.00, 207.0, 562.7)">(</text><text xml:space="preserve" font-family="GillSans-Italic" font-style="italic" font-size="52.0" fill="#000000" transform="matrix(1.00, 0.00, -0.00, -1.00, 222.2, 562.7)">i</text><text xml:space="preserve" font-family="GillSans-Italic" font-style="italic" font-size="52.0" fill="#000000" transform="matrix(1.00, 0.00, -0.00, -1.00, 232.0, 562.7)">i</text><text xml:space="preserve" font-family="GillSans-Italic" font-style="italic" font-size="52.0" fill="#000000" transform="matrix(1.00, 0.00, -0.00, -1.00, 241.7, 562.7)">)</text><text xml:space="preserve" font-family="GillSans-Italic" font-style="italic" font-size="52.0" fill="#000000" transform="matrix(1.00, 0.00, -0.00, -1.00, 277.0, 563.0)">h</text><text xml:space="preserve" font-family="GillSans-Italic" font-style="italic" font-size="52.0" fill="#000000" transform="matrix(1.00, 0.00, -0.00, -1.00, 301.4, 563.0)">e</text><text xml:space="preserve" font-family="GillSans-Italic" font-style="italic" font-size="52.0" fill="#000000" transform="matrix(1.00, 0.00, -0.00, -1.00, 324.2, 563.0)">l</text><text xml:space="preserve" font-family="GillSans-Italic" font-style="italic" font-size="52.0" fill="#000000" transform="matrix(1.00, 0.00, -0.00, -1.00, 334.0, 563.0)">p</text><text xml:space="preserve" font-family="GillSans-Italic" font-style="italic" font-size="52.0" fill="#000000" transform="matrix(1.00, 0.00, -0.00, -1.00, 359.5, 563.0)">t</text><text xml:space="preserve" font-family="GillSans-Italic" font-style="italic" font-size="52.0" fill="#000000" transform="matrix(1.00, 0.00, -0.00, -1.00, 374.1, 563.0)">e</text><text xml:space="preserve" font-family="GillSans-Italic" font-style="italic" font-size="52.0" fill="#000000" transform="matrix(1.00, 0.00, -0.00, -1.00, 396.8, 563.0)">a</text><text xml:space="preserve" font-family="GillSans-Italic" font-style="italic" font-size="52.0" fill="#000000" transform="matrix(1.00, 0.00, -0.00, -1.00, 421.2, 563.0)">c</text><text xml:space="preserve" font-family="GillSans-Italic" font-style="italic" font-size="52.0" fill="#000000" transform="matrix(1.00, 0.00, -0.00, -1.00, 442.3, 563.0)">h</text><text xml:space="preserve" font-family="GillSans-Italic" font-style="italic" font-size="52.0" fill="#000000" transform="matrix(1.00, 0.00, -0.00, -1.00, 466.7, 563.0)">i</text><text xml:space="preserve" font-family="GillSans-Italic" font-style="italic" font-size="52.0" fill="#000000" transform="matrix(1.00, 0.00, -0.00, -1.00, 476.5, 563.0)">n</text><text xml:space="preserve" font-family="GillSans-Italic" font-style="italic" font-size="52.0" fill="#000000" transform="matrix(1.00, 0.00, -0.00, -1.00, 500.9, 563.0)">g</text><text xml:space="preserve" font-family="GillSans-Italic" font-style="italic" font-size="52.0" fill="#000000" transform="matrix(1.00, 0.00, -0.00, -1.00, 523.1, 563.0)">.</text><text xml:space="preserve" font-family="GillSans-Italic" font-style="italic" font-size="52.0" fill="#000000" transform="matrix(1.00, 0.00, -0.00, -1.00, 533.4, 563.0)">c</text><text xml:space="preserve" font-family="GillSans-Italic" font-style="italic" font-size="52.0" fill="#000000" transform="matrix(1.00, 0.00, -0.00, -1.00, 553.4, 563.0)">o</text><text xml:space="preserve" font-family="GillSans-Italic" font-style="italic" font-size="52.0" fill="#000000" transform="matrix(1.00, 0.00, -0.00, -1.00, 576.7, 563.0)">m</text><g><clipPath id="clip-6105"><path d="M 276.0 556.4 L 615.2 556.4 L 615.2 561.0 L 276.0 561.0 Z M 276.0 556.4 "></path></clipPath><g clip-path="url(#clip-6105)"><path d="M 144.0 254.0 L 482.2 254.0 " fill="none" stroke="#000000" stroke-width="2.59" stroke-miterlimit="0.00" transform="matrix(1.00, 0.00, 0.00, -1.00, 133.0, 812.7)"></path></g></g></g></svg>