<?xml version="1.0" encoding="UTF-8" standalone="no"?><svg xmlns="http://www.w3.org/2000/svg" xmlns:xlink="http://www.w3.org/1999/xlink" clip-rule="evenodd" stroke-miterlimit="4.00" viewBox="0 0 724 153"><desc>SVG generated by Keynote</desc><defs></defs><g transform="matrix(1.00, 0.00, -0.00, -1.00, 0.0, 153.0)"><text xml:space="preserve" font-family="GillSans" font-size="93.0" fill="#000000" transform="matrix(1.00, 0.00, -0.00, -1.00, -5.0, 88.0)">M</text><text xml:space="preserve" font-family="GillSans" font-size="93.0" fill="#000000" transform="matrix(1.00, 0.00, -0.00, -1.00, 67.6, 88.0)">e</text><text xml:space="preserve" font-family="GillSans" font-size="93.0" fill="#000000" transform="matrix(1.00, 0.00, -0.00, -1.00, 112.1, 88.0)">m</text><text xml:space="preserve" font-family="GillSans" font-size="93.0" fill="#000000" transform="matrix(1.00, 0.00, -0.00, -1.00, 183.8, 88.0)">o</text><text xml:space="preserve" font-family="GillSans" font-size="93.0" fill="#000000" transform="matrix(1.00, 0.00, -0.00, -1.00, 235.0, 88.0)">r</text><text xml:space="preserve" font-family="GillSans" font-size="93.0" fill="#000000" transform="matrix(1.00, 0.00, -0.00, -1.00, 274.6, 88.0)">y</text><text xml:space="preserve" font-family="GillSans" font-size="93.0" fill="#000000" transform="matrix(1.00, 0.00, -0.00, -1.00, 315.4, 88.0)"> </text><text xml:space="preserve" font-family="GillSans" font-size="93.0" fill="#000000" transform="matrix(1.00, 0.00, -0.00, -1.00, 341.2, 88.0)">N</text><text xml:space="preserve" font-family="GillSans" font-size="93.0" fill="#000000" transform="matrix(1.00, 0.00, -0.00, -1.00, 413.7, 88.0)">e</text><text xml:space="preserve" font-family="GillSans" font-size="93.0" fill="#000000" transform="matrix(1.00, 0.00, -0.00, -1.00, 458.3, 88.0)">t</text><text xml:space="preserve" font-family="GillSans" font-size="93.0" fill="#000000" transform="matrix(1.00, 0.00, -0.00, -1.00, 489.2, 88.0)">w</text><text xml:space="preserve" font-family="GillSans" font-size="93.0" fill="#000000" transform="matrix(1.00, 0.00, -0.00, -1.00, 554.2, 88.0)">o</text><text xml:space="preserve" font-family="GillSans" font-size="93.0" fill="#000000" transform="matrix(1.00, 0.00, -0.00, -1.00, 605.5, 88.0)">r</text><text xml:space="preserve" font-family="GillSans" font-size="93.0" fill="#000000" transform="matrix(1.00, 0.00, -0.00, -1.00, 642.3, 88.0)">k</text><text xml:space="preserve" font-family="GillSans" font-size="93.0" fill="#000000" transform="matrix(1.00, 0.00, -0.00, -1.00, 686.9, 88.0)">s</text><text xml:space="preserve" font-family="GillSans" font-size="58.1" fill="#000000" transform="matrix(1.00, 0.00, -0.00, -1.00, 181.0, 14.0)">[</text><text xml:space="preserve" font-family="GillSans" font-size="58.1" fill="#000000" transform="matrix(1.00, 0.00, -0.00, -1.00, 200.3, 14.0)">W</text><text xml:space="preserve" font-family="GillSans" font-size="58.1" fill="#000000" transform="matrix(1.00, 0.00, -0.00, -1.00, 255.7, 14.0)">e</text><text xml:space="preserve" font-family="GillSans" font-size="58.1" fill="#000000" transform="matrix(1.00, 0.00, -0.00, -1.00, 283.5, 14.0)">s</text><text xml:space="preserve" font-family="GillSans" font-size="58.1" fill="#000000" transform="matrix(1.00, 0.00, -0.00, -1.00, 305.8, 14.0)">t</text><text xml:space="preserve" font-family="GillSans" font-size="58.1" fill="#000000" transform="matrix(1.00, 0.00, -0.00, -1.00, 325.2, 14.0)">o</text><text xml:space="preserve" font-family="GillSans" font-size="58.1" fill="#000000" transform="matrix(1.00, 0.00, -0.00, -1.00, 357.2, 14.0)">n</text><text xml:space="preserve" font-family="GillSans" font-size="58.1" fill="#000000" transform="matrix(1.00, 0.00, -0.00, -1.00, 386.3, 14.0)"> </text><text xml:space="preserve" font-family="GillSans" font-size="58.1" fill="#000000" transform="matrix(1.00, 0.00, -0.00, -1.00, 402.4, 14.0)">2</text><text xml:space="preserve" font-family="GillSans" font-size="58.1" fill="#000000" transform="matrix(1.00, 0.00, -0.00, -1.00, 431.5, 14.0)">0</text><text xml:space="preserve" font-family="GillSans" font-size="58.1" fill="#000000" transform="matrix(1.00, 0.00, -0.00, -1.00, 460.5, 14.0)">1</text><text xml:space="preserve" font-family="GillSans" font-size="58.1" fill="#000000" transform="matrix(1.00, 0.00, -0.00, -1.00, 489.6, 14.0)">4</text><text xml:space="preserve" font-family="GillSans" font-size="58.1" fill="#000000" transform="matrix(1.00, 0.00, -0.00, -1.00, 518.6, 14.0)">]</text></g></svg>