<?xml version="1.0" encoding="UTF-8" standalone="no"?><svg xmlns="http://www.w3.org/2000/svg" xmlns:xlink="http://www.w3.org/1999/xlink" clip-rule="evenodd" stroke-miterlimit="4.00" viewBox="0 0 34 124"><desc>SVG generated by Keynote</desc><defs></defs><g transform="matrix(1.00, 0.00, -0.00, -1.00, 0.0, 124.0)"><g><clipPath id="clip-11142"><path d="M 33.0 0.3 L 0.5 0.3 L 0.5 123.3 L 33.0 123.3 Z M 33.0 0.3 "></path></clipPath><g clip-path="url(#clip-11142)"><path d="M 27.3 1.8 L 6.2 1.8 C 5.0 1.8 4.4 1.8 3.8 2.0 C 3.1 2.3 2.5 2.8 2.2 3.5 C 2.0 4.2 2.0 4.8 2.0 6.0 L 2.0 117.6 C 2.0 118.8 2.0 119.4 2.2 120.1 C 2.5 120.8 3.1 121.3 3.8 121.6 C 4.4 121.8 5.0 121.8 6.3 121.8 L 27.3 121.8 C 28.5 121.8 29.2 121.8 29.8 121.6 C 30.5 121.3 31.1 120.8 31.3 120.1 C 31.5 119.4 31.5 118.8 31.5 117.6 L 31.5 6.0 C 31.5 4.8 31.5 4.2 31.3 3.5 C 31.1 2.8 30.5 2.3 29.8 2.0 C 29.2 1.8 28.5 1.8 27.3 1.8 Z M 27.3 1.8 " fill="#000000" fill-opacity="0.41"></path><path d="M 4.2 0.0 L 25.3 0.0 C 26.5 0.0 27.1 0.0 27.8 0.2 C 28.5 0.5 29.0 1.0 29.3 1.7 C 29.5 2.4 29.5 3.0 29.5 4.2 L 29.5 115.8 C 29.5 117.0 29.5 117.6 29.3 118.3 C 29.0 119.0 28.5 119.5 27.8 119.8 C 27.1 120.0 26.5 120.0 25.3 120.0 L 4.2 120.0 C 3.0 120.0 2.4 120.0 1.7 119.8 C 1.0 119.5 0.5 119.0 0.2 118.3 C 0.0 117.6 0.0 117.0 0.0 115.8 L 0.0 4.2 C 0.0 3.0 0.0 2.4 0.2 1.7 C 0.5 1.0 1.0 0.5 1.7 0.2 C 2.4 0.0 3.0 0.0 4.2 0.0 Z M 4.2 0.0 " fill="none" stroke="#000000" stroke-width="1.10" transform="matrix(-1.00, 0.00, 0.00, 1.00, 31.5, 1.8)"></path></g></g><g><clipPath id="clip-11143"><path d="M 32.9 90.2 L 0.7 90.2 L 0.7 108.3 L 32.9 108.3 Z M 32.9 90.2 "></path></clipPath><g clip-path="url(#clip-11143)"><path d="M 27.3 91.6 L 6.2 91.6 C 5.0 91.6 4.4 91.6 3.8 91.8 C 3.1 92.1 2.5 92.6 2.2 93.3 C 2.0 94.0 2.0 94.6 2.0 95.8 L 2.0 102.7 C 2.0 103.9 2.0 104.5 2.2 105.1 C 2.5 105.9 3.1 106.4 3.8 106.7 C 4.4 106.9 5.0 106.9 6.3 106.9 L 27.3 106.9 C 28.5 106.9 29.2 106.9 29.8 106.7 C 30.5 106.4 31.1 105.9 31.3 105.1 C 31.5 104.5 31.5 103.9 31.5 102.7 L 31.5 95.8 C 31.5 94.6 31.5 94.0 31.3 93.3 C 31.1 92.6 30.5 92.1 29.8 91.8 C 29.2 91.6 28.5 91.6 27.3 91.6 Z M 27.3 91.6 " fill="#000000" fill-opacity="0.14"></path><path d="M 4.2 0.0 L 25.3 0.0 C 26.5 0.0 27.1 0.0 27.8 0.2 C 28.5 0.5 29.0 1.0 29.3 1.7 C 29.5 2.4 29.5 3.0 29.5 4.2 L 29.5 11.1 C 29.5 12.3 29.5 12.9 29.3 13.5 C 29.0 14.2 28.5 14.8 27.8 15.1 C 27.1 15.3 26.5 15.3 25.3 15.3 L 4.2 15.3 C 3.0 15.3 2.4 15.3 1.7 15.1 C 1.0 14.8 0.5 14.2 0.2 13.5 C 0.0 12.9 0.0 12.3 0.0 11.1 L 0.0 4.2 C 0.0 3.0 0.0 2.4 0.2 1.7 C 0.5 1.0 1.0 0.5 1.7 0.2 C 2.4 0.0 3.0 0.0 4.2 0.0 Z M 4.2 0.0 " fill="none" stroke="#000000" stroke-width="0.85" stroke-dasharray="0.9, 0.9" transform="matrix(-1.00, 0.00, 0.00, 1.00, 31.5, 91.6)"></path></g></g><g><clipPath id="clip-11144"><path d="M 32.9 105.2 L 0.7 105.2 L 0.7 123.2 L 32.9 123.2 Z M 32.9 105.2 "></path></clipPath><g clip-path="url(#clip-11144)"><path d="M 27.3 106.5 L 6.2 106.5 C 5.0 106.5 4.4 106.5 3.8 106.7 C 3.1 107.0 2.5 107.5 2.2 108.3 C 2.0 108.9 2.0 109.5 2.0 110.7 L 2.0 117.6 C 2.0 118.8 2.0 119.4 2.2 120.1 C 2.5 120.8 3.1 121.3 3.8 121.6 C 4.4 121.8 5.0 121.8 6.3 121.8 L 27.3 121.8 C 28.5 121.8 29.2 121.8 29.8 121.6 C 30.5 121.3 31.1 120.8 31.3 120.1 C 31.5 119.4 31.5 118.8 31.5 117.6 L 31.5 110.7 C 31.5 109.5 31.5 108.9 31.3 108.3 C 31.1 107.5 30.5 107.0 29.8 106.7 C 29.2 106.5 28.5 106.5 27.3 106.5 Z M 27.3 106.5 " fill="#000000" fill-opacity="0.03"></path><path d="M 4.2 0.0 L 25.3 0.0 C 26.5 0.0 27.1 0.0 27.8 0.2 C 28.5 0.5 29.0 1.0 29.3 1.7 C 29.5 2.4 29.5 3.0 29.5 4.2 L 29.5 11.1 C 29.5 12.3 29.5 12.9 29.3 13.5 C 29.0 14.2 28.5 14.8 27.8 15.1 C 27.1 15.3 26.5 15.3 25.3 15.3 L 4.2 15.3 C 3.0 15.3 2.4 15.3 1.7 15.1 C 1.0 14.8 0.5 14.2 0.2 13.5 C 0.0 12.9 0.0 12.3 0.0 11.1 L 0.0 4.2 C 0.0 3.0 0.0 2.4 0.2 1.7 C 0.5 1.0 1.0 0.5 1.7 0.2 C 2.4 0.0 3.0 0.0 4.2 0.0 Z M 4.2 0.0 " fill="none" stroke="#000000" stroke-width="0.85" stroke-dasharray="0.9, 0.9" transform="matrix(-1.00, 0.00, 0.00, 1.00, 31.5, 106.5)"></path></g></g><g><clipPath id="clip-11145"><path d="M 32.9 60.4 L 0.7 60.4 L 0.7 78.4 L 32.9 78.4 Z M 32.9 60.4 "></path></clipPath><g clip-path="url(#clip-11145)"><path d="M 27.3 61.8 L 6.2 61.8 C 5.0 61.8 4.4 61.8 3.8 62.0 C 3.1 62.3 2.5 62.8 2.2 63.5 C 2.0 64.2 2.0 64.8 2.0 66.0 L 2.0 72.9 C 2.0 74.1 2.0 74.7 2.2 75.3 C 2.5 76.0 3.1 76.6 3.8 76.9 C 4.4 77.1 5.0 77.1 6.3 77.1 L 27.3 77.1 C 28.5 77.1 29.2 77.1 29.8 76.9 C 30.5 76.6 31.1 76.0 31.3 75.3 C 31.5 74.7 31.5 74.1 31.5 72.8 L 31.5 66.0 C 31.5 64.8 31.5 64.2 31.3 63.5 C 31.1 62.8 30.5 62.3 29.8 62.0 C 29.2 61.8 28.5 61.8 27.3 61.8 Z M 27.3 61.8 " fill="#000000" fill-opacity="0.19"></path><path d="M 4.2 0.0 L 25.3 0.0 C 26.5 0.0 27.1 0.0 27.8 0.2 C 28.5 0.5 29.0 1.0 29.3 1.7 C 29.5 2.4 29.5 3.0 29.5 4.2 L 29.5 11.1 C 29.5 12.3 29.5 12.9 29.3 13.5 C 29.0 14.2 28.5 14.8 27.8 15.1 C 27.1 15.3 26.5 15.3 25.3 15.3 L 4.2 15.3 C 3.0 15.3 2.4 15.3 1.7 15.1 C 1.0 14.8 0.5 14.2 0.2 13.5 C 0.0 12.9 0.0 12.3 0.0 11.1 L 0.0 4.2 C 0.0 3.0 0.0 2.4 0.2 1.7 C 0.5 1.0 1.0 0.5 1.7 0.2 C 2.4 0.0 3.0 0.0 4.2 0.0 Z M 4.2 0.0 " fill="none" stroke="#000000" stroke-width="0.85" stroke-dasharray="0.9, 0.9" transform="matrix(-1.00, 0.00, 0.00, 1.00, 31.5, 61.8)"></path></g></g><g><clipPath id="clip-11146"><path d="M 32.9 75.3 L 0.7 75.3 L 0.7 93.3 L 32.9 93.3 Z M 32.9 75.3 "></path></clipPath><g clip-path="url(#clip-11146)"><path d="M 27.3 76.7 L 6.2 76.7 C 5.0 76.7 4.4 76.7 3.8 76.9 C 3.1 77.2 2.5 77.7 2.2 78.4 C 2.0 79.1 2.0 79.7 2.0 80.9 L 2.0 87.8 C 2.0 89.0 2.0 89.6 2.2 90.2 C 2.5 90.9 3.1 91.5 3.8 91.8 C 4.4 92.0 5.0 92.0 6.3 92.0 L 27.3 92.0 C 28.5 92.0 29.2 92.0 29.8 91.8 C 30.5 91.5 31.1 90.9 31.3 90.2 C 31.5 89.6 31.5 89.0 31.5 87.8 L 31.5 80.9 C 31.5 79.7 31.5 79.1 31.3 78.4 C 31.1 77.7 30.5 77.2 29.8 76.9 C 29.2 76.7 28.5 76.7 27.3 76.7 Z M 27.3 76.7 " fill="#000000" fill-opacity="0.17"></path><path d="M 4.2 0.0 L 25.3 0.0 C 26.5 0.0 27.1 0.0 27.8 0.2 C 28.5 0.5 29.0 1.0 29.3 1.7 C 29.5 2.4 29.5 3.0 29.5 4.2 L 29.5 11.1 C 29.5 12.3 29.5 12.9 29.3 13.5 C 29.0 14.2 28.5 14.8 27.8 15.1 C 27.1 15.3 26.5 15.3 25.3 15.3 L 4.2 15.3 C 3.0 15.3 2.4 15.3 1.7 15.1 C 1.0 14.8 0.5 14.2 0.2 13.5 C 0.0 12.9 0.0 12.3 0.0 11.1 L 0.0 4.2 C 0.0 3.0 0.0 2.4 0.2 1.7 C 0.5 1.0 1.0 0.5 1.7 0.2 C 2.4 0.0 3.0 0.0 4.2 0.0 Z M 4.2 0.0 " fill="none" stroke="#000000" stroke-width="0.85" stroke-dasharray="0.9, 0.9" transform="matrix(-1.00, 0.00, 0.00, 1.00, 31.5, 76.7)"></path></g></g><g><clipPath id="clip-11147"><path d="M 32.9 0.8 L 0.7 0.8 L 0.7 18.8 L 32.9 18.8 Z M 32.9 0.8 "></path></clipPath><g clip-path="url(#clip-11147)"><path d="M 27.3 2.1 L 6.2 2.1 C 5.0 2.1 4.4 2.1 3.8 2.3 C 3.1 2.6 2.5 3.2 2.2 3.9 C 2.0 4.5 2.0 5.1 2.0 6.4 L 2.0 13.2 C 2.0 14.4 2.0 15.0 2.2 15.7 C 2.5 16.4 3.1 16.9 3.8 17.2 C 4.4 17.4 5.0 17.4 6.3 17.4 L 27.3 17.4 C 28.5 17.4 29.2 17.4 29.8 17.2 C 30.5 16.9 31.1 16.4 31.3 15.7 C 31.5 15.0 31.5 14.4 31.5 13.2 L 31.5 6.3 C 31.5 5.1 31.5 4.5 31.3 3.9 C 31.1 3.2 30.5 2.6 29.8 2.3 C 29.2 2.1 28.5 2.1 27.3 2.1 Z M 27.3 2.1 " fill="#000000" fill-opacity="0.48"></path><path d="M 4.2 0.0 L 25.3 0.0 C 26.5 0.0 27.1 0.0 27.8 0.2 C 28.5 0.5 29.0 1.0 29.3 1.7 C 29.5 2.4 29.5 3.0 29.5 4.2 L 29.5 11.1 C 29.5 12.3 29.5 12.9 29.3 13.5 C 29.0 14.2 28.5 14.8 27.8 15.1 C 27.1 15.3 26.5 15.3 25.3 15.3 L 4.2 15.3 C 3.0 15.3 2.4 15.3 1.7 15.1 C 1.0 14.8 0.5 14.2 0.2 13.5 C 0.0 12.9 0.0 12.3 0.0 11.1 L 0.0 4.2 C 0.0 3.0 0.0 2.4 0.2 1.7 C 0.5 1.0 1.0 0.5 1.7 0.2 C 2.4 0.0 3.0 0.0 4.2 0.0 Z M 4.2 0.0 " fill="none" stroke="#000000" stroke-width="0.85" stroke-dasharray="0.9, 0.9" transform="matrix(-1.00, 0.00, 0.00, 1.00, 31.5, 2.1)"></path></g></g><g><clipPath id="clip-11148"><path d="M 32.9 75.3 L 0.7 75.3 L 0.7 93.3 L 32.9 93.3 Z M 32.9 75.3 "></path></clipPath><g clip-path="url(#clip-11148)"><path d="M 27.3 76.7 L 6.2 76.7 C 5.0 76.7 4.4 76.7 3.8 76.9 C 3.1 77.2 2.5 77.7 2.2 78.4 C 2.0 79.1 2.0 79.7 2.0 80.9 L 2.0 87.8 C 2.0 89.0 2.0 89.6 2.2 90.2 C 2.5 90.9 3.1 91.5 3.8 91.8 C 4.4 92.0 5.0 92.0 6.3 92.0 L 27.3 92.0 C 28.5 92.0 29.2 92.0 29.8 91.8 C 30.5 91.5 31.1 90.9 31.3 90.2 C 31.5 89.6 31.5 89.0 31.5 87.8 L 31.5 80.9 C 31.5 79.7 31.5 79.1 31.3 78.4 C 31.1 77.7 30.5 77.2 29.8 76.9 C 29.2 76.7 28.5 76.7 27.3 76.7 Z M 27.3 76.7 " fill="#000000" fill-opacity="0.03"></path><path d="M 4.2 0.0 L 25.3 0.0 C 26.5 0.0 27.1 0.0 27.8 0.2 C 28.5 0.5 29.0 1.0 29.3 1.7 C 29.5 2.4 29.5 3.0 29.5 4.2 L 29.5 11.1 C 29.5 12.3 29.5 12.9 29.3 13.5 C 29.0 14.2 28.5 14.8 27.8 15.1 C 27.1 15.3 26.5 15.3 25.3 15.3 L 4.2 15.3 C 3.0 15.3 2.4 15.3 1.7 15.1 C 1.0 14.8 0.5 14.2 0.2 13.5 C 0.0 12.9 0.0 12.3 0.0 11.1 L 0.0 4.2 C 0.0 3.0 0.0 2.4 0.2 1.7 C 0.5 1.0 1.0 0.5 1.7 0.2 C 2.4 0.0 3.0 0.0 4.2 0.0 Z M 4.2 0.0 " fill="none" stroke="#000000" stroke-width="0.85" stroke-dasharray="0.9, 0.9" transform="matrix(-1.00, 0.00, 0.00, 1.00, 31.5, 76.7)"></path></g></g><g><clipPath id="clip-11149"><path d="M 32.9 45.5 L 0.7 45.5 L 0.7 63.5 L 32.9 63.5 Z M 32.9 45.5 "></path></clipPath><g clip-path="url(#clip-11149)"><path d="M 27.3 46.9 L 6.2 46.9 C 5.0 46.9 4.4 46.9 3.8 47.1 C 3.1 47.3 2.5 47.9 2.2 48.6 C 2.0 49.3 2.0 49.9 2.0 51.1 L 2.0 57.9 C 2.0 59.1 2.0 59.8 2.2 60.4 C 2.5 61.1 3.1 61.7 3.8 61.9 C 4.4 62.1 5.0 62.1 6.3 62.1 L 27.3 62.1 C 28.5 62.1 29.2 62.1 29.8 61.9 C 30.5 61.7 31.1 61.1 31.3 60.4 C 31.5 59.8 31.5 59.1 31.5 57.9 L 31.5 51.1 C 31.5 49.9 31.5 49.3 31.3 48.6 C 31.1 47.9 30.5 47.3 29.8 47.1 C 29.2 46.9 28.5 46.9 27.3 46.9 Z M 27.3 46.9 " fill="#000000" fill-opacity="0.14"></path><path d="M 4.2 0.0 L 25.3 0.0 C 26.5 0.0 27.1 0.0 27.8 0.2 C 28.5 0.5 29.0 1.0 29.3 1.7 C 29.5 2.4 29.5 3.0 29.5 4.2 L 29.5 11.1 C 29.5 12.3 29.5 12.9 29.3 13.5 C 29.0 14.2 28.5 14.8 27.8 15.1 C 27.1 15.3 26.5 15.3 25.3 15.3 L 4.2 15.3 C 3.0 15.3 2.4 15.3 1.7 15.1 C 1.0 14.8 0.5 14.2 0.2 13.5 C 0.0 12.9 0.0 12.3 0.0 11.1 L 0.0 4.2 C 0.0 3.0 0.0 2.4 0.2 1.7 C 0.5 1.0 1.0 0.5 1.7 0.2 C 2.4 0.0 3.0 0.0 4.2 0.0 Z M 4.2 0.0 " fill="none" stroke="#000000" stroke-width="0.85" stroke-dasharray="0.9, 0.9" transform="matrix(-1.00, 0.00, 0.00, 1.00, 31.5, 46.9)"></path></g></g><g><clipPath id="clip-11150"><path d="M 32.9 15.7 L 0.7 15.7 L 0.7 33.7 L 32.9 33.7 Z M 32.9 15.7 "></path></clipPath><g clip-path="url(#clip-11150)"><path d="M 27.3 17.0 L 6.2 17.0 C 5.0 17.0 4.4 17.0 3.8 17.3 C 3.1 17.5 2.5 18.1 2.2 18.8 C 2.0 19.4 2.0 20.0 2.0 21.3 L 2.0 28.1 C 2.0 29.3 2.0 29.9 2.2 30.6 C 2.5 31.3 3.1 31.9 3.8 32.1 C 4.4 32.3 5.0 32.3 6.3 32.3 L 27.3 32.3 C 28.5 32.3 29.2 32.3 29.8 32.1 C 30.5 31.9 31.1 31.3 31.3 30.6 C 31.5 29.9 31.5 29.3 31.5 28.1 L 31.5 21.2 C 31.5 20.0 31.5 19.4 31.3 18.8 C 31.1 18.1 30.5 17.5 29.8 17.3 C 29.2 17.0 28.5 17.0 27.3 17.0 Z M 27.3 17.0 " fill="#000000" fill-opacity="0.35"></path><path d="M 4.2 0.0 L 25.3 0.0 C 26.5 0.0 27.1 0.0 27.8 0.2 C 28.5 0.5 29.0 1.0 29.3 1.7 C 29.5 2.4 29.5 3.0 29.5 4.2 L 29.5 11.1 C 29.5 12.3 29.5 12.9 29.3 13.5 C 29.0 14.2 28.5 14.8 27.8 15.1 C 27.1 15.3 26.5 15.3 25.3 15.3 L 4.2 15.3 C 3.0 15.3 2.4 15.3 1.7 15.1 C 1.0 14.8 0.5 14.2 0.2 13.5 C 0.0 12.9 0.0 12.3 0.0 11.1 L 0.0 4.2 C 0.0 3.0 0.0 2.4 0.2 1.7 C 0.5 1.0 1.0 0.5 1.7 0.2 C 2.4 0.0 3.0 0.0 4.2 0.0 Z M 4.2 0.0 " fill="none" stroke="#000000" stroke-width="0.85" stroke-dasharray="0.9, 0.9" transform="matrix(-1.00, 0.00, 0.00, 1.00, 31.5, 17.0)"></path></g></g></g></svg>