<?xml version="1.0" encoding="UTF-8" standalone="no"?><svg xmlns="http://www.w3.org/2000/svg" xmlns:xlink="http://www.w3.org/1999/xlink" clip-rule="evenodd" stroke-miterlimit="4.00" viewBox="0 0 181 49"><desc>SVG generated by Keynote</desc><defs></defs><g transform="matrix(1.00, 0.00, -0.00, -1.00, 0.0, 49.0)"><path d="M 15.2 46.6 L 165.5 46.6 C 169.1 46.6 170.9 46.6 172.9 46.0 C 175.0 45.2 176.7 43.5 177.5 41.4 C 178.1 39.4 178.1 37.6 178.1 33.9 L 178.1 15.0 C 178.1 11.3 178.1 9.5 177.5 7.5 C 176.7 5.4 175.0 3.7 172.9 2.9 C 170.9 2.3 169.1 2.3 165.4 2.3 L 15.2 2.3 C 11.5 2.3 9.7 2.3 7.7 2.9 C 5.6 3.7 3.9 5.4 3.1 7.5 C 2.5 9.5 2.5 11.3 2.5 15.0 L 2.5 33.9 C 2.5 37.6 2.5 39.4 3.1 41.4 C 3.9 43.5 5.6 45.2 7.7 46.0 C 9.7 46.6 11.5 46.6 15.2 46.6 Z M 15.2 46.6 " fill="#70DC00" fill-opacity="0.25"></path><path d="M 12.7 0.0 L 163.0 0.0 C 166.6 0.0 168.4 0.0 170.4 0.6 C 172.5 1.4 174.2 3.1 175.0 5.2 C 175.6 7.2 175.6 9.0 175.6 12.7 L 175.6 31.6 C 175.6 35.2 175.6 37.1 175.0 39.1 C 174.2 41.2 172.5 42.9 170.4 43.7 C 168.4 44.3 166.6 44.3 162.9 44.3 L 12.7 44.3 C 9.0 44.3 7.2 44.3 5.2 43.7 C 3.1 42.9 1.4 41.2 0.6 39.1 C 0.0 37.1 0.0 35.2 0.0 31.6 L 0.0 12.7 C 0.0 9.0 0.0 7.2 0.6 5.2 C 1.4 3.1 3.1 1.4 5.2 0.6 C 7.2 0.0 9.0 0.0 12.7 0.0 Z M 12.7 0.0 " fill="none" stroke="#000000" stroke-width="2.00" transform="matrix(1.00, 0.00, 0.00, -1.00, 2.5, 46.6)"></path><g><clipPath id="clip-11219"><path d="M -3.9 -2.3 L 184.6 -2.3 L 184.6 52.1 L -3.9 52.1 Z M -3.9 -2.3 "></path></clipPath><g clip-path="url(#clip-11219)"><text xml:space="preserve" font-family="GillSans" font-size="32.0" fill="#000000" transform="matrix(1.00, 0.00, -0.00, -1.00, 33.0, 14.0)">D</text><text xml:space="preserve" font-family="GillSans" font-size="32.0" fill="#000000" transform="matrix(1.00, 0.00, -0.00, -1.00, 57.0, 14.0)">e</text><text xml:space="preserve" font-family="GillSans" font-size="32.0" fill="#000000" transform="matrix(1.00, 0.00, -0.00, -1.00, 72.3, 14.0)">c</text><text xml:space="preserve" font-family="GillSans" font-size="32.0" fill="#000000" transform="matrix(1.00, 0.00, -0.00, -1.00, 86.3, 14.0)">o</text><text xml:space="preserve" font-family="GillSans" font-size="32.0" fill="#000000" transform="matrix(1.00, 0.00, -0.00, -1.00, 104.0, 14.0)">d</text><text xml:space="preserve" font-family="GillSans" font-size="32.0" fill="#000000" transform="matrix(1.00, 0.00, -0.00, -1.00, 120.3, 14.0)">e</text><text xml:space="preserve" font-family="GillSans" font-size="32.0" fill="#000000" transform="matrix(1.00, 0.00, -0.00, -1.00, 135.6, 14.0)">r</text></g></g></g></svg>