<?xml version="1.0" encoding="UTF-8" standalone="no"?><svg xmlns="http://www.w3.org/2000/svg" xmlns:xlink="http://www.w3.org/1999/xlink" clip-rule="evenodd" stroke-miterlimit="4.00" viewBox="0 0 349 581"><desc>SVG generated by Keynote</desc><defs></defs><g transform="matrix(1.00, 0.00, -0.00, -1.00, 0.0, 581.0)"><path d="M 19.6 578.4 L 329.0 578.4 C 334.0 578.4 336.5 578.4 339.2 577.5 C 342.2 576.4 344.5 574.1 345.6 571.2 C 346.4 568.5 346.4 565.9 346.4 560.8 L 346.4 19.7 C 346.4 14.7 346.4 12.2 345.6 9.5 C 344.5 6.5 342.2 4.2 339.2 3.1 C 336.5 2.3 334.0 2.3 328.9 2.3 L 19.6 2.3 C 14.6 2.3 12.1 2.3 9.4 3.1 C 6.4 4.2 4.1 6.5 3.0 9.5 C 2.2 12.2 2.2 14.7 2.2 19.8 L 2.2 560.9 C 2.2 565.9 2.2 568.5 3.0 571.2 C 4.1 574.1 6.4 576.4 9.4 577.5 C 12.1 578.4 14.6 578.4 19.7 578.4 Z M 19.6 578.4 " fill="#2355D5" fill-opacity="0.15"></path><path d="M 17.5 0.0 L 326.8 0.0 C 331.8 0.0 334.4 0.0 337.1 0.9 C 340.0 1.9 342.3 4.3 343.4 7.2 C 344.3 9.9 344.3 12.4 344.3 17.5 L 344.3 558.6 C 344.3 563.6 344.3 566.2 343.4 568.9 C 342.3 571.8 340.0 574.2 337.1 575.2 C 334.4 576.1 331.8 576.1 326.7 576.1 L 17.5 576.1 C 12.4 576.1 9.9 576.1 7.2 575.2 C 4.3 574.2 1.9 571.8 0.9 568.9 C 0.0 566.2 0.0 563.6 0.0 558.6 L 0.0 17.5 C 0.0 12.4 0.0 9.9 0.9 7.2 C 1.9 4.3 4.3 1.9 7.2 0.9 C 9.9 0.0 12.4 0.0 17.5 0.0 Z M 17.5 0.0 " fill="none" stroke="#000000" stroke-width="2.00" stroke-dasharray="4.0, 4.0" transform="matrix(1.00, 0.00, 0.00, -1.00, 2.2, 578.4)"></path></g></svg>