<?xml version="1.0" encoding="UTF-8" standalone="no"?><svg xmlns="http://www.w3.org/2000/svg" xmlns:xlink="http://www.w3.org/1999/xlink" clip-rule="evenodd" stroke-miterlimit="4.00" viewBox="0 0 34 124"><desc>SVG generated by Keynote</desc><defs></defs><g transform="matrix(1.00, 0.00, -0.00, -1.00, 0.0, 124.0)"><g><clipPath id="clip-11088"><path d="M 0.6 0.3 L 33.1 0.3 L 33.1 123.3 L 0.6 123.3 Z M 0.6 0.3 "></path></clipPath><g clip-path="url(#clip-11088)"><path d="M 6.3 121.8 L 27.4 121.8 C 28.6 121.8 29.2 121.8 29.8 121.6 C 30.6 121.3 31.1 120.8 31.4 120.1 C 31.6 119.4 31.6 118.8 31.6 117.6 L 31.6 6.0 C 31.6 4.8 31.6 4.2 31.4 3.5 C 31.1 2.8 30.6 2.3 29.8 2.0 C 29.2 1.8 28.6 1.8 27.4 1.8 L 6.3 1.8 C 5.1 1.8 4.5 1.8 3.8 2.0 C 3.1 2.3 2.6 2.8 2.3 3.5 C 2.1 4.2 2.1 4.8 2.1 6.0 L 2.1 117.6 C 2.1 118.8 2.1 119.4 2.3 120.1 C 2.6 120.8 3.1 121.3 3.8 121.6 C 4.5 121.8 5.1 121.8 6.3 121.8 Z M 6.3 121.8 " fill="#000000" fill-opacity="0.33"></path><path d="M 4.2 0.0 L 25.3 0.0 C 26.5 0.0 27.1 0.0 27.8 0.2 C 28.5 0.5 29.0 1.0 29.3 1.7 C 29.5 2.4 29.5 3.0 29.5 4.2 L 29.5 115.8 C 29.5 117.0 29.5 117.6 29.3 118.3 C 29.0 119.0 28.5 119.5 27.8 119.8 C 27.1 120.0 26.5 120.0 25.3 120.0 L 4.2 120.0 C 3.0 120.0 2.4 120.0 1.7 119.8 C 1.0 119.5 0.5 119.0 0.2 118.3 C 0.0 117.6 0.0 117.0 0.0 115.8 L 0.0 4.2 C 0.0 3.0 0.0 2.4 0.2 1.7 C 0.5 1.0 1.0 0.5 1.7 0.2 C 2.4 0.0 3.0 0.0 4.2 0.0 Z M 4.2 0.0 " fill="none" stroke="#000000" stroke-width="1.10" transform="matrix(1.00, 0.00, 0.00, -1.00, 2.1, 121.8)"></path></g></g><g><clipPath id="clip-11089"><path d="M 0.7 45.5 L 33.0 45.5 L 33.0 63.5 L 0.7 63.5 Z M 0.7 45.5 "></path></clipPath><g clip-path="url(#clip-11089)"><path d="M 6.3 62.1 L 27.4 62.1 C 28.6 62.1 29.2 62.1 29.8 61.9 C 30.6 61.7 31.1 61.1 31.4 60.4 C 31.6 59.8 31.6 59.1 31.6 57.9 L 31.6 51.1 C 31.6 49.9 31.6 49.3 31.4 48.6 C 31.1 47.9 30.6 47.3 29.8 47.1 C 29.2 46.9 28.6 46.9 27.4 46.9 L 6.3 46.9 C 5.1 46.9 4.5 46.9 3.8 47.1 C 3.1 47.3 2.6 47.9 2.3 48.6 C 2.1 49.3 2.1 49.9 2.1 51.1 L 2.1 57.9 C 2.1 59.1 2.1 59.8 2.3 60.4 C 2.6 61.1 3.1 61.7 3.8 61.9 C 4.5 62.1 5.1 62.1 6.3 62.1 Z M 6.3 62.1 " fill="#000000" fill-opacity="0.14"></path><path d="M 4.2 0.0 L 25.3 0.0 C 26.5 0.0 27.1 0.0 27.8 0.2 C 28.5 0.5 29.0 1.0 29.3 1.7 C 29.5 2.4 29.5 3.0 29.5 4.2 L 29.5 11.1 C 29.5 12.3 29.5 12.9 29.3 13.5 C 29.0 14.2 28.5 14.8 27.8 15.1 C 27.1 15.3 26.5 15.3 25.3 15.3 L 4.2 15.3 C 3.0 15.3 2.4 15.3 1.7 15.1 C 1.0 14.8 0.5 14.2 0.2 13.5 C 0.0 12.9 0.0 12.3 0.0 11.1 L 0.0 4.2 C 0.0 3.0 0.0 2.4 0.2 1.7 C 0.5 1.0 1.0 0.5 1.7 0.2 C 2.4 0.0 3.0 0.0 4.2 0.0 Z M 4.2 0.0 " fill="none" stroke="#000000" stroke-width="0.85" stroke-dasharray="0.9, 0.9" transform="matrix(1.00, 0.00, 0.00, -1.00, 2.1, 62.1)"></path></g></g><g><clipPath id="clip-11090"><path d="M 0.7 45.5 L 33.0 45.5 L 33.0 63.5 L 0.7 63.5 Z M 0.7 45.5 "></path></clipPath><g clip-path="url(#clip-11090)"><path d="M 6.3 62.1 L 27.4 62.1 C 28.6 62.1 29.2 62.1 29.8 61.9 C 30.6 61.7 31.1 61.1 31.4 60.4 C 31.6 59.8 31.6 59.1 31.6 57.9 L 31.6 51.1 C 31.6 49.9 31.6 49.3 31.4 48.6 C 31.1 47.9 30.6 47.3 29.8 47.1 C 29.2 46.9 28.6 46.9 27.4 46.9 L 6.3 46.9 C 5.1 46.9 4.5 46.9 3.8 47.1 C 3.1 47.3 2.6 47.9 2.3 48.6 C 2.1 49.3 2.1 49.9 2.1 51.1 L 2.1 57.9 C 2.1 59.1 2.1 59.8 2.3 60.4 C 2.6 61.1 3.1 61.7 3.8 61.9 C 4.5 62.1 5.1 62.1 6.3 62.1 Z M 6.3 62.1 " fill="#000000" fill-opacity="0.03"></path><path d="M 4.2 0.0 L 25.3 0.0 C 26.5 0.0 27.1 0.0 27.8 0.2 C 28.5 0.5 29.0 1.0 29.3 1.7 C 29.5 2.4 29.5 3.0 29.5 4.2 L 29.5 11.1 C 29.5 12.3 29.5 12.9 29.3 13.5 C 29.0 14.2 28.5 14.8 27.8 15.1 C 27.1 15.3 26.5 15.3 25.3 15.3 L 4.2 15.3 C 3.0 15.3 2.4 15.3 1.7 15.1 C 1.0 14.8 0.5 14.2 0.2 13.5 C 0.0 12.9 0.0 12.3 0.0 11.1 L 0.0 4.2 C 0.0 3.0 0.0 2.4 0.2 1.7 C 0.5 1.0 1.0 0.5 1.7 0.2 C 2.4 0.0 3.0 0.0 4.2 0.0 Z M 4.2 0.0 " fill="none" stroke="#000000" stroke-width="0.85" stroke-dasharray="0.9, 0.9" transform="matrix(1.00, 0.00, 0.00, -1.00, 2.1, 62.1)"></path></g></g><g><clipPath id="clip-11091"><path d="M 0.7 90.2 L 33.0 90.2 L 33.0 108.3 L 0.7 108.3 Z M 0.7 90.2 "></path></clipPath><g clip-path="url(#clip-11091)"><path d="M 6.3 106.9 L 27.4 106.9 C 28.6 106.9 29.2 106.9 29.8 106.7 C 30.6 106.4 31.1 105.9 31.4 105.1 C 31.6 104.5 31.6 103.9 31.6 102.7 L 31.6 95.8 C 31.6 94.6 31.6 94.0 31.4 93.3 C 31.1 92.6 30.6 92.1 29.8 91.8 C 29.2 91.6 28.6 91.6 27.4 91.6 L 6.3 91.6 C 5.1 91.6 4.5 91.6 3.8 91.8 C 3.1 92.1 2.6 92.6 2.3 93.3 C 2.1 94.0 2.1 94.6 2.1 95.8 L 2.1 102.7 C 2.1 103.9 2.1 104.5 2.3 105.1 C 2.6 105.9 3.1 106.4 3.8 106.7 C 4.5 106.9 5.1 106.9 6.3 106.9 Z M 6.3 106.9 " fill="#000000" fill-opacity="0.19"></path><path d="M 4.2 0.0 L 25.3 0.0 C 26.5 0.0 27.1 0.0 27.8 0.2 C 28.5 0.5 29.0 1.0 29.3 1.7 C 29.5 2.4 29.5 3.0 29.5 4.2 L 29.5 11.1 C 29.5 12.3 29.5 12.9 29.3 13.5 C 29.0 14.2 28.5 14.8 27.8 15.1 C 27.1 15.3 26.5 15.3 25.3 15.3 L 4.2 15.3 C 3.0 15.3 2.4 15.3 1.7 15.1 C 1.0 14.8 0.5 14.2 0.2 13.5 C 0.0 12.9 0.0 12.3 0.0 11.1 L 0.0 4.2 C 0.0 3.0 0.0 2.4 0.2 1.7 C 0.5 1.0 1.0 0.5 1.7 0.2 C 2.4 0.0 3.0 0.0 4.2 0.0 Z M 4.2 0.0 " fill="none" stroke="#000000" stroke-width="0.85" stroke-dasharray="0.9, 0.9" transform="matrix(1.00, 0.00, 0.00, -1.00, 2.1, 106.9)"></path></g></g><g><clipPath id="clip-11092"><path d="M 0.7 75.3 L 33.0 75.3 L 33.0 93.3 L 0.7 93.3 Z M 0.7 75.3 "></path></clipPath><g clip-path="url(#clip-11092)"><path d="M 6.3 92.0 L 27.4 92.0 C 28.6 92.0 29.2 92.0 29.8 91.8 C 30.6 91.5 31.1 90.9 31.4 90.2 C 31.6 89.6 31.6 89.0 31.6 87.8 L 31.6 80.9 C 31.6 79.7 31.6 79.1 31.4 78.4 C 31.1 77.7 30.6 77.2 29.8 76.9 C 29.2 76.7 28.6 76.7 27.4 76.7 L 6.3 76.7 C 5.1 76.7 4.5 76.7 3.8 76.9 C 3.1 77.2 2.6 77.7 2.3 78.4 C 2.1 79.1 2.1 79.7 2.1 80.9 L 2.1 87.8 C 2.1 89.0 2.1 89.6 2.3 90.2 C 2.6 90.9 3.1 91.5 3.8 91.8 C 4.5 92.0 5.1 92.0 6.3 92.0 Z M 6.3 92.0 " fill="#000000" fill-opacity="0.17"></path><path d="M 4.2 0.0 L 25.3 0.0 C 26.5 0.0 27.1 0.0 27.8 0.2 C 28.5 0.5 29.0 1.0 29.3 1.7 C 29.5 2.4 29.5 3.0 29.5 4.2 L 29.5 11.1 C 29.5 12.3 29.5 12.9 29.3 13.5 C 29.0 14.2 28.5 14.8 27.8 15.1 C 27.1 15.3 26.5 15.3 25.3 15.3 L 4.2 15.3 C 3.0 15.3 2.4 15.3 1.7 15.1 C 1.0 14.8 0.5 14.2 0.2 13.5 C 0.0 12.9 0.0 12.3 0.0 11.1 L 0.0 4.2 C 0.0 3.0 0.0 2.4 0.2 1.7 C 0.5 1.0 1.0 0.5 1.7 0.2 C 2.4 0.0 3.0 0.0 4.2 0.0 Z M 4.2 0.0 " fill="none" stroke="#000000" stroke-width="0.85" stroke-dasharray="0.9, 0.9" transform="matrix(1.00, 0.00, 0.00, -1.00, 2.1, 92.0)"></path></g></g><g><clipPath id="clip-11093"><path d="M 0.7 105.2 L 33.0 105.2 L 33.0 123.2 L 0.7 123.2 Z M 0.7 105.2 "></path></clipPath><g clip-path="url(#clip-11093)"><path d="M 6.3 121.8 L 27.4 121.8 C 28.6 121.8 29.2 121.8 29.8 121.6 C 30.6 121.3 31.1 120.8 31.4 120.1 C 31.6 119.4 31.6 118.8 31.6 117.6 L 31.6 110.7 C 31.6 109.5 31.6 108.9 31.4 108.3 C 31.1 107.5 30.6 107.0 29.8 106.7 C 29.2 106.5 28.6 106.5 27.4 106.5 L 6.3 106.5 C 5.1 106.5 4.5 106.5 3.8 106.7 C 3.1 107.0 2.6 107.5 2.3 108.3 C 2.1 108.9 2.1 109.5 2.1 110.7 L 2.1 117.6 C 2.1 118.8 2.1 119.4 2.3 120.1 C 2.6 120.8 3.1 121.3 3.8 121.6 C 4.5 121.8 5.1 121.8 6.3 121.8 Z M 6.3 121.8 " fill="#000000" fill-opacity="0.48"></path><path d="M 4.2 0.0 L 25.3 0.0 C 26.5 0.0 27.1 0.0 27.8 0.2 C 28.5 0.5 29.0 1.0 29.3 1.7 C 29.5 2.4 29.5 3.0 29.5 4.2 L 29.5 11.1 C 29.5 12.3 29.5 12.9 29.3 13.5 C 29.0 14.2 28.5 14.8 27.8 15.1 C 27.1 15.3 26.5 15.3 25.3 15.3 L 4.2 15.3 C 3.0 15.3 2.4 15.3 1.7 15.1 C 1.0 14.8 0.5 14.2 0.2 13.5 C 0.0 12.9 0.0 12.3 0.0 11.1 L 0.0 4.2 C 0.0 3.0 0.0 2.4 0.2 1.7 C 0.5 1.0 1.0 0.5 1.7 0.2 C 2.4 0.0 3.0 0.0 4.2 0.0 Z M 4.2 0.0 " fill="none" stroke="#000000" stroke-width="0.85" stroke-dasharray="0.9, 0.9" transform="matrix(1.00, 0.00, 0.00, -1.00, 2.1, 121.8)"></path></g></g><g><clipPath id="clip-11094"><path d="M 0.7 15.7 L 33.0 15.7 L 33.0 33.7 L 0.7 33.7 Z M 0.7 15.7 "></path></clipPath><g clip-path="url(#clip-11094)"><path d="M 6.3 32.3 L 27.4 32.3 C 28.6 32.3 29.2 32.3 29.8 32.1 C 30.6 31.9 31.1 31.3 31.4 30.6 C 31.6 29.9 31.6 29.3 31.6 28.1 L 31.6 21.2 C 31.6 20.0 31.6 19.4 31.4 18.8 C 31.1 18.1 30.6 17.5 29.8 17.3 C 29.2 17.0 28.6 17.0 27.4 17.0 L 6.3 17.0 C 5.1 17.0 4.5 17.0 3.8 17.3 C 3.1 17.5 2.6 18.1 2.3 18.8 C 2.1 19.4 2.1 20.0 2.1 21.3 L 2.1 28.1 C 2.1 29.3 2.1 29.9 2.3 30.6 C 2.6 31.3 3.1 31.9 3.8 32.1 C 4.5 32.3 5.1 32.3 6.3 32.3 Z M 6.3 32.3 " fill="#000000" fill-opacity="0.03"></path><path d="M 4.2 0.0 L 25.3 0.0 C 26.5 0.0 27.1 0.0 27.8 0.2 C 28.5 0.5 29.0 1.0 29.3 1.7 C 29.5 2.4 29.5 3.0 29.5 4.2 L 29.5 11.1 C 29.5 12.3 29.5 12.9 29.3 13.5 C 29.0 14.2 28.5 14.8 27.8 15.1 C 27.1 15.3 26.5 15.3 25.3 15.3 L 4.2 15.3 C 3.0 15.3 2.4 15.3 1.7 15.1 C 1.0 14.8 0.5 14.2 0.2 13.5 C 0.0 12.9 0.0 12.3 0.0 11.1 L 0.0 4.2 C 0.0 3.0 0.0 2.4 0.2 1.7 C 0.5 1.0 1.0 0.5 1.7 0.2 C 2.4 0.0 3.0 0.0 4.2 0.0 Z M 4.2 0.0 " fill="none" stroke="#000000" stroke-width="0.85" stroke-dasharray="0.9, 0.9" transform="matrix(1.00, 0.00, 0.00, -1.00, 2.1, 32.3)"></path></g></g><g><clipPath id="clip-11095"><path d="M 0.7 0.8 L 33.0 0.8 L 33.0 18.8 L 0.7 18.8 Z M 0.7 0.8 "></path></clipPath><g clip-path="url(#clip-11095)"><path d="M 6.3 17.4 L 27.4 17.4 C 28.6 17.4 29.2 17.4 29.8 17.2 C 30.6 16.9 31.1 16.4 31.4 15.7 C 31.6 15.0 31.6 14.4 31.6 13.2 L 31.6 6.3 C 31.6 5.1 31.6 4.5 31.4 3.9 C 31.1 3.2 30.6 2.6 29.8 2.3 C 29.2 2.1 28.6 2.1 27.4 2.1 L 6.3 2.1 C 5.1 2.1 4.5 2.1 3.8 2.3 C 3.1 2.6 2.6 3.2 2.3 3.9 C 2.1 4.5 2.1 5.1 2.1 6.4 L 2.1 13.2 C 2.1 14.4 2.1 15.0 2.3 15.7 C 2.6 16.4 3.1 16.9 3.8 17.2 C 4.5 17.4 5.1 17.4 6.3 17.4 Z M 6.3 17.4 " fill="#000000" fill-opacity="0.14"></path><path d="M 4.2 0.0 L 25.3 0.0 C 26.5 0.0 27.1 0.0 27.8 0.2 C 28.5 0.5 29.0 1.0 29.3 1.7 C 29.5 2.4 29.5 3.0 29.5 4.2 L 29.5 11.1 C 29.5 12.3 29.5 12.9 29.3 13.5 C 29.0 14.2 28.5 14.8 27.8 15.1 C 27.1 15.3 26.5 15.3 25.3 15.3 L 4.2 15.3 C 3.0 15.3 2.4 15.3 1.7 15.1 C 1.0 14.8 0.5 14.2 0.2 13.5 C 0.0 12.9 0.0 12.3 0.0 11.1 L 0.0 4.2 C 0.0 3.0 0.0 2.4 0.2 1.7 C 0.5 1.0 1.0 0.5 1.7 0.2 C 2.4 0.0 3.0 0.0 4.2 0.0 Z M 4.2 0.0 " fill="none" stroke="#000000" stroke-width="0.85" stroke-dasharray="0.9, 0.9" transform="matrix(1.00, 0.00, 0.00, -1.00, 2.1, 17.4)"></path></g></g><g><clipPath id="clip-11096"><path d="M 0.7 60.4 L 33.0 60.4 L 33.0 78.4 L 0.7 78.4 Z M 0.7 60.4 "></path></clipPath><g clip-path="url(#clip-11096)"><path d="M 6.3 77.1 L 27.4 77.1 C 28.6 77.1 29.2 77.1 29.8 76.9 C 30.6 76.6 31.1 76.0 31.4 75.3 C 31.6 74.7 31.6 74.1 31.6 72.8 L 31.6 66.0 C 31.6 64.8 31.6 64.2 31.4 63.5 C 31.1 62.8 30.6 62.3 29.8 62.0 C 29.2 61.8 28.6 61.8 27.4 61.8 L 6.3 61.8 C 5.1 61.8 4.5 61.8 3.8 62.0 C 3.1 62.3 2.6 62.8 2.3 63.5 C 2.1 64.2 2.1 64.8 2.1 66.0 L 2.1 72.9 C 2.1 74.1 2.1 74.7 2.3 75.3 C 2.6 76.0 3.1 76.6 3.8 76.9 C 4.5 77.1 5.1 77.1 6.3 77.1 Z M 6.3 77.1 " fill="#000000" fill-opacity="0.35"></path><path d="M 4.2 0.0 L 25.3 0.0 C 26.5 0.0 27.1 0.0 27.8 0.2 C 28.5 0.5 29.0 1.0 29.3 1.7 C 29.5 2.4 29.5 3.0 29.5 4.2 L 29.5 11.1 C 29.5 12.3 29.5 12.9 29.3 13.5 C 29.0 14.2 28.5 14.8 27.8 15.1 C 27.1 15.3 26.5 15.3 25.3 15.3 L 4.2 15.3 C 3.0 15.3 2.4 15.3 1.7 15.1 C 1.0 14.8 0.5 14.2 0.2 13.5 C 0.0 12.9 0.0 12.3 0.0 11.1 L 0.0 4.2 C 0.0 3.0 0.0 2.4 0.2 1.7 C 0.5 1.0 1.0 0.5 1.7 0.2 C 2.4 0.0 3.0 0.0 4.2 0.0 Z M 4.2 0.0 " fill="none" stroke="#000000" stroke-width="0.85" stroke-dasharray="0.9, 0.9" transform="matrix(1.00, 0.00, 0.00, -1.00, 2.1, 77.1)"></path></g></g></g></svg>