<?xml version="1.0" encoding="UTF-8" standalone="no"?><svg xmlns="http://www.w3.org/2000/svg" xmlns:xlink="http://www.w3.org/1999/xlink" clip-rule="evenodd" stroke-miterlimit="4.00" viewBox="0 0 124 33"><desc>SVG generated by Keynote</desc><defs></defs><g transform="matrix(1.00, 0.00, -0.00, -1.00, 0.0, 33.0)"><g><clipPath id="clip-11220"><path d="M 45.2 32.6 L 45.2 0.3 L 63.2 0.3 L 63.2 32.6 Z M 45.2 32.6 "></path></clipPath><g clip-path="url(#clip-11220)"><path d="M 46.6 27.0 L 46.6 5.9 C 46.6 4.7 46.6 4.1 46.8 3.4 C 47.1 2.7 47.6 2.2 48.3 1.9 C 49.0 1.7 49.6 1.7 50.8 1.7 L 57.7 1.7 C 58.9 1.7 59.5 1.7 60.1 1.9 C 60.8 2.2 61.4 2.7 61.7 3.4 C 61.9 4.1 61.9 4.7 61.9 5.9 L 61.9 27.0 C 61.9 28.2 61.9 28.8 61.7 29.5 C 61.4 30.2 60.8 30.7 60.1 31.0 C 59.5 31.2 58.9 31.2 57.6 31.2 L 50.8 31.2 C 49.6 31.2 49.0 31.2 48.3 31.0 C 47.6 30.7 47.1 30.2 46.8 29.5 C 46.6 28.8 46.6 28.2 46.6 27.0 Z M 46.6 27.0 " fill="#000000" fill-opacity="0.14"></path><path d="M 4.2 0.0 L 25.3 0.0 C 26.5 0.0 27.1 0.0 27.8 0.2 C 28.5 0.5 29.0 1.0 29.3 1.7 C 29.5 2.4 29.5 3.0 29.5 4.2 L 29.5 11.1 C 29.5 12.3 29.5 12.9 29.3 13.5 C 29.0 14.2 28.5 14.8 27.8 15.1 C 27.1 15.3 26.5 15.3 25.3 15.3 L 4.2 15.3 C 3.0 15.3 2.4 15.3 1.7 15.1 C 1.0 14.8 0.5 14.2 0.2 13.5 C 0.0 12.9 0.0 12.3 0.0 11.1 L 0.0 4.2 C 0.0 3.0 0.0 2.4 0.2 1.7 C 0.5 1.0 1.0 0.5 1.7 0.2 C 2.4 0.0 3.0 0.0 4.2 0.0 Z M 4.2 0.0 " fill="none" stroke="#000000" stroke-width="0.85" stroke-dasharray="0.9, 0.9" transform="matrix(0.00, -1.00, 1.00, 0.00, 46.6, 31.2)"></path></g></g><g><clipPath id="clip-11221"><path d="M 75.0 32.6 L 75.0 0.3 L 93.1 0.3 L 93.1 32.6 Z M 75.0 32.6 "></path></clipPath><g clip-path="url(#clip-11221)"><path d="M 76.4 27.0 L 76.4 5.9 C 76.4 4.7 76.4 4.1 76.6 3.4 C 76.9 2.7 77.4 2.2 78.1 1.9 C 78.8 1.7 79.4 1.7 80.6 1.7 L 87.5 1.7 C 88.7 1.7 89.3 1.7 89.9 1.9 C 90.7 2.2 91.2 2.7 91.5 3.4 C 91.7 4.1 91.7 4.7 91.7 5.9 L 91.7 27.0 C 91.7 28.2 91.7 28.8 91.5 29.5 C 91.2 30.2 90.7 30.7 89.9 31.0 C 89.3 31.2 88.7 31.2 87.5 31.2 L 80.6 31.2 C 79.4 31.2 78.8 31.2 78.1 31.0 C 77.4 30.7 76.9 30.2 76.6 29.5 C 76.4 28.8 76.4 28.2 76.4 27.0 Z M 76.4 27.0 " fill="#000000" fill-opacity="0.03"></path><path d="M 4.2 0.0 L 25.3 0.0 C 26.5 0.0 27.1 0.0 27.8 0.2 C 28.5 0.5 29.0 1.0 29.3 1.7 C 29.5 2.4 29.5 3.0 29.5 4.2 L 29.5 11.1 C 29.5 12.3 29.5 12.9 29.3 13.5 C 29.0 14.2 28.5 14.8 27.8 15.1 C 27.1 15.3 26.5 15.3 25.3 15.3 L 4.2 15.3 C 3.0 15.3 2.4 15.3 1.7 15.1 C 1.0 14.8 0.5 14.2 0.2 13.5 C 0.0 12.9 0.0 12.3 0.0 11.1 L 0.0 4.2 C 0.0 3.0 0.0 2.4 0.2 1.7 C 0.5 1.0 1.0 0.5 1.7 0.2 C 2.4 0.0 3.0 0.0 4.2 0.0 Z M 4.2 0.0 " fill="none" stroke="#000000" stroke-width="0.85" stroke-dasharray="0.9, 0.9" transform="matrix(0.00, -1.00, 1.00, 0.00, 76.4, 31.2)"></path></g></g><g><clipPath id="clip-11222"><path d="M 104.9 32.6 L 104.9 0.3 L 122.9 0.3 L 122.9 32.6 Z M 104.9 32.6 "></path></clipPath><g clip-path="url(#clip-11222)"><path d="M 106.2 27.0 L 106.2 5.9 C 106.2 4.7 106.2 4.1 106.4 3.4 C 106.7 2.7 107.3 2.2 108.0 1.9 C 108.6 1.7 109.2 1.7 110.5 1.7 L 117.3 1.7 C 118.5 1.7 119.1 1.7 119.8 1.9 C 120.5 2.2 121.0 2.7 121.3 3.4 C 121.5 4.1 121.5 4.7 121.5 5.9 L 121.5 27.0 C 121.5 28.2 121.5 28.8 121.3 29.5 C 121.0 30.2 120.5 30.7 119.8 31.0 C 119.1 31.2 118.5 31.2 117.3 31.2 L 110.4 31.2 C 109.2 31.2 108.6 31.2 108.0 31.0 C 107.3 30.7 106.7 30.2 106.4 29.5 C 106.2 28.8 106.2 28.2 106.2 27.0 Z M 106.2 27.0 " fill="#000000" fill-opacity="0.19"></path><path d="M 4.2 0.0 L 25.3 0.0 C 26.5 0.0 27.1 0.0 27.8 0.2 C 28.5 0.5 29.0 1.0 29.3 1.7 C 29.5 2.4 29.5 3.0 29.5 4.2 L 29.5 11.1 C 29.5 12.3 29.5 12.9 29.3 13.5 C 29.0 14.2 28.5 14.8 27.8 15.1 C 27.1 15.3 26.5 15.3 25.3 15.3 L 4.2 15.3 C 3.0 15.3 2.4 15.3 1.7 15.1 C 1.0 14.8 0.5 14.2 0.2 13.5 C 0.0 12.9 0.0 12.3 0.0 11.1 L 0.0 4.2 C 0.0 3.0 0.0 2.4 0.2 1.7 C 0.5 1.0 1.0 0.5 1.7 0.2 C 2.4 0.0 3.0 0.0 4.2 0.0 Z M 4.2 0.0 " fill="none" stroke="#000000" stroke-width="0.85" stroke-dasharray="0.9, 0.9" transform="matrix(0.00, -1.00, 1.00, 0.00, 106.2, 31.2)"></path></g></g><g><clipPath id="clip-11223"><path d="M 90.0 32.6 L 90.0 0.3 L 108.0 0.3 L 108.0 32.6 Z M 90.0 32.6 "></path></clipPath><g clip-path="url(#clip-11223)"><path d="M 91.3 27.0 L 91.3 5.9 C 91.3 4.7 91.3 4.1 91.5 3.4 C 91.8 2.7 92.3 2.2 93.1 1.9 C 93.7 1.7 94.3 1.7 95.5 1.7 L 102.4 1.7 C 103.6 1.7 104.2 1.7 104.9 1.9 C 105.6 2.2 106.1 2.7 106.4 3.4 C 106.6 4.1 106.6 4.7 106.6 5.9 L 106.6 27.0 C 106.6 28.2 106.6 28.8 106.4 29.5 C 106.1 30.2 105.6 30.7 104.9 31.0 C 104.2 31.2 103.6 31.2 102.4 31.2 L 95.5 31.2 C 94.3 31.2 93.7 31.2 93.1 31.0 C 92.3 30.7 91.8 30.2 91.5 29.5 C 91.3 28.8 91.3 28.2 91.3 27.0 Z M 91.3 27.0 " fill="#000000" fill-opacity="0.17"></path><path d="M 4.2 0.0 L 25.3 0.0 C 26.5 0.0 27.1 0.0 27.8 0.2 C 28.5 0.5 29.0 1.0 29.3 1.7 C 29.5 2.4 29.5 3.0 29.5 4.2 L 29.5 11.1 C 29.5 12.3 29.5 12.9 29.3 13.5 C 29.0 14.2 28.5 14.8 27.8 15.1 C 27.1 15.3 26.5 15.3 25.3 15.3 L 4.2 15.3 C 3.0 15.3 2.4 15.3 1.7 15.1 C 1.0 14.8 0.5 14.2 0.2 13.5 C 0.0 12.9 0.0 12.3 0.0 11.1 L 0.0 4.2 C 0.0 3.0 0.0 2.4 0.2 1.7 C 0.5 1.0 1.0 0.5 1.7 0.2 C 2.4 0.0 3.0 0.0 4.2 0.0 Z M 4.2 0.0 " fill="none" stroke="#000000" stroke-width="0.85" stroke-dasharray="0.9, 0.9" transform="matrix(0.00, -1.00, 1.00, 0.00, 91.3, 31.2)"></path></g></g><g><clipPath id="clip-11224"><path d="M 30.3 32.6 L 30.3 0.3 L 48.3 0.3 L 48.3 32.6 Z M 30.3 32.6 "></path></clipPath><g clip-path="url(#clip-11224)"><path d="M 31.7 27.0 L 31.7 5.9 C 31.7 4.7 31.7 4.1 31.9 3.4 C 32.1 2.7 32.7 2.2 33.4 1.9 C 34.1 1.7 34.7 1.7 35.9 1.7 L 42.7 1.7 C 43.9 1.7 44.6 1.7 45.2 1.9 C 45.9 2.2 46.5 2.7 46.7 3.4 C 46.9 4.1 46.9 4.7 46.9 5.9 L 46.9 27.0 C 46.9 28.2 46.9 28.8 46.7 29.5 C 46.5 30.2 45.9 30.7 45.2 31.0 C 44.6 31.2 43.9 31.2 42.7 31.2 L 35.9 31.2 C 34.7 31.2 34.1 31.2 33.4 31.0 C 32.7 30.7 32.1 30.2 31.9 29.5 C 31.7 28.8 31.7 28.2 31.7 27.0 Z M 31.7 27.0 " fill="#000000" fill-opacity="0.48"></path><path d="M 4.2 0.0 L 25.3 0.0 C 26.5 0.0 27.1 0.0 27.8 0.2 C 28.5 0.5 29.0 1.0 29.3 1.7 C 29.5 2.4 29.5 3.0 29.5 4.2 L 29.5 11.1 C 29.5 12.3 29.5 12.9 29.3 13.5 C 29.0 14.2 28.5 14.8 27.8 15.1 C 27.1 15.3 26.5 15.3 25.3 15.3 L 4.2 15.3 C 3.0 15.3 2.4 15.3 1.7 15.1 C 1.0 14.8 0.5 14.2 0.2 13.5 C 0.0 12.9 0.0 12.3 0.0 11.1 L 0.0 4.2 C 0.0 3.0 0.0 2.4 0.2 1.7 C 0.5 1.0 1.0 0.5 1.7 0.2 C 2.4 0.0 3.0 0.0 4.2 0.0 Z M 4.2 0.0 " fill="none" stroke="#000000" stroke-width="0.85" stroke-dasharray="0.9, 0.9" transform="matrix(0.00, -1.00, 1.00, 0.00, 31.7, 31.2)"></path></g></g><g><clipPath id="clip-11225"><path d="M 0.5 32.6 L 0.5 0.3 L 18.5 0.3 L 18.5 32.6 Z M 0.5 32.6 "></path></clipPath><g clip-path="url(#clip-11225)"><path d="M 1.8 27.0 L 1.8 5.9 C 1.8 4.7 1.8 4.1 2.1 3.4 C 2.3 2.7 2.9 2.2 3.6 1.9 C 4.2 1.7 4.8 1.7 6.1 1.7 L 12.9 1.7 C 14.1 1.7 14.7 1.7 15.4 1.9 C 16.1 2.2 16.7 2.7 16.9 3.4 C 17.1 4.1 17.1 4.7 17.1 5.9 L 17.1 27.0 C 17.1 28.2 17.1 28.8 16.9 29.5 C 16.7 30.2 16.1 30.7 15.4 31.0 C 14.7 31.2 14.1 31.2 12.9 31.2 L 6.0 31.2 C 4.8 31.2 4.2 31.2 3.6 31.0 C 2.9 30.7 2.3 30.2 2.1 29.5 C 1.8 28.8 1.8 28.2 1.8 27.0 Z M 1.8 27.0 " fill="#000000" fill-opacity="0.03"></path><path d="M 4.2 0.0 L 25.3 0.0 C 26.5 0.0 27.1 0.0 27.8 0.2 C 28.5 0.5 29.0 1.0 29.3 1.7 C 29.5 2.4 29.5 3.0 29.5 4.2 L 29.5 11.1 C 29.5 12.3 29.5 12.9 29.3 13.5 C 29.0 14.2 28.5 14.8 27.8 15.1 C 27.1 15.3 26.5 15.3 25.3 15.3 L 4.2 15.3 C 3.0 15.3 2.4 15.3 1.7 15.1 C 1.0 14.8 0.5 14.2 0.2 13.5 C 0.0 12.9 0.0 12.3 0.0 11.1 L 0.0 4.2 C 0.0 3.0 0.0 2.4 0.2 1.7 C 0.5 1.0 1.0 0.5 1.7 0.2 C 2.4 0.0 3.0 0.0 4.2 0.0 Z M 4.2 0.0 " fill="none" stroke="#000000" stroke-width="0.85" stroke-dasharray="0.9, 0.9" transform="matrix(0.00, -1.00, 1.00, 0.00, 1.8, 31.2)"></path></g></g><g><clipPath id="clip-11226"><path d="M 15.4 32.6 L 15.4 0.3 L 33.4 0.3 L 33.4 32.6 Z M 15.4 32.6 "></path></clipPath><g clip-path="url(#clip-11226)"><path d="M 16.8 27.0 L 16.8 5.9 C 16.8 4.7 16.8 4.1 17.0 3.4 C 17.2 2.7 17.8 2.2 18.5 1.9 C 19.1 1.7 19.8 1.7 21.0 1.7 L 27.8 1.7 C 29.0 1.7 29.6 1.7 30.3 1.9 C 31.0 2.2 31.6 2.7 31.8 3.4 C 32.0 4.1 32.0 4.7 32.0 5.9 L 32.0 27.0 C 32.0 28.2 32.0 28.8 31.8 29.5 C 31.6 30.2 31.0 30.7 30.3 31.0 C 29.6 31.2 29.0 31.2 27.8 31.2 L 21.0 31.2 C 19.8 31.2 19.1 31.2 18.5 31.0 C 17.8 30.7 17.2 30.2 17.0 29.5 C 16.8 28.8 16.8 28.2 16.8 27.0 Z M 16.8 27.0 " fill="#000000" fill-opacity="0.14"></path><path d="M 4.2 0.0 L 25.3 0.0 C 26.5 0.0 27.1 0.0 27.8 0.2 C 28.5 0.5 29.0 1.0 29.3 1.7 C 29.5 2.4 29.5 3.0 29.5 4.2 L 29.5 11.1 C 29.5 12.3 29.5 12.9 29.3 13.5 C 29.0 14.2 28.5 14.8 27.8 15.1 C 27.1 15.3 26.5 15.3 25.3 15.3 L 4.2 15.3 C 3.0 15.3 2.4 15.3 1.7 15.1 C 1.0 14.8 0.5 14.2 0.2 13.5 C 0.0 12.9 0.0 12.3 0.0 11.1 L 0.0 4.2 C 0.0 3.0 0.0 2.4 0.2 1.7 C 0.5 1.0 1.0 0.5 1.7 0.2 C 2.4 0.0 3.0 0.0 4.2 0.0 Z M 4.2 0.0 " fill="none" stroke="#000000" stroke-width="0.85" stroke-dasharray="0.9, 0.9" transform="matrix(0.00, -1.00, 1.00, 0.00, 16.8, 31.2)"></path></g></g><g><clipPath id="clip-11227"><path d="M 60.1 32.6 L 60.1 0.3 L 78.1 0.3 L 78.1 32.6 Z M 60.1 32.6 "></path></clipPath><g clip-path="url(#clip-11227)"><path d="M 61.5 27.0 L 61.5 5.9 C 61.5 4.7 61.5 4.1 61.7 3.4 C 62.0 2.7 62.5 2.2 63.2 1.9 C 63.9 1.7 64.5 1.7 65.7 1.7 L 72.6 1.7 C 73.8 1.7 74.4 1.7 75.0 1.9 C 75.7 2.2 76.3 2.7 76.6 3.4 C 76.8 4.1 76.8 4.7 76.8 5.9 L 76.8 27.0 C 76.8 28.2 76.8 28.8 76.6 29.5 C 76.3 30.2 75.7 30.7 75.0 31.0 C 74.4 31.2 73.8 31.2 72.6 31.2 L 65.7 31.2 C 64.5 31.2 63.9 31.2 63.2 31.0 C 62.5 30.7 62.0 30.2 61.7 29.5 C 61.5 28.8 61.5 28.2 61.5 27.0 Z M 61.5 27.0 " fill="#000000" fill-opacity="0.35"></path><path d="M 4.2 0.0 L 25.3 0.0 C 26.5 0.0 27.1 0.0 27.8 0.2 C 28.5 0.5 29.0 1.0 29.3 1.7 C 29.5 2.4 29.5 3.0 29.5 4.2 L 29.5 11.1 C 29.5 12.3 29.5 12.9 29.3 13.5 C 29.0 14.2 28.5 14.8 27.8 15.1 C 27.1 15.3 26.5 15.3 25.3 15.3 L 4.2 15.3 C 3.0 15.3 2.4 15.3 1.7 15.1 C 1.0 14.8 0.5 14.2 0.2 13.5 C 0.0 12.9 0.0 12.3 0.0 11.1 L 0.0 4.2 C 0.0 3.0 0.0 2.4 0.2 1.7 C 0.5 1.0 1.0 0.5 1.7 0.2 C 2.4 0.0 3.0 0.0 4.2 0.0 Z M 4.2 0.0 " fill="none" stroke="#000000" stroke-width="0.85" stroke-dasharray="0.9, 0.9" transform="matrix(0.00, -1.00, 1.00, 0.00, 61.5, 31.2)"></path></g></g><g><clipPath id="clip-11228"><path d="M 0.0 32.7 L 0.0 0.2 L 123.0 0.2 L 123.0 32.7 Z M 0.0 32.7 "></path></clipPath><g clip-path="url(#clip-11228)"><path d="M 1.5 27.0 L 1.5 5.9 C 1.5 4.7 1.5 4.1 1.7 3.4 C 2.0 2.7 2.5 2.2 3.2 1.9 C 3.9 1.7 4.5 1.7 5.7 1.7 L 117.3 1.7 C 118.5 1.7 119.1 1.7 119.8 1.9 C 120.5 2.2 121.0 2.7 121.3 3.4 C 121.5 4.1 121.5 4.7 121.5 5.9 L 121.5 27.0 C 121.5 28.2 121.5 28.8 121.3 29.5 C 121.0 30.2 120.5 30.7 119.8 31.0 C 119.1 31.2 118.5 31.2 117.3 31.2 L 5.7 31.2 C 4.5 31.2 3.9 31.2 3.2 31.0 C 2.5 30.7 2.0 30.2 1.7 29.5 C 1.5 28.8 1.5 28.2 1.5 27.0 Z M 1.5 27.0 " fill="#000000" fill-opacity="0.10"></path><path d="M 4.2 0.0 L 25.3 0.0 C 26.5 0.0 27.1 0.0 27.8 0.2 C 28.5 0.5 29.0 1.0 29.3 1.7 C 29.5 2.4 29.5 3.0 29.5 4.2 L 29.5 115.8 C 29.5 117.0 29.5 117.6 29.3 118.3 C 29.0 119.0 28.5 119.5 27.8 119.8 C 27.1 120.0 26.5 120.0 25.3 120.0 L 4.2 120.0 C 3.0 120.0 2.4 120.0 1.7 119.8 C 1.0 119.5 0.5 119.0 0.2 118.3 C 0.0 117.6 0.0 117.0 0.0 115.8 L 0.0 4.2 C 0.0 3.0 0.0 2.4 0.2 1.7 C 0.5 1.0 1.0 0.5 1.7 0.2 C 2.4 0.0 3.0 0.0 4.2 0.0 Z M 4.2 0.0 " fill="none" stroke="#000000" stroke-width="1.10" transform="matrix(0.00, -1.00, 1.00, 0.00, 1.5, 31.2)"></path></g></g></g></svg>