<?xml version="1.0" encoding="UTF-8" standalone="no"?><svg xmlns="http://www.w3.org/2000/svg" xmlns:xlink="http://www.w3.org/1999/xlink" clip-rule="evenodd" stroke-miterlimit="4.00" viewBox="0 0 52 49"><desc>SVG generated by Keynote</desc><defs></defs><g transform="matrix(1.00, 0.00, -0.00, -1.00, 0.0, 49.0)"><path d="M 15.5 46.6 L 37.1 46.6 C 40.8 46.6 42.6 46.6 44.6 46.0 C 46.7 45.2 48.4 43.5 49.2 41.4 C 49.8 39.4 49.8 37.6 49.8 33.9 L 49.8 15.0 C 49.8 11.3 49.8 9.5 49.2 7.5 C 48.4 5.4 46.7 3.7 44.6 2.9 C 42.6 2.3 40.8 2.3 37.1 2.3 L 15.5 2.3 C 11.9 2.3 10.0 2.3 8.0 2.9 C 5.9 3.7 4.2 5.4 3.4 7.5 C 2.8 9.5 2.8 11.3 2.8 15.0 L 2.8 33.9 C 2.8 37.6 2.8 39.4 3.4 41.4 C 4.2 43.5 5.9 45.2 8.0 46.0 C 10.0 46.6 11.9 46.6 15.5 46.6 Z M 15.5 46.6 " fill="#042BE1" fill-opacity="0.25"></path><path d="M 12.7 0.0 L 34.3 0.0 C 38.0 0.0 39.8 0.0 41.8 0.6 C 43.9 1.4 45.6 3.1 46.4 5.2 C 47.0 7.2 47.0 9.0 47.0 12.7 L 47.0 31.6 C 47.0 35.2 47.0 37.1 46.4 39.1 C 45.6 41.2 43.9 42.9 41.8 43.7 C 39.8 44.3 38.0 44.3 34.3 44.3 L 12.7 44.3 C 9.0 44.3 7.2 44.3 5.2 43.7 C 3.1 42.9 1.4 41.2 0.6 39.1 C 0.0 37.1 0.0 35.2 0.0 31.6 L 0.0 12.7 C 0.0 9.0 0.0 7.2 0.6 5.2 C 1.4 3.1 3.1 1.4 5.2 0.6 C 7.2 0.0 9.0 0.0 12.7 0.0 Z M 12.7 0.0 " fill="none" stroke="#000000" stroke-width="2.00" transform="matrix(1.00, 0.00, 0.00, -1.00, 2.8, 46.6)"></path><g><clipPath id="clip-11200"><path d="M -3.6 -2.3 L 56.3 -2.3 L 56.3 52.1 L -3.6 52.1 Z M -3.6 -2.3 "></path></clipPath><g clip-path="url(#clip-11200)"><text xml:space="preserve" font-family="GillSans" font-size="32.0" fill="#000000" transform="matrix(1.00, 0.00, -0.00, -1.00, 17.0, 14.0)">+</text></g></g></g></svg>