<?xml version="1.0" encoding="UTF-8" standalone="no"?><svg xmlns="http://www.w3.org/2000/svg" xmlns:xlink="http://www.w3.org/1999/xlink" clip-rule="evenodd" stroke-miterlimit="4.00" viewBox="0 0 33 124"><desc>SVG generated by Keynote</desc><defs></defs><g transform="matrix(1.00, 0.00, -0.00, -1.00, 0.0, 124.0)"><g><clipPath id="clip-11097"><path d="M 0.4 0.3 L 32.9 0.3 L 32.9 123.3 L 0.4 123.3 Z M 0.4 0.3 "></path></clipPath><g clip-path="url(#clip-11097)"><path d="M 6.1 121.8 L 27.2 121.8 C 28.4 121.8 29.0 121.8 29.7 121.6 C 30.4 121.3 30.9 120.8 31.2 120.1 C 31.4 119.4 31.4 118.8 31.4 117.6 L 31.4 6.0 C 31.4 4.8 31.4 4.2 31.2 3.5 C 30.9 2.8 30.4 2.3 29.7 2.0 C 29.0 1.8 28.4 1.8 27.2 1.8 L 6.1 1.8 C 4.9 1.8 4.3 1.8 3.6 2.0 C 2.9 2.3 2.4 2.8 2.1 3.5 C 1.9 4.2 1.9 4.8 1.9 6.0 L 1.9 117.6 C 1.9 118.8 1.9 119.4 2.1 120.1 C 2.4 120.8 2.9 121.3 3.6 121.6 C 4.3 121.8 4.9 121.8 6.1 121.8 Z M 6.1 121.8 " fill="#000000" fill-opacity="0.41"></path><path d="M 4.2 0.0 L 25.3 0.0 C 26.5 0.0 27.1 0.0 27.8 0.2 C 28.5 0.5 29.0 1.0 29.3 1.7 C 29.5 2.4 29.5 3.0 29.5 4.2 L 29.5 115.8 C 29.5 117.0 29.5 117.6 29.3 118.3 C 29.0 119.0 28.5 119.5 27.8 119.8 C 27.1 120.0 26.5 120.0 25.3 120.0 L 4.2 120.0 C 3.0 120.0 2.4 120.0 1.7 119.8 C 1.0 119.5 0.5 119.0 0.2 118.3 C 0.0 117.6 0.0 117.0 0.0 115.8 L 0.0 4.2 C 0.0 3.0 0.0 2.4 0.2 1.7 C 0.5 1.0 1.0 0.5 1.7 0.2 C 2.4 0.0 3.0 0.0 4.2 0.0 Z M 4.2 0.0 " fill="none" stroke="#000000" stroke-width="1.10" transform="matrix(1.00, 0.00, 0.00, -1.00, 1.9, 121.8)"></path></g></g><g><clipPath id="clip-11098"><path d="M 0.5 90.2 L 32.8 90.2 L 32.8 108.3 L 0.5 108.3 Z M 0.5 90.2 "></path></clipPath><g clip-path="url(#clip-11098)"><path d="M 6.1 106.9 L 27.2 106.9 C 28.4 106.9 29.0 106.9 29.7 106.7 C 30.4 106.4 30.9 105.9 31.2 105.1 C 31.4 104.5 31.4 103.9 31.4 102.7 L 31.4 95.8 C 31.4 94.6 31.4 94.0 31.2 93.3 C 30.9 92.6 30.4 92.1 29.7 91.8 C 29.0 91.6 28.4 91.6 27.2 91.6 L 6.1 91.6 C 4.9 91.6 4.3 91.6 3.6 91.8 C 2.9 92.1 2.4 92.6 2.1 93.3 C 1.9 94.0 1.9 94.6 1.9 95.8 L 1.9 102.7 C 1.9 103.9 1.9 104.5 2.1 105.1 C 2.4 105.9 2.9 106.4 3.6 106.7 C 4.3 106.9 4.9 106.9 6.1 106.9 Z M 6.1 106.9 " fill="#000000" fill-opacity="0.14"></path><path d="M 4.2 0.0 L 25.3 0.0 C 26.5 0.0 27.1 0.0 27.8 0.2 C 28.5 0.5 29.0 1.0 29.3 1.7 C 29.5 2.4 29.5 3.0 29.5 4.2 L 29.5 11.1 C 29.5 12.3 29.5 12.9 29.3 13.5 C 29.0 14.2 28.5 14.8 27.8 15.1 C 27.1 15.3 26.5 15.3 25.3 15.3 L 4.2 15.3 C 3.0 15.3 2.4 15.3 1.7 15.1 C 1.0 14.8 0.5 14.2 0.2 13.5 C 0.0 12.9 0.0 12.3 0.0 11.1 L 0.0 4.2 C 0.0 3.0 0.0 2.4 0.2 1.7 C 0.5 1.0 1.0 0.5 1.7 0.2 C 2.4 0.0 3.0 0.0 4.2 0.0 Z M 4.2 0.0 " fill="none" stroke="#000000" stroke-width="0.85" stroke-dasharray="0.9, 0.9" transform="matrix(1.00, 0.00, 0.00, -1.00, 1.9, 106.9)"></path></g></g><g><clipPath id="clip-11099"><path d="M 0.5 105.2 L 32.8 105.2 L 32.8 123.2 L 0.5 123.2 Z M 0.5 105.2 "></path></clipPath><g clip-path="url(#clip-11099)"><path d="M 6.1 121.8 L 27.2 121.8 C 28.4 121.8 29.0 121.8 29.7 121.6 C 30.4 121.3 30.9 120.8 31.2 120.1 C 31.4 119.4 31.4 118.8 31.4 117.6 L 31.4 110.7 C 31.4 109.5 31.4 108.9 31.2 108.3 C 30.9 107.5 30.4 107.0 29.7 106.7 C 29.0 106.5 28.4 106.5 27.2 106.5 L 6.1 106.5 C 4.9 106.5 4.3 106.5 3.6 106.7 C 2.9 107.0 2.4 107.5 2.1 108.3 C 1.9 108.9 1.9 109.5 1.9 110.7 L 1.9 117.6 C 1.9 118.8 1.9 119.4 2.1 120.1 C 2.4 120.8 2.9 121.3 3.6 121.6 C 4.3 121.8 4.9 121.8 6.1 121.8 Z M 6.1 121.8 " fill="#000000" fill-opacity="0.03"></path><path d="M 4.2 0.0 L 25.3 0.0 C 26.5 0.0 27.1 0.0 27.8 0.2 C 28.5 0.5 29.0 1.0 29.3 1.7 C 29.5 2.4 29.5 3.0 29.5 4.2 L 29.5 11.1 C 29.5 12.3 29.5 12.9 29.3 13.5 C 29.0 14.2 28.5 14.8 27.8 15.1 C 27.1 15.3 26.5 15.3 25.3 15.3 L 4.2 15.3 C 3.0 15.3 2.4 15.3 1.7 15.1 C 1.0 14.8 0.5 14.2 0.2 13.5 C 0.0 12.9 0.0 12.3 0.0 11.1 L 0.0 4.2 C 0.0 3.0 0.0 2.4 0.2 1.7 C 0.5 1.0 1.0 0.5 1.7 0.2 C 2.4 0.0 3.0 0.0 4.2 0.0 Z M 4.2 0.0 " fill="none" stroke="#000000" stroke-width="0.85" stroke-dasharray="0.9, 0.9" transform="matrix(1.00, 0.00, 0.00, -1.00, 1.9, 121.8)"></path></g></g><g><clipPath id="clip-11100"><path d="M 0.5 60.4 L 32.8 60.4 L 32.8 78.4 L 0.5 78.4 Z M 0.5 60.4 "></path></clipPath><g clip-path="url(#clip-11100)"><path d="M 6.1 77.1 L 27.2 77.1 C 28.4 77.1 29.0 77.1 29.7 76.9 C 30.4 76.6 30.9 76.0 31.2 75.3 C 31.4 74.7 31.4 74.1 31.4 72.8 L 31.4 66.0 C 31.4 64.8 31.4 64.2 31.2 63.5 C 30.9 62.8 30.4 62.3 29.7 62.0 C 29.0 61.8 28.4 61.8 27.2 61.8 L 6.1 61.8 C 4.9 61.8 4.3 61.8 3.6 62.0 C 2.9 62.3 2.4 62.8 2.1 63.5 C 1.9 64.2 1.9 64.8 1.9 66.0 L 1.9 72.9 C 1.9 74.1 1.9 74.7 2.1 75.3 C 2.4 76.0 2.9 76.6 3.6 76.9 C 4.3 77.1 4.9 77.1 6.1 77.1 Z M 6.1 77.1 " fill="#000000" fill-opacity="0.19"></path><path d="M 4.2 0.0 L 25.3 0.0 C 26.5 0.0 27.1 0.0 27.8 0.2 C 28.5 0.5 29.0 1.0 29.3 1.7 C 29.5 2.4 29.5 3.0 29.5 4.2 L 29.5 11.1 C 29.5 12.3 29.5 12.9 29.3 13.5 C 29.0 14.2 28.5 14.8 27.8 15.1 C 27.1 15.3 26.5 15.3 25.3 15.3 L 4.2 15.3 C 3.0 15.3 2.4 15.3 1.7 15.1 C 1.0 14.8 0.5 14.2 0.2 13.5 C 0.0 12.9 0.0 12.3 0.0 11.1 L 0.0 4.2 C 0.0 3.0 0.0 2.4 0.2 1.7 C 0.5 1.0 1.0 0.5 1.7 0.2 C 2.4 0.0 3.0 0.0 4.2 0.0 Z M 4.2 0.0 " fill="none" stroke="#000000" stroke-width="0.85" stroke-dasharray="0.9, 0.9" transform="matrix(1.00, 0.00, 0.00, -1.00, 1.9, 77.1)"></path></g></g><g><clipPath id="clip-11101"><path d="M 0.5 75.3 L 32.8 75.3 L 32.8 93.3 L 0.5 93.3 Z M 0.5 75.3 "></path></clipPath><g clip-path="url(#clip-11101)"><path d="M 6.1 92.0 L 27.2 92.0 C 28.4 92.0 29.0 92.0 29.7 91.8 C 30.4 91.5 30.9 90.9 31.2 90.2 C 31.4 89.6 31.4 89.0 31.4 87.8 L 31.4 80.9 C 31.4 79.7 31.4 79.1 31.2 78.4 C 30.9 77.7 30.4 77.2 29.7 76.9 C 29.0 76.7 28.4 76.7 27.2 76.7 L 6.1 76.7 C 4.9 76.7 4.3 76.7 3.6 76.9 C 2.9 77.2 2.4 77.7 2.1 78.4 C 1.9 79.1 1.9 79.7 1.9 80.9 L 1.9 87.8 C 1.9 89.0 1.9 89.6 2.1 90.2 C 2.4 90.9 2.9 91.5 3.6 91.8 C 4.3 92.0 4.9 92.0 6.1 92.0 Z M 6.1 92.0 " fill="#000000" fill-opacity="0.17"></path><path d="M 4.2 0.0 L 25.3 0.0 C 26.5 0.0 27.1 0.0 27.8 0.2 C 28.5 0.5 29.0 1.0 29.3 1.7 C 29.5 2.4 29.5 3.0 29.5 4.2 L 29.5 11.1 C 29.5 12.3 29.5 12.9 29.3 13.5 C 29.0 14.2 28.5 14.8 27.8 15.1 C 27.1 15.3 26.5 15.3 25.3 15.3 L 4.2 15.3 C 3.0 15.3 2.4 15.3 1.7 15.1 C 1.0 14.8 0.5 14.2 0.2 13.5 C 0.0 12.9 0.0 12.3 0.0 11.1 L 0.0 4.2 C 0.0 3.0 0.0 2.4 0.2 1.7 C 0.5 1.0 1.0 0.5 1.7 0.2 C 2.4 0.0 3.0 0.0 4.2 0.0 Z M 4.2 0.0 " fill="none" stroke="#000000" stroke-width="0.85" stroke-dasharray="0.9, 0.9" transform="matrix(1.00, 0.00, 0.00, -1.00, 1.9, 92.0)"></path></g></g><g><clipPath id="clip-11102"><path d="M 0.5 0.8 L 32.8 0.8 L 32.8 18.8 L 0.5 18.8 Z M 0.5 0.8 "></path></clipPath><g clip-path="url(#clip-11102)"><path d="M 6.1 17.4 L 27.2 17.4 C 28.4 17.4 29.0 17.4 29.7 17.2 C 30.4 16.9 30.9 16.4 31.2 15.7 C 31.4 15.0 31.4 14.4 31.4 13.2 L 31.4 6.3 C 31.4 5.1 31.4 4.5 31.2 3.9 C 30.9 3.2 30.4 2.6 29.7 2.3 C 29.0 2.1 28.4 2.1 27.2 2.1 L 6.1 2.1 C 4.9 2.1 4.3 2.1 3.6 2.3 C 2.9 2.6 2.4 3.2 2.1 3.9 C 1.9 4.5 1.9 5.1 1.9 6.4 L 1.9 13.2 C 1.9 14.4 1.9 15.0 2.1 15.7 C 2.4 16.4 2.9 16.9 3.6 17.2 C 4.3 17.4 4.9 17.4 6.1 17.4 Z M 6.1 17.4 " fill="#000000" fill-opacity="0.48"></path><path d="M 4.2 0.0 L 25.3 0.0 C 26.5 0.0 27.1 0.0 27.8 0.2 C 28.5 0.5 29.0 1.0 29.3 1.7 C 29.5 2.4 29.5 3.0 29.5 4.2 L 29.5 11.1 C 29.5 12.3 29.5 12.9 29.3 13.5 C 29.0 14.2 28.5 14.8 27.8 15.1 C 27.1 15.3 26.5 15.3 25.3 15.3 L 4.2 15.3 C 3.0 15.3 2.4 15.3 1.7 15.1 C 1.0 14.8 0.5 14.2 0.2 13.5 C 0.0 12.9 0.0 12.3 0.0 11.1 L 0.0 4.2 C 0.0 3.0 0.0 2.4 0.2 1.7 C 0.5 1.0 1.0 0.5 1.7 0.2 C 2.4 0.0 3.0 0.0 4.2 0.0 Z M 4.2 0.0 " fill="none" stroke="#000000" stroke-width="0.85" stroke-dasharray="0.9, 0.9" transform="matrix(1.00, 0.00, 0.00, -1.00, 1.9, 17.4)"></path></g></g><g><clipPath id="clip-11103"><path d="M 0.5 75.3 L 32.8 75.3 L 32.8 93.3 L 0.5 93.3 Z M 0.5 75.3 "></path></clipPath><g clip-path="url(#clip-11103)"><path d="M 6.1 92.0 L 27.2 92.0 C 28.4 92.0 29.0 92.0 29.7 91.8 C 30.4 91.5 30.9 90.9 31.2 90.2 C 31.4 89.6 31.4 89.0 31.4 87.8 L 31.4 80.9 C 31.4 79.7 31.4 79.1 31.2 78.4 C 30.9 77.7 30.4 77.2 29.7 76.9 C 29.0 76.7 28.4 76.7 27.2 76.7 L 6.1 76.7 C 4.9 76.7 4.3 76.7 3.6 76.9 C 2.9 77.2 2.4 77.7 2.1 78.4 C 1.9 79.1 1.9 79.7 1.9 80.9 L 1.9 87.8 C 1.9 89.0 1.9 89.6 2.1 90.2 C 2.4 90.9 2.9 91.5 3.6 91.8 C 4.3 92.0 4.9 92.0 6.1 92.0 Z M 6.1 92.0 " fill="#000000" fill-opacity="0.03"></path><path d="M 4.2 0.0 L 25.3 0.0 C 26.5 0.0 27.1 0.0 27.8 0.2 C 28.5 0.5 29.0 1.0 29.3 1.7 C 29.5 2.4 29.5 3.0 29.5 4.2 L 29.5 11.1 C 29.5 12.3 29.5 12.9 29.3 13.5 C 29.0 14.2 28.5 14.8 27.8 15.1 C 27.1 15.3 26.5 15.3 25.3 15.3 L 4.2 15.3 C 3.0 15.3 2.4 15.3 1.7 15.1 C 1.0 14.8 0.5 14.2 0.2 13.5 C 0.0 12.9 0.0 12.3 0.0 11.1 L 0.0 4.2 C 0.0 3.0 0.0 2.4 0.2 1.7 C 0.5 1.0 1.0 0.5 1.7 0.2 C 2.4 0.0 3.0 0.0 4.2 0.0 Z M 4.2 0.0 " fill="none" stroke="#000000" stroke-width="0.85" stroke-dasharray="0.9, 0.9" transform="matrix(1.00, 0.00, 0.00, -1.00, 1.9, 92.0)"></path></g></g><g><clipPath id="clip-11104"><path d="M 0.5 45.5 L 32.8 45.5 L 32.8 63.5 L 0.5 63.5 Z M 0.5 45.5 "></path></clipPath><g clip-path="url(#clip-11104)"><path d="M 6.1 62.1 L 27.2 62.1 C 28.4 62.1 29.0 62.1 29.7 61.9 C 30.4 61.7 30.9 61.1 31.2 60.4 C 31.4 59.8 31.4 59.1 31.4 57.9 L 31.4 51.1 C 31.4 49.9 31.4 49.3 31.2 48.6 C 30.9 47.9 30.4 47.3 29.7 47.1 C 29.0 46.9 28.4 46.9 27.2 46.9 L 6.1 46.9 C 4.9 46.9 4.3 46.9 3.6 47.1 C 2.9 47.3 2.4 47.9 2.1 48.6 C 1.9 49.3 1.9 49.9 1.9 51.1 L 1.9 57.9 C 1.9 59.1 1.9 59.8 2.1 60.4 C 2.4 61.1 2.9 61.7 3.6 61.9 C 4.3 62.1 4.9 62.1 6.1 62.1 Z M 6.1 62.1 " fill="#000000" fill-opacity="0.14"></path><path d="M 4.2 0.0 L 25.3 0.0 C 26.5 0.0 27.1 0.0 27.8 0.2 C 28.5 0.5 29.0 1.0 29.3 1.7 C 29.5 2.4 29.5 3.0 29.5 4.2 L 29.5 11.1 C 29.5 12.3 29.5 12.9 29.3 13.5 C 29.0 14.2 28.5 14.8 27.8 15.1 C 27.1 15.3 26.5 15.3 25.3 15.3 L 4.2 15.3 C 3.0 15.3 2.4 15.3 1.7 15.1 C 1.0 14.8 0.5 14.2 0.2 13.5 C 0.0 12.9 0.0 12.3 0.0 11.1 L 0.0 4.2 C 0.0 3.0 0.0 2.4 0.2 1.7 C 0.5 1.0 1.0 0.5 1.7 0.2 C 2.4 0.0 3.0 0.0 4.2 0.0 Z M 4.2 0.0 " fill="none" stroke="#000000" stroke-width="0.85" stroke-dasharray="0.9, 0.9" transform="matrix(1.00, 0.00, 0.00, -1.00, 1.9, 62.1)"></path></g></g><g><clipPath id="clip-11105"><path d="M 0.5 15.7 L 32.8 15.7 L 32.8 33.7 L 0.5 33.7 Z M 0.5 15.7 "></path></clipPath><g clip-path="url(#clip-11105)"><path d="M 6.1 32.3 L 27.2 32.3 C 28.4 32.3 29.0 32.3 29.7 32.1 C 30.4 31.9 30.9 31.3 31.2 30.6 C 31.4 29.9 31.4 29.3 31.4 28.1 L 31.4 21.2 C 31.4 20.0 31.4 19.4 31.2 18.8 C 30.9 18.1 30.4 17.5 29.7 17.3 C 29.0 17.0 28.4 17.0 27.2 17.0 L 6.1 17.0 C 4.9 17.0 4.3 17.0 3.6 17.3 C 2.9 17.5 2.4 18.1 2.1 18.8 C 1.9 19.4 1.9 20.0 1.9 21.3 L 1.9 28.1 C 1.9 29.3 1.9 29.9 2.1 30.6 C 2.4 31.3 2.9 31.9 3.6 32.1 C 4.3 32.3 4.9 32.3 6.1 32.3 Z M 6.1 32.3 " fill="#000000" fill-opacity="0.35"></path><path d="M 4.2 0.0 L 25.3 0.0 C 26.5 0.0 27.1 0.0 27.8 0.2 C 28.5 0.5 29.0 1.0 29.3 1.7 C 29.5 2.4 29.5 3.0 29.5 4.2 L 29.5 11.1 C 29.5 12.3 29.5 12.9 29.3 13.5 C 29.0 14.2 28.5 14.8 27.8 15.1 C 27.1 15.3 26.5 15.3 25.3 15.3 L 4.2 15.3 C 3.0 15.3 2.4 15.3 1.7 15.1 C 1.0 14.8 0.5 14.2 0.2 13.5 C 0.0 12.9 0.0 12.3 0.0 11.1 L 0.0 4.2 C 0.0 3.0 0.0 2.4 0.2 1.7 C 0.5 1.0 1.0 0.5 1.7 0.2 C 2.4 0.0 3.0 0.0 4.2 0.0 Z M 4.2 0.0 " fill="none" stroke="#000000" stroke-width="0.85" stroke-dasharray="0.9, 0.9" transform="matrix(1.00, 0.00, 0.00, -1.00, 1.9, 32.3)"></path></g></g></g></svg>