<?xml version="1.0" encoding="UTF-8" standalone="no"?><svg xmlns="http://www.w3.org/2000/svg" xmlns:xlink="http://www.w3.org/1999/xlink" clip-rule="evenodd" stroke-miterlimit="4.00" viewBox="0 0 33 124"><desc>SVG generated by Keynote</desc><defs></defs><g transform="matrix(1.00, 0.00, -0.00, -1.00, 0.0, 124.0)"><g><clipPath id="clip-11115"><path d="M 0.2 105.2 L 32.4 105.2 L 32.4 123.2 L 0.2 123.2 Z M 0.2 105.2 "></path></clipPath><g clip-path="url(#clip-11115)"><path d="M 5.8 121.8 L 26.9 121.8 C 28.1 121.8 28.7 121.8 29.3 121.6 C 30.0 121.3 30.6 120.8 30.9 120.1 C 31.1 119.4 31.1 118.8 31.1 117.6 L 31.1 110.7 C 31.1 109.5 31.1 108.9 30.9 108.3 C 30.6 107.5 30.0 107.0 29.3 106.7 C 28.7 106.5 28.1 106.5 26.8 106.5 L 5.8 106.5 C 4.6 106.5 3.9 106.5 3.3 106.7 C 2.6 107.0 2.0 107.5 1.8 108.3 C 1.6 108.9 1.6 109.5 1.6 110.7 L 1.6 117.6 C 1.6 118.8 1.6 119.4 1.8 120.1 C 2.0 120.8 2.6 121.3 3.3 121.6 C 3.9 121.8 4.6 121.8 5.8 121.8 Z M 5.8 121.8 " fill="#000000" fill-opacity="0.14"></path><path d="M 4.2 0.0 L 25.3 0.0 C 26.5 0.0 27.1 0.0 27.8 0.2 C 28.5 0.5 29.0 1.0 29.3 1.7 C 29.5 2.4 29.5 3.0 29.5 4.2 L 29.5 11.1 C 29.5 12.3 29.5 12.9 29.3 13.5 C 29.0 14.2 28.5 14.8 27.8 15.1 C 27.1 15.3 26.5 15.3 25.3 15.3 L 4.2 15.3 C 3.0 15.3 2.4 15.3 1.7 15.1 C 1.0 14.8 0.5 14.2 0.2 13.5 C 0.0 12.9 0.0 12.3 0.0 11.1 L 0.0 4.2 C 0.0 3.0 0.0 2.4 0.2 1.7 C 0.5 1.0 1.0 0.5 1.7 0.2 C 2.4 0.0 3.0 0.0 4.2 0.0 Z M 4.2 0.0 " fill="none" stroke="#000000" stroke-width="0.85" stroke-dasharray="0.9, 0.9" transform="matrix(1.00, 0.00, 0.00, -1.00, 1.6, 121.8)"></path></g></g><g><clipPath id="clip-11116"><path d="M 0.2 90.2 L 32.4 90.2 L 32.4 108.3 L 0.2 108.3 Z M 0.2 90.2 "></path></clipPath><g clip-path="url(#clip-11116)"><path d="M 5.8 106.9 L 26.9 106.9 C 28.1 106.9 28.7 106.9 29.3 106.7 C 30.0 106.4 30.6 105.9 30.9 105.1 C 31.1 104.5 31.1 103.9 31.1 102.7 L 31.1 95.8 C 31.1 94.6 31.1 94.0 30.9 93.3 C 30.6 92.6 30.0 92.1 29.3 91.8 C 28.7 91.6 28.1 91.6 26.8 91.6 L 5.8 91.6 C 4.6 91.6 3.9 91.6 3.3 91.8 C 2.6 92.1 2.0 92.6 1.8 93.3 C 1.6 94.0 1.6 94.6 1.6 95.8 L 1.6 102.7 C 1.6 103.9 1.6 104.5 1.8 105.1 C 2.0 105.9 2.6 106.4 3.3 106.7 C 3.9 106.9 4.6 106.9 5.8 106.9 Z M 5.8 106.9 " fill="#000000" fill-opacity="0.03"></path><path d="M 4.2 0.0 L 25.3 0.0 C 26.5 0.0 27.1 0.0 27.8 0.2 C 28.5 0.5 29.0 1.0 29.3 1.7 C 29.5 2.4 29.5 3.0 29.5 4.2 L 29.5 11.1 C 29.5 12.3 29.5 12.9 29.3 13.5 C 29.0 14.2 28.5 14.8 27.8 15.1 C 27.1 15.3 26.5 15.3 25.3 15.3 L 4.2 15.3 C 3.0 15.3 2.4 15.3 1.7 15.1 C 1.0 14.8 0.5 14.2 0.2 13.5 C 0.0 12.9 0.0 12.3 0.0 11.1 L 0.0 4.2 C 0.0 3.0 0.0 2.4 0.2 1.7 C 0.5 1.0 1.0 0.5 1.7 0.2 C 2.4 0.0 3.0 0.0 4.2 0.0 Z M 4.2 0.0 " fill="none" stroke="#000000" stroke-width="0.85" stroke-dasharray="0.9, 0.9" transform="matrix(1.00, 0.00, 0.00, -1.00, 1.6, 106.9)"></path></g></g><g><clipPath id="clip-11117"><path d="M 0.2 75.3 L 32.4 75.3 L 32.4 93.3 L 0.2 93.3 Z M 0.2 75.3 "></path></clipPath><g clip-path="url(#clip-11117)"><path d="M 5.8 92.0 L 26.9 92.0 C 28.1 92.0 28.7 92.0 29.3 91.8 C 30.0 91.5 30.6 90.9 30.9 90.2 C 31.1 89.6 31.1 89.0 31.1 87.8 L 31.1 80.9 C 31.1 79.7 31.1 79.1 30.9 78.4 C 30.6 77.7 30.0 77.2 29.3 76.9 C 28.7 76.7 28.1 76.7 26.8 76.7 L 5.8 76.7 C 4.6 76.7 3.9 76.7 3.3 76.9 C 2.6 77.2 2.0 77.7 1.8 78.4 C 1.6 79.1 1.6 79.7 1.6 80.9 L 1.6 87.8 C 1.6 89.0 1.6 89.6 1.8 90.2 C 2.0 90.9 2.6 91.5 3.3 91.8 C 3.9 92.0 4.6 92.0 5.8 92.0 Z M 5.8 92.0 " fill="#000000" fill-opacity="0.19"></path><path d="M 4.2 0.0 L 25.3 0.0 C 26.5 0.0 27.1 0.0 27.8 0.2 C 28.5 0.5 29.0 1.0 29.3 1.7 C 29.5 2.4 29.5 3.0 29.5 4.2 L 29.5 11.1 C 29.5 12.3 29.5 12.9 29.3 13.5 C 29.0 14.2 28.5 14.8 27.8 15.1 C 27.1 15.3 26.5 15.3 25.3 15.3 L 4.2 15.3 C 3.0 15.3 2.4 15.3 1.7 15.1 C 1.0 14.8 0.5 14.2 0.2 13.5 C 0.0 12.9 0.0 12.3 0.0 11.1 L 0.0 4.2 C 0.0 3.0 0.0 2.4 0.2 1.7 C 0.5 1.0 1.0 0.5 1.7 0.2 C 2.4 0.0 3.0 0.0 4.2 0.0 Z M 4.2 0.0 " fill="none" stroke="#000000" stroke-width="0.85" stroke-dasharray="0.9, 0.9" transform="matrix(1.00, 0.00, 0.00, -1.00, 1.6, 92.0)"></path></g></g><g><clipPath id="clip-11118"><path d="M 0.2 60.4 L 32.4 60.4 L 32.4 78.4 L 0.2 78.4 Z M 0.2 60.4 "></path></clipPath><g clip-path="url(#clip-11118)"><path d="M 5.8 77.1 L 26.9 77.1 C 28.1 77.1 28.7 77.1 29.3 76.9 C 30.0 76.6 30.6 76.0 30.9 75.3 C 31.1 74.7 31.1 74.1 31.1 72.8 L 31.1 66.0 C 31.1 64.8 31.1 64.2 30.9 63.5 C 30.6 62.8 30.0 62.3 29.3 62.0 C 28.7 61.8 28.1 61.8 26.8 61.8 L 5.8 61.8 C 4.6 61.8 3.9 61.8 3.3 62.0 C 2.6 62.3 2.0 62.8 1.8 63.5 C 1.6 64.2 1.6 64.8 1.6 66.0 L 1.6 72.9 C 1.6 74.1 1.6 74.7 1.8 75.3 C 2.0 76.0 2.6 76.6 3.3 76.9 C 3.9 77.1 4.6 77.1 5.8 77.1 Z M 5.8 77.1 " fill="#000000" fill-opacity="0.17"></path><path d="M 4.2 0.0 L 25.3 0.0 C 26.5 0.0 27.1 0.0 27.8 0.2 C 28.5 0.5 29.0 1.0 29.3 1.7 C 29.5 2.4 29.5 3.0 29.5 4.2 L 29.5 11.1 C 29.5 12.3 29.5 12.9 29.3 13.5 C 29.0 14.2 28.5 14.8 27.8 15.1 C 27.1 15.3 26.5 15.3 25.3 15.3 L 4.2 15.3 C 3.0 15.3 2.4 15.3 1.7 15.1 C 1.0 14.8 0.5 14.2 0.2 13.5 C 0.0 12.9 0.0 12.3 0.0 11.1 L 0.0 4.2 C 0.0 3.0 0.0 2.4 0.2 1.7 C 0.5 1.0 1.0 0.5 1.7 0.2 C 2.4 0.0 3.0 0.0 4.2 0.0 Z M 4.2 0.0 " fill="none" stroke="#000000" stroke-width="0.85" stroke-dasharray="0.9, 0.9" transform="matrix(1.00, 0.00, 0.00, -1.00, 1.6, 77.1)"></path></g></g><g><clipPath id="clip-11119"><path d="M 0.2 45.5 L 32.4 45.5 L 32.4 63.5 L 0.2 63.5 Z M 0.2 45.5 "></path></clipPath><g clip-path="url(#clip-11119)"><path d="M 5.8 62.1 L 26.9 62.1 C 28.1 62.1 28.7 62.1 29.3 61.9 C 30.0 61.7 30.6 61.1 30.9 60.4 C 31.1 59.8 31.1 59.1 31.1 57.9 L 31.1 51.1 C 31.1 49.9 31.1 49.3 30.9 48.6 C 30.6 47.9 30.0 47.3 29.3 47.1 C 28.7 46.9 28.1 46.9 26.8 46.9 L 5.8 46.9 C 4.6 46.9 3.9 46.9 3.3 47.1 C 2.6 47.3 2.0 47.9 1.8 48.6 C 1.6 49.3 1.6 49.9 1.6 51.1 L 1.6 57.9 C 1.6 59.1 1.6 59.8 1.8 60.4 C 2.0 61.1 2.6 61.7 3.3 61.9 C 3.9 62.1 4.6 62.1 5.8 62.1 Z M 5.8 62.1 " fill="#000000" fill-opacity="0.48"></path><path d="M 4.2 0.0 L 25.3 0.0 C 26.5 0.0 27.1 0.0 27.8 0.2 C 28.5 0.5 29.0 1.0 29.3 1.7 C 29.5 2.4 29.5 3.0 29.5 4.2 L 29.5 11.1 C 29.5 12.3 29.5 12.9 29.3 13.5 C 29.0 14.2 28.5 14.8 27.8 15.1 C 27.1 15.3 26.5 15.3 25.3 15.3 L 4.2 15.3 C 3.0 15.3 2.4 15.3 1.7 15.1 C 1.0 14.8 0.5 14.2 0.2 13.5 C 0.0 12.9 0.0 12.3 0.0 11.1 L 0.0 4.2 C 0.0 3.0 0.0 2.4 0.2 1.7 C 0.5 1.0 1.0 0.5 1.7 0.2 C 2.4 0.0 3.0 0.0 4.2 0.0 Z M 4.2 0.0 " fill="none" stroke="#000000" stroke-width="0.85" stroke-dasharray="0.9, 0.9" transform="matrix(1.00, 0.00, 0.00, -1.00, 1.6, 62.1)"></path></g></g><g><clipPath id="clip-11120"><path d="M 0.2 30.6 L 32.4 30.6 L 32.4 48.6 L 0.2 48.6 Z M 0.2 30.6 "></path></clipPath><g clip-path="url(#clip-11120)"><path d="M 5.8 47.2 L 26.9 47.2 C 28.1 47.2 28.7 47.2 29.3 47.0 C 30.0 46.8 30.6 46.2 30.9 45.5 C 31.1 44.8 31.1 44.2 31.1 43.0 L 31.1 36.2 C 31.1 35.0 31.1 34.3 30.9 33.7 C 30.6 33.0 30.0 32.4 29.3 32.2 C 28.7 32.0 28.1 32.0 26.8 32.0 L 5.8 32.0 C 4.6 32.0 3.9 32.0 3.3 32.2 C 2.6 32.4 2.0 33.0 1.8 33.7 C 1.6 34.3 1.6 35.0 1.6 36.2 L 1.6 43.0 C 1.6 44.2 1.6 44.8 1.8 45.5 C 2.0 46.2 2.6 46.8 3.3 47.0 C 3.9 47.2 4.6 47.2 5.8 47.2 Z M 5.8 47.2 " fill="#000000" fill-opacity="0.03"></path><path d="M 4.2 0.0 L 25.3 0.0 C 26.5 0.0 27.1 0.0 27.8 0.2 C 28.5 0.5 29.0 1.0 29.3 1.7 C 29.5 2.4 29.5 3.0 29.5 4.2 L 29.5 11.1 C 29.5 12.3 29.5 12.9 29.3 13.5 C 29.0 14.2 28.5 14.8 27.8 15.1 C 27.1 15.3 26.5 15.3 25.3 15.3 L 4.2 15.3 C 3.0 15.3 2.4 15.3 1.7 15.1 C 1.0 14.8 0.5 14.2 0.2 13.5 C 0.0 12.9 0.0 12.3 0.0 11.1 L 0.0 4.2 C 0.0 3.0 0.0 2.4 0.2 1.7 C 0.5 1.0 1.0 0.5 1.7 0.2 C 2.4 0.0 3.0 0.0 4.2 0.0 Z M 4.2 0.0 " fill="none" stroke="#000000" stroke-width="0.85" stroke-dasharray="0.9, 0.9" transform="matrix(1.00, 0.00, 0.00, -1.00, 1.6, 47.2)"></path></g></g><g><clipPath id="clip-11121"><path d="M 0.2 15.7 L 32.4 15.7 L 32.4 33.7 L 0.2 33.7 Z M 0.2 15.7 "></path></clipPath><g clip-path="url(#clip-11121)"><path d="M 5.8 32.3 L 26.9 32.3 C 28.1 32.3 28.7 32.3 29.3 32.1 C 30.0 31.9 30.6 31.3 30.9 30.6 C 31.1 29.9 31.1 29.3 31.1 28.1 L 31.1 21.2 C 31.1 20.0 31.1 19.4 30.9 18.8 C 30.6 18.1 30.0 17.5 29.3 17.3 C 28.7 17.0 28.1 17.0 26.8 17.0 L 5.8 17.0 C 4.6 17.0 3.9 17.0 3.3 17.3 C 2.6 17.5 2.0 18.1 1.8 18.8 C 1.6 19.4 1.6 20.0 1.6 21.3 L 1.6 28.1 C 1.6 29.3 1.6 29.9 1.8 30.6 C 2.0 31.3 2.6 31.9 3.3 32.1 C 3.9 32.3 4.6 32.3 5.8 32.3 Z M 5.8 32.3 " fill="#000000" fill-opacity="0.14"></path><path d="M 4.2 0.0 L 25.3 0.0 C 26.5 0.0 27.1 0.0 27.8 0.2 C 28.5 0.5 29.0 1.0 29.3 1.7 C 29.5 2.4 29.5 3.0 29.5 4.2 L 29.5 11.1 C 29.5 12.3 29.5 12.9 29.3 13.5 C 29.0 14.2 28.5 14.8 27.8 15.1 C 27.1 15.3 26.5 15.3 25.3 15.3 L 4.2 15.3 C 3.0 15.3 2.4 15.3 1.7 15.1 C 1.0 14.8 0.5 14.2 0.2 13.5 C 0.0 12.9 0.0 12.3 0.0 11.1 L 0.0 4.2 C 0.0 3.0 0.0 2.4 0.2 1.7 C 0.5 1.0 1.0 0.5 1.7 0.2 C 2.4 0.0 3.0 0.0 4.2 0.0 Z M 4.2 0.0 " fill="none" stroke="#000000" stroke-width="0.85" stroke-dasharray="0.9, 0.9" transform="matrix(1.00, 0.00, 0.00, -1.00, 1.6, 32.3)"></path></g></g><g><clipPath id="clip-11122"><path d="M 0.2 0.8 L 32.4 0.8 L 32.4 18.8 L 0.2 18.8 Z M 0.2 0.8 "></path></clipPath><g clip-path="url(#clip-11122)"><path d="M 5.8 17.4 L 26.9 17.4 C 28.1 17.4 28.7 17.4 29.3 17.2 C 30.0 16.9 30.6 16.4 30.9 15.7 C 31.1 15.0 31.1 14.4 31.1 13.2 L 31.1 6.3 C 31.1 5.1 31.1 4.5 30.9 3.9 C 30.6 3.2 30.0 2.6 29.3 2.3 C 28.7 2.1 28.1 2.1 26.8 2.1 L 5.8 2.1 C 4.6 2.1 3.9 2.1 3.3 2.3 C 2.6 2.6 2.0 3.2 1.8 3.9 C 1.6 4.5 1.6 5.1 1.6 6.4 L 1.6 13.2 C 1.6 14.4 1.6 15.0 1.8 15.7 C 2.0 16.4 2.6 16.9 3.3 17.2 C 3.9 17.4 4.6 17.4 5.8 17.4 Z M 5.8 17.4 " fill="#000000" fill-opacity="0.35"></path><path d="M 4.2 0.0 L 25.3 0.0 C 26.5 0.0 27.1 0.0 27.8 0.2 C 28.5 0.5 29.0 1.0 29.3 1.7 C 29.5 2.4 29.5 3.0 29.5 4.2 L 29.5 11.1 C 29.5 12.3 29.5 12.9 29.3 13.5 C 29.0 14.2 28.5 14.8 27.8 15.1 C 27.1 15.3 26.5 15.3 25.3 15.3 L 4.2 15.3 C 3.0 15.3 2.4 15.3 1.7 15.1 C 1.0 14.8 0.5 14.2 0.2 13.5 C 0.0 12.9 0.0 12.3 0.0 11.1 L 0.0 4.2 C 0.0 3.0 0.0 2.4 0.2 1.7 C 0.5 1.0 1.0 0.5 1.7 0.2 C 2.4 0.0 3.0 0.0 4.2 0.0 Z M 4.2 0.0 " fill="none" stroke="#000000" stroke-width="0.85" stroke-dasharray="0.9, 0.9" transform="matrix(1.00, 0.00, 0.00, -1.00, 1.6, 17.4)"></path></g></g><g><clipPath id="clip-11123"><path d="M 0.1 0.3 L 32.6 0.3 L 32.6 123.3 L 0.1 123.3 Z M 0.1 0.3 "></path></clipPath><g clip-path="url(#clip-11123)"><path d="M 5.8 121.8 L 26.9 121.8 C 28.1 121.8 28.7 121.8 29.3 121.6 C 30.0 121.3 30.6 120.8 30.9 120.1 C 31.1 119.4 31.1 118.8 31.1 117.6 L 31.1 6.0 C 31.1 4.8 31.1 4.2 30.9 3.5 C 30.6 2.8 30.0 2.3 29.3 2.0 C 28.7 1.8 28.1 1.8 26.8 1.8 L 5.8 1.8 C 4.6 1.8 3.9 1.8 3.3 2.0 C 2.6 2.3 2.0 2.8 1.8 3.5 C 1.6 4.2 1.6 4.8 1.6 6.0 L 1.6 117.6 C 1.6 118.8 1.6 119.4 1.8 120.1 C 2.0 120.8 2.6 121.3 3.3 121.6 C 3.9 121.8 4.6 121.8 5.8 121.8 Z M 5.8 121.8 " fill="#000000" fill-opacity="0.15"></path><path d="M 4.2 0.0 L 25.3 0.0 C 26.5 0.0 27.1 0.0 27.8 0.2 C 28.5 0.5 29.0 1.0 29.3 1.7 C 29.5 2.4 29.5 3.0 29.5 4.2 L 29.5 115.8 C 29.5 117.0 29.5 117.6 29.3 118.3 C 29.0 119.0 28.5 119.5 27.8 119.8 C 27.1 120.0 26.5 120.0 25.3 120.0 L 4.2 120.0 C 3.0 120.0 2.4 120.0 1.7 119.8 C 1.0 119.5 0.5 119.0 0.2 118.3 C 0.0 117.6 0.0 117.0 0.0 115.8 L 0.0 4.2 C 0.0 3.0 0.0 2.4 0.2 1.7 C 0.5 1.0 1.0 0.5 1.7 0.2 C 2.4 0.0 3.0 0.0 4.2 0.0 Z M 4.2 0.0 " fill="none" stroke="#000000" stroke-width="1.10" transform="matrix(1.00, 0.00, 0.00, -1.00, 1.6, 121.8)"></path></g></g></g></svg>