<?xml version="1.0" encoding="UTF-8" standalone="no"?><svg xmlns="http://www.w3.org/2000/svg" xmlns:xlink="http://www.w3.org/1999/xlink" clip-rule="evenodd" stroke-miterlimit="4.00" viewBox="0 0 1920 1080"><desc>SVG generated by Keynote</desc><defs></defs><g transform="matrix(1.00, 0.00, -0.00, -1.00, 0.0, 1080.0)"><path d="M 0.0 1080.0 L 1920.0 1080.0 L 1920.0 0.0 L 0.0 0.0 Z M 0.0 1080.0 " fill="#FEFFFF"></path><text xml:space="preserve" font-family="GillSans" font-size="52.0" fill="#000000" transform="matrix(1.00, 0.00, -0.00, -1.00, 137.0, 773.0)">A</text><text xml:space="preserve" font-family="GillSans" font-size="52.0" fill="#000000" transform="matrix(1.00, 0.00, -0.00, -1.00, 171.7, 773.0)">s</text><text xml:space="preserve" font-family="GillSans" font-size="52.0" fill="#000000" transform="matrix(1.00, 0.00, -0.00, -1.00, 191.7, 773.0)"> </text><text xml:space="preserve" font-family="GillSans" font-size="52.0" fill="#0264C0" transform="matrix(1.00, 0.00, -0.00, -1.00, 206.1, 773.0)">w</text><text xml:space="preserve" font-family="GillSans" font-size="52.0" fill="#0264C0" transform="matrix(1.00, 0.00, -0.00, -1.00, 243.5, 773.0)">a</text><text xml:space="preserve" font-family="GillSans" font-size="52.0" fill="#0264C0" transform="matrix(1.00, 0.00, -0.00, -1.00, 265.7, 773.0)">t</text><text xml:space="preserve" font-family="GillSans" font-size="52.0" fill="#0264C0" transform="matrix(1.00, 0.00, -0.00, -1.00, 283.0, 773.0)">e</text><text xml:space="preserve" font-family="GillSans" font-size="52.0" fill="#0264C0" transform="matrix(1.00, 0.00, -0.00, -1.00, 308.0, 773.0)">r</text><text xml:space="preserve" font-family="GillSans" font-size="52.0" fill="#0264C0" transform="matrix(1.00, 0.00, -0.00, -1.00, 328.5, 773.0)"> </text><text xml:space="preserve" font-family="GillSans" font-size="52.0" fill="#0264C0" transform="matrix(1.00, 0.00, -0.00, -1.00, 343.0, 773.0)">v</text><text xml:space="preserve" font-family="GillSans" font-size="52.0" fill="#0264C0" transform="matrix(1.00, 0.00, -0.00, -1.00, 365.8, 773.0)">a</text><text xml:space="preserve" font-family="GillSans" font-size="52.0" fill="#0264C0" transform="matrix(1.00, 0.00, -0.00, -1.00, 387.4, 773.0)">p</text><text xml:space="preserve" font-family="GillSans" font-size="52.0" fill="#0264C0" transform="matrix(1.00, 0.00, -0.00, -1.00, 413.4, 773.0)">o</text><text xml:space="preserve" font-family="GillSans" font-size="52.0" fill="#0264C0" transform="matrix(1.00, 0.00, -0.00, -1.00, 442.1, 773.0)">r</text><text xml:space="preserve" font-family="GillSans" font-size="52.0" fill="#000000" transform="matrix(1.00, 0.00, -0.00, -1.00, 462.7, 773.0)"> </text><text xml:space="preserve" font-family="GillSans" font-size="52.0" fill="#000000" transform="matrix(1.00, 0.00, -0.00, -1.00, 477.2, 773.0)">r</text><text xml:space="preserve" font-family="GillSans" font-size="52.0" fill="#000000" transform="matrix(1.00, 0.00, -0.00, -1.00, 497.8, 773.0)">i</text><text xml:space="preserve" font-family="GillSans" font-size="52.0" fill="#000000" transform="matrix(1.00, 0.00, -0.00, -1.00, 509.2, 773.0)">s</text><text xml:space="preserve" font-family="GillSans" font-size="52.0" fill="#000000" transform="matrix(1.00, 0.00, -0.00, -1.00, 529.2, 773.0)">e</text><text xml:space="preserve" font-family="GillSans" font-size="52.0" fill="#000000" transform="matrix(1.00, 0.00, -0.00, -1.00, 554.1, 773.0)">s</text><text xml:space="preserve" font-family="GillSans" font-size="52.0" fill="#000000" transform="matrix(1.00, 0.00, -0.00, -1.00, 574.1, 773.0)"> </text><text xml:space="preserve" font-family="GillSans" font-size="52.0" fill="#000000" transform="matrix(1.00, 0.00, -0.00, -1.00, 588.5, 773.0)">i</text><text xml:space="preserve" font-family="GillSans" font-size="52.0" fill="#000000" transform="matrix(1.00, 0.00, -0.00, -1.00, 599.9, 773.0)">n</text><text xml:space="preserve" font-family="GillSans" font-size="52.0" fill="#000000" transform="matrix(1.00, 0.00, -0.00, -1.00, 625.9, 773.0)"> </text><text xml:space="preserve" font-family="GillSans" font-size="52.0" fill="#000000" transform="matrix(1.00, 0.00, -0.00, -1.00, 640.4, 773.0)">t</text><text xml:space="preserve" font-family="GillSans" font-size="52.0" fill="#000000" transform="matrix(1.00, 0.00, -0.00, -1.00, 657.7, 773.0)">h</text><text xml:space="preserve" font-family="GillSans" font-size="52.0" fill="#000000" transform="matrix(1.00, 0.00, -0.00, -1.00, 683.7, 773.0)">e</text><text xml:space="preserve" font-family="GillSans" font-size="52.0" fill="#000000" transform="matrix(1.00, 0.00, -0.00, -1.00, 708.6, 773.0)"> </text><text xml:space="preserve" font-family="GillSans" font-size="52.0" fill="#000000" transform="matrix(1.00, 0.00, -0.00, -1.00, 723.0, 773.0)">a</text><text xml:space="preserve" font-family="GillSans" font-size="52.0" fill="#000000" transform="matrix(1.00, 0.00, -0.00, -1.00, 745.2, 773.0)">t</text><text xml:space="preserve" font-family="GillSans" font-size="52.0" fill="#000000" transform="matrix(1.00, 0.00, -0.00, -1.00, 762.5, 773.0)">m</text><text xml:space="preserve" font-family="GillSans" font-size="52.0" fill="#000000" transform="matrix(1.00, 0.00, -0.00, -1.00, 802.6, 773.0)">o</text><text xml:space="preserve" font-family="GillSans" font-size="52.0" fill="#000000" transform="matrix(1.00, 0.00, -0.00, -1.00, 831.3, 773.0)">s</text><text xml:space="preserve" font-family="GillSans" font-size="52.0" fill="#000000" transform="matrix(1.00, 0.00, -0.00, -1.00, 851.3, 773.0)">p</text><text xml:space="preserve" font-family="GillSans" font-size="52.0" fill="#000000" transform="matrix(1.00, 0.00, -0.00, -1.00, 877.3, 773.0)">h</text><text xml:space="preserve" font-family="GillSans" font-size="52.0" fill="#000000" transform="matrix(1.00, 0.00, -0.00, -1.00, 903.3, 773.0)">e</text><text xml:space="preserve" font-family="GillSans" font-size="52.0" fill="#000000" transform="matrix(1.00, 0.00, -0.00, -1.00, 928.2, 773.0)">r</text><text xml:space="preserve" font-family="GillSans" font-size="52.0" fill="#000000" transform="matrix(1.00, 0.00, -0.00, -1.00, 947.8, 773.0)">e</text><text xml:space="preserve" font-family="GillSans" font-size="52.0" fill="#000000" transform="matrix(1.00, 0.00, -0.00, -1.00, 973.7, 773.0)">,</text><text xml:space="preserve" font-family="GillSans" font-size="52.0" fill="#000000" transform="matrix(1.00, 0.00, -0.00, -1.00, 979.9, 773.0)"> </text><text xml:space="preserve" font-family="GillSans" font-size="52.0" fill="#000000" transform="matrix(1.00, 0.00, -0.00, -1.00, 994.3, 773.0)">i</text><text xml:space="preserve" font-family="GillSans" font-size="52.0" fill="#000000" transform="matrix(1.00, 0.00, -0.00, -1.00, 1005.8, 773.0)">t</text><text xml:space="preserve" font-family="GillSans" font-size="52.0" fill="#000000" transform="matrix(1.00, 0.00, -0.00, -1.00, 1023.1, 773.0)"> </text><text xml:space="preserve" font-family="GillSans" font-size="52.0" fill="#000000" transform="matrix(1.00, 0.00, -0.00, -1.00, 1037.5, 773.0)">c</text><text xml:space="preserve" font-family="GillSans" font-size="52.0" fill="#000000" transform="matrix(1.00, 0.00, -0.00, -1.00, 1060.3, 773.0)">o</text><text xml:space="preserve" font-family="GillSans" font-size="52.0" fill="#000000" transform="matrix(1.00, 0.00, -0.00, -1.00, 1089.0, 773.0)">o</text><text xml:space="preserve" font-family="GillSans" font-size="52.0" fill="#000000" transform="matrix(1.00, 0.00, -0.00, -1.00, 1117.6, 773.0)">l</text><text xml:space="preserve" font-family="GillSans" font-size="52.0" fill="#000000" transform="matrix(1.00, 0.00, -0.00, -1.00, 1129.1, 773.0)">s</text><text xml:space="preserve" font-family="GillSans" font-size="52.0" fill="#000000" transform="matrix(1.00, 0.00, -0.00, -1.00, 1149.1, 773.0)"> </text><text xml:space="preserve" font-family="GillSans" font-size="52.0" fill="#000000" transform="matrix(1.00, 0.00, -0.00, -1.00, 1163.5, 773.0)">a</text><text xml:space="preserve" font-family="GillSans" font-size="52.0" fill="#000000" transform="matrix(1.00, 0.00, -0.00, -1.00, 1185.7, 773.0)">n</text><text xml:space="preserve" font-family="GillSans" font-size="52.0" fill="#000000" transform="matrix(1.00, 0.00, -0.00, -1.00, 1211.7, 773.0)">d</text><text xml:space="preserve" font-family="GillSans" font-size="52.0" fill="#000000" transform="matrix(1.00, 0.00, -0.00, -1.00, 1238.2, 773.0)"> </text><text xml:space="preserve" font-family="GillSans" font-size="52.0" fill="#00872A" transform="matrix(1.00, 0.00, -0.00, -1.00, 1252.7, 773.0)">c</text><text xml:space="preserve" font-family="GillSans" font-size="52.0" fill="#00872A" transform="matrix(1.00, 0.00, -0.00, -1.00, 1275.5, 773.0)">h</text><text xml:space="preserve" font-family="GillSans" font-size="52.0" fill="#00872A" transform="matrix(1.00, 0.00, -0.00, -1.00, 1301.5, 773.0)">a</text><text xml:space="preserve" font-family="GillSans" font-size="52.0" fill="#00872A" transform="matrix(1.00, 0.00, -0.00, -1.00, 1323.7, 773.0)">n</text><text xml:space="preserve" font-family="GillSans" font-size="52.0" fill="#00872A" transform="matrix(1.00, 0.00, -0.00, -1.00, 1349.7, 773.0)">g</text><text xml:space="preserve" font-family="GillSans" font-size="52.0" fill="#00872A" transform="matrix(1.00, 0.00, -0.00, -1.00, 1371.9, 773.0)">e</text><text xml:space="preserve" font-family="GillSans" font-size="52.0" fill="#00872A" transform="matrix(1.00, 0.00, -0.00, -1.00, 1396.8, 773.0)">s</text><text xml:space="preserve" font-family="GillSans" font-size="52.0" fill="#000000" transform="matrix(1.00, 0.00, -0.00, -1.00, 1416.8, 773.0)"> </text><text xml:space="preserve" font-family="GillSans" font-size="52.0" fill="#000000" transform="matrix(1.00, 0.00, -0.00, -1.00, 1431.3, 773.0)">b</text><text xml:space="preserve" font-family="GillSans" font-size="52.0" fill="#000000" transform="matrix(1.00, 0.00, -0.00, -1.00, 1457.3, 773.0)">a</text><text xml:space="preserve" font-family="GillSans" font-size="52.0" fill="#000000" transform="matrix(1.00, 0.00, -0.00, -1.00, 1479.4, 773.0)">c</text><text xml:space="preserve" font-family="GillSans" font-size="52.0" fill="#000000" transform="matrix(1.00, 0.00, -0.00, -1.00, 1502.2, 773.0)">k</text><text xml:space="preserve" font-family="GillSans" font-size="52.0" fill="#000000" transform="matrix(1.00, 0.00, -0.00, -1.00, 1527.1, 773.0)"> </text><text xml:space="preserve" font-family="GillSans" font-size="52.0" fill="#000000" transform="matrix(1.00, 0.00, -0.00, -1.00, 1541.6, 773.0)">t</text><text xml:space="preserve" font-family="GillSans" font-size="52.0" fill="#000000" transform="matrix(1.00, 0.00, -0.00, -1.00, 1558.9, 773.0)">o</text><text xml:space="preserve" font-family="GillSans" font-size="52.0" fill="#000000" transform="matrix(1.00, 0.00, -0.00, -1.00, 1587.5, 773.0)"> </text><text xml:space="preserve" font-family="GillSans" font-size="52.0" fill="#C82505" transform="matrix(1.00, 0.00, -0.00, -1.00, 1602.0, 773.0)">l</text><text xml:space="preserve" font-family="GillSans" font-size="52.0" fill="#C82505" transform="matrix(1.00, 0.00, -0.00, -1.00, 1613.4, 773.0)">i</text><text xml:space="preserve" font-family="GillSans" font-size="52.0" fill="#C82505" transform="matrix(1.00, 0.00, -0.00, -1.00, 1624.9, 773.0)">q</text><text xml:space="preserve" font-family="GillSans" font-size="52.0" fill="#C82505" transform="matrix(1.00, 0.00, -0.00, -1.00, 1650.9, 773.0)">u</text><text xml:space="preserve" font-family="GillSans" font-size="52.0" fill="#C82505" transform="matrix(1.00, 0.00, -0.00, -1.00, 1676.9, 773.0)">i</text><text xml:space="preserve" font-family="GillSans" font-size="52.0" fill="#C82505" transform="matrix(1.00, 0.00, -0.00, -1.00, 1688.3, 773.0)">d</text><text xml:space="preserve" font-family="GillSans" font-size="52.0" fill="#000000" transform="matrix(1.00, 0.00, -0.00, -1.00, 1714.7, 773.0)">.</text><text xml:space="preserve" font-family="GillSans" font-size="52.0" fill="#000000" transform="matrix(1.00, 0.00, -0.00, -1.00, 1721.0, 773.0)"> </text><text xml:space="preserve" font-family="GillSans" font-size="52.0" fill="#C82505" transform="matrix(1.00, 0.00, -0.00, -1.00, 137.0, 713.0)">T</text><text xml:space="preserve" font-family="GillSans" font-size="52.0" fill="#C82505" transform="matrix(1.00, 0.00, -0.00, -1.00, 168.4, 713.0)">i</text><text xml:space="preserve" font-family="GillSans" font-size="52.0" fill="#C82505" transform="matrix(1.00, 0.00, -0.00, -1.00, 179.8, 713.0)">n</text><text xml:space="preserve" font-family="GillSans" font-size="52.0" fill="#C82505" transform="matrix(1.00, 0.00, -0.00, -1.00, 204.8, 713.0)">y</text><text xml:space="preserve" font-family="GillSans" font-size="52.0" fill="#C82505" transform="matrix(1.00, 0.00, -0.00, -1.00, 227.6, 713.0)"> </text><text xml:space="preserve" font-family="GillSans" font-size="52.0" fill="#C82505" transform="matrix(1.00, 0.00, -0.00, -1.00, 242.0, 713.0)">d</text><text xml:space="preserve" font-family="GillSans" font-size="52.0" fill="#C82505" transform="matrix(1.00, 0.00, -0.00, -1.00, 268.5, 713.0)">r</text><text xml:space="preserve" font-family="GillSans" font-size="52.0" fill="#C82505" transform="matrix(1.00, 0.00, -0.00, -1.00, 287.8, 713.0)">o</text><text xml:space="preserve" font-family="GillSans" font-size="52.0" fill="#C82505" transform="matrix(1.00, 0.00, -0.00, -1.00, 316.5, 713.0)">p</text><text xml:space="preserve" font-family="GillSans" font-size="52.0" fill="#C82505" transform="matrix(1.00, 0.00, -0.00, -1.00, 342.5, 713.0)">s</text><text xml:space="preserve" font-family="GillSans" font-size="52.0" fill="#C82505" transform="matrix(1.00, 0.00, -0.00, -1.00, 362.5, 713.0)"> </text><text xml:space="preserve" font-family="GillSans" font-size="52.0" fill="#C82505" transform="matrix(1.00, 0.00, -0.00, -1.00, 376.9, 713.0)">o</text><text xml:space="preserve" font-family="GillSans" font-size="52.0" fill="#C82505" transform="matrix(1.00, 0.00, -0.00, -1.00, 405.6, 713.0)">f</text><text xml:space="preserve" font-family="GillSans" font-size="52.0" fill="#C82505" transform="matrix(1.00, 0.00, -0.00, -1.00, 418.6, 713.0)"> </text><text xml:space="preserve" font-family="GillSans" font-size="52.0" fill="#C82505" transform="matrix(1.00, 0.00, -0.00, -1.00, 433.0, 713.0)">l</text><text xml:space="preserve" font-family="GillSans" font-size="52.0" fill="#C82505" transform="matrix(1.00, 0.00, -0.00, -1.00, 444.4, 713.0)">i</text><text xml:space="preserve" font-family="GillSans" font-size="52.0" fill="#C82505" transform="matrix(1.00, 0.00, -0.00, -1.00, 455.8, 713.0)">q</text><text xml:space="preserve" font-family="GillSans" font-size="52.0" fill="#C82505" transform="matrix(1.00, 0.00, -0.00, -1.00, 481.8, 713.0)">u</text><text xml:space="preserve" font-family="GillSans" font-size="52.0" fill="#C82505" transform="matrix(1.00, 0.00, -0.00, -1.00, 507.8, 713.0)">i</text><text xml:space="preserve" font-family="GillSans" font-size="52.0" fill="#C82505" transform="matrix(1.00, 0.00, -0.00, -1.00, 519.3, 713.0)">d</text><text xml:space="preserve" font-family="GillSans" font-size="52.0" fill="#000000" transform="matrix(1.00, 0.00, -0.00, -1.00, 545.8, 713.0)"> </text><text xml:space="preserve" font-family="GillSans" font-size="52.0" fill="#000000" transform="matrix(1.00, 0.00, -0.00, -1.00, 560.2, 713.0)">f</text><text xml:space="preserve" font-family="GillSans" font-size="52.0" fill="#000000" transform="matrix(1.00, 0.00, -0.00, -1.00, 572.7, 713.0)">o</text><text xml:space="preserve" font-family="GillSans" font-size="52.0" fill="#000000" transform="matrix(1.00, 0.00, -0.00, -1.00, 601.4, 713.0)">r</text><text xml:space="preserve" font-family="GillSans" font-size="52.0" fill="#000000" transform="matrix(1.00, 0.00, -0.00, -1.00, 622.0, 713.0)">m</text><text xml:space="preserve" font-family="GillSans" font-size="52.0" fill="#000000" transform="matrix(1.00, 0.00, -0.00, -1.00, 662.1, 713.0)"> </text><text xml:space="preserve" font-family="GillSans" font-size="52.0" fill="#C82505" transform="matrix(1.00, 0.00, -0.00, -1.00, 676.6, 713.0)">c</text><text xml:space="preserve" font-family="GillSans" font-size="52.0" fill="#C82505" transform="matrix(1.00, 0.00, -0.00, -1.00, 699.3, 713.0)">l</text><text xml:space="preserve" font-family="GillSans" font-size="52.0" fill="#C82505" transform="matrix(1.00, 0.00, -0.00, -1.00, 710.7, 713.0)">o</text><text xml:space="preserve" font-family="GillSans" font-size="52.0" fill="#C82505" transform="matrix(1.00, 0.00, -0.00, -1.00, 739.4, 713.0)">u</text><text xml:space="preserve" font-family="GillSans" font-size="52.0" fill="#C82505" transform="matrix(1.00, 0.00, -0.00, -1.00, 765.4, 713.0)">d</text><text xml:space="preserve" font-family="GillSans" font-size="52.0" fill="#C82505" transform="matrix(1.00, 0.00, -0.00, -1.00, 791.9, 713.0)">s</text><text xml:space="preserve" font-family="GillSans" font-size="52.0" fill="#000000" transform="matrix(1.00, 0.00, -0.00, -1.00, 811.9, 713.0)"> </text><text xml:space="preserve" font-family="GillSans" font-size="52.0" fill="#000000" transform="matrix(1.00, 0.00, -0.00, -1.00, 826.4, 713.0)">i</text><text xml:space="preserve" font-family="GillSans" font-size="52.0" fill="#000000" transform="matrix(1.00, 0.00, -0.00, -1.00, 837.8, 713.0)">n</text><text xml:space="preserve" font-family="GillSans" font-size="52.0" fill="#000000" transform="matrix(1.00, 0.00, -0.00, -1.00, 863.8, 713.0)"> </text><text xml:space="preserve" font-family="GillSans" font-size="52.0" fill="#000000" transform="matrix(1.00, 0.00, -0.00, -1.00, 878.2, 713.0)">t</text><text xml:space="preserve" font-family="GillSans" font-size="52.0" fill="#000000" transform="matrix(1.00, 0.00, -0.00, -1.00, 895.5, 713.0)">h</text><text xml:space="preserve" font-family="GillSans" font-size="52.0" fill="#000000" transform="matrix(1.00, 0.00, -0.00, -1.00, 921.5, 713.0)">i</text><text xml:space="preserve" font-family="GillSans" font-size="52.0" fill="#000000" transform="matrix(1.00, 0.00, -0.00, -1.00, 932.9, 713.0)">s</text><text xml:space="preserve" font-family="GillSans" font-size="52.0" fill="#000000" transform="matrix(1.00, 0.00, -0.00, -1.00, 952.9, 713.0)"> </text><text xml:space="preserve" font-family="GillSans" font-size="52.0" fill="#000000" transform="matrix(1.00, 0.00, -0.00, -1.00, 967.4, 713.0)">p</text><text xml:space="preserve" font-family="GillSans" font-size="52.0" fill="#000000" transform="matrix(1.00, 0.00, -0.00, -1.00, 993.4, 713.0)">r</text><text xml:space="preserve" font-family="GillSans" font-size="52.0" fill="#000000" transform="matrix(1.00, 0.00, -0.00, -1.00, 1012.7, 713.0)">o</text><text xml:space="preserve" font-family="GillSans" font-size="52.0" fill="#000000" transform="matrix(1.00, 0.00, -0.00, -1.00, 1041.4, 713.0)">c</text><text xml:space="preserve" font-family="GillSans" font-size="52.0" fill="#000000" transform="matrix(1.00, 0.00, -0.00, -1.00, 1064.1, 713.0)">e</text><text xml:space="preserve" font-family="GillSans" font-size="52.0" fill="#000000" transform="matrix(1.00, 0.00, -0.00, -1.00, 1089.0, 713.0)">s</text><text xml:space="preserve" font-family="GillSans" font-size="52.0" fill="#000000" transform="matrix(1.00, 0.00, -0.00, -1.00, 1109.0, 713.0)">s</text><text xml:space="preserve" font-family="GillSans" font-size="52.0" fill="#000000" transform="matrix(1.00, 0.00, -0.00, -1.00, 1129.0, 713.0)"> </text><text xml:space="preserve" font-family="GillSans" font-size="52.0" fill="#000000" transform="matrix(1.00, 0.00, -0.00, -1.00, 1143.5, 713.0)">c</text><text xml:space="preserve" font-family="GillSans" font-size="52.0" fill="#000000" transform="matrix(1.00, 0.00, -0.00, -1.00, 1166.2, 713.0)">a</text><text xml:space="preserve" font-family="GillSans" font-size="52.0" fill="#000000" transform="matrix(1.00, 0.00, -0.00, -1.00, 1188.4, 713.0)">l</text><text xml:space="preserve" font-family="GillSans" font-size="52.0" fill="#000000" transform="matrix(1.00, 0.00, -0.00, -1.00, 1199.8, 713.0)">l</text><text xml:space="preserve" font-family="GillSans" font-size="52.0" fill="#000000" transform="matrix(1.00, 0.00, -0.00, -1.00, 1211.3, 713.0)">e</text><text xml:space="preserve" font-family="GillSans" font-size="52.0" fill="#000000" transform="matrix(1.00, 0.00, -0.00, -1.00, 1236.2, 713.0)">d</text><text xml:space="preserve" font-family="LucidaGrande" font-size="52.0" fill="#000000" transform="matrix(1.00, 0.00, -0.00, -1.00, 1262.7, 713.0)"> </text><text xml:space="preserve" font-family="GillSans" font-size="52.0" fill="#000000" transform="matrix(1.00, 0.00, -0.00, -1.00, 207.0, 563.0)">(</text><text xml:space="preserve" font-family="GillSans" font-size="52.0" fill="#000000" transform="matrix(1.00, 0.00, -0.00, -1.00, 223.8, 563.0)">A</text><text xml:space="preserve" font-family="GillSans" font-size="52.0" fill="#000000" transform="matrix(1.00, 0.00, -0.00, -1.00, 258.5, 563.0)">)</text><text xml:space="preserve" font-family="GillSans" font-size="52.0" fill="#000000" transform="matrix(1.00, 0.00, -0.00, -1.00, 297.0, 563.0)">c</text><text xml:space="preserve" font-family="GillSans" font-size="52.0" fill="#000000" transform="matrix(1.00, 0.00, -0.00, -1.00, 319.8, 563.0)">o</text><text xml:space="preserve" font-family="GillSans" font-size="52.0" fill="#000000" transform="matrix(1.00, 0.00, -0.00, -1.00, 348.5, 563.0)">n</text><text xml:space="preserve" font-family="GillSans" font-size="52.0" fill="#000000" transform="matrix(1.00, 0.00, -0.00, -1.00, 374.5, 563.0)">d</text><text xml:space="preserve" font-family="GillSans" font-size="52.0" fill="#000000" transform="matrix(1.00, 0.00, -0.00, -1.00, 401.0, 563.0)">e</text><text xml:space="preserve" font-family="GillSans" font-size="52.0" fill="#000000" transform="matrix(1.00, 0.00, -0.00, -1.00, 425.9, 563.0)">n</text><text xml:space="preserve" font-family="GillSans" font-size="52.0" fill="#000000" transform="matrix(1.00, 0.00, -0.00, -1.00, 451.9, 563.0)">s</text><text xml:space="preserve" font-family="GillSans" font-size="52.0" fill="#000000" transform="matrix(1.00, 0.00, -0.00, -1.00, 471.9, 563.0)">a</text><text xml:space="preserve" font-family="GillSans" font-size="52.0" fill="#000000" transform="matrix(1.00, 0.00, -0.00, -1.00, 494.0, 563.0)">t</text><text xml:space="preserve" font-family="GillSans" font-size="52.0" fill="#000000" transform="matrix(1.00, 0.00, -0.00, -1.00, 511.4, 563.0)">i</text><text xml:space="preserve" font-family="GillSans" font-size="52.0" fill="#000000" transform="matrix(1.00, 0.00, -0.00, -1.00, 522.8, 563.0)">o</text><text xml:space="preserve" font-family="GillSans" font-size="52.0" fill="#000000" transform="matrix(1.00, 0.00, -0.00, -1.00, 551.4, 563.0)">n</text><text xml:space="preserve" font-family="GillSans" font-size="52.0" fill="#000000" transform="matrix(1.00, 0.00, -0.00, -1.00, 207.0, 473.0)">(</text><text xml:space="preserve" font-family="GillSans" font-size="52.0" fill="#000000" transform="matrix(1.00, 0.00, -0.00, -1.00, 223.8, 473.0)">B</text><text xml:space="preserve" font-family="GillSans" font-size="52.0" fill="#000000" transform="matrix(1.00, 0.00, -0.00, -1.00, 253.1, 473.0)">)</text><text xml:space="preserve" font-family="GillSans" font-size="52.0" fill="#000000" transform="matrix(1.00, 0.00, -0.00, -1.00, 297.0, 473.0)">e</text><text xml:space="preserve" font-family="GillSans" font-size="52.0" fill="#000000" transform="matrix(1.00, 0.00, -0.00, -1.00, 321.1, 473.0)">v</text><text xml:space="preserve" font-family="GillSans" font-size="52.0" fill="#000000" transform="matrix(1.00, 0.00, -0.00, -1.00, 343.9, 473.0)">a</text><text xml:space="preserve" font-family="GillSans" font-size="52.0" fill="#000000" transform="matrix(1.00, 0.00, -0.00, -1.00, 365.6, 473.0)">p</text><text xml:space="preserve" font-family="GillSans" font-size="52.0" fill="#000000" transform="matrix(1.00, 0.00, -0.00, -1.00, 391.6, 473.0)">o</text><text xml:space="preserve" font-family="GillSans" font-size="52.0" fill="#000000" transform="matrix(1.00, 0.00, -0.00, -1.00, 420.3, 473.0)">r</text><text xml:space="preserve" font-family="GillSans" font-size="52.0" fill="#000000" transform="matrix(1.00, 0.00, -0.00, -1.00, 440.8, 473.0)">a</text><text xml:space="preserve" font-family="GillSans" font-size="52.0" fill="#000000" transform="matrix(1.00, 0.00, -0.00, -1.00, 463.0, 473.0)">t</text><text xml:space="preserve" font-family="GillSans" font-size="52.0" fill="#000000" transform="matrix(1.00, 0.00, -0.00, -1.00, 480.3, 473.0)">i</text><text xml:space="preserve" font-family="GillSans" font-size="52.0" fill="#000000" transform="matrix(1.00, 0.00, -0.00, -1.00, 491.8, 473.0)">o</text><text xml:space="preserve" font-family="GillSans" font-size="52.0" fill="#000000" transform="matrix(1.00, 0.00, -0.00, -1.00, 520.4, 473.0)">n</text><text xml:space="preserve" font-family="GillSans" font-size="52.0" fill="#000000" transform="matrix(1.00, 0.00, -0.00, -1.00, 207.0, 383.0)">(</text><text xml:space="preserve" font-family="GillSans" font-size="52.0" fill="#000000" transform="matrix(1.00, 0.00, -0.00, -1.00, 223.8, 383.0)">C</text><text xml:space="preserve" font-family="GillSans" font-size="52.0" fill="#000000" transform="matrix(1.00, 0.00, -0.00, -1.00, 260.6, 383.0)">)</text><text xml:space="preserve" font-family="GillSans" font-size="52.0" fill="#000000" transform="matrix(1.00, 0.00, -0.00, -1.00, 297.0, 383.0)">p</text><text xml:space="preserve" font-family="GillSans" font-size="52.0" fill="#000000" transform="matrix(1.00, 0.00, -0.00, -1.00, 323.0, 383.0)">r</text><text xml:space="preserve" font-family="GillSans" font-size="52.0" fill="#000000" transform="matrix(1.00, 0.00, -0.00, -1.00, 342.6, 383.0)">e</text><text xml:space="preserve" font-family="GillSans" font-size="52.0" fill="#000000" transform="matrix(1.00, 0.00, -0.00, -1.00, 367.5, 383.0)">c</text><text xml:space="preserve" font-family="GillSans" font-size="52.0" fill="#000000" transform="matrix(1.00, 0.00, -0.00, -1.00, 390.2, 383.0)">i</text><text xml:space="preserve" font-family="GillSans" font-size="52.0" fill="#000000" transform="matrix(1.00, 0.00, -0.00, -1.00, 401.6, 383.0)">p</text><text xml:space="preserve" font-family="GillSans" font-size="52.0" fill="#000000" transform="matrix(1.00, 0.00, -0.00, -1.00, 427.6, 383.0)">i</text><text xml:space="preserve" font-family="GillSans" font-size="52.0" fill="#000000" transform="matrix(1.00, 0.00, -0.00, -1.00, 439.1, 383.0)">t</text><text xml:space="preserve" font-family="GillSans" font-size="52.0" fill="#000000" transform="matrix(1.00, 0.00, -0.00, -1.00, 456.4, 383.0)">a</text><text xml:space="preserve" font-family="GillSans" font-size="52.0" fill="#000000" transform="matrix(1.00, 0.00, -0.00, -1.00, 478.6, 383.0)">t</text><text xml:space="preserve" font-family="GillSans" font-size="52.0" fill="#000000" transform="matrix(1.00, 0.00, -0.00, -1.00, 495.9, 383.0)">i</text><text xml:space="preserve" font-family="GillSans" font-size="52.0" fill="#000000" transform="matrix(1.00, 0.00, -0.00, -1.00, 507.3, 383.0)">o</text><text xml:space="preserve" font-family="GillSans" font-size="52.0" fill="#000000" transform="matrix(1.00, 0.00, -0.00, -1.00, 536.0, 383.0)">n</text><text xml:space="preserve" font-family="GillSans" font-size="52.0" fill="#000000" transform="matrix(1.00, 0.00, -0.00, -1.00, 207.0, 293.0)">(</text><text xml:space="preserve" font-family="GillSans" font-size="52.0" fill="#000000" transform="matrix(1.00, 0.00, -0.00, -1.00, 223.8, 293.0)">D</text><text xml:space="preserve" font-family="GillSans" font-size="52.0" fill="#000000" transform="matrix(1.00, 0.00, -0.00, -1.00, 262.8, 293.0)">)</text><text xml:space="preserve" font-family="GillSans" font-size="52.0" fill="#000000" transform="matrix(1.00, 0.00, -0.00, -1.00, 297.0, 293.0)">r</text><text xml:space="preserve" font-family="GillSans" font-size="52.0" fill="#000000" transform="matrix(1.00, 0.00, -0.00, -1.00, 317.6, 293.0)">u</text><text xml:space="preserve" font-family="GillSans" font-size="52.0" fill="#000000" transform="matrix(1.00, 0.00, -0.00, -1.00, 343.6, 293.0)">n</text><text xml:space="preserve" font-family="GillSans" font-size="52.0" fill="#000000" transform="matrix(1.00, 0.00, -0.00, -1.00, 369.6, 293.0)">-</text><text xml:space="preserve" font-family="GillSans" font-size="52.0" fill="#000000" transform="matrix(1.00, 0.00, -0.00, -1.00, 386.4, 293.0)">o</text><text xml:space="preserve" font-family="GillSans" font-size="52.0" fill="#000000" transform="matrix(1.00, 0.00, -0.00, -1.00, 415.1, 293.0)">f</text><text xml:space="preserve" font-family="GillSans" font-size="52.0" fill="#000000" transform="matrix(1.00, 0.00, -0.00, -1.00, 428.1, 293.0)">f</text></g></svg>