<?xml version="1.0" encoding="UTF-8" standalone="no"?><svg xmlns="http://www.w3.org/2000/svg" xmlns:xlink="http://www.w3.org/1999/xlink" clip-rule="evenodd" stroke-miterlimit="4.00" viewBox="0 0 1658 202"><desc>SVG generated by Keynote</desc><defs></defs><g transform="matrix(1.00, 0.00, -0.00, -1.00, 0.0, 202.0)"><path d="M 15.3 199.2 L 1642.7 199.2 C 1646.5 199.2 1648.5 199.2 1650.5 198.5 C 1652.8 197.7 1654.5 195.9 1655.3 193.7 C 1656.0 191.6 1656.0 189.7 1656.0 185.8 L 1656.0 16.1 C 1656.0 12.3 1656.0 10.4 1655.3 8.3 C 1654.5 6.1 1652.8 4.3 1650.5 3.5 C 1648.5 2.9 1646.5 2.9 1642.7 2.9 L 15.3 2.9 C 11.5 2.9 9.5 2.9 7.5 3.5 C 5.2 4.3 3.5 6.1 2.7 8.3 C 2.0 10.4 2.0 12.3 2.0 16.2 L 2.0 185.9 C 2.0 189.7 2.0 191.6 2.7 193.7 C 3.5 195.9 5.2 197.7 7.5 198.5 C 9.5 199.2 11.5 199.2 15.3 199.2 Z M 15.3 199.2 " fill="#FEFFFF"></path><path d="M 13.3 0.0 L 1640.7 0.0 C 1644.5 0.0 1646.5 0.0 1648.5 0.7 C 1650.8 1.5 1652.5 3.2 1653.3 5.5 C 1654.0 7.5 1654.0 9.5 1654.0 13.3 L 1654.0 183.0 C 1654.0 186.8 1654.0 188.8 1653.3 190.8 C 1652.5 193.1 1650.8 194.8 1648.5 195.6 C 1646.5 196.3 1644.5 196.3 1640.7 196.3 L 13.3 196.3 C 9.5 196.3 7.5 196.3 5.5 195.6 C 3.2 194.8 1.5 193.1 0.7 190.8 C 0.0 188.8 0.0 186.8 0.0 183.0 L 0.0 13.3 C 0.0 9.5 0.0 7.5 0.7 5.5 C 1.5 3.2 3.2 1.5 5.5 0.7 C 7.5 0.0 9.5 0.0 13.3 0.0 Z M 13.3 0.0 " fill="none" stroke="#0264C0" stroke-width="2.00" transform="matrix(1.00, 0.00, 0.00, -1.00, 2.0, 199.2)"></path><g><clipPath id="clip-10775"><path d="M 0.1 2.9 L 1657.9 2.9 L 1657.9 199.2 L 0.1 199.2 Z M 0.1 2.9 "></path></clipPath><g clip-path="url(#clip-10775)"><text xml:space="preserve" font-family="GillSans" font-size="45.0" fill="#000000" transform="matrix(1.00, 0.00, -0.00, -1.00, 52.0, 131.0)">T</text><text xml:space="preserve" font-family="GillSans" font-size="45.0" fill="#000000" transform="matrix(1.00, 0.00, -0.00, -1.00, 79.2, 131.0)">h</text><text xml:space="preserve" font-family="GillSans" font-size="45.0" fill="#000000" transform="matrix(1.00, 0.00, -0.00, -1.00, 101.7, 131.0)">e</text><text xml:space="preserve" font-family="GillSans" font-size="45.0" fill="#000000" transform="matrix(1.00, 0.00, -0.00, -1.00, 123.2, 131.0)"> </text><text xml:space="preserve" font-family="GillSans" font-size="45.0" fill="#000000" transform="matrix(1.00, 0.00, -0.00, -1.00, 135.7, 131.0)">m</text><text xml:space="preserve" font-family="GillSans" font-size="45.0" fill="#000000" transform="matrix(1.00, 0.00, -0.00, -1.00, 170.4, 131.0)">e</text><text xml:space="preserve" font-family="GillSans" font-size="45.0" fill="#000000" transform="matrix(1.00, 0.00, -0.00, -1.00, 192.0, 131.0)">m</text><text xml:space="preserve" font-family="GillSans" font-size="45.0" fill="#000000" transform="matrix(1.00, 0.00, -0.00, -1.00, 226.7, 131.0)">o</text><text xml:space="preserve" font-family="GillSans" font-size="45.0" fill="#000000" transform="matrix(1.00, 0.00, -0.00, -1.00, 251.5, 131.0)">r</text><text xml:space="preserve" font-family="GillSans" font-size="45.0" fill="#000000" transform="matrix(1.00, 0.00, -0.00, -1.00, 270.7, 131.0)">y</text><text xml:space="preserve" font-family="GillSans" font-size="45.0" fill="#000000" transform="matrix(1.00, 0.00, -0.00, -1.00, 290.4, 131.0)"> </text><text xml:space="preserve" font-family="GillSans" font-size="45.0" fill="#000000" transform="matrix(1.00, 0.00, -0.00, -1.00, 302.9, 131.0)">i</text><text xml:space="preserve" font-family="GillSans" font-size="45.0" fill="#000000" transform="matrix(1.00, 0.00, -0.00, -1.00, 312.7, 131.0)">n</text><text xml:space="preserve" font-family="GillSans" font-size="45.0" fill="#000000" transform="matrix(1.00, 0.00, -0.00, -1.00, 335.2, 131.0)"> </text><text xml:space="preserve" font-family="GillSans" font-size="45.0" fill="#000000" transform="matrix(1.00, 0.00, -0.00, -1.00, 347.7, 131.0)">t</text><text xml:space="preserve" font-family="GillSans" font-size="45.0" fill="#000000" transform="matrix(1.00, 0.00, -0.00, -1.00, 362.7, 131.0)">h</text><text xml:space="preserve" font-family="GillSans" font-size="45.0" fill="#000000" transform="matrix(1.00, 0.00, -0.00, -1.00, 385.2, 131.0)">e</text><text xml:space="preserve" font-family="GillSans" font-size="45.0" fill="#000000" transform="matrix(1.00, 0.00, -0.00, -1.00, 406.8, 131.0)">s</text><text xml:space="preserve" font-family="GillSans" font-size="45.0" fill="#000000" transform="matrix(1.00, 0.00, -0.00, -1.00, 424.1, 131.0)">e</text><text xml:space="preserve" font-family="GillSans" font-size="45.0" fill="#000000" transform="matrix(1.00, 0.00, -0.00, -1.00, 445.6, 131.0)"> </text><text xml:space="preserve" font-family="GillSans" font-size="45.0" fill="#000000" transform="matrix(1.00, 0.00, -0.00, -1.00, 458.1, 131.0)">m</text><text xml:space="preserve" font-family="GillSans" font-size="45.0" fill="#000000" transform="matrix(1.00, 0.00, -0.00, -1.00, 492.8, 131.0)">o</text><text xml:space="preserve" font-family="GillSans" font-size="45.0" fill="#000000" transform="matrix(1.00, 0.00, -0.00, -1.00, 517.6, 131.0)">d</text><text xml:space="preserve" font-family="GillSans" font-size="45.0" fill="#000000" transform="matrix(1.00, 0.00, -0.00, -1.00, 540.6, 131.0)">e</text><text xml:space="preserve" font-family="GillSans" font-size="45.0" fill="#000000" transform="matrix(1.00, 0.00, -0.00, -1.00, 562.1, 131.0)">l</text><text xml:space="preserve" font-family="GillSans" font-size="45.0" fill="#000000" transform="matrix(1.00, 0.00, -0.00, -1.00, 572.0, 131.0)">s</text><text xml:space="preserve" font-family="GillSans" font-size="45.0" fill="#000000" transform="matrix(1.00, 0.00, -0.00, -1.00, 589.3, 131.0)"> </text><text xml:space="preserve" font-family="GillSans" font-size="45.0" fill="#000000" transform="matrix(1.00, 0.00, -0.00, -1.00, 601.8, 131.0)">i</text><text xml:space="preserve" font-family="GillSans" font-size="45.0" fill="#000000" transform="matrix(1.00, 0.00, -0.00, -1.00, 611.7, 131.0)">s</text><text xml:space="preserve" font-family="GillSans" font-size="45.0" fill="#000000" transform="matrix(1.00, 0.00, -0.00, -1.00, 629.0, 131.0)"> </text><text xml:space="preserve" font-family="GillSans" font-size="45.0" fill="#000000" transform="matrix(1.00, 0.00, -0.00, -1.00, 641.5, 131.0)">t</text><text xml:space="preserve" font-family="GillSans" font-size="45.0" fill="#000000" transform="matrix(1.00, 0.00, -0.00, -1.00, 656.5, 131.0)">h</text><text xml:space="preserve" font-family="GillSans" font-size="45.0" fill="#000000" transform="matrix(1.00, 0.00, -0.00, -1.00, 679.0, 131.0)">e</text><text xml:space="preserve" font-family="GillSans" font-size="45.0" fill="#000000" transform="matrix(1.00, 0.00, -0.00, -1.00, 700.5, 131.0)"> </text><text xml:space="preserve" font-family="GillSans" font-size="45.0" fill="#000000" transform="matrix(1.00, 0.00, -0.00, -1.00, 713.0, 131.0)">s</text><text xml:space="preserve" font-family="GillSans" font-size="45.0" fill="#000000" transform="matrix(1.00, 0.00, -0.00, -1.00, 730.3, 131.0)">t</text><text xml:space="preserve" font-family="GillSans" font-size="45.0" fill="#000000" transform="matrix(1.00, 0.00, -0.00, -1.00, 745.3, 131.0)">a</text><text xml:space="preserve" font-family="GillSans" font-size="45.0" fill="#000000" transform="matrix(1.00, 0.00, -0.00, -1.00, 764.5, 131.0)">t</text><text xml:space="preserve" font-family="GillSans" font-size="45.0" fill="#000000" transform="matrix(1.00, 0.00, -0.00, -1.00, 779.5, 131.0)">e</text><text xml:space="preserve" font-family="GillSans" font-size="45.0" fill="#000000" transform="matrix(1.00, 0.00, -0.00, -1.00, 801.0, 131.0)"> </text><text xml:space="preserve" font-family="GillSans" font-size="45.0" fill="#000000" transform="matrix(1.00, 0.00, -0.00, -1.00, 813.5, 131.0)">o</text><text xml:space="preserve" font-family="GillSans" font-size="45.0" fill="#000000" transform="matrix(1.00, 0.00, -0.00, -1.00, 838.3, 131.0)">f</text><text xml:space="preserve" font-family="GillSans" font-size="45.0" fill="#000000" transform="matrix(1.00, 0.00, -0.00, -1.00, 849.6, 131.0)"> </text><text xml:space="preserve" font-family="GillSans" font-size="45.0" fill="#000000" transform="matrix(1.00, 0.00, -0.00, -1.00, 862.1, 131.0)">t</text><text xml:space="preserve" font-family="GillSans" font-size="45.0" fill="#000000" transform="matrix(1.00, 0.00, -0.00, -1.00, 877.1, 131.0)">h</text><text xml:space="preserve" font-family="GillSans" font-size="45.0" fill="#000000" transform="matrix(1.00, 0.00, -0.00, -1.00, 899.6, 131.0)">e</text><text xml:space="preserve" font-family="GillSans" font-size="45.0" fill="#000000" transform="matrix(1.00, 0.00, -0.00, -1.00, 921.1, 131.0)"> </text><text xml:space="preserve" font-family="GillSans" font-size="45.0" fill="#000000" transform="matrix(1.00, 0.00, -0.00, -1.00, 933.6, 131.0)">n</text><text xml:space="preserve" font-family="GillSans" font-size="45.0" fill="#000000" transform="matrix(1.00, 0.00, -0.00, -1.00, 956.1, 131.0)">e</text><text xml:space="preserve" font-family="GillSans" font-size="45.0" fill="#000000" transform="matrix(1.00, 0.00, -0.00, -1.00, 977.7, 131.0)">t</text><text xml:space="preserve" font-family="GillSans" font-size="45.0" fill="#000000" transform="matrix(1.00, 0.00, -0.00, -1.00, 992.7, 131.0)">w</text><text xml:space="preserve" font-family="GillSans" font-size="45.0" fill="#000000" transform="matrix(1.00, 0.00, -0.00, -1.00, 1024.1, 131.0)">o</text><text xml:space="preserve" font-family="GillSans" font-size="45.0" fill="#000000" transform="matrix(1.00, 0.00, -0.00, -1.00, 1049.0, 131.0)">r</text><text xml:space="preserve" font-family="GillSans" font-size="45.0" fill="#000000" transform="matrix(1.00, 0.00, -0.00, -1.00, 1066.8, 131.0)">k</text><text xml:space="preserve" font-family="GillSans" font-size="45.0" fill="#000000" transform="matrix(1.00, 0.00, -0.00, -1.00, 1088.3, 131.0)">,</text><text xml:space="preserve" font-family="GillSans" font-size="45.0" fill="#000000" transform="matrix(1.00, 0.00, -0.00, -1.00, 1093.7, 131.0)"> </text><text xml:space="preserve" font-family="GillSans" font-size="45.0" fill="#000000" transform="matrix(1.00, 0.00, -0.00, -1.00, 1106.2, 131.0)">w</text><text xml:space="preserve" font-family="GillSans" font-size="45.0" fill="#000000" transform="matrix(1.00, 0.00, -0.00, -1.00, 1138.6, 131.0)">h</text><text xml:space="preserve" font-family="GillSans" font-size="45.0" fill="#000000" transform="matrix(1.00, 0.00, -0.00, -1.00, 1161.1, 131.0)">i</text><text xml:space="preserve" font-family="GillSans" font-size="45.0" fill="#000000" transform="matrix(1.00, 0.00, -0.00, -1.00, 1170.9, 131.0)">c</text><text xml:space="preserve" font-family="GillSans" font-size="45.0" fill="#000000" transform="matrix(1.00, 0.00, -0.00, -1.00, 1190.7, 131.0)">h</text><text xml:space="preserve" font-family="GillSans" font-size="45.0" fill="#000000" transform="matrix(1.00, 0.00, -0.00, -1.00, 1213.2, 131.0)"> </text><text xml:space="preserve" font-family="GillSans" font-size="45.0" fill="#000000" transform="matrix(1.00, 0.00, -0.00, -1.00, 1225.6, 131.0)">i</text><text xml:space="preserve" font-family="GillSans" font-size="45.0" fill="#000000" transform="matrix(1.00, 0.00, -0.00, -1.00, 1235.5, 131.0)">s</text><text xml:space="preserve" font-family="GillSans" font-size="45.0" fill="#000000" transform="matrix(1.00, 0.00, -0.00, -1.00, 1252.8, 131.0)"> </text><text xml:space="preserve" font-family="GillSans" font-size="45.0" fill="#000000" transform="matrix(1.00, 0.00, -0.00, -1.00, 1265.3, 131.0)">l</text><text xml:space="preserve" font-family="GillSans" font-size="45.0" fill="#000000" transform="matrix(1.00, 0.00, -0.00, -1.00, 1275.2, 131.0)">a</text><text xml:space="preserve" font-family="GillSans" font-size="45.0" fill="#000000" transform="matrix(1.00, 0.00, -0.00, -1.00, 1294.4, 131.0)">t</text><text xml:space="preserve" font-family="GillSans" font-size="45.0" fill="#000000" transform="matrix(1.00, 0.00, -0.00, -1.00, 1309.4, 131.0)">e</text><text xml:space="preserve" font-family="GillSans" font-size="45.0" fill="#000000" transform="matrix(1.00, 0.00, -0.00, -1.00, 1330.9, 131.0)">n</text><text xml:space="preserve" font-family="GillSans" font-size="45.0" fill="#000000" transform="matrix(1.00, 0.00, -0.00, -1.00, 1353.4, 131.0)">t</text><text xml:space="preserve" font-family="GillSans" font-size="45.0" fill="#000000" transform="matrix(1.00, 0.00, -0.00, -1.00, 1368.4, 131.0)"> </text><text xml:space="preserve" font-family="GillSans" font-size="45.0" fill="#000000" transform="matrix(1.00, 0.00, -0.00, -1.00, 1380.9, 131.0)">(</text><text xml:space="preserve" font-family="GillSans" font-size="45.0" fill="#000000" transform="matrix(1.00, 0.00, -0.00, -1.00, 1395.5, 131.0)">i</text><text xml:space="preserve" font-family="GillSans" font-size="45.0" fill="#000000" transform="matrix(1.00, 0.00, -0.00, -1.00, 1405.3, 131.0)">.</text><text xml:space="preserve" font-family="GillSans" font-size="45.0" fill="#000000" transform="matrix(1.00, 0.00, -0.00, -1.00, 1415.2, 131.0)">e</text><text xml:space="preserve" font-family="GillSans" font-size="45.0" fill="#000000" transform="matrix(1.00, 0.00, -0.00, -1.00, 1437.7, 131.0)">.</text><text xml:space="preserve" font-family="GillSans" font-size="45.0" fill="#000000" transform="matrix(1.00, 0.00, -0.00, -1.00, 1447.5, 131.0)">,</text><text xml:space="preserve" font-family="GillSans" font-size="45.0" fill="#000000" transform="matrix(1.00, 0.00, -0.00, -1.00, 1452.9, 131.0)"> </text><text xml:space="preserve" font-family="GillSans" font-size="45.0" fill="#000000" transform="matrix(1.00, 0.00, -0.00, -1.00, 1465.4, 131.0)">h</text><text xml:space="preserve" font-family="GillSans" font-size="45.0" fill="#000000" transform="matrix(1.00, 0.00, -0.00, -1.00, 1487.9, 131.0)">i</text><text xml:space="preserve" font-family="GillSans" font-size="45.0" fill="#000000" transform="matrix(1.00, 0.00, -0.00, -1.00, 1497.8, 131.0)">d</text><text xml:space="preserve" font-family="GillSans" font-size="45.0" fill="#000000" transform="matrix(1.00, 0.00, -0.00, -1.00, 1520.3, 131.0)">d</text><text xml:space="preserve" font-family="GillSans" font-size="45.0" fill="#000000" transform="matrix(1.00, 0.00, -0.00, -1.00, 1543.2, 131.0)">e</text><text xml:space="preserve" font-family="GillSans" font-size="45.0" fill="#000000" transform="matrix(1.00, 0.00, -0.00, -1.00, 1564.8, 131.0)">n</text><text xml:space="preserve" font-family="GillSans" font-size="45.0" fill="#000000" transform="matrix(1.00, 0.00, -0.00, -1.00, 1587.3, 131.0)">;</text><text xml:space="preserve" font-family="GillSans" font-size="45.0" fill="#000000" transform="matrix(1.00, 0.00, -0.00, -1.00, 1593.1, 131.0)"> </text><text xml:space="preserve" font-family="GillSans" font-size="45.0" fill="#000000" transform="matrix(1.00, 0.00, -0.00, -1.00, 52.0, 80.0)">n</text><text xml:space="preserve" font-family="GillSans" font-size="45.0" fill="#000000" transform="matrix(1.00, 0.00, -0.00, -1.00, 74.5, 80.0)">o</text><text xml:space="preserve" font-family="GillSans" font-size="45.0" fill="#000000" transform="matrix(1.00, 0.00, -0.00, -1.00, 99.3, 80.0)"> </text><text xml:space="preserve" font-family="GillSans" font-size="45.0" fill="#000000" transform="matrix(1.00, 0.00, -0.00, -1.00, 111.8, 80.0)">e</text><text xml:space="preserve" font-family="GillSans" font-size="45.0" fill="#000000" transform="matrix(1.00, 0.00, -0.00, -1.00, 133.4, 80.0)">x</text><text xml:space="preserve" font-family="GillSans" font-size="45.0" fill="#000000" transform="matrix(1.00, 0.00, -0.00, -1.00, 155.9, 80.0)">p</text><text xml:space="preserve" font-family="GillSans" font-size="45.0" fill="#000000" transform="matrix(1.00, 0.00, -0.00, -1.00, 178.4, 80.0)">l</text><text xml:space="preserve" font-family="GillSans" font-size="45.0" fill="#000000" transform="matrix(1.00, 0.00, -0.00, -1.00, 188.2, 80.0)">i</text><text xml:space="preserve" font-family="GillSans" font-size="45.0" fill="#000000" transform="matrix(1.00, 0.00, -0.00, -1.00, 198.1, 80.0)">c</text><text xml:space="preserve" font-family="GillSans" font-size="45.0" fill="#000000" transform="matrix(1.00, 0.00, -0.00, -1.00, 217.8, 80.0)">i</text><text xml:space="preserve" font-family="GillSans" font-size="45.0" fill="#000000" transform="matrix(1.00, 0.00, -0.00, -1.00, 227.7, 80.0)">t</text><text xml:space="preserve" font-family="GillSans" font-size="45.0" fill="#000000" transform="matrix(1.00, 0.00, -0.00, -1.00, 242.7, 80.0)"> </text><text xml:space="preserve" font-family="GillSans" font-size="45.0" fill="#000000" transform="matrix(1.00, 0.00, -0.00, -1.00, 255.2, 80.0)">a</text><text xml:space="preserve" font-family="GillSans" font-size="45.0" fill="#000000" transform="matrix(1.00, 0.00, -0.00, -1.00, 274.4, 80.0)">c</text><text xml:space="preserve" font-family="GillSans" font-size="45.0" fill="#000000" transform="matrix(1.00, 0.00, -0.00, -1.00, 294.1, 80.0)">c</text><text xml:space="preserve" font-family="GillSans" font-size="45.0" fill="#000000" transform="matrix(1.00, 0.00, -0.00, -1.00, 313.8, 80.0)">e</text><text xml:space="preserve" font-family="GillSans" font-size="45.0" fill="#000000" transform="matrix(1.00, 0.00, -0.00, -1.00, 335.4, 80.0)">s</text><text xml:space="preserve" font-family="GillSans" font-size="45.0" fill="#000000" transform="matrix(1.00, 0.00, -0.00, -1.00, 352.7, 80.0)">s</text><text xml:space="preserve" font-family="GillSans" font-size="45.0" fill="#000000" transform="matrix(1.00, 0.00, -0.00, -1.00, 370.0, 80.0)">)</text><text xml:space="preserve" font-family="GillSans" font-size="45.0" fill="#000000" transform="matrix(1.00, 0.00, -0.00, -1.00, 384.5, 80.0)"> </text><text xml:space="preserve" font-family="GillSans" font-size="45.0" fill="#000000" transform="matrix(1.00, 0.00, -0.00, -1.00, 397.0, 80.0)">a</text><text xml:space="preserve" font-family="GillSans" font-size="45.0" fill="#000000" transform="matrix(1.00, 0.00, -0.00, -1.00, 416.2, 80.0)">n</text><text xml:space="preserve" font-family="GillSans" font-size="45.0" fill="#000000" transform="matrix(1.00, 0.00, -0.00, -1.00, 438.7, 80.0)">d</text><text xml:space="preserve" font-family="GillSans" font-size="45.0" fill="#000000" transform="matrix(1.00, 0.00, -0.00, -1.00, 461.6, 80.0)"> </text><text xml:space="preserve" font-family="GillSans" font-size="45.0" fill="#000000" transform="matrix(1.00, 0.00, -0.00, -1.00, 474.1, 80.0)">i</text><text xml:space="preserve" font-family="GillSans" font-size="45.0" fill="#000000" transform="matrix(1.00, 0.00, -0.00, -1.00, 484.0, 80.0)">n</text><text xml:space="preserve" font-family="GillSans" font-size="45.0" fill="#000000" transform="matrix(1.00, 0.00, -0.00, -1.00, 506.5, 80.0)">h</text><text xml:space="preserve" font-family="GillSans" font-size="45.0" fill="#000000" transform="matrix(1.00, 0.00, -0.00, -1.00, 529.0, 80.0)">e</text><text xml:space="preserve" font-family="GillSans" font-size="45.0" fill="#000000" transform="matrix(1.00, 0.00, -0.00, -1.00, 550.6, 80.0)">r</text><text xml:space="preserve" font-family="GillSans" font-size="45.0" fill="#000000" transform="matrix(1.00, 0.00, -0.00, -1.00, 567.5, 80.0)">e</text><text xml:space="preserve" font-family="GillSans" font-size="45.0" fill="#000000" transform="matrix(1.00, 0.00, -0.00, -1.00, 589.0, 80.0)">n</text><text xml:space="preserve" font-family="GillSans" font-size="45.0" fill="#000000" transform="matrix(1.00, 0.00, -0.00, -1.00, 611.5, 80.0)">t</text><text xml:space="preserve" font-family="GillSans" font-size="45.0" fill="#000000" transform="matrix(1.00, 0.00, -0.00, -1.00, 626.5, 80.0)">l</text><text xml:space="preserve" font-family="GillSans" font-size="45.0" fill="#000000" transform="matrix(1.00, 0.00, -0.00, -1.00, 636.0, 80.0)">y</text><text xml:space="preserve" font-family="GillSans" font-size="45.0" fill="#000000" transform="matrix(1.00, 0.00, -0.00, -1.00, 655.7, 80.0)"> </text><text xml:space="preserve" font-family="GillSans" font-size="45.0" fill="#000000" transform="matrix(1.00, 0.00, -0.00, -1.00, 668.2, 80.0)">u</text><text xml:space="preserve" font-family="GillSans" font-size="45.0" fill="#000000" transform="matrix(1.00, 0.00, -0.00, -1.00, 690.7, 80.0)">n</text><text xml:space="preserve" font-family="GillSans" font-size="45.0" fill="#000000" transform="matrix(1.00, 0.00, -0.00, -1.00, 713.2, 80.0)">s</text><text xml:space="preserve" font-family="GillSans" font-size="45.0" fill="#000000" transform="matrix(1.00, 0.00, -0.00, -1.00, 730.5, 80.0)">t</text><text xml:space="preserve" font-family="GillSans" font-size="45.0" fill="#000000" transform="matrix(1.00, 0.00, -0.00, -1.00, 745.5, 80.0)">a</text><text xml:space="preserve" font-family="GillSans" font-size="45.0" fill="#000000" transform="matrix(1.00, 0.00, -0.00, -1.00, 764.6, 80.0)">b</text><text xml:space="preserve" font-family="GillSans" font-size="45.0" fill="#000000" transform="matrix(1.00, 0.00, -0.00, -1.00, 787.1, 80.0)">l</text><text xml:space="preserve" font-family="GillSans" font-size="45.0" fill="#000000" transform="matrix(1.00, 0.00, -0.00, -1.00, 797.0, 80.0)">e</text><text xml:space="preserve" font-family="GillSans" font-size="45.0" fill="#000000" transform="matrix(1.00, 0.00, -0.00, -1.00, 818.6, 80.0)"> </text><text xml:space="preserve" font-family="GillSans" font-size="45.0" fill="#000000" transform="matrix(1.00, 0.00, -0.00, -1.00, 831.1, 80.0)">o</text><text xml:space="preserve" font-family="GillSans" font-size="45.0" fill="#000000" transform="matrix(1.00, 0.00, -0.00, -1.00, 855.4, 80.0)">v</text><text xml:space="preserve" font-family="GillSans" font-size="45.0" fill="#000000" transform="matrix(1.00, 0.00, -0.00, -1.00, 874.3, 80.0)">e</text><text xml:space="preserve" font-family="GillSans" font-size="45.0" fill="#000000" transform="matrix(1.00, 0.00, -0.00, -1.00, 895.8, 80.0)">r</text><text xml:space="preserve" font-family="GillSans" font-size="45.0" fill="#000000" transform="matrix(1.00, 0.00, -0.00, -1.00, 913.6, 80.0)"> </text><text xml:space="preserve" font-family="GillSans" font-size="45.0" fill="#000000" transform="matrix(1.00, 0.00, -0.00, -1.00, 926.1, 80.0)">l</text><text xml:space="preserve" font-family="GillSans" font-size="45.0" fill="#000000" transform="matrix(1.00, 0.00, -0.00, -1.00, 936.0, 80.0)">o</text><text xml:space="preserve" font-family="GillSans" font-size="45.0" fill="#000000" transform="matrix(1.00, 0.00, -0.00, -1.00, 960.8, 80.0)">n</text><text xml:space="preserve" font-family="GillSans" font-size="45.0" fill="#000000" transform="matrix(1.00, 0.00, -0.00, -1.00, 983.3, 80.0)">g</text><text xml:space="preserve" font-family="GillSans" font-size="45.0" fill="#000000" transform="matrix(1.00, 0.00, -0.00, -1.00, 1002.5, 80.0)"> </text><text xml:space="preserve" font-family="GillSans" font-size="45.0" fill="#000000" transform="matrix(1.00, 0.00, -0.00, -1.00, 1015.0, 80.0)">t</text><text xml:space="preserve" font-family="GillSans" font-size="45.0" fill="#000000" transform="matrix(1.00, 0.00, -0.00, -1.00, 1030.0, 80.0)">i</text><text xml:space="preserve" font-family="GillSans" font-size="45.0" fill="#000000" transform="matrix(1.00, 0.00, -0.00, -1.00, 1039.9, 80.0)">m</text><text xml:space="preserve" font-family="GillSans" font-size="45.0" fill="#000000" transform="matrix(1.00, 0.00, -0.00, -1.00, 1074.6, 80.0)">e</text><text xml:space="preserve" font-family="GillSans" font-size="45.0" fill="#000000" transform="matrix(1.00, 0.00, -0.00, -1.00, 1096.1, 80.0)">s</text><text xml:space="preserve" font-family="GillSans" font-size="45.0" fill="#000000" transform="matrix(1.00, 0.00, -0.00, -1.00, 1113.4, 80.0)">c</text><text xml:space="preserve" font-family="GillSans" font-size="45.0" fill="#000000" transform="matrix(1.00, 0.00, -0.00, -1.00, 1133.1, 80.0)">a</text><text xml:space="preserve" font-family="GillSans" font-size="45.0" fill="#000000" transform="matrix(1.00, 0.00, -0.00, -1.00, 1152.3, 80.0)">l</text><text xml:space="preserve" font-family="GillSans" font-size="45.0" fill="#000000" transform="matrix(1.00, 0.00, -0.00, -1.00, 1162.2, 80.0)">e</text><text xml:space="preserve" font-family="GillSans" font-size="45.0" fill="#000000" transform="matrix(1.00, 0.00, -0.00, -1.00, 1183.8, 80.0)">s</text><text xml:space="preserve" font-family="GillSans" font-size="45.0" fill="#000000" transform="matrix(1.00, 0.00, -0.00, -1.00, 1201.1, 80.0)">.</text><text xml:space="preserve" font-family="LucidaGrande" font-size="45.0" fill="#000000" transform="matrix(1.00, 0.00, -0.00, -1.00, 1211.0, 80.0)"> </text><text xml:space="preserve" font-family="GillSans" font-size="35.0" fill="#000000" transform="matrix(1.00, 0.00, -0.00, -1.00, 52.0, 38.0)">[</text><text xml:space="preserve" font-family="GillSans" font-size="35.0" fill="#000000" transform="matrix(1.00, 0.00, -0.00, -1.00, 63.7, 38.0)">S</text><text xml:space="preserve" font-family="GillSans" font-size="35.0" fill="#000000" transform="matrix(1.00, 0.00, -0.00, -1.00, 79.7, 38.0)">u</text><text xml:space="preserve" font-family="GillSans" font-size="35.0" fill="#000000" transform="matrix(1.00, 0.00, -0.00, -1.00, 97.2, 38.0)">k</text><text xml:space="preserve" font-family="GillSans" font-size="35.0" fill="#000000" transform="matrix(1.00, 0.00, -0.00, -1.00, 114.0, 38.0)">h</text><text xml:space="preserve" font-family="GillSans" font-size="35.0" fill="#000000" transform="matrix(1.00, 0.00, -0.00, -1.00, 131.5, 38.0)">b</text><text xml:space="preserve" font-family="GillSans" font-size="35.0" fill="#000000" transform="matrix(1.00, 0.00, -0.00, -1.00, 149.0, 38.0)">a</text><text xml:space="preserve" font-family="GillSans" font-size="35.0" fill="#000000" transform="matrix(1.00, 0.00, -0.00, -1.00, 163.9, 38.0)">a</text><text xml:space="preserve" font-family="GillSans" font-size="35.0" fill="#000000" transform="matrix(1.00, 0.00, -0.00, -1.00, 178.8, 38.0)">t</text><text xml:space="preserve" font-family="GillSans" font-size="35.0" fill="#000000" transform="matrix(1.00, 0.00, -0.00, -1.00, 190.5, 38.0)">a</text><text xml:space="preserve" font-family="GillSans" font-size="35.0" fill="#000000" transform="matrix(1.00, 0.00, -0.00, -1.00, 205.4, 38.0)">r</text><text xml:space="preserve" font-family="GillSans" font-size="35.0" fill="#000000" transform="matrix(1.00, 0.00, -0.00, -1.00, 219.3, 38.0)"> </text><text xml:space="preserve" font-family="GillSans" font-size="35.0" fill="#000000" transform="matrix(1.00, 0.00, -0.00, -1.00, 229.0, 38.0)">2</text><text xml:space="preserve" font-family="GillSans" font-size="35.0" fill="#000000" transform="matrix(1.00, 0.00, -0.00, -1.00, 246.5, 38.0)">0</text><text xml:space="preserve" font-family="GillSans" font-size="35.0" fill="#000000" transform="matrix(1.00, 0.00, -0.00, -1.00, 264.0, 38.0)">1</text><text xml:space="preserve" font-family="GillSans" font-size="35.0" fill="#000000" transform="matrix(1.00, 0.00, -0.00, -1.00, 281.5, 38.0)">5</text><text xml:space="preserve" font-family="GillSans" font-size="35.0" fill="#000000" transform="matrix(1.00, 0.00, -0.00, -1.00, 299.0, 38.0)">]</text></g></g></g></svg>