<?xml version="1.0" encoding="UTF-8" standalone="no"?><svg xmlns="http://www.w3.org/2000/svg" xmlns:xlink="http://www.w3.org/1999/xlink" clip-rule="evenodd" stroke-miterlimit="4.00" viewBox="0 0 1920 1080"><desc>SVG generated by Keynote</desc><defs></defs><g transform="matrix(1.00, 0.00, -0.00, -1.00, 0.0, 1080.0)"><path d="M 0.0 1080.0 L 1920.0 1080.0 L 1920.0 0.0 L 0.0 0.0 Z M 0.0 1080.0 " fill="#FEFFFF"></path><text xml:space="preserve" font-family="GillSans" font-size="112.0" fill="#000000" transform="matrix(1.00, 0.00, -0.00, -1.00, 877.0, 876.0)">Q</text><text xml:space="preserve" font-family="GillSans" font-size="112.0" fill="#000000" transform="matrix(1.00, 0.00, -0.00, -1.00, 969.2, 876.0)">A</text><text xml:space="preserve" font-family="GillSans" font-size="52.0" fill="#000000" transform="matrix(1.00, 0.00, -0.00, -1.00, 137.0, 760.0)">A</text><text xml:space="preserve" font-family="GillSans" font-size="52.0" fill="#000000" transform="matrix(1.00, 0.00, -0.00, -1.00, 171.7, 760.0)">s</text><text xml:space="preserve" font-family="GillSans" font-size="52.0" fill="#000000" transform="matrix(1.00, 0.00, -0.00, -1.00, 191.7, 760.0)"> </text><text xml:space="preserve" font-family="GillSans" font-size="52.0" fill="#0264C0" transform="matrix(1.00, 0.00, -0.00, -1.00, 206.1, 760.0)">w</text><text xml:space="preserve" font-family="GillSans" font-size="52.0" fill="#0264C0" transform="matrix(1.00, 0.00, -0.00, -1.00, 243.5, 760.0)">a</text><text xml:space="preserve" font-family="GillSans" font-size="52.0" fill="#0264C0" transform="matrix(1.00, 0.00, -0.00, -1.00, 265.7, 760.0)">t</text><text xml:space="preserve" font-family="GillSans" font-size="52.0" fill="#0264C0" transform="matrix(1.00, 0.00, -0.00, -1.00, 283.0, 760.0)">e</text><text xml:space="preserve" font-family="GillSans" font-size="52.0" fill="#0264C0" transform="matrix(1.00, 0.00, -0.00, -1.00, 308.0, 760.0)">r</text><text xml:space="preserve" font-family="GillSans" font-size="52.0" fill="#0264C0" transform="matrix(1.00, 0.00, -0.00, -1.00, 328.5, 760.0)"> </text><text xml:space="preserve" font-family="GillSans" font-size="52.0" fill="#0264C0" transform="matrix(1.00, 0.00, -0.00, -1.00, 343.0, 760.0)">v</text><text xml:space="preserve" font-family="GillSans" font-size="52.0" fill="#0264C0" transform="matrix(1.00, 0.00, -0.00, -1.00, 365.8, 760.0)">a</text><text xml:space="preserve" font-family="GillSans" font-size="52.0" fill="#0264C0" transform="matrix(1.00, 0.00, -0.00, -1.00, 387.4, 760.0)">p</text><text xml:space="preserve" font-family="GillSans" font-size="52.0" fill="#0264C0" transform="matrix(1.00, 0.00, -0.00, -1.00, 413.4, 760.0)">o</text><text xml:space="preserve" font-family="GillSans" font-size="52.0" fill="#0264C0" transform="matrix(1.00, 0.00, -0.00, -1.00, 442.1, 760.0)">r</text><text xml:space="preserve" font-family="GillSans" font-size="52.0" fill="#000000" transform="matrix(1.00, 0.00, -0.00, -1.00, 462.7, 760.0)"> </text><text xml:space="preserve" font-family="GillSans" font-size="52.0" fill="#000000" transform="matrix(1.00, 0.00, -0.00, -1.00, 477.2, 760.0)">r</text><text xml:space="preserve" font-family="GillSans" font-size="52.0" fill="#000000" transform="matrix(1.00, 0.00, -0.00, -1.00, 497.8, 760.0)">i</text><text xml:space="preserve" font-family="GillSans" font-size="52.0" fill="#000000" transform="matrix(1.00, 0.00, -0.00, -1.00, 509.2, 760.0)">s</text><text xml:space="preserve" font-family="GillSans" font-size="52.0" fill="#000000" transform="matrix(1.00, 0.00, -0.00, -1.00, 529.2, 760.0)">e</text><text xml:space="preserve" font-family="GillSans" font-size="52.0" fill="#000000" transform="matrix(1.00, 0.00, -0.00, -1.00, 554.1, 760.0)">s</text><text xml:space="preserve" font-family="GillSans" font-size="52.0" fill="#000000" transform="matrix(1.00, 0.00, -0.00, -1.00, 574.1, 760.0)"> </text><text xml:space="preserve" font-family="GillSans" font-size="52.0" fill="#000000" transform="matrix(1.00, 0.00, -0.00, -1.00, 588.5, 760.0)">i</text><text xml:space="preserve" font-family="GillSans" font-size="52.0" fill="#000000" transform="matrix(1.00, 0.00, -0.00, -1.00, 599.9, 760.0)">n</text><text xml:space="preserve" font-family="GillSans" font-size="52.0" fill="#000000" transform="matrix(1.00, 0.00, -0.00, -1.00, 625.9, 760.0)"> </text><text xml:space="preserve" font-family="GillSans" font-size="52.0" fill="#000000" transform="matrix(1.00, 0.00, -0.00, -1.00, 640.4, 760.0)">t</text><text xml:space="preserve" font-family="GillSans" font-size="52.0" fill="#000000" transform="matrix(1.00, 0.00, -0.00, -1.00, 657.7, 760.0)">h</text><text xml:space="preserve" font-family="GillSans" font-size="52.0" fill="#000000" transform="matrix(1.00, 0.00, -0.00, -1.00, 683.7, 760.0)">e</text><text xml:space="preserve" font-family="GillSans" font-size="52.0" fill="#000000" transform="matrix(1.00, 0.00, -0.00, -1.00, 708.6, 760.0)"> </text><text xml:space="preserve" font-family="GillSans" font-size="52.0" fill="#000000" transform="matrix(1.00, 0.00, -0.00, -1.00, 723.0, 760.0)">a</text><text xml:space="preserve" font-family="GillSans" font-size="52.0" fill="#000000" transform="matrix(1.00, 0.00, -0.00, -1.00, 745.2, 760.0)">t</text><text xml:space="preserve" font-family="GillSans" font-size="52.0" fill="#000000" transform="matrix(1.00, 0.00, -0.00, -1.00, 762.5, 760.0)">m</text><text xml:space="preserve" font-family="GillSans" font-size="52.0" fill="#000000" transform="matrix(1.00, 0.00, -0.00, -1.00, 802.6, 760.0)">o</text><text xml:space="preserve" font-family="GillSans" font-size="52.0" fill="#000000" transform="matrix(1.00, 0.00, -0.00, -1.00, 831.3, 760.0)">s</text><text xml:space="preserve" font-family="GillSans" font-size="52.0" fill="#000000" transform="matrix(1.00, 0.00, -0.00, -1.00, 851.3, 760.0)">p</text><text xml:space="preserve" font-family="GillSans" font-size="52.0" fill="#000000" transform="matrix(1.00, 0.00, -0.00, -1.00, 877.3, 760.0)">h</text><text xml:space="preserve" font-family="GillSans" font-size="52.0" fill="#000000" transform="matrix(1.00, 0.00, -0.00, -1.00, 903.3, 760.0)">e</text><text xml:space="preserve" font-family="GillSans" font-size="52.0" fill="#000000" transform="matrix(1.00, 0.00, -0.00, -1.00, 928.2, 760.0)">r</text><text xml:space="preserve" font-family="GillSans" font-size="52.0" fill="#000000" transform="matrix(1.00, 0.00, -0.00, -1.00, 947.8, 760.0)">e</text><text xml:space="preserve" font-family="GillSans" font-size="52.0" fill="#000000" transform="matrix(1.00, 0.00, -0.00, -1.00, 973.7, 760.0)">,</text><text xml:space="preserve" font-family="GillSans" font-size="52.0" fill="#000000" transform="matrix(1.00, 0.00, -0.00, -1.00, 979.9, 760.0)"> </text><text xml:space="preserve" font-family="GillSans" font-size="52.0" fill="#000000" transform="matrix(1.00, 0.00, -0.00, -1.00, 994.3, 760.0)">i</text><text xml:space="preserve" font-family="GillSans" font-size="52.0" fill="#000000" transform="matrix(1.00, 0.00, -0.00, -1.00, 1005.8, 760.0)">t</text><text xml:space="preserve" font-family="GillSans" font-size="52.0" fill="#000000" transform="matrix(1.00, 0.00, -0.00, -1.00, 1023.1, 760.0)"> </text><text xml:space="preserve" font-family="GillSans" font-size="52.0" fill="#000000" transform="matrix(1.00, 0.00, -0.00, -1.00, 1037.5, 760.0)">c</text><text xml:space="preserve" font-family="GillSans" font-size="52.0" fill="#000000" transform="matrix(1.00, 0.00, -0.00, -1.00, 1060.3, 760.0)">o</text><text xml:space="preserve" font-family="GillSans" font-size="52.0" fill="#000000" transform="matrix(1.00, 0.00, -0.00, -1.00, 1089.0, 760.0)">o</text><text xml:space="preserve" font-family="GillSans" font-size="52.0" fill="#000000" transform="matrix(1.00, 0.00, -0.00, -1.00, 1117.6, 760.0)">l</text><text xml:space="preserve" font-family="GillSans" font-size="52.0" fill="#000000" transform="matrix(1.00, 0.00, -0.00, -1.00, 1129.1, 760.0)">s</text><text xml:space="preserve" font-family="GillSans" font-size="52.0" fill="#000000" transform="matrix(1.00, 0.00, -0.00, -1.00, 1149.1, 760.0)"> </text><text xml:space="preserve" font-family="GillSans" font-size="52.0" fill="#000000" transform="matrix(1.00, 0.00, -0.00, -1.00, 1163.5, 760.0)">a</text><text xml:space="preserve" font-family="GillSans" font-size="52.0" fill="#000000" transform="matrix(1.00, 0.00, -0.00, -1.00, 1185.7, 760.0)">n</text><text xml:space="preserve" font-family="GillSans" font-size="52.0" fill="#000000" transform="matrix(1.00, 0.00, -0.00, -1.00, 1211.7, 760.0)">d</text><text xml:space="preserve" font-family="GillSans" font-size="52.0" fill="#000000" transform="matrix(1.00, 0.00, -0.00, -1.00, 1238.2, 760.0)"> </text><text xml:space="preserve" font-family="GillSans" font-size="52.0" fill="#00872A" transform="matrix(1.00, 0.00, -0.00, -1.00, 1252.7, 760.0)">c</text><text xml:space="preserve" font-family="GillSans" font-size="52.0" fill="#00872A" transform="matrix(1.00, 0.00, -0.00, -1.00, 1275.5, 760.0)">h</text><text xml:space="preserve" font-family="GillSans" font-size="52.0" fill="#00872A" transform="matrix(1.00, 0.00, -0.00, -1.00, 1301.5, 760.0)">a</text><text xml:space="preserve" font-family="GillSans" font-size="52.0" fill="#00872A" transform="matrix(1.00, 0.00, -0.00, -1.00, 1323.7, 760.0)">n</text><text xml:space="preserve" font-family="GillSans" font-size="52.0" fill="#00872A" transform="matrix(1.00, 0.00, -0.00, -1.00, 1349.7, 760.0)">g</text><text xml:space="preserve" font-family="GillSans" font-size="52.0" fill="#00872A" transform="matrix(1.00, 0.00, -0.00, -1.00, 1371.9, 760.0)">e</text><text xml:space="preserve" font-family="GillSans" font-size="52.0" fill="#00872A" transform="matrix(1.00, 0.00, -0.00, -1.00, 1396.8, 760.0)">s</text><text xml:space="preserve" font-family="GillSans" font-size="52.0" fill="#000000" transform="matrix(1.00, 0.00, -0.00, -1.00, 1416.8, 760.0)"> </text><text xml:space="preserve" font-family="GillSans" font-size="52.0" fill="#000000" transform="matrix(1.00, 0.00, -0.00, -1.00, 1431.3, 760.0)">b</text><text xml:space="preserve" font-family="GillSans" font-size="52.0" fill="#000000" transform="matrix(1.00, 0.00, -0.00, -1.00, 1457.3, 760.0)">a</text><text xml:space="preserve" font-family="GillSans" font-size="52.0" fill="#000000" transform="matrix(1.00, 0.00, -0.00, -1.00, 1479.4, 760.0)">c</text><text xml:space="preserve" font-family="GillSans" font-size="52.0" fill="#000000" transform="matrix(1.00, 0.00, -0.00, -1.00, 1502.2, 760.0)">k</text><text xml:space="preserve" font-family="GillSans" font-size="52.0" fill="#000000" transform="matrix(1.00, 0.00, -0.00, -1.00, 1527.1, 760.0)"> </text><text xml:space="preserve" font-family="GillSans" font-size="52.0" fill="#000000" transform="matrix(1.00, 0.00, -0.00, -1.00, 1541.6, 760.0)">t</text><text xml:space="preserve" font-family="GillSans" font-size="52.0" fill="#000000" transform="matrix(1.00, 0.00, -0.00, -1.00, 1558.9, 760.0)">o</text><text xml:space="preserve" font-family="GillSans" font-size="52.0" fill="#000000" transform="matrix(1.00, 0.00, -0.00, -1.00, 1587.5, 760.0)"> </text><text xml:space="preserve" font-family="GillSans" font-size="52.0" fill="#C82505" transform="matrix(1.00, 0.00, -0.00, -1.00, 1602.0, 760.0)">l</text><text xml:space="preserve" font-family="GillSans" font-size="52.0" fill="#C82505" transform="matrix(1.00, 0.00, -0.00, -1.00, 1613.4, 760.0)">i</text><text xml:space="preserve" font-family="GillSans" font-size="52.0" fill="#C82505" transform="matrix(1.00, 0.00, -0.00, -1.00, 1624.9, 760.0)">q</text><text xml:space="preserve" font-family="GillSans" font-size="52.0" fill="#C82505" transform="matrix(1.00, 0.00, -0.00, -1.00, 1650.9, 760.0)">u</text><text xml:space="preserve" font-family="GillSans" font-size="52.0" fill="#C82505" transform="matrix(1.00, 0.00, -0.00, -1.00, 1676.9, 760.0)">i</text><text xml:space="preserve" font-family="GillSans" font-size="52.0" fill="#C82505" transform="matrix(1.00, 0.00, -0.00, -1.00, 1688.3, 760.0)">d</text><text xml:space="preserve" font-family="GillSans" font-size="52.0" fill="#000000" transform="matrix(1.00, 0.00, -0.00, -1.00, 1714.7, 760.0)">.</text><text xml:space="preserve" font-family="GillSans" font-size="52.0" fill="#000000" transform="matrix(1.00, 0.00, -0.00, -1.00, 1721.0, 760.0)"> </text><text xml:space="preserve" font-family="GillSans" font-size="52.0" fill="#C82505" transform="matrix(1.00, 0.00, -0.00, -1.00, 137.0, 700.0)">T</text><text xml:space="preserve" font-family="GillSans" font-size="52.0" fill="#C82505" transform="matrix(1.00, 0.00, -0.00, -1.00, 168.4, 700.0)">i</text><text xml:space="preserve" font-family="GillSans" font-size="52.0" fill="#C82505" transform="matrix(1.00, 0.00, -0.00, -1.00, 179.8, 700.0)">n</text><text xml:space="preserve" font-family="GillSans" font-size="52.0" fill="#C82505" transform="matrix(1.00, 0.00, -0.00, -1.00, 204.8, 700.0)">y</text><text xml:space="preserve" font-family="GillSans" font-size="52.0" fill="#C82505" transform="matrix(1.00, 0.00, -0.00, -1.00, 227.6, 700.0)"> </text><text xml:space="preserve" font-family="GillSans" font-size="52.0" fill="#C82505" transform="matrix(1.00, 0.00, -0.00, -1.00, 242.0, 700.0)">d</text><text xml:space="preserve" font-family="GillSans" font-size="52.0" fill="#C82505" transform="matrix(1.00, 0.00, -0.00, -1.00, 268.5, 700.0)">r</text><text xml:space="preserve" font-family="GillSans" font-size="52.0" fill="#C82505" transform="matrix(1.00, 0.00, -0.00, -1.00, 287.8, 700.0)">o</text><text xml:space="preserve" font-family="GillSans" font-size="52.0" fill="#C82505" transform="matrix(1.00, 0.00, -0.00, -1.00, 316.5, 700.0)">p</text><text xml:space="preserve" font-family="GillSans" font-size="52.0" fill="#C82505" transform="matrix(1.00, 0.00, -0.00, -1.00, 342.5, 700.0)">s</text><text xml:space="preserve" font-family="GillSans" font-size="52.0" fill="#C82505" transform="matrix(1.00, 0.00, -0.00, -1.00, 362.5, 700.0)"> </text><text xml:space="preserve" font-family="GillSans" font-size="52.0" fill="#C82505" transform="matrix(1.00, 0.00, -0.00, -1.00, 376.9, 700.0)">o</text><text xml:space="preserve" font-family="GillSans" font-size="52.0" fill="#C82505" transform="matrix(1.00, 0.00, -0.00, -1.00, 405.6, 700.0)">f</text><text xml:space="preserve" font-family="GillSans" font-size="52.0" fill="#C82505" transform="matrix(1.00, 0.00, -0.00, -1.00, 418.6, 700.0)"> </text><text xml:space="preserve" font-family="GillSans" font-size="52.0" fill="#C82505" transform="matrix(1.00, 0.00, -0.00, -1.00, 433.0, 700.0)">l</text><text xml:space="preserve" font-family="GillSans" font-size="52.0" fill="#C82505" transform="matrix(1.00, 0.00, -0.00, -1.00, 444.4, 700.0)">i</text><text xml:space="preserve" font-family="GillSans" font-size="52.0" fill="#C82505" transform="matrix(1.00, 0.00, -0.00, -1.00, 455.8, 700.0)">q</text><text xml:space="preserve" font-family="GillSans" font-size="52.0" fill="#C82505" transform="matrix(1.00, 0.00, -0.00, -1.00, 481.8, 700.0)">u</text><text xml:space="preserve" font-family="GillSans" font-size="52.0" fill="#C82505" transform="matrix(1.00, 0.00, -0.00, -1.00, 507.8, 700.0)">i</text><text xml:space="preserve" font-family="GillSans" font-size="52.0" fill="#C82505" transform="matrix(1.00, 0.00, -0.00, -1.00, 519.3, 700.0)">d</text><text xml:space="preserve" font-family="GillSans" font-size="52.0" fill="#000000" transform="matrix(1.00, 0.00, -0.00, -1.00, 545.8, 700.0)"> </text><text xml:space="preserve" font-family="GillSans" font-size="52.0" fill="#000000" transform="matrix(1.00, 0.00, -0.00, -1.00, 560.2, 700.0)">f</text><text xml:space="preserve" font-family="GillSans" font-size="52.0" fill="#000000" transform="matrix(1.00, 0.00, -0.00, -1.00, 572.7, 700.0)">o</text><text xml:space="preserve" font-family="GillSans" font-size="52.0" fill="#000000" transform="matrix(1.00, 0.00, -0.00, -1.00, 601.4, 700.0)">r</text><text xml:space="preserve" font-family="GillSans" font-size="52.0" fill="#000000" transform="matrix(1.00, 0.00, -0.00, -1.00, 622.0, 700.0)">m</text><text xml:space="preserve" font-family="GillSans" font-size="52.0" fill="#000000" transform="matrix(1.00, 0.00, -0.00, -1.00, 662.1, 700.0)"> </text><text xml:space="preserve" font-family="GillSans" font-size="52.0" fill="#C82505" transform="matrix(1.00, 0.00, -0.00, -1.00, 676.6, 700.0)">c</text><text xml:space="preserve" font-family="GillSans" font-size="52.0" fill="#C82505" transform="matrix(1.00, 0.00, -0.00, -1.00, 699.3, 700.0)">l</text><text xml:space="preserve" font-family="GillSans" font-size="52.0" fill="#C82505" transform="matrix(1.00, 0.00, -0.00, -1.00, 710.7, 700.0)">o</text><text xml:space="preserve" font-family="GillSans" font-size="52.0" fill="#C82505" transform="matrix(1.00, 0.00, -0.00, -1.00, 739.4, 700.0)">u</text><text xml:space="preserve" font-family="GillSans" font-size="52.0" fill="#C82505" transform="matrix(1.00, 0.00, -0.00, -1.00, 765.4, 700.0)">d</text><text xml:space="preserve" font-family="GillSans" font-size="52.0" fill="#C82505" transform="matrix(1.00, 0.00, -0.00, -1.00, 791.9, 700.0)">s</text><text xml:space="preserve" font-family="GillSans" font-size="52.0" fill="#000000" transform="matrix(1.00, 0.00, -0.00, -1.00, 811.9, 700.0)"> </text><text xml:space="preserve" font-family="GillSans" font-size="52.0" fill="#000000" transform="matrix(1.00, 0.00, -0.00, -1.00, 826.4, 700.0)">i</text><text xml:space="preserve" font-family="GillSans" font-size="52.0" fill="#000000" transform="matrix(1.00, 0.00, -0.00, -1.00, 837.8, 700.0)">n</text><text xml:space="preserve" font-family="GillSans" font-size="52.0" fill="#000000" transform="matrix(1.00, 0.00, -0.00, -1.00, 863.8, 700.0)"> </text><text xml:space="preserve" font-family="GillSans" font-size="52.0" fill="#000000" transform="matrix(1.00, 0.00, -0.00, -1.00, 878.2, 700.0)">t</text><text xml:space="preserve" font-family="GillSans" font-size="52.0" fill="#000000" transform="matrix(1.00, 0.00, -0.00, -1.00, 895.5, 700.0)">h</text><text xml:space="preserve" font-family="GillSans" font-size="52.0" fill="#000000" transform="matrix(1.00, 0.00, -0.00, -1.00, 921.5, 700.0)">i</text><text xml:space="preserve" font-family="GillSans" font-size="52.0" fill="#000000" transform="matrix(1.00, 0.00, -0.00, -1.00, 932.9, 700.0)">s</text><text xml:space="preserve" font-family="GillSans" font-size="52.0" fill="#000000" transform="matrix(1.00, 0.00, -0.00, -1.00, 952.9, 700.0)"> </text><text xml:space="preserve" font-family="GillSans" font-size="52.0" fill="#000000" transform="matrix(1.00, 0.00, -0.00, -1.00, 967.4, 700.0)">p</text><text xml:space="preserve" font-family="GillSans" font-size="52.0" fill="#000000" transform="matrix(1.00, 0.00, -0.00, -1.00, 993.4, 700.0)">r</text><text xml:space="preserve" font-family="GillSans" font-size="52.0" fill="#000000" transform="matrix(1.00, 0.00, -0.00, -1.00, 1012.7, 700.0)">o</text><text xml:space="preserve" font-family="GillSans" font-size="52.0" fill="#000000" transform="matrix(1.00, 0.00, -0.00, -1.00, 1041.4, 700.0)">c</text><text xml:space="preserve" font-family="GillSans" font-size="52.0" fill="#000000" transform="matrix(1.00, 0.00, -0.00, -1.00, 1064.1, 700.0)">e</text><text xml:space="preserve" font-family="GillSans" font-size="52.0" fill="#000000" transform="matrix(1.00, 0.00, -0.00, -1.00, 1089.0, 700.0)">s</text><text xml:space="preserve" font-family="GillSans" font-size="52.0" fill="#000000" transform="matrix(1.00, 0.00, -0.00, -1.00, 1109.0, 700.0)">s</text><text xml:space="preserve" font-family="GillSans" font-size="52.0" fill="#000000" transform="matrix(1.00, 0.00, -0.00, -1.00, 1129.0, 700.0)"> </text><text xml:space="preserve" font-family="GillSans" font-size="52.0" fill="#000000" transform="matrix(1.00, 0.00, -0.00, -1.00, 1143.5, 700.0)">c</text><text xml:space="preserve" font-family="GillSans" font-size="52.0" fill="#000000" transform="matrix(1.00, 0.00, -0.00, -1.00, 1166.3, 700.0)">a</text><text xml:space="preserve" font-family="GillSans" font-size="52.0" fill="#000000" transform="matrix(1.00, 0.00, -0.00, -1.00, 1188.5, 700.0)">l</text><text xml:space="preserve" font-family="GillSans" font-size="52.0" fill="#000000" transform="matrix(1.00, 0.00, -0.00, -1.00, 1199.9, 700.0)">l</text><text xml:space="preserve" font-family="GillSans" font-size="52.0" fill="#000000" transform="matrix(1.00, 0.00, -0.00, -1.00, 1211.3, 700.0)">e</text><text xml:space="preserve" font-family="GillSans" font-size="52.0" fill="#000000" transform="matrix(1.00, 0.00, -0.00, -1.00, 1236.2, 700.0)">d</text><g><clipPath id="clip-5171"><path d="M 636.3 419.0 L 852.0 419.0 L 852.0 503.5 L 636.3 503.5 Z M 636.3 419.0 "></path></clipPath><g clip-path="url(#clip-5171)"><image xlink:href="537B2F8E33ED649654B15D5A46765EEE.png" width="214.00" height="82.00" transform="matrix(1.00, 0.00, -0.00, -1.01, 637.3, 502.5)" opacity="0.10"></image><path d="M 670.5 484.0 L 817.9 484.0 C 821.8 484.0 823.8 484.0 825.9 483.3 C 828.2 482.5 830.0 480.6 830.9 478.3 C 831.5 476.2 831.5 474.3 831.5 470.3 L 831.5 454.2 C 831.5 450.3 831.5 448.3 830.9 446.2 C 830.0 443.9 828.2 442.0 825.9 441.2 C 823.8 440.5 821.8 440.5 817.9 440.5 L 670.5 440.5 C 666.6 440.5 664.6 440.5 662.5 441.2 C 660.2 442.0 658.4 443.9 657.5 446.2 C 656.8 448.3 656.8 450.3 656.8 454.2 L 656.8 470.3 C 656.8 474.3 656.8 476.2 657.5 478.3 C 658.4 480.6 660.2 482.5 662.5 483.3 C 664.6 484.0 666.6 484.0 670.5 484.0 Z M 670.5 484.0 " fill="#FEFFFF"></path><path d="M 13.6 0.0 L 161.1 0.0 C 165.0 0.0 167.0 0.0 169.1 0.7 C 171.4 1.5 173.2 3.3 174.0 5.6 C 174.7 7.7 174.7 9.7 174.7 13.7 L 174.7 29.8 C 174.7 33.7 174.7 35.7 174.0 37.8 C 173.2 40.1 171.4 41.9 169.1 42.8 C 167.0 43.4 165.0 43.4 161.0 43.4 L 13.6 43.4 C 9.7 43.4 7.7 43.4 5.6 42.8 C 3.3 41.9 1.5 40.1 0.7 37.8 C 0.0 35.7 0.0 33.7 0.0 29.8 L 0.0 13.6 C 0.0 9.7 0.0 7.7 0.7 5.6 C 1.5 3.3 3.3 1.5 5.6 0.7 C 7.7 0.0 9.7 0.0 13.7 0.0 Z M 13.6 0.0 " fill="none" stroke="#0264C0" stroke-width="1.10" transform="matrix(1.00, 0.00, 0.00, -1.00, 656.8, 484.0)"></path></g></g><g><clipPath id="clip-5172"><path d="M 655.7 440.5 L 832.7 440.5 L 832.7 484.0 L 655.7 484.0 Z M 655.7 440.5 "></path></clipPath><g clip-path="url(#clip-5172)"><text xml:space="preserve" font-family="GillSans" font-size="20.0" fill="#000000" transform="matrix(1.00, 0.00, -0.00, -1.00, 695.0, 455.0)">w</text><text xml:space="preserve" font-family="GillSans" font-size="20.0" fill="#000000" transform="matrix(1.00, 0.00, -0.00, -1.00, 709.4, 455.0)">a</text><text xml:space="preserve" font-family="GillSans" font-size="20.0" fill="#000000" transform="matrix(1.00, 0.00, -0.00, -1.00, 717.9, 455.0)">t</text><text xml:space="preserve" font-family="GillSans" font-size="20.0" fill="#000000" transform="matrix(1.00, 0.00, -0.00, -1.00, 724.6, 455.0)">e</text><text xml:space="preserve" font-family="GillSans" font-size="20.0" fill="#000000" transform="matrix(1.00, 0.00, -0.00, -1.00, 734.2, 455.0)">r</text><text xml:space="preserve" font-family="GillSans" font-size="20.0" fill="#000000" transform="matrix(1.00, 0.00, -0.00, -1.00, 742.1, 455.0)"> </text><text xml:space="preserve" font-family="GillSans" font-size="20.0" fill="#000000" transform="matrix(1.00, 0.00, -0.00, -1.00, 747.6, 455.0)">v</text><text xml:space="preserve" font-family="GillSans" font-size="20.0" fill="#000000" transform="matrix(1.00, 0.00, -0.00, -1.00, 756.4, 455.0)">a</text><text xml:space="preserve" font-family="GillSans" font-size="20.0" fill="#000000" transform="matrix(1.00, 0.00, -0.00, -1.00, 764.7, 455.0)">p</text><text xml:space="preserve" font-family="GillSans" font-size="20.0" fill="#000000" transform="matrix(1.00, 0.00, -0.00, -1.00, 774.7, 455.0)">o</text><text xml:space="preserve" font-family="GillSans" font-size="20.0" fill="#000000" transform="matrix(1.00, 0.00, -0.00, -1.00, 785.8, 455.0)">r</text></g></g><g><clipPath id="clip-5173"><path d="M 820.1 419.0 L 1035.8 419.0 L 1035.8 503.5 L 820.1 503.5 Z M 820.1 419.0 "></path></clipPath><g clip-path="url(#clip-5173)"><image xlink:href="../../72E23638-77B0-4C1E-B6AC-88A981DBE5B0/assets/537B2F8E33ED649654B15D5A46765EEE.png" width="214.00" height="82.00" transform="matrix(1.00, 0.00, -0.00, -1.01, 821.1, 502.5)" opacity="0.10"></image><path d="M 854.2 484.0 L 1001.7 484.0 C 1005.6 484.0 1007.6 484.0 1009.7 483.3 C 1012.0 482.5 1013.8 480.6 1014.6 478.3 C 1015.3 476.2 1015.3 474.3 1015.3 470.3 L 1015.3 454.2 C 1015.3 450.3 1015.3 448.3 1014.6 446.2 C 1013.8 443.9 1012.0 442.0 1009.7 441.2 C 1007.6 440.5 1005.6 440.5 1001.6 440.5 L 854.2 440.5 C 850.3 440.5 848.3 440.5 846.2 441.2 C 843.9 442.0 842.1 443.9 841.3 446.2 C 840.6 448.3 840.6 450.3 840.6 454.2 L 840.6 470.3 C 840.6 474.3 840.6 476.2 841.3 478.3 C 842.1 480.6 843.9 482.5 846.2 483.3 C 848.3 484.0 850.3 484.0 854.3 484.0 Z M 854.2 484.0 " fill="#FEFFFF"></path><path d="M 13.6 0.0 L 161.1 0.0 C 165.0 0.0 167.0 0.0 169.1 0.7 C 171.4 1.5 173.2 3.3 174.0 5.6 C 174.7 7.7 174.7 9.7 174.7 13.7 L 174.7 29.8 C 174.7 33.7 174.7 35.7 174.0 37.8 C 173.2 40.1 171.4 41.9 169.1 42.8 C 167.0 43.4 165.0 43.4 161.0 43.4 L 13.6 43.4 C 9.7 43.4 7.7 43.4 5.6 42.8 C 3.3 41.9 1.5 40.1 0.7 37.8 C 0.0 35.7 0.0 33.7 0.0 29.8 L 0.0 13.6 C 0.0 9.7 0.0 7.7 0.7 5.6 C 1.5 3.3 3.3 1.5 5.6 0.7 C 7.7 0.0 9.7 0.0 13.7 0.0 Z M 13.6 0.0 " fill="none" stroke="#C39719" stroke-width="1.10" transform="matrix(1.00, 0.00, 0.00, -1.00, 840.6, 484.0)"></path></g></g><g><clipPath id="clip-5174"><path d="M 839.4 440.5 L 1016.5 440.5 L 1016.5 484.0 L 839.4 484.0 Z M 839.4 440.5 "></path></clipPath><g clip-path="url(#clip-5174)"><text xml:space="preserve" font-family="GillSans" font-size="20.0" fill="#000000" transform="matrix(1.00, 0.00, -0.00, -1.00, 918.0, 455.0)">·</text><text xml:space="preserve" font-family="GillSans" font-size="20.0" fill="#000000" transform="matrix(1.00, 0.00, -0.00, -1.00, 924.7, 455.0)">·</text><text xml:space="preserve" font-family="GillSans" font-size="20.0" fill="#000000" transform="matrix(1.00, 0.00, -0.00, -1.00, 931.4, 455.0)">·</text></g></g><g><clipPath id="clip-5175"><path d="M 1003.8 419.0 L 1219.5 419.0 L 1219.5 503.5 L 1003.8 503.5 Z M 1003.8 419.0 "></path></clipPath><g clip-path="url(#clip-5175)"><image xlink:href="../../72E23638-77B0-4C1E-B6AC-88A981DBE5B0/assets/537B2F8E33ED649654B15D5A46765EEE.png" width="214.00" height="82.00" transform="matrix(1.00, 0.00, -0.00, -1.01, 1004.8, 502.5)" opacity="0.10"></image><path d="M 1038.0 484.0 L 1185.4 484.0 C 1189.3 484.0 1191.3 484.0 1193.4 483.3 C 1195.7 482.5 1197.5 480.6 1198.4 478.3 C 1199.0 476.2 1199.0 474.3 1199.0 470.3 L 1199.0 454.2 C 1199.0 450.3 1199.0 448.3 1198.4 446.2 C 1197.5 443.9 1195.7 442.0 1193.4 441.2 C 1191.3 440.5 1189.3 440.5 1185.4 440.5 L 1038.0 440.5 C 1034.1 440.5 1032.1 440.5 1030.0 441.2 C 1027.7 442.0 1025.8 443.9 1025.0 446.2 C 1024.3 448.3 1024.3 450.3 1024.3 454.2 L 1024.3 470.3 C 1024.3 474.3 1024.3 476.2 1025.0 478.3 C 1025.8 480.6 1027.7 482.5 1030.0 483.3 C 1032.1 484.0 1034.1 484.0 1038.0 484.0 Z M 1038.0 484.0 " fill="#FEFFFF"></path><path d="M 13.6 0.0 L 161.1 0.0 C 165.0 0.0 167.0 0.0 169.1 0.7 C 171.4 1.5 173.2 3.3 174.0 5.6 C 174.7 7.7 174.7 9.7 174.7 13.7 L 174.7 29.8 C 174.7 33.7 174.7 35.7 174.0 37.8 C 173.2 40.1 171.4 41.9 169.1 42.8 C 167.0 43.4 165.0 43.4 161.0 43.4 L 13.6 43.4 C 9.7 43.4 7.7 43.4 5.6 42.8 C 3.3 41.9 1.5 40.1 0.7 37.8 C 0.0 35.7 0.0 33.7 0.0 29.8 L 0.0 13.6 C 0.0 9.7 0.0 7.7 0.7 5.6 C 1.5 3.3 3.3 1.5 5.6 0.7 C 7.7 0.0 9.7 0.0 13.7 0.0 Z M 13.6 0.0 " fill="none" stroke="#00872A" stroke-width="1.10" transform="matrix(1.00, 0.00, 0.00, -1.00, 1024.3, 484.0)"></path></g></g><g><clipPath id="clip-5176"><path d="M 1023.1 440.5 L 1200.2 440.5 L 1200.2 484.0 L 1023.1 484.0 Z M 1023.1 440.5 "></path></clipPath><g clip-path="url(#clip-5176)"><text xml:space="preserve" font-family="GillSans" font-size="20.0" fill="#000000" transform="matrix(1.00, 0.00, -0.00, -1.00, 1080.0, 455.0)">c</text><text xml:space="preserve" font-family="GillSans" font-size="20.0" fill="#000000" transform="matrix(1.00, 0.00, -0.00, -1.00, 1088.8, 455.0)">h</text><text xml:space="preserve" font-family="GillSans" font-size="20.0" fill="#000000" transform="matrix(1.00, 0.00, -0.00, -1.00, 1098.8, 455.0)">a</text><text xml:space="preserve" font-family="GillSans" font-size="20.0" fill="#000000" transform="matrix(1.00, 0.00, -0.00, -1.00, 1107.3, 455.0)">n</text><text xml:space="preserve" font-family="GillSans" font-size="20.0" fill="#000000" transform="matrix(1.00, 0.00, -0.00, -1.00, 1117.3, 455.0)">g</text><text xml:space="preserve" font-family="GillSans" font-size="20.0" fill="#000000" transform="matrix(1.00, 0.00, -0.00, -1.00, 1125.8, 455.0)">e</text><text xml:space="preserve" font-family="GillSans" font-size="20.0" fill="#000000" transform="matrix(1.00, 0.00, -0.00, -1.00, 1135.4, 455.0)">s</text></g></g><g><clipPath id="clip-5177"><path d="M 1187.6 419.0 L 1403.3 419.0 L 1403.3 503.5 L 1187.6 503.5 Z M 1187.6 419.0 "></path></clipPath><g clip-path="url(#clip-5177)"><image xlink:href="../../72E23638-77B0-4C1E-B6AC-88A981DBE5B0/assets/537B2F8E33ED649654B15D5A46765EEE.png" width="214.00" height="82.00" transform="matrix(1.00, 0.00, -0.00, -1.01, 1188.6, 502.5)" opacity="0.10"></image><path d="M 1221.7 484.0 L 1369.2 484.0 C 1373.1 484.0 1375.1 484.0 1377.2 483.3 C 1379.5 482.5 1381.3 480.6 1382.1 478.3 C 1382.8 476.2 1382.8 474.3 1382.8 470.3 L 1382.8 454.2 C 1382.8 450.3 1382.8 448.3 1382.1 446.2 C 1381.3 443.9 1379.5 442.0 1377.2 441.2 C 1375.1 440.5 1373.1 440.5 1369.1 440.5 L 1221.7 440.5 C 1217.8 440.5 1215.8 440.5 1213.7 441.2 C 1211.4 442.0 1209.6 443.9 1208.8 446.2 C 1208.1 448.3 1208.1 450.3 1208.1 454.2 L 1208.1 470.3 C 1208.1 474.3 1208.1 476.2 1208.8 478.3 C 1209.6 480.6 1211.4 482.5 1213.7 483.3 C 1215.8 484.0 1217.8 484.0 1221.8 484.0 Z M 1221.7 484.0 " fill="#FEFFFF"></path><path d="M 13.6 0.0 L 161.1 0.0 C 165.0 0.0 167.0 0.0 169.1 0.7 C 171.4 1.5 173.2 3.3 174.0 5.6 C 174.7 7.7 174.7 9.7 174.7 13.7 L 174.7 29.8 C 174.7 33.7 174.7 35.7 174.0 37.8 C 173.2 40.1 171.4 41.9 169.1 42.8 C 167.0 43.4 165.0 43.4 161.0 43.4 L 13.6 43.4 C 9.7 43.4 7.7 43.4 5.6 42.8 C 3.3 41.9 1.5 40.1 0.7 37.8 C 0.0 35.7 0.0 33.7 0.0 29.8 L 0.0 13.6 C 0.0 9.7 0.0 7.7 0.7 5.6 C 1.5 3.3 3.3 1.5 5.6 0.7 C 7.7 0.0 9.7 0.0 13.7 0.0 Z M 13.6 0.0 " fill="none" stroke="#C82505" stroke-width="1.10" transform="matrix(1.00, 0.00, 0.00, -1.00, 1208.1, 484.0)"></path></g></g><g><clipPath id="clip-5178"><path d="M 1206.9 440.5 L 1384.0 440.5 L 1384.0 484.0 L 1206.9 484.0 Z M 1206.9 440.5 "></path></clipPath><g clip-path="url(#clip-5178)"><text xml:space="preserve" font-family="GillSans" font-size="20.0" fill="#000000" transform="matrix(1.00, 0.00, -0.00, -1.00, 1274.0, 455.0)">l</text><text xml:space="preserve" font-family="GillSans" font-size="20.0" fill="#000000" transform="matrix(1.00, 0.00, -0.00, -1.00, 1278.4, 455.0)">i</text><text xml:space="preserve" font-family="GillSans" font-size="20.0" fill="#000000" transform="matrix(1.00, 0.00, -0.00, -1.00, 1282.8, 455.0)">q</text><text xml:space="preserve" font-family="GillSans" font-size="20.0" fill="#000000" transform="matrix(1.00, 0.00, -0.00, -1.00, 1292.8, 455.0)">u</text><text xml:space="preserve" font-family="GillSans" font-size="20.0" fill="#000000" transform="matrix(1.00, 0.00, -0.00, -1.00, 1302.8, 455.0)">i</text><text xml:space="preserve" font-family="GillSans" font-size="20.0" fill="#000000" transform="matrix(1.00, 0.00, -0.00, -1.00, 1307.2, 455.0)">d</text></g></g><g><clipPath id="clip-5179"><path d="M 636.3 567.8 L 852.0 567.8 L 852.0 652.3 L 636.3 652.3 Z M 636.3 567.8 "></path></clipPath><g clip-path="url(#clip-5179)"><image xlink:href="EE1D46639341C403A2B1C431AAFC5D9E.png" width="214.00" height="82.00" transform="matrix(1.00, 0.00, -0.00, -1.01, 637.3, 651.3)" opacity="0.10"></image><path d="M 670.5 632.8 L 817.9 632.8 C 821.8 632.8 823.8 632.8 825.9 632.1 C 828.2 631.2 830.0 629.4 830.9 627.1 C 831.5 625.0 831.5 623.0 831.5 619.1 L 831.5 602.9 C 831.5 599.0 831.5 597.1 830.9 594.9 C 830.0 592.6 828.2 590.8 825.9 590.0 C 823.8 589.3 821.8 589.3 817.9 589.3 L 670.5 589.3 C 666.6 589.3 664.6 589.3 662.5 590.0 C 660.2 590.8 658.4 592.6 657.5 594.9 C 656.8 597.1 656.8 599.0 656.8 603.0 L 656.8 619.1 C 656.8 623.0 656.8 625.0 657.5 627.1 C 658.4 629.4 660.2 631.2 662.5 632.1 C 664.6 632.8 666.6 632.8 670.5 632.8 Z M 670.5 632.8 " fill="#FEFFFF"></path><path d="M 13.6 0.0 L 161.1 0.0 C 165.0 0.0 167.0 0.0 169.1 0.7 C 171.4 1.5 173.2 3.3 174.0 5.6 C 174.7 7.7 174.7 9.7 174.7 13.7 L 174.7 29.8 C 174.7 33.7 174.7 35.7 174.0 37.8 C 173.2 40.1 171.4 41.9 169.1 42.8 C 167.0 43.4 165.0 43.4 161.0 43.4 L 13.6 43.4 C 9.7 43.4 7.7 43.4 5.6 42.8 C 3.3 41.9 1.5 40.1 0.7 37.8 C 0.0 35.7 0.0 33.7 0.0 29.8 L 0.0 13.6 C 0.0 9.7 0.0 7.7 0.7 5.6 C 1.5 3.3 3.3 1.5 5.6 0.7 C 7.7 0.0 9.7 0.0 13.7 0.0 Z M 13.6 0.0 " fill="none" stroke="#0264C0" stroke-width="1.10" transform="matrix(1.00, 0.00, 0.00, -1.00, 656.8, 632.8)"></path></g></g><g><clipPath id="clip-5180"><path d="M 655.7 589.3 L 832.7 589.3 L 832.7 632.8 L 655.7 632.8 Z M 655.7 589.3 "></path></clipPath><g clip-path="url(#clip-5180)"><text xml:space="preserve" font-family="GillSans" font-size="20.0" fill="#000000" transform="matrix(1.00, 0.00, -0.00, -1.00, 695.0, 604.0)">w</text><text xml:space="preserve" font-family="GillSans" font-size="20.0" fill="#000000" transform="matrix(1.00, 0.00, -0.00, -1.00, 709.4, 604.0)">a</text><text xml:space="preserve" font-family="GillSans" font-size="20.0" fill="#000000" transform="matrix(1.00, 0.00, -0.00, -1.00, 717.9, 604.0)">t</text><text xml:space="preserve" font-family="GillSans" font-size="20.0" fill="#000000" transform="matrix(1.00, 0.00, -0.00, -1.00, 724.6, 604.0)">e</text><text xml:space="preserve" font-family="GillSans" font-size="20.0" fill="#000000" transform="matrix(1.00, 0.00, -0.00, -1.00, 734.2, 604.0)">r</text><text xml:space="preserve" font-family="GillSans" font-size="20.0" fill="#000000" transform="matrix(1.00, 0.00, -0.00, -1.00, 742.1, 604.0)"> </text><text xml:space="preserve" font-family="GillSans" font-size="20.0" fill="#000000" transform="matrix(1.00, 0.00, -0.00, -1.00, 747.6, 604.0)">v</text><text xml:space="preserve" font-family="GillSans" font-size="20.0" fill="#000000" transform="matrix(1.00, 0.00, -0.00, -1.00, 756.4, 604.0)">a</text><text xml:space="preserve" font-family="GillSans" font-size="20.0" fill="#000000" transform="matrix(1.00, 0.00, -0.00, -1.00, 764.7, 604.0)">p</text><text xml:space="preserve" font-family="GillSans" font-size="20.0" fill="#000000" transform="matrix(1.00, 0.00, -0.00, -1.00, 774.7, 604.0)">o</text><text xml:space="preserve" font-family="GillSans" font-size="20.0" fill="#000000" transform="matrix(1.00, 0.00, -0.00, -1.00, 785.8, 604.0)">r</text></g></g><g><clipPath id="clip-5181"><path d="M 820.1 567.8 L 1035.8 567.8 L 1035.8 652.3 L 820.1 652.3 Z M 820.1 567.8 "></path></clipPath><g clip-path="url(#clip-5181)"><image xlink:href="../../72E23638-77B0-4C1E-B6AC-88A981DBE5B0/assets/EE1D46639341C403A2B1C431AAFC5D9E.png" width="214.00" height="82.00" transform="matrix(1.00, 0.00, -0.00, -1.01, 821.1, 651.3)" opacity="0.10"></image><path d="M 854.2 632.8 L 1001.7 632.8 C 1005.6 632.8 1007.6 632.8 1009.7 632.1 C 1012.0 631.2 1013.8 629.4 1014.6 627.1 C 1015.3 625.0 1015.3 623.0 1015.3 619.1 L 1015.3 602.9 C 1015.3 599.0 1015.3 597.1 1014.6 594.9 C 1013.8 592.6 1012.0 590.8 1009.7 590.0 C 1007.6 589.3 1005.6 589.3 1001.6 589.3 L 854.2 589.3 C 850.3 589.3 848.3 589.3 846.2 590.0 C 843.9 590.8 842.1 592.6 841.3 594.9 C 840.6 597.1 840.6 599.0 840.6 603.0 L 840.6 619.1 C 840.6 623.0 840.6 625.0 841.3 627.1 C 842.1 629.4 843.9 631.2 846.2 632.1 C 848.3 632.8 850.3 632.8 854.3 632.8 Z M 854.2 632.8 " fill="#FEFFFF"></path><path d="M 13.6 0.0 L 161.1 0.0 C 165.0 0.0 167.0 0.0 169.1 0.7 C 171.4 1.5 173.2 3.3 174.0 5.6 C 174.7 7.7 174.7 9.7 174.7 13.7 L 174.7 29.8 C 174.7 33.7 174.7 35.7 174.0 37.8 C 173.2 40.1 171.4 41.9 169.1 42.8 C 167.0 43.4 165.0 43.4 161.0 43.4 L 13.6 43.4 C 9.7 43.4 7.7 43.4 5.6 42.8 C 3.3 41.9 1.5 40.1 0.7 37.8 C 0.0 35.7 0.0 33.7 0.0 29.8 L 0.0 13.6 C 0.0 9.7 0.0 7.7 0.7 5.6 C 1.5 3.3 3.3 1.5 5.6 0.7 C 7.7 0.0 9.7 0.0 13.7 0.0 Z M 13.6 0.0 " fill="none" stroke="#C39719" stroke-width="1.10" transform="matrix(1.00, 0.00, 0.00, -1.00, 840.6, 632.8)"></path></g></g><g><clipPath id="clip-5182"><path d="M 839.4 589.3 L 1016.5 589.3 L 1016.5 632.8 L 839.4 632.8 Z M 839.4 589.3 "></path></clipPath><g clip-path="url(#clip-5182)"><text xml:space="preserve" font-family="GillSans" font-size="20.0" fill="#000000" transform="matrix(1.00, 0.00, -0.00, -1.00, 918.0, 604.0)">·</text><text xml:space="preserve" font-family="GillSans" font-size="20.0" fill="#000000" transform="matrix(1.00, 0.00, -0.00, -1.00, 924.7, 604.0)">·</text><text xml:space="preserve" font-family="GillSans" font-size="20.0" fill="#000000" transform="matrix(1.00, 0.00, -0.00, -1.00, 931.4, 604.0)">·</text></g></g><g><clipPath id="clip-5183"><path d="M 1003.8 567.8 L 1219.5 567.8 L 1219.5 652.3 L 1003.8 652.3 Z M 1003.8 567.8 "></path></clipPath><g clip-path="url(#clip-5183)"><image xlink:href="../../72E23638-77B0-4C1E-B6AC-88A981DBE5B0/assets/EE1D46639341C403A2B1C431AAFC5D9E.png" width="214.00" height="82.00" transform="matrix(1.00, 0.00, -0.00, -1.01, 1004.8, 651.3)" opacity="0.10"></image><path d="M 1038.0 632.8 L 1185.4 632.8 C 1189.3 632.8 1191.3 632.8 1193.4 632.1 C 1195.7 631.2 1197.5 629.4 1198.4 627.1 C 1199.0 625.0 1199.0 623.0 1199.0 619.1 L 1199.0 602.9 C 1199.0 599.0 1199.0 597.1 1198.4 594.9 C 1197.5 592.6 1195.7 590.8 1193.4 590.0 C 1191.3 589.3 1189.3 589.3 1185.4 589.3 L 1038.0 589.3 C 1034.1 589.3 1032.1 589.3 1030.0 590.0 C 1027.7 590.8 1025.8 592.6 1025.0 594.9 C 1024.3 597.1 1024.3 599.0 1024.3 603.0 L 1024.3 619.1 C 1024.3 623.0 1024.3 625.0 1025.0 627.1 C 1025.8 629.4 1027.7 631.2 1030.0 632.1 C 1032.1 632.8 1034.1 632.8 1038.0 632.8 Z M 1038.0 632.8 " fill="#FEFFFF"></path><path d="M 13.6 0.0 L 161.1 0.0 C 165.0 0.0 167.0 0.0 169.1 0.7 C 171.4 1.5 173.2 3.3 174.0 5.6 C 174.7 7.7 174.7 9.7 174.7 13.7 L 174.7 29.8 C 174.7 33.7 174.7 35.7 174.0 37.8 C 173.2 40.1 171.4 41.9 169.1 42.8 C 167.0 43.4 165.0 43.4 161.0 43.4 L 13.6 43.4 C 9.7 43.4 7.7 43.4 5.6 42.8 C 3.3 41.9 1.5 40.1 0.7 37.8 C 0.0 35.7 0.0 33.7 0.0 29.8 L 0.0 13.6 C 0.0 9.7 0.0 7.7 0.7 5.6 C 1.5 3.3 3.3 1.5 5.6 0.7 C 7.7 0.0 9.7 0.0 13.7 0.0 Z M 13.6 0.0 " fill="none" stroke="#00872A" stroke-width="1.10" transform="matrix(1.00, 0.00, 0.00, -1.00, 1024.3, 632.8)"></path></g></g><g><clipPath id="clip-5184"><path d="M 1023.1 589.3 L 1200.2 589.3 L 1200.2 632.8 L 1023.1 632.8 Z M 1023.1 589.3 "></path></clipPath><g clip-path="url(#clip-5184)"><text xml:space="preserve" font-family="GillSans" font-size="20.0" fill="#000000" transform="matrix(1.00, 0.00, -0.00, -1.00, 1080.0, 604.0)">c</text><text xml:space="preserve" font-family="GillSans" font-size="20.0" fill="#000000" transform="matrix(1.00, 0.00, -0.00, -1.00, 1088.8, 604.0)">h</text><text xml:space="preserve" font-family="GillSans" font-size="20.0" fill="#000000" transform="matrix(1.00, 0.00, -0.00, -1.00, 1098.8, 604.0)">a</text><text xml:space="preserve" font-family="GillSans" font-size="20.0" fill="#000000" transform="matrix(1.00, 0.00, -0.00, -1.00, 1107.3, 604.0)">n</text><text xml:space="preserve" font-family="GillSans" font-size="20.0" fill="#000000" transform="matrix(1.00, 0.00, -0.00, -1.00, 1117.3, 604.0)">g</text><text xml:space="preserve" font-family="GillSans" font-size="20.0" fill="#000000" transform="matrix(1.00, 0.00, -0.00, -1.00, 1125.8, 604.0)">e</text><text xml:space="preserve" font-family="GillSans" font-size="20.0" fill="#000000" transform="matrix(1.00, 0.00, -0.00, -1.00, 1135.4, 604.0)">s</text></g></g><g><clipPath id="clip-5185"><path d="M 1187.6 567.8 L 1403.3 567.8 L 1403.3 652.3 L 1187.6 652.3 Z M 1187.6 567.8 "></path></clipPath><g clip-path="url(#clip-5185)"><image xlink:href="../../72E23638-77B0-4C1E-B6AC-88A981DBE5B0/assets/EE1D46639341C403A2B1C431AAFC5D9E.png" width="214.00" height="82.00" transform="matrix(1.00, 0.00, -0.00, -1.01, 1188.6, 651.3)" opacity="0.10"></image><path d="M 1221.7 632.8 L 1369.2 632.8 C 1373.1 632.8 1375.1 632.8 1377.2 632.1 C 1379.5 631.2 1381.3 629.4 1382.1 627.1 C 1382.8 625.0 1382.8 623.0 1382.8 619.1 L 1382.8 602.9 C 1382.8 599.0 1382.8 597.1 1382.1 594.9 C 1381.3 592.6 1379.5 590.8 1377.2 590.0 C 1375.1 589.3 1373.1 589.3 1369.1 589.3 L 1221.7 589.3 C 1217.8 589.3 1215.8 589.3 1213.7 590.0 C 1211.4 590.8 1209.6 592.6 1208.8 594.9 C 1208.1 597.1 1208.1 599.0 1208.1 603.0 L 1208.1 619.1 C 1208.1 623.0 1208.1 625.0 1208.8 627.1 C 1209.6 629.4 1211.4 631.2 1213.7 632.1 C 1215.8 632.8 1217.8 632.8 1221.8 632.8 Z M 1221.7 632.8 " fill="#FEFFFF"></path><path d="M 13.6 0.0 L 161.1 0.0 C 165.0 0.0 167.0 0.0 169.1 0.7 C 171.4 1.5 173.2 3.3 174.0 5.6 C 174.7 7.7 174.7 9.7 174.7 13.7 L 174.7 29.8 C 174.7 33.7 174.7 35.7 174.0 37.8 C 173.2 40.1 171.4 41.9 169.1 42.8 C 167.0 43.4 165.0 43.4 161.0 43.4 L 13.6 43.4 C 9.7 43.4 7.7 43.4 5.6 42.8 C 3.3 41.9 1.5 40.1 0.7 37.8 C 0.0 35.7 0.0 33.7 0.0 29.8 L 0.0 13.6 C 0.0 9.7 0.0 7.7 0.7 5.6 C 1.5 3.3 3.3 1.5 5.6 0.7 C 7.7 0.0 9.7 0.0 13.7 0.0 Z M 13.6 0.0 " fill="none" stroke="#C82505" stroke-width="1.10" transform="matrix(1.00, 0.00, 0.00, -1.00, 1208.1, 632.8)"></path></g></g><g><clipPath id="clip-5186"><path d="M 1206.9 589.3 L 1384.0 589.3 L 1384.0 632.8 L 1206.9 632.8 Z M 1206.9 589.3 "></path></clipPath><g clip-path="url(#clip-5186)"><text xml:space="preserve" font-family="GillSans" font-size="20.0" fill="#000000" transform="matrix(1.00, 0.00, -0.00, -1.00, 1274.0, 604.0)">l</text><text xml:space="preserve" font-family="GillSans" font-size="20.0" fill="#000000" transform="matrix(1.00, 0.00, -0.00, -1.00, 1278.4, 604.0)">i</text><text xml:space="preserve" font-family="GillSans" font-size="20.0" fill="#000000" transform="matrix(1.00, 0.00, -0.00, -1.00, 1282.8, 604.0)">q</text><text xml:space="preserve" font-family="GillSans" font-size="20.0" fill="#000000" transform="matrix(1.00, 0.00, -0.00, -1.00, 1292.8, 604.0)">u</text><text xml:space="preserve" font-family="GillSans" font-size="20.0" fill="#000000" transform="matrix(1.00, 0.00, -0.00, -1.00, 1302.8, 604.0)">i</text><text xml:space="preserve" font-family="GillSans" font-size="20.0" fill="#000000" transform="matrix(1.00, 0.00, -0.00, -1.00, 1307.2, 604.0)">d</text></g></g><text xml:space="preserve" font-family="GillSans" font-size="52.0" fill="#000000" transform="matrix(1.00, 0.00, -0.00, -1.00, 174.0, 563.0)">(</text><text xml:space="preserve" font-family="GillSans" font-size="52.0" fill="#000000" transform="matrix(1.00, 0.00, -0.00, -1.00, 190.8, 563.0)">A</text><text xml:space="preserve" font-family="GillSans" font-size="52.0" fill="#000000" transform="matrix(1.00, 0.00, -0.00, -1.00, 225.5, 563.0)">)</text><text xml:space="preserve" font-family="GillSans" font-size="52.0" fill="#000000" transform="matrix(1.00, 0.00, -0.00, -1.00, 242.3, 563.0)"> </text><text xml:space="preserve" font-family="GillSans" font-size="52.0" fill="#000000" transform="matrix(1.00, 0.00, -0.00, -1.00, 256.7, 563.0)">c</text><text xml:space="preserve" font-family="GillSans" font-size="52.0" fill="#000000" transform="matrix(1.00, 0.00, -0.00, -1.00, 279.5, 563.0)">o</text><text xml:space="preserve" font-family="GillSans" font-size="52.0" fill="#000000" transform="matrix(1.00, 0.00, -0.00, -1.00, 308.2, 563.0)">n</text><text xml:space="preserve" font-family="GillSans" font-size="52.0" fill="#000000" transform="matrix(1.00, 0.00, -0.00, -1.00, 334.2, 563.0)">d</text><text xml:space="preserve" font-family="GillSans" font-size="52.0" fill="#000000" transform="matrix(1.00, 0.00, -0.00, -1.00, 360.7, 563.0)">e</text><text xml:space="preserve" font-family="GillSans" font-size="52.0" fill="#000000" transform="matrix(1.00, 0.00, -0.00, -1.00, 385.6, 563.0)">n</text><text xml:space="preserve" font-family="GillSans" font-size="52.0" fill="#000000" transform="matrix(1.00, 0.00, -0.00, -1.00, 411.6, 563.0)">s</text><text xml:space="preserve" font-family="GillSans" font-size="52.0" fill="#000000" transform="matrix(1.00, 0.00, -0.00, -1.00, 431.6, 563.0)">a</text><text xml:space="preserve" font-family="GillSans" font-size="52.0" fill="#000000" transform="matrix(1.00, 0.00, -0.00, -1.00, 453.8, 563.0)">t</text><text xml:space="preserve" font-family="GillSans" font-size="52.0" fill="#000000" transform="matrix(1.00, 0.00, -0.00, -1.00, 471.1, 563.0)">i</text><text xml:space="preserve" font-family="GillSans" font-size="52.0" fill="#000000" transform="matrix(1.00, 0.00, -0.00, -1.00, 482.5, 563.0)">o</text><text xml:space="preserve" font-family="GillSans" font-size="52.0" fill="#000000" transform="matrix(1.00, 0.00, -0.00, -1.00, 511.2, 563.0)">n</text><text xml:space="preserve" font-family="GillSans" font-size="52.0" fill="#000000" transform="matrix(1.00, 0.00, -0.00, -1.00, 174.0, 415.0)">(</text><text xml:space="preserve" font-family="GillSans" font-size="52.0" fill="#000000" transform="matrix(1.00, 0.00, -0.00, -1.00, 190.8, 415.0)">B</text><text xml:space="preserve" font-family="GillSans" font-size="52.0" fill="#000000" transform="matrix(1.00, 0.00, -0.00, -1.00, 220.1, 415.0)">)</text><text xml:space="preserve" font-family="GillSans" font-size="52.0" fill="#000000" transform="matrix(1.00, 0.00, -0.00, -1.00, 236.9, 415.0)"> </text><text xml:space="preserve" font-family="GillSans" font-size="52.0" fill="#000000" transform="matrix(1.00, 0.00, -0.00, -1.00, 251.3, 415.0)">e</text><text xml:space="preserve" font-family="GillSans" font-size="52.0" fill="#000000" transform="matrix(1.00, 0.00, -0.00, -1.00, 275.5, 415.0)">v</text><text xml:space="preserve" font-family="GillSans" font-size="52.0" fill="#000000" transform="matrix(1.00, 0.00, -0.00, -1.00, 298.2, 415.0)">a</text><text xml:space="preserve" font-family="GillSans" font-size="52.0" fill="#000000" transform="matrix(1.00, 0.00, -0.00, -1.00, 319.9, 415.0)">p</text><text xml:space="preserve" font-family="GillSans" font-size="52.0" fill="#000000" transform="matrix(1.00, 0.00, -0.00, -1.00, 345.9, 415.0)">o</text><text xml:space="preserve" font-family="GillSans" font-size="52.0" fill="#000000" transform="matrix(1.00, 0.00, -0.00, -1.00, 374.6, 415.0)">r</text><text xml:space="preserve" font-family="GillSans" font-size="52.0" fill="#000000" transform="matrix(1.00, 0.00, -0.00, -1.00, 395.2, 415.0)">a</text><text xml:space="preserve" font-family="GillSans" font-size="52.0" fill="#000000" transform="matrix(1.00, 0.00, -0.00, -1.00, 417.4, 415.0)">t</text><text xml:space="preserve" font-family="GillSans" font-size="52.0" fill="#000000" transform="matrix(1.00, 0.00, -0.00, -1.00, 434.7, 415.0)">i</text><text xml:space="preserve" font-family="GillSans" font-size="52.0" fill="#000000" transform="matrix(1.00, 0.00, -0.00, -1.00, 446.1, 415.0)">o</text><text xml:space="preserve" font-family="GillSans" font-size="52.0" fill="#000000" transform="matrix(1.00, 0.00, -0.00, -1.00, 474.8, 415.0)">n</text><text xml:space="preserve" font-family="GillSans" font-size="52.0" fill="#000000" transform="matrix(1.00, 0.00, -0.00, -1.00, 174.0, 266.0)">(</text><text xml:space="preserve" font-family="GillSans" font-size="52.0" fill="#000000" transform="matrix(1.00, 0.00, -0.00, -1.00, 190.8, 266.0)">C</text><text xml:space="preserve" font-family="GillSans" font-size="52.0" fill="#000000" transform="matrix(1.00, 0.00, -0.00, -1.00, 227.6, 266.0)">)</text><text xml:space="preserve" font-family="GillSans" font-size="52.0" fill="#000000" transform="matrix(1.00, 0.00, -0.00, -1.00, 244.5, 266.0)"> </text><text xml:space="preserve" font-family="GillSans" font-size="52.0" fill="#000000" transform="matrix(1.00, 0.00, -0.00, -1.00, 258.9, 266.0)">p</text><text xml:space="preserve" font-family="GillSans" font-size="52.0" fill="#000000" transform="matrix(1.00, 0.00, -0.00, -1.00, 284.9, 266.0)">r</text><text xml:space="preserve" font-family="GillSans" font-size="52.0" fill="#000000" transform="matrix(1.00, 0.00, -0.00, -1.00, 304.4, 266.0)">e</text><text xml:space="preserve" font-family="GillSans" font-size="52.0" fill="#000000" transform="matrix(1.00, 0.00, -0.00, -1.00, 329.3, 266.0)">c</text><text xml:space="preserve" font-family="GillSans" font-size="52.0" fill="#000000" transform="matrix(1.00, 0.00, -0.00, -1.00, 352.1, 266.0)">i</text><text xml:space="preserve" font-family="GillSans" font-size="52.0" fill="#000000" transform="matrix(1.00, 0.00, -0.00, -1.00, 363.5, 266.0)">p</text><text xml:space="preserve" font-family="GillSans" font-size="52.0" fill="#000000" transform="matrix(1.00, 0.00, -0.00, -1.00, 389.5, 266.0)">i</text><text xml:space="preserve" font-family="GillSans" font-size="52.0" fill="#000000" transform="matrix(1.00, 0.00, -0.00, -1.00, 400.9, 266.0)">t</text><text xml:space="preserve" font-family="GillSans" font-size="52.0" fill="#000000" transform="matrix(1.00, 0.00, -0.00, -1.00, 418.3, 266.0)">a</text><text xml:space="preserve" font-family="GillSans" font-size="52.0" fill="#000000" transform="matrix(1.00, 0.00, -0.00, -1.00, 440.4, 266.0)">t</text><text xml:space="preserve" font-family="GillSans" font-size="52.0" fill="#000000" transform="matrix(1.00, 0.00, -0.00, -1.00, 457.8, 266.0)">i</text><text xml:space="preserve" font-family="GillSans" font-size="52.0" fill="#000000" transform="matrix(1.00, 0.00, -0.00, -1.00, 469.2, 266.0)">o</text><text xml:space="preserve" font-family="GillSans" font-size="52.0" fill="#000000" transform="matrix(1.00, 0.00, -0.00, -1.00, 497.8, 266.0)">n</text><text xml:space="preserve" font-family="GillSans" font-size="52.0" fill="#000000" transform="matrix(1.00, 0.00, -0.00, -1.00, 174.0, 127.0)">(</text><text xml:space="preserve" font-family="GillSans" font-size="52.0" fill="#000000" transform="matrix(1.00, 0.00, -0.00, -1.00, 190.8, 127.0)">D</text><text xml:space="preserve" font-family="GillSans" font-size="52.0" fill="#000000" transform="matrix(1.00, 0.00, -0.00, -1.00, 229.8, 127.0)">)</text><text xml:space="preserve" font-family="GillSans" font-size="52.0" fill="#000000" transform="matrix(1.00, 0.00, -0.00, -1.00, 246.6, 127.0)"> </text><text xml:space="preserve" font-family="GillSans" font-size="52.0" fill="#000000" transform="matrix(1.00, 0.00, -0.00, -1.00, 261.1, 127.0)">r</text><text xml:space="preserve" font-family="GillSans" font-size="52.0" fill="#000000" transform="matrix(1.00, 0.00, -0.00, -1.00, 281.7, 127.0)">u</text><text xml:space="preserve" font-family="GillSans" font-size="52.0" fill="#000000" transform="matrix(1.00, 0.00, -0.00, -1.00, 307.7, 127.0)">n</text><text xml:space="preserve" font-family="GillSans" font-size="52.0" fill="#000000" transform="matrix(1.00, 0.00, -0.00, -1.00, 333.7, 127.0)">-</text><text xml:space="preserve" font-family="GillSans" font-size="52.0" fill="#000000" transform="matrix(1.00, 0.00, -0.00, -1.00, 350.5, 127.0)">o</text><text xml:space="preserve" font-family="GillSans" font-size="52.0" fill="#000000" transform="matrix(1.00, 0.00, -0.00, -1.00, 379.2, 127.0)">f</text><text xml:space="preserve" font-family="GillSans" font-size="52.0" fill="#000000" transform="matrix(1.00, 0.00, -0.00, -1.00, 392.2, 127.0)">f</text><g><clipPath id="clip-5187"><path d="M 636.3 270.3 L 852.0 270.3 L 852.0 354.7 L 636.3 354.7 Z M 636.3 270.3 "></path></clipPath><g clip-path="url(#clip-5187)"><image xlink:href="../../72E23638-77B0-4C1E-B6AC-88A981DBE5B0/assets/537B2F8E33ED649654B15D5A46765EEE.png" width="214.00" height="82.00" transform="matrix(1.00, 0.00, -0.00, -1.01, 637.3, 353.7)" opacity="0.10"></image><path d="M 670.5 335.2 L 817.9 335.2 C 821.8 335.2 823.8 335.2 825.9 334.5 C 828.2 333.7 830.0 331.9 830.9 329.6 C 831.5 327.5 831.5 325.5 831.5 321.5 L 831.5 305.4 C 831.5 301.5 831.5 299.5 830.9 297.4 C 830.0 295.1 828.2 293.3 825.9 292.4 C 823.8 291.8 821.8 291.8 817.9 291.8 L 670.5 291.8 C 666.6 291.8 664.6 291.8 662.5 292.4 C 660.2 293.3 658.4 295.1 657.5 297.4 C 656.8 299.5 656.8 301.5 656.8 305.4 L 656.8 321.6 C 656.8 325.5 656.8 327.5 657.5 329.6 C 658.4 331.9 660.2 333.7 662.5 334.5 C 664.6 335.2 666.6 335.2 670.5 335.2 Z M 670.5 335.2 " fill="#FEFFFF"></path><path d="M 13.6 0.0 L 161.1 0.0 C 165.0 0.0 167.0 0.0 169.1 0.7 C 171.4 1.5 173.2 3.3 174.0 5.6 C 174.7 7.7 174.7 9.7 174.7 13.7 L 174.7 29.8 C 174.7 33.7 174.7 35.7 174.0 37.8 C 173.2 40.1 171.4 41.9 169.1 42.8 C 167.0 43.4 165.0 43.4 161.0 43.4 L 13.6 43.4 C 9.7 43.4 7.7 43.4 5.6 42.8 C 3.3 41.9 1.5 40.1 0.7 37.8 C 0.0 35.7 0.0 33.7 0.0 29.8 L 0.0 13.6 C 0.0 9.7 0.0 7.7 0.7 5.6 C 1.5 3.3 3.3 1.5 5.6 0.7 C 7.7 0.0 9.7 0.0 13.7 0.0 Z M 13.6 0.0 " fill="none" stroke="#0264C0" stroke-width="1.10" transform="matrix(1.00, 0.00, 0.00, -1.00, 656.8, 335.2)"></path></g></g><g><clipPath id="clip-5188"><path d="M 655.7 291.8 L 832.7 291.8 L 832.7 335.2 L 655.7 335.2 Z M 655.7 291.8 "></path></clipPath><g clip-path="url(#clip-5188)"><text xml:space="preserve" font-family="GillSans" font-size="20.0" fill="#000000" transform="matrix(1.00, 0.00, -0.00, -1.00, 695.0, 306.0)">w</text><text xml:space="preserve" font-family="GillSans" font-size="20.0" fill="#000000" transform="matrix(1.00, 0.00, -0.00, -1.00, 709.4, 306.0)">a</text><text xml:space="preserve" font-family="GillSans" font-size="20.0" fill="#000000" transform="matrix(1.00, 0.00, -0.00, -1.00, 717.9, 306.0)">t</text><text xml:space="preserve" font-family="GillSans" font-size="20.0" fill="#000000" transform="matrix(1.00, 0.00, -0.00, -1.00, 724.6, 306.0)">e</text><text xml:space="preserve" font-family="GillSans" font-size="20.0" fill="#000000" transform="matrix(1.00, 0.00, -0.00, -1.00, 734.2, 306.0)">r</text><text xml:space="preserve" font-family="GillSans" font-size="20.0" fill="#000000" transform="matrix(1.00, 0.00, -0.00, -1.00, 742.1, 306.0)"> </text><text xml:space="preserve" font-family="GillSans" font-size="20.0" fill="#000000" transform="matrix(1.00, 0.00, -0.00, -1.00, 747.6, 306.0)">v</text><text xml:space="preserve" font-family="GillSans" font-size="20.0" fill="#000000" transform="matrix(1.00, 0.00, -0.00, -1.00, 756.4, 306.0)">a</text><text xml:space="preserve" font-family="GillSans" font-size="20.0" fill="#000000" transform="matrix(1.00, 0.00, -0.00, -1.00, 764.7, 306.0)">p</text><text xml:space="preserve" font-family="GillSans" font-size="20.0" fill="#000000" transform="matrix(1.00, 0.00, -0.00, -1.00, 774.7, 306.0)">o</text><text xml:space="preserve" font-family="GillSans" font-size="20.0" fill="#000000" transform="matrix(1.00, 0.00, -0.00, -1.00, 785.8, 306.0)">r</text></g></g><g><clipPath id="clip-5189"><path d="M 820.1 270.3 L 1035.8 270.3 L 1035.8 354.7 L 820.1 354.7 Z M 820.1 270.3 "></path></clipPath><g clip-path="url(#clip-5189)"><image xlink:href="../../72E23638-77B0-4C1E-B6AC-88A981DBE5B0/assets/537B2F8E33ED649654B15D5A46765EEE.png" width="214.00" height="82.00" transform="matrix(1.00, 0.00, -0.00, -1.01, 821.1, 353.7)" opacity="0.10"></image><path d="M 854.2 335.2 L 1001.7 335.2 C 1005.6 335.2 1007.6 335.2 1009.7 334.5 C 1012.0 333.7 1013.8 331.9 1014.6 329.6 C 1015.3 327.5 1015.3 325.5 1015.3 321.5 L 1015.3 305.4 C 1015.3 301.5 1015.3 299.5 1014.6 297.4 C 1013.8 295.1 1012.0 293.3 1009.7 292.4 C 1007.6 291.8 1005.6 291.8 1001.6 291.8 L 854.2 291.8 C 850.3 291.8 848.3 291.8 846.2 292.4 C 843.9 293.3 842.1 295.1 841.3 297.4 C 840.6 299.5 840.6 301.5 840.6 305.4 L 840.6 321.6 C 840.6 325.5 840.6 327.5 841.3 329.6 C 842.1 331.9 843.9 333.7 846.2 334.5 C 848.3 335.2 850.3 335.2 854.3 335.2 Z M 854.2 335.2 " fill="#FEFFFF"></path><path d="M 13.6 0.0 L 161.1 0.0 C 165.0 0.0 167.0 0.0 169.1 0.7 C 171.4 1.5 173.2 3.3 174.0 5.6 C 174.7 7.7 174.7 9.7 174.7 13.7 L 174.7 29.8 C 174.7 33.7 174.7 35.7 174.0 37.8 C 173.2 40.1 171.4 41.9 169.1 42.8 C 167.0 43.4 165.0 43.4 161.0 43.4 L 13.6 43.4 C 9.7 43.4 7.7 43.4 5.6 42.8 C 3.3 41.9 1.5 40.1 0.7 37.8 C 0.0 35.7 0.0 33.7 0.0 29.8 L 0.0 13.6 C 0.0 9.7 0.0 7.7 0.7 5.6 C 1.5 3.3 3.3 1.5 5.6 0.7 C 7.7 0.0 9.7 0.0 13.7 0.0 Z M 13.6 0.0 " fill="none" stroke="#C39719" stroke-width="1.10" transform="matrix(1.00, 0.00, 0.00, -1.00, 840.6, 335.2)"></path></g></g><g><clipPath id="clip-5190"><path d="M 839.4 291.8 L 1016.5 291.8 L 1016.5 335.2 L 839.4 335.2 Z M 839.4 291.8 "></path></clipPath><g clip-path="url(#clip-5190)"><text xml:space="preserve" font-family="GillSans" font-size="20.0" fill="#000000" transform="matrix(1.00, 0.00, -0.00, -1.00, 918.0, 306.0)">·</text><text xml:space="preserve" font-family="GillSans" font-size="20.0" fill="#000000" transform="matrix(1.00, 0.00, -0.00, -1.00, 924.7, 306.0)">·</text><text xml:space="preserve" font-family="GillSans" font-size="20.0" fill="#000000" transform="matrix(1.00, 0.00, -0.00, -1.00, 931.4, 306.0)">·</text></g></g><g><clipPath id="clip-5191"><path d="M 1003.8 270.3 L 1219.5 270.3 L 1219.5 354.7 L 1003.8 354.7 Z M 1003.8 270.3 "></path></clipPath><g clip-path="url(#clip-5191)"><image xlink:href="../../72E23638-77B0-4C1E-B6AC-88A981DBE5B0/assets/537B2F8E33ED649654B15D5A46765EEE.png" width="214.00" height="82.00" transform="matrix(1.00, 0.00, -0.00, -1.01, 1004.8, 353.7)" opacity="0.10"></image><path d="M 1038.0 335.2 L 1185.4 335.2 C 1189.3 335.2 1191.3 335.2 1193.4 334.5 C 1195.7 333.7 1197.5 331.9 1198.4 329.6 C 1199.0 327.5 1199.0 325.5 1199.0 321.5 L 1199.0 305.4 C 1199.0 301.5 1199.0 299.5 1198.4 297.4 C 1197.5 295.1 1195.7 293.3 1193.4 292.4 C 1191.3 291.8 1189.3 291.8 1185.4 291.8 L 1038.0 291.8 C 1034.1 291.8 1032.1 291.8 1030.0 292.4 C 1027.7 293.3 1025.8 295.1 1025.0 297.4 C 1024.3 299.5 1024.3 301.5 1024.3 305.4 L 1024.3 321.6 C 1024.3 325.5 1024.3 327.5 1025.0 329.6 C 1025.8 331.9 1027.7 333.7 1030.0 334.5 C 1032.1 335.2 1034.1 335.2 1038.0 335.2 Z M 1038.0 335.2 " fill="#FEFFFF"></path><path d="M 13.6 0.0 L 161.1 0.0 C 165.0 0.0 167.0 0.0 169.1 0.7 C 171.4 1.5 173.2 3.3 174.0 5.6 C 174.7 7.7 174.7 9.7 174.7 13.7 L 174.7 29.8 C 174.7 33.7 174.7 35.7 174.0 37.8 C 173.2 40.1 171.4 41.9 169.1 42.8 C 167.0 43.4 165.0 43.4 161.0 43.4 L 13.6 43.4 C 9.7 43.4 7.7 43.4 5.6 42.8 C 3.3 41.9 1.5 40.1 0.7 37.8 C 0.0 35.7 0.0 33.7 0.0 29.8 L 0.0 13.6 C 0.0 9.7 0.0 7.7 0.7 5.6 C 1.5 3.3 3.3 1.5 5.6 0.7 C 7.7 0.0 9.7 0.0 13.7 0.0 Z M 13.6 0.0 " fill="none" stroke="#00872A" stroke-width="1.10" transform="matrix(1.00, 0.00, 0.00, -1.00, 1024.3, 335.2)"></path></g></g><g><clipPath id="clip-5192"><path d="M 1023.1 291.8 L 1200.2 291.8 L 1200.2 335.2 L 1023.1 335.2 Z M 1023.1 291.8 "></path></clipPath><g clip-path="url(#clip-5192)"><text xml:space="preserve" font-family="GillSans" font-size="20.0" fill="#000000" transform="matrix(1.00, 0.00, -0.00, -1.00, 1080.0, 306.0)">c</text><text xml:space="preserve" font-family="GillSans" font-size="20.0" fill="#000000" transform="matrix(1.00, 0.00, -0.00, -1.00, 1088.8, 306.0)">h</text><text xml:space="preserve" font-family="GillSans" font-size="20.0" fill="#000000" transform="matrix(1.00, 0.00, -0.00, -1.00, 1098.8, 306.0)">a</text><text xml:space="preserve" font-family="GillSans" font-size="20.0" fill="#000000" transform="matrix(1.00, 0.00, -0.00, -1.00, 1107.3, 306.0)">n</text><text xml:space="preserve" font-family="GillSans" font-size="20.0" fill="#000000" transform="matrix(1.00, 0.00, -0.00, -1.00, 1117.3, 306.0)">g</text><text xml:space="preserve" font-family="GillSans" font-size="20.0" fill="#000000" transform="matrix(1.00, 0.00, -0.00, -1.00, 1125.8, 306.0)">e</text><text xml:space="preserve" font-family="GillSans" font-size="20.0" fill="#000000" transform="matrix(1.00, 0.00, -0.00, -1.00, 1135.4, 306.0)">s</text></g></g><g><clipPath id="clip-5193"><path d="M 1187.6 270.3 L 1403.3 270.3 L 1403.3 354.7 L 1187.6 354.7 Z M 1187.6 270.3 "></path></clipPath><g clip-path="url(#clip-5193)"><image xlink:href="../../72E23638-77B0-4C1E-B6AC-88A981DBE5B0/assets/537B2F8E33ED649654B15D5A46765EEE.png" width="214.00" height="82.00" transform="matrix(1.00, 0.00, -0.00, -1.01, 1188.6, 353.7)" opacity="0.10"></image><path d="M 1221.7 335.2 L 1369.2 335.2 C 1373.1 335.2 1375.1 335.2 1377.2 334.5 C 1379.5 333.7 1381.3 331.9 1382.1 329.6 C 1382.8 327.5 1382.8 325.5 1382.8 321.5 L 1382.8 305.4 C 1382.8 301.5 1382.8 299.5 1382.1 297.4 C 1381.3 295.1 1379.5 293.3 1377.2 292.4 C 1375.1 291.8 1373.1 291.8 1369.1 291.8 L 1221.7 291.8 C 1217.8 291.8 1215.8 291.8 1213.7 292.4 C 1211.4 293.3 1209.6 295.1 1208.8 297.4 C 1208.1 299.5 1208.1 301.5 1208.1 305.4 L 1208.1 321.6 C 1208.1 325.5 1208.1 327.5 1208.8 329.6 C 1209.6 331.9 1211.4 333.7 1213.7 334.5 C 1215.8 335.2 1217.8 335.2 1221.8 335.2 Z M 1221.7 335.2 " fill="#FEFFFF"></path><path d="M 13.6 0.0 L 161.1 0.0 C 165.0 0.0 167.0 0.0 169.1 0.7 C 171.4 1.5 173.2 3.3 174.0 5.6 C 174.7 7.7 174.7 9.7 174.7 13.7 L 174.7 29.8 C 174.7 33.7 174.7 35.7 174.0 37.8 C 173.2 40.1 171.4 41.9 169.1 42.8 C 167.0 43.4 165.0 43.4 161.0 43.4 L 13.6 43.4 C 9.7 43.4 7.7 43.4 5.6 42.8 C 3.3 41.9 1.5 40.1 0.7 37.8 C 0.0 35.7 0.0 33.7 0.0 29.8 L 0.0 13.6 C 0.0 9.7 0.0 7.7 0.7 5.6 C 1.5 3.3 3.3 1.5 5.6 0.7 C 7.7 0.0 9.7 0.0 13.7 0.0 Z M 13.6 0.0 " fill="none" stroke="#C82505" stroke-width="1.10" transform="matrix(1.00, 0.00, 0.00, -1.00, 1208.1, 335.2)"></path></g></g><g><clipPath id="clip-5194"><path d="M 1206.9 291.8 L 1384.0 291.8 L 1384.0 335.2 L 1206.9 335.2 Z M 1206.9 291.8 "></path></clipPath><g clip-path="url(#clip-5194)"><text xml:space="preserve" font-family="GillSans" font-size="20.0" fill="#000000" transform="matrix(1.00, 0.00, -0.00, -1.00, 1274.0, 306.0)">l</text><text xml:space="preserve" font-family="GillSans" font-size="20.0" fill="#000000" transform="matrix(1.00, 0.00, -0.00, -1.00, 1278.4, 306.0)">i</text><text xml:space="preserve" font-family="GillSans" font-size="20.0" fill="#000000" transform="matrix(1.00, 0.00, -0.00, -1.00, 1282.8, 306.0)">q</text><text xml:space="preserve" font-family="GillSans" font-size="20.0" fill="#000000" transform="matrix(1.00, 0.00, -0.00, -1.00, 1292.8, 306.0)">u</text><text xml:space="preserve" font-family="GillSans" font-size="20.0" fill="#000000" transform="matrix(1.00, 0.00, -0.00, -1.00, 1302.8, 306.0)">i</text><text xml:space="preserve" font-family="GillSans" font-size="20.0" fill="#000000" transform="matrix(1.00, 0.00, -0.00, -1.00, 1307.2, 306.0)">d</text></g></g><g><clipPath id="clip-5195"><path d="M 636.3 121.5 L 852.0 121.5 L 852.0 205.9 L 636.3 205.9 Z M 636.3 121.5 "></path></clipPath><g clip-path="url(#clip-5195)"><image xlink:href="../../72E23638-77B0-4C1E-B6AC-88A981DBE5B0/assets/537B2F8E33ED649654B15D5A46765EEE.png" width="214.00" height="82.00" transform="matrix(1.00, 0.00, -0.00, -1.01, 637.3, 204.9)" opacity="0.10"></image><path d="M 670.5 186.4 L 817.9 186.4 C 821.8 186.4 823.8 186.4 825.9 185.7 C 828.2 184.9 830.0 183.1 830.9 180.8 C 831.5 178.7 831.5 176.7 831.5 172.7 L 831.5 156.6 C 831.5 152.7 831.5 150.7 830.9 148.6 C 830.0 146.3 828.2 144.5 825.9 143.6 C 823.8 143.0 821.8 143.0 817.9 143.0 L 670.5 143.0 C 666.6 143.0 664.6 143.0 662.5 143.6 C 660.2 144.5 658.4 146.3 657.5 148.6 C 656.8 150.7 656.8 152.7 656.8 156.7 L 656.8 172.8 C 656.8 176.7 656.8 178.7 657.5 180.8 C 658.4 183.1 660.2 184.9 662.5 185.7 C 664.6 186.4 666.6 186.4 670.5 186.4 Z M 670.5 186.4 " fill="#FEFFFF"></path><path d="M 13.6 0.0 L 161.1 0.0 C 165.0 0.0 167.0 0.0 169.1 0.7 C 171.4 1.5 173.2 3.3 174.0 5.6 C 174.7 7.7 174.7 9.7 174.7 13.7 L 174.7 29.8 C 174.7 33.7 174.7 35.7 174.0 37.8 C 173.2 40.1 171.4 41.9 169.1 42.8 C 167.0 43.4 165.0 43.4 161.0 43.4 L 13.6 43.4 C 9.7 43.4 7.7 43.4 5.6 42.8 C 3.3 41.9 1.5 40.1 0.7 37.8 C 0.0 35.7 0.0 33.7 0.0 29.8 L 0.0 13.6 C 0.0 9.7 0.0 7.7 0.7 5.6 C 1.5 3.3 3.3 1.5 5.6 0.7 C 7.7 0.0 9.7 0.0 13.7 0.0 Z M 13.6 0.0 " fill="none" stroke="#0264C0" stroke-width="1.10" transform="matrix(1.00, 0.00, 0.00, -1.00, 656.8, 186.4)"></path></g></g><g><clipPath id="clip-5196"><path d="M 655.7 143.0 L 832.7 143.0 L 832.7 186.4 L 655.7 186.4 Z M 655.7 143.0 "></path></clipPath><g clip-path="url(#clip-5196)"><text xml:space="preserve" font-family="GillSans" font-size="20.0" fill="#000000" transform="matrix(1.00, 0.00, -0.00, -1.00, 695.0, 158.0)">w</text><text xml:space="preserve" font-family="GillSans" font-size="20.0" fill="#000000" transform="matrix(1.00, 0.00, -0.00, -1.00, 709.4, 158.0)">a</text><text xml:space="preserve" font-family="GillSans" font-size="20.0" fill="#000000" transform="matrix(1.00, 0.00, -0.00, -1.00, 717.9, 158.0)">t</text><text xml:space="preserve" font-family="GillSans" font-size="20.0" fill="#000000" transform="matrix(1.00, 0.00, -0.00, -1.00, 724.6, 158.0)">e</text><text xml:space="preserve" font-family="GillSans" font-size="20.0" fill="#000000" transform="matrix(1.00, 0.00, -0.00, -1.00, 734.2, 158.0)">r</text><text xml:space="preserve" font-family="GillSans" font-size="20.0" fill="#000000" transform="matrix(1.00, 0.00, -0.00, -1.00, 742.1, 158.0)"> </text><text xml:space="preserve" font-family="GillSans" font-size="20.0" fill="#000000" transform="matrix(1.00, 0.00, -0.00, -1.00, 747.6, 158.0)">v</text><text xml:space="preserve" font-family="GillSans" font-size="20.0" fill="#000000" transform="matrix(1.00, 0.00, -0.00, -1.00, 756.4, 158.0)">a</text><text xml:space="preserve" font-family="GillSans" font-size="20.0" fill="#000000" transform="matrix(1.00, 0.00, -0.00, -1.00, 764.7, 158.0)">p</text><text xml:space="preserve" font-family="GillSans" font-size="20.0" fill="#000000" transform="matrix(1.00, 0.00, -0.00, -1.00, 774.7, 158.0)">o</text><text xml:space="preserve" font-family="GillSans" font-size="20.0" fill="#000000" transform="matrix(1.00, 0.00, -0.00, -1.00, 785.8, 158.0)">r</text></g></g><g><clipPath id="clip-5197"><path d="M 820.1 121.5 L 1035.8 121.5 L 1035.8 205.9 L 820.1 205.9 Z M 820.1 121.5 "></path></clipPath><g clip-path="url(#clip-5197)"><image xlink:href="../../72E23638-77B0-4C1E-B6AC-88A981DBE5B0/assets/537B2F8E33ED649654B15D5A46765EEE.png" width="214.00" height="82.00" transform="matrix(1.00, 0.00, -0.00, -1.01, 821.1, 204.9)" opacity="0.10"></image><path d="M 854.2 186.4 L 1001.7 186.4 C 1005.6 186.4 1007.6 186.4 1009.7 185.7 C 1012.0 184.9 1013.8 183.1 1014.6 180.8 C 1015.3 178.7 1015.3 176.7 1015.3 172.7 L 1015.3 156.6 C 1015.3 152.7 1015.3 150.7 1014.6 148.6 C 1013.8 146.3 1012.0 144.5 1009.7 143.6 C 1007.6 143.0 1005.6 143.0 1001.6 143.0 L 854.2 143.0 C 850.3 143.0 848.3 143.0 846.2 143.6 C 843.9 144.5 842.1 146.3 841.3 148.6 C 840.6 150.7 840.6 152.7 840.6 156.7 L 840.6 172.8 C 840.6 176.7 840.6 178.7 841.3 180.8 C 842.1 183.1 843.9 184.9 846.2 185.7 C 848.3 186.4 850.3 186.4 854.3 186.4 Z M 854.2 186.4 " fill="#FEFFFF"></path><path d="M 13.6 0.0 L 161.1 0.0 C 165.0 0.0 167.0 0.0 169.1 0.7 C 171.4 1.5 173.2 3.3 174.0 5.6 C 174.7 7.7 174.7 9.7 174.7 13.7 L 174.7 29.8 C 174.7 33.7 174.7 35.7 174.0 37.8 C 173.2 40.1 171.4 41.9 169.1 42.8 C 167.0 43.4 165.0 43.4 161.0 43.4 L 13.6 43.4 C 9.7 43.4 7.7 43.4 5.6 42.8 C 3.3 41.9 1.5 40.1 0.7 37.8 C 0.0 35.7 0.0 33.7 0.0 29.8 L 0.0 13.6 C 0.0 9.7 0.0 7.7 0.7 5.6 C 1.5 3.3 3.3 1.5 5.6 0.7 C 7.7 0.0 9.7 0.0 13.7 0.0 Z M 13.6 0.0 " fill="none" stroke="#C39719" stroke-width="1.10" transform="matrix(1.00, 0.00, 0.00, -1.00, 840.6, 186.4)"></path></g></g><g><clipPath id="clip-5198"><path d="M 839.4 143.0 L 1016.5 143.0 L 1016.5 186.4 L 839.4 186.4 Z M 839.4 143.0 "></path></clipPath><g clip-path="url(#clip-5198)"><text xml:space="preserve" font-family="GillSans" font-size="20.0" fill="#000000" transform="matrix(1.00, 0.00, -0.00, -1.00, 918.0, 158.0)">·</text><text xml:space="preserve" font-family="GillSans" font-size="20.0" fill="#000000" transform="matrix(1.00, 0.00, -0.00, -1.00, 924.7, 158.0)">·</text><text xml:space="preserve" font-family="GillSans" font-size="20.0" fill="#000000" transform="matrix(1.00, 0.00, -0.00, -1.00, 931.4, 158.0)">·</text></g></g><g><clipPath id="clip-5199"><path d="M 1003.8 121.5 L 1219.5 121.5 L 1219.5 205.9 L 1003.8 205.9 Z M 1003.8 121.5 "></path></clipPath><g clip-path="url(#clip-5199)"><image xlink:href="../../72E23638-77B0-4C1E-B6AC-88A981DBE5B0/assets/537B2F8E33ED649654B15D5A46765EEE.png" width="214.00" height="82.00" transform="matrix(1.00, 0.00, -0.00, -1.01, 1004.8, 204.9)" opacity="0.10"></image><path d="M 1038.0 186.4 L 1185.4 186.4 C 1189.3 186.4 1191.3 186.4 1193.4 185.7 C 1195.7 184.9 1197.5 183.1 1198.4 180.8 C 1199.0 178.7 1199.0 176.7 1199.0 172.7 L 1199.0 156.6 C 1199.0 152.7 1199.0 150.7 1198.4 148.6 C 1197.5 146.3 1195.7 144.5 1193.4 143.6 C 1191.3 143.0 1189.3 143.0 1185.4 143.0 L 1038.0 143.0 C 1034.1 143.0 1032.1 143.0 1030.0 143.6 C 1027.7 144.5 1025.8 146.3 1025.0 148.6 C 1024.3 150.7 1024.3 152.7 1024.3 156.7 L 1024.3 172.8 C 1024.3 176.7 1024.3 178.7 1025.0 180.8 C 1025.8 183.1 1027.7 184.9 1030.0 185.7 C 1032.1 186.4 1034.1 186.4 1038.0 186.4 Z M 1038.0 186.4 " fill="#FEFFFF"></path><path d="M 13.6 0.0 L 161.1 0.0 C 165.0 0.0 167.0 0.0 169.1 0.7 C 171.4 1.5 173.2 3.3 174.0 5.6 C 174.7 7.7 174.7 9.7 174.7 13.7 L 174.7 29.8 C 174.7 33.7 174.7 35.7 174.0 37.8 C 173.2 40.1 171.4 41.9 169.1 42.8 C 167.0 43.4 165.0 43.4 161.0 43.4 L 13.6 43.4 C 9.7 43.4 7.7 43.4 5.6 42.8 C 3.3 41.9 1.5 40.1 0.7 37.8 C 0.0 35.7 0.0 33.7 0.0 29.8 L 0.0 13.6 C 0.0 9.7 0.0 7.7 0.7 5.6 C 1.5 3.3 3.3 1.5 5.6 0.7 C 7.7 0.0 9.7 0.0 13.7 0.0 Z M 13.6 0.0 " fill="none" stroke="#00872A" stroke-width="1.10" transform="matrix(1.00, 0.00, 0.00, -1.00, 1024.3, 186.4)"></path></g></g><g><clipPath id="clip-5200"><path d="M 1023.1 143.0 L 1200.2 143.0 L 1200.2 186.4 L 1023.1 186.4 Z M 1023.1 143.0 "></path></clipPath><g clip-path="url(#clip-5200)"><text xml:space="preserve" font-family="GillSans" font-size="20.0" fill="#000000" transform="matrix(1.00, 0.00, -0.00, -1.00, 1080.0, 158.0)">c</text><text xml:space="preserve" font-family="GillSans" font-size="20.0" fill="#000000" transform="matrix(1.00, 0.00, -0.00, -1.00, 1088.8, 158.0)">h</text><text xml:space="preserve" font-family="GillSans" font-size="20.0" fill="#000000" transform="matrix(1.00, 0.00, -0.00, -1.00, 1098.8, 158.0)">a</text><text xml:space="preserve" font-family="GillSans" font-size="20.0" fill="#000000" transform="matrix(1.00, 0.00, -0.00, -1.00, 1107.3, 158.0)">n</text><text xml:space="preserve" font-family="GillSans" font-size="20.0" fill="#000000" transform="matrix(1.00, 0.00, -0.00, -1.00, 1117.3, 158.0)">g</text><text xml:space="preserve" font-family="GillSans" font-size="20.0" fill="#000000" transform="matrix(1.00, 0.00, -0.00, -1.00, 1125.8, 158.0)">e</text><text xml:space="preserve" font-family="GillSans" font-size="20.0" fill="#000000" transform="matrix(1.00, 0.00, -0.00, -1.00, 1135.4, 158.0)">s</text></g></g><g><clipPath id="clip-5201"><path d="M 1187.6 121.5 L 1403.3 121.5 L 1403.3 205.9 L 1187.6 205.9 Z M 1187.6 121.5 "></path></clipPath><g clip-path="url(#clip-5201)"><image xlink:href="../../72E23638-77B0-4C1E-B6AC-88A981DBE5B0/assets/537B2F8E33ED649654B15D5A46765EEE.png" width="214.00" height="82.00" transform="matrix(1.00, 0.00, -0.00, -1.01, 1188.6, 204.9)" opacity="0.10"></image><path d="M 1221.7 186.4 L 1369.2 186.4 C 1373.1 186.4 1375.1 186.4 1377.2 185.7 C 1379.5 184.9 1381.3 183.1 1382.1 180.8 C 1382.8 178.7 1382.8 176.7 1382.8 172.7 L 1382.8 156.6 C 1382.8 152.7 1382.8 150.7 1382.1 148.6 C 1381.3 146.3 1379.5 144.5 1377.2 143.6 C 1375.1 143.0 1373.1 143.0 1369.1 143.0 L 1221.7 143.0 C 1217.8 143.0 1215.8 143.0 1213.7 143.6 C 1211.4 144.5 1209.6 146.3 1208.8 148.6 C 1208.1 150.7 1208.1 152.7 1208.1 156.7 L 1208.1 172.8 C 1208.1 176.7 1208.1 178.7 1208.8 180.8 C 1209.6 183.1 1211.4 184.9 1213.7 185.7 C 1215.8 186.4 1217.8 186.4 1221.8 186.4 Z M 1221.7 186.4 " fill="#FEFFFF"></path><path d="M 13.6 0.0 L 161.1 0.0 C 165.0 0.0 167.0 0.0 169.1 0.7 C 171.4 1.5 173.2 3.3 174.0 5.6 C 174.7 7.7 174.7 9.7 174.7 13.7 L 174.7 29.8 C 174.7 33.7 174.7 35.7 174.0 37.8 C 173.2 40.1 171.4 41.9 169.1 42.8 C 167.0 43.4 165.0 43.4 161.0 43.4 L 13.6 43.4 C 9.7 43.4 7.7 43.4 5.6 42.8 C 3.3 41.9 1.5 40.1 0.7 37.8 C 0.0 35.7 0.0 33.7 0.0 29.8 L 0.0 13.6 C 0.0 9.7 0.0 7.7 0.7 5.6 C 1.5 3.3 3.3 1.5 5.6 0.7 C 7.7 0.0 9.7 0.0 13.7 0.0 Z M 13.6 0.0 " fill="none" stroke="#C82505" stroke-width="1.10" transform="matrix(1.00, 0.00, 0.00, -1.00, 1208.1, 186.4)"></path></g></g><g><clipPath id="clip-5202"><path d="M 1206.9 143.0 L 1384.0 143.0 L 1384.0 186.4 L 1206.9 186.4 Z M 1206.9 143.0 "></path></clipPath><g clip-path="url(#clip-5202)"><text xml:space="preserve" font-family="GillSans" font-size="20.0" fill="#000000" transform="matrix(1.00, 0.00, -0.00, -1.00, 1274.0, 158.0)">l</text><text xml:space="preserve" font-family="GillSans" font-size="20.0" fill="#000000" transform="matrix(1.00, 0.00, -0.00, -1.00, 1278.4, 158.0)">i</text><text xml:space="preserve" font-family="GillSans" font-size="20.0" fill="#000000" transform="matrix(1.00, 0.00, -0.00, -1.00, 1282.8, 158.0)">q</text><text xml:space="preserve" font-family="GillSans" font-size="20.0" fill="#000000" transform="matrix(1.00, 0.00, -0.00, -1.00, 1292.8, 158.0)">u</text><text xml:space="preserve" font-family="GillSans" font-size="20.0" fill="#000000" transform="matrix(1.00, 0.00, -0.00, -1.00, 1302.8, 158.0)">i</text><text xml:space="preserve" font-family="GillSans" font-size="20.0" fill="#000000" transform="matrix(1.00, 0.00, -0.00, -1.00, 1307.2, 158.0)">d</text></g></g></g></svg>